# MagicaVoxel @ Ephtracy

# group
o 

# material
mtllib trans_5_1.mtl
usemtl palette

# normals
vn -1 0 0
vn 1 0 0
vn 0 0 1
vn 0 0 -1
vn 0 -1 0
vn 0 1 0

# texcoords
vt 0.962891 0.5
vt 0.970703 0.5

# verts
v -0.2 0 -0.4
v -0.2 0 -0.5
v -0.2 0 -0.7
v -0.2 0 -0.8
v -0.2 0.1 -0.5
v -0.2 0.1 -0.6
v -0.2 0.1 -0.7
v -0.2 0.2 -0.5
v -0.2 0.2 -0.6
v -0.2 0.2 -0.8
v -0.2 0.3 -0.4
v -0.2 0.3 -0.5
v -0.1 0.1 -0.3
v -0.1 0.1 -0.4
v -0.1 0.2 -0.3
v -0.1 0.2 -0.4
v -0.1 0 -0.4
v -0.1 0 -0.5
v -0.1 0 -0.7
v -0.1 0 -0.8
v -0.1 0.1 -0.4
v -0.1 0.1 -0.5
v -0.1 0.1 -0.6
v -0.1 0.1 -0.7
v -0.1 0.2 -0.4
v -0.1 0.2 -0.5
v -0.1 0.2 -0.6
v -0.1 0.2 -0.8
v -0.1 0.3 -0.4
v -0.1 0.3 -0.5
v 0 0.1 -0.3
v 0 0.1 -0.5
v 0 0.2 -0.3
v 0 0.2 -0.5
v -0.1 0.1 -0.3
v -0.1 0.2 -0.3
v 0 0.1 -0.3
v 0 0.2 -0.3
v -0.2 0 -0.4
v -0.2 0.3 -0.4
v -0.1 0 -0.4
v -0.1 0.1 -0.4
v -0.1 0.2 -0.4
v -0.1 0.3 -0.4
v -0.2 0 -0.7
v -0.2 0.1 -0.7
v -0.1 0 -0.7
v -0.1 0.1 -0.7
v -0.2 0 -0.5
v -0.2 0.1 -0.5
v -0.2 0.2 -0.5
v -0.2 0.3 -0.5
v -0.1 0 -0.5
v -0.1 0.1 -0.5
v -0.1 0.2 -0.5
v -0.1 0.3 -0.5
v 0 0.1 -0.5
v 0 0.2 -0.5
v -0.2 0 -0.8
v -0.2 0.2 -0.8
v -0.1 0 -0.8
v -0.1 0.2 -0.8
v -0.2 0 -0.4
v -0.1 0 -0.4
v -0.2 0 -0.5
v -0.1 0 -0.5
v -0.2 0 -0.7
v -0.1 0 -0.7
v -0.2 0 -0.8
v -0.1 0 -0.8
v -0.1 0.1 -0.3
v 0 0.1 -0.3
v -0.1 0.1 -0.4
v -0.2 0.1 -0.5
v -0.1 0.1 -0.5
v 0 0.1 -0.5
v -0.2 0.1 -0.6
v -0.1 0.1 -0.6
v -0.2 0.1 -0.7
v -0.1 0.1 -0.7
v -0.1 0.2 -0.3
v 0 0.2 -0.3
v -0.1 0.2 -0.4
v -0.2 0.2 -0.5
v -0.1 0.2 -0.5
v 0 0.2 -0.5
v -0.2 0.2 -0.6
v -0.1 0.2 -0.6
v -0.2 0.2 -0.8
v -0.1 0.2 -0.8
v -0.2 0.3 -0.4
v -0.1 0.3 -0.4
v -0.2 0.3 -0.5
v -0.1 0.3 -0.5

# faces
f 5/1/1 2/1/1 1/1/1
f 7/2/1 4/2/1 3/2/1
f 8/1/1 6/1/1 5/1/1
f 8/1/1 5/1/1 1/1/1
f 9/2/1 7/2/1 6/2/1
f 9/1/1 6/1/1 8/1/1
f 10/2/1 4/2/1 7/2/1
f 10/2/1 7/2/1 9/2/1
f 11/1/1 8/1/1 1/1/1
f 12/1/1 8/1/1 11/1/1
f 15/1/1 14/1/1 13/1/1
f 16/1/1 14/1/1 15/1/1
f 17/1/2 18/1/2 21/1/2
f 21/1/2 18/1/2 22/1/2
f 19/2/2 20/2/2 24/2/2
f 22/1/2 23/1/2 26/1/2
f 23/2/2 24/2/2 27/2/2
f 26/1/2 23/1/2 27/1/2
f 24/2/2 20/2/2 28/2/2
f 27/2/2 24/2/2 28/2/2
f 25/1/2 26/1/2 29/1/2
f 29/1/2 26/1/2 30/1/2
f 31/1/2 32/1/2 33/1/2
f 33/1/2 32/1/2 34/1/2
f 37/1/3 36/1/3 35/1/3
f 38/1/3 36/1/3 37/1/3
f 41/1/3 40/1/3 39/1/3
f 42/1/3 40/1/3 41/1/3
f 43/1/3 40/1/3 42/1/3
f 44/1/3 40/1/3 43/1/3
f 47/2/3 46/2/3 45/2/3
f 48/2/3 46/2/3 47/2/3
f 49/1/4 50/1/4 53/1/4
f 53/1/4 50/1/4 54/1/4
f 51/1/4 52/1/4 55/1/4
f 55/1/4 52/1/4 56/1/4
f 54/1/4 55/1/4 57/1/4
f 57/1/4 55/1/4 58/1/4
f 59/2/4 60/2/4 61/2/4
f 61/2/4 60/2/4 62/2/4
f 65/1/5 64/1/5 63/1/5
f 66/1/5 64/1/5 65/1/5
f 69/2/5 68/2/5 67/2/5
f 70/2/5 68/2/5 69/2/5
f 73/1/5 72/1/5 71/1/5
f 75/1/5 72/1/5 73/1/5
f 76/1/5 72/1/5 75/1/5
f 77/1/5 75/1/5 74/1/5
f 78/1/5 75/1/5 77/1/5
f 79/2/5 78/2/5 77/2/5
f 80/2/5 78/2/5 79/2/5
f 81/1/6 82/1/6 83/1/6
f 83/1/6 82/1/6 85/1/6
f 85/1/6 82/1/6 86/1/6
f 84/1/6 85/1/6 87/1/6
f 87/1/6 85/1/6 88/1/6
f 87/2/6 88/2/6 89/2/6
f 89/2/6 88/2/6 90/2/6
f 91/1/6 92/1/6 93/1/6
f 93/1/6 92/1/6 94/1/6
