# MagicaVoxel @ Ephtracy

# group
o 

# material
mtllib paneltasks.mtl
usemtl palette

# normals
vn -1 0 0
vn 1 0 0
vn 0 0 1
vn 0 0 -1
vn 0 -1 0
vn 0 1 0

# texcoords
vt 0.724609 0.5
vt 0.728516 0.5
vt 0.732422 0.5

# verts
v -0.1 0.2 1.6
v -0.1 0.2 1.5
v -0.1 0.2 1.4
v -0.1 0.2 1.1
v -0.1 0.2 0.7
v -0.1 0.2 0.2
v -0.1 0.2 -0.1
v -0.1 0.2 -0.2
v -0.1 0.3 1.6
v -0.1 0.3 1.5
v -0.1 0.3 1.4
v -0.1 0.3 1.1
v -0.1 0.3 0.7
v -0.1 0.3 0.2
v -0.1 0.3 -0.1
v -0.1 0.3 -0.2
v -0.1 0.3 -0.3
v -0.1 0.4 -0.2
v -0.1 0.4 -0.3
v -0.1 0.4 -0.4
v -0.1 0.5 -0.3
v -0.1 0.5 -0.4
v -0.1 0.5 -0.9
v -0.1 0.5 -1.1
v -0.1 0.5 -1.4
v -0.1 0.5 -1.5
v -0.1 0.5 -1.6
v -0.1 0.6 1.5
v -0.1 0.6 -0.4
v -0.1 0.6 -0.9
v -0.1 0.6 -1.1
v -0.1 0.6 -1.4
v -0.1 0.6 -1.5
v -0.1 0.9 -1.5
v -0.1 0.9 -1.6
v -0.1 1 1.6
v -0.1 1 1.5
v -0.1 1.4 1.6
v -0.1 1.4 1.5
v -0.1 1.5 -1.5
v -0.1 1.5 -1.6
v -0.1 1.8 1.6
v -0.1 1.8 1.5
v -0.1 1.9 -1.5
v -0.1 1.9 -1.6
v -0.1 2 1.6
v -0.1 2 1.5
v -0.1 2.2 1.5
v -0.1 2.2 1.2
v -0.1 2.2 0.9
v -0.1 2.2 0.6
v -0.1 2.2 0.4
v -0.1 2.2 -1.5
v -0.1 2.2 -1.6
v -0.1 2.3 1.6
v -0.1 2.3 1.2
v -0.1 2.3 0.9
v -0.1 2.3 0.6
v -0.1 2.3 0.4
v -0.1 2.3 0.3
v -0.1 2.4 0.4
v -0.1 2.4 0.3
v -0.1 2.4 0.2
v -0.1 2.5 0.3
v -0.1 2.5 0.2
v -0.1 2.5 -0.2
v -0.1 2.5 -0.7
v -0.1 2.5 -1.1
v -0.1 2.5 -1.5
v -0.1 2.6 0.2
v -0.1 2.6 -0.2
v -0.1 2.6 -0.7
v -0.1 2.6 -1.1
v -0.1 2.6 -1.6
v 0 0.2 1.6
v 0 0.2 1.5
v 0 0.2 1.4
v 0 0.2 1.1
v 0 0.2 0.7
v 0 0.2 0.2
v 0 0.2 -0.1
v 0 0.2 -0.2
v 0 0.3 1.6
v 0 0.3 1.5
v 0 0.3 1.4
v 0 0.3 1.1
v 0 0.3 0.7
v 0 0.3 0.2
v 0 0.3 -0.1
v 0 0.3 -0.2
v 0 0.3 -0.3
v 0 0.4 -0.2
v 0 0.4 -0.3
v 0 0.4 -0.4
v 0 0.5 -0.3
v 0 0.5 -0.4
v 0 0.5 -0.9
v 0 0.5 -1.1
v 0 0.5 -1.4
v 0 0.5 -1.5
v 0 0.5 -1.6
v 0 0.6 1.5
v 0 0.6 -0.4
v 0 0.6 -0.9
v 0 0.6 -1.1
v 0 0.6 -1.4
v 0 0.6 -1.5
v 0 0.9 -1.5
v 0 0.9 -1.6
v 0 1 1.6
v 0 1 1.5
v 0 1.4 1.6
v 0 1.4 1.5
v 0 1.5 -1.5
v 0 1.5 -1.6
v 0 1.8 1.6
v 0 1.8 1.5
v 0 1.9 -1.5
v 0 1.9 -1.6
v 0 2 1.6
v 0 2 1.5
v 0 2.2 1.5
v 0 2.2 1.2
v 0 2.2 0.9
v 0 2.2 0.6
v 0 2.2 0.4
v 0 2.2 -1.5
v 0 2.2 -1.6
v 0 2.3 1.6
v 0 2.3 1.2
v 0 2.3 0.9
v 0 2.3 0.6
v 0 2.3 0.4
v 0 2.3 0.3
v 0 2.4 0.4
v 0 2.4 0.3
v 0 2.4 0.2
v 0 2.5 0.3
v 0 2.5 0.2
v 0 2.5 -0.2
v 0 2.5 -0.7
v 0 2.5 -1.1
v 0 2.5 -1.5
v 0 2.6 0.2
v 0 2.6 -0.2
v 0 2.6 -0.7
v 0 2.6 -1.1
v 0 2.6 -1.6
v -0.1 0.2 1.6
v -0.1 0.3 1.6
v -0.1 1 1.6
v -0.1 1.4 1.6
v -0.1 1.8 1.6
v -0.1 2 1.6
v -0.1 2.3 1.6
v 0 0.2 1.6
v 0 0.3 1.6
v 0 1 1.6
v 0 1.4 1.6
v 0 1.8 1.6
v 0 2 1.6
v 0 2.3 1.6
v -0.1 2.3 0.4
v -0.1 2.4 0.4
v 0 2.3 0.4
v 0 2.4 0.4
v -0.1 2.4 0.3
v -0.1 2.5 0.3
v 0 2.4 0.3
v 0 2.5 0.3
v -0.1 2.5 0.2
v -0.1 2.6 0.2
v 0 2.5 0.2
v 0 2.6 0.2
v -0.1 0.6 -1.5
v -0.1 0.9 -1.5
v -0.1 1.5 -1.5
v -0.1 1.9 -1.5
v -0.1 2.2 -1.5
v 0 0.6 -1.5
v 0 0.9 -1.5
v 0 1.5 -1.5
v 0 1.9 -1.5
v 0 2.2 -1.5
v -0.1 0.6 1.5
v -0.1 1 1.5
v -0.1 1.4 1.5
v -0.1 1.8 1.5
v -0.1 2 1.5
v -0.1 2.2 1.5
v 0 0.6 1.5
v 0 1 1.5
v 0 1.4 1.5
v 0 1.8 1.5
v 0 2 1.5
v 0 2.2 1.5
v -0.1 0.2 -0.2
v -0.1 0.3 -0.2
v 0 0.2 -0.2
v 0 0.3 -0.2
v -0.1 0.3 -0.3
v -0.1 0.4 -0.3
v 0 0.3 -0.3
v 0 0.4 -0.3
v -0.1 0.4 -0.4
v -0.1 0.5 -0.4
v 0 0.4 -0.4
v 0 0.5 -0.4
v -0.1 0.5 -1.6
v -0.1 0.9 -1.6
v -0.1 1.5 -1.6
v -0.1 1.9 -1.6
v -0.1 2.2 -1.6
v -0.1 2.6 -1.6
v 0 0.5 -1.6
v 0 0.9 -1.6
v 0 1.5 -1.6
v 0 1.9 -1.6
v 0 2.2 -1.6
v 0 2.6 -1.6
v -0.1 0.2 1.6
v 0 0.2 1.6
v -0.1 0.2 1.5
v 0 0.2 1.5
v -0.1 0.2 1.4
v 0 0.2 1.4
v -0.1 0.2 1.1
v 0 0.2 1.1
v -0.1 0.2 0.7
v 0 0.2 0.7
v -0.1 0.2 0.2
v 0 0.2 0.2
v -0.1 0.2 -0.1
v 0 0.2 -0.1
v -0.1 0.2 -0.2
v 0 0.2 -0.2
v -0.1 0.3 -0.2
v 0 0.3 -0.2
v -0.1 0.3 -0.3
v 0 0.3 -0.3
v -0.1 0.4 -0.3
v 0 0.4 -0.3
v -0.1 0.4 -0.4
v 0 0.4 -0.4
v -0.1 0.5 -0.4
v 0 0.5 -0.4
v -0.1 0.5 -0.9
v 0 0.5 -0.9
v -0.1 0.5 -1.1
v 0 0.5 -1.1
v -0.1 0.5 -1.4
v 0 0.5 -1.4
v -0.1 0.5 -1.5
v 0 0.5 -1.5
v -0.1 0.5 -1.6
v 0 0.5 -1.6
v -0.1 2.2 1.5
v 0 2.2 1.5
v -0.1 2.2 1.2
v 0 2.2 1.2
v -0.1 2.2 0.9
v 0 2.2 0.9
v -0.1 2.2 0.6
v 0 2.2 0.6
v -0.1 2.2 0.4
v 0 2.2 0.4
v -0.1 2.2 -1.5
v 0 2.2 -1.5
v -0.1 0.6 1.5
v 0 0.6 1.5
v -0.1 0.6 -0.4
v 0 0.6 -0.4
v -0.1 0.6 -0.9
v 0 0.6 -0.9
v -0.1 0.6 -1.1
v 0 0.6 -1.1
v -0.1 0.6 -1.4
v 0 0.6 -1.4
v -0.1 0.6 -1.5
v 0 0.6 -1.5
v -0.1 2.3 1.6
v 0 2.3 1.6
v -0.1 2.3 1.2
v 0 2.3 1.2
v -0.1 2.3 0.9
v 0 2.3 0.9
v -0.1 2.3 0.6
v 0 2.3 0.6
v -0.1 2.3 0.4
v 0 2.3 0.4
v -0.1 2.4 0.4
v 0 2.4 0.4
v -0.1 2.4 0.3
v 0 2.4 0.3
v -0.1 2.5 0.3
v 0 2.5 0.3
v -0.1 2.5 0.2
v 0 2.5 0.2
v -0.1 2.6 0.2
v 0 2.6 0.2
v -0.1 2.6 -0.2
v 0 2.6 -0.2
v -0.1 2.6 -0.7
v 0 2.6 -0.7
v -0.1 2.6 -1.1
v 0 2.6 -1.1
v -0.1 2.6 -1.6
v 0 2.6 -1.6

# faces
f 9/3/1 2/3/1 1/3/1
f 10/1/1 3/1/1 2/1/1
f 10/3/1 2/3/1 9/3/1
f 11/3/1 4/3/1 3/3/1
f 11/1/1 3/1/1 10/1/1
f 12/1/1 5/1/1 4/1/1
f 12/3/1 4/3/1 11/3/1
f 13/3/1 6/3/1 5/3/1
f 13/1/1 5/1/1 12/1/1
f 14/1/1 7/1/1 6/1/1
f 14/3/1 6/3/1 13/3/1
f 15/3/1 8/3/1 7/3/1
f 15/1/1 7/1/1 14/1/1
f 16/3/1 8/3/1 15/3/1
f 18/2/1 14/2/1 13/2/1
f 18/3/1 17/3/1 16/3/1
f 18/2/1 16/2/1 15/2/1
f 18/2/1 15/2/1 14/2/1
f 18/2/1 13/2/1 12/2/1
f 18/2/1 12/2/1 11/2/1
f 18/2/1 11/2/1 10/2/1
f 19/3/1 17/3/1 18/3/1
f 21/2/1 19/2/1 18/2/1
f 21/3/1 20/3/1 19/3/1
f 22/3/1 20/3/1 21/3/1
f 28/1/1 10/1/1 9/1/1
f 28/2/1 18/2/1 10/2/1
f 28/2/1 21/2/1 18/2/1
f 28/2/1 22/2/1 21/2/1
f 29/1/1 23/1/1 22/1/1
f 29/2/1 22/2/1 28/2/1
f 30/3/1 24/3/1 23/3/1
f 30/1/1 23/1/1 29/1/1
f 31/1/1 25/1/1 24/1/1
f 31/3/1 24/3/1 30/3/1
f 32/3/1 26/3/1 25/3/1
f 32/1/1 25/1/1 31/1/1
f 33/1/1 27/1/1 26/1/1
f 33/3/1 26/3/1 32/3/1
f 34/1/1 27/1/1 33/1/1
f 35/1/1 27/1/1 34/1/1
f 36/1/1 28/1/1 9/1/1
f 37/1/1 28/1/1 36/1/1
f 38/3/1 37/3/1 36/3/1
f 39/3/1 37/3/1 38/3/1
f 40/3/1 35/3/1 34/3/1
f 41/3/1 35/3/1 40/3/1
f 42/1/1 39/1/1 38/1/1
f 43/1/1 39/1/1 42/1/1
f 44/1/1 41/1/1 40/1/1
f 45/1/1 41/1/1 44/1/1
f 46/3/1 43/3/1 42/3/1
f 47/3/1 43/3/1 46/3/1
f 48/1/1 47/1/1 46/1/1
f 53/3/1 45/3/1 44/3/1
f 54/3/1 45/3/1 53/3/1
f 55/1/1 48/1/1 46/1/1
f 55/1/1 49/1/1 48/1/1
f 56/3/1 50/3/1 49/3/1
f 56/1/1 49/1/1 55/1/1
f 57/1/1 51/1/1 50/1/1
f 57/3/1 50/3/1 56/3/1
f 58/3/1 52/3/1 51/3/1
f 58/1/1 51/1/1 57/1/1
f 59/2/1 53/2/1 52/2/1
f 59/3/1 52/3/1 58/3/1
f 60/2/1 53/2/1 59/2/1
f 61/1/1 60/1/1 59/1/1
f 62/2/1 53/2/1 60/2/1
f 62/1/1 60/1/1 61/1/1
f 63/2/1 53/2/1 62/2/1
f 64/1/1 63/1/1 62/1/1
f 65/2/1 53/2/1 63/2/1
f 65/1/1 63/1/1 64/1/1
f 66/2/1 53/2/1 65/2/1
f 67/2/1 53/2/1 66/2/1
f 68/2/1 53/2/1 67/2/1
f 69/1/1 54/1/1 53/1/1
f 69/2/1 53/2/1 68/2/1
f 70/3/1 66/3/1 65/3/1
f 71/1/1 67/1/1 66/1/1
f 71/3/1 66/3/1 70/3/1
f 72/3/1 68/3/1 67/3/1
f 72/1/1 67/1/1 71/1/1
f 73/1/1 69/1/1 68/1/1
f 73/3/1 68/3/1 72/3/1
f 74/1/1 54/1/1 69/1/1
f 74/1/1 69/1/1 73/1/1
f 75/3/2 76/3/2 83/3/2
f 76/1/2 77/1/2 84/1/2
f 83/3/2 76/3/2 84/3/2
f 77/3/2 78/3/2 85/3/2
f 84/1/2 77/1/2 85/1/2
f 78/1/2 79/1/2 86/1/2
f 85/3/2 78/3/2 86/3/2
f 79/3/2 80/3/2 87/3/2
f 86/1/2 79/1/2 87/1/2
f 80/1/2 81/1/2 88/1/2
f 87/3/2 80/3/2 88/3/2
f 81/3/2 82/3/2 89/3/2
f 88/1/2 81/1/2 89/1/2
f 89/3/2 82/3/2 90/3/2
f 87/2/2 88/2/2 92/2/2
f 90/3/2 91/3/2 92/3/2
f 89/2/2 90/2/2 92/2/2
f 88/2/2 89/2/2 92/2/2
f 86/2/2 87/2/2 92/2/2
f 85/2/2 86/2/2 92/2/2
f 84/2/2 85/2/2 92/2/2
f 92/3/2 91/3/2 93/3/2
f 92/2/2 93/2/2 95/2/2
f 93/3/2 94/3/2 95/3/2
f 95/3/2 94/3/2 96/3/2
f 83/1/2 84/1/2 102/1/2
f 84/2/2 92/2/2 102/2/2
f 92/2/2 95/2/2 102/2/2
f 95/2/2 96/2/2 102/2/2
f 96/1/2 97/1/2 103/1/2
f 102/2/2 96/2/2 103/2/2
f 97/3/2 98/3/2 104/3/2
f 103/1/2 97/1/2 104/1/2
f 98/1/2 99/1/2 105/1/2
f 104/3/2 98/3/2 105/3/2
f 99/3/2 100/3/2 106/3/2
f 105/1/2 99/1/2 106/1/2
f 100/1/2 101/1/2 107/1/2
f 106/3/2 100/3/2 107/3/2
f 107/1/2 101/1/2 108/1/2
f 108/1/2 101/1/2 109/1/2
f 83/1/2 102/1/2 110/1/2
f 110/1/2 102/1/2 111/1/2
f 110/3/2 111/3/2 112/3/2
f 112/3/2 111/3/2 113/3/2
f 108/3/2 109/3/2 114/3/2
f 114/3/2 109/3/2 115/3/2
f 112/1/2 113/1/2 116/1/2
f 116/1/2 113/1/2 117/1/2
f 114/1/2 115/1/2 118/1/2
f 118/1/2 115/1/2 119/1/2
f 116/3/2 117/3/2 120/3/2
f 120/3/2 117/3/2 121/3/2
f 120/1/2 121/1/2 122/1/2
f 118/3/2 119/3/2 127/3/2
f 127/3/2 119/3/2 128/3/2
f 120/1/2 122/1/2 129/1/2
f 122/1/2 123/1/2 129/1/2
f 123/3/2 124/3/2 130/3/2
f 129/1/2 123/1/2 130/1/2
f 124/1/2 125/1/2 131/1/2
f 130/3/2 124/3/2 131/3/2
f 125/3/2 126/3/2 132/3/2
f 131/1/2 125/1/2 132/1/2
f 126/2/2 127/2/2 133/2/2
f 132/3/2 126/3/2 133/3/2
f 133/2/2 127/2/2 134/2/2
f 133/1/2 134/1/2 135/1/2
f 134/2/2 127/2/2 136/2/2
f 135/1/2 134/1/2 136/1/2
f 136/2/2 127/2/2 137/2/2
f 136/1/2 137/1/2 138/1/2
f 137/2/2 127/2/2 139/2/2
f 138/1/2 137/1/2 139/1/2
f 139/2/2 127/2/2 140/2/2
f 140/2/2 127/2/2 141/2/2
f 141/2/2 127/2/2 142/2/2
f 127/1/2 128/1/2 143/1/2
f 142/2/2 127/2/2 143/2/2
f 139/3/2 140/3/2 144/3/2
f 140/1/2 141/1/2 145/1/2
f 144/3/2 140/3/2 145/3/2
f 141/3/2 142/3/2 146/3/2
f 145/1/2 141/1/2 146/1/2
f 142/1/2 143/1/2 147/1/2
f 146/3/2 142/3/2 147/3/2
f 143/1/2 128/1/2 148/1/2
f 147/1/2 143/1/2 148/1/2
f 156/3/3 150/3/3 149/3/3
f 157/1/3 151/1/3 150/1/3
f 157/3/3 150/3/3 156/3/3
f 158/3/3 152/3/3 151/3/3
f 158/1/3 151/1/3 157/1/3
f 159/1/3 153/1/3 152/1/3
f 159/3/3 152/3/3 158/3/3
f 160/3/3 154/3/3 153/3/3
f 160/1/3 153/1/3 159/1/3
f 161/1/3 155/1/3 154/1/3
f 161/3/3 154/3/3 160/3/3
f 162/1/3 155/1/3 161/1/3
f 165/1/3 164/1/3 163/1/3
f 166/1/3 164/1/3 165/1/3
f 169/1/3 168/1/3 167/1/3
f 170/1/3 168/1/3 169/1/3
f 173/3/3 172/3/3 171/3/3
f 174/3/3 172/3/3 173/3/3
f 180/1/3 176/1/3 175/1/3
f 181/3/3 177/3/3 176/3/3
f 181/1/3 176/1/3 180/1/3
f 182/1/3 178/1/3 177/1/3
f 182/3/3 177/3/3 181/3/3
f 183/3/3 179/3/3 178/3/3
f 183/1/3 178/1/3 182/1/3
f 184/3/3 179/3/3 183/3/3
f 185/1/4 186/1/4 191/1/4
f 186/3/4 187/3/4 192/3/4
f 191/1/4 186/1/4 192/1/4
f 187/1/4 188/1/4 193/1/4
f 192/3/4 187/3/4 193/3/4
f 188/3/4 189/3/4 194/3/4
f 193/1/4 188/1/4 194/1/4
f 189/1/4 190/1/4 195/1/4
f 194/3/4 189/3/4 195/3/4
f 195/1/4 190/1/4 196/1/4
f 197/3/4 198/3/4 199/3/4
f 199/3/4 198/3/4 200/3/4
f 201/3/4 202/3/4 203/3/4
f 203/3/4 202/3/4 204/3/4
f 205/3/4 206/3/4 207/3/4
f 207/3/4 206/3/4 208/3/4
f 209/1/4 210/1/4 215/1/4
f 210/3/4 211/3/4 216/3/4
f 215/1/4 210/1/4 216/1/4
f 211/1/4 212/1/4 217/1/4
f 216/3/4 211/3/4 217/3/4
f 212/3/4 213/3/4 218/3/4
f 217/1/4 212/1/4 218/1/4
f 213/1/4 214/1/4 219/1/4
f 218/3/4 213/3/4 219/3/4
f 219/1/4 214/1/4 220/1/4
f 223/3/5 222/3/5 221/3/5
f 224/3/5 222/3/5 223/3/5
f 225/1/5 224/1/5 223/1/5
f 226/1/5 224/1/5 225/1/5
f 227/3/5 226/3/5 225/3/5
f 228/3/5 226/3/5 227/3/5
f 229/1/5 228/1/5 227/1/5
f 230/1/5 228/1/5 229/1/5
f 231/3/5 230/3/5 229/3/5
f 232/3/5 230/3/5 231/3/5
f 233/1/5 232/1/5 231/1/5
f 234/1/5 232/1/5 233/1/5
f 235/3/5 234/3/5 233/3/5
f 236/3/5 234/3/5 235/3/5
f 239/3/5 238/3/5 237/3/5
f 240/3/5 238/3/5 239/3/5
f 243/3/5 242/3/5 241/3/5
f 244/3/5 242/3/5 243/3/5
f 247/1/5 246/1/5 245/1/5
f 248/1/5 246/1/5 247/1/5
f 249/3/5 248/3/5 247/3/5
f 250/3/5 248/3/5 249/3/5
f 251/1/5 250/1/5 249/1/5
f 252/1/5 250/1/5 251/1/5
f 253/3/5 252/3/5 251/3/5
f 254/3/5 252/3/5 253/3/5
f 255/1/5 254/1/5 253/1/5
f 256/1/5 254/1/5 255/1/5
f 259/1/5 258/1/5 257/1/5
f 260/1/5 258/1/5 259/1/5
f 261/3/5 260/3/5 259/3/5
f 262/3/5 260/3/5 261/3/5
f 263/1/5 262/1/5 261/1/5
f 264/1/5 262/1/5 263/1/5
f 265/3/5 264/3/5 263/3/5
f 266/3/5 264/3/5 265/3/5
f 267/2/5 266/2/5 265/2/5
f 268/2/5 266/2/5 267/2/5
f 269/2/6 270/2/6 271/2/6
f 271/2/6 270/2/6 272/2/6
f 271/1/6 272/1/6 273/1/6
f 273/1/6 272/1/6 274/1/6
f 273/3/6 274/3/6 275/3/6
f 275/3/6 274/3/6 276/3/6
f 275/1/6 276/1/6 277/1/6
f 277/1/6 276/1/6 278/1/6
f 277/3/6 278/3/6 279/3/6
f 279/3/6 278/3/6 280/3/6
f 281/1/6 282/1/6 283/1/6
f 283/1/6 282/1/6 284/1/6
f 283/3/6 284/3/6 285/3/6
f 285/3/6 284/3/6 286/3/6
f 285/1/6 286/1/6 287/1/6
f 287/1/6 286/1/6 288/1/6
f 287/3/6 288/3/6 289/3/6
f 289/3/6 288/3/6 290/3/6
f 291/1/6 292/1/6 293/1/6
f 293/1/6 292/1/6 294/1/6
f 295/1/6 296/1/6 297/1/6
f 297/1/6 296/1/6 298/1/6
f 299/3/6 300/3/6 301/3/6
f 301/3/6 300/3/6 302/3/6
f 301/1/6 302/1/6 303/1/6
f 303/1/6 302/1/6 304/1/6
f 303/3/6 304/3/6 305/3/6
f 305/3/6 304/3/6 306/3/6
f 305/1/6 306/1/6 307/1/6
f 307/1/6 306/1/6 308/1/6
