# MagicaVoxel @ Ephtracy

# group
o 

# material
mtllib lamp.mtl
usemtl palette

# normals
vn -1 0 0
vn 1 0 0
vn 0 0 1
vn 0 0 -1
vn 0 -1 0
vn 0 1 0

# texcoords
vt 0.919922 0.5
vt 0.962891 0.5
vt 0.994141 0.5

# verts
v -0.6 0.1 0.3
v -0.6 0.1 0.2
v -0.6 0.1 0.1
v -0.6 0.1 0
v -0.6 0.1 -0.1
v -0.6 0.1 -0.2
v -0.6 0.1 -0.3
v -0.6 0.1 -0.4
v -0.6 0.3 0.3
v -0.6 0.3 0.2
v -0.6 0.3 0.1
v -0.6 0.3 0
v -0.6 0.3 -0.1
v -0.6 0.3 -0.2
v -0.6 0.3 -0.3
v -0.6 0.3 -0.4
v -0.5 0 0.4
v -0.5 0 -0.5
v -0.5 0.1 0.4
v -0.5 0.1 0.3
v -0.5 0.1 0.2
v -0.5 0.1 0.1
v -0.5 0.1 0
v -0.5 0.1 -0.1
v -0.5 0.1 -0.2
v -0.5 0.1 -0.3
v -0.5 0.1 -0.4
v -0.5 0.1 -0.5
v -0.5 0.2 -0.4
v -0.5 0.2 -0.5
v -0.5 0.3 0.4
v -0.5 0.3 0.3
v -0.5 0.3 0.2
v -0.5 0.3 0.1
v -0.5 0.3 0
v -0.5 0.3 -0.1
v -0.5 0.3 -0.2
v -0.5 0.3 -0.3
v -0.5 0.3 -0.4
v -0.5 0.5 0.3
v -0.5 0.5 0.2
v -0.5 0.5 0.1
v -0.5 0.5 0
v -0.5 0.5 -0.1
v -0.5 0.5 -0.2
v -0.5 0.5 -0.3
v -0.5 0.5 -0.4
v -0.4 0.1 0.5
v -0.4 0.1 0.4
v -0.4 0.1 -0.5
v -0.4 0.1 -0.6
v -0.4 0.2 -0.4
v -0.4 0.2 -0.5
v -0.4 0.3 0.5
v -0.4 0.3 0.4
v -0.4 0.3 0.3
v -0.4 0.3 0.2
v -0.4 0.3 0.1
v -0.4 0.3 0
v -0.4 0.3 -0.1
v -0.4 0.3 -0.2
v -0.4 0.3 -0.3
v -0.4 0.3 -0.4
v -0.4 0.3 -0.5
v -0.4 0.3 -0.6
v -0.4 0.4 0.2
v -0.4 0.4 0.1
v -0.4 0.4 0
v -0.4 0.4 -0.1
v -0.4 0.4 -0.2
v -0.4 0.4 -0.3
v -0.4 0.5 0.4
v -0.4 0.5 0.3
v -0.4 0.5 -0.4
v -0.4 0.5 -0.5
v -0.2 0.1 0.5
v -0.2 0.1 0.4
v -0.2 0.1 -0.5
v -0.2 0.1 -0.6
v -0.2 0.3 0.5
v -0.2 0.3 0.4
v -0.2 0.3 0.3
v -0.2 0.3 -0.4
v -0.2 0.3 -0.5
v -0.2 0.3 -0.6
v -0.2 0.4 0.3
v -0.2 0.4 -0.4
v -0.2 0.5 0.4
v -0.2 0.5 0.3
v -0.2 0.5 -0.4
v -0.2 0.5 -0.5
v -5.96046e-08 0.1 0.5
v -5.96046e-08 0.1 0.4
v -5.96046e-08 0.1 -0.5
v -5.96046e-08 0.1 -0.6
v -5.96046e-08 0.3 0.5
v -5.96046e-08 0.3 0.4
v -5.96046e-08 0.3 0.3
v -5.96046e-08 0.3 -0.4
v -5.96046e-08 0.3 -0.5
v -5.96046e-08 0.3 -0.6
v -5.96046e-08 0.4 0.3
v -5.96046e-08 0.4 -0.4
v -5.96046e-08 0.5 0.4
v -5.96046e-08 0.5 0.3
v -5.96046e-08 0.5 -0.4
v -5.96046e-08 0.5 -0.5
v 0.2 0.1 0.5
v 0.2 0.1 0.4
v 0.2 0.1 -0.5
v 0.2 0.1 -0.6
v 0.2 0.3 0.5
v 0.2 0.3 0.4
v 0.2 0.3 0.3
v 0.2 0.3 -0.4
v 0.2 0.3 -0.5
v 0.2 0.3 -0.6
v 0.2 0.4 0.3
v 0.2 0.4 -0.4
v 0.2 0.5 0.4
v 0.2 0.5 0.3
v 0.2 0.5 -0.4
v 0.2 0.5 -0.5
v 0.3 0.3 0.3
v 0.3 0.3 0.2
v 0.3 0.3 0.1
v 0.3 0.3 0
v 0.3 0.3 -0.1
v 0.3 0.3 -0.2
v 0.3 0.3 -0.3
v 0.3 0.3 -0.4
v 0.3 0.4 0.3
v 0.3 0.4 0.2
v 0.3 0.4 0.1
v 0.3 0.4 0
v 0.3 0.4 -0.1
v 0.3 0.4 -0.2
v 0.3 0.4 -0.3
v 0.3 0.4 -0.4
v -0.4 0.3 0.3
v -0.4 0.3 0.2
v -0.4 0.3 -0.3
v -0.4 0.3 -0.4
v -0.4 0.4 0.3
v -0.4 0.4 0.2
v -0.4 0.4 -0.3
v -0.4 0.4 -0.4
v -0.3 0.1 0.5
v -0.3 0.1 0.4
v -0.3 0.1 -0.5
v -0.3 0.1 -0.6
v -0.3 0.3 0.5
v -0.3 0.3 0.4
v -0.3 0.3 0.3
v -0.3 0.3 -0.4
v -0.3 0.3 -0.5
v -0.3 0.3 -0.6
v -0.3 0.4 0.3
v -0.3 0.4 -0.4
v -0.3 0.5 0.4
v -0.3 0.5 0.3
v -0.3 0.5 -0.4
v -0.3 0.5 -0.5
v -0.1 0.1 0.5
v -0.1 0.1 0.4
v -0.1 0.1 -0.5
v -0.1 0.1 -0.6
v -0.1 0.3 0.5
v -0.1 0.3 0.4
v -0.1 0.3 0.3
v -0.1 0.3 -0.4
v -0.1 0.3 -0.5
v -0.1 0.3 -0.6
v -0.1 0.4 0.3
v -0.1 0.4 -0.4
v -0.1 0.5 0.4
v -0.1 0.5 0.3
v -0.1 0.5 -0.4
v -0.1 0.5 -0.5
v 0.1 0.1 0.5
v 0.1 0.1 0.4
v 0.1 0.1 -0.5
v 0.1 0.1 -0.6
v 0.1 0.3 0.5
v 0.1 0.3 0.4
v 0.1 0.3 0.3
v 0.1 0.3 -0.4
v 0.1 0.3 -0.5
v 0.1 0.3 -0.6
v 0.1 0.4 0.3
v 0.1 0.4 -0.4
v 0.1 0.5 0.4
v 0.1 0.5 0.3
v 0.1 0.5 -0.4
v 0.1 0.5 -0.5
v 0.2 0.3 0.2
v 0.2 0.3 -0.3
v 0.2 0.4 0.2
v 0.2 0.4 0.1
v 0.2 0.4 0
v 0.2 0.4 -0.1
v 0.2 0.4 -0.2
v 0.2 0.4 -0.3
v 0.3 0.1 0.5
v 0.3 0.1 0.4
v 0.3 0.1 -0.5
v 0.3 0.1 -0.6
v 0.3 0.2 0.4
v 0.3 0.2 0.3
v 0.3 0.2 -0.4
v 0.3 0.2 -0.5
v 0.3 0.3 0.5
v 0.3 0.3 0.4
v 0.3 0.3 0.3
v 0.3 0.3 -0.4
v 0.3 0.3 -0.5
v 0.3 0.3 -0.6
v 0.3 0.5 0.4
v 0.3 0.5 0.3
v 0.3 0.5 -0.4
v 0.3 0.5 -0.5
v 0.4 0 0.4
v 0.4 0 -0.5
v 0.4 0.1 0.4
v 0.4 0.1 0.3
v 0.4 0.1 0.2
v 0.4 0.1 0.1
v 0.4 0.1 0
v 0.4 0.1 -0.1
v 0.4 0.1 -0.2
v 0.4 0.1 -0.3
v 0.4 0.1 -0.4
v 0.4 0.1 -0.5
v 0.4 0.2 0.4
v 0.4 0.2 0.3
v 0.4 0.2 -0.1
v 0.4 0.2 -0.2
v 0.4 0.2 -0.4
v 0.4 0.2 -0.5
v 0.4 0.3 0.3
v 0.4 0.3 0.2
v 0.4 0.3 0.1
v 0.4 0.3 0
v 0.4 0.3 -0.1
v 0.4 0.3 -0.2
v 0.4 0.3 -0.3
v 0.4 0.3 -0.4
v 0.4 0.5 0.3
v 0.4 0.5 0.2
v 0.4 0.5 0.1
v 0.4 0.5 0
v 0.4 0.5 -0.1
v 0.4 0.5 -0.2
v 0.4 0.5 -0.3
v 0.4 0.5 -0.4
v 0.5 0.1 0.3
v 0.5 0.1 0.2
v 0.5 0.1 0.1
v 0.5 0.1 0
v 0.5 0.1 -0.1
v 0.5 0.1 -0.2
v 0.5 0.1 -0.3
v 0.5 0.1 -0.4
v 0.5 0.2 -0.1
v 0.5 0.2 -0.2
v 0.5 0.3 0.3
v 0.5 0.3 0.2
v 0.5 0.3 0.1
v 0.5 0.3 0
v 0.5 0.3 -0.1
v 0.5 0.3 -0.2
v 0.5 0.3 -0.3
v 0.5 0.3 -0.4
v -0.4 0.1 0.5
v -0.4 0.3 0.5
v -0.3 0.1 0.5
v -0.3 0.3 0.5
v -0.2 0.1 0.5
v -0.2 0.3 0.5
v -0.1 0.1 0.5
v -0.1 0.3 0.5
v -5.96046e-08 0.1 0.5
v -5.96046e-08 0.3 0.5
v 0.1 0.1 0.5
v 0.1 0.3 0.5
v 0.2 0.1 0.5
v 0.2 0.3 0.5
v 0.3 0.1 0.5
v 0.3 0.3 0.5
v -0.5 0 0.4
v -0.5 0.1 0.4
v -0.5 0.3 0.4
v -0.4 0 0.4
v -0.4 0.1 0.4
v -0.4 0.3 0.4
v -0.4 0.5 0.4
v -0.3 0 0.4
v -0.3 0.1 0.4
v -0.3 0.3 0.4
v -0.3 0.5 0.4
v -0.2 0 0.4
v -0.2 0.1 0.4
v -0.2 0.3 0.4
v -0.2 0.5 0.4
v -0.1 0 0.4
v -0.1 0.1 0.4
v -0.1 0.3 0.4
v -0.1 0.5 0.4
v -5.96046e-08 0 0.4
v -5.96046e-08 0.1 0.4
v -5.96046e-08 0.3 0.4
v -5.96046e-08 0.5 0.4
v 0.1 0 0.4
v 0.1 0.1 0.4
v 0.1 0.3 0.4
v 0.1 0.5 0.4
v 0.2 0 0.4
v 0.2 0.1 0.4
v 0.2 0.3 0.4
v 0.2 0.5 0.4
v 0.3 0 0.4
v 0.3 0.1 0.4
v 0.3 0.2 0.4
v 0.3 0.3 0.4
v 0.3 0.5 0.4
v 0.4 0 0.4
v 0.4 0.1 0.4
v 0.4 0.2 0.4
v -0.6 0.1 0.3
v -0.6 0.3 0.3
v -0.5 0.1 0.3
v -0.5 0.3 0.3
v -0.5 0.5 0.3
v -0.4 0.3 0.3
v -0.4 0.5 0.3
v -0.3 0.4 0.3
v -0.3 0.5 0.3
v -0.2 0.4 0.3
v -0.2 0.5 0.3
v -0.1 0.4 0.3
v -0.1 0.5 0.3
v -5.96046e-08 0.4 0.3
v -5.96046e-08 0.5 0.3
v 0.1 0.4 0.3
v 0.1 0.5 0.3
v 0.2 0.4 0.3
v 0.2 0.5 0.3
v 0.3 0.2 0.3
v 0.3 0.3 0.3
v 0.3 0.5 0.3
v 0.4 0.1 0.3
v 0.4 0.2 0.3
v 0.4 0.3 0.3
v 0.4 0.5 0.3
v 0.5 0.1 0.3
v 0.5 0.3 0.3
v -0.4 0.3 0.2
v -0.4 0.4 0.2
v 0.2 0.3 0.2
v 0.2 0.4 0.2
v -0.6 0.1 0.1
v -0.6 0.3 0.1
v -0.5 0.1 0.1
v -0.5 0.3 0.1
v -0.5 0.5 0.1
v -0.4 0.3 0.1
v -0.4 0.4 0.1
v 0.2 0.4 0.1
v 0.3 0.3 0.1
v 0.3 0.4 0.1
v 0.4 0.1 0.1
v 0.4 0.3 0.1
v 0.4 0.5 0.1
v 0.5 0.1 0.1
v 0.5 0.3 0.1
v -0.6 0.1 -0.1
v -0.6 0.3 -0.1
v -0.5 0.1 -0.1
v -0.5 0.3 -0.1
v -0.5 0.5 -0.1
v -0.4 0.3 -0.1
v -0.4 0.4 -0.1
v 0.2 0.4 -0.1
v 0.3 0.3 -0.1
v 0.3 0.4 -0.1
v 0.4 0.1 -0.1
v 0.4 0.2 -0.1
v 0.4 0.3 -0.1
v 0.4 0.5 -0.1
v 0.5 0.1 -0.1
v 0.5 0.2 -0.1
v 0.5 0.3 -0.1
v -0.6 0.1 -0.3
v -0.6 0.3 -0.3
v -0.5 0.1 -0.3
v -0.5 0.3 -0.3
v -0.5 0.5 -0.3
v -0.4 0.3 -0.3
v -0.4 0.4 -0.3
v 0.2 0.4 -0.3
v 0.3 0.3 -0.3
v 0.3 0.4 -0.3
v 0.4 0.1 -0.3
v 0.4 0.3 -0.3
v 0.4 0.5 -0.3
v 0.5 0.1 -0.3
v 0.5 0.3 -0.3
v -0.4 0.3 -0.4
v -0.4 0.4 -0.4
v -0.3 0.3 -0.4
v -0.3 0.4 -0.4
v -0.2 0.3 -0.4
v -0.2 0.4 -0.4
v -0.1 0.3 -0.4
v -0.1 0.4 -0.4
v -5.96046e-08 0.3 -0.4
v -5.96046e-08 0.4 -0.4
v 0.1 0.3 -0.4
v 0.1 0.4 -0.4
v 0.2 0.3 -0.4
v 0.2 0.4 -0.4
v 0.3 0.3 -0.4
v 0.3 0.4 -0.4
v -0.4 0.3 0.3
v -0.4 0.4 0.3
v -0.3 0.3 0.3
v -0.3 0.4 0.3
v -0.2 0.3 0.3
v -0.2 0.4 0.3
v -0.1 0.3 0.3
v -0.1 0.4 0.3
v -5.96046e-08 0.3 0.3
v -5.96046e-08 0.4 0.3
v 0.1 0.3 0.3
v 0.1 0.4 0.3
v 0.2 0.3 0.3
v 0.2 0.4 0.3
v 0.3 0.3 0.3
v 0.3 0.4 0.3
v -0.6 0.1 0.2
v -0.6 0.3 0.2
v -0.5 0.1 0.2
v -0.5 0.3 0.2
v -0.5 0.5 0.2
v -0.4 0.3 0.2
v -0.4 0.4 0.2
v 0.2 0.4 0.2
v 0.3 0.3 0.2
v 0.3 0.4 0.2
v 0.4 0.1 0.2
v 0.4 0.3 0.2
v 0.4 0.5 0.2
v 0.5 0.1 0.2
v 0.5 0.3 0.2
v -0.6 0.1 0
v -0.6 0.3 0
v -0.5 0.1 0
v -0.5 0.3 0
v -0.5 0.5 0
v -0.4 0.3 0
v -0.4 0.4 0
v 0.2 0.4 0
v 0.3 0.3 0
v 0.3 0.4 0
v 0.4 0.1 0
v 0.4 0.3 0
v 0.4 0.5 0
v 0.5 0.1 0
v 0.5 0.3 0
v -0.6 0.1 -0.2
v -0.6 0.3 -0.2
v -0.5 0.1 -0.2
v -0.5 0.3 -0.2
v -0.5 0.5 -0.2
v -0.4 0.3 -0.2
v -0.4 0.4 -0.2
v 0.2 0.4 -0.2
v 0.3 0.3 -0.2
v 0.3 0.4 -0.2
v 0.4 0.1 -0.2
v 0.4 0.2 -0.2
v 0.4 0.3 -0.2
v 0.4 0.5 -0.2
v 0.5 0.1 -0.2
v 0.5 0.2 -0.2
v 0.5 0.3 -0.2
v -0.4 0.3 -0.3
v -0.4 0.4 -0.3
v 0.2 0.3 -0.3
v 0.2 0.4 -0.3
v -0.6 0.1 -0.4
v -0.6 0.3 -0.4
v -0.5 0.1 -0.4
v -0.5 0.2 -0.4
v -0.5 0.3 -0.4
v -0.5 0.5 -0.4
v -0.4 0.2 -0.4
v -0.4 0.3 -0.4
v -0.4 0.5 -0.4
v -0.3 0.4 -0.4
v -0.3 0.5 -0.4
v -0.2 0.4 -0.4
v -0.2 0.5 -0.4
v -0.1 0.4 -0.4
v -0.1 0.5 -0.4
v -5.96046e-08 0.4 -0.4
v -5.96046e-08 0.5 -0.4
v 0.1 0.4 -0.4
v 0.1 0.5 -0.4
v 0.2 0.4 -0.4
v 0.2 0.5 -0.4
v 0.3 0.2 -0.4
v 0.3 0.3 -0.4
v 0.3 0.5 -0.4
v 0.4 0.1 -0.4
v 0.4 0.2 -0.4
v 0.4 0.3 -0.4
v 0.4 0.5 -0.4
v 0.5 0.1 -0.4
v 0.5 0.3 -0.4
v -0.5 0 -0.5
v -0.5 0.1 -0.5
v -0.5 0.2 -0.5
v -0.4 0.1 -0.5
v -0.4 0.2 -0.5
v -0.4 0.3 -0.5
v -0.4 0.5 -0.5
v -0.3 0.1 -0.5
v -0.3 0.3 -0.5
v -0.3 0.5 -0.5
v -0.2 0.1 -0.5
v -0.2 0.3 -0.5
v -0.2 0.5 -0.5
v -0.1 0.1 -0.5
v -0.1 0.3 -0.5
v -0.1 0.5 -0.5
v -5.96046e-08 0.1 -0.5
v -5.96046e-08 0.3 -0.5
v -5.96046e-08 0.5 -0.5
v 0.1 0.1 -0.5
v 0.1 0.3 -0.5
v 0.1 0.5 -0.5
v 0.2 0.1 -0.5
v 0.2 0.3 -0.5
v 0.2 0.5 -0.5
v 0.3 0.1 -0.5
v 0.3 0.2 -0.5
v 0.3 0.3 -0.5
v 0.3 0.5 -0.5
v 0.4 0 -0.5
v 0.4 0.1 -0.5
v 0.4 0.2 -0.5
v -0.4 0.1 -0.6
v -0.4 0.3 -0.6
v -0.3 0.1 -0.6
v -0.3 0.3 -0.6
v -0.2 0.1 -0.6
v -0.2 0.3 -0.6
v -0.1 0.1 -0.6
v -0.1 0.3 -0.6
v -5.96046e-08 0.1 -0.6
v -5.96046e-08 0.3 -0.6
v 0.1 0.1 -0.6
v 0.1 0.3 -0.6
v 0.2 0.1 -0.6
v 0.2 0.3 -0.6
v 0.3 0.1 -0.6
v 0.3 0.3 -0.6
v -0.5 0 0.4
v -0.4 0 0.4
v -0.3 0 0.4
v -0.2 0 0.4
v -0.1 0 0.4
v -5.96046e-08 0 0.4
v 0.1 0 0.4
v 0.2 0 0.4
v 0.3 0 0.4
v 0.4 0 0.4
v -0.4 0 0.3
v -0.3 0 0.3
v -0.2 0 0.3
v -0.1 0 0.3
v -5.96046e-08 0 0.3
v 0.1 0 0.3
v 0.2 0 0.3
v 0.3 0 0.3
v -0.5 0 -0.5
v 0.4 0 -0.5
v -0.4 0.1 0.5
v -0.3 0.1 0.5
v -0.2 0.1 0.5
v -0.1 0.1 0.5
v -5.96046e-08 0.1 0.5
v 0.1 0.1 0.5
v 0.2 0.1 0.5
v 0.3 0.1 0.5
v -0.4 0.1 0.4
v -0.3 0.1 0.4
v -0.2 0.1 0.4
v -0.1 0.1 0.4
v -5.96046e-08 0.1 0.4
v 0.1 0.1 0.4
v 0.2 0.1 0.4
v 0.3 0.1 0.4
v -0.6 0.1 0.3
v -0.5 0.1 0.3
v 0.4 0.1 0.3
v 0.5 0.1 0.3
v -0.6 0.1 0.2
v -0.5 0.1 0.2
v 0.4 0.1 0.2
v 0.5 0.1 0.2
v -0.6 0.1 0.1
v -0.5 0.1 0.1
v 0.4 0.1 0.1
v 0.5 0.1 0.1
v -0.6 0.1 0
v -0.5 0.1 0
v 0.4 0.1 0
v 0.5 0.1 0
v -0.6 0.1 -0.1
v -0.5 0.1 -0.1
v 0.4 0.1 -0.1
v 0.5 0.1 -0.1
v -0.6 0.1 -0.2
v -0.5 0.1 -0.2
v 0.4 0.1 -0.2
v 0.5 0.1 -0.2
v -0.6 0.1 -0.3
v -0.5 0.1 -0.3
v 0.4 0.1 -0.3
v 0.5 0.1 -0.3
v -0.6 0.1 -0.4
v -0.5 0.1 -0.4
v 0.4 0.1 -0.4
v 0.5 0.1 -0.4
v -0.4 0.1 -0.5
v -0.3 0.1 -0.5
v -0.2 0.1 -0.5
v -0.1 0.1 -0.5
v -5.96046e-08 0.1 -0.5
v 0.1 0.1 -0.5
v 0.2 0.1 -0.5
v 0.3 0.1 -0.5
v -0.4 0.1 -0.6
v -0.3 0.1 -0.6
v -0.2 0.1 -0.6
v -0.1 0.1 -0.6
v -5.96046e-08 0.1 -0.6
v 0.1 0.1 -0.6
v 0.2 0.1 -0.6
v 0.3 0.1 -0.6
v -0.4 0.4 0.3
v -0.3 0.4 0.3
v -0.2 0.4 0.3
v -0.1 0.4 0.3
v -5.96046e-08 0.4 0.3
v 0.1 0.4 0.3
v 0.2 0.4 0.3
v 0.3 0.4 0.3
v -0.4 0.4 0.2
v 0.2 0.4 0.2
v 0.3 0.4 0.2
v 0.2 0.4 0.1
v 0.3 0.4 0.1
v 0.2 0.4 0
v 0.3 0.4 0
v 0.2 0.4 -0.1
v 0.3 0.4 -0.1
v 0.2 0.4 -0.2
v 0.3 0.4 -0.2
v -0.4 0.4 -0.3
v 0.2 0.4 -0.3
v 0.3 0.4 -0.3
v -0.4 0.4 -0.4
v -0.3 0.4 -0.4
v -0.2 0.4 -0.4
v -0.1 0.4 -0.4
v -5.96046e-08 0.4 -0.4
v 0.1 0.4 -0.4
v 0.2 0.4 -0.4
v 0.3 0.4 -0.4
v 0.3 0.2 0.4
v 0.4 0.2 0.4
v 0.3 0.2 0.3
v 0.4 0.2 0.3
v -0.5 0.2 -0.4
v -0.4 0.2 -0.4
v 0.3 0.2 -0.4
v 0.4 0.2 -0.4
v -0.5 0.2 -0.5
v -0.4 0.2 -0.5
v 0.3 0.2 -0.5
v 0.4 0.2 -0.5
v -0.4 0.3 0.5
v -0.3 0.3 0.5
v -0.2 0.3 0.5
v -0.1 0.3 0.5
v -5.96046e-08 0.3 0.5
v 0.1 0.3 0.5
v 0.2 0.3 0.5
v 0.3 0.3 0.5
v -0.5 0.3 0.4
v -0.4 0.3 0.4
v -0.3 0.3 0.4
v -0.2 0.3 0.4
v -0.1 0.3 0.4
v -5.96046e-08 0.3 0.4
v 0.1 0.3 0.4
v 0.2 0.3 0.4
v 0.3 0.3 0.4
v -0.6 0.3 0.3
v -0.5 0.3 0.3
v -0.4 0.3 0.3
v -0.3 0.3 0.3
v -0.2 0.3 0.3
v -0.1 0.3 0.3
v -5.96046e-08 0.3 0.3
v 0.1 0.3 0.3
v 0.2 0.3 0.3
v 0.3 0.3 0.3
v 0.4 0.3 0.3
v 0.5 0.3 0.3
v -0.6 0.3 0.2
v -0.5 0.3 0.2
v -0.4 0.3 0.2
v 0.2 0.3 0.2
v 0.3 0.3 0.2
v 0.4 0.3 0.2
v 0.5 0.3 0.2
v -0.6 0.3 0.1
v -0.5 0.3 0.1
v -0.4 0.3 0.1
v 0.3 0.3 0.1
v 0.4 0.3 0.1
v 0.5 0.3 0.1
v -0.6 0.3 0
v -0.5 0.3 0
v -0.4 0.3 0
v 0.3 0.3 0
v 0.4 0.3 0
v 0.5 0.3 0
v -0.6 0.3 -0.1
v -0.5 0.3 -0.1
v -0.4 0.3 -0.1
v 0.3 0.3 -0.1
v 0.4 0.3 -0.1
v 0.5 0.3 -0.1
v -0.6 0.3 -0.2
v -0.5 0.3 -0.2
v -0.4 0.3 -0.2
v 0.3 0.3 -0.2
v 0.4 0.3 -0.2
v 0.5 0.3 -0.2
v -0.6 0.3 -0.3
v -0.5 0.3 -0.3
v -0.4 0.3 -0.3
v 0.2 0.3 -0.3
v 0.3 0.3 -0.3
v 0.4 0.3 -0.3
v 0.5 0.3 -0.3
v -0.6 0.3 -0.4
v -0.5 0.3 -0.4
v -0.4 0.3 -0.4
v -0.3 0.3 -0.4
v -0.2 0.3 -0.4
v -0.1 0.3 -0.4
v -5.96046e-08 0.3 -0.4
v 0.1 0.3 -0.4
v 0.2 0.3 -0.4
v 0.3 0.3 -0.4
v 0.4 0.3 -0.4
v 0.5 0.3 -0.4
v -0.4 0.3 -0.5
v -0.3 0.3 -0.5
v -0.2 0.3 -0.5
v -0.1 0.3 -0.5
v -5.96046e-08 0.3 -0.5
v 0.1 0.3 -0.5
v 0.2 0.3 -0.5
v 0.3 0.3 -0.5
v -0.4 0.3 -0.6
v -0.3 0.3 -0.6
v -0.2 0.3 -0.6
v -0.1 0.3 -0.6
v -5.96046e-08 0.3 -0.6
v 0.1 0.3 -0.6
v 0.2 0.3 -0.6
v 0.3 0.3 -0.6
v -0.4 0.4 0.2
v 0.2 0.4 0.2
v -0.4 0.4 0.1
v 0.2 0.4 0.1
v -0.4 0.4 0
v 0.2 0.4 0
v -0.4 0.4 -0.1
v 0.2 0.4 -0.1
v -0.4 0.4 -0.2
v 0.2 0.4 -0.2
v -0.4 0.4 -0.3
v 0.2 0.4 -0.3
v -0.4 0.5 0.4
v -0.3 0.5 0.4
v -0.2 0.5 0.4
v -0.1 0.5 0.4
v -5.96046e-08 0.5 0.4
v 0.1 0.5 0.4
v 0.2 0.5 0.4
v 0.3 0.5 0.4
v -0.5 0.5 0.3
v -0.4 0.5 0.3
v -0.3 0.5 0.3
v -0.2 0.5 0.3
v -0.1 0.5 0.3
v -5.96046e-08 0.5 0.3
v 0.1 0.5 0.3
v 0.2 0.5 0.3
v 0.3 0.5 0.3
v 0.4 0.5 0.3
v -0.5 0.5 0.2
v 0.4 0.5 0.2
v -0.5 0.5 0.1
v 0.4 0.5 0.1
v -0.5 0.5 0
v 0.4 0.5 0
v -0.5 0.5 -0.1
v 0.4 0.5 -0.1
v -0.5 0.5 -0.2
v 0.4 0.5 -0.2
v -0.5 0.5 -0.3
v 0.4 0.5 -0.3
v -0.5 0.5 -0.4
v -0.4 0.5 -0.4
v -0.3 0.5 -0.4
v -0.2 0.5 -0.4
v -0.1 0.5 -0.4
v -5.96046e-08 0.5 -0.4
v 0.1 0.5 -0.4
v 0.2 0.5 -0.4
v 0.3 0.5 -0.4
v 0.4 0.5 -0.4
v -0.4 0.5 -0.5
v -0.3 0.5 -0.5
v -0.2 0.5 -0.5
v -0.1 0.5 -0.5
v -5.96046e-08 0.5 -0.5
v 0.1 0.5 -0.5
v 0.2 0.5 -0.5
v 0.3 0.5 -0.5

# faces
f 9/1/1 2/1/1 1/1/1
f 10/1/1 2/1/1 9/1/1
f 11/1/1 4/1/1 3/1/1
f 12/1/1 4/1/1 11/1/1
f 13/1/1 6/1/1 5/1/1
f 14/1/1 6/1/1 13/1/1
f 15/1/1 8/1/1 7/1/1
f 16/1/1 8/1/1 15/1/1
f 19/3/1 18/3/1 17/3/1
f 20/3/1 18/3/1 19/3/1
f 21/3/1 18/3/1 20/3/1
f 22/3/1 18/3/1 21/3/1
f 23/3/1 18/3/1 22/3/1
f 24/3/1 18/3/1 23/3/1
f 25/3/1 18/3/1 24/3/1
f 26/3/1 18/3/1 25/3/1
f 27/3/1 18/3/1 26/3/1
f 28/3/1 18/3/1 27/3/1
f 29/2/1 28/2/1 27/2/1
f 30/2/1 28/2/1 29/2/1
f 31/2/1 20/2/1 19/2/1
f 32/2/1 20/2/1 31/2/1
f 33/2/1 22/2/1 21/2/1
f 34/2/1 22/2/1 33/2/1
f 35/2/1 24/2/1 23/2/1
f 36/2/1 24/2/1 35/2/1
f 37/2/1 26/2/1 25/2/1
f 38/2/1 26/2/1 37/2/1
f 40/3/1 33/3/1 32/3/1
f 41/3/1 33/3/1 40/3/1
f 42/3/1 35/3/1 34/3/1
f 43/3/1 35/3/1 42/3/1
f 44/3/1 37/3/1 36/3/1
f 45/3/1 37/3/1 44/3/1
f 46/3/1 39/3/1 38/3/1
f 47/3/1 39/3/1 46/3/1
f 53/1/1 51/1/1 50/1/1
f 54/1/1 49/1/1 48/1/1
f 55/1/1 49/1/1 54/1/1
f 63/2/1 53/2/1 52/2/1
f 64/1/1 51/1/1 53/1/1
f 64/2/1 53/2/1 63/2/1
f 65/1/1 51/1/1 64/1/1
f 66/2/1 58/2/1 57/2/1
f 67/2/1 58/2/1 66/2/1
f 68/2/1 60/2/1 59/2/1
f 69/2/1 60/2/1 68/2/1
f 70/2/1 62/2/1 61/2/1
f 71/2/1 62/2/1 70/2/1
f 72/3/1 56/3/1 55/3/1
f 73/3/1 56/3/1 72/3/1
f 74/3/1 64/3/1 63/3/1
f 75/3/1 64/3/1 74/3/1
f 80/1/1 77/1/1 76/1/1
f 81/1/1 77/1/1 80/1/1
f 84/1/1 79/1/1 78/1/1
f 85/1/1 79/1/1 84/1/1
f 86/3/1 82/3/1 81/3/1
f 87/3/1 84/3/1 83/3/1
f 88/3/1 86/3/1 81/3/1
f 89/3/1 86/3/1 88/3/1
f 90/3/1 84/3/1 87/3/1
f 91/3/1 84/3/1 90/3/1
f 96/1/1 93/1/1 92/1/1
f 97/1/1 93/1/1 96/1/1
f 100/1/1 95/1/1 94/1/1
f 101/1/1 95/1/1 100/1/1
f 102/3/1 98/3/1 97/3/1
f 103/3/1 100/3/1 99/3/1
f 104/3/1 102/3/1 97/3/1
f 105/3/1 102/3/1 104/3/1
f 106/3/1 100/3/1 103/3/1
f 107/3/1 100/3/1 106/3/1
f 112/1/1 109/1/1 108/1/1
f 113/1/1 109/1/1 112/1/1
f 116/1/1 111/1/1 110/1/1
f 117/1/1 111/1/1 116/1/1
f 118/3/1 114/3/1 113/3/1
f 119/3/1 116/3/1 115/3/1
f 120/3/1 118/3/1 113/3/1
f 121/3/1 118/3/1 120/3/1
f 122/3/1 116/3/1 119/3/1
f 123/3/1 116/3/1 122/3/1
f 132/3/1 125/3/1 124/3/1
f 133/3/1 125/3/1 132/3/1
f 134/3/1 127/3/1 126/3/1
f 135/3/1 127/3/1 134/3/1
f 136/3/1 129/3/1 128/3/1
f 137/3/1 129/3/1 136/3/1
f 138/3/1 131/3/1 130/3/1
f 139/3/1 131/3/1 138/3/1
f 140/3/2 141/3/2 144/3/2
f 144/3/2 141/3/2 145/3/2
f 142/3/2 143/3/2 146/3/2
f 146/3/2 143/3/2 147/3/2
f 148/1/2 149/1/2 152/1/2
f 152/1/2 149/1/2 153/1/2
f 150/1/2 151/1/2 156/1/2
f 156/1/2 151/1/2 157/1/2
f 153/3/2 154/3/2 158/3/2
f 155/3/2 156/3/2 159/3/2
f 153/3/2 158/3/2 160/3/2
f 160/3/2 158/3/2 161/3/2
f 159/3/2 156/3/2 162/3/2
f 162/3/2 156/3/2 163/3/2
f 164/1/2 165/1/2 168/1/2
f 168/1/2 165/1/2 169/1/2
f 166/1/2 167/1/2 172/1/2
f 172/1/2 167/1/2 173/1/2
f 169/3/2 170/3/2 174/3/2
f 171/3/2 172/3/2 175/3/2
f 169/3/2 174/3/2 176/3/2
f 176/3/2 174/3/2 177/3/2
f 175/3/2 172/3/2 178/3/2
f 178/3/2 172/3/2 179/3/2
f 180/1/2 181/1/2 184/1/2
f 184/1/2 181/1/2 185/1/2
f 182/1/2 183/1/2 188/1/2
f 188/1/2 183/1/2 189/1/2
f 185/3/2 186/3/2 190/3/2
f 187/3/2 188/3/2 191/3/2
f 185/3/2 190/3/2 192/3/2
f 192/3/2 190/3/2 193/3/2
f 191/3/2 188/3/2 194/3/2
f 194/3/2 188/3/2 195/3/2
f 196/2/2 197/2/2 198/2/2
f 198/2/2 197/2/2 199/2/2
f 199/2/2 197/2/2 200/2/2
f 200/2/2 197/2/2 201/2/2
f 201/2/2 197/2/2 202/2/2
f 202/2/2 197/2/2 203/2/2
f 204/1/2 205/1/2 208/1/2
f 206/1/2 207/1/2 211/1/2
f 204/1/2 208/1/2 212/1/2
f 208/2/2 209/2/2 213/2/2
f 212/1/2 208/1/2 213/1/2
f 213/2/2 209/2/2 214/2/2
f 210/2/2 211/2/2 215/2/2
f 211/1/2 207/1/2 216/1/2
f 215/2/2 211/2/2 216/2/2
f 216/1/2 207/1/2 217/1/2
f 213/3/2 214/3/2 218/3/2
f 218/3/2 214/3/2 219/3/2
f 215/3/2 216/3/2 220/3/2
f 220/3/2 216/3/2 221/3/2
f 222/3/2 223/3/2 224/3/2
f 224/3/2 223/3/2 225/3/2
f 225/3/2 223/3/2 226/3/2
f 226/3/2 223/3/2 227/3/2
f 227/3/2 223/3/2 228/3/2
f 228/3/2 223/3/2 229/3/2
f 229/3/2 223/3/2 230/3/2
f 230/3/2 223/3/2 231/3/2
f 231/3/2 223/3/2 232/3/2
f 232/3/2 223/3/2 233/3/2
f 224/2/2 225/2/2 234/2/2
f 234/2/2 225/2/2 235/2/2
f 228/2/2 229/2/2 236/2/2
f 230/2/2 231/2/2 237/2/2
f 232/2/2 233/2/2 238/2/2
f 238/2/2 233/2/2 239/2/2
f 226/2/2 227/2/2 241/2/2
f 241/2/2 227/2/2 242/2/2
f 228/2/2 236/2/2 243/2/2
f 243/2/2 236/2/2 244/2/2
f 237/2/2 231/2/2 245/2/2
f 245/2/2 231/2/2 246/2/2
f 240/3/2 241/3/2 248/3/2
f 248/3/2 241/3/2 249/3/2
f 242/3/2 243/3/2 250/3/2
f 250/3/2 243/3/2 251/3/2
f 244/3/2 245/3/2 252/3/2
f 252/3/2 245/3/2 253/3/2
f 246/3/2 247/3/2 254/3/2
f 254/3/2 247/3/2 255/3/2
f 260/3/2 261/3/2 264/3/2
f 264/3/2 261/3/2 265/3/2
f 256/1/2 257/1/2 266/1/2
f 266/1/2 257/1/2 267/1/2
f 258/1/2 259/1/2 268/1/2
f 268/1/2 259/1/2 269/1/2
f 264/1/2 265/1/2 270/1/2
f 270/1/2 265/1/2 271/1/2
f 262/1/2 263/1/2 272/1/2
f 272/1/2 263/1/2 273/1/2
f 276/1/3 275/1/3 274/1/3
f 277/1/3 275/1/3 276/1/3
f 280/1/3 279/1/3 278/1/3
f 281/1/3 279/1/3 280/1/3
f 284/1/3 283/1/3 282/1/3
f 285/1/3 283/1/3 284/1/3
f 288/1/3 287/1/3 286/1/3
f 289/1/3 287/1/3 288/1/3
f 293/3/3 291/3/3 290/3/3
f 294/2/3 292/2/3 291/2/3
f 294/3/3 291/3/3 293/3/3
f 295/2/3 292/2/3 294/2/3
f 297/1/3 294/1/3 293/1/3
f 298/1/3 294/1/3 297/1/3
f 299/3/3 296/3/3 295/3/3
f 300/3/3 296/3/3 299/3/3
f 301/3/3 298/3/3 297/3/3
f 302/2/3 299/2/3 298/2/3
f 302/3/3 298/3/3 301/3/3
f 303/2/3 299/2/3 302/2/3
f 305/1/3 302/1/3 301/1/3
f 306/1/3 302/1/3 305/1/3
f 307/3/3 304/3/3 303/3/3
f 308/3/3 304/3/3 307/3/3
f 309/3/3 306/3/3 305/3/3
f 310/2/3 307/2/3 306/2/3
f 310/3/3 306/3/3 309/3/3
f 311/2/3 307/2/3 310/2/3
f 313/1/3 310/1/3 309/1/3
f 314/1/3 310/1/3 313/1/3
f 315/3/3 312/3/3 311/3/3
f 316/3/3 312/3/3 315/3/3
f 317/3/3 314/3/3 313/3/3
f 318/2/3 315/2/3 314/2/3
f 318/3/3 314/3/3 317/3/3
f 319/2/3 315/2/3 318/2/3
f 321/1/3 318/1/3 317/1/3
f 322/1/3 318/1/3 321/1/3
f 324/3/3 320/3/3 319/3/3
f 325/3/3 320/3/3 324/3/3
f 326/3/3 322/3/3 321/3/3
f 327/2/3 323/2/3 322/2/3
f 327/3/3 322/3/3 326/3/3
f 328/2/3 323/2/3 327/2/3
f 331/1/3 330/1/3 329/1/3
f 332/1/3 330/1/3 331/1/3
f 334/3/3 333/3/3 332/3/3
f 335/3/3 333/3/3 334/3/3
f 338/3/3 337/3/3 336/3/3
f 339/3/3 337/3/3 338/3/3
f 342/3/3 341/3/3 340/3/3
f 343/3/3 341/3/3 342/3/3
f 346/3/3 345/3/3 344/3/3
f 347/3/3 345/3/3 346/3/3
f 352/2/3 349/2/3 348/2/3
f 353/3/3 350/3/3 349/3/3
f 353/2/3 349/2/3 352/2/3
f 354/3/3 350/3/3 353/3/3
f 355/1/3 352/1/3 351/1/3
f 355/1/3 353/1/3 352/1/3
f 356/1/3 353/1/3 355/1/3
f 359/2/3 358/2/3 357/2/3
f 360/2/3 358/2/3 359/2/3
f 363/1/3 362/1/3 361/1/3
f 364/1/3 362/1/3 363/1/3
f 366/3/3 365/3/3 364/3/3
f 367/3/3 365/3/3 366/3/3
f 368/3/3 365/3/3 367/3/3
f 370/3/3 365/3/3 368/3/3
f 372/3/3 370/3/3 369/3/3
f 373/3/3 365/3/3 370/3/3
f 373/3/3 370/3/3 372/3/3
f 374/1/3 372/1/3 371/1/3
f 375/1/3 372/1/3 374/1/3
f 378/1/3 377/1/3 376/1/3
f 379/1/3 377/1/3 378/1/3
f 381/3/3 380/3/3 379/3/3
f 382/3/3 380/3/3 381/3/3
f 383/3/3 380/3/3 382/3/3
f 385/3/3 380/3/3 383/3/3
f 388/3/3 385/3/3 384/3/3
f 389/3/3 380/3/3 385/3/3
f 389/3/3 385/3/3 388/3/3
f 390/3/3 387/3/3 386/3/3
f 391/1/3 388/1/3 387/1/3
f 391/3/3 387/3/3 390/3/3
f 392/1/3 388/1/3 391/1/3
f 395/1/3 394/1/3 393/1/3
f 396/1/3 394/1/3 395/1/3
f 398/3/3 397/3/3 396/3/3
f 399/3/3 397/3/3 398/3/3
f 400/3/3 397/3/3 399/3/3
f 402/3/3 397/3/3 400/3/3
f 404/3/3 402/3/3 401/3/3
f 405/3/3 397/3/3 402/3/3
f 405/3/3 402/3/3 404/3/3
f 406/1/3 404/1/3 403/1/3
f 407/1/3 404/1/3 406/1/3
f 410/3/3 409/3/3 408/3/3
f 411/3/3 409/3/3 410/3/3
f 414/3/3 413/3/3 412/3/3
f 415/3/3 413/3/3 414/3/3
f 418/3/3 417/3/3 416/3/3
f 419/3/3 417/3/3 418/3/3
f 422/3/3 421/3/3 420/3/3
f 423/3/3 421/3/3 422/3/3
f 424/3/4 425/3/4 426/3/4
f 426/3/4 425/3/4 427/3/4
f 428/3/4 429/3/4 430/3/4
f 430/3/4 429/3/4 431/3/4
f 432/3/4 433/3/4 434/3/4
f 434/3/4 433/3/4 435/3/4
f 436/3/4 437/3/4 438/3/4
f 438/3/4 437/3/4 439/3/4
f 440/1/4 441/1/4 442/1/4
f 442/1/4 441/1/4 443/1/4
f 443/3/4 444/3/4 445/3/4
f 445/3/4 444/3/4 446/3/4
f 446/3/4 444/3/4 447/3/4
f 447/3/4 444/3/4 449/3/4
f 448/3/4 449/3/4 451/3/4
f 449/3/4 444/3/4 452/3/4
f 451/3/4 449/3/4 452/3/4
f 450/1/4 451/1/4 453/1/4
f 453/1/4 451/1/4 454/1/4
f 455/1/4 456/1/4 457/1/4
f 457/1/4 456/1/4 458/1/4
f 458/3/4 459/3/4 460/3/4
f 460/3/4 459/3/4 461/3/4
f 461/3/4 459/3/4 462/3/4
f 462/3/4 459/3/4 464/3/4
f 463/3/4 464/3/4 466/3/4
f 464/3/4 459/3/4 467/3/4
f 466/3/4 464/3/4 467/3/4
f 465/1/4 466/1/4 468/1/4
f 468/1/4 466/1/4 469/1/4
f 470/1/4 471/1/4 472/1/4
f 472/1/4 471/1/4 473/1/4
f 473/3/4 474/3/4 475/3/4
f 475/3/4 474/3/4 476/3/4
f 476/3/4 474/3/4 477/3/4
f 477/3/4 474/3/4 479/3/4
f 478/3/4 479/3/4 482/3/4
f 479/3/4 474/3/4 483/3/4
f 482/3/4 479/3/4 483/3/4
f 480/3/4 481/3/4 484/3/4
f 481/1/4 482/1/4 485/1/4
f 484/3/4 481/3/4 485/3/4
f 485/1/4 482/1/4 486/1/4
f 487/2/4 488/2/4 489/2/4
f 489/2/4 488/2/4 490/2/4
f 491/1/4 492/1/4 493/1/4
f 493/1/4 492/1/4 494/1/4
f 494/1/4 492/1/4 495/1/4
f 494/2/4 495/2/4 497/2/4
f 495/3/4 496/3/4 498/3/4
f 497/2/4 495/2/4 498/2/4
f 498/3/4 496/3/4 499/3/4
f 500/3/4 501/3/4 502/3/4
f 502/3/4 501/3/4 503/3/4
f 504/3/4 505/3/4 506/3/4
f 506/3/4 505/3/4 507/3/4
f 508/3/4 509/3/4 510/3/4
f 510/3/4 509/3/4 511/3/4
f 512/2/4 513/2/4 516/2/4
f 513/3/4 514/3/4 517/3/4
f 516/2/4 513/2/4 517/2/4
f 517/3/4 514/3/4 518/3/4
f 515/1/4 516/1/4 519/1/4
f 516/1/4 517/1/4 519/1/4
f 519/1/4 517/1/4 520/1/4
f 521/3/4 522/3/4 524/3/4
f 522/2/4 523/2/4 524/2/4
f 524/2/4 523/2/4 525/2/4
f 521/3/4 524/3/4 528/3/4
f 526/3/4 527/3/4 529/3/4
f 529/3/4 527/3/4 530/3/4
f 521/3/4 528/3/4 531/3/4
f 528/2/4 529/2/4 531/2/4
f 531/2/4 529/2/4 532/2/4
f 521/3/4 531/3/4 534/3/4
f 532/3/4 533/3/4 535/3/4
f 535/3/4 533/3/4 536/3/4
f 521/3/4 534/3/4 537/3/4
f 534/2/4 535/2/4 537/2/4
f 537/2/4 535/2/4 538/2/4
f 521/3/4 537/3/4 540/3/4
f 538/3/4 539/3/4 541/3/4
f 541/3/4 539/3/4 542/3/4
f 521/3/4 540/3/4 543/3/4
f 540/2/4 541/2/4 543/2/4
f 543/2/4 541/2/4 544/2/4
f 521/3/4 543/3/4 546/3/4
f 544/3/4 545/3/4 548/3/4
f 548/3/4 545/3/4 549/3/4
f 521/3/4 546/3/4 550/3/4
f 546/2/4 547/2/4 551/2/4
f 550/3/4 546/3/4 551/3/4
f 551/2/4 547/2/4 552/2/4
f 553/1/4 554/1/4 555/1/4
f 555/1/4 554/1/4 556/1/4
f 557/1/4 558/1/4 559/1/4
f 559/1/4 558/1/4 560/1/4
f 561/1/4 562/1/4 563/1/4
f 563/1/4 562/1/4 564/1/4
f 565/1/4 566/1/4 567/1/4
f 567/1/4 566/1/4 568/1/4
f 579/3/5 570/3/5 569/3/5
f 579/1/5 571/1/5 570/1/5
f 580/3/5 572/3/5 571/3/5
f 580/1/5 571/1/5 579/1/5
f 581/1/5 573/1/5 572/1/5
f 581/3/5 572/3/5 580/3/5
f 582/3/5 574/3/5 573/3/5
f 582/1/5 573/1/5 581/1/5
f 583/1/5 575/1/5 574/1/5
f 583/3/5 574/3/5 582/3/5
f 584/3/5 576/3/5 575/3/5
f 584/1/5 575/1/5 583/1/5
f 585/1/5 577/1/5 576/1/5
f 585/3/5 576/3/5 584/3/5
f 586/3/5 578/3/5 577/3/5
f 586/1/5 577/1/5 585/1/5
f 587/3/5 585/3/5 584/3/5
f 587/3/5 584/3/5 583/3/5
f 587/3/5 586/3/5 585/3/5
f 587/3/5 583/3/5 582/3/5
f 587/3/5 582/3/5 581/3/5
f 587/3/5 581/3/5 580/3/5
f 587/3/5 580/3/5 579/3/5
f 587/3/5 579/3/5 569/3/5
f 588/3/5 578/3/5 586/3/5
f 588/3/5 586/3/5 587/3/5
f 597/1/5 590/1/5 589/1/5
f 598/1/5 590/1/5 597/1/5
f 599/1/5 592/1/5 591/1/5
f 600/1/5 592/1/5 599/1/5
f 601/1/5 594/1/5 593/1/5
f 602/1/5 594/1/5 601/1/5
f 603/1/5 596/1/5 595/1/5
f 604/1/5 596/1/5 603/1/5
f 609/1/5 606/1/5 605/1/5
f 610/1/5 606/1/5 609/1/5
f 611/1/5 608/1/5 607/1/5
f 612/1/5 608/1/5 611/1/5
f 617/1/5 614/1/5 613/1/5
f 618/1/5 614/1/5 617/1/5
f 619/1/5 616/1/5 615/1/5
f 620/1/5 616/1/5 619/1/5
f 625/1/5 622/1/5 621/1/5
f 626/1/5 622/1/5 625/1/5
f 627/3/5 624/3/5 623/3/5
f 628/3/5 624/3/5 627/3/5
f 633/1/5 630/1/5 629/1/5
f 634/1/5 630/1/5 633/1/5
f 635/1/5 632/1/5 631/1/5
f 636/1/5 632/1/5 635/1/5
f 645/1/5 638/1/5 637/1/5
f 646/1/5 638/1/5 645/1/5
f 647/1/5 640/1/5 639/1/5
f 648/1/5 640/1/5 647/1/5
f 649/1/5 642/1/5 641/1/5
f 650/1/5 642/1/5 649/1/5
f 651/1/5 644/1/5 643/1/5
f 652/1/5 644/1/5 651/1/5
f 661/3/5 654/3/5 653/3/5
f 661/3/5 660/3/5 659/3/5
f 661/3/5 659/3/5 658/3/5
f 661/3/5 658/3/5 657/3/5
f 661/3/5 657/3/5 656/3/5
f 661/3/5 656/3/5 655/3/5
f 661/3/5 655/3/5 654/3/5
f 662/3/5 660/3/5 661/3/5
f 663/3/5 660/3/5 662/3/5
f 666/3/5 665/3/5 664/3/5
f 667/3/5 665/3/5 666/3/5
f 670/3/5 669/3/5 668/3/5
f 671/3/5 669/3/5 670/3/5
f 675/3/5 673/3/5 672/3/5
f 675/3/5 674/3/5 673/3/5
f 676/3/5 674/3/5 675/3/5
f 677/3/5 674/3/5 676/3/5
f 678/3/5 674/3/5 677/3/5
f 679/3/5 674/3/5 678/3/5
f 680/3/5 674/3/5 679/3/5
f 681/3/5 674/3/5 680/3/5
f 682/3/5 674/3/5 681/3/5
f 683/2/6 684/2/6 685/2/6
f 685/2/6 684/2/6 686/2/6
f 687/2/6 688/2/6 691/2/6
f 691/2/6 688/2/6 692/2/6
f 689/2/6 690/2/6 693/2/6
f 693/2/6 690/2/6 694/2/6
f 695/1/6 696/1/6 704/1/6
f 704/1/6 696/1/6 705/1/6
f 697/1/6 698/1/6 706/1/6
f 706/1/6 698/1/6 707/1/6
f 699/1/6 700/1/6 708/1/6
f 708/1/6 700/1/6 709/1/6
f 701/1/6 702/1/6 710/1/6
f 710/1/6 702/1/6 711/1/6
f 703/2/6 704/2/6 713/2/6
f 713/2/6 704/2/6 714/2/6
f 705/2/6 706/2/6 715/2/6
f 715/2/6 706/2/6 716/2/6
f 707/2/6 708/2/6 717/2/6
f 717/2/6 708/2/6 718/2/6
f 709/2/6 710/2/6 719/2/6
f 719/2/6 710/2/6 720/2/6
f 712/1/6 713/1/6 724/1/6
f 724/1/6 713/1/6 725/1/6
f 720/2/6 721/2/6 726/2/6
f 717/2/6 718/2/6 726/2/6
f 715/2/6 716/2/6 726/2/6
f 718/2/6 719/2/6 726/2/6
f 719/2/6 720/2/6 726/2/6
f 716/2/6 717/2/6 726/2/6
f 714/2/6 715/2/6 726/2/6
f 726/2/6 721/2/6 727/2/6
f 727/2/6 721/2/6 728/2/6
f 722/1/6 723/1/6 729/1/6
f 729/1/6 723/1/6 730/1/6
f 725/2/6 726/2/6 732/2/6
f 732/2/6 726/2/6 733/2/6
f 727/2/6 728/2/6 734/2/6
f 728/2/6 729/2/6 734/2/6
f 734/2/6 729/2/6 735/2/6
f 731/1/6 732/1/6 737/1/6
f 737/1/6 732/1/6 738/1/6
f 727/2/6 734/2/6 740/2/6
f 735/1/6 736/1/6 741/1/6
f 741/1/6 736/1/6 742/1/6
f 738/2/6 739/2/6 744/2/6
f 744/2/6 739/2/6 745/2/6
f 727/2/6 740/2/6 746/2/6
f 740/2/6 741/2/6 746/2/6
f 746/2/6 741/2/6 747/2/6
f 743/1/6 744/1/6 749/1/6
f 749/1/6 744/1/6 750/1/6
f 727/2/6 746/2/6 752/2/6
f 747/1/6 748/1/6 753/1/6
f 753/1/6 748/1/6 754/1/6
f 750/2/6 751/2/6 756/2/6
f 756/2/6 751/2/6 757/2/6
f 727/2/6 752/2/6 758/2/6
f 752/2/6 753/2/6 758/2/6
f 758/2/6 753/2/6 759/2/6
f 759/2/6 753/2/6 760/2/6
f 755/1/6 756/1/6 762/1/6
f 762/1/6 756/1/6 763/1/6
f 758/2/6 759/2/6 764/2/6
f 757/2/6 758/2/6 764/2/6
f 764/2/6 759/2/6 765/2/6
f 765/2/6 759/2/6 766/2/6
f 766/2/6 759/2/6 767/2/6
f 767/2/6 759/2/6 768/2/6
f 768/2/6 759/2/6 769/2/6
f 769/2/6 759/2/6 770/2/6
f 770/2/6 759/2/6 771/2/6
f 760/1/6 761/1/6 772/1/6
f 772/1/6 761/1/6 773/1/6
f 765/2/6 766/2/6 775/2/6
f 775/2/6 766/2/6 776/2/6
f 767/2/6 768/2/6 777/2/6
f 777/2/6 768/2/6 778/2/6
f 769/2/6 770/2/6 779/2/6
f 779/2/6 770/2/6 780/2/6
f 774/1/6 775/1/6 782/1/6
f 782/1/6 775/1/6 783/1/6
f 776/1/6 777/1/6 784/1/6
f 784/1/6 777/1/6 785/1/6
f 778/1/6 779/1/6 786/1/6
f 786/1/6 779/1/6 787/1/6
f 780/1/6 781/1/6 788/1/6
f 788/1/6 781/1/6 789/1/6
f 790/2/6 791/2/6 792/2/6
f 792/2/6 791/2/6 793/2/6
f 794/2/6 795/2/6 796/2/6
f 796/2/6 795/2/6 797/2/6
f 798/2/6 799/2/6 800/2/6
f 800/2/6 799/2/6 801/2/6
f 802/3/6 803/3/6 811/3/6
f 811/3/6 803/3/6 812/3/6
f 804/3/6 805/3/6 813/3/6
f 813/3/6 805/3/6 814/3/6
f 806/3/6 807/3/6 815/3/6
f 815/3/6 807/3/6 816/3/6
f 808/3/6 809/3/6 817/3/6
f 817/3/6 809/3/6 818/3/6
f 815/3/6 816/3/6 820/3/6
f 818/3/6 819/3/6 820/3/6
f 817/3/6 818/3/6 820/3/6
f 816/3/6 817/3/6 820/3/6
f 811/3/6 812/3/6 820/3/6
f 814/3/6 815/3/6 820/3/6
f 813/3/6 814/3/6 820/3/6
f 812/3/6 813/3/6 820/3/6
f 810/3/6 811/3/6 820/3/6
f 820/3/6 819/3/6 821/3/6
f 822/3/6 823/3/6 824/3/6
f 824/3/6 823/3/6 825/3/6
f 826/3/6 827/3/6 828/3/6
f 828/3/6 827/3/6 829/3/6
f 830/3/6 831/3/6 832/3/6
f 832/3/6 831/3/6 833/3/6
f 833/3/6 831/3/6 834/3/6
f 834/3/6 831/3/6 835/3/6
f 835/3/6 831/3/6 836/3/6
f 836/3/6 831/3/6 837/3/6
f 837/3/6 831/3/6 838/3/6
f 838/3/6 831/3/6 839/3/6
f 839/3/6 831/3/6 840/3/6
f 840/3/6 831/3/6 841/3/6
f 833/3/6 834/3/6 842/3/6
f 842/3/6 834/3/6 843/3/6
f 835/3/6 836/3/6 844/3/6
f 844/3/6 836/3/6 845/3/6
f 837/3/6 838/3/6 846/3/6
f 846/3/6 838/3/6 847/3/6
f 839/3/6 840/3/6 848/3/6
f 848/3/6 840/3/6 849/3/6
