# MagicaVoxel @ Ephtracy

# group
o 

# material
mtllib trans_1.mtl
usemtl palette

# normals
vn -1 0 0
vn 1 0 0
vn 0 0 1
vn 0 0 -1
vn 0 -1 0
vn 0 1 0

# texcoords
vt 0.919922 0.5
vt 0.923828 0.5
vt 0.927734 0.5
vt 0.962891 0.5
vt 0.966797 0.5
vt 0.994141 0.5

# verts
v -1 0.3 0.4
v -1 0.3 0.1
v -1 0.3 -0.2
v -1 0.4 0.4
v -1 0.4 0.1
v -1 0.4 -0.2
v -1 0.5 0.4
v -1 0.5 0.1
v -1 0.5 -0.2
v -1 0.6 0.4
v -1 0.6 0.1
v -1 0.6 -0.2
v -1 2.2 0.4
v -1 2.2 0.1
v -1 2.2 -0.2
v -1 2.3 0.4
v -1 2.3 0.1
v -1 2.3 -0.2
v -1 2.4 0.4
v -1 2.4 0.1
v -1 2.4 -0.2
v -1 2.5 0.4
v -1 2.5 0.1
v -1 2.5 -0.2
v -0.9 0.3 0.6
v -0.9 0.3 0.4
v -0.9 0.3 -0.2
v -0.9 0.3 -0.3
v -0.9 0.3 -0.4
v -0.9 0.4 0.6
v -0.9 0.4 0.4
v -0.9 0.4 -0.2
v -0.9 0.4 -0.3
v -0.9 0.4 -0.4
v -0.9 0.5 0.6
v -0.9 0.5 0.4
v -0.9 0.5 -0.2
v -0.9 0.5 -0.3
v -0.9 0.5 -0.4
v -0.9 0.6 0.6
v -0.9 0.6 0.4
v -0.9 0.6 -0.2
v -0.9 0.6 -0.3
v -0.9 0.6 -0.4
v -0.9 2.2 0.6
v -0.9 2.2 0.4
v -0.9 2.2 -0.2
v -0.9 2.2 -0.3
v -0.9 2.2 -0.4
v -0.9 2.3 0.6
v -0.9 2.3 0.4
v -0.9 2.3 -0.2
v -0.9 2.3 -0.3
v -0.9 2.3 -0.4
v -0.9 2.4 0.6
v -0.9 2.4 0.4
v -0.9 2.4 -0.2
v -0.9 2.4 -0.3
v -0.9 2.4 -0.4
v -0.9 2.5 0.6
v -0.9 2.5 0.4
v -0.9 2.5 -0.2
v -0.9 2.5 -0.3
v -0.9 2.5 -0.4
v -0.8 0.3 0.7
v -0.8 0.3 0.6
v -0.8 0.3 -0.4
v -0.8 0.3 -0.5
v -0.8 0.4 0.7
v -0.8 0.4 0.6
v -0.8 0.4 -0.4
v -0.8 0.4 -0.5
v -0.8 0.5 0.7
v -0.8 0.5 0.6
v -0.8 0.5 -0.4
v -0.8 0.5 -0.5
v -0.8 0.6 0.7
v -0.8 0.6 0.6
v -0.8 0.6 -0.4
v -0.8 0.6 -0.5
v -0.8 2.2 0.7
v -0.8 2.2 0.6
v -0.8 2.2 -0.4
v -0.8 2.2 -0.5
v -0.8 2.3 0.7
v -0.8 2.3 0.6
v -0.8 2.3 -0.4
v -0.8 2.3 -0.5
v -0.8 2.4 0.7
v -0.8 2.4 0.6
v -0.8 2.4 -0.4
v -0.8 2.4 -0.5
v -0.8 2.5 0.7
v -0.8 2.5 0.6
v -0.8 2.5 -0.4
v -0.8 2.5 -0.5
v -0.7 0 0.5
v -0.7 0 0.3
v -0.7 0 -0.1
v -0.7 0 -0.3
v -0.7 0.1 0.5
v -0.7 0.1 0.3
v -0.7 0.1 -0.1
v -0.7 0.1 -0.3
v -0.7 0.3 0.5
v -0.7 0.3 0.3
v -0.7 0.3 -0.1
v -0.7 0.3 -0.3
v -0.6 0.3 0.8
v -0.6 0.3 0.7
v -0.6 0.3 -0.5
v -0.6 0.3 -0.6
v -0.6 0.4 0.8
v -0.6 0.4 0.7
v -0.6 0.4 -0.5
v -0.6 0.4 -0.6
v -0.6 0.5 0.8
v -0.6 0.5 0.7
v -0.6 0.5 -0.5
v -0.6 0.5 -0.6
v -0.6 0.6 0.8
v -0.6 0.6 0.7
v -0.6 0.6 -0.5
v -0.6 0.6 -0.6
v -0.6 2.2 0.8
v -0.6 2.2 0.7
v -0.6 2.2 -0.5
v -0.6 2.2 -0.6
v -0.6 2.3 0.8
v -0.6 2.3 0.7
v -0.6 2.3 -0.5
v -0.6 2.3 -0.6
v -0.6 2.4 0.8
v -0.6 2.4 0.7
v -0.6 2.4 -0.5
v -0.6 2.4 -0.6
v -0.6 2.5 0.8
v -0.6 2.5 0.7
v -0.6 2.5 -0.5
v -0.6 2.5 -0.6
v -0.4 0.3 0.9
v -0.4 0.3 0.8
v -0.4 0.3 -0.6
v -0.4 0.3 -0.7
v -0.4 0.4 0.9
v -0.4 0.4 0.8
v -0.4 0.4 -0.6
v -0.4 0.4 -0.7
v -0.4 0.5 0.9
v -0.4 0.5 0.8
v -0.4 0.5 -0.6
v -0.4 0.5 -0.7
v -0.4 0.6 0.9
v -0.4 0.6 0.8
v -0.4 0.6 -0.6
v -0.4 0.6 -0.7
v -0.4 2.2 0.9
v -0.4 2.2 0.8
v -0.4 2.2 -0.6
v -0.4 2.2 -0.7
v -0.4 2.3 0.9
v -0.4 2.3 0.8
v -0.4 2.3 -0.6
v -0.4 2.3 -0.7
v -0.4 2.4 0.9
v -0.4 2.4 0.8
v -0.4 2.4 -0.6
v -0.4 2.4 -0.7
v -0.4 2.5 0.9
v -0.4 2.5 0.8
v -0.4 2.5 -0.6
v -0.4 2.5 -0.7
v 0.3 0 0.5
v 0.3 0 0.3
v 0.3 0 -0.1
v 0.3 0 -0.3
v 0.3 0.1 0.5
v 0.3 0.1 0.3
v 0.3 0.1 -0.1
v 0.3 0.1 -0.3
v 0.3 0.3 0.5
v 0.3 0.3 0.3
v 0.3 0.3 -0.1
v 0.3 0.3 -0.3
v -0.5 0 0.5
v -0.5 0 0.3
v -0.5 0 -0.1
v -0.5 0 -0.3
v -0.5 0.1 0.5
v -0.5 0.1 0.3
v -0.5 0.1 -0.1
v -0.5 0.1 -0.3
v -0.5 0.3 0.5
v -0.5 0.3 0.3
v -0.5 0.3 -0.1
v -0.5 0.3 -0.3
v 0.1 0.3 0.9
v 0.1 0.3 0.8
v 0.1 0.3 -0.6
v 0.1 0.3 -0.7
v 0.1 0.4 0.9
v 0.1 0.4 0.8
v 0.1 0.4 -0.6
v 0.1 0.4 -0.7
v 0.1 0.5 0.9
v 0.1 0.5 0.8
v 0.1 0.5 -0.6
v 0.1 0.5 -0.7
v 0.1 0.6 0.9
v 0.1 0.6 0.8
v 0.1 0.6 -0.6
v 0.1 0.6 -0.7
v 0.1 2.2 0.9
v 0.1 2.2 0.8
v 0.1 2.2 -0.6
v 0.1 2.2 -0.7
v 0.1 2.3 0.9
v 0.1 2.3 0.8
v 0.1 2.3 -0.6
v 0.1 2.3 -0.7
v 0.1 2.4 0.9
v 0.1 2.4 0.8
v 0.1 2.4 -0.6
v 0.1 2.4 -0.7
v 0.1 2.5 0.9
v 0.1 2.5 0.8
v 0.1 2.5 -0.6
v 0.1 2.5 -0.7
v 0.3 0.3 0.8
v 0.3 0.3 0.7
v 0.3 0.3 -0.5
v 0.3 0.3 -0.6
v 0.3 0.4 0.8
v 0.3 0.4 0.7
v 0.3 0.4 -0.5
v 0.3 0.4 -0.6
v 0.3 0.5 0.8
v 0.3 0.5 0.7
v 0.3 0.5 -0.5
v 0.3 0.5 -0.6
v 0.3 0.6 0.8
v 0.3 0.6 0.7
v 0.3 0.6 -0.5
v 0.3 0.6 -0.6
v 0.3 2.2 0.8
v 0.3 2.2 0.7
v 0.3 2.2 -0.5
v 0.3 2.2 -0.6
v 0.3 2.3 0.8
v 0.3 2.3 0.7
v 0.3 2.3 -0.5
v 0.3 2.3 -0.6
v 0.3 2.4 0.8
v 0.3 2.4 0.7
v 0.3 2.4 -0.5
v 0.3 2.4 -0.6
v 0.3 2.5 0.8
v 0.3 2.5 0.7
v 0.3 2.5 -0.5
v 0.3 2.5 -0.6
v 0.5 0 0.5
v 0.5 0 0.3
v 0.5 0 -0.1
v 0.5 0 -0.3
v 0.5 0.1 0.5
v 0.5 0.1 0.3
v 0.5 0.1 -0.1
v 0.5 0.1 -0.3
v 0.5 0.3 0.7
v 0.5 0.3 0.6
v 0.5 0.3 0.5
v 0.5 0.3 0.4
v 0.5 0.3 0.3
v 0.5 0.3 -0.1
v 0.5 0.3 -0.2
v 0.5 0.3 -0.3
v 0.5 0.3 -0.4
v 0.5 0.3 -0.5
v 0.5 0.4 0.7
v 0.5 0.4 0.6
v 0.5 0.4 -0.4
v 0.5 0.4 -0.5
v 0.5 0.5 0.7
v 0.5 0.5 0.6
v 0.5 0.5 -0.4
v 0.5 0.5 -0.5
v 0.5 0.6 0.7
v 0.5 0.6 0.6
v 0.5 0.6 -0.4
v 0.5 0.6 -0.5
v 0.5 2.2 0.7
v 0.5 2.2 0.6
v 0.5 2.2 -0.4
v 0.5 2.2 -0.5
v 0.5 2.3 0.7
v 0.5 2.3 0.6
v 0.5 2.3 -0.4
v 0.5 2.3 -0.5
v 0.5 2.4 0.7
v 0.5 2.4 0.6
v 0.5 2.4 -0.4
v 0.5 2.4 -0.5
v 0.5 2.5 0.7
v 0.5 2.5 0.6
v 0.5 2.5 -0.4
v 0.5 2.5 -0.5
v 0.6 0.3 0.6
v 0.6 0.3 0.4
v 0.6 0.3 -0.2
v 0.6 0.3 -0.4
v 0.6 0.4 0.6
v 0.6 0.4 0.4
v 0.6 0.4 -0.2
v 0.6 0.4 -0.4
v 0.6 0.5 0.6
v 0.6 0.5 0.4
v 0.6 0.5 -0.2
v 0.6 0.5 -0.4
v 0.6 0.6 0.6
v 0.6 0.6 0.4
v 0.6 0.6 -0.2
v 0.6 0.6 -0.4
v 0.6 2.2 0.6
v 0.6 2.2 0.4
v 0.6 2.2 -0.2
v 0.6 2.2 -0.4
v 0.6 2.3 0.6
v 0.6 2.3 0.4
v 0.6 2.3 -0.2
v 0.6 2.3 -0.4
v 0.6 2.4 0.6
v 0.6 2.4 0.4
v 0.6 2.4 -0.2
v 0.6 2.4 -0.4
v 0.6 2.5 0.6
v 0.6 2.5 0.4
v 0.6 2.5 -0.2
v 0.6 2.5 -0.4
v 0.7 0.3 0.4
v 0.7 0.3 0.3
v 0.7 0.3 -0.2
v 0.7 0.4 0.4
v 0.7 0.4 0.3
v 0.7 0.4 -0.2
v 0.7 0.5 0.4
v 0.7 0.5 0.3
v 0.7 0.5 -0.2
v 0.7 0.6 0.4
v 0.7 0.6 0.3
v 0.7 0.6 -0.2
v 0.7 2.2 0.4
v 0.7 2.2 0.3
v 0.7 2.2 -0.2
v 0.7 2.3 0.4
v 0.7 2.3 0.3
v 0.7 2.3 -0.2
v 0.7 2.4 0.4
v 0.7 2.4 0.3
v 0.7 2.4 -0.2
v 0.7 2.5 0.4
v 0.7 2.5 0.3
v 0.7 2.5 -0.2
v -0.4 0.3 0.9
v -0.4 0.4 0.9
v -0.4 0.5 0.9
v -0.4 0.6 0.9
v -0.4 2.2 0.9
v -0.4 2.3 0.9
v -0.4 2.4 0.9
v -0.4 2.5 0.9
v -0.3 0.3 0.9
v -0.3 0.4 0.9
v -0.3 0.5 0.9
v -0.3 0.6 0.9
v -0.3 0.9 0.9
v -0.3 1.3 0.9
v -0.3 1.6 0.9
v -0.3 2 0.9
v -0.3 2.2 0.9
v -0.3 2.3 0.9
v -0.3 2.4 0.9
v -0.3 2.5 0.9
v -0.2 0.9 0.9
v -0.2 1.3 0.9
v -0.2 1.4 0.9
v -0.2 1.6 0.9
v -0.2 2 0.9
v -0.1 0.8 0.9
v -0.1 1.2 0.9
v -0.1 1.3 0.9
v -0.1 1.4 0.9
v -0.1 1.7 0.9
v -0.1 2 0.9
v 0 0.3 0.9
v 0 0.4 0.9
v 0 0.5 0.9
v 0 0.6 0.9
v 0 0.8 0.9
v 0 1.2 0.9
v 0 1.3 0.9
v 0 1.6 0.9
v 0 1.7 0.9
v 0 2 0.9
v 0 2.2 0.9
v 0 2.3 0.9
v 0 2.4 0.9
v 0 2.5 0.9
v 0.1 0.3 0.9
v 0.1 0.4 0.9
v 0.1 0.5 0.9
v 0.1 0.6 0.9
v 0.1 2.2 0.9
v 0.1 2.3 0.9
v 0.1 2.4 0.9
v 0.1 2.5 0.9
v -0.6 0.3 0.8
v -0.6 0.4 0.8
v -0.6 0.5 0.8
v -0.6 0.6 0.8
v -0.6 2.2 0.8
v -0.6 2.3 0.8
v -0.6 2.4 0.8
v -0.6 2.5 0.8
v -0.4 0.3 0.8
v -0.4 0.4 0.8
v -0.4 0.5 0.8
v -0.4 0.6 0.8
v -0.4 2.2 0.8
v -0.4 2.3 0.8
v -0.4 2.4 0.8
v -0.4 2.5 0.8
v 0.1 0.3 0.8
v 0.1 0.4 0.8
v 0.1 0.5 0.8
v 0.1 0.6 0.8
v 0.1 2.2 0.8
v 0.1 2.3 0.8
v 0.1 2.4 0.8
v 0.1 2.5 0.8
v 0.3 0.3 0.8
v 0.3 0.4 0.8
v 0.3 0.5 0.8
v 0.3 0.6 0.8
v 0.3 2.2 0.8
v 0.3 2.3 0.8
v 0.3 2.4 0.8
v 0.3 2.5 0.8
v -0.8 0.3 0.7
v -0.8 0.4 0.7
v -0.8 0.5 0.7
v -0.8 0.6 0.7
v -0.8 2.2 0.7
v -0.8 2.3 0.7
v -0.8 2.4 0.7
v -0.8 2.5 0.7
v -0.6 0.3 0.7
v -0.6 0.4 0.7
v -0.6 0.5 0.7
v -0.6 0.6 0.7
v -0.6 2.2 0.7
v -0.6 2.3 0.7
v -0.6 2.4 0.7
v -0.6 2.5 0.7
v 0.3 0.3 0.7
v 0.3 0.4 0.7
v 0.3 0.5 0.7
v 0.3 0.6 0.7
v 0.3 2.2 0.7
v 0.3 2.3 0.7
v 0.3 2.4 0.7
v 0.3 2.5 0.7
v 0.5 0.3 0.7
v 0.5 0.4 0.7
v 0.5 0.5 0.7
v 0.5 0.6 0.7
v 0.5 2.2 0.7
v 0.5 2.3 0.7
v 0.5 2.4 0.7
v 0.5 2.5 0.7
v -0.9 0.3 0.6
v -0.9 0.4 0.6
v -0.9 0.5 0.6
v -0.9 0.6 0.6
v -0.9 2.2 0.6
v -0.9 2.3 0.6
v -0.9 2.4 0.6
v -0.9 2.5 0.6
v -0.8 0.3 0.6
v -0.8 0.4 0.6
v -0.8 0.5 0.6
v -0.8 0.6 0.6
v -0.8 2.2 0.6
v -0.8 2.3 0.6
v -0.8 2.4 0.6
v -0.8 2.5 0.6
v 0.5 0.3 0.6
v 0.5 0.4 0.6
v 0.5 0.5 0.6
v 0.5 0.6 0.6
v 0.5 2.2 0.6
v 0.5 2.3 0.6
v 0.5 2.4 0.6
v 0.5 2.5 0.6
v 0.6 0.3 0.6
v 0.6 0.4 0.6
v 0.6 0.5 0.6
v 0.6 0.6 0.6
v 0.6 2.2 0.6
v 0.6 2.3 0.6
v 0.6 2.4 0.6
v 0.6 2.5 0.6
v -0.7 0 0.5
v -0.7 0.1 0.5
v -0.7 0.3 0.5
v -0.5 0 0.5
v -0.5 0.1 0.5
v -0.5 0.3 0.5
v 0.3 0 0.5
v 0.3 0.1 0.5
v 0.3 0.3 0.5
v 0.5 0 0.5
v 0.5 0.1 0.5
v 0.5 0.3 0.5
v -1 0.3 0.4
v -1 0.4 0.4
v -1 0.5 0.4
v -1 0.6 0.4
v -1 2.2 0.4
v -1 2.3 0.4
v -1 2.4 0.4
v -1 2.5 0.4
v -0.9 0.3 0.4
v -0.9 0.4 0.4
v -0.9 0.5 0.4
v -0.9 0.6 0.4
v -0.9 2.2 0.4
v -0.9 2.3 0.4
v -0.9 2.4 0.4
v -0.9 2.5 0.4
v 0.6 0.3 0.4
v 0.6 0.4 0.4
v 0.6 0.5 0.4
v 0.6 0.6 0.4
v 0.6 2.2 0.4
v 0.6 2.3 0.4
v 0.6 2.4 0.4
v 0.6 2.5 0.4
v 0.7 0.3 0.4
v 0.7 0.4 0.4
v 0.7 0.5 0.4
v 0.7 0.6 0.4
v 0.7 2.2 0.4
v 0.7 2.3 0.4
v 0.7 2.4 0.4
v 0.7 2.5 0.4
v -0.7 0 -0.1
v -0.7 0.1 -0.1
v -0.7 0.3 -0.1
v -0.5 0 -0.1
v -0.5 0.1 -0.1
v -0.5 0.3 -0.1
v 0.3 0 -0.1
v 0.3 0.1 -0.1
v 0.3 0.3 -0.1
v 0.5 0 -0.1
v 0.5 0.1 -0.1
v 0.5 0.3 -0.1
v -0.7 0 0.3
v -0.7 0.1 0.3
v -0.7 0.3 0.3
v -0.5 0 0.3
v -0.5 0.1 0.3
v -0.5 0.3 0.3
v 0.3 0 0.3
v 0.3 0.1 0.3
v 0.3 0.3 0.3
v 0.5 0 0.3
v 0.5 0.1 0.3
v 0.5 0.3 0.3
v -1 0.3 -0.2
v -1 0.4 -0.2
v -1 0.5 -0.2
v -1 0.6 -0.2
v -1 2.2 -0.2
v -1 2.3 -0.2
v -1 2.4 -0.2
v -1 2.5 -0.2
v -0.9 0.3 -0.2
v -0.9 0.4 -0.2
v -0.9 0.5 -0.2
v -0.9 0.6 -0.2
v -0.9 2.2 -0.2
v -0.9 2.3 -0.2
v -0.9 2.4 -0.2
v -0.9 2.5 -0.2
v 0.6 0.3 -0.2
v 0.6 0.4 -0.2
v 0.6 0.5 -0.2
v 0.6 0.6 -0.2
v 0.6 2.2 -0.2
v 0.6 2.3 -0.2
v 0.6 2.4 -0.2
v 0.6 2.5 -0.2
v 0.7 0.3 -0.2
v 0.7 0.4 -0.2
v 0.7 0.5 -0.2
v 0.7 0.6 -0.2
v 0.7 2.2 -0.2
v 0.7 2.3 -0.2
v 0.7 2.4 -0.2
v 0.7 2.5 -0.2
v -0.7 0 -0.3
v -0.7 0.1 -0.3
v -0.7 0.3 -0.3
v -0.6 0.3 -0.3
v -0.5 0 -0.3
v -0.5 0.1 -0.3
v -0.5 0.3 -0.3
v 0.3 0 -0.3
v 0.3 0.1 -0.3
v 0.3 0.3 -0.3
v 0.5 0 -0.3
v 0.5 0.1 -0.3
v 0.5 0.3 -0.3
v -0.9 0.3 -0.4
v -0.9 0.4 -0.4
v -0.9 0.5 -0.4
v -0.9 0.6 -0.4
v -0.9 2.2 -0.4
v -0.9 2.3 -0.4
v -0.9 2.4 -0.4
v -0.9 2.5 -0.4
v -0.8 0.3 -0.4
v -0.8 0.4 -0.4
v -0.8 0.5 -0.4
v -0.8 0.6 -0.4
v -0.8 2.2 -0.4
v -0.8 2.3 -0.4
v -0.8 2.4 -0.4
v -0.8 2.5 -0.4
v 0.5 0.3 -0.4
v 0.5 0.4 -0.4
v 0.5 0.5 -0.4
v 0.5 0.6 -0.4
v 0.5 2.2 -0.4
v 0.5 2.3 -0.4
v 0.5 2.4 -0.4
v 0.5 2.5 -0.4
v 0.6 0.3 -0.4
v 0.6 0.4 -0.4
v 0.6 0.5 -0.4
v 0.6 0.6 -0.4
v 0.6 2.2 -0.4
v 0.6 2.3 -0.4
v 0.6 2.4 -0.4
v 0.6 2.5 -0.4
v -0.8 0.3 -0.5
v -0.8 0.4 -0.5
v -0.8 0.5 -0.5
v -0.8 0.6 -0.5
v -0.8 2.2 -0.5
v -0.8 2.3 -0.5
v -0.8 2.4 -0.5
v -0.8 2.5 -0.5
v -0.6 0.3 -0.5
v -0.6 0.4 -0.5
v -0.6 0.5 -0.5
v -0.6 0.6 -0.5
v -0.6 2.2 -0.5
v -0.6 2.3 -0.5
v -0.6 2.4 -0.5
v -0.6 2.5 -0.5
v 0.3 0.3 -0.5
v 0.3 0.4 -0.5
v 0.3 0.5 -0.5
v 0.3 0.6 -0.5
v 0.3 2.2 -0.5
v 0.3 2.3 -0.5
v 0.3 2.4 -0.5
v 0.3 2.5 -0.5
v 0.5 0.3 -0.5
v 0.5 0.4 -0.5
v 0.5 0.5 -0.5
v 0.5 0.6 -0.5
v 0.5 2.2 -0.5
v 0.5 2.3 -0.5
v 0.5 2.4 -0.5
v 0.5 2.5 -0.5
v -0.6 0.3 -0.6
v -0.6 0.4 -0.6
v -0.6 0.5 -0.6
v -0.6 0.6 -0.6
v -0.6 2.2 -0.6
v -0.6 2.3 -0.6
v -0.6 2.4 -0.6
v -0.6 2.5 -0.6
v -0.4 0.3 -0.6
v -0.4 0.4 -0.6
v -0.4 0.5 -0.6
v -0.4 0.6 -0.6
v -0.4 2.2 -0.6
v -0.4 2.3 -0.6
v -0.4 2.4 -0.6
v -0.4 2.5 -0.6
v 0.1 0.3 -0.6
v 0.1 0.4 -0.6
v 0.1 0.5 -0.6
v 0.1 0.6 -0.6
v 0.1 2.2 -0.6
v 0.1 2.3 -0.6
v 0.1 2.4 -0.6
v 0.1 2.5 -0.6
v 0.2 0.3 -0.6
v 0.2 0.4 -0.6
v 0.2 0.5 -0.6
v 0.2 0.6 -0.6
v 0.2 2.2 -0.6
v 0.2 2.3 -0.6
v 0.2 2.4 -0.6
v 0.2 2.5 -0.6
v 0.3 0.3 -0.6
v 0.3 0.4 -0.6
v 0.3 0.5 -0.6
v 0.3 0.6 -0.6
v 0.3 2.2 -0.6
v 0.3 2.3 -0.6
v 0.3 2.4 -0.6
v 0.3 2.5 -0.6
v -0.4 0.3 -0.7
v -0.4 0.4 -0.7
v -0.4 0.5 -0.7
v -0.4 0.6 -0.7
v -0.4 2.2 -0.7
v -0.4 2.3 -0.7
v -0.4 2.4 -0.7
v -0.4 2.5 -0.7
v -0.3 0.3 -0.7
v -0.3 0.4 -0.7
v -0.3 0.5 -0.7
v -0.3 0.6 -0.7
v -0.3 1 -0.7
v -0.3 1.2 -0.7
v -0.3 1.4 -0.7
v -0.3 1.6 -0.7
v -0.3 2 -0.7
v -0.3 2.1 -0.7
v -0.3 2.2 -0.7
v -0.3 2.3 -0.7
v -0.3 2.4 -0.7
v -0.3 2.5 -0.7
v -0.2 0.8 -0.7
v -0.2 1 -0.7
v -0.2 1.5 -0.7
v -0.2 1.6 -0.7
v -0.2 1.7 -0.7
v -0.2 1.9 -0.7
v -0.2 2 -0.7
v -0.2 2.1 -0.7
v -0.1 0.8 -0.7
v -0.1 0.9 -0.7
v -0.1 1.5 -0.7
v -0.1 1.6 -0.7
v -0.1 1.9 -0.7
v -0.1 2 -0.7
v 0 0.3 -0.7
v 0 0.4 -0.7
v 0 0.5 -0.7
v 0 0.6 -0.7
v 0 0.9 -0.7
v 0 1.2 -0.7
v 0 1.4 -0.7
v 0 1.6 -0.7
v 0 1.7 -0.7
v 0 2 -0.7
v 0 2.2 -0.7
v 0 2.3 -0.7
v 0 2.4 -0.7
v 0 2.5 -0.7
v 0.1 0.3 -0.7
v 0.1 0.4 -0.7
v 0.1 0.5 -0.7
v 0.1 0.6 -0.7
v 0.1 2.2 -0.7
v 0.1 2.3 -0.7
v 0.1 2.4 -0.7
v 0.1 2.5 -0.7
v -0.7 0 0.5
v -0.5 0 0.5
v 0.3 0 0.5
v 0.5 0 0.5
v -0.7 0 0.3
v -0.5 0 0.3
v 0.3 0 0.3
v 0.5 0 0.3
v -0.7 0 -0.1
v -0.5 0 -0.1
v 0.3 0 -0.1
v 0.5 0 -0.1
v -0.7 0 -0.3
v -0.5 0 -0.3
v 0.3 0 -0.3
v 0.5 0 -0.3
v -0.4 0.3 0.9
v -0.3 0.3 0.9
v 0 0.3 0.9
v 0.1 0.3 0.9
v -0.6 0.3 0.8
v -0.4 0.3 0.8
v -0.3 0.3 0.8
v 0 0.3 0.8
v 0.1 0.3 0.8
v 0.3 0.3 0.8
v -0.8 0.3 0.7
v -0.6 0.3 0.7
v -0.4 0.3 0.7
v 0.3 0.3 0.7
v 0.5 0.3 0.7
v -0.9 0.3 0.6
v -0.8 0.3 0.6
v -0.6 0.3 0.6
v 0.1 0.3 0.6
v 0.5 0.3 0.6
v 0.6 0.3 0.6
v -0.7 0.3 0.5
v -0.5 0.3 0.5
v 0.3 0.3 0.5
v 0.5 0.3 0.5
v -1 0.3 0.4
v -0.9 0.3 0.4
v -0.8 0.3 0.4
v 0.5 0.3 0.4
v 0.6 0.3 0.4
v 0.7 0.3 0.4
v -0.7 0.3 0.3
v -0.5 0.3 0.3
v 0.3 0.3 0.3
v 0.5 0.3 0.3
v 0.6 0.3 0.3
v 0.7 0.3 0.3
v -1 0.3 0.1
v -0.9 0.3 0.1
v -0.7 0.3 -0.1
v -0.5 0.3 -0.1
v 0.3 0.3 -0.1
v 0.5 0.3 -0.1
v -1 0.3 -0.2
v -0.9 0.3 -0.2
v -0.8 0.3 -0.2
v 0.5 0.3 -0.2
v 0.6 0.3 -0.2
v 0.7 0.3 -0.2
v -0.9 0.3 -0.3
v -0.8 0.3 -0.3
v -0.7 0.3 -0.3
v -0.6 0.3 -0.3
v -0.5 0.3 -0.3
v 0.3 0.3 -0.3
v 0.5 0.3 -0.3
v -0.9 0.3 -0.4
v -0.8 0.3 -0.4
v 0.2 0.3 -0.4
v 0.5 0.3 -0.4
v 0.6 0.3 -0.4
v -0.8 0.3 -0.5
v -0.6 0.3 -0.5
v -0.4 0.3 -0.5
v 0.1 0.3 -0.5
v 0.2 0.3 -0.5
v 0.3 0.3 -0.5
v 0.5 0.3 -0.5
v -0.6 0.3 -0.6
v -0.4 0.3 -0.6
v -0.3 0.3 -0.6
v 0 0.3 -0.6
v 0.1 0.3 -0.6
v 0.2 0.3 -0.6
v 0.3 0.3 -0.6
v -0.4 0.3 -0.7
v -0.3 0.3 -0.7
v 0 0.3 -0.7
v 0.1 0.3 -0.7
v -0.4 2.5 0.9
v -0.3 2.5 0.9
v 0 2.5 0.9
v 0.1 2.5 0.9
v -0.6 2.5 0.8
v -0.4 2.5 0.8
v -0.3 2.5 0.8
v 0 2.5 0.8
v 0.1 2.5 0.8
v 0.3 2.5 0.8
v -0.8 2.5 0.7
v -0.6 2.5 0.7
v -0.4 2.5 0.7
v 0.3 2.5 0.7
v 0.5 2.5 0.7
v -0.9 2.5 0.6
v -0.8 2.5 0.6
v -0.6 2.5 0.6
v 0.1 2.5 0.6
v 0.5 2.5 0.6
v 0.6 2.5 0.6
v -1 2.5 0.4
v -0.9 2.5 0.4
v -0.8 2.5 0.4
v 0.5 2.5 0.4
v 0.6 2.5 0.4
v 0.7 2.5 0.4
v 0.6 2.5 0.3
v 0.7 2.5 0.3
v -1 2.5 0.1
v -0.9 2.5 0.1
v -1 2.5 -0.2
v -0.9 2.5 -0.2
v -0.8 2.5 -0.2
v 0.5 2.5 -0.2
v 0.6 2.5 -0.2
v 0.7 2.5 -0.2
v -0.9 2.5 -0.3
v -0.8 2.5 -0.3
v -0.6 2.5 -0.3
v -0.9 2.5 -0.4
v -0.8 2.5 -0.4
v 0.2 2.5 -0.4
v 0.5 2.5 -0.4
v 0.6 2.5 -0.4
v -0.8 2.5 -0.5
v -0.6 2.5 -0.5
v -0.4 2.5 -0.5
v 0.1 2.5 -0.5
v 0.2 2.5 -0.5
v 0.3 2.5 -0.5
v 0.5 2.5 -0.5
v -0.6 2.5 -0.6
v -0.4 2.5 -0.6
v -0.3 2.5 -0.6
v 0 2.5 -0.6
v 0.1 2.5 -0.6
v 0.2 2.5 -0.6
v 0.3 2.5 -0.6
v -0.4 2.5 -0.7
v -0.3 2.5 -0.7
v 0 2.5 -0.7
v 0.1 2.5 -0.7

# faces
f 4/2/1 2/2/1 1/2/1
f 5/1/1 3/1/1 2/1/1
f 5/2/1 2/2/1 4/2/1
f 6/1/1 3/1/1 5/1/1
f 7/3/1 5/3/1 4/3/1
f 7/3/1 6/3/1 5/3/1
f 8/3/1 6/3/1 7/3/1
f 9/3/1 6/3/1 8/3/1
f 10/2/1 8/2/1 7/2/1
f 11/1/1 9/1/1 8/1/1
f 11/2/1 8/2/1 10/2/1
f 12/1/1 9/1/1 11/1/1
f 13/3/1 11/3/1 10/3/1
f 13/3/1 12/3/1 11/3/1
f 14/3/1 12/3/1 13/3/1
f 15/3/1 12/3/1 14/3/1
f 16/2/1 14/2/1 13/2/1
f 17/1/1 15/1/1 14/1/1
f 17/2/1 14/2/1 16/2/1
f 18/1/1 15/1/1 17/1/1
f 19/3/1 17/3/1 16/3/1
f 19/3/1 18/3/1 17/3/1
f 20/3/1 18/3/1 19/3/1
f 21/3/1 18/3/1 20/3/1
f 22/2/1 20/2/1 19/2/1
f 23/1/1 21/1/1 20/1/1
f 23/2/1 20/2/1 22/2/1
f 24/1/1 21/1/1 23/1/1
f 30/2/1 26/2/1 25/2/1
f 31/2/1 26/2/1 30/2/1
f 32/2/1 28/2/1 27/2/1
f 33/1/1 29/1/1 28/1/1
f 33/2/1 28/2/1 32/2/1
f 34/1/1 29/1/1 33/1/1
f 35/3/1 31/3/1 30/3/1
f 36/3/1 31/3/1 35/3/1
f 37/3/1 33/3/1 32/3/1
f 37/3/1 34/3/1 33/3/1
f 38/3/1 34/3/1 37/3/1
f 39/3/1 34/3/1 38/3/1
f 40/2/1 36/2/1 35/2/1
f 41/2/1 36/2/1 40/2/1
f 42/2/1 38/2/1 37/2/1
f 43/1/1 39/1/1 38/1/1
f 43/2/1 38/2/1 42/2/1
f 44/1/1 39/1/1 43/1/1
f 45/3/1 41/3/1 40/3/1
f 46/3/1 41/3/1 45/3/1
f 47/3/1 43/3/1 42/3/1
f 47/3/1 44/3/1 43/3/1
f 48/3/1 44/3/1 47/3/1
f 49/3/1 44/3/1 48/3/1
f 50/2/1 46/2/1 45/2/1
f 51/2/1 46/2/1 50/2/1
f 52/2/1 48/2/1 47/2/1
f 53/1/1 49/1/1 48/1/1
f 53/2/1 48/2/1 52/2/1
f 54/1/1 49/1/1 53/1/1
f 55/3/1 51/3/1 50/3/1
f 56/3/1 51/3/1 55/3/1
f 57/3/1 53/3/1 52/3/1
f 57/3/1 54/3/1 53/3/1
f 58/3/1 54/3/1 57/3/1
f 59/3/1 54/3/1 58/3/1
f 60/2/1 56/2/1 55/2/1
f 61/2/1 56/2/1 60/2/1
f 62/2/1 58/2/1 57/2/1
f 63/1/1 59/1/1 58/1/1
f 63/2/1 58/2/1 62/2/1
f 64/1/1 59/1/1 63/1/1
f 69/2/1 66/2/1 65/2/1
f 70/2/1 66/2/1 69/2/1
f 71/1/1 68/1/1 67/1/1
f 72/1/1 68/1/1 71/1/1
f 73/3/1 70/3/1 69/3/1
f 74/3/1 70/3/1 73/3/1
f 75/3/1 72/3/1 71/3/1
f 76/3/1 72/3/1 75/3/1
f 77/2/1 74/2/1 73/2/1
f 78/2/1 74/2/1 77/2/1
f 79/1/1 76/1/1 75/1/1
f 80/1/1 76/1/1 79/1/1
f 81/3/1 78/3/1 77/3/1
f 82/3/1 78/3/1 81/3/1
f 83/3/1 80/3/1 79/3/1
f 84/3/1 80/3/1 83/3/1
f 85/2/1 82/2/1 81/2/1
f 86/2/1 82/2/1 85/2/1
f 87/1/1 84/1/1 83/1/1
f 88/1/1 84/1/1 87/1/1
f 89/3/1 86/3/1 85/3/1
f 90/3/1 86/3/1 89/3/1
f 91/3/1 88/3/1 87/3/1
f 92/3/1 88/3/1 91/3/1
f 93/2/1 90/2/1 89/2/1
f 94/2/1 90/2/1 93/2/1
f 95/1/1 92/1/1 91/1/1
f 96/1/1 92/1/1 95/1/1
f 101/4/1 98/4/1 97/4/1
f 102/4/1 98/4/1 101/4/1
f 103/4/1 100/4/1 99/4/1
f 104/4/1 100/4/1 103/4/1
f 105/5/1 102/5/1 101/5/1
f 106/5/1 102/5/1 105/5/1
f 107/5/1 104/5/1 103/5/1
f 108/5/1 104/5/1 107/5/1
f 113/2/1 110/2/1 109/2/1
f 114/2/1 110/2/1 113/2/1
f 115/2/1 112/2/1 111/2/1
f 116/2/1 112/2/1 115/2/1
f 117/3/1 114/3/1 113/3/1
f 118/3/1 114/3/1 117/3/1
f 119/3/1 116/3/1 115/3/1
f 120/3/1 116/3/1 119/3/1
f 121/2/1 118/2/1 117/2/1
f 122/2/1 118/2/1 121/2/1
f 123/2/1 120/2/1 119/2/1
f 124/2/1 120/2/1 123/2/1
f 125/3/1 122/3/1 121/3/1
f 126/3/1 122/3/1 125/3/1
f 127/3/1 124/3/1 123/3/1
f 128/3/1 124/3/1 127/3/1
f 129/2/1 126/2/1 125/2/1
f 130/2/1 126/2/1 129/2/1
f 131/2/1 128/2/1 127/2/1
f 132/2/1 128/2/1 131/2/1
f 133/3/1 130/3/1 129/3/1
f 134/3/1 130/3/1 133/3/1
f 135/3/1 132/3/1 131/3/1
f 136/3/1 132/3/1 135/3/1
f 137/2/1 134/2/1 133/2/1
f 138/2/1 134/2/1 137/2/1
f 139/2/1 136/2/1 135/2/1
f 140/2/1 136/2/1 139/2/1
f 145/1/1 142/1/1 141/1/1
f 146/1/1 142/1/1 145/1/1
f 147/1/1 144/1/1 143/1/1
f 148/1/1 144/1/1 147/1/1
f 149/3/1 146/3/1 145/3/1
f 150/3/1 146/3/1 149/3/1
f 151/3/1 148/3/1 147/3/1
f 152/3/1 148/3/1 151/3/1
f 153/1/1 150/1/1 149/1/1
f 154/1/1 150/1/1 153/1/1
f 155/1/1 152/1/1 151/1/1
f 156/1/1 152/1/1 155/1/1
f 157/3/1 154/3/1 153/3/1
f 158/3/1 154/3/1 157/3/1
f 159/3/1 156/3/1 155/3/1
f 160/3/1 156/3/1 159/3/1
f 161/1/1 158/1/1 157/1/1
f 162/1/1 158/1/1 161/1/1
f 163/1/1 160/1/1 159/1/1
f 164/1/1 160/1/1 163/1/1
f 165/3/1 162/3/1 161/3/1
f 166/3/1 162/3/1 165/3/1
f 167/3/1 164/3/1 163/3/1
f 168/3/1 164/3/1 167/3/1
f 169/1/1 166/1/1 165/1/1
f 170/1/1 166/1/1 169/1/1
f 171/1/1 168/1/1 167/1/1
f 172/1/1 168/1/1 171/1/1
f 177/4/1 174/4/1 173/4/1
f 178/4/1 174/4/1 177/4/1
f 179/4/1 176/4/1 175/4/1
f 180/4/1 176/4/1 179/4/1
f 181/5/1 178/5/1 177/5/1
f 182/5/1 178/5/1 181/5/1
f 183/5/1 180/5/1 179/5/1
f 184/5/1 180/5/1 183/5/1
f 185/4/2 186/4/2 189/4/2
f 189/4/2 186/4/2 190/4/2
f 187/4/2 188/4/2 191/4/2
f 191/4/2 188/4/2 192/4/2
f 189/5/2 190/5/2 193/5/2
f 193/5/2 190/5/2 194/5/2
f 191/5/2 192/5/2 195/5/2
f 195/5/2 192/5/2 196/5/2
f 197/2/2 198/2/2 201/2/2
f 201/2/2 198/2/2 202/2/2
f 199/2/2 200/2/2 203/2/2
f 203/2/2 200/2/2 204/2/2
f 201/3/2 202/3/2 205/3/2
f 205/3/2 202/3/2 206/3/2
f 203/3/2 204/3/2 207/3/2
f 207/3/2 204/3/2 208/3/2
f 205/2/2 206/2/2 209/2/2
f 209/2/2 206/2/2 210/2/2
f 207/2/2 208/2/2 211/2/2
f 211/2/2 208/2/2 212/2/2
f 209/3/2 210/3/2 213/3/2
f 213/3/2 210/3/2 214/3/2
f 211/3/2 212/3/2 215/3/2
f 215/3/2 212/3/2 216/3/2
f 213/2/2 214/2/2 217/2/2
f 217/2/2 214/2/2 218/2/2
f 215/2/2 216/2/2 219/2/2
f 219/2/2 216/2/2 220/2/2
f 217/3/2 218/3/2 221/3/2
f 221/3/2 218/3/2 222/3/2
f 219/3/2 220/3/2 223/3/2
f 223/3/2 220/3/2 224/3/2
f 221/2/2 222/2/2 225/2/2
f 225/2/2 222/2/2 226/2/2
f 223/2/2 224/2/2 227/2/2
f 227/2/2 224/2/2 228/2/2
f 229/1/2 230/1/2 233/1/2
f 233/1/2 230/1/2 234/1/2
f 231/1/2 232/1/2 235/1/2
f 235/1/2 232/1/2 236/1/2
f 233/3/2 234/3/2 237/3/2
f 237/3/2 234/3/2 238/3/2
f 235/3/2 236/3/2 239/3/2
f 239/3/2 236/3/2 240/3/2
f 237/1/2 238/1/2 241/1/2
f 241/1/2 238/1/2 242/1/2
f 239/1/2 240/1/2 243/1/2
f 243/1/2 240/1/2 244/1/2
f 241/3/2 242/3/2 245/3/2
f 245/3/2 242/3/2 246/3/2
f 243/3/2 244/3/2 247/3/2
f 247/3/2 244/3/2 248/3/2
f 245/1/2 246/1/2 249/1/2
f 249/1/2 246/1/2 250/1/2
f 247/1/2 248/1/2 251/1/2
f 251/1/2 248/1/2 252/1/2
f 249/3/2 250/3/2 253/3/2
f 253/3/2 250/3/2 254/3/2
f 251/3/2 252/3/2 255/3/2
f 255/3/2 252/3/2 256/3/2
f 253/1/2 254/1/2 257/1/2
f 257/1/2 254/1/2 258/1/2
f 255/1/2 256/1/2 259/1/2
f 259/1/2 256/1/2 260/1/2
f 261/4/2 262/4/2 265/4/2
f 265/4/2 262/4/2 266/4/2
f 263/4/2 264/4/2 267/4/2
f 267/4/2 264/4/2 268/4/2
f 265/5/2 266/5/2 271/5/2
f 271/5/2 266/5/2 272/5/2
f 272/5/2 266/5/2 273/5/2
f 267/5/2 268/5/2 274/5/2
f 274/5/2 268/5/2 275/5/2
f 275/5/2 268/5/2 276/5/2
f 269/1/2 270/1/2 279/1/2
f 279/1/2 270/1/2 280/1/2
f 277/1/2 278/1/2 281/1/2
f 281/1/2 278/1/2 282/1/2
f 279/3/2 280/3/2 283/3/2
f 283/3/2 280/3/2 284/3/2
f 281/3/2 282/3/2 285/3/2
f 285/3/2 282/3/2 286/3/2
f 283/1/2 284/1/2 287/1/2
f 287/1/2 284/1/2 288/1/2
f 285/1/2 286/1/2 289/1/2
f 289/1/2 286/1/2 290/1/2
f 287/3/2 288/3/2 291/3/2
f 291/3/2 288/3/2 292/3/2
f 289/3/2 290/3/2 293/3/2
f 293/3/2 290/3/2 294/3/2
f 291/1/2 292/1/2 295/1/2
f 295/1/2 292/1/2 296/1/2
f 293/1/2 294/1/2 297/1/2
f 297/1/2 294/1/2 298/1/2
f 295/3/2 296/3/2 299/3/2
f 299/3/2 296/3/2 300/3/2
f 297/3/2 298/3/2 301/3/2
f 301/3/2 298/3/2 302/3/2
f 299/1/2 300/1/2 303/1/2
f 303/1/2 300/1/2 304/1/2
f 301/1/2 302/1/2 305/1/2
f 305/1/2 302/1/2 306/1/2
f 307/2/2 308/2/2 311/2/2
f 311/2/2 308/2/2 312/2/2
f 309/2/2 310/2/2 313/2/2
f 313/2/2 310/2/2 314/2/2
f 311/3/2 312/3/2 315/3/2
f 315/3/2 312/3/2 316/3/2
f 313/3/2 314/3/2 317/3/2
f 317/3/2 314/3/2 318/3/2
f 315/2/2 316/2/2 319/2/2
f 319/2/2 316/2/2 320/2/2
f 317/2/2 318/2/2 321/2/2
f 321/2/2 318/2/2 322/2/2
f 319/3/2 320/3/2 323/3/2
f 323/3/2 320/3/2 324/3/2
f 321/3/2 322/3/2 325/3/2
f 325/3/2 322/3/2 326/3/2
f 323/2/2 324/2/2 327/2/2
f 327/2/2 324/2/2 328/2/2
f 325/2/2 326/2/2 329/2/2
f 329/2/2 326/2/2 330/2/2
f 327/3/2 328/3/2 331/3/2
f 331/3/2 328/3/2 332/3/2
f 329/3/2 330/3/2 333/3/2
f 333/3/2 330/3/2 334/3/2
f 331/2/2 332/2/2 335/2/2
f 335/2/2 332/2/2 336/2/2
f 333/2/2 334/2/2 337/2/2
f 337/2/2 334/2/2 338/2/2
f 339/2/2 340/2/2 342/2/2
f 340/1/2 341/1/2 343/1/2
f 342/2/2 340/2/2 343/2/2
f 343/1/2 341/1/2 344/1/2
f 342/3/2 343/3/2 345/3/2
f 343/3/2 344/3/2 345/3/2
f 345/3/2 344/3/2 346/3/2
f 346/3/2 344/3/2 347/3/2
f 345/2/2 346/2/2 348/2/2
f 346/1/2 347/1/2 349/1/2
f 348/2/2 346/2/2 349/2/2
f 349/1/2 347/1/2 350/1/2
f 348/3/2 349/3/2 351/3/2
f 349/3/2 350/3/2 351/3/2
f 351/3/2 350/3/2 352/3/2
f 352/3/2 350/3/2 353/3/2
f 351/2/2 352/2/2 354/2/2
f 352/1/2 353/1/2 355/1/2
f 354/2/2 352/2/2 355/2/2
f 355/1/2 353/1/2 356/1/2
f 354/3/2 355/3/2 357/3/2
f 355/3/2 356/3/2 357/3/2
f 357/3/2 356/3/2 358/3/2
f 358/3/2 356/3/2 359/3/2
f 357/2/2 358/2/2 360/2/2
f 358/1/2 359/1/2 361/1/2
f 360/2/2 358/2/2 361/2/2
f 361/1/2 359/1/2 362/1/2
f 371/1/3 364/1/3 363/1/3
f 372/3/3 365/3/3 364/3/3
f 372/1/3 364/1/3 371/1/3
f 373/1/3 366/1/3 365/1/3
f 373/3/3 365/3/3 372/3/3
f 374/3/3 367/3/3 366/3/3
f 374/1/3 366/1/3 373/1/3
f 375/3/3 367/3/3 374/3/3
f 376/3/3 367/3/3 375/3/3
f 377/3/3 367/3/3 376/3/3
f 378/3/3 367/3/3 377/3/3
f 379/1/3 368/1/3 367/1/3
f 379/3/3 367/3/3 378/3/3
f 380/3/3 369/3/3 368/3/3
f 380/1/3 368/1/3 379/1/3
f 381/1/3 370/1/3 369/1/3
f 381/3/3 369/3/3 380/3/3
f 382/1/3 370/1/3 381/1/3
f 383/5/3 375/5/3 374/5/3
f 383/4/3 376/4/3 375/4/3
f 384/5/3 377/5/3 376/5/3
f 384/4/3 376/4/3 383/4/3
f 385/5/3 377/5/3 384/5/3
f 386/4/3 378/4/3 377/4/3
f 386/5/3 377/5/3 385/5/3
f 387/5/3 379/5/3 378/5/3
f 387/4/3 378/4/3 386/4/3
f 388/5/3 385/5/3 384/5/3
f 388/5/3 383/5/3 374/5/3
f 388/5/3 384/5/3 383/5/3
f 389/5/3 385/5/3 388/5/3
f 390/5/3 385/5/3 389/5/3
f 391/4/3 386/4/3 385/4/3
f 391/5/3 385/5/3 390/5/3
f 392/5/3 387/5/3 386/5/3
f 393/5/3 379/5/3 387/5/3
f 393/5/3 387/5/3 392/5/3
f 394/4/3 372/4/3 371/4/3
f 395/5/3 373/5/3 372/5/3
f 395/4/3 372/4/3 394/4/3
f 396/4/3 374/4/3 373/4/3
f 396/5/3 373/5/3 395/5/3
f 397/5/3 388/5/3 374/5/3
f 397/4/3 374/4/3 396/4/3
f 398/4/3 389/4/3 388/4/3
f 398/5/3 388/5/3 397/5/3
f 399/5/3 390/5/3 389/5/3
f 399/4/3 389/4/3 398/4/3
f 400/4/3 391/4/3 390/4/3
f 400/5/3 390/5/3 399/5/3
f 401/5/3 392/5/3 386/5/3
f 401/4/3 391/4/3 400/4/3
f 401/4/3 386/4/3 391/4/3
f 402/4/3 393/4/3 392/4/3
f 402/5/3 392/5/3 401/5/3
f 403/5/3 379/5/3 393/5/3
f 403/4/3 393/4/3 402/4/3
f 404/4/3 380/4/3 379/4/3
f 404/5/3 379/5/3 403/5/3
f 405/5/3 381/5/3 380/5/3
f 405/4/3 380/4/3 404/4/3
f 406/4/3 382/4/3 381/4/3
f 406/5/3 381/5/3 405/5/3
f 407/4/3 382/4/3 406/4/3
f 408/2/3 395/2/3 394/2/3
f 409/3/3 396/3/3 395/3/3
f 409/2/3 395/2/3 408/2/3
f 410/2/3 397/2/3 396/2/3
f 410/3/3 396/3/3 409/3/3
f 411/3/3 403/3/3 402/3/3
f 411/2/3 397/2/3 410/2/3
f 411/3/3 402/3/3 401/3/3
f 411/3/3 400/3/3 399/3/3
f 411/3/3 398/3/3 397/3/3
f 411/3/3 399/3/3 398/3/3
f 411/3/3 401/3/3 400/3/3
f 411/3/3 404/3/3 403/3/3
f 412/2/3 405/2/3 404/2/3
f 412/3/3 404/3/3 411/3/3
f 413/3/3 406/3/3 405/3/3
f 413/2/3 405/2/3 412/2/3
f 414/2/3 407/2/3 406/2/3
f 414/3/3 406/3/3 413/3/3
f 415/2/3 407/2/3 414/2/3
f 424/2/3 417/2/3 416/2/3
f 425/3/3 418/3/3 417/3/3
f 425/2/3 417/2/3 424/2/3
f 426/2/3 419/2/3 418/2/3
f 426/3/3 418/3/3 425/3/3
f 427/3/3 420/3/3 419/3/3
f 427/2/3 419/2/3 426/2/3
f 428/2/3 421/2/3 420/2/3
f 428/3/3 420/3/3 427/3/3
f 429/3/3 422/3/3 421/3/3
f 429/2/3 421/2/3 428/2/3
f 430/2/3 423/2/3 422/2/3
f 430/3/3 422/3/3 429/3/3
f 431/2/3 423/2/3 430/2/3
f 440/1/3 433/1/3 432/1/3
f 441/3/3 434/3/3 433/3/3
f 441/1/3 433/1/3 440/1/3
f 442/1/3 435/1/3 434/1/3
f 442/3/3 434/3/3 441/3/3
f 443/3/3 436/3/3 435/3/3
f 443/1/3 435/1/3 442/1/3
f 444/1/3 437/1/3 436/1/3
f 444/3/3 436/3/3 443/3/3
f 445/3/3 438/3/3 437/3/3
f 445/1/3 437/1/3 444/1/3
f 446/1/3 439/1/3 438/1/3
f 446/3/3 438/3/3 445/3/3
f 447/1/3 439/1/3 446/1/3
f 456/2/3 449/2/3 448/2/3
f 457/3/3 450/3/3 449/3/3
f 457/2/3 449/2/3 456/2/3
f 458/2/3 451/2/3 450/2/3
f 458/3/3 450/3/3 457/3/3
f 459/3/3 452/3/3 451/3/3
f 459/2/3 451/2/3 458/2/3
f 460/2/3 453/2/3 452/2/3
f 460/3/3 452/3/3 459/3/3
f 461/3/3 454/3/3 453/3/3
f 461/2/3 453/2/3 460/2/3
f 462/2/3 455/2/3 454/2/3
f 462/3/3 454/3/3 461/3/3
f 463/2/3 455/2/3 462/2/3
f 472/1/3 465/1/3 464/1/3
f 473/3/3 466/3/3 465/3/3
f 473/1/3 465/1/3 472/1/3
f 474/1/3 467/1/3 466/1/3
f 474/3/3 466/3/3 473/3/3
f 475/3/3 468/3/3 467/3/3
f 475/1/3 467/1/3 474/1/3
f 476/1/3 469/1/3 468/1/3
f 476/3/3 468/3/3 475/3/3
f 477/3/3 470/3/3 469/3/3
f 477/1/3 469/1/3 476/1/3
f 478/1/3 471/1/3 470/1/3
f 478/3/3 470/3/3 477/3/3
f 479/1/3 471/1/3 478/1/3
f 488/2/3 481/2/3 480/2/3
f 489/3/3 482/3/3 481/3/3
f 489/2/3 481/2/3 488/2/3
f 490/2/3 483/2/3 482/2/3
f 490/3/3 482/3/3 489/3/3
f 491/3/3 484/3/3 483/3/3
f 491/2/3 483/2/3 490/2/3
f 492/2/3 485/2/3 484/2/3
f 492/3/3 484/3/3 491/3/3
f 493/3/3 486/3/3 485/3/3
f 493/2/3 485/2/3 492/2/3
f 494/2/3 487/2/3 486/2/3
f 494/3/3 486/3/3 493/3/3
f 495/2/3 487/2/3 494/2/3
f 504/2/3 497/2/3 496/2/3
f 505/3/3 498/3/3 497/3/3
f 505/2/3 497/2/3 504/2/3
f 506/2/3 499/2/3 498/2/3
f 506/3/3 498/3/3 505/3/3
f 507/3/3 500/3/3 499/3/3
f 507/2/3 499/2/3 506/2/3
f 508/2/3 501/2/3 500/2/3
f 508/3/3 500/3/3 507/3/3
f 509/3/3 502/3/3 501/3/3
f 509/2/3 501/2/3 508/2/3
f 510/2/3 503/2/3 502/2/3
f 510/3/3 502/3/3 509/3/3
f 511/2/3 503/2/3 510/2/3
f 515/4/3 513/4/3 512/4/3
f 516/5/3 514/5/3 513/5/3
f 516/4/3 513/4/3 515/4/3
f 517/5/3 514/5/3 516/5/3
f 521/4/3 519/4/3 518/4/3
f 522/5/3 520/5/3 519/5/3
f 522/4/3 519/4/3 521/4/3
f 523/5/3 520/5/3 522/5/3
f 532/2/3 525/2/3 524/2/3
f 533/3/3 526/3/3 525/3/3
f 533/2/3 525/2/3 532/2/3
f 534/2/3 527/2/3 526/2/3
f 534/3/3 526/3/3 533/3/3
f 535/3/3 528/3/3 527/3/3
f 535/2/3 527/2/3 534/2/3
f 536/2/3 529/2/3 528/2/3
f 536/3/3 528/3/3 535/3/3
f 537/3/3 530/3/3 529/3/3
f 537/2/3 529/2/3 536/2/3
f 538/2/3 531/2/3 530/2/3
f 538/3/3 530/3/3 537/3/3
f 539/2/3 531/2/3 538/2/3
f 548/2/3 541/2/3 540/2/3
f 549/3/3 542/3/3 541/3/3
f 549/2/3 541/2/3 548/2/3
f 550/2/3 543/2/3 542/2/3
f 550/3/3 542/3/3 549/3/3
f 551/3/3 544/3/3 543/3/3
f 551/2/3 543/2/3 550/2/3
f 552/2/3 545/2/3 544/2/3
f 552/3/3 544/3/3 551/3/3
f 553/3/3 546/3/3 545/3/3
f 553/2/3 545/2/3 552/2/3
f 554/2/3 547/2/3 546/2/3
f 554/3/3 546/3/3 553/3/3
f 555/2/3 547/2/3 554/2/3
f 559/4/3 557/4/3 556/4/3
f 560/5/3 558/5/3 557/5/3
f 560/4/3 557/4/3 559/4/3
f 561/5/3 558/5/3 560/5/3
f 565/4/3 563/4/3 562/4/3
f 566/5/3 564/5/3 563/5/3
f 566/4/3 563/4/3 565/4/3
f 567/5/3 564/5/3 566/5/3
f 568/4/4 569/4/4 571/4/4
f 569/5/4 570/5/4 572/5/4
f 571/4/4 569/4/4 572/4/4
f 572/5/4 570/5/4 573/5/4
f 574/4/4 575/4/4 577/4/4
f 575/5/4 576/5/4 578/5/4
f 577/4/4 575/4/4 578/4/4
f 578/5/4 576/5/4 579/5/4
f 580/1/4 581/1/4 588/1/4
f 581/3/4 582/3/4 589/3/4
f 588/1/4 581/1/4 589/1/4
f 582/1/4 583/1/4 590/1/4
f 589/3/4 582/3/4 590/3/4
f 583/3/4 584/3/4 591/3/4
f 590/1/4 583/1/4 591/1/4
f 584/1/4 585/1/4 592/1/4
f 591/3/4 584/3/4 592/3/4
f 585/3/4 586/3/4 593/3/4
f 592/1/4 585/1/4 593/1/4
f 586/1/4 587/1/4 594/1/4
f 593/3/4 586/3/4 594/3/4
f 594/1/4 587/1/4 595/1/4
f 596/1/4 597/1/4 604/1/4
f 597/3/4 598/3/4 605/3/4
f 604/1/4 597/1/4 605/1/4
f 598/1/4 599/1/4 606/1/4
f 605/3/4 598/3/4 606/3/4
f 599/3/4 600/3/4 607/3/4
f 606/1/4 599/1/4 607/1/4
f 600/1/4 601/1/4 608/1/4
f 607/3/4 600/3/4 608/3/4
f 601/3/4 602/3/4 609/3/4
f 608/1/4 601/1/4 609/1/4
f 602/1/4 603/1/4 610/1/4
f 609/3/4 602/3/4 610/3/4
f 610/1/4 603/1/4 611/1/4
f 613/5/4 614/5/4 615/5/4
f 612/4/4 613/4/4 616/4/4
f 613/5/4 615/5/4 617/5/4
f 616/4/4 613/4/4 617/4/4
f 617/5/4 615/5/4 618/5/4
f 619/4/4 620/4/4 622/4/4
f 620/5/4 621/5/4 623/5/4
f 622/4/4 620/4/4 623/4/4
f 623/5/4 621/5/4 624/5/4
f 625/1/4 626/1/4 633/1/4
f 626/3/4 627/3/4 634/3/4
f 633/1/4 626/1/4 634/1/4
f 627/1/4 628/1/4 635/1/4
f 634/3/4 627/3/4 635/3/4
f 628/3/4 629/3/4 636/3/4
f 635/1/4 628/1/4 636/1/4
f 629/1/4 630/1/4 637/1/4
f 636/3/4 629/3/4 637/3/4
f 630/3/4 631/3/4 638/3/4
f 637/1/4 630/1/4 638/1/4
f 631/1/4 632/1/4 639/1/4
f 638/3/4 631/3/4 639/3/4
f 639/1/4 632/1/4 640/1/4
f 641/2/4 642/2/4 649/2/4
f 642/3/4 643/3/4 650/3/4
f 649/2/4 642/2/4 650/2/4
f 643/2/4 644/2/4 651/2/4
f 650/3/4 643/3/4 651/3/4
f 644/3/4 645/3/4 652/3/4
f 651/2/4 644/2/4 652/2/4
f 645/2/4 646/2/4 653/2/4
f 652/3/4 645/3/4 653/3/4
f 646/3/4 647/3/4 654/3/4
f 653/2/4 646/2/4 654/2/4
f 647/2/4 648/2/4 655/2/4
f 654/3/4 647/3/4 655/3/4
f 655/2/4 648/2/4 656/2/4
f 657/1/4 658/1/4 665/1/4
f 658/3/4 659/3/4 666/3/4
f 665/1/4 658/1/4 666/1/4
f 659/1/4 660/1/4 667/1/4
f 666/3/4 659/3/4 667/3/4
f 660/3/4 661/3/4 668/3/4
f 667/1/4 660/1/4 668/1/4
f 661/1/4 662/1/4 669/1/4
f 668/3/4 661/3/4 669/3/4
f 662/3/4 663/3/4 670/3/4
f 669/1/4 662/1/4 670/1/4
f 663/1/4 664/1/4 671/1/4
f 670/3/4 663/3/4 671/3/4
f 671/1/4 664/1/4 672/1/4
f 673/1/4 674/1/4 681/1/4
f 674/3/4 675/3/4 682/3/4
f 681/1/4 674/1/4 682/1/4
f 675/1/4 676/1/4 683/1/4
f 682/3/4 675/3/4 683/3/4
f 676/3/4 677/3/4 684/3/4
f 683/1/4 676/1/4 684/1/4
f 677/1/4 678/1/4 685/1/4
f 684/3/4 677/3/4 685/3/4
f 678/3/4 679/3/4 686/3/4
f 685/1/4 678/1/4 686/1/4
f 679/1/4 680/1/4 687/1/4
f 686/3/4 679/3/4 687/3/4
f 687/1/4 680/1/4 688/1/4
f 689/2/4 690/2/4 697/2/4
f 690/3/4 691/3/4 698/3/4
f 697/2/4 690/2/4 698/2/4
f 691/2/4 692/2/4 699/2/4
f 698/3/4 691/3/4 699/3/4
f 692/3/4 693/3/4 700/3/4
f 699/2/4 692/2/4 700/2/4
f 693/2/4 694/2/4 701/2/4
f 700/3/4 693/3/4 701/3/4
f 694/3/4 695/3/4 702/3/4
f 701/2/4 694/2/4 702/2/4
f 695/2/4 696/2/4 703/2/4
f 702/3/4 695/3/4 703/3/4
f 703/2/4 696/2/4 704/2/4
f 705/2/4 706/2/4 713/2/4
f 706/3/4 707/3/4 714/3/4
f 713/2/4 706/2/4 714/2/4
f 707/2/4 708/2/4 715/2/4
f 714/3/4 707/3/4 715/3/4
f 708/3/4 709/3/4 716/3/4
f 715/2/4 708/2/4 716/2/4
f 709/2/4 710/2/4 717/2/4
f 716/3/4 709/3/4 717/3/4
f 710/3/4 711/3/4 718/3/4
f 717/2/4 710/2/4 718/2/4
f 711/2/4 712/2/4 719/2/4
f 718/3/4 711/3/4 719/3/4
f 719/2/4 712/2/4 720/2/4
f 713/1/4 714/1/4 721/1/4
f 714/3/4 715/3/4 722/3/4
f 721/1/4 714/1/4 722/1/4
f 715/1/4 716/1/4 723/1/4
f 722/3/4 715/3/4 723/3/4
f 716/3/4 717/3/4 724/3/4
f 723/1/4 716/1/4 724/1/4
f 717/1/4 718/1/4 725/1/4
f 724/3/4 717/3/4 725/3/4
f 718/3/4 719/3/4 726/3/4
f 725/1/4 718/1/4 726/1/4
f 719/1/4 720/1/4 727/1/4
f 726/3/4 719/3/4 727/3/4
f 727/1/4 720/1/4 728/1/4
f 729/1/4 730/1/4 737/1/4
f 730/3/4 731/3/4 738/3/4
f 737/1/4 730/1/4 738/1/4
f 731/1/4 732/1/4 739/1/4
f 738/3/4 731/3/4 739/3/4
f 732/3/4 733/3/4 740/3/4
f 739/1/4 732/1/4 740/1/4
f 740/3/4 733/3/4 741/3/4
f 741/3/4 733/3/4 742/3/4
f 742/3/4 733/3/4 743/3/4
f 743/3/4 733/3/4 744/3/4
f 744/3/4 733/3/4 745/3/4
f 745/3/4 733/3/4 746/3/4
f 733/1/4 734/1/4 747/1/4
f 746/3/4 733/3/4 747/3/4
f 734/3/4 735/3/4 748/3/4
f 747/1/4 734/1/4 748/1/4
f 735/1/4 736/1/4 749/1/4
f 748/3/4 735/3/4 749/3/4
f 749/1/4 736/1/4 750/1/4
f 740/5/4 741/5/4 751/5/4
f 741/4/4 742/4/4 752/4/4
f 751/5/4 741/5/4 752/5/4
f 743/4/4 744/4/4 753/4/4
f 744/5/4 745/5/4 754/5/4
f 753/4/4 744/4/4 754/4/4
f 754/5/4 745/5/4 755/5/4
f 755/5/4 745/5/4 756/5/4
f 745/4/4 746/4/4 757/4/4
f 756/5/4 745/5/4 757/5/4
f 746/5/4 747/5/4 758/5/4
f 757/4/4 746/4/4 758/4/4
f 740/5/4 751/5/4 759/5/4
f 751/4/4 752/4/4 759/4/4
f 759/4/4 752/4/4 760/4/4
f 743/4/4 753/4/4 761/4/4
f 753/5/4 754/5/4 761/5/4
f 754/5/4 755/5/4 761/5/4
f 761/5/4 755/5/4 762/5/4
f 755/4/4 756/4/4 763/4/4
f 756/5/4 757/5/4 763/5/4
f 757/5/4 758/5/4 763/5/4
f 763/5/4 758/5/4 764/5/4
f 737/4/4 738/4/4 765/4/4
f 738/5/4 739/5/4 766/5/4
f 765/4/4 738/4/4 766/4/4
f 739/4/4 740/4/4 767/4/4
f 766/5/4 739/5/4 767/5/4
f 759/5/4 760/5/4 768/5/4
f 767/4/4 740/4/4 768/4/4
f 740/5/4 759/5/4 768/5/4
f 760/4/4 752/4/4 769/4/4
f 768/5/4 760/5/4 769/5/4
f 742/5/4 743/5/4 770/5/4
f 769/4/4 752/4/4 770/4/4
f 752/4/4 742/4/4 770/4/4
f 761/4/4 762/4/4 771/4/4
f 770/5/4 743/5/4 771/5/4
f 743/4/4 761/4/4 771/4/4
f 762/5/4 755/5/4 772/5/4
f 771/4/4 762/4/4 772/4/4
f 755/4/4 763/4/4 773/4/4
f 772/5/4 755/5/4 773/5/4
f 763/4/4 764/4/4 773/4/4
f 764/5/4 758/5/4 774/5/4
f 773/4/4 764/4/4 774/4/4
f 747/4/4 748/4/4 775/4/4
f 774/5/4 758/5/4 775/5/4
f 758/5/4 747/5/4 775/5/4
f 748/5/4 749/5/4 776/5/4
f 775/4/4 748/4/4 776/4/4
f 749/4/4 750/4/4 777/4/4
f 776/5/4 749/5/4 777/5/4
f 777/4/4 750/4/4 778/4/4
f 765/2/4 766/2/4 779/2/4
f 766/3/4 767/3/4 780/3/4
f 779/2/4 766/2/4 780/2/4
f 767/2/4 768/2/4 781/2/4
f 780/3/4 767/3/4 781/3/4
f 773/3/4 774/3/4 782/3/4
f 781/2/4 768/2/4 782/2/4
f 772/3/4 773/3/4 782/3/4
f 770/3/4 771/3/4 782/3/4
f 769/3/4 770/3/4 782/3/4
f 768/3/4 769/3/4 782/3/4
f 774/3/4 775/3/4 782/3/4
f 771/3/4 772/3/4 782/3/4
f 775/2/4 776/2/4 783/2/4
f 782/3/4 775/3/4 783/3/4
f 776/3/4 777/3/4 784/3/4
f 783/2/4 776/2/4 784/2/4
f 777/2/4 778/2/4 785/2/4
f 784/3/4 777/3/4 785/3/4
f 785/2/4 778/2/4 786/2/4
f 791/4/5 788/4/5 787/4/5
f 792/4/5 788/4/5 791/4/5
f 793/4/5 790/4/5 789/4/5
f 794/4/5 790/4/5 793/4/5
f 799/4/5 796/4/5 795/4/5
f 800/4/5 796/4/5 799/4/5
f 801/4/5 798/4/5 797/4/5
f 802/4/5 798/4/5 801/4/5
f 808/1/5 804/1/5 803/1/5
f 809/4/5 805/4/5 804/4/5
f 809/1/5 804/1/5 808/1/5
f 810/2/5 806/2/5 805/2/5
f 810/4/5 805/4/5 809/4/5
f 811/2/5 806/2/5 810/2/5
f 814/2/5 808/2/5 807/2/5
f 815/6/5 809/6/5 808/6/5
f 815/6/5 810/6/5 809/6/5
f 815/2/5 808/2/5 814/2/5
f 815/6/5 811/6/5 810/6/5
f 816/1/5 812/1/5 811/1/5
f 819/2/5 814/2/5 813/2/5
f 820/6/5 815/6/5 814/6/5
f 820/2/5 814/2/5 819/2/5
f 821/1/5 817/1/5 816/1/5
f 821/6/5 815/6/5 820/6/5
f 821/6/5 811/6/5 815/6/5
f 821/1/5 816/1/5 811/1/5
f 822/1/5 817/1/5 821/1/5
f 824/6/5 820/6/5 819/6/5
f 824/6/5 821/6/5 820/6/5
f 824/6/5 822/6/5 821/6/5
f 825/6/5 822/6/5 824/6/5
f 826/6/5 822/6/5 825/6/5
f 827/2/5 823/2/5 822/2/5
f 827/6/5 822/6/5 826/6/5
f 829/2/5 819/2/5 818/2/5
f 830/6/5 824/6/5 819/6/5
f 830/2/5 819/2/5 829/2/5
f 831/2/5 823/2/5 827/2/5
f 832/2/5 823/2/5 831/2/5
f 834/6/5 824/6/5 830/6/5
f 834/6/5 830/6/5 829/6/5
f 835/6/5 826/6/5 825/6/5
f 836/6/5 826/6/5 835/6/5
f 837/6/5 832/6/5 831/6/5
f 838/2/5 833/2/5 832/2/5
f 838/6/5 832/6/5 837/6/5
f 839/2/5 833/2/5 838/2/5
f 840/2/5 829/2/5 828/2/5
f 841/6/5 834/6/5 829/6/5
f 841/2/5 829/2/5 840/2/5
f 841/6/5 837/6/5 836/6/5
f 841/6/5 836/6/5 835/6/5
f 841/6/5 838/6/5 837/6/5
f 841/6/5 835/6/5 834/6/5
f 842/6/5 838/6/5 841/6/5
f 843/6/5 838/6/5 842/6/5
f 844/6/5 838/6/5 843/6/5
f 845/6/5 838/6/5 844/6/5
f 846/1/5 841/1/5 840/1/5
f 847/6/5 842/6/5 841/6/5
f 847/1/5 841/1/5 846/1/5
f 848/6/5 842/6/5 847/6/5
f 849/6/5 838/6/5 845/6/5
f 850/1/5 839/1/5 838/1/5
f 850/6/5 838/6/5 849/6/5
f 851/1/5 839/1/5 850/1/5
f 852/2/5 848/2/5 847/2/5
f 853/6/5 842/6/5 848/6/5
f 853/2/5 848/2/5 852/2/5
f 854/6/5 842/6/5 853/6/5
f 856/6/5 844/6/5 843/6/5
f 857/6/5 844/6/5 856/6/5
f 858/2/5 850/2/5 849/2/5
f 859/1/5 855/1/5 854/1/5
f 859/1/5 853/1/5 852/1/5
f 859/1/5 854/1/5 853/1/5
f 860/1/5 855/1/5 859/1/5
f 861/6/5 858/6/5 857/6/5
f 861/6/5 857/6/5 856/6/5
f 861/6/5 856/6/5 855/6/5
f 862/2/5 850/2/5 858/2/5
f 862/6/5 858/6/5 861/6/5
f 863/2/5 850/2/5 862/2/5
f 864/1/5 855/1/5 860/1/5
f 865/6/5 861/6/5 855/6/5
f 865/1/5 855/1/5 864/1/5
f 866/6/5 861/6/5 865/6/5
f 867/6/5 861/6/5 866/6/5
f 868/1/5 862/1/5 861/1/5
f 868/6/5 861/6/5 867/6/5
f 869/1/5 862/1/5 868/1/5
f 870/1/5 862/1/5 869/1/5
f 871/2/5 866/2/5 865/2/5
f 872/6/5 867/6/5 866/6/5
f 872/2/5 866/2/5 871/2/5
f 873/6/5 867/6/5 872/6/5
f 874/6/5 867/6/5 873/6/5
f 875/2/5 868/2/5 867/2/5
f 875/6/5 867/6/5 874/6/5
f 876/1/5 869/1/5 868/1/5
f 876/2/5 868/2/5 875/2/5
f 877/1/5 869/1/5 876/1/5
f 878/1/5 873/1/5 872/1/5
f 879/4/5 874/4/5 873/4/5
f 879/1/5 873/1/5 878/1/5
f 880/2/5 875/2/5 874/2/5
f 880/4/5 874/4/5 879/4/5
f 881/2/5 875/2/5 880/2/5
f 882/1/6 883/1/6 887/1/6
f 883/4/6 884/4/6 888/4/6
f 887/1/6 883/1/6 888/1/6
f 884/2/6 885/2/6 889/2/6
f 888/4/6 884/4/6 889/4/6
f 889/2/6 885/2/6 890/2/6
f 886/2/6 887/2/6 893/2/6
f 887/6/6 888/6/6 894/6/6
f 888/6/6 889/6/6 894/6/6
f 893/2/6 887/2/6 894/2/6
f 889/6/6 890/6/6 894/6/6
f 890/1/6 891/1/6 895/1/6
f 892/2/6 893/2/6 898/2/6
f 893/6/6 894/6/6 899/6/6
f 898/2/6 893/2/6 899/2/6
f 895/1/6 896/1/6 900/1/6
f 899/6/6 894/6/6 900/6/6
f 894/6/6 890/6/6 900/6/6
f 890/1/6 895/1/6 900/1/6
f 900/1/6 896/1/6 901/1/6
f 897/2/6 898/2/6 904/2/6
f 898/6/6 899/6/6 905/6/6
f 899/6/6 900/6/6 905/6/6
f 904/2/6 898/2/6 905/2/6
f 900/6/6 901/6/6 905/6/6
f 901/2/6 902/2/6 906/2/6
f 905/6/6 901/6/6 906/6/6
f 906/2/6 902/2/6 907/2/6
f 904/6/6 905/6/6 909/6/6
f 907/2/6 908/2/6 909/2/6
f 906/6/6 907/6/6 909/6/6
f 905/6/6 906/6/6 909/6/6
f 909/2/6 908/2/6 910/2/6
f 903/2/6 904/2/6 911/2/6
f 904/6/6 909/6/6 912/6/6
f 911/2/6 904/2/6 912/2/6
f 911/1/6 912/1/6 913/1/6
f 912/6/6 909/6/6 914/6/6
f 913/1/6 912/1/6 914/1/6
f 914/6/6 909/6/6 915/6/6
f 915/6/6 909/6/6 916/6/6
f 909/1/6 910/1/6 917/1/6
f 916/6/6 909/6/6 917/6/6
f 917/1/6 910/1/6 918/1/6
f 914/2/6 915/2/6 919/2/6
f 915/6/6 916/6/6 920/6/6
f 919/2/6 915/2/6 920/2/6
f 920/6/6 916/6/6 921/6/6
f 919/1/6 920/1/6 922/1/6
f 920/1/6 921/1/6 922/1/6
f 922/1/6 921/1/6 923/1/6
f 921/6/6 916/6/6 924/6/6
f 916/2/6 917/2/6 925/2/6
f 924/6/6 916/6/6 925/6/6
f 925/2/6 917/2/6 926/2/6
f 923/1/6 921/1/6 927/1/6
f 921/6/6 924/6/6 928/6/6
f 927/1/6 921/1/6 928/1/6
f 928/6/6 924/6/6 929/6/6
f 929/6/6 924/6/6 930/6/6
f 924/1/6 925/1/6 931/1/6
f 930/6/6 924/6/6 931/6/6
f 931/1/6 925/1/6 932/1/6
f 932/1/6 925/1/6 933/1/6
f 928/2/6 929/2/6 934/2/6
f 929/6/6 930/6/6 935/6/6
f 934/2/6 929/2/6 935/2/6
f 935/6/6 930/6/6 936/6/6
f 936/6/6 930/6/6 937/6/6
f 930/2/6 931/2/6 938/2/6
f 937/6/6 930/6/6 938/6/6
f 931/1/6 932/1/6 939/1/6
f 938/2/6 931/2/6 939/2/6
f 939/1/6 932/1/6 940/1/6
f 935/1/6 936/1/6 941/1/6
f 936/4/6 937/4/6 942/4/6
f 941/1/6 936/1/6 942/1/6
f 937/2/6 938/2/6 943/2/6
f 942/4/6 937/4/6 943/4/6
f 943/2/6 938/2/6 944/2/6
