# MagicaVoxel @ Ephtracy

# group
o 

# material
mtllib trans_4_1.mtl
usemtl palette

# normals
vn -1 0 0
vn 1 0 0
vn 0 0 1
vn 0 0 -1
vn 0 -1 0
vn 0 1 0

# texcoords
vt 0.958984 0.5
vt 0.970703 0.5
vt 0.986328 0.5
vt 0.990234 0.5

# verts
v -1 0 0
v -1 0 -0.1
v -1 0 -0.2
v -1 0 -0.3
v -1 0 -0.8
v -1 0 -0.9
v -1 0.1 0
v -1 0.1 -0.1
v -1 0.1 -0.2
v -1 0.1 -0.3
v -1 0.1 -0.4
v -1 0.1 -0.5
v -1 0.1 -0.8
v -1 0.1 -0.9
v -1 0.2 0
v -1 0.2 -0.2
v -1 0.2 -0.3
v -1 0.2 -0.4
v -1 0.2 -0.5
v -1 0.2 -0.9
v -1 0.3 0
v -1 0.3 -0.2
v -1 0.3 -0.4
v -1 0.3 -0.9
v -0.9 0.2 0.1
v -0.9 0.2 0
v -0.9 0.2 -0.2
v -0.9 0.2 -0.3
v -0.9 0.2 -0.4
v -0.9 0.3 0.1
v -0.9 0.3 0
v -0.9 0.3 -0.2
v -0.9 0.3 -0.4
v -0.9 0.3 -0.6
v -0.9 0.3 -0.7
v -0.9 0.3 -0.9
v -0.9 0.4 0.1
v -0.9 0.4 0
v -0.9 0.4 -0.2
v -0.9 0.4 -0.4
v -0.9 0.4 -0.6
v -0.9 0.4 -0.7
v -0.9 0.4 -0.9
v -0.9 0 0
v -0.9 0 -0.1
v -0.9 0 -0.2
v -0.9 0 -0.3
v -0.9 0 -0.8
v -0.9 0 -0.9
v -0.9 0.1 0
v -0.9 0.1 -0.1
v -0.9 0.1 -0.2
v -0.9 0.1 -0.3
v -0.9 0.1 -0.4
v -0.9 0.1 -0.5
v -0.9 0.1 -0.8
v -0.9 0.1 -0.9
v -0.9 0.2 -0.2
v -0.9 0.2 -0.3
v -0.9 0.2 -0.4
v -0.9 0.2 -0.5
v -0.9 0.2 -0.8
v -0.9 0.2 -0.9
v -0.9 0.3 -0.8
v -0.9 0.3 -0.9
v -0.8 0.2 -0.7
v -0.8 0.2 -0.8
v -0.8 0.3 0.1
v -0.8 0.3 0
v -0.8 0.3 -0.5
v -0.8 0.3 -0.6
v -0.8 0.3 -0.7
v -0.8 0.3 -0.8
v -0.8 0.3 -0.9
v -0.8 0.4 0.1
v -0.8 0.4 0
v -0.8 0.4 -0.5
v -0.8 0.4 -0.6
v -0.8 0.4 -0.7
v -0.8 0.4 -0.9
v -0.7 0.2 -0.3
v -0.7 0.2 -0.5
v -0.7 0.2 -0.6
v -0.7 0.2 -0.7
v -0.7 0.3 0
v -0.7 0.3 -0.1
v -0.7 0.3 -0.3
v -0.7 0.3 -0.5
v -0.7 0.3 -0.6
v -0.7 0.3 -0.7
v -0.7 0.4 0
v -0.7 0.4 -0.1
v -0.7 0.4 -0.3
v -0.7 0.4 -0.5
v -0.6 0.2 0.1
v -0.6 0.2 0
v -0.6 0.2 -0.2
v -0.6 0.2 -0.3
v -0.6 0.2 -0.5
v -0.6 0.2 -0.6
v -0.6 0.3 0.1
v -0.6 0.3 0
v -0.6 0.3 -0.2
v -0.6 0.3 -0.3
v -0.6 0.3 -0.5
v -0.6 0.3 -0.6
v -0.5 0.2 0
v -0.5 0.2 -0.2
v -0.5 0.3 0
v -0.5 0.3 -0.1
v -0.5 0.3 -0.2
v -0.5 0.3 -0.3
v -0.5 0.4 -0.1
v -0.5 0.4 -0.3
v -0.9 0.2 0.1
v -0.9 0.3 0.1
v -0.9 0.4 0.1
v -0.8 0.3 0.1
v -0.8 0.4 0.1
v -0.6 0.2 0.1
v -0.6 0.3 0.1
v -1 0 0
v -1 0.1 0
v -1 0.2 0
v -1 0.3 0
v -0.9 0 0
v -0.9 0.1 0
v -0.9 0.2 0
v -0.9 0.3 0
v -0.8 0.3 0
v -0.8 0.4 0
v -0.7 0.3 0
v -0.7 0.4 0
v -0.6 0.2 0
v -0.6 0.3 0
v -0.5 0.2 0
v -0.5 0.3 0
v -0.7 0.3 -0.1
v -0.7 0.4 -0.1
v -0.5 0.3 -0.1
v -0.5 0.4 -0.1
v -1 0 -0.2
v -1 0.1 -0.2
v -1 0.2 -0.2
v -0.9 0 -0.2
v -0.9 0.1 -0.2
v -0.9 0.2 -0.2
v -1 0.1 -0.4
v -1 0.2 -0.4
v -1 0.3 -0.4
v -0.9 0.1 -0.4
v -0.9 0.2 -0.4
v -0.9 0.3 -0.4
v -0.7 0.2 -0.5
v -0.7 0.3 -0.5
v -0.6 0.2 -0.5
v -0.6 0.3 -0.5
v -1 0 -0.8
v -1 0.1 -0.8
v -0.9 0 -0.8
v -0.9 0.1 -0.8
v -1 0 -0.1
v -1 0.1 -0.1
v -0.9 0 -0.1
v -0.9 0.1 -0.1
v -1 0.2 -0.2
v -1 0.3 -0.2
v -0.9 0.2 -0.2
v -0.9 0.3 -0.2
v -0.6 0.2 -0.2
v -0.6 0.3 -0.2
v -0.5 0.2 -0.2
v -0.5 0.3 -0.2
v -1 0 -0.3
v -1 0.1 -0.3
v -1 0.2 -0.3
v -0.9 0 -0.3
v -0.9 0.1 -0.3
v -0.9 0.2 -0.3
v -0.7 0.2 -0.3
v -0.7 0.3 -0.3
v -0.7 0.4 -0.3
v -0.6 0.2 -0.3
v -0.6 0.3 -0.3
v -0.6 0.4 -0.3
v -0.5 0.3 -0.3
v -0.5 0.4 -0.3
v -1 0.1 -0.5
v -1 0.2 -0.5
v -0.9 0.1 -0.5
v -0.9 0.2 -0.5
v -0.8 0.3 -0.5
v -0.8 0.4 -0.5
v -0.7 0.3 -0.5
v -0.7 0.4 -0.5
v -0.7 0.2 -0.6
v -0.7 0.3 -0.6
v -0.6 0.2 -0.6
v -0.6 0.3 -0.6
v -0.8 0.2 -0.7
v -0.8 0.3 -0.7
v -0.7 0.2 -0.7
v -0.7 0.3 -0.7
v -0.9 0.2 -0.8
v -0.9 0.3 -0.8
v -0.8 0.2 -0.8
v -0.8 0.3 -0.8
v -1 0 -0.9
v -1 0.1 -0.9
v -1 0.2 -0.9
v -1 0.3 -0.9
v -0.9 0 -0.9
v -0.9 0.1 -0.9
v -0.9 0.2 -0.9
v -0.9 0.3 -0.9
v -0.9 0.4 -0.9
v -0.8 0.3 -0.9
v -0.8 0.4 -0.9
v -1 0 0
v -0.9 0 0
v -1 0 -0.1
v -0.9 0 -0.1
v -1 0 -0.2
v -0.9 0 -0.2
v -1 0 -0.3
v -0.9 0 -0.3
v -1 0 -0.8
v -0.9 0 -0.8
v -1 0 -0.9
v -0.9 0 -0.9
v -1 0.1 -0.4
v -0.9 0.1 -0.4
v -1 0.1 -0.5
v -0.9 0.1 -0.5
v -0.9 0.2 0.1
v -0.6 0.2 0.1
v -1 0.2 0
v -0.9 0.2 0
v -0.6 0.2 0
v -0.5 0.2 0
v -1 0.2 -0.2
v -0.9 0.2 -0.2
v -0.6 0.2 -0.2
v -0.5 0.2 -0.2
v -0.9 0.2 -0.3
v -0.7 0.2 -0.3
v -0.6 0.2 -0.3
v -0.9 0.2 -0.4
v -1 0.2 -0.5
v -0.9 0.2 -0.5
v -0.7 0.2 -0.5
v -0.6 0.2 -0.5
v -0.7 0.2 -0.6
v -0.6 0.2 -0.6
v -0.8 0.2 -0.7
v -0.7 0.2 -0.7
v -0.9 0.2 -0.8
v -0.8 0.2 -0.8
v -1 0.2 -0.9
v -0.9 0.2 -0.9
v -0.6 0.3 -0.2
v -0.5 0.3 -0.2
v -0.6 0.3 -0.3
v -0.5 0.3 -0.3
v -0.9 0.3 -0.8
v -0.8 0.3 -0.8
v -0.9 0.3 -0.9
v -0.8 0.3 -0.9
v -1 0.1 0
v -0.9 0.1 0
v -1 0.1 -0.1
v -0.9 0.1 -0.1
v -1 0.1 -0.8
v -0.9 0.1 -0.8
v -1 0.1 -0.9
v -0.9 0.1 -0.9
v -1 0.2 -0.2
v -0.9 0.2 -0.2
v -1 0.2 -0.3
v -0.9 0.2 -0.3
v -0.8 0.3 0.1
v -0.6 0.3 0.1
v -1 0.3 0
v -0.9 0.3 0
v -0.8 0.3 0
v -0.7 0.3 0
v -0.6 0.3 0
v -0.5 0.3 0
v -0.7 0.3 -0.1
v -0.5 0.3 -0.1
v -1 0.3 -0.2
v -0.9 0.3 -0.2
v -1 0.3 -0.4
v -0.9 0.3 -0.4
v -0.8 0.3 -0.5
v -0.7 0.3 -0.5
v -0.6 0.3 -0.5
v -0.9 0.3 -0.6
v -0.8 0.3 -0.6
v -0.7 0.3 -0.6
v -0.6 0.3 -0.6
v -0.9 0.3 -0.7
v -0.8 0.3 -0.7
v -0.7 0.3 -0.7
v -1 0.3 -0.9
v -0.9 0.3 -0.9
v -0.9 0.4 0.1
v -0.8 0.4 0.1
v -0.9 0.4 0
v -0.8 0.4 0
v -0.7 0.4 0
v -0.8 0.4 -0.1
v -0.7 0.4 -0.1
v -0.5 0.4 -0.1
v -0.9 0.4 -0.2
v -0.8 0.4 -0.2
v -0.7 0.4 -0.2
v -0.6 0.4 -0.2
v -0.7 0.4 -0.3
v -0.6 0.4 -0.3
v -0.5 0.4 -0.3
v -0.9 0.4 -0.4
v -0.8 0.4 -0.4
v -0.8 0.4 -0.5
v -0.7 0.4 -0.5
v -0.9 0.4 -0.6
v -0.8 0.4 -0.6
v -0.9 0.4 -0.7
v -0.8 0.4 -0.7
v -0.9 0.4 -0.9
v -0.8 0.4 -0.9

# faces
f 7/1/1 2/1/1 1/1/1
f 8/1/1 2/1/1 7/1/1
f 9/1/1 4/1/1 3/1/1
f 10/1/1 4/1/1 9/1/1
f 13/1/1 6/1/1 5/1/1
f 14/1/1 6/1/1 13/1/1
f 16/2/1 10/2/1 9/2/1
f 17/2/1 10/2/1 16/2/1
f 18/2/1 12/2/1 11/2/1
f 19/2/1 12/2/1 18/2/1
f 21/4/1 16/4/1 15/4/1
f 22/4/1 16/4/1 21/4/1
f 23/4/1 20/4/1 19/4/1
f 23/4/1 19/4/1 18/4/1
f 24/4/1 20/4/1 23/4/1
f 30/4/1 26/4/1 25/4/1
f 31/4/1 26/4/1 30/4/1
f 32/4/1 29/4/1 28/4/1
f 32/4/1 28/4/1 27/4/1
f 33/4/1 29/4/1 32/4/1
f 37/3/1 31/3/1 30/3/1
f 38/4/1 32/4/1 31/4/1
f 38/3/1 31/3/1 37/3/1
f 39/3/1 33/3/1 32/3/1
f 39/4/1 32/4/1 38/4/1
f 40/4/1 34/4/1 33/4/1
f 40/3/1 33/3/1 39/3/1
f 41/3/1 35/3/1 34/3/1
f 41/4/1 34/4/1 40/4/1
f 42/4/1 36/4/1 35/4/1
f 42/3/1 35/3/1 41/3/1
f 43/4/1 36/4/1 42/4/1
f 44/1/2 45/1/2 50/1/2
f 50/1/2 45/1/2 51/1/2
f 46/1/2 47/1/2 52/1/2
f 52/1/2 47/1/2 53/1/2
f 48/1/2 49/1/2 56/1/2
f 56/1/2 49/1/2 57/1/2
f 52/2/2 53/2/2 58/2/2
f 58/2/2 53/2/2 59/2/2
f 54/2/2 55/2/2 60/2/2
f 60/2/2 55/2/2 61/2/2
f 62/4/2 63/4/2 64/4/2
f 64/4/2 63/4/2 65/4/2
f 66/4/2 67/4/2 72/4/2
f 72/4/2 67/4/2 73/4/2
f 68/3/2 69/3/2 75/3/2
f 75/3/2 69/3/2 76/3/2
f 70/4/2 71/4/2 77/4/2
f 71/3/2 72/3/2 78/3/2
f 77/4/2 71/4/2 78/4/2
f 73/4/2 74/4/2 79/4/2
f 78/3/2 72/3/2 79/3/2
f 72/4/2 73/4/2 79/4/2
f 79/4/2 74/4/2 80/4/2
f 81/4/2 82/4/2 87/4/2
f 87/4/2 82/4/2 88/4/2
f 83/4/2 84/4/2 89/4/2
f 89/4/2 84/4/2 90/4/2
f 85/3/2 86/3/2 91/3/2
f 91/3/2 86/3/2 92/3/2
f 87/4/2 88/4/2 93/4/2
f 93/4/2 88/4/2 94/4/2
f 95/4/2 96/4/2 101/4/2
f 101/4/2 96/4/2 102/4/2
f 97/4/2 98/4/2 103/4/2
f 103/4/2 98/4/2 104/4/2
f 99/4/2 100/4/2 105/4/2
f 105/4/2 100/4/2 106/4/2
f 107/4/2 108/4/2 109/4/2
f 109/4/2 108/4/2 110/4/2
f 110/4/2 108/4/2 111/4/2
f 111/4/2 112/4/2 113/4/2
f 110/4/2 111/4/2 113/4/2
f 113/4/2 112/4/2 114/4/2
f 118/4/3 116/4/3 115/4/3
f 118/3/3 117/3/3 116/3/3
f 119/3/3 117/3/3 118/3/3
f 120/4/3 118/4/3 115/4/3
f 121/4/3 118/4/3 120/4/3
f 126/1/3 123/1/3 122/1/3
f 127/1/3 123/1/3 126/1/3
f 128/4/3 125/4/3 124/4/3
f 129/4/3 125/4/3 128/4/3
f 132/3/3 131/3/3 130/3/3
f 133/3/3 131/3/3 132/3/3
f 136/4/3 135/4/3 134/4/3
f 137/4/3 135/4/3 136/4/3
f 140/4/3 139/4/3 138/4/3
f 141/4/3 139/4/3 140/4/3
f 145/1/3 143/1/3 142/1/3
f 146/2/3 144/2/3 143/2/3
f 146/1/3 143/1/3 145/1/3
f 147/2/3 144/2/3 146/2/3
f 151/2/3 149/2/3 148/2/3
f 152/4/3 150/4/3 149/4/3
f 152/2/3 149/2/3 151/2/3
f 153/4/3 150/4/3 152/4/3
f 156/4/3 155/4/3 154/4/3
f 157/4/3 155/4/3 156/4/3
f 160/1/3 159/1/3 158/1/3
f 161/1/3 159/1/3 160/1/3
f 162/1/4 163/1/4 164/1/4
f 164/1/4 163/1/4 165/1/4
f 166/4/4 167/4/4 168/4/4
f 168/4/4 167/4/4 169/4/4
f 170/4/4 171/4/4 172/4/4
f 172/4/4 171/4/4 173/4/4
f 174/1/4 175/1/4 177/1/4
f 175/2/4 176/2/4 178/2/4
f 177/1/4 175/1/4 178/1/4
f 178/2/4 176/2/4 179/2/4
f 180/4/4 181/4/4 183/4/4
f 181/3/4 182/3/4 184/3/4
f 183/4/4 181/4/4 184/4/4
f 184/3/4 182/3/4 185/3/4
f 184/4/4 185/4/4 186/4/4
f 186/4/4 185/4/4 187/4/4
f 188/2/4 189/2/4 190/2/4
f 190/2/4 189/2/4 191/2/4
f 192/4/4 193/4/4 194/4/4
f 194/4/4 193/4/4 195/4/4
f 196/4/4 197/4/4 198/4/4
f 198/4/4 197/4/4 199/4/4
f 200/4/4 201/4/4 202/4/4
f 202/4/4 201/4/4 203/4/4
f 204/4/4 205/4/4 206/4/4
f 206/4/4 205/4/4 207/4/4
f 208/1/4 209/1/4 212/1/4
f 212/1/4 209/1/4 213/1/4
f 210/4/4 211/4/4 214/4/4
f 214/4/4 211/4/4 215/4/4
f 215/4/4 216/4/4 217/4/4
f 217/4/4 216/4/4 218/4/4
f 221/1/5 220/1/5 219/1/5
f 222/1/5 220/1/5 221/1/5
f 225/1/5 224/1/5 223/1/5
f 226/1/5 224/1/5 225/1/5
f 229/1/5 228/1/5 227/1/5
f 230/1/5 228/1/5 229/1/5
f 233/2/5 232/2/5 231/2/5
f 234/2/5 232/2/5 233/2/5
f 238/4/5 236/4/5 235/4/5
f 239/4/5 236/4/5 238/4/5
f 241/4/5 238/4/5 237/4/5
f 241/4/5 240/4/5 239/4/5
f 241/4/5 239/4/5 238/4/5
f 242/4/5 240/4/5 241/4/5
f 243/4/5 240/4/5 242/4/5
f 244/4/5 240/4/5 243/4/5
f 245/4/5 243/4/5 242/4/5
f 246/4/5 243/4/5 245/4/5
f 247/4/5 243/4/5 246/4/5
f 248/4/5 246/4/5 245/4/5
f 250/4/5 246/4/5 248/4/5
f 251/4/5 246/4/5 250/4/5
f 253/4/5 250/4/5 249/4/5
f 253/4/5 252/4/5 251/4/5
f 253/4/5 251/4/5 250/4/5
f 254/4/5 252/4/5 253/4/5
f 255/4/5 253/4/5 249/4/5
f 256/4/5 253/4/5 255/4/5
f 257/4/5 255/4/5 249/4/5
f 258/4/5 255/4/5 257/4/5
f 259/4/5 257/4/5 249/4/5
f 260/4/5 257/4/5 259/4/5
f 263/4/5 262/4/5 261/4/5
f 264/4/5 262/4/5 263/4/5
f 267/4/5 266/4/5 265/4/5
f 268/4/5 266/4/5 267/4/5
f 269/1/6 270/1/6 271/1/6
f 271/1/6 270/1/6 272/1/6
f 273/1/6 274/1/6 275/1/6
f 275/1/6 274/1/6 276/1/6
f 277/2/6 278/2/6 279/2/6
f 279/2/6 278/2/6 280/2/6
f 281/4/6 282/4/6 285/4/6
f 285/4/6 282/4/6 286/4/6
f 286/4/6 282/4/6 287/4/6
f 287/4/6 288/4/6 289/4/6
f 286/4/6 287/4/6 289/4/6
f 289/4/6 288/4/6 290/4/6
f 283/4/6 284/4/6 291/4/6
f 291/4/6 284/4/6 292/4/6
f 293/4/6 294/4/6 298/4/6
f 296/4/6 297/4/6 299/4/6
f 295/4/6 296/4/6 299/4/6
f 299/4/6 297/4/6 300/4/6
f 300/4/6 297/4/6 301/4/6
f 293/4/6 298/4/6 302/4/6
f 299/4/6 300/4/6 303/4/6
f 303/4/6 300/4/6 304/4/6
f 293/4/6 302/4/6 305/4/6
f 305/4/6 302/4/6 306/4/6
f 307/3/6 308/3/6 309/3/6
f 309/3/6 308/3/6 310/3/6
f 309/4/6 310/4/6 312/4/6
f 310/3/6 311/3/6 312/3/6
f 312/3/6 311/3/6 313/3/6
f 309/4/6 312/4/6 315/4/6
f 313/4/6 314/4/6 315/4/6
f 312/4/6 313/4/6 315/4/6
f 315/4/6 314/4/6 316/4/6
f 316/4/6 314/4/6 317/4/6
f 317/4/6 314/4/6 318/4/6
f 316/4/6 317/4/6 319/4/6
f 317/3/6 318/3/6 319/3/6
f 318/4/6 314/4/6 320/4/6
f 319/3/6 318/3/6 320/3/6
f 320/4/6 314/4/6 321/4/6
f 315/3/6 316/3/6 322/3/6
f 316/4/6 319/4/6 323/4/6
f 322/3/6 316/3/6 323/3/6
f 322/4/6 323/4/6 324/4/6
f 323/4/6 319/4/6 324/4/6
f 324/4/6 319/4/6 325/4/6
f 322/4/6 324/4/6 326/4/6
f 326/4/6 324/4/6 327/4/6
f 326/3/6 327/3/6 328/3/6
f 328/3/6 327/3/6 329/3/6
f 328/4/6 329/4/6 330/4/6
f 330/4/6 329/4/6 331/4/6
