# MagicaVoxel @ Ephtracy

# group
o 

# material
mtllib trans_4.mtl
usemtl palette

# normals
vn -1 0 0
vn 1 0 0
vn 0 0 1
vn 0 0 -1
vn 0 -1 0
vn 0 1 0

# texcoords
vt 0.958984 0.5
vt 0.970703 0.5
vt 0.986328 0.5
vt 0.990234 0.5

# verts
v -1 0 0.2
v -1 0 0.1
v -1 0 0
v -1 0 -0.1
v -1 0 -0.2
v -1 0 -0.3
v -1 0 -0.4
v -1 0 -0.5
v -1 0 -0.6
v -1 0 -0.7
v -1 0 -0.8
v -1 0 -0.9
v -1 0.1 0.2
v -1 0.1 0.1
v -1 0.1 0
v -1 0.1 -0.1
v -1 0.1 -0.2
v -1 0.1 -0.3
v -1 0.1 -0.4
v -1 0.1 -0.5
v -1 0.1 -0.6
v -1 0.1 -0.7
v -1 0.1 -0.8
v -1 0.1 -0.9
v -1 0.2 0.2
v -1 0.2 0.1
v -1 0.2 0
v -1 0.2 -0.1
v -1 0.2 -0.2
v -1 0.2 -0.3
v -1 0.2 -0.4
v -1 0.2 -0.5
v -1 0.2 -0.6
v -1 0.2 -0.7
v -1 0.2 -0.8
v -1 0.2 -0.9
v -1 0.3 0.2
v -1 0.3 -0.9
v -0.9 0.3 0.2
v -0.9 0.3 0.1
v -0.9 0.3 0
v -0.9 0.3 -0.2
v -0.9 0.3 -0.4
v -0.9 0.3 -0.6
v -0.9 0.3 -0.7
v -0.9 0.3 -0.9
v -0.9 0.4 0.2
v -0.9 0.4 0.1
v -0.9 0.4 0
v -0.9 0.4 -0.2
v -0.9 0.4 -0.4
v -0.9 0.4 -0.6
v -0.9 0.4 -0.7
v -0.9 0.4 -0.9
v -0.5 0 0.2
v -0.5 0 0.1
v -0.5 0 0
v -0.5 0 -0.1
v -0.5 0 -0.2
v -0.5 0 -0.3
v -0.5 0 -0.4
v -0.5 0 -0.5
v -0.5 0 -0.6
v -0.5 0 -0.7
v -0.5 0 -0.8
v -0.5 0 -0.9
v -0.5 0.1 0.2
v -0.5 0.1 0.1
v -0.5 0.1 0
v -0.5 0.1 -0.1
v -0.5 0.1 -0.2
v -0.5 0.1 -0.3
v -0.5 0.1 -0.4
v -0.5 0.1 -0.5
v -0.5 0.1 -0.6
v -0.5 0.1 -0.7
v -0.5 0.1 -0.8
v -0.5 0.1 -0.9
v -0.5 0.2 0.2
v -0.5 0.2 0.1
v -0.5 0.2 0
v -0.5 0.2 -0.1
v -0.5 0.2 -0.2
v -0.5 0.2 -0.3
v -0.5 0.2 -0.4
v -0.5 0.2 -0.5
v -0.5 0.2 -0.6
v -0.5 0.2 -0.7
v -0.5 0.2 -0.8
v -0.5 0.2 -0.9
v -0.9 0 0.2
v -0.9 0 0.1
v -0.9 0 0
v -0.9 0 -0.1
v -0.9 0 -0.2
v -0.9 0 -0.3
v -0.9 0 -0.4
v -0.9 0 -0.5
v -0.9 0 -0.6
v -0.9 0 -0.7
v -0.9 0 -0.8
v -0.9 0 -0.9
v -0.9 0.1 0.2
v -0.9 0.1 0.1
v -0.9 0.1 0
v -0.9 0.1 -0.1
v -0.9 0.1 -0.2
v -0.9 0.1 -0.3
v -0.9 0.1 -0.4
v -0.9 0.1 -0.5
v -0.9 0.1 -0.6
v -0.9 0.1 -0.7
v -0.9 0.1 -0.8
v -0.9 0.1 -0.9
v -0.9 0.2 0.2
v -0.9 0.2 0.1
v -0.9 0.2 0
v -0.9 0.2 -0.1
v -0.9 0.2 -0.2
v -0.9 0.2 -0.3
v -0.9 0.2 -0.4
v -0.9 0.2 -0.5
v -0.9 0.2 -0.6
v -0.9 0.2 -0.7
v -0.9 0.2 -0.8
v -0.9 0.2 -0.9
v -0.5 0.3 0.2
v -0.5 0.3 0.1
v -0.5 0.3 0
v -0.5 0.3 -0.4
v -0.5 0.3 -0.5
v -0.5 0.3 -0.9
v -0.5 0.4 0.2
v -0.5 0.4 0.1
v -0.5 0.4 0
v -0.5 0.4 -0.4
v -0.5 0.4 -0.5
v -0.5 0.4 -0.9
v -0.4 0 0.2
v -0.4 0 0.1
v -0.4 0 0
v -0.4 0 -0.1
v -0.4 0 -0.2
v -0.4 0 -0.3
v -0.4 0 -0.4
v -0.4 0 -0.5
v -0.4 0 -0.6
v -0.4 0 -0.7
v -0.4 0 -0.8
v -0.4 0 -0.9
v -0.4 0.1 0.2
v -0.4 0.1 0.1
v -0.4 0.1 0
v -0.4 0.1 -0.1
v -0.4 0.1 -0.2
v -0.4 0.1 -0.3
v -0.4 0.1 -0.4
v -0.4 0.1 -0.5
v -0.4 0.1 -0.6
v -0.4 0.1 -0.7
v -0.4 0.1 -0.8
v -0.4 0.1 -0.9
v -0.4 0.2 0.2
v -0.4 0.2 0.1
v -0.4 0.2 0
v -0.4 0.2 -0.1
v -0.4 0.2 -0.2
v -0.4 0.2 -0.3
v -0.4 0.2 -0.4
v -0.4 0.2 -0.5
v -0.4 0.2 -0.6
v -0.4 0.2 -0.7
v -0.4 0.2 -0.8
v -0.4 0.2 -0.9
v -0.4 0.3 0.2
v -0.4 0.3 -0.9
v -1 0 0.2
v -1 0.1 0.2
v -1 0.2 0.2
v -1 0.3 0.2
v -0.9 0 0.2
v -0.9 0.1 0.2
v -0.9 0.2 0.2
v -0.9 0.3 0.2
v -0.9 0.4 0.2
v -0.5 0 0.2
v -0.5 0.1 0.2
v -0.5 0.2 0.2
v -0.5 0.3 0.2
v -0.5 0.4 0.2
v -0.4 0 0.2
v -0.4 0.1 0.2
v -0.4 0.2 0.2
v -0.4 0.3 0.2
v -1 0 0
v -1 0.1 0
v -1 0.2 0
v -0.9 0 0
v -0.9 0.1 0
v -0.9 0.2 0
v -0.5 0 0
v -0.5 0.1 0
v -0.5 0.2 0
v -0.4 0 0
v -0.4 0.1 0
v -0.4 0.2 0
v -1 0 -0.2
v -1 0.1 -0.2
v -1 0.2 -0.2
v -0.9 0 -0.2
v -0.9 0.1 -0.2
v -0.9 0.2 -0.2
v -0.5 0 -0.2
v -0.5 0.1 -0.2
v -0.5 0.2 -0.2
v -0.4 0 -0.2
v -0.4 0.1 -0.2
v -0.4 0.2 -0.2
v -1 0 -0.4
v -1 0.1 -0.4
v -1 0.2 -0.4
v -0.9 0 -0.4
v -0.9 0.1 -0.4
v -0.9 0.2 -0.4
v -0.5 0 -0.4
v -0.5 0.1 -0.4
v -0.5 0.2 -0.4
v -0.4 0 -0.4
v -0.4 0.1 -0.4
v -0.4 0.2 -0.4
v -1 0 -0.6
v -1 0.1 -0.6
v -1 0.2 -0.6
v -0.9 0 -0.6
v -0.9 0.1 -0.6
v -0.9 0.2 -0.6
v -0.5 0 -0.6
v -0.5 0.1 -0.6
v -0.5 0.2 -0.6
v -0.4 0 -0.6
v -0.4 0.1 -0.6
v -0.4 0.2 -0.6
v -1 0 -0.8
v -1 0.1 -0.8
v -1 0.2 -0.8
v -0.9 0 -0.8
v -0.9 0.1 -0.8
v -0.9 0.2 -0.8
v -0.5 0 -0.8
v -0.5 0.1 -0.8
v -0.5 0.2 -0.8
v -0.4 0 -0.8
v -0.4 0.1 -0.8
v -0.4 0.2 -0.8
v -1 0 0.1
v -1 0.1 0.1
v -1 0.2 0.1
v -0.9 0 0.1
v -0.9 0.1 0.1
v -0.9 0.2 0.1
v -0.5 0 0.1
v -0.5 0.1 0.1
v -0.5 0.2 0.1
v -0.4 0 0.1
v -0.4 0.1 0.1
v -0.4 0.2 0.1
v -1 0 -0.1
v -1 0.1 -0.1
v -1 0.2 -0.1
v -0.9 0 -0.1
v -0.9 0.1 -0.1
v -0.9 0.2 -0.1
v -0.5 0 -0.1
v -0.5 0.1 -0.1
v -0.5 0.2 -0.1
v -0.4 0 -0.1
v -0.4 0.1 -0.1
v -0.4 0.2 -0.1
v -1 0 -0.3
v -1 0.1 -0.3
v -1 0.2 -0.3
v -0.9 0 -0.3
v -0.9 0.1 -0.3
v -0.9 0.2 -0.3
v -0.5 0 -0.3
v -0.5 0.1 -0.3
v -0.5 0.2 -0.3
v -0.4 0 -0.3
v -0.4 0.1 -0.3
v -0.4 0.2 -0.3
v -1 0 -0.5
v -1 0.1 -0.5
v -1 0.2 -0.5
v -0.9 0 -0.5
v -0.9 0.1 -0.5
v -0.9 0.2 -0.5
v -0.5 0 -0.5
v -0.5 0.1 -0.5
v -0.5 0.2 -0.5
v -0.4 0 -0.5
v -0.4 0.1 -0.5
v -0.4 0.2 -0.5
v -1 0 -0.7
v -1 0.1 -0.7
v -1 0.2 -0.7
v -0.9 0 -0.7
v -0.9 0.1 -0.7
v -0.9 0.2 -0.7
v -0.5 0 -0.7
v -0.5 0.1 -0.7
v -0.5 0.2 -0.7
v -0.4 0 -0.7
v -0.4 0.1 -0.7
v -0.4 0.2 -0.7
v -1 0 -0.9
v -1 0.1 -0.9
v -1 0.2 -0.9
v -1 0.3 -0.9
v -0.9 0 -0.9
v -0.9 0.1 -0.9
v -0.9 0.2 -0.9
v -0.9 0.3 -0.9
v -0.9 0.4 -0.9
v -0.5 0 -0.9
v -0.5 0.1 -0.9
v -0.5 0.2 -0.9
v -0.5 0.3 -0.9
v -0.5 0.4 -0.9
v -0.4 0 -0.9
v -0.4 0.1 -0.9
v -0.4 0.2 -0.9
v -0.4 0.3 -0.9
v -1 0 0.2
v -0.9 0 0.2
v -0.5 0 0.2
v -0.4 0 0.2
v -1 0 0.1
v -0.9 0 0.1
v -0.5 0 0.1
v -0.4 0 0.1
v -1 0 0
v -0.9 0 0
v -0.5 0 0
v -0.4 0 0
v -1 0 -0.1
v -0.9 0 -0.1
v -0.5 0 -0.1
v -0.4 0 -0.1
v -1 0 -0.2
v -0.9 0 -0.2
v -0.5 0 -0.2
v -0.4 0 -0.2
v -1 0 -0.3
v -0.9 0 -0.3
v -0.5 0 -0.3
v -0.4 0 -0.3
v -1 0 -0.4
v -0.9 0 -0.4
v -0.5 0 -0.4
v -0.4 0 -0.4
v -1 0 -0.5
v -0.9 0 -0.5
v -0.5 0 -0.5
v -0.4 0 -0.5
v -1 0 -0.6
v -0.9 0 -0.6
v -0.5 0 -0.6
v -0.4 0 -0.6
v -1 0 -0.7
v -0.9 0 -0.7
v -0.5 0 -0.7
v -0.4 0 -0.7
v -1 0 -0.8
v -0.9 0 -0.8
v -0.5 0 -0.8
v -0.4 0 -0.8
v -1 0 -0.9
v -0.9 0 -0.9
v -0.5 0 -0.9
v -0.4 0 -0.9
v -0.9 0.2 0.2
v -0.5 0.2 0.2
v -1 0.2 0.1
v -0.9 0.2 0.1
v -0.5 0.2 0.1
v -0.4 0.2 0.1
v -1 0.2 0
v -0.9 0.2 0
v -0.5 0.2 0
v -0.4 0.2 0
v -1 0.2 -0.1
v -0.9 0.2 -0.1
v -0.5 0.2 -0.1
v -0.4 0.2 -0.1
v -1 0.2 -0.2
v -0.9 0.2 -0.2
v -0.5 0.2 -0.2
v -0.4 0.2 -0.2
v -1 0.2 -0.3
v -0.9 0.2 -0.3
v -0.5 0.2 -0.3
v -0.4 0.2 -0.3
v -1 0.2 -0.4
v -0.9 0.2 -0.4
v -0.5 0.2 -0.4
v -0.4 0.2 -0.4
v -1 0.2 -0.5
v -0.9 0.2 -0.5
v -0.5 0.2 -0.5
v -0.4 0.2 -0.5
v -1 0.2 -0.6
v -0.9 0.2 -0.6
v -0.5 0.2 -0.6
v -0.4 0.2 -0.6
v -1 0.2 -0.7
v -0.9 0.2 -0.7
v -0.5 0.2 -0.7
v -0.4 0.2 -0.7
v -1 0.2 -0.8
v -0.9 0.2 -0.8
v -0.5 0.2 -0.8
v -0.4 0.2 -0.8
v -0.9 0.2 -0.9
v -0.5 0.2 -0.9
v -1 0.3 0.2
v -0.9 0.3 0.2
v -0.5 0.3 0.2
v -0.4 0.3 0.2
v -0.9 0.3 0.1
v -0.5 0.3 0.1
v -0.9 0.3 0
v -0.5 0.3 0
v -0.9 0.3 -0.2
v -0.9 0.3 -0.4
v -0.5 0.3 -0.4
v -0.5 0.3 -0.5
v -0.9 0.3 -0.6
v -0.9 0.3 -0.7
v -1 0.3 -0.9
v -0.9 0.3 -0.9
v -0.5 0.3 -0.9
v -0.4 0.3 -0.9
v -0.9 0.4 0.2
v -0.5 0.4 0.2
v -0.9 0.4 0.1
v -0.8 0.4 0.1
v -0.6 0.4 0.1
v -0.5 0.4 0.1
v -0.9 0.4 0
v -0.8 0.4 0
v -0.6 0.4 0
v -0.5 0.4 0
v -0.8 0.4 -0.1
v -0.6 0.4 -0.1
v -0.9 0.4 -0.2
v -0.8 0.4 -0.2
v -0.7 0.4 -0.2
v -0.6 0.4 -0.2
v -0.7 0.4 -0.3
v -0.6 0.4 -0.3
v -0.9 0.4 -0.4
v -0.8 0.4 -0.4
v -0.7 0.4 -0.4
v -0.5 0.4 -0.4
v -0.7 0.4 -0.5
v -0.5 0.4 -0.5
v -0.9 0.4 -0.6
v -0.7 0.4 -0.6
v -0.9 0.4 -0.7
v -0.7 0.4 -0.7
v -0.9 0.4 -0.9
v -0.5 0.4 -0.9

# faces
f 13/1/1 2/1/1 1/1/1
f 14/1/1 2/1/1 13/1/1
f 15/1/1 4/1/1 3/1/1
f 16/1/1 4/1/1 15/1/1
f 17/1/1 6/1/1 5/1/1
f 18/1/1 6/1/1 17/1/1
f 19/1/1 8/1/1 7/1/1
f 20/1/1 8/1/1 19/1/1
f 21/1/1 10/1/1 9/1/1
f 22/1/1 10/1/1 21/1/1
f 23/1/1 12/1/1 11/1/1
f 24/1/1 12/1/1 23/1/1
f 25/2/1 14/2/1 13/2/1
f 26/2/1 14/2/1 25/2/1
f 27/2/1 16/2/1 15/2/1
f 28/2/1 16/2/1 27/2/1
f 29/2/1 18/2/1 17/2/1
f 30/2/1 18/2/1 29/2/1
f 31/2/1 20/2/1 19/2/1
f 32/2/1 20/2/1 31/2/1
f 33/2/1 22/2/1 21/2/1
f 34/2/1 22/2/1 33/2/1
f 35/2/1 24/2/1 23/2/1
f 36/2/1 24/2/1 35/2/1
f 37/4/1 32/4/1 31/4/1
f 37/4/1 26/4/1 25/4/1
f 37/4/1 36/4/1 35/4/1
f 37/4/1 35/4/1 34/4/1
f 37/4/1 28/4/1 27/4/1
f 37/4/1 33/4/1 32/4/1
f 37/4/1 30/4/1 29/4/1
f 37/4/1 31/4/1 30/4/1
f 37/4/1 34/4/1 33/4/1
f 37/4/1 29/4/1 28/4/1
f 37/4/1 27/4/1 26/4/1
f 38/4/1 36/4/1 37/4/1
f 47/4/1 40/4/1 39/4/1
f 48/3/1 41/3/1 40/3/1
f 48/4/1 40/4/1 47/4/1
f 49/4/1 42/4/1 41/4/1
f 49/3/1 41/3/1 48/3/1
f 50/3/1 43/3/1 42/3/1
f 50/4/1 42/4/1 49/4/1
f 51/4/1 44/4/1 43/4/1
f 51/3/1 43/3/1 50/3/1
f 52/3/1 45/3/1 44/3/1
f 52/4/1 44/4/1 51/4/1
f 53/4/1 46/4/1 45/4/1
f 53/3/1 45/3/1 52/3/1
f 54/4/1 46/4/1 53/4/1
f 67/1/1 56/1/1 55/1/1
f 68/1/1 56/1/1 67/1/1
f 69/1/1 58/1/1 57/1/1
f 70/1/1 58/1/1 69/1/1
f 71/1/1 60/1/1 59/1/1
f 72/1/1 60/1/1 71/1/1
f 73/1/1 62/1/1 61/1/1
f 74/1/1 62/1/1 73/1/1
f 75/1/1 64/1/1 63/1/1
f 76/1/1 64/1/1 75/1/1
f 77/1/1 66/1/1 65/1/1
f 78/1/1 66/1/1 77/1/1
f 79/2/1 68/2/1 67/2/1
f 80/2/1 68/2/1 79/2/1
f 81/2/1 70/2/1 69/2/1
f 82/2/1 70/2/1 81/2/1
f 83/2/1 72/2/1 71/2/1
f 84/2/1 72/2/1 83/2/1
f 85/2/1 74/2/1 73/2/1
f 86/2/1 74/2/1 85/2/1
f 87/2/1 76/2/1 75/2/1
f 88/2/1 76/2/1 87/2/1
f 89/2/1 78/2/1 77/2/1
f 90/2/1 78/2/1 89/2/1
f 91/1/2 92/1/2 103/1/2
f 103/1/2 92/1/2 104/1/2
f 93/1/2 94/1/2 105/1/2
f 105/1/2 94/1/2 106/1/2
f 95/1/2 96/1/2 107/1/2
f 107/1/2 96/1/2 108/1/2
f 97/1/2 98/1/2 109/1/2
f 109/1/2 98/1/2 110/1/2
f 99/1/2 100/1/2 111/1/2
f 111/1/2 100/1/2 112/1/2
f 101/1/2 102/1/2 113/1/2
f 113/1/2 102/1/2 114/1/2
f 103/2/2 104/2/2 115/2/2
f 115/2/2 104/2/2 116/2/2
f 105/2/2 106/2/2 117/2/2
f 117/2/2 106/2/2 118/2/2
f 107/2/2 108/2/2 119/2/2
f 119/2/2 108/2/2 120/2/2
f 109/2/2 110/2/2 121/2/2
f 121/2/2 110/2/2 122/2/2
f 111/2/2 112/2/2 123/2/2
f 123/2/2 112/2/2 124/2/2
f 113/2/2 114/2/2 125/2/2
f 125/2/2 114/2/2 126/2/2
f 127/4/2 128/4/2 133/4/2
f 128/3/2 129/3/2 134/3/2
f 133/4/2 128/4/2 134/4/2
f 129/4/2 130/4/2 135/4/2
f 134/3/2 129/3/2 135/3/2
f 130/3/2 131/3/2 136/3/2
f 135/4/2 130/4/2 136/4/2
f 131/4/2 132/4/2 137/4/2
f 136/3/2 131/3/2 137/3/2
f 137/4/2 132/4/2 138/4/2
f 139/1/2 140/1/2 151/1/2
f 151/1/2 140/1/2 152/1/2
f 141/1/2 142/1/2 153/1/2
f 153/1/2 142/1/2 154/1/2
f 143/1/2 144/1/2 155/1/2
f 155/1/2 144/1/2 156/1/2
f 145/1/2 146/1/2 157/1/2
f 157/1/2 146/1/2 158/1/2
f 147/1/2 148/1/2 159/1/2
f 159/1/2 148/1/2 160/1/2
f 149/1/2 150/1/2 161/1/2
f 161/1/2 150/1/2 162/1/2
f 151/2/2 152/2/2 163/2/2
f 163/2/2 152/2/2 164/2/2
f 153/2/2 154/2/2 165/2/2
f 165/2/2 154/2/2 166/2/2
f 155/2/2 156/2/2 167/2/2
f 167/2/2 156/2/2 168/2/2
f 157/2/2 158/2/2 169/2/2
f 169/2/2 158/2/2 170/2/2
f 159/2/2 160/2/2 171/2/2
f 171/2/2 160/2/2 172/2/2
f 161/2/2 162/2/2 173/2/2
f 173/2/2 162/2/2 174/2/2
f 169/4/2 170/4/2 175/4/2
f 163/4/2 164/4/2 175/4/2
f 173/4/2 174/4/2 175/4/2
f 172/4/2 173/4/2 175/4/2
f 165/4/2 166/4/2 175/4/2
f 170/4/2 171/4/2 175/4/2
f 167/4/2 168/4/2 175/4/2
f 168/4/2 169/4/2 175/4/2
f 171/4/2 172/4/2 175/4/2
f 166/4/2 167/4/2 175/4/2
f 164/4/2 165/4/2 175/4/2
f 175/4/2 174/4/2 176/4/2
f 181/1/3 178/1/3 177/1/3
f 182/2/3 179/2/3 178/2/3
f 182/1/3 178/1/3 181/1/3
f 183/4/3 180/4/3 179/4/3
f 183/2/3 179/2/3 182/2/3
f 184/4/3 180/4/3 183/4/3
f 188/4/3 185/4/3 184/4/3
f 188/4/3 184/4/3 183/4/3
f 189/4/3 185/4/3 188/4/3
f 190/4/3 185/4/3 189/4/3
f 191/1/3 187/1/3 186/1/3
f 192/2/3 188/2/3 187/2/3
f 192/1/3 187/1/3 191/1/3
f 193/4/3 189/4/3 188/4/3
f 193/2/3 188/2/3 192/2/3
f 194/4/3 189/4/3 193/4/3
f 198/1/3 196/1/3 195/1/3
f 199/2/3 197/2/3 196/2/3
f 199/1/3 196/1/3 198/1/3
f 200/2/3 197/2/3 199/2/3
f 204/1/3 202/1/3 201/1/3
f 205/2/3 203/2/3 202/2/3
f 205/1/3 202/1/3 204/1/3
f 206/2/3 203/2/3 205/2/3
f 210/1/3 208/1/3 207/1/3
f 211/2/3 209/2/3 208/2/3
f 211/1/3 208/1/3 210/1/3
f 212/2/3 209/2/3 211/2/3
f 216/1/3 214/1/3 213/1/3
f 217/2/3 215/2/3 214/2/3
f 217/1/3 214/1/3 216/1/3
f 218/2/3 215/2/3 217/2/3
f 222/1/3 220/1/3 219/1/3
f 223/2/3 221/2/3 220/2/3
f 223/1/3 220/1/3 222/1/3
f 224/2/3 221/2/3 223/2/3
f 228/1/3 226/1/3 225/1/3
f 229/2/3 227/2/3 226/2/3
f 229/1/3 226/1/3 228/1/3
f 230/2/3 227/2/3 229/2/3
f 234/1/3 232/1/3 231/1/3
f 235/2/3 233/2/3 232/2/3
f 235/1/3 232/1/3 234/1/3
f 236/2/3 233/2/3 235/2/3
f 240/1/3 238/1/3 237/1/3
f 241/2/3 239/2/3 238/2/3
f 241/1/3 238/1/3 240/1/3
f 242/2/3 239/2/3 241/2/3
f 246/1/3 244/1/3 243/1/3
f 247/2/3 245/2/3 244/2/3
f 247/1/3 244/1/3 246/1/3
f 248/2/3 245/2/3 247/2/3
f 252/1/3 250/1/3 249/1/3
f 253/2/3 251/2/3 250/2/3
f 253/1/3 250/1/3 252/1/3
f 254/2/3 251/2/3 253/2/3
f 255/1/4 256/1/4 258/1/4
f 256/2/4 257/2/4 259/2/4
f 258/1/4 256/1/4 259/1/4
f 259/2/4 257/2/4 260/2/4
f 261/1/4 262/1/4 264/1/4
f 262/2/4 263/2/4 265/2/4
f 264/1/4 262/1/4 265/1/4
f 265/2/4 263/2/4 266/2/4
f 267/1/4 268/1/4 270/1/4
f 268/2/4 269/2/4 271/2/4
f 270/1/4 268/1/4 271/1/4
f 271/2/4 269/2/4 272/2/4
f 273/1/4 274/1/4 276/1/4
f 274/2/4 275/2/4 277/2/4
f 276/1/4 274/1/4 277/1/4
f 277/2/4 275/2/4 278/2/4
f 279/1/4 280/1/4 282/1/4
f 280/2/4 281/2/4 283/2/4
f 282/1/4 280/1/4 283/1/4
f 283/2/4 281/2/4 284/2/4
f 285/1/4 286/1/4 288/1/4
f 286/2/4 287/2/4 289/2/4
f 288/1/4 286/1/4 289/1/4
f 289/2/4 287/2/4 290/2/4
f 291/1/4 292/1/4 294/1/4
f 292/2/4 293/2/4 295/2/4
f 294/1/4 292/1/4 295/1/4
f 295/2/4 293/2/4 296/2/4
f 297/1/4 298/1/4 300/1/4
f 298/2/4 299/2/4 301/2/4
f 300/1/4 298/1/4 301/1/4
f 301/2/4 299/2/4 302/2/4
f 303/1/4 304/1/4 306/1/4
f 304/2/4 305/2/4 307/2/4
f 306/1/4 304/1/4 307/1/4
f 307/2/4 305/2/4 308/2/4
f 309/1/4 310/1/4 312/1/4
f 310/2/4 311/2/4 313/2/4
f 312/1/4 310/1/4 313/1/4
f 313/2/4 311/2/4 314/2/4
f 315/1/4 316/1/4 319/1/4
f 316/2/4 317/2/4 320/2/4
f 319/1/4 316/1/4 320/1/4
f 317/4/4 318/4/4 321/4/4
f 320/2/4 317/2/4 321/2/4
f 321/4/4 318/4/4 322/4/4
f 322/4/4 323/4/4 326/4/4
f 321/4/4 322/4/4 326/4/4
f 326/4/4 323/4/4 327/4/4
f 327/4/4 323/4/4 328/4/4
f 324/1/4 325/1/4 329/1/4
f 325/2/4 326/2/4 330/2/4
f 329/1/4 325/1/4 330/1/4
f 326/4/4 327/4/4 331/4/4
f 330/2/4 326/2/4 331/2/4
f 331/4/4 327/4/4 332/4/4
f 337/1/5 334/1/5 333/1/5
f 338/1/5 334/1/5 337/1/5
f 339/1/5 336/1/5 335/1/5
f 340/1/5 336/1/5 339/1/5
f 345/1/5 342/1/5 341/1/5
f 346/1/5 342/1/5 345/1/5
f 347/1/5 344/1/5 343/1/5
f 348/1/5 344/1/5 347/1/5
f 353/1/5 350/1/5 349/1/5
f 354/1/5 350/1/5 353/1/5
f 355/1/5 352/1/5 351/1/5
f 356/1/5 352/1/5 355/1/5
f 361/1/5 358/1/5 357/1/5
f 362/1/5 358/1/5 361/1/5
f 363/1/5 360/1/5 359/1/5
f 364/1/5 360/1/5 363/1/5
f 369/1/5 366/1/5 365/1/5
f 370/1/5 366/1/5 369/1/5
f 371/1/5 368/1/5 367/1/5
f 372/1/5 368/1/5 371/1/5
f 377/1/5 374/1/5 373/1/5
f 378/1/5 374/1/5 377/1/5
f 379/1/5 376/1/5 375/1/5
f 380/1/5 376/1/5 379/1/5
f 384/4/5 382/4/5 381/4/5
f 385/4/5 382/4/5 384/4/5
f 387/4/5 384/4/5 383/4/5
f 387/4/5 386/4/5 385/4/5
f 387/4/5 385/4/5 384/4/5
f 388/4/5 386/4/5 387/4/5
f 389/4/5 386/4/5 388/4/5
f 390/4/5 386/4/5 389/4/5
f 392/4/5 389/4/5 388/4/5
f 393/4/5 389/4/5 392/4/5
f 395/4/5 392/4/5 391/4/5
f 395/4/5 394/4/5 393/4/5
f 395/4/5 393/4/5 392/4/5
f 396/4/5 394/4/5 395/4/5
f 397/4/5 394/4/5 396/4/5
f 398/4/5 394/4/5 397/4/5
f 400/4/5 397/4/5 396/4/5
f 401/4/5 397/4/5 400/4/5
f 403/4/5 400/4/5 399/4/5
f 403/4/5 402/4/5 401/4/5
f 403/4/5 401/4/5 400/4/5
f 404/4/5 402/4/5 403/4/5
f 405/4/5 402/4/5 404/4/5
f 406/4/5 402/4/5 405/4/5
f 408/4/5 405/4/5 404/4/5
f 409/4/5 405/4/5 408/4/5
f 411/4/5 408/4/5 407/4/5
f 411/4/5 410/4/5 409/4/5
f 411/4/5 409/4/5 408/4/5
f 412/4/5 410/4/5 411/4/5
f 413/4/5 410/4/5 412/4/5
f 414/4/5 410/4/5 413/4/5
f 416/4/5 413/4/5 412/4/5
f 417/4/5 413/4/5 416/4/5
f 419/4/5 416/4/5 415/4/5
f 419/4/5 418/4/5 417/4/5
f 419/4/5 417/4/5 416/4/5
f 420/4/5 418/4/5 419/4/5
f 421/4/5 418/4/5 420/4/5
f 422/4/5 418/4/5 421/4/5
f 423/4/5 421/4/5 420/4/5
f 424/4/5 421/4/5 423/4/5
f 425/4/6 426/4/6 429/4/6
f 427/4/6 428/4/6 430/4/6
f 425/4/6 429/4/6 431/4/6
f 430/4/6 428/4/6 432/4/6
f 425/4/6 431/4/6 433/4/6
f 425/4/6 433/4/6 434/4/6
f 432/4/6 428/4/6 435/4/6
f 435/4/6 428/4/6 436/4/6
f 425/4/6 434/4/6 437/4/6
f 425/4/6 437/4/6 438/4/6
f 425/4/6 438/4/6 439/4/6
f 439/4/6 438/4/6 440/4/6
f 436/4/6 428/4/6 441/4/6
f 441/4/6 428/4/6 442/4/6
f 443/4/6 444/4/6 445/4/6
f 445/4/6 444/4/6 446/4/6
f 446/4/6 444/4/6 447/4/6
f 447/4/6 444/4/6 448/4/6
f 445/3/6 446/3/6 449/3/6
f 446/4/6 447/4/6 450/4/6
f 449/3/6 446/3/6 450/3/6
f 447/3/6 448/3/6 451/3/6
f 450/4/6 447/4/6 451/4/6
f 451/3/6 448/3/6 452/3/6
f 449/4/6 450/4/6 453/4/6
f 450/3/6 451/3/6 453/3/6
f 451/4/6 452/4/6 454/4/6
f 453/3/6 451/3/6 454/3/6
f 449/4/6 453/4/6 455/4/6
f 453/4/6 454/4/6 455/4/6
f 455/4/6 454/4/6 456/4/6
f 456/4/6 454/4/6 457/4/6
f 454/4/6 452/4/6 458/4/6
f 457/4/6 454/4/6 458/4/6
f 456/4/6 457/4/6 459/4/6
f 457/3/6 458/3/6 459/3/6
f 458/4/6 452/4/6 460/4/6
f 459/3/6 458/3/6 460/3/6
f 455/3/6 456/3/6 461/3/6
f 456/4/6 459/4/6 462/4/6
f 461/3/6 456/3/6 462/3/6
f 459/4/6 460/4/6 462/4/6
f 462/4/6 460/4/6 463/4/6
f 460/4/6 452/4/6 464/4/6
f 463/4/6 460/4/6 464/4/6
f 462/4/6 463/4/6 465/4/6
f 461/4/6 462/4/6 465/4/6
f 463/3/6 464/3/6 465/3/6
f 465/3/6 464/3/6 466/3/6
f 461/4/6 465/4/6 467/4/6
f 465/4/6 466/4/6 467/4/6
f 467/4/6 466/4/6 468/4/6
f 467/3/6 468/3/6 469/3/6
f 468/4/6 466/4/6 470/4/6
f 469/3/6 468/3/6 470/3/6
f 469/4/6 470/4/6 471/4/6
f 470/4/6 466/4/6 472/4/6
f 471/4/6 470/4/6 472/4/6
