# MagicaVoxel @ Ephtracy

# group
o 

# material
mtllib trans_3.mtl
usemtl palette

# normals
vn -1 0 0
vn 1 0 0
vn 0 0 1
vn 0 0 -1
vn 0 -1 0
vn 0 1 0

# texcoords
vt 0.755859 0.5
vt 0.759766 0.5
vt 0.892578 0.5
vt 0.962891 0.5
vt 0.966797 0.5

# verts
v -0.5 1.2 0.3
v -0.5 1.2 0.1
v -0.5 1.3 0.4
v -0.5 1.3 0.3
v -0.5 1.3 0.1
v -0.5 1.3 5.96046e-08
v -0.5 1.4 0.5
v -0.5 1.4 0.4
v -0.5 1.4 0.3
v -0.5 1.4 0.1
v -0.5 1.4 5.96046e-08
v -0.5 1.4 -0.1
v -0.5 1.7 0.5
v -0.5 1.7 0.4
v -0.5 1.7 5.96046e-08
v -0.5 1.7 -0.1
v -0.5 1.8 0.4
v -0.5 1.8 0.3
v -0.5 1.8 0.1
v -0.5 1.8 5.96046e-08
v -0.5 1.9 0.3
v -0.5 1.9 0.1
v -0.4 1.2 0.5
v -0.4 1.2 0.3
v -0.4 1.2 0.1
v -0.4 1.2 -0.1
v -0.4 1.3 0.4
v -0.4 1.3 0.3
v -0.4 1.3 0.1
v -0.4 1.3 5.96046e-08
v -0.4 1.4 0.6
v -0.4 1.4 0.5
v -0.4 1.4 0.4
v -0.4 1.4 5.96046e-08
v -0.4 1.4 -0.1
v -0.4 1.4 -0.2
v -0.4 1.7 0.6
v -0.4 1.7 0.5
v -0.4 1.7 0.4
v -0.4 1.7 5.96046e-08
v -0.4 1.7 -0.1
v -0.4 1.7 -0.2
v -0.4 1.8 0.4
v -0.4 1.8 0.3
v -0.4 1.8 0.1
v -0.4 1.8 5.96046e-08
v -0.4 1.9 0.5
v -0.4 1.9 0.3
v -0.4 1.9 0.1
v -0.4 1.9 -0.1
v -0.3 0 0.3
v -0.3 0 0.2
v -0.3 0 0.1
v -0.3 0.1 0.3
v -0.3 0.1 0.2
v -0.3 0.1 0.1
v -0.3 0.2 0.3
v -0.3 0.2 0.2
v -0.3 0.2 0.1
v -0.3 1.2 0.3
v -0.3 1.2 0.1
v -0.3 1.3 0.6
v -0.3 1.3 0.5
v -0.3 1.3 -0.1
v -0.3 1.3 -0.2
v -0.3 1.4 0.6
v -0.3 1.4 0.5
v -0.3 1.4 -0.1
v -0.3 1.4 -0.2
v -0.3 1.7 0.6
v -0.3 1.7 0.5
v -0.3 1.7 -0.1
v -0.3 1.7 -0.2
v -0.3 1.8 0.6
v -0.3 1.8 0.5
v -0.3 1.8 -0.1
v -0.3 1.8 -0.2
v -0.3 1.9 0.3
v -0.3 1.9 0.1
v -0.3 2 0.3
v -0.3 2 0.1
v -0.2 1.2 0.6
v -0.2 1.2 0.5
v -0.2 1.2 -0.1
v -0.2 1.2 -0.2
v -0.2 1.3 0.6
v -0.2 1.3 0.5
v -0.2 1.3 -0.1
v -0.2 1.3 -0.2
v -0.2 1.8 0.6
v -0.2 1.8 0.5
v -0.2 1.8 -0.1
v -0.2 1.8 -0.2
v -0.2 1.9 0.6
v -0.2 1.9 0.5
v -0.2 1.9 0.4
v -0.2 1.9 0.3
v -0.2 1.9 0.1
v -0.2 1.9 5.96046e-08
v -0.2 1.9 -0.1
v -0.2 1.9 -0.2
v -0.2 2 0.4
v -0.2 2 0.3
v -0.2 2 0.1
v -0.2 2 5.96046e-08
v 0 0 0.3
v 0 0 0.2
v 0 0 0.1
v 0 0.1 0.3
v 0 0.1 0.2
v 0 0.1 0.1
v 0 0.2 0.3
v 0 0.2 0.2
v 0 0.2 0.1
v 0 1.2 0.3
v 0 1.2 0.1
v -0.2 0 0.3
v -0.2 0 0.2
v -0.2 0 0.1
v -0.2 0.1 0.3
v -0.2 0.1 0.2
v -0.2 0.1 0.1
v -0.2 0.2 0.3
v -0.2 0.2 0.2
v -0.2 0.2 0.1
v -0.2 1.2 0.3
v -0.2 1.2 0.1
v 0 1.2 0.6
v 0 1.2 0.5
v 0 1.2 -0.1
v 0 1.2 -0.2
v 0 1.3 0.6
v 0 1.3 0.5
v 0 1.3 -0.1
v 0 1.3 -0.2
v 0 1.8 0.6
v 0 1.8 0.5
v 0 1.8 -0.1
v 0 1.8 -0.2
v 0 1.9 0.6
v 0 1.9 0.5
v 0 1.9 0.4
v 0 1.9 0.3
v 0 1.9 0.1
v 0 1.9 5.96046e-08
v 0 1.9 -0.1
v 0 1.9 -0.2
v 0 2 0.4
v 0 2 0.3
v 0 2 0.1
v 0 2 5.96046e-08
v 0.1 0 0.3
v 0.1 0 0.2
v 0.1 0 0.1
v 0.1 0.1 0.3
v 0.1 0.1 0.2
v 0.1 0.1 0.1
v 0.1 0.2 0.3
v 0.1 0.2 0.2
v 0.1 0.2 0.1
v 0.1 1.2 0.3
v 0.1 1.2 0.1
v 0.1 1.3 0.6
v 0.1 1.3 0.5
v 0.1 1.3 -0.1
v 0.1 1.3 -0.2
v 0.1 1.4 0.6
v 0.1 1.4 0.5
v 0.1 1.4 -0.1
v 0.1 1.4 -0.2
v 0.1 1.7 0.6
v 0.1 1.7 0.5
v 0.1 1.7 -0.1
v 0.1 1.7 -0.2
v 0.1 1.8 0.6
v 0.1 1.8 0.5
v 0.1 1.8 -0.1
v 0.1 1.8 -0.2
v 0.1 1.9 0.3
v 0.1 1.9 0.1
v 0.1 2 0.3
v 0.1 2 0.1
v 0.2 1.2 0.5
v 0.2 1.2 0.3
v 0.2 1.2 0.1
v 0.2 1.2 -0.1
v 0.2 1.3 0.4
v 0.2 1.3 0.3
v 0.2 1.3 0.1
v 0.2 1.3 5.96046e-08
v 0.2 1.4 0.6
v 0.2 1.4 0.5
v 0.2 1.4 0.4
v 0.2 1.4 5.96046e-08
v 0.2 1.4 -0.1
v 0.2 1.4 -0.2
v 0.2 1.7 0.6
v 0.2 1.7 0.5
v 0.2 1.7 0.4
v 0.2 1.7 5.96046e-08
v 0.2 1.7 -0.1
v 0.2 1.7 -0.2
v 0.2 1.8 0.4
v 0.2 1.8 0.3
v 0.2 1.8 0.1
v 0.2 1.8 5.96046e-08
v 0.2 1.9 0.5
v 0.2 1.9 0.3
v 0.2 1.9 0.1
v 0.2 1.9 -0.1
v 0.3 1.2 0.3
v 0.3 1.2 0.1
v 0.3 1.3 0.4
v 0.3 1.3 0.3
v 0.3 1.3 0.1
v 0.3 1.3 5.96046e-08
v 0.3 1.4 0.5
v 0.3 1.4 0.4
v 0.3 1.4 0.3
v 0.3 1.4 0.1
v 0.3 1.4 5.96046e-08
v 0.3 1.4 -0.1
v 0.3 1.7 0.5
v 0.3 1.7 0.4
v 0.3 1.7 5.96046e-08
v 0.3 1.7 -0.1
v 0.3 1.8 0.4
v 0.3 1.8 0.3
v 0.3 1.8 0.1
v 0.3 1.8 5.96046e-08
v 0.3 1.9 0.3
v 0.3 1.9 0.1
v -0.4 1.4 0.6
v -0.4 1.7 0.6
v -0.3 1.3 0.6
v -0.3 1.4 0.6
v -0.3 1.7 0.6
v -0.3 1.8 0.6
v -0.2 1.2 0.6
v -0.2 1.3 0.6
v -0.2 1.4 0.6
v -0.2 1.8 0.6
v -0.2 1.9 0.6
v 0 1.2 0.6
v 0 1.3 0.6
v 0 1.4 0.6
v 0 1.8 0.6
v 0 1.9 0.6
v 0.1 1.3 0.6
v 0.1 1.4 0.6
v 0.1 1.7 0.6
v 0.1 1.8 0.6
v 0.2 1.4 0.6
v 0.2 1.7 0.6
v -0.5 1.4 0.5
v -0.5 1.7 0.5
v -0.4 1.2 0.5
v -0.4 1.4 0.5
v -0.4 1.7 0.5
v -0.4 1.9 0.5
v -0.3 1.3 0.5
v -0.3 1.4 0.5
v -0.3 1.7 0.5
v -0.3 1.8 0.5
v -0.2 1.2 0.5
v -0.2 1.3 0.5
v -0.2 1.8 0.5
v -0.2 1.9 0.5
v 0 1.2 0.5
v 0 1.3 0.5
v 0 1.8 0.5
v 0 1.9 0.5
v 0.1 1.3 0.5
v 0.1 1.4 0.5
v 0.1 1.7 0.5
v 0.1 1.8 0.5
v 0.2 1.2 0.5
v 0.2 1.4 0.5
v 0.2 1.7 0.5
v 0.2 1.9 0.5
v 0.3 1.4 0.5
v 0.3 1.7 0.5
v -0.5 1.3 0.4
v -0.5 1.4 0.4
v -0.5 1.7 0.4
v -0.5 1.8 0.4
v -0.4 1.3 0.4
v -0.4 1.4 0.4
v -0.4 1.7 0.4
v -0.4 1.8 0.4
v -0.2 1.9 0.4
v -0.2 2 0.4
v 0 1.9 0.4
v 0 2 0.4
v 0.2 1.3 0.4
v 0.2 1.4 0.4
v 0.2 1.7 0.4
v 0.2 1.8 0.4
v 0.3 1.3 0.4
v 0.3 1.4 0.4
v 0.3 1.7 0.4
v 0.3 1.8 0.4
v -0.5 1.2 0.3
v -0.5 1.3 0.3
v -0.5 1.8 0.3
v -0.5 1.9 0.3
v -0.4 1.2 0.3
v -0.4 1.3 0.3
v -0.4 1.8 0.3
v -0.4 1.9 0.3
v -0.3 0 0.3
v -0.3 0.1 0.3
v -0.3 0.2 0.3
v -0.3 1.2 0.3
v -0.3 1.9 0.3
v -0.3 2 0.3
v -0.2 0 0.3
v -0.2 0.1 0.3
v -0.2 0.2 0.3
v -0.2 1.2 0.3
v -0.2 1.9 0.3
v -0.2 2 0.3
v 0 0 0.3
v 0 0.1 0.3
v 0 0.2 0.3
v 0 1.2 0.3
v 0 1.9 0.3
v 0 2 0.3
v 0.1 0 0.3
v 0.1 0.1 0.3
v 0.1 0.2 0.3
v 0.1 1.2 0.3
v 0.1 1.9 0.3
v 0.1 2 0.3
v 0.2 1.2 0.3
v 0.2 1.3 0.3
v 0.2 1.8 0.3
v 0.2 1.9 0.3
v 0.3 1.2 0.3
v 0.3 1.3 0.3
v 0.3 1.8 0.3
v 0.3 1.9 0.3
v -0.5 1.2 0.1
v -0.5 1.3 0.1
v -0.5 1.8 0.1
v -0.5 1.9 0.1
v -0.4 1.2 0.1
v -0.4 1.3 0.1
v -0.4 1.8 0.1
v -0.4 1.9 0.1
v -0.3 0 0.1
v -0.3 0.1 0.1
v -0.3 0.2 0.1
v -0.3 1.2 0.1
v -0.3 1.9 0.1
v -0.3 2 0.1
v -0.2 0 0.1
v -0.2 0.1 0.1
v -0.2 0.2 0.1
v -0.2 1.2 0.1
v -0.2 1.9 0.1
v -0.2 2 0.1
v 0 0 0.1
v 0 0.1 0.1
v 0 0.2 0.1
v 0 1.2 0.1
v 0 1.9 0.1
v 0 2 0.1
v 0.1 0 0.1
v 0.1 0.1 0.1
v 0.1 0.2 0.1
v 0.1 1.2 0.1
v 0.1 1.9 0.1
v 0.1 2 0.1
v 0.2 1.2 0.1
v 0.2 1.3 0.1
v 0.2 1.8 0.1
v 0.2 1.9 0.1
v 0.3 1.2 0.1
v 0.3 1.3 0.1
v 0.3 1.8 0.1
v 0.3 1.9 0.1
v -0.5 1.3 5.96046e-08
v -0.5 1.4 5.96046e-08
v -0.5 1.7 5.96046e-08
v -0.5 1.8 5.96046e-08
v -0.4 1.3 5.96046e-08
v -0.4 1.4 5.96046e-08
v -0.4 1.7 5.96046e-08
v -0.4 1.8 5.96046e-08
v -0.2 1.9 5.96046e-08
v -0.2 2 5.96046e-08
v 0 1.9 5.96046e-08
v 0 2 5.96046e-08
v 0.2 1.3 5.96046e-08
v 0.2 1.4 5.96046e-08
v 0.2 1.7 5.96046e-08
v 0.2 1.8 5.96046e-08
v 0.3 1.3 5.96046e-08
v 0.3 1.4 5.96046e-08
v 0.3 1.7 5.96046e-08
v 0.3 1.8 5.96046e-08
v -0.5 1.4 -0.1
v -0.5 1.7 -0.1
v -0.4 1.2 -0.1
v -0.4 1.4 -0.1
v -0.4 1.7 -0.1
v -0.4 1.9 -0.1
v -0.3 1.3 -0.1
v -0.3 1.4 -0.1
v -0.3 1.7 -0.1
v -0.3 1.8 -0.1
v -0.2 1.2 -0.1
v -0.2 1.3 -0.1
v -0.2 1.8 -0.1
v -0.2 1.9 -0.1
v 0 1.2 -0.1
v 0 1.3 -0.1
v 0 1.8 -0.1
v 0 1.9 -0.1
v 0.1 1.3 -0.1
v 0.1 1.4 -0.1
v 0.1 1.7 -0.1
v 0.1 1.8 -0.1
v 0.2 1.2 -0.1
v 0.2 1.4 -0.1
v 0.2 1.7 -0.1
v 0.2 1.9 -0.1
v 0.3 1.4 -0.1
v 0.3 1.7 -0.1
v -0.4 1.4 -0.2
v -0.4 1.7 -0.2
v -0.3 1.3 -0.2
v -0.3 1.4 -0.2
v -0.3 1.7 -0.2
v -0.3 1.8 -0.2
v -0.2 1.2 -0.2
v -0.2 1.3 -0.2
v -0.2 1.4 -0.2
v -0.2 1.8 -0.2
v -0.2 1.9 -0.2
v 0 1.2 -0.2
v 0 1.3 -0.2
v 0 1.4 -0.2
v 0 1.8 -0.2
v 0 1.9 -0.2
v 0.1 1.3 -0.2
v 0.1 1.4 -0.2
v 0.1 1.7 -0.2
v 0.1 1.8 -0.2
v 0.2 1.4 -0.2
v 0.2 1.7 -0.2
v -0.3 0 0.3
v -0.2 0 0.3
v 0 0 0.3
v 0.1 0 0.3
v -0.3 0 0.2
v -0.2 0 0.2
v 0 0 0.2
v 0.1 0 0.2
v -0.3 0 0.1
v -0.2 0 0.1
v 0 0 0.1
v 0.1 0 0.1
v -0.2 1.2 0.6
v 0 1.2 0.6
v -0.4 1.2 0.5
v -0.2 1.2 0.5
v 0 1.2 0.5
v 0.2 1.2 0.5
v -0.5 1.2 0.3
v -0.4 1.2 0.3
v -0.3 1.2 0.3
v -0.2 1.2 0.3
v 0 1.2 0.3
v 0.1 1.2 0.3
v 0.2 1.2 0.3
v 0.3 1.2 0.3
v -0.5 1.2 0.1
v -0.4 1.2 0.1
v -0.3 1.2 0.1
v -0.2 1.2 0.1
v 0 1.2 0.1
v 0.1 1.2 0.1
v 0.2 1.2 0.1
v 0.3 1.2 0.1
v -0.4 1.2 -0.1
v -0.2 1.2 -0.1
v 0 1.2 -0.1
v 0.2 1.2 -0.1
v -0.2 1.2 -0.2
v 0 1.2 -0.2
v -0.3 1.3 0.6
v -0.2 1.3 0.6
v 0 1.3 0.6
v 0.1 1.3 0.6
v -0.3 1.3 0.5
v -0.2 1.3 0.5
v 0 1.3 0.5
v 0.1 1.3 0.5
v -0.5 1.3 0.4
v -0.4 1.3 0.4
v 0.2 1.3 0.4
v 0.3 1.3 0.4
v -0.5 1.3 0.3
v -0.4 1.3 0.3
v 0.2 1.3 0.3
v 0.3 1.3 0.3
v -0.5 1.3 0.1
v -0.4 1.3 0.1
v 0.2 1.3 0.1
v 0.3 1.3 0.1
v -0.5 1.3 5.96046e-08
v -0.4 1.3 5.96046e-08
v 0.2 1.3 5.96046e-08
v 0.3 1.3 5.96046e-08
v -0.3 1.3 -0.1
v -0.2 1.3 -0.1
v 0 1.3 -0.1
v 0.1 1.3 -0.1
v -0.3 1.3 -0.2
v -0.2 1.3 -0.2
v 0 1.3 -0.2
v 0.1 1.3 -0.2
v -0.4 1.4 0.6
v -0.3 1.4 0.6
v 0.1 1.4 0.6
v 0.2 1.4 0.6
v -0.5 1.4 0.5
v -0.4 1.4 0.5
v -0.3 1.4 0.5
v 0.1 1.4 0.5
v 0.2 1.4 0.5
v 0.3 1.4 0.5
v -0.5 1.4 0.4
v -0.4 1.4 0.4
v 0.2 1.4 0.4
v 0.3 1.4 0.4
v -0.5 1.4 5.96046e-08
v -0.4 1.4 5.96046e-08
v 0.2 1.4 5.96046e-08
v 0.3 1.4 5.96046e-08
v -0.5 1.4 -0.1
v -0.4 1.4 -0.1
v -0.3 1.4 -0.1
v 0.1 1.4 -0.1
v 0.2 1.4 -0.1
v 0.3 1.4 -0.1
v -0.4 1.4 -0.2
v -0.3 1.4 -0.2
v 0.1 1.4 -0.2
v 0.2 1.4 -0.2
v -0.4 1.7 0.6
v -0.3 1.7 0.6
v 0.1 1.7 0.6
v 0.2 1.7 0.6
v -0.5 1.7 0.5
v -0.4 1.7 0.5
v -0.3 1.7 0.5
v 0.1 1.7 0.5
v 0.2 1.7 0.5
v 0.3 1.7 0.5
v -0.5 1.7 0.4
v -0.4 1.7 0.4
v 0.2 1.7 0.4
v 0.3 1.7 0.4
v -0.5 1.7 5.96046e-08
v -0.4 1.7 5.96046e-08
v 0.2 1.7 5.96046e-08
v 0.3 1.7 5.96046e-08
v -0.5 1.7 -0.1
v -0.4 1.7 -0.1
v -0.3 1.7 -0.1
v 0.1 1.7 -0.1
v 0.2 1.7 -0.1
v 0.3 1.7 -0.1
v -0.4 1.7 -0.2
v -0.3 1.7 -0.2
v 0.1 1.7 -0.2
v 0.2 1.7 -0.2
v -0.3 1.8 0.6
v -0.2 1.8 0.6
v 0 1.8 0.6
v 0.1 1.8 0.6
v -0.3 1.8 0.5
v -0.2 1.8 0.5
v 0 1.8 0.5
v 0.1 1.8 0.5
v -0.5 1.8 0.4
v -0.4 1.8 0.4
v 0.2 1.8 0.4
v 0.3 1.8 0.4
v -0.5 1.8 0.3
v -0.4 1.8 0.3
v 0.2 1.8 0.3
v 0.3 1.8 0.3
v -0.5 1.8 0.1
v -0.4 1.8 0.1
v 0.2 1.8 0.1
v 0.3 1.8 0.1
v -0.5 1.8 5.96046e-08
v -0.4 1.8 5.96046e-08
v 0.2 1.8 5.96046e-08
v 0.3 1.8 5.96046e-08
v -0.3 1.8 -0.1
v -0.2 1.8 -0.1
v 0 1.8 -0.1
v 0.1 1.8 -0.1
v -0.3 1.8 -0.2
v -0.2 1.8 -0.2
v 0 1.8 -0.2
v 0.1 1.8 -0.2
v -0.2 1.9 0.6
v 0 1.9 0.6
v -0.4 1.9 0.5
v -0.2 1.9 0.5
v 0 1.9 0.5
v 0.2 1.9 0.5
v -0.2 1.9 0.4
v 0 1.9 0.4
v -0.5 1.9 0.3
v -0.4 1.9 0.3
v -0.3 1.9 0.3
v -0.2 1.9 0.3
v 0 1.9 0.3
v 0.1 1.9 0.3
v 0.2 1.9 0.3
v 0.3 1.9 0.3
v -0.5 1.9 0.1
v -0.4 1.9 0.1
v -0.3 1.9 0.1
v -0.2 1.9 0.1
v 0 1.9 0.1
v 0.1 1.9 0.1
v 0.2 1.9 0.1
v 0.3 1.9 0.1
v -0.2 1.9 5.96046e-08
v 0 1.9 5.96046e-08
v -0.4 1.9 -0.1
v -0.2 1.9 -0.1
v 0 1.9 -0.1
v 0.2 1.9 -0.1
v -0.2 1.9 -0.2
v 0 1.9 -0.2
v -0.2 2 0.4
v 0 2 0.4
v -0.3 2 0.3
v -0.2 2 0.3
v 0 2 0.3
v 0.1 2 0.3
v -0.3 2 0.1
v -0.2 2 0.1
v 0 2 0.1
v 0.1 2 0.1
v -0.2 2 5.96046e-08
v 0 2 5.96046e-08

# faces
f 4/2/1 2/2/1 1/2/1
f 5/2/1 2/2/1 4/2/1
f 8/2/1 4/2/1 3/2/1
f 9/1/1 5/1/1 4/1/1
f 9/2/1 4/2/1 8/2/1
f 10/2/1 6/2/1 5/2/1
f 10/1/1 5/1/1 9/1/1
f 11/2/1 6/2/1 10/2/1
f 13/1/1 9/1/1 8/1/1
f 13/1/1 12/1/1 11/1/1
f 13/1/1 11/1/1 10/1/1
f 13/1/1 10/1/1 9/1/1
f 13/1/1 8/1/1 7/1/1
f 14/1/1 12/1/1 13/1/1
f 15/1/1 12/1/1 14/1/1
f 16/1/1 12/1/1 15/1/1
f 17/1/1 15/1/1 14/1/1
f 18/1/1 15/1/1 17/1/1
f 19/1/1 15/1/1 18/1/1
f 20/1/1 15/1/1 19/1/1
f 21/1/1 19/1/1 18/1/1
f 22/1/1 19/1/1 21/1/1
f 27/2/1 24/2/1 23/2/1
f 28/2/1 24/2/1 27/2/1
f 29/2/1 26/2/1 25/2/1
f 30/2/1 26/2/1 29/2/1
f 32/2/1 27/2/1 23/2/1
f 33/2/1 27/2/1 32/2/1
f 34/2/1 26/2/1 30/2/1
f 35/2/1 26/2/1 34/2/1
f 37/1/1 32/1/1 31/1/1
f 38/1/1 32/1/1 37/1/1
f 41/1/1 36/1/1 35/1/1
f 42/1/1 36/1/1 41/1/1
f 43/1/1 39/1/1 38/1/1
f 46/1/1 41/1/1 40/1/1
f 47/1/1 44/1/1 43/1/1
f 47/1/1 43/1/1 38/1/1
f 48/1/1 44/1/1 47/1/1
f 49/1/1 46/1/1 45/1/1
f 50/1/1 41/1/1 46/1/1
f 50/1/1 46/1/1 49/1/1
f 54/3/1 52/3/1 51/3/1
f 55/5/1 53/5/1 52/5/1
f 55/3/1 52/3/1 54/3/1
f 56/5/1 53/5/1 55/5/1
f 57/5/1 55/5/1 54/5/1
f 58/3/1 56/3/1 55/3/1
f 58/5/1 55/5/1 57/5/1
f 59/3/1 56/3/1 58/3/1
f 60/4/1 58/4/1 57/4/1
f 60/4/1 59/4/1 58/4/1
f 61/4/1 59/4/1 60/4/1
f 66/2/1 63/2/1 62/2/1
f 67/2/1 63/2/1 66/2/1
f 68/2/1 65/2/1 64/2/1
f 69/2/1 65/2/1 68/2/1
f 74/1/1 71/1/1 70/1/1
f 75/1/1 71/1/1 74/1/1
f 76/1/1 73/1/1 72/1/1
f 77/1/1 73/1/1 76/1/1
f 80/1/1 79/1/1 78/1/1
f 81/1/1 79/1/1 80/1/1
f 86/2/1 83/2/1 82/2/1
f 87/2/1 83/2/1 86/2/1
f 88/2/1 85/2/1 84/2/1
f 89/2/1 85/2/1 88/2/1
f 94/1/1 91/1/1 90/1/1
f 95/1/1 91/1/1 94/1/1
f 100/1/1 93/1/1 92/1/1
f 101/1/1 93/1/1 100/1/1
f 102/1/1 97/1/1 96/1/1
f 103/1/1 97/1/1 102/1/1
f 104/1/1 99/1/1 98/1/1
f 105/1/1 99/1/1 104/1/1
f 109/3/1 107/3/1 106/3/1
f 110/5/1 108/5/1 107/5/1
f 110/3/1 107/3/1 109/3/1
f 111/5/1 108/5/1 110/5/1
f 112/5/1 110/5/1 109/5/1
f 113/3/1 111/3/1 110/3/1
f 113/5/1 110/5/1 112/5/1
f 114/3/1 111/3/1 113/3/1
f 115/4/1 113/4/1 112/4/1
f 115/4/1 114/4/1 113/4/1
f 116/4/1 114/4/1 115/4/1
f 117/3/2 118/3/2 120/3/2
f 118/5/2 119/5/2 121/5/2
f 120/3/2 118/3/2 121/3/2
f 121/5/2 119/5/2 122/5/2
f 120/5/2 121/5/2 123/5/2
f 121/3/2 122/3/2 124/3/2
f 123/5/2 121/5/2 124/5/2
f 124/3/2 122/3/2 125/3/2
f 123/4/2 124/4/2 126/4/2
f 124/4/2 125/4/2 126/4/2
f 126/4/2 125/4/2 127/4/2
f 128/2/2 129/2/2 132/2/2
f 132/2/2 129/2/2 133/2/2
f 130/2/2 131/2/2 134/2/2
f 134/2/2 131/2/2 135/2/2
f 136/1/2 137/1/2 140/1/2
f 140/1/2 137/1/2 141/1/2
f 138/1/2 139/1/2 146/1/2
f 146/1/2 139/1/2 147/1/2
f 142/1/2 143/1/2 148/1/2
f 148/1/2 143/1/2 149/1/2
f 144/1/2 145/1/2 150/1/2
f 150/1/2 145/1/2 151/1/2
f 152/3/2 153/3/2 155/3/2
f 153/5/2 154/5/2 156/5/2
f 155/3/2 153/3/2 156/3/2
f 156/5/2 154/5/2 157/5/2
f 155/5/2 156/5/2 158/5/2
f 156/3/2 157/3/2 159/3/2
f 158/5/2 156/5/2 159/5/2
f 159/3/2 157/3/2 160/3/2
f 158/4/2 159/4/2 161/4/2
f 159/4/2 160/4/2 161/4/2
f 161/4/2 160/4/2 162/4/2
f 163/2/2 164/2/2 167/2/2
f 167/2/2 164/2/2 168/2/2
f 165/2/2 166/2/2 169/2/2
f 169/2/2 166/2/2 170/2/2
f 171/1/2 172/1/2 175/1/2
f 175/1/2 172/1/2 176/1/2
f 173/1/2 174/1/2 177/1/2
f 177/1/2 174/1/2 178/1/2
f 179/1/2 180/1/2 181/1/2
f 181/1/2 180/1/2 182/1/2
f 183/2/2 184/2/2 187/2/2
f 187/2/2 184/2/2 188/2/2
f 185/2/2 186/2/2 189/2/2
f 189/2/2 186/2/2 190/2/2
f 183/2/2 187/2/2 192/2/2
f 192/2/2 187/2/2 193/2/2
f 190/2/2 186/2/2 194/2/2
f 194/2/2 186/2/2 195/2/2
f 191/1/2 192/1/2 197/1/2
f 197/1/2 192/1/2 198/1/2
f 195/1/2 196/1/2 201/1/2
f 201/1/2 196/1/2 202/1/2
f 198/1/2 199/1/2 203/1/2
f 200/1/2 201/1/2 206/1/2
f 203/1/2 204/1/2 207/1/2
f 198/1/2 203/1/2 207/1/2
f 207/1/2 204/1/2 208/1/2
f 205/1/2 206/1/2 209/1/2
f 206/1/2 201/1/2 210/1/2
f 209/1/2 206/1/2 210/1/2
f 211/2/2 212/2/2 214/2/2
f 214/2/2 212/2/2 215/2/2
f 213/2/2 214/2/2 218/2/2
f 214/1/2 215/1/2 219/1/2
f 218/2/2 214/2/2 219/2/2
f 215/2/2 216/2/2 220/2/2
f 219/1/2 215/1/2 220/1/2
f 220/2/2 216/2/2 221/2/2
f 218/1/2 219/1/2 223/1/2
f 221/1/2 222/1/2 223/1/2
f 220/1/2 221/1/2 223/1/2
f 219/1/2 220/1/2 223/1/2
f 217/1/2 218/1/2 223/1/2
f 223/1/2 222/1/2 224/1/2
f 224/1/2 222/1/2 225/1/2
f 225/1/2 222/1/2 226/1/2
f 224/1/2 225/1/2 227/1/2
f 227/1/2 225/1/2 228/1/2
f 228/1/2 225/1/2 229/1/2
f 229/1/2 225/1/2 230/1/2
f 228/1/2 229/1/2 231/1/2
f 231/1/2 229/1/2 232/1/2
f 236/1/3 234/1/3 233/1/3
f 237/1/3 234/1/3 236/1/3
f 240/2/3 236/2/3 235/2/3
f 241/1/3 238/1/3 237/1/3
f 241/1/3 237/1/3 236/1/3
f 241/2/3 236/2/3 240/2/3
f 242/1/3 238/1/3 241/1/3
f 244/2/3 240/2/3 239/2/3
f 245/1/3 243/1/3 242/1/3
f 245/2/3 240/2/3 244/2/3
f 245/1/3 241/1/3 240/1/3
f 245/1/3 242/1/3 241/1/3
f 246/1/3 243/1/3 245/1/3
f 247/1/3 243/1/3 246/1/3
f 248/1/3 243/1/3 247/1/3
f 249/2/3 246/2/3 245/2/3
f 250/1/3 247/1/3 246/1/3
f 250/2/3 246/2/3 249/2/3
f 251/1/3 247/1/3 250/1/3
f 252/1/3 247/1/3 251/1/3
f 253/1/3 251/1/3 250/1/3
f 254/1/3 251/1/3 253/1/3
f 258/1/3 256/1/3 255/1/3
f 259/1/3 256/1/3 258/1/3
f 261/2/3 258/2/3 257/2/3
f 262/2/3 258/2/3 261/2/3
f 263/1/3 260/1/3 259/1/3
f 264/1/3 260/1/3 263/1/3
f 265/2/3 261/2/3 257/2/3
f 266/2/3 261/2/3 265/2/3
f 267/1/3 260/1/3 264/1/3
f 268/1/3 260/1/3 267/1/3
f 273/2/3 270/2/3 269/2/3
f 276/1/3 272/1/3 271/1/3
f 277/2/3 274/2/3 273/2/3
f 277/2/3 273/2/3 269/2/3
f 278/2/3 274/2/3 277/2/3
f 279/1/3 276/1/3 275/1/3
f 280/1/3 272/1/3 276/1/3
f 280/1/3 276/1/3 279/1/3
f 281/1/3 279/1/3 278/1/3
f 282/1/3 279/1/3 281/1/3
f 287/2/3 284/2/3 283/2/3
f 288/2/3 284/2/3 287/2/3
f 289/1/3 286/1/3 285/1/3
f 290/1/3 286/1/3 289/1/3
f 293/1/3 292/1/3 291/1/3
f 294/1/3 292/1/3 293/1/3
f 299/2/3 296/2/3 295/2/3
f 300/2/3 296/2/3 299/2/3
f 301/1/3 298/1/3 297/1/3
f 302/1/3 298/1/3 301/1/3
f 307/2/3 304/2/3 303/2/3
f 308/2/3 304/2/3 307/2/3
f 309/1/3 306/1/3 305/1/3
f 310/1/3 306/1/3 309/1/3
f 317/3/3 312/3/3 311/3/3
f 318/5/3 313/5/3 312/5/3
f 318/3/3 312/3/3 317/3/3
f 319/4/3 314/4/3 313/4/3
f 319/5/3 313/5/3 318/5/3
f 320/4/3 314/4/3 319/4/3
f 321/1/3 316/1/3 315/1/3
f 322/1/3 316/1/3 321/1/3
f 329/3/3 324/3/3 323/3/3
f 330/5/3 325/5/3 324/5/3
f 330/3/3 324/3/3 329/3/3
f 331/4/3 326/4/3 325/4/3
f 331/5/3 325/5/3 330/5/3
f 332/4/3 326/4/3 331/4/3
f 333/1/3 328/1/3 327/1/3
f 334/1/3 328/1/3 333/1/3
f 339/2/3 336/2/3 335/2/3
f 340/2/3 336/2/3 339/2/3
f 341/1/3 338/1/3 337/1/3
f 342/1/3 338/1/3 341/1/3
f 343/2/4 344/2/4 347/2/4
f 347/2/4 344/2/4 348/2/4
f 345/1/4 346/1/4 349/1/4
f 349/1/4 346/1/4 350/1/4
f 351/5/4 352/5/4 357/5/4
f 352/3/4 353/3/4 358/3/4
f 357/5/4 352/5/4 358/5/4
f 353/4/4 354/4/4 359/4/4
f 358/3/4 353/3/4 359/3/4
f 359/4/4 354/4/4 360/4/4
f 355/1/4 356/1/4 361/1/4
f 361/1/4 356/1/4 362/1/4
f 363/5/4 364/5/4 369/5/4
f 364/3/4 365/3/4 370/3/4
f 369/5/4 364/5/4 370/5/4
f 365/4/4 366/4/4 371/4/4
f 370/3/4 365/3/4 371/3/4
f 371/4/4 366/4/4 372/4/4
f 367/1/4 368/1/4 373/1/4
f 373/1/4 368/1/4 374/1/4
f 375/2/4 376/2/4 379/2/4
f 379/2/4 376/2/4 380/2/4
f 377/1/4 378/1/4 381/1/4
f 381/1/4 378/1/4 382/1/4
f 383/2/4 384/2/4 387/2/4
f 387/2/4 384/2/4 388/2/4
f 385/1/4 386/1/4 389/1/4
f 389/1/4 386/1/4 390/1/4
f 391/1/4 392/1/4 393/1/4
f 393/1/4 392/1/4 394/1/4
f 395/2/4 396/2/4 399/2/4
f 399/2/4 396/2/4 400/2/4
f 397/1/4 398/1/4 401/1/4
f 401/1/4 398/1/4 402/1/4
f 403/1/4 404/1/4 406/1/4
f 406/1/4 404/1/4 407/1/4
f 405/2/4 406/2/4 409/2/4
f 409/2/4 406/2/4 410/2/4
f 407/1/4 408/1/4 411/1/4
f 411/1/4 408/1/4 412/1/4
f 405/2/4 409/2/4 413/2/4
f 413/2/4 409/2/4 414/2/4
f 412/1/4 408/1/4 415/1/4
f 415/1/4 408/1/4 416/1/4
f 417/2/4 418/2/4 421/2/4
f 419/1/4 420/1/4 424/1/4
f 421/2/4 422/2/4 425/2/4
f 417/2/4 421/2/4 425/2/4
f 425/2/4 422/2/4 426/2/4
f 423/1/4 424/1/4 427/1/4
f 424/1/4 420/1/4 428/1/4
f 427/1/4 424/1/4 428/1/4
f 426/1/4 427/1/4 429/1/4
f 429/1/4 427/1/4 430/1/4
f 431/1/4 432/1/4 434/1/4
f 434/1/4 432/1/4 435/1/4
f 433/2/4 434/2/4 438/2/4
f 435/1/4 436/1/4 439/1/4
f 434/1/4 435/1/4 439/1/4
f 438/2/4 434/2/4 439/2/4
f 439/1/4 436/1/4 440/1/4
f 437/2/4 438/2/4 442/2/4
f 440/1/4 441/1/4 443/1/4
f 442/2/4 438/2/4 443/2/4
f 438/1/4 439/1/4 443/1/4
f 439/1/4 440/1/4 443/1/4
f 443/1/4 441/1/4 444/1/4
f 444/1/4 441/1/4 445/1/4
f 445/1/4 441/1/4 446/1/4
f 443/2/4 444/2/4 447/2/4
f 444/1/4 445/1/4 448/1/4
f 447/2/4 444/2/4 448/2/4
f 448/1/4 445/1/4 449/1/4
f 449/1/4 445/1/4 450/1/4
f 448/1/4 449/1/4 451/1/4
f 451/1/4 449/1/4 452/1/4
f 457/3/5 454/3/5 453/3/5
f 458/3/5 454/3/5 457/3/5
f 459/3/5 456/3/5 455/3/5
f 460/3/5 456/3/5 459/3/5
f 461/5/5 458/5/5 457/5/5
f 462/5/5 458/5/5 461/5/5
f 463/5/5 460/5/5 459/5/5
f 464/5/5 460/5/5 463/5/5
f 468/2/5 466/2/5 465/2/5
f 469/2/5 466/2/5 468/2/5
f 472/2/5 468/2/5 467/2/5
f 472/2/5 470/2/5 469/2/5
f 472/2/5 469/2/5 468/2/5
f 473/2/5 470/2/5 472/2/5
f 474/2/5 470/2/5 473/2/5
f 475/2/5 470/2/5 474/2/5
f 476/2/5 470/2/5 475/2/5
f 477/2/5 470/2/5 476/2/5
f 479/2/5 472/2/5 471/2/5
f 479/2/5 473/2/5 472/2/5
f 480/2/5 473/2/5 479/2/5
f 481/2/5 473/2/5 480/2/5
f 482/2/5 475/2/5 474/2/5
f 483/2/5 475/2/5 482/2/5
f 484/2/5 478/2/5 477/2/5
f 484/2/5 477/2/5 476/2/5
f 485/2/5 478/2/5 484/2/5
f 486/2/5 478/2/5 485/2/5
f 487/2/5 483/2/5 482/2/5
f 487/2/5 482/2/5 481/2/5
f 487/2/5 485/2/5 484/2/5
f 487/2/5 484/2/5 483/2/5
f 487/2/5 481/2/5 480/2/5
f 488/2/5 485/2/5 487/2/5
f 489/2/5 485/2/5 488/2/5
f 490/2/5 485/2/5 489/2/5
f 491/2/5 489/2/5 488/2/5
f 492/2/5 489/2/5 491/2/5
f 497/2/5 494/2/5 493/2/5
f 498/2/5 494/2/5 497/2/5
f 499/2/5 496/2/5 495/2/5
f 500/2/5 496/2/5 499/2/5
f 505/2/5 502/2/5 501/2/5
f 506/2/5 502/2/5 505/2/5
f 507/2/5 504/2/5 503/2/5
f 508/2/5 504/2/5 507/2/5
f 513/2/5 510/2/5 509/2/5
f 514/2/5 510/2/5 513/2/5
f 515/2/5 512/2/5 511/2/5
f 516/2/5 512/2/5 515/2/5
f 521/2/5 518/2/5 517/2/5
f 522/2/5 518/2/5 521/2/5
f 523/2/5 520/2/5 519/2/5
f 524/2/5 520/2/5 523/2/5
f 530/1/5 526/1/5 525/1/5
f 531/1/5 526/1/5 530/1/5
f 532/1/5 528/1/5 527/1/5
f 533/1/5 528/1/5 532/1/5
f 535/1/5 530/1/5 529/1/5
f 536/1/5 530/1/5 535/1/5
f 537/1/5 534/1/5 533/1/5
f 538/1/5 534/1/5 537/1/5
f 543/1/5 540/1/5 539/1/5
f 544/1/5 540/1/5 543/1/5
f 547/1/5 542/1/5 541/1/5
f 548/1/5 542/1/5 547/1/5
f 549/1/5 545/1/5 544/1/5
f 550/1/5 545/1/5 549/1/5
f 551/1/5 547/1/5 546/1/5
f 552/1/5 547/1/5 551/1/5
f 553/1/6 554/1/6 558/1/6
f 558/1/6 554/1/6 559/1/6
f 555/1/6 556/1/6 560/1/6
f 560/1/6 556/1/6 561/1/6
f 557/1/6 558/1/6 563/1/6
f 563/1/6 558/1/6 564/1/6
f 561/1/6 562/1/6 565/1/6
f 565/1/6 562/1/6 566/1/6
f 567/1/6 568/1/6 571/1/6
f 571/1/6 568/1/6 572/1/6
f 569/1/6 570/1/6 575/1/6
f 575/1/6 570/1/6 576/1/6
f 572/1/6 573/1/6 577/1/6
f 577/1/6 573/1/6 578/1/6
f 574/1/6 575/1/6 579/1/6
f 579/1/6 575/1/6 580/1/6
f 581/1/6 582/1/6 585/1/6
f 585/1/6 582/1/6 586/1/6
f 583/1/6 584/1/6 587/1/6
f 587/1/6 584/1/6 588/1/6
f 589/1/6 590/1/6 593/1/6
f 593/1/6 590/1/6 594/1/6
f 591/1/6 592/1/6 595/1/6
f 595/1/6 592/1/6 596/1/6
f 597/1/6 598/1/6 601/1/6
f 601/1/6 598/1/6 602/1/6
f 599/1/6 600/1/6 603/1/6
f 603/1/6 600/1/6 604/1/6
f 605/1/6 606/1/6 609/1/6
f 609/1/6 606/1/6 610/1/6
f 607/1/6 608/1/6 611/1/6
f 611/1/6 608/1/6 612/1/6
f 613/1/6 614/1/6 616/1/6
f 616/1/6 614/1/6 617/1/6
f 615/1/6 616/1/6 619/1/6
f 617/1/6 618/1/6 619/1/6
f 616/1/6 617/1/6 619/1/6
f 619/1/6 618/1/6 620/1/6
f 615/1/6 619/1/6 622/1/6
f 622/1/6 619/1/6 623/1/6
f 623/1/6 619/1/6 624/1/6
f 620/1/6 618/1/6 625/1/6
f 625/1/6 618/1/6 626/1/6
f 626/1/6 618/1/6 627/1/6
f 621/1/6 622/1/6 629/1/6
f 622/1/6 623/1/6 629/1/6
f 629/1/6 623/1/6 630/1/6
f 630/1/6 623/1/6 631/1/6
f 627/1/6 628/1/6 634/1/6
f 626/1/6 627/1/6 634/1/6
f 634/1/6 628/1/6 635/1/6
f 635/1/6 628/1/6 636/1/6
f 631/1/6 632/1/6 637/1/6
f 630/1/6 631/1/6 637/1/6
f 634/1/6 635/1/6 638/1/6
f 633/1/6 634/1/6 638/1/6
f 630/1/6 637/1/6 639/1/6
f 637/1/6 638/1/6 639/1/6
f 639/1/6 638/1/6 640/1/6
f 638/1/6 635/1/6 641/1/6
f 640/1/6 638/1/6 641/1/6
f 641/1/6 635/1/6 642/1/6
f 640/1/6 641/1/6 643/1/6
f 643/1/6 641/1/6 644/1/6
f 645/1/6 646/1/6 648/1/6
f 648/1/6 646/1/6 649/1/6
f 647/1/6 648/1/6 651/1/6
f 649/1/6 650/1/6 651/1/6
f 648/1/6 649/1/6 651/1/6
f 651/1/6 650/1/6 652/1/6
f 652/1/6 650/1/6 653/1/6
f 653/1/6 650/1/6 654/1/6
f 652/1/6 653/1/6 655/1/6
f 655/1/6 653/1/6 656/1/6
