# MagicaVoxel @ Ephtracy

# group
o 

# material
mtllib box.mtl
usemtl palette

# normals
vn -1 0 0
vn 1 0 0
vn 0 0 1
vn 0 0 -1
vn 0 -1 0
vn 0 1 0

# texcoords
vt 0.533203 0.5
vt 0.564453 0.5
vt 0.595703 0.5
vt 0.626953 0.5
vt 0.658203 0.5

# verts
v -0.7 0 1.6
v -0.7 0 1.2
v -0.7 0 0.7
v -0.7 0 -0.7
v -0.7 0 -1.2
v -0.7 0 -1.6
v -0.7 0.1 1.6
v -0.7 0.1 1.4
v -0.7 0.1 1.3
v -0.7 0.1 1.2
v -0.7 0.1 1
v -0.7 0.1 0.8
v -0.7 0.1 -0.8
v -0.7 0.1 -1
v -0.7 0.1 -1.2
v -0.7 0.1 -1.3
v -0.7 0.1 -1.4
v -0.7 0.1 -1.6
v -0.7 0.2 1.3
v -0.7 0.2 1.2
v -0.7 0.2 0.8
v -0.7 0.2 0.7
v -0.7 0.2 -0.7
v -0.7 0.2 -0.8
v -0.7 0.2 -1.2
v -0.7 0.2 -1.3
v -0.7 0.3 1.6
v -0.7 0.3 1.4
v -0.7 0.3 1.3
v -0.7 0.3 1.2
v -0.7 0.3 1
v -0.7 0.3 0.8
v -0.7 0.3 0.7
v -0.7 0.3 -0.7
v -0.7 0.3 -0.8
v -0.7 0.3 -1
v -0.7 0.3 -1.2
v -0.7 0.3 -1.3
v -0.7 0.3 -1.4
v -0.7 0.3 -1.6
v -0.6 0 0.7
v -0.6 0 -0.7
v -0.6 0.1 0.7
v -0.6 0.1 0.6
v -0.6 0.1 -0.6
v -0.6 0.1 -0.7
v -0.6 0.2 0.7
v -0.6 0.2 0.6
v -0.6 0.2 -0.6
v -0.6 0.2 -0.7
v -0.6 0.3 1.5
v -0.6 0.3 1.4
v -0.6 0.3 1.3
v -0.6 0.3 1.2
v -0.6 0.3 1
v -0.6 0.3 0.8
v -0.6 0.3 0.7
v -0.6 0.3 0.5
v -0.6 0.3 0.3
v -0.6 0.3 0.2
v -0.6 0.3 -0.2
v -0.6 0.3 -0.3
v -0.6 0.3 -0.5
v -0.6 0.3 -0.7
v -0.6 0.3 -0.8
v -0.6 0.3 -1
v -0.6 0.3 -1.2
v -0.6 0.3 -1.3
v -0.6 0.3 -1.4
v -0.6 0.3 -1.5
v -0.6 0.4 1.5
v -0.6 0.4 1.3
v -0.6 0.4 1.2
v -0.6 0.4 0.9
v -0.6 0.4 0.5
v -0.6 0.4 0.4
v -0.6 0.4 0.3
v -0.6 0.4 0.2
v -0.6 0.4 0.1
v -0.6 0.4 -0.1
v -0.6 0.4 -0.2
v -0.6 0.4 -0.3
v -0.6 0.4 -0.4
v -0.6 0.4 -0.5
v -0.6 0.4 -0.9
v -0.6 0.4 -1.2
v -0.6 0.4 -1.3
v -0.6 0.4 -1.5
v -0.6 0.5 1.5
v -0.6 0.5 1.3
v -0.6 0.5 1.2
v -0.6 0.5 0.9
v -0.6 0.5 -0.9
v -0.6 0.5 -1.2
v -0.6 0.5 -1.3
v -0.6 0.5 -1.5
v -0.6 0.6 0.4
v -0.6 0.6 0.3
v -0.6 0.6 0.2
v -0.6 0.6 0.1
v -0.6 0.6 -0.1
v -0.6 0.6 -0.2
v -0.6 0.6 -0.3
v -0.6 0.6 -0.4
v -0.6 0.7 1.5
v -0.6 0.7 1.3
v -0.6 0.7 1.2
v -0.6 0.7 0.9
v -0.6 0.7 0.5
v -0.6 0.7 0.3
v -0.6 0.7 0.2
v -0.6 0.7 0.1
v -0.6 0.7 -0.1
v -0.6 0.7 -0.2
v -0.6 0.7 -0.3
v -0.6 0.7 -0.5
v -0.6 0.7 -0.9
v -0.6 0.7 -1.2
v -0.6 0.7 -1.3
v -0.6 0.7 -1.5
v -0.6 0.8 1.5
v -0.6 0.8 1.3
v -0.6 0.8 1.2
v -0.6 0.8 0.9
v -0.6 0.8 0.8
v -0.6 0.8 0.7
v -0.6 0.8 -0.7
v -0.6 0.8 -0.8
v -0.6 0.8 -0.9
v -0.6 0.8 -1.2
v -0.6 0.8 -1.3
v -0.6 0.8 -1.5
v -0.5 0.8 1.5
v -0.5 0.8 1.3
v -0.5 0.8 1.2
v -0.5 0.8 0.9
v -0.5 0.8 0.8
v -0.5 0.8 0.7
v -0.5 0.8 -0.7
v -0.5 0.8 -0.8
v -0.5 0.8 -0.9
v -0.5 0.8 -1.2
v -0.5 0.8 -1.3
v -0.5 0.8 -1.5
v -0.5 0.9 1.5
v -0.5 0.9 -1.5
v 0.4 0.2 1.4
v 0.4 0.2 0.7
v 0.4 0.2 -0.7
v 0.4 0.3 0.7
v 0.4 0.3 0.5
v 0.4 0.3 -0.5
v 0.4 0.3 -0.7
v 0.4 0.3 -1.4
v 0.4 0.4 1.4
v 0.4 0.4 0.7
v 0.4 0.4 0.5
v 0.4 0.4 -0.5
v 0.4 0.4 -0.7
v 0.4 0.4 -1.4
v 0.4 0.5 1.4
v 0.4 0.5 -1.4
v 0.4 0.6 0.7
v 0.4 0.6 0.5
v 0.4 0.6 -0.5
v 0.4 0.6 -0.7
v 0.4 0.7 1.4
v 0.4 0.7 0.7
v 0.4 0.7 0.5
v 0.4 0.7 -0.5
v 0.4 0.7 -0.7
v 0.4 0.7 -1.4
v 0.4 0.8 1.4
v 0.4 0.8 -1.4
v 0.4 0.9 1.4
v 0.4 0.9 -1.4
v 0.6 0.2 -0.7
v 0.6 0.2 -0.8
v 0.6 0.2 -1
v 0.6 0.2 -1.2
v 0.6 0.2 -1.3
v 0.6 0.2 -1.4
v 0.6 0.2 -1.5
v 0.6 0.3 -0.7
v 0.6 0.3 -0.8
v 0.6 0.3 -1
v 0.6 0.3 -1.2
v 0.6 0.3 -1.3
v 0.6 0.3 -1.4
v 0.6 0.3 -1.5
v -0.6 0.2 -0.7
v -0.6 0.2 -0.8
v -0.6 0.2 -1
v -0.6 0.2 -1.2
v -0.6 0.2 -1.3
v -0.6 0.2 -1.4
v -0.6 0.2 -1.5
v -0.6 0.3 -0.7
v -0.6 0.3 -0.8
v -0.6 0.3 -1
v -0.6 0.3 -1.2
v -0.6 0.3 -1.3
v -0.6 0.3 -1.4
v -0.6 0.3 -1.5
v -0.5 0.5 -0.7
v -0.5 0.5 -0.8
v -0.5 0.7 -0.7
v -0.5 0.7 -0.8
v -0.4 0.2 1.4
v -0.4 0.2 0.7
v -0.4 0.2 -0.7
v -0.4 0.3 -0.7
v -0.4 0.3 -1.4
v -0.4 0.4 1.4
v -0.4 0.4 -1.4
v -0.4 0.5 1.4
v -0.4 0.5 -0.7
v -0.4 0.5 -0.8
v -0.4 0.5 -1.4
v -0.4 0.7 1.4
v -0.4 0.7 -0.7
v -0.4 0.7 -0.8
v -0.4 0.7 -1.4
v -0.4 0.8 1.4
v -0.4 0.8 0.7
v -0.4 0.8 -0.7
v -0.4 0.8 -1.4
v -0.4 0.9 1.4
v -0.4 0.9 -1.4
v 0.5 0.3 0.7
v 0.5 0.3 0.5
v 0.5 0.3 -0.5
v 0.5 0.3 -0.7
v 0.5 0.4 0.7
v 0.5 0.4 0.5
v 0.5 0.4 -0.5
v 0.5 0.4 -0.7
v 0.5 0.6 0.7
v 0.5 0.6 0.5
v 0.5 0.6 -0.5
v 0.5 0.6 -0.7
v 0.5 0.7 0.7
v 0.5 0.7 0.5
v 0.5 0.7 0.3
v 0.5 0.7 0.2
v 0.5 0.7 0.1
v 0.5 0.7 -0.1
v 0.5 0.7 -0.2
v 0.5 0.7 -0.3
v 0.5 0.7 -0.5
v 0.5 0.7 -0.7
v 0.5 0.8 1.5
v 0.5 0.8 1.3
v 0.5 0.8 1.2
v 0.5 0.8 0.9
v 0.5 0.8 0.8
v 0.5 0.8 0.7
v 0.5 0.8 -0.7
v 0.5 0.8 -0.8
v 0.5 0.8 -0.9
v 0.5 0.8 -1.2
v 0.5 0.8 -1.3
v 0.5 0.8 -1.5
v 0.5 0.9 1.5
v 0.5 0.9 -1.5
v 0.6 0 0.7
v 0.6 0 -0.7
v 0.6 0.1 0.7
v 0.6 0.1 -0.7
v 0.6 0.2 0.7
v 0.6 0.2 -0.7
v 0.6 0.3 1.5
v 0.6 0.3 1.4
v 0.6 0.3 1.3
v 0.6 0.3 1.2
v 0.6 0.3 1
v 0.6 0.3 0.8
v 0.6 0.3 0.7
v 0.6 0.3 0.5
v 0.6 0.3 0.3
v 0.6 0.3 0.2
v 0.6 0.3 -0.2
v 0.6 0.3 -0.3
v 0.6 0.3 -0.5
v 0.6 0.3 -0.7
v 0.6 0.3 -0.8
v 0.6 0.3 -1
v 0.6 0.3 -1.2
v 0.6 0.3 -1.3
v 0.6 0.3 -1.4
v 0.6 0.3 -1.5
v 0.6 0.4 1.5
v 0.6 0.4 1.3
v 0.6 0.4 1.2
v 0.6 0.4 0.9
v 0.6 0.4 0.5
v 0.6 0.4 0.4
v 0.6 0.4 0.3
v 0.6 0.4 0.2
v 0.6 0.4 0.1
v 0.6 0.4 -0.1
v 0.6 0.4 -0.2
v 0.6 0.4 -0.3
v 0.6 0.4 -0.4
v 0.6 0.4 -0.5
v 0.6 0.4 -0.9
v 0.6 0.4 -1.2
v 0.6 0.4 -1.3
v 0.6 0.4 -1.5
v 0.6 0.5 1.5
v 0.6 0.5 1.3
v 0.6 0.5 1.2
v 0.6 0.5 0.9
v 0.6 0.5 -0.9
v 0.6 0.5 -1.2
v 0.6 0.5 -1.3
v 0.6 0.5 -1.5
v 0.6 0.6 0.4
v 0.6 0.6 0.3
v 0.6 0.6 0.2
v 0.6 0.6 0.1
v 0.6 0.6 -0.1
v 0.6 0.6 -0.2
v 0.6 0.6 -0.3
v 0.6 0.6 -0.4
v 0.6 0.7 1.5
v 0.6 0.7 1.3
v 0.6 0.7 1.2
v 0.6 0.7 0.9
v 0.6 0.7 0.5
v 0.6 0.7 0.3
v 0.6 0.7 0.2
v 0.6 0.7 0.1
v 0.6 0.7 -0.1
v 0.6 0.7 -0.2
v 0.6 0.7 -0.3
v 0.6 0.7 -0.5
v 0.6 0.7 -0.9
v 0.6 0.7 -1.2
v 0.6 0.7 -1.3
v 0.6 0.7 -1.5
v 0.6 0.8 1.5
v 0.6 0.8 1.3
v 0.6 0.8 1.2
v 0.6 0.8 0.9
v 0.6 0.8 0.8
v 0.6 0.8 0.7
v 0.6 0.8 -0.7
v 0.6 0.8 -0.8
v 0.6 0.8 -0.9
v 0.6 0.8 -1.2
v 0.6 0.8 -1.3
v 0.6 0.8 -1.5
v 0.7 0 1.6
v 0.7 0 1.2
v 0.7 0 0.7
v 0.7 0 -0.7
v 0.7 0 -1.2
v 0.7 0 -1.6
v 0.7 0.1 1.6
v 0.7 0.1 1.4
v 0.7 0.1 1.3
v 0.7 0.1 1.2
v 0.7 0.1 1
v 0.7 0.1 0.8
v 0.7 0.1 -0.8
v 0.7 0.1 -1
v 0.7 0.1 -1.2
v 0.7 0.1 -1.3
v 0.7 0.1 -1.4
v 0.7 0.1 -1.6
v 0.7 0.2 1.3
v 0.7 0.2 1.2
v 0.7 0.2 0.8
v 0.7 0.2 0.7
v 0.7 0.2 -0.7
v 0.7 0.2 -0.8
v 0.7 0.2 -1.2
v 0.7 0.2 -1.3
v 0.7 0.3 1.6
v 0.7 0.3 1.4
v 0.7 0.3 1.3
v 0.7 0.3 1.2
v 0.7 0.3 1
v 0.7 0.3 0.8
v 0.7 0.3 0.7
v 0.7 0.3 -0.7
v 0.7 0.3 -0.8
v 0.7 0.3 -1
v 0.7 0.3 -1.2
v 0.7 0.3 -1.3
v 0.7 0.3 -1.4
v 0.7 0.3 -1.6
v -0.7 0 1.6
v -0.7 0.1 1.6
v -0.7 0.3 1.6
v -0.4 0.1 1.6
v -0.4 0.3 1.6
v -0.3 0.1 1.6
v -0.3 0.3 1.6
v -0.1 0.1 1.6
v -0.1 0.3 1.6
v 0 0.1 1.6
v 0 0.3 1.6
v 0.1 0.1 1.6
v 0.1 0.3 1.6
v 0.3 0.1 1.6
v 0.3 0.3 1.6
v 0.5 0.1 1.6
v 0.5 0.2 1.6
v 0.5 0.3 1.6
v 0.6 0.1 1.6
v 0.6 0.2 1.6
v 0.7 0 1.6
v 0.7 0.1 1.6
v 0.7 0.3 1.6
v -0.6 0.3 1.5
v -0.6 0.4 1.5
v -0.6 0.5 1.5
v -0.6 0.7 1.5
v -0.6 0.8 1.5
v -0.5 0.8 1.5
v -0.5 0.9 1.5
v -0.4 0.3 1.5
v -0.3 0.3 1.5
v -0.1 0.3 1.5
v 0 0.3 1.5
v 0.1 0.3 1.5
v 0.3 0.3 1.5
v 0.5 0.3 1.5
v 0.5 0.8 1.5
v 0.5 0.9 1.5
v 0.6 0.3 1.5
v 0.6 0.4 1.5
v 0.6 0.5 1.5
v 0.6 0.7 1.5
v 0.6 0.8 1.5
v 0.5 0.3 0.5
v 0.5 0.4 0.5
v 0.5 0.6 0.5
v 0.5 0.7 0.5
v 0.6 0.3 0.5
v 0.6 0.4 0.5
v 0.6 0.7 0.5
v -0.7 0 -0.7
v -0.7 0.2 -0.7
v -0.7 0.3 -0.7
v -0.6 0 -0.7
v -0.6 0.1 -0.7
v -0.6 0.2 -0.7
v -0.6 0.3 -0.7
v 0.5 0.3 -0.7
v 0.5 0.4 -0.7
v 0.5 0.6 -0.7
v 0.5 0.7 -0.7
v 0.5 0.8 -0.7
v 0.6 0 -0.7
v 0.6 0.1 -0.7
v 0.6 0.2 -0.7
v 0.6 0.3 -0.7
v 0.6 0.8 -0.7
v 0.7 0 -0.7
v 0.7 0.2 -0.7
v 0.7 0.3 -0.7
v -0.5 0.5 -0.8
v -0.5 0.7 -0.8
v -0.4 0.5 -0.8
v -0.4 0.7 -0.8
v -0.4 0.3 -1.4
v -0.4 0.4 -1.4
v -0.4 0.5 -1.4
v -0.4 0.7 -1.4
v -0.4 0.8 -1.4
v -0.4 0.9 -1.4
v 0.4 0.3 -1.4
v 0.4 0.4 -1.4
v 0.4 0.5 -1.4
v 0.4 0.7 -1.4
v 0.4 0.8 -1.4
v 0.4 0.9 -1.4
v -0.6 0.2 -1.5
v -0.6 0.3 -1.5
v -0.4 0.2 -1.5
v -0.4 0.3 -1.5
v -0.3 0.2 -1.5
v -0.3 0.3 -1.5
v -0.2 0.2 -1.5
v -0.2 0.3 -1.5
v 0 0.2 -1.5
v 0 0.3 -1.5
v 0.2 0.2 -1.5
v 0.2 0.3 -1.5
v 0.3 0.2 -1.5
v 0.3 0.3 -1.5
v 0.5 0.2 -1.5
v 0.5 0.3 -1.5
v 0.6 0.2 -1.5
v 0.6 0.3 -1.5
v -0.4 0.2 1.4
v -0.4 0.4 1.4
v -0.4 0.5 1.4
v -0.4 0.7 1.4
v -0.4 0.8 1.4
v -0.4 0.9 1.4
v 0.4 0.2 1.4
v 0.4 0.4 1.4
v 0.4 0.5 1.4
v 0.4 0.7 1.4
v 0.4 0.8 1.4
v 0.4 0.9 1.4
v -0.7 0 0.7
v -0.7 0.2 0.7
v -0.7 0.3 0.7
v -0.6 0 0.7
v -0.6 0.1 0.7
v -0.6 0.2 0.7
v -0.6 0.3 0.7
v 0.5 0.3 0.7
v 0.5 0.4 0.7
v 0.5 0.6 0.7
v 0.5 0.7 0.7
v 0.5 0.8 0.7
v 0.6 0 0.7
v 0.6 0.1 0.7
v 0.6 0.2 0.7
v 0.6 0.3 0.7
v 0.6 0.8 0.7
v 0.7 0 0.7
v 0.7 0.2 0.7
v 0.7 0.3 0.7
v 0.5 0.3 -0.5
v 0.5 0.4 -0.5
v 0.5 0.6 -0.5
v 0.5 0.7 -0.5
v 0.6 0.3 -0.5
v 0.6 0.4 -0.5
v 0.6 0.7 -0.5
v -0.6 0.2 -0.7
v -0.6 0.3 -0.7
v -0.5 0.2 -0.7
v -0.5 0.3 -0.7
v -0.5 0.5 -0.7
v -0.5 0.7 -0.7
v -0.4 0.2 -0.7
v -0.4 0.3 -0.7
v -0.4 0.5 -0.7
v -0.4 0.7 -0.7
v 0.4 0.2 -0.7
v 0.4 0.3 -0.7
v 0.5 0.2 -0.7
v 0.5 0.3 -0.7
v 0.6 0.2 -0.7
v 0.6 0.3 -0.7
v -0.6 0.3 -1.5
v -0.6 0.4 -1.5
v -0.6 0.5 -1.5
v -0.6 0.7 -1.5
v -0.6 0.8 -1.5
v -0.5 0.8 -1.5
v -0.5 0.9 -1.5
v -0.4 0.3 -1.5
v -0.3 0.3 -1.5
v -0.2 0.3 -1.5
v 0 0.3 -1.5
v 0.2 0.3 -1.5
v 0.3 0.3 -1.5
v 0.5 0.3 -1.5
v 0.5 0.8 -1.5
v 0.5 0.9 -1.5
v 0.6 0.3 -1.5
v 0.6 0.4 -1.5
v 0.6 0.5 -1.5
v 0.6 0.7 -1.5
v 0.6 0.8 -1.5
v -0.7 0 -1.6
v -0.7 0.1 -1.6
v -0.7 0.3 -1.6
v -0.4 0.1 -1.6
v -0.4 0.3 -1.6
v -0.3 0.1 -1.6
v -0.3 0.2 -1.6
v -0.3 0.3 -1.6
v -0.2 0 -1.6
v -0.2 0.1 -1.6
v -0.2 0.2 -1.6
v -0.2 0.3 -1.6
v 0 0.1 -1.6
v 0 0.3 -1.6
v 0.2 0.1 -1.6
v 0.2 0.2 -1.6
v 0.2 0.3 -1.6
v 0.3 0.1 -1.6
v 0.3 0.2 -1.6
v 0.3 0.3 -1.6
v 0.5 0.1 -1.6
v 0.5 0.2 -1.6
v 0.5 0.3 -1.6
v 0.6 0 -1.6
v 0.6 0.1 -1.6
v 0.6 0.2 -1.6
v 0.7 0 -1.6
v 0.7 0.1 -1.6
v 0.7 0.3 -1.6
v -0.7 0 1.6
v 0.7 0 1.6
v -0.6 0 1.5
v 0.6 0 1.5
v -0.7 0 1.2
v -0.6 0 1.2
v 0.6 0 1.2
v 0.7 0 1.2
v -0.7 0 0.7
v -0.6 0 0.7
v 0.6 0 0.7
v 0.7 0 0.7
v -0.7 0 -0.7
v -0.6 0 -0.7
v 0.6 0 -0.7
v 0.7 0 -0.7
v -0.7 0 -1.2
v -0.6 0 -1.2
v 0.6 0 -1.2
v 0.7 0 -1.2
v -0.6 0 -1.5
v -0.2 0 -1.5
v -0.7 0 -1.6
v -0.2 0 -1.6
v 0.6 0 -1.6
v 0.7 0 -1.6
v -0.6 0.3 -0.7
v -0.5 0.3 -0.7
v -0.4 0.3 -0.7
v 0.4 0.3 -0.7
v 0.5 0.3 -0.7
v 0.6 0.3 -0.7
v -0.6 0.3 -0.8
v -0.5 0.3 -0.8
v 0.5 0.3 -0.8
v 0.6 0.3 -0.8
v -0.6 0.3 -1
v 0.6 0.3 -1
v -0.6 0.3 -1.2
v -0.5 0.3 -1.2
v 0.5 0.3 -1.2
v 0.6 0.3 -1.2
v -0.6 0.3 -1.3
v 0.6 0.3 -1.3
v -0.6 0.3 -1.4
v -0.4 0.3 -1.4
v 0.4 0.3 -1.4
v 0.6 0.3 -1.4
v -0.6 0.3 -1.5
v -0.4 0.3 -1.5
v -0.3 0.3 -1.5
v -0.2 0.3 -1.5
v 0 0.3 -1.5
v 0.2 0.3 -1.5
v 0.3 0.3 -1.5
v 0.5 0.3 -1.5
v 0.6 0.3 -1.5
v -0.5 0.7 -0.7
v -0.4 0.7 -0.7
v -0.5 0.7 -0.8
v -0.4 0.7 -0.8
v -0.4 0.2 1.4
v 0.4 0.2 1.4
v -0.4 0.2 0.7
v 0.4 0.2 0.7
v -0.6 0.2 -0.7
v -0.5 0.2 -0.7
v -0.4 0.2 -0.7
v 0.4 0.2 -0.7
v 0.5 0.2 -0.7
v 0.6 0.2 -0.7
v -0.6 0.2 -0.8
v 0.6 0.2 -0.8
v -0.6 0.2 -1
v 0.6 0.2 -1
v -0.6 0.2 -1.2
v 0.6 0.2 -1.2
v -0.6 0.2 -1.3
v 0.6 0.2 -1.3
v -0.6 0.2 -1.4
v 0.6 0.2 -1.4
v -0.6 0.2 -1.5
v -0.4 0.2 -1.5
v -0.3 0.2 -1.5
v -0.2 0.2 -1.5
v 0 0.2 -1.5
v 0.2 0.2 -1.5
v 0.3 0.2 -1.5
v 0.5 0.2 -1.5
v 0.6 0.2 -1.5
v -0.7 0.3 1.6
v -0.4 0.3 1.6
v -0.3 0.3 1.6
v -0.1 0.3 1.6
v 0 0.3 1.6
v 0.1 0.3 1.6
v 0.3 0.3 1.6
v 0.5 0.3 1.6
v 0.7 0.3 1.6
v -0.6 0.3 1.5
v -0.4 0.3 1.5
v -0.3 0.3 1.5
v -0.1 0.3 1.5
v 0 0.3 1.5
v 0.1 0.3 1.5
v 0.3 0.3 1.5
v 0.5 0.3 1.5
v 0.6 0.3 1.5
v -0.7 0.3 1.4
v -0.6 0.3 1.4
v 0.6 0.3 1.4
v 0.7 0.3 1.4
v -0.7 0.3 1.3
v -0.6 0.3 1.3
v 0.6 0.3 1.3
v 0.7 0.3 1.3
v -0.7 0.3 1.2
v -0.6 0.3 1.2
v 0.6 0.3 1.2
v 0.7 0.3 1.2
v -0.7 0.3 1
v -0.6 0.3 1
v 0.6 0.3 1
v 0.7 0.3 1
v -0.7 0.3 0.8
v -0.6 0.3 0.8
v 0.6 0.3 0.8
v 0.7 0.3 0.8
v -0.7 0.3 0.7
v -0.6 0.3 0.7
v 0.5 0.3 0.7
v 0.6 0.3 0.7
v 0.7 0.3 0.7
v 0.5 0.3 0.5
v 0.6 0.3 0.5
v 0.5 0.3 -0.5
v 0.6 0.3 -0.5
v -0.7 0.3 -0.7
v -0.6 0.3 -0.7
v 0.5 0.3 -0.7
v 0.6 0.3 -0.7
v 0.7 0.3 -0.7
v -0.7 0.3 -0.8
v -0.6 0.3 -0.8
v 0.6 0.3 -0.8
v 0.7 0.3 -0.8
v -0.7 0.3 -1
v -0.6 0.3 -1
v 0.6 0.3 -1
v 0.7 0.3 -1
v -0.7 0.3 -1.2
v -0.6 0.3 -1.2
v 0.6 0.3 -1.2
v 0.7 0.3 -1.2
v -0.7 0.3 -1.3
v -0.6 0.3 -1.3
v 0.6 0.3 -1.3
v 0.7 0.3 -1.3
v -0.7 0.3 -1.4
v -0.6 0.3 -1.4
v 0.6 0.3 -1.4
v 0.7 0.3 -1.4
v -0.6 0.3 -1.5
v -0.4 0.3 -1.5
v -0.3 0.3 -1.5
v -0.2 0.3 -1.5
v 0 0.3 -1.5
v 0.2 0.3 -1.5
v 0.3 0.3 -1.5
v 0.5 0.3 -1.5
v 0.6 0.3 -1.5
v -0.7 0.3 -1.6
v -0.4 0.3 -1.6
v -0.3 0.3 -1.6
v -0.2 0.3 -1.6
v 0 0.3 -1.6
v 0.2 0.3 -1.6
v 0.3 0.3 -1.6
v 0.5 0.3 -1.6
v 0.7 0.3 -1.6
v -0.5 0.5 -0.7
v -0.4 0.5 -0.7
v -0.5 0.5 -0.8
v -0.4 0.5 -0.8
v 0.5 0.7 0.5
v 0.6 0.7 0.5
v 0.5 0.7 0.3
v 0.6 0.7 0.3
v 0.5 0.7 0.2
v 0.6 0.7 0.2
v 0.5 0.7 0.1
v 0.6 0.7 0.1
v 0.5 0.7 -0.1
v 0.6 0.7 -0.1
v 0.5 0.7 -0.2
v 0.6 0.7 -0.2
v 0.5 0.7 -0.3
v 0.6 0.7 -0.3
v 0.5 0.7 -0.5
v 0.6 0.7 -0.5
v -0.6 0.8 1.5
v -0.5 0.8 1.5
v 0.5 0.8 1.5
v 0.6 0.8 1.5
v -0.6 0.8 1.3
v -0.5 0.8 1.3
v 0.5 0.8 1.3
v 0.6 0.8 1.3
v -0.6 0.8 1.2
v -0.5 0.8 1.2
v 0.5 0.8 1.2
v 0.6 0.8 1.2
v -0.6 0.8 0.9
v -0.5 0.8 0.9
v 0.5 0.8 0.9
v 0.6 0.8 0.9
v -0.6 0.8 0.8
v -0.5 0.8 0.8
v 0.5 0.8 0.8
v 0.6 0.8 0.8
v -0.6 0.8 0.7
v -0.5 0.8 0.7
v 0.5 0.8 0.7
v 0.6 0.8 0.7
v -0.6 0.8 -0.7
v -0.5 0.8 -0.7
v 0.5 0.8 -0.7
v 0.6 0.8 -0.7
v -0.6 0.8 -0.8
v -0.5 0.8 -0.8
v 0.5 0.8 -0.8
v 0.6 0.8 -0.8
v -0.6 0.8 -0.9
v -0.5 0.8 -0.9
v 0.5 0.8 -0.9
v 0.6 0.8 -0.9
v -0.6 0.8 -1.2
v -0.5 0.8 -1.2
v 0.5 0.8 -1.2
v 0.6 0.8 -1.2
v -0.6 0.8 -1.3
v -0.5 0.8 -1.3
v 0.5 0.8 -1.3
v 0.6 0.8 -1.3
v -0.6 0.8 -1.5
v -0.5 0.8 -1.5
v 0.5 0.8 -1.5
v 0.6 0.8 -1.5
v -0.5 0.9 1.5
v 0.5 0.9 1.5
v -0.4 0.9 1.4
v 0.4 0.9 1.4
v -0.4 0.9 -1.4
v 0.4 0.9 -1.4
v -0.5 0.9 -1.5
v 0.5 0.9 -1.5

# faces
f 7/5/1 2/5/1 1/5/1
f 8/5/1 2/5/1 7/5/1
f 9/5/1 2/5/1 8/5/1
f 10/4/1 3/4/1 2/4/1
f 10/5/1 2/5/1 9/5/1
f 11/4/1 3/4/1 10/4/1
f 12/4/1 3/4/1 11/4/1
f 13/4/1 5/4/1 4/4/1
f 14/4/1 5/4/1 13/4/1
f 15/5/1 6/5/1 5/5/1
f 15/4/1 5/4/1 14/4/1
f 16/5/1 6/5/1 15/5/1
f 17/5/1 6/5/1 16/5/1
f 18/5/1 6/5/1 17/5/1
f 19/4/1 9/4/1 8/4/1
f 19/5/1 10/5/1 9/5/1
f 20/1/1 11/1/1 10/1/1
f 20/5/1 10/5/1 19/5/1
f 21/4/1 3/4/1 12/4/1
f 21/2/1 12/2/1 11/2/1
f 22/4/1 3/4/1 21/4/1
f 23/4/1 13/4/1 4/4/1
f 24/2/1 14/2/1 13/2/1
f 24/4/1 13/4/1 23/4/1
f 25/1/1 15/1/1 14/1/1
f 25/5/1 16/5/1 15/5/1
f 26/4/1 17/4/1 16/4/1
f 26/5/1 16/5/1 25/5/1
f 27/3/1 8/3/1 7/3/1
f 28/4/1 19/4/1 8/4/1
f 28/3/1 8/3/1 27/3/1
f 29/3/1 20/3/1 19/3/1
f 29/4/1 19/4/1 28/4/1
f 30/1/1 11/1/1 20/1/1
f 30/3/1 20/3/1 29/3/1
f 31/2/1 21/2/1 11/2/1
f 31/1/1 11/1/1 30/1/1
f 32/3/1 22/3/1 21/3/1
f 32/2/1 21/2/1 31/2/1
f 33/3/1 22/3/1 32/3/1
f 34/3/1 24/3/1 23/3/1
f 35/2/1 14/2/1 24/2/1
f 35/3/1 24/3/1 34/3/1
f 36/1/1 25/1/1 14/1/1
f 36/2/1 14/2/1 35/2/1
f 37/3/1 26/3/1 25/3/1
f 37/1/1 25/1/1 36/1/1
f 38/4/1 17/4/1 26/4/1
f 38/3/1 26/3/1 37/3/1
f 39/3/1 18/3/1 17/3/1
f 39/4/1 17/4/1 38/4/1
f 40/3/1 18/3/1 39/3/1
f 43/4/1 42/4/1 41/4/1
f 44/4/1 42/4/1 43/4/1
f 45/4/1 42/4/1 44/4/1
f 46/4/1 42/4/1 45/4/1
f 47/5/1 44/5/1 43/5/1
f 48/1/1 45/1/1 44/1/1
f 48/5/1 44/5/1 47/5/1
f 49/5/1 46/5/1 45/5/1
f 49/1/1 45/1/1 48/1/1
f 50/5/1 46/5/1 49/5/1
f 57/5/1 48/5/1 47/5/1
f 57/5/1 49/5/1 48/5/1
f 57/5/1 50/5/1 49/5/1
f 58/5/1 50/5/1 57/5/1
f 59/5/1 50/5/1 58/5/1
f 60/5/1 50/5/1 59/5/1
f 61/5/1 50/5/1 60/5/1
f 62/5/1 50/5/1 61/5/1
f 63/5/1 50/5/1 62/5/1
f 64/5/1 50/5/1 63/5/1
f 71/5/1 54/5/1 53/5/1
f 71/5/1 52/5/1 51/5/1
f 71/5/1 53/5/1 52/5/1
f 72/5/1 54/5/1 71/5/1
f 73/4/1 56/4/1 55/4/1
f 73/5/1 54/5/1 72/5/1
f 73/4/1 55/4/1 54/4/1
f 74/4/1 56/4/1 73/4/1
f 75/1/1 58/1/1 57/1/1
f 75/3/1 59/3/1 58/3/1
f 76/3/1 59/3/1 75/3/1
f 77/2/1 60/2/1 59/2/1
f 77/3/1 59/3/1 76/3/1
f 78/3/1 61/3/1 60/3/1
f 78/2/1 60/2/1 77/2/1
f 79/3/1 61/3/1 78/3/1
f 80/3/1 61/3/1 79/3/1
f 81/2/1 62/2/1 61/2/1
f 81/3/1 61/3/1 80/3/1
f 82/3/1 63/3/1 62/3/1
f 82/2/1 62/2/1 81/2/1
f 83/3/1 63/3/1 82/3/1
f 84/1/1 64/1/1 63/1/1
f 84/3/1 63/3/1 83/3/1
f 85/4/1 66/4/1 65/4/1
f 85/4/1 67/4/1 66/4/1
f 86/5/1 70/5/1 69/5/1
f 86/4/1 67/4/1 85/4/1
f 86/5/1 69/5/1 68/5/1
f 86/5/1 68/5/1 67/5/1
f 87/5/1 70/5/1 86/5/1
f 88/5/1 70/5/1 87/5/1
f 89/3/1 72/3/1 71/3/1
f 90/4/1 73/4/1 72/4/1
f 90/3/1 72/3/1 89/3/1
f 91/3/1 74/3/1 73/3/1
f 91/4/1 73/4/1 90/4/1
f 92/4/1 56/4/1 74/4/1
f 92/3/1 74/3/1 91/3/1
f 93/4/1 85/4/1 65/4/1
f 93/3/1 86/3/1 85/3/1
f 94/4/1 87/4/1 86/4/1
f 94/3/1 86/3/1 93/3/1
f 95/3/1 88/3/1 87/3/1
f 95/4/1 87/4/1 94/4/1
f 96/3/1 88/3/1 95/3/1
f 97/2/1 76/2/1 75/2/1
f 97/5/1 77/5/1 76/5/1
f 98/2/1 78/2/1 77/2/1
f 98/5/1 77/5/1 97/5/1
f 99/4/1 79/4/1 78/4/1
f 99/2/1 78/2/1 98/2/1
f 100/5/1 80/5/1 79/5/1
f 100/4/1 79/4/1 99/4/1
f 101/4/1 81/4/1 80/4/1
f 101/5/1 80/5/1 100/5/1
f 102/2/1 82/2/1 81/2/1
f 102/4/1 81/4/1 101/4/1
f 103/5/1 83/5/1 82/5/1
f 103/2/1 82/2/1 102/2/1
f 104/2/1 84/2/1 83/2/1
f 104/5/1 83/5/1 103/5/1
f 105/2/1 90/2/1 89/2/1
f 106/4/1 91/4/1 90/4/1
f 106/2/1 90/2/1 105/2/1
f 107/2/1 92/2/1 91/2/1
f 107/4/1 91/4/1 106/4/1
f 108/4/1 56/4/1 92/4/1
f 108/2/1 92/2/1 107/2/1
f 109/2/1 98/2/1 97/2/1
f 109/1/1 75/1/1 57/1/1
f 109/2/1 97/2/1 75/2/1
f 110/1/1 99/1/1 98/1/1
f 110/2/1 98/2/1 109/2/1
f 111/3/1 100/3/1 99/3/1
f 111/1/1 99/1/1 110/1/1
f 112/2/1 101/2/1 100/2/1
f 112/3/1 100/3/1 111/3/1
f 113/3/1 102/3/1 101/3/1
f 113/2/1 101/2/1 112/2/1
f 114/1/1 103/1/1 102/1/1
f 114/3/1 102/3/1 113/3/1
f 115/2/1 104/2/1 103/2/1
f 115/1/1 103/1/1 114/1/1
f 116/2/1 84/2/1 104/2/1
f 116/2/1 104/2/1 115/2/1
f 116/1/1 64/1/1 84/1/1
f 117/4/1 93/4/1 65/4/1
f 117/2/1 94/2/1 93/2/1
f 118/4/1 95/4/1 94/4/1
f 118/2/1 94/2/1 117/2/1
f 119/2/1 96/2/1 95/2/1
f 119/4/1 95/4/1 118/4/1
f 120/2/1 96/2/1 119/2/1
f 121/1/1 106/1/1 105/1/1
f 122/4/1 107/4/1 106/4/1
f 122/1/1 106/1/1 121/1/1
f 123/1/1 108/1/1 107/1/1
f 123/4/1 107/4/1 122/4/1
f 124/4/1 56/4/1 108/4/1
f 124/1/1 108/1/1 123/1/1
f 125/5/1 57/5/1 56/5/1
f 125/4/1 56/4/1 124/4/1
f 126/1/1 112/1/1 111/1/1
f 126/5/1 57/5/1 125/5/1
f 126/1/1 110/1/1 109/1/1
f 126/1/1 111/1/1 110/1/1
f 126/1/1 115/1/1 114/1/1
f 126/1/1 116/1/1 115/1/1
f 126/1/1 109/1/1 57/1/1
f 126/1/1 113/1/1 112/1/1
f 126/1/1 114/1/1 113/1/1
f 127/1/1 64/1/1 116/1/1
f 127/1/1 116/1/1 126/1/1
f 127/5/1 65/5/1 64/5/1
f 128/4/1 117/4/1 65/4/1
f 128/5/1 65/5/1 127/5/1
f 129/1/1 118/1/1 117/1/1
f 129/4/1 117/4/1 128/4/1
f 130/4/1 119/4/1 118/4/1
f 130/1/1 118/1/1 129/1/1
f 131/1/1 120/1/1 119/1/1
f 131/4/1 119/4/1 130/4/1
f 132/1/1 120/1/1 131/1/1
f 145/4/1 134/4/1 133/4/1
f 145/4/1 144/4/1 143/4/1
f 145/4/1 143/4/1 142/4/1
f 145/4/1 142/4/1 141/4/1
f 145/4/1 141/4/1 140/4/1
f 145/4/1 140/4/1 139/4/1
f 145/4/1 139/4/1 138/4/1
f 145/4/1 138/4/1 137/4/1
f 145/4/1 137/4/1 136/4/1
f 145/4/1 136/4/1 135/4/1
f 145/4/1 135/4/1 134/4/1
f 146/4/1 144/4/1 145/4/1
f 150/5/1 148/5/1 147/5/1
f 150/1/1 149/1/1 148/1/1
f 151/1/1 149/1/1 150/1/1
f 152/1/1 149/1/1 151/1/1
f 153/1/1 149/1/1 152/1/1
f 155/5/1 150/5/1 147/5/1
f 156/3/1 151/3/1 150/3/1
f 156/5/1 150/5/1 155/5/1
f 157/1/1 152/1/1 151/1/1
f 157/3/1 151/3/1 156/3/1
f 158/3/1 153/3/1 152/3/1
f 158/1/1 152/1/1 157/1/1
f 159/5/1 154/5/1 153/5/1
f 159/3/1 153/3/1 158/3/1
f 160/5/1 154/5/1 159/5/1
f 161/5/1 156/5/1 155/5/1
f 162/5/1 160/5/1 159/5/1
f 163/2/1 157/2/1 156/2/1
f 163/5/1 156/5/1 161/5/1
f 164/1/1 158/1/1 157/1/1
f 164/2/1 157/2/1 163/2/1
f 165/2/1 159/2/1 158/2/1
f 165/1/1 158/1/1 164/1/1
f 166/5/1 162/5/1 159/5/1
f 166/2/1 159/2/1 165/2/1
f 167/5/1 163/5/1 161/5/1
f 168/3/1 164/3/1 163/3/1
f 168/5/1 163/5/1 167/5/1
f 169/1/1 165/1/1 164/1/1
f 169/3/1 164/3/1 168/3/1
f 170/3/1 166/3/1 165/3/1
f 170/1/1 165/1/1 169/1/1
f 171/5/1 162/5/1 166/5/1
f 171/3/1 166/3/1 170/3/1
f 172/5/1 162/5/1 171/5/1
f 173/5/1 170/5/1 169/5/1
f 173/5/1 168/5/1 167/5/1
f 173/5/1 172/5/1 171/5/1
f 173/5/1 171/5/1 170/5/1
f 173/5/1 169/5/1 168/5/1
f 174/5/1 172/5/1 173/5/1
f 175/4/1 174/4/1 173/4/1
f 176/4/1 174/4/1 175/4/1
f 184/3/1 178/3/1 177/3/1
f 185/2/1 179/2/1 178/2/1
f 185/3/1 178/3/1 184/3/1
f 186/1/1 180/1/1 179/1/1
f 186/2/1 179/2/1 185/2/1
f 187/3/1 181/3/1 180/3/1
f 187/1/1 180/1/1 186/1/1
f 188/4/1 182/4/1 181/4/1
f 188/3/1 181/3/1 187/3/1
f 189/3/1 183/3/1 182/3/1
f 189/4/1 182/4/1 188/4/1
f 190/3/1 183/3/1 189/3/1
f 191/3/2 192/3/2 198/3/2
f 192/2/2 193/2/2 199/2/2
f 198/3/2 192/3/2 199/3/2
f 193/1/2 194/1/2 200/1/2
f 199/2/2 193/2/2 200/2/2
f 194/3/2 195/3/2 201/3/2
f 200/1/2 194/1/2 201/1/2
f 195/4/2 196/4/2 202/4/2
f 201/3/2 195/3/2 202/3/2
f 196/3/2 197/3/2 203/3/2
f 202/4/2 196/4/2 203/4/2
f 203/3/2 197/3/2 204/3/2
f 205/5/2 206/5/2 207/5/2
f 207/5/2 206/5/2 208/5/2
f 210/1/2 211/1/2 212/1/2
f 209/5/2 210/5/2 214/5/2
f 212/5/2 213/5/2 215/5/2
f 214/5/2 210/5/2 216/5/2
f 210/1/2 212/1/2 217/1/2
f 212/5/2 215/5/2 217/5/2
f 217/5/2 215/5/2 218/5/2
f 218/5/2 215/5/2 219/5/2
f 216/5/2 210/5/2 220/5/2
f 210/1/2 217/1/2 221/1/2
f 218/5/2 219/5/2 222/5/2
f 222/5/2 219/5/2 223/5/2
f 220/5/2 210/5/2 224/5/2
f 210/1/2 221/1/2 225/1/2
f 224/5/2 210/5/2 225/5/2
f 221/5/2 222/5/2 226/5/2
f 225/1/2 221/1/2 226/1/2
f 222/5/2 223/5/2 226/5/2
f 226/5/2 223/5/2 227/5/2
f 224/4/2 225/4/2 228/4/2
f 225/4/2 226/4/2 228/4/2
f 226/4/2 227/4/2 228/4/2
f 228/4/2 227/4/2 229/4/2
f 230/3/2 231/3/2 234/3/2
f 234/3/2 231/3/2 235/3/2
f 232/3/2 233/3/2 236/3/2
f 236/3/2 233/3/2 237/3/2
f 234/2/2 235/2/2 238/2/2
f 238/2/2 235/2/2 239/2/2
f 236/2/2 237/2/2 240/2/2
f 240/2/2 237/2/2 241/2/2
f 238/3/2 239/3/2 242/3/2
f 242/3/2 239/3/2 243/3/2
f 240/3/2 241/3/2 250/3/2
f 250/3/2 241/3/2 251/3/2
f 248/5/2 249/5/2 257/5/2
f 242/5/2 243/5/2 257/5/2
f 243/5/2 244/5/2 257/5/2
f 244/5/2 245/5/2 257/5/2
f 245/5/2 246/5/2 257/5/2
f 246/5/2 247/5/2 257/5/2
f 250/5/2 251/5/2 257/5/2
f 249/5/2 250/5/2 257/5/2
f 247/5/2 248/5/2 257/5/2
f 257/5/2 251/5/2 258/5/2
f 257/4/2 258/4/2 264/4/2
f 262/4/2 263/4/2 264/4/2
f 261/4/2 262/4/2 264/4/2
f 260/4/2 261/4/2 264/4/2
f 259/4/2 260/4/2 264/4/2
f 258/4/2 259/4/2 264/4/2
f 256/4/2 257/4/2 264/4/2
f 255/4/2 256/4/2 264/4/2
f 252/4/2 253/4/2 264/4/2
f 253/4/2 254/4/2 264/4/2
f 254/4/2 255/4/2 264/4/2
f 264/4/2 263/4/2 265/4/2
f 266/4/2 267/4/2 268/4/2
f 268/4/2 267/4/2 269/4/2
f 268/5/2 269/5/2 270/5/2
f 270/5/2 269/5/2 271/5/2
f 270/5/2 271/5/2 278/5/2
f 278/5/2 271/5/2 279/5/2
f 279/5/2 271/5/2 280/5/2
f 280/5/2 271/5/2 281/5/2
f 281/5/2 271/5/2 282/5/2
f 282/5/2 271/5/2 283/5/2
f 283/5/2 271/5/2 284/5/2
f 284/5/2 271/5/2 285/5/2
f 272/5/2 273/5/2 292/5/2
f 273/5/2 274/5/2 292/5/2
f 274/5/2 275/5/2 292/5/2
f 292/5/2 275/5/2 293/5/2
f 276/4/2 277/4/2 294/4/2
f 293/5/2 275/5/2 294/5/2
f 275/4/2 276/4/2 294/4/2
f 294/4/2 277/4/2 295/4/2
f 279/3/2 280/3/2 296/3/2
f 296/3/2 280/3/2 297/3/2
f 280/2/2 281/2/2 298/2/2
f 297/3/2 280/3/2 298/3/2
f 281/3/2 282/3/2 299/3/2
f 298/2/2 281/2/2 299/2/2
f 299/3/2 282/3/2 300/3/2
f 300/3/2 282/3/2 301/3/2
f 282/2/2 283/2/2 302/2/2
f 301/3/2 282/3/2 302/3/2
f 283/3/2 284/3/2 303/3/2
f 302/2/2 283/2/2 303/2/2
f 303/3/2 284/3/2 304/3/2
f 304/3/2 284/3/2 305/3/2
f 287/4/2 288/4/2 306/4/2
f 286/4/2 287/4/2 306/4/2
f 290/5/2 291/5/2 307/5/2
f 306/4/2 288/4/2 307/4/2
f 289/5/2 290/5/2 307/5/2
f 288/5/2 289/5/2 307/5/2
f 307/5/2 291/5/2 308/5/2
f 308/5/2 291/5/2 309/5/2
f 292/3/2 293/3/2 310/3/2
f 293/4/2 294/4/2 311/4/2
f 310/3/2 293/3/2 311/3/2
f 294/3/2 295/3/2 312/3/2
f 311/4/2 294/4/2 312/4/2
f 295/4/2 277/4/2 313/4/2
f 312/3/2 295/3/2 313/3/2
f 286/4/2 306/4/2 314/4/2
f 306/3/2 307/3/2 314/3/2
f 307/4/2 308/4/2 315/4/2
f 314/3/2 307/3/2 315/3/2
f 308/3/2 309/3/2 316/3/2
f 315/4/2 308/4/2 316/4/2
f 316/3/2 309/3/2 317/3/2
f 296/2/2 297/2/2 318/2/2
f 297/5/2 298/5/2 318/5/2
f 298/2/2 299/2/2 319/2/2
f 318/5/2 298/5/2 319/5/2
f 299/4/2 300/4/2 320/4/2
f 319/2/2 299/2/2 320/2/2
f 300/5/2 301/5/2 321/5/2
f 320/4/2 300/4/2 321/4/2
f 301/4/2 302/4/2 322/4/2
f 321/5/2 301/5/2 322/5/2
f 302/2/2 303/2/2 323/2/2
f 322/4/2 302/4/2 323/4/2
f 303/5/2 304/5/2 324/5/2
f 323/2/2 303/2/2 324/2/2
f 304/2/2 305/2/2 325/2/2
f 324/5/2 304/5/2 325/5/2
f 310/2/2 311/2/2 326/2/2
f 311/4/2 312/4/2 327/4/2
f 326/2/2 311/2/2 327/2/2
f 312/2/2 313/2/2 328/2/2
f 327/4/2 312/4/2 328/4/2
f 313/4/2 277/4/2 329/4/2
f 328/2/2 313/2/2 329/2/2
f 318/2/2 319/2/2 330/2/2
f 296/2/2 318/2/2 330/2/2
f 319/1/2 320/1/2 331/1/2
f 330/2/2 319/2/2 331/2/2
f 320/3/2 321/3/2 332/3/2
f 331/1/2 320/1/2 332/1/2
f 321/2/2 322/2/2 333/2/2
f 332/3/2 321/3/2 333/3/2
f 322/3/2 323/3/2 334/3/2
f 333/2/2 322/2/2 334/2/2
f 323/1/2 324/1/2 335/1/2
f 334/3/2 323/3/2 335/3/2
f 324/2/2 325/2/2 336/2/2
f 335/1/2 324/1/2 336/1/2
f 325/2/2 305/2/2 337/2/2
f 336/2/2 325/2/2 337/2/2
f 286/4/2 314/4/2 338/4/2
f 314/2/2 315/2/2 338/2/2
f 315/4/2 316/4/2 339/4/2
f 338/2/2 315/2/2 339/2/2
f 316/2/2 317/2/2 340/2/2
f 339/4/2 316/4/2 340/4/2
f 340/2/2 317/2/2 341/2/2
f 326/1/2 327/1/2 342/1/2
f 327/4/2 328/4/2 343/4/2
f 342/1/2 327/1/2 343/1/2
f 328/1/2 329/1/2 344/1/2
f 343/4/2 328/4/2 344/4/2
f 329/4/2 277/4/2 345/4/2
f 344/1/2 329/1/2 345/1/2
f 277/5/2 278/5/2 346/5/2
f 345/4/2 277/4/2 346/4/2
f 346/5/2 278/5/2 347/5/2
f 285/5/2 286/5/2 348/5/2
f 286/4/2 338/4/2 349/4/2
f 348/5/2 286/5/2 349/5/2
f 338/1/2 339/1/2 350/1/2
f 349/4/2 338/4/2 350/4/2
f 339/4/2 340/4/2 351/4/2
f 350/1/2 339/1/2 351/1/2
f 340/1/2 341/1/2 352/1/2
f 351/4/2 340/4/2 352/4/2
f 352/1/2 341/1/2 353/1/2
f 354/5/2 355/5/2 360/5/2
f 360/5/2 355/5/2 361/5/2
f 361/5/2 355/5/2 362/5/2
f 355/4/2 356/4/2 363/4/2
f 362/5/2 355/5/2 363/5/2
f 363/4/2 356/4/2 364/4/2
f 364/4/2 356/4/2 365/4/2
f 357/4/2 358/4/2 366/4/2
f 366/4/2 358/4/2 367/4/2
f 358/5/2 359/5/2 368/5/2
f 367/4/2 358/4/2 368/4/2
f 368/5/2 359/5/2 369/5/2
f 369/5/2 359/5/2 370/5/2
f 370/5/2 359/5/2 371/5/2
f 361/4/2 362/4/2 372/4/2
f 362/5/2 363/5/2 372/5/2
f 363/1/2 364/1/2 373/1/2
f 372/5/2 363/5/2 373/5/2
f 365/4/2 356/4/2 374/4/2
f 364/2/2 365/2/2 374/2/2
f 374/4/2 356/4/2 375/4/2
f 357/4/2 366/4/2 376/4/2
f 366/2/2 367/2/2 377/2/2
f 376/4/2 366/4/2 377/4/2
f 367/1/2 368/1/2 378/1/2
f 368/5/2 369/5/2 378/5/2
f 369/4/2 370/4/2 379/4/2
f 378/5/2 369/5/2 379/5/2
f 360/3/2 361/3/2 380/3/2
f 361/4/2 372/4/2 381/4/2
f 380/3/2 361/3/2 381/3/2
f 372/3/2 373/3/2 382/3/2
f 381/4/2 372/4/2 382/4/2
f 373/1/2 364/1/2 383/1/2
f 382/3/2 373/3/2 383/3/2
f 364/2/2 374/2/2 384/2/2
f 383/1/2 364/1/2 384/1/2
f 374/3/2 375/3/2 385/3/2
f 384/2/2 374/2/2 385/2/2
f 385/3/2 375/3/2 386/3/2
f 376/3/2 377/3/2 387/3/2
f 377/2/2 367/2/2 388/2/2
f 387/3/2 377/3/2 388/3/2
f 367/1/2 378/1/2 389/1/2
f 388/2/2 367/2/2 389/2/2
f 378/3/2 379/3/2 390/3/2
f 389/1/2 378/1/2 390/1/2
f 379/4/2 370/4/2 391/4/2
f 390/3/2 379/3/2 391/3/2
f 370/3/2 371/3/2 392/3/2
f 391/4/2 370/4/2 392/4/2
f 392/3/2 371/3/2 393/3/2
f 397/5/3 395/5/3 394/5/3
f 397/3/3 396/3/3 395/3/3
f 398/3/3 396/3/3 397/3/3
f 399/5/3 397/5/3 394/5/3
f 399/4/3 398/4/3 397/4/3
f 400/4/3 398/4/3 399/4/3
f 401/5/3 399/5/3 394/5/3
f 401/3/3 400/3/3 399/3/3
f 402/3/3 400/3/3 401/3/3
f 403/5/3 401/5/3 394/5/3
f 403/4/3 402/4/3 401/4/3
f 404/4/3 402/4/3 403/4/3
f 405/5/3 403/5/3 394/5/3
f 405/3/3 404/3/3 403/3/3
f 406/3/3 404/3/3 405/3/3
f 407/5/3 405/5/3 394/5/3
f 407/1/3 406/1/3 405/1/3
f 408/1/3 406/1/3 407/1/3
f 409/5/3 407/5/3 394/5/3
f 409/2/3 408/2/3 407/2/3
f 410/2/3 408/2/3 409/2/3
f 411/2/3 408/2/3 410/2/3
f 412/5/3 409/5/3 394/5/3
f 412/4/3 410/4/3 409/4/3
f 413/3/3 411/3/3 410/3/3
f 413/4/3 410/4/3 412/4/3
f 414/5/3 412/5/3 394/5/3
f 415/3/3 413/3/3 412/3/3
f 415/5/3 412/5/3 414/5/3
f 416/3/3 411/3/3 413/3/3
f 416/3/3 413/3/3 415/3/3
f 422/1/3 421/1/3 420/1/3
f 424/5/3 418/5/3 417/5/3
f 425/5/3 418/5/3 424/5/3
f 426/5/3 418/5/3 425/5/3
f 427/5/3 418/5/3 426/5/3
f 428/5/3 418/5/3 427/5/3
f 429/5/3 418/5/3 428/5/3
f 430/5/3 418/5/3 429/5/3
f 431/4/3 423/4/3 422/4/3
f 431/1/3 422/1/3 420/1/3
f 432/4/3 423/4/3 431/4/3
f 433/5/3 418/5/3 430/5/3
f 434/3/3 419/3/3 418/3/3
f 434/5/3 418/5/3 433/5/3
f 435/2/3 420/2/3 419/2/3
f 435/3/3 419/3/3 434/3/3
f 436/1/3 431/1/3 420/1/3
f 436/2/3 420/2/3 435/2/3
f 437/1/3 431/1/3 436/1/3
f 442/3/3 439/3/3 438/3/3
f 443/2/3 441/2/3 440/2/3
f 443/3/3 439/3/3 442/3/3
f 443/2/3 440/2/3 439/2/3
f 444/2/3 441/2/3 443/2/3
f 448/4/3 446/4/3 445/4/3
f 449/4/3 446/4/3 448/4/3
f 450/3/3 447/3/3 446/3/3
f 450/4/3 446/4/3 449/4/3
f 451/3/3 447/3/3 450/3/3
f 460/5/3 453/5/3 452/5/3
f 460/5/3 454/5/3 453/5/3
f 460/5/3 455/5/3 454/5/3
f 460/5/3 456/5/3 455/5/3
f 461/5/3 456/5/3 460/5/3
f 462/4/3 459/4/3 458/4/3
f 462/4/3 458/4/3 457/4/3
f 463/3/3 460/3/3 459/3/3
f 463/4/3 459/4/3 462/4/3
f 464/3/3 460/3/3 463/3/3
f 467/5/3 466/5/3 465/5/3
f 468/5/3 466/5/3 467/5/3
f 475/5/3 470/5/3 469/5/3
f 476/3/3 471/3/3 470/3/3
f 476/5/3 470/5/3 475/5/3
f 477/2/3 472/2/3 471/2/3
f 477/3/3 471/3/3 476/3/3
f 478/1/3 473/1/3 472/1/3
f 478/2/3 472/2/3 477/2/3
f 479/4/3 474/4/3 473/4/3
f 479/1/3 473/1/3 478/1/3
f 480/4/3 474/4/3 479/4/3
f 483/3/3 482/3/3 481/3/3
f 484/3/3 482/3/3 483/3/3
f 485/4/3 484/4/3 483/4/3
f 486/4/3 484/4/3 485/4/3
f 487/3/3 486/3/3 485/3/3
f 488/3/3 486/3/3 487/3/3
f 489/1/3 488/1/3 487/1/3
f 490/1/3 488/1/3 489/1/3
f 491/2/3 490/2/3 489/2/3
f 492/2/3 490/2/3 491/2/3
f 493/3/3 492/3/3 491/3/3
f 494/3/3 492/3/3 493/3/3
f 495/2/3 494/2/3 493/2/3
f 496/2/3 494/2/3 495/2/3
f 497/3/3 496/3/3 495/3/3
f 498/3/3 496/3/3 497/3/3
f 499/5/4 500/5/4 505/5/4
f 500/3/4 501/3/4 506/3/4
f 505/5/4 500/5/4 506/5/4
f 501/2/4 502/2/4 507/2/4
f 506/3/4 501/3/4 507/3/4
f 502/1/4 503/1/4 508/1/4
f 507/2/4 502/2/4 508/2/4
f 503/4/4 504/4/4 509/4/4
f 508/1/4 503/1/4 509/1/4
f 509/4/4 504/4/4 510/4/4
f 511/4/4 512/4/4 514/4/4
f 514/4/4 512/4/4 515/4/4
f 512/3/4 513/3/4 516/3/4
f 515/4/4 512/4/4 516/4/4
f 516/3/4 513/3/4 517/3/4
f 518/5/4 519/5/4 526/5/4
f 519/5/4 520/5/4 526/5/4
f 520/5/4 521/5/4 526/5/4
f 521/5/4 522/5/4 526/5/4
f 526/5/4 522/5/4 527/5/4
f 524/4/4 525/4/4 528/4/4
f 523/4/4 524/4/4 528/4/4
f 525/3/4 526/3/4 529/3/4
f 528/4/4 525/4/4 529/4/4
f 529/3/4 526/3/4 530/3/4
f 531/3/4 532/3/4 535/3/4
f 533/2/4 534/2/4 536/2/4
f 535/3/4 532/3/4 536/3/4
f 532/2/4 533/2/4 536/2/4
f 536/2/4 534/2/4 537/2/4
f 538/5/4 539/5/4 540/5/4
f 540/5/4 539/5/4 541/5/4
f 540/1/4 541/1/4 544/1/4
f 544/1/4 541/1/4 545/1/4
f 542/1/4 543/1/4 546/1/4
f 546/1/4 543/1/4 547/1/4
f 548/1/4 549/1/4 550/1/4
f 550/1/4 549/1/4 551/1/4
f 550/5/4 551/5/4 552/5/4
f 552/5/4 551/5/4 553/5/4
f 557/1/4 558/1/4 559/1/4
f 554/5/4 555/5/4 561/5/4
f 561/5/4 555/5/4 562/5/4
f 562/5/4 555/5/4 563/5/4
f 563/5/4 555/5/4 564/5/4
f 564/5/4 555/5/4 565/5/4
f 565/5/4 555/5/4 566/5/4
f 566/5/4 555/5/4 567/5/4
f 559/4/4 560/4/4 568/4/4
f 557/1/4 559/1/4 568/1/4
f 568/4/4 560/4/4 569/4/4
f 567/5/4 555/5/4 570/5/4
f 555/3/4 556/3/4 571/3/4
f 570/5/4 555/5/4 571/5/4
f 556/2/4 557/2/4 572/2/4
f 571/3/4 556/3/4 572/3/4
f 557/1/4 568/1/4 573/1/4
f 572/2/4 557/2/4 573/2/4
f 573/1/4 568/1/4 574/1/4
f 575/5/4 576/5/4 578/5/4
f 576/3/4 577/3/4 578/3/4
f 578/3/4 577/3/4 579/3/4
f 575/5/4 578/5/4 580/5/4
f 578/4/4 579/4/4 580/4/4
f 580/4/4 579/4/4 581/4/4
f 581/4/4 579/4/4 582/4/4
f 575/5/4 580/5/4 583/5/4
f 580/5/4 581/5/4 583/5/4
f 583/5/4 581/5/4 584/5/4
f 581/3/4 582/3/4 585/3/4
f 584/5/4 581/5/4 585/5/4
f 585/3/4 582/3/4 586/3/4
f 583/4/4 584/4/4 587/4/4
f 584/1/4 585/1/4 587/1/4
f 585/1/4 586/1/4 587/1/4
f 587/1/4 586/1/4 588/1/4
f 583/4/4 587/4/4 589/4/4
f 587/2/4 588/2/4 589/2/4
f 589/2/4 588/2/4 590/2/4
f 590/2/4 588/2/4 591/2/4
f 583/4/4 589/4/4 592/4/4
f 589/4/4 590/4/4 592/4/4
f 590/3/4 591/3/4 593/3/4
f 592/4/4 590/4/4 593/4/4
f 593/3/4 591/3/4 594/3/4
f 583/4/4 592/4/4 595/4/4
f 592/2/4 593/2/4 595/2/4
f 593/2/4 594/2/4 595/2/4
f 595/2/4 594/2/4 596/2/4
f 596/2/4 594/2/4 597/2/4
f 583/4/4 595/4/4 598/4/4
f 595/4/4 596/4/4 598/4/4
f 598/4/4 596/4/4 599/4/4
f 596/3/4 597/3/4 600/3/4
f 599/4/4 596/4/4 600/4/4
f 598/5/4 599/5/4 601/5/4
f 599/3/4 600/3/4 602/3/4
f 601/5/4 599/5/4 602/5/4
f 600/3/4 597/3/4 603/3/4
f 602/3/4 600/3/4 603/3/4
f 606/5/5 605/5/5 604/5/5
f 607/5/5 605/5/5 606/5/5
f 608/5/5 606/5/5 604/5/5
f 609/4/5 607/4/5 606/4/5
f 609/5/5 606/5/5 608/5/5
f 610/5/5 605/5/5 607/5/5
f 610/4/5 607/4/5 609/4/5
f 611/5/5 605/5/5 610/5/5
f 612/4/5 609/4/5 608/4/5
f 612/4/5 610/4/5 609/4/5
f 612/4/5 611/4/5 610/4/5
f 613/4/5 611/4/5 612/4/5
f 614/4/5 611/4/5 613/4/5
f 615/4/5 611/4/5 614/4/5
f 617/4/5 614/4/5 613/4/5
f 618/4/5 614/4/5 617/4/5
f 620/4/5 617/4/5 616/4/5
f 620/4/5 619/4/5 618/4/5
f 620/4/5 618/4/5 617/4/5
f 621/4/5 619/4/5 620/4/5
f 622/4/5 619/4/5 621/4/5
f 623/4/5 619/4/5 622/4/5
f 624/5/5 621/5/5 620/5/5
f 624/4/5 622/4/5 621/4/5
f 625/4/5 622/4/5 624/4/5
f 626/5/5 624/5/5 620/5/5
f 626/5/5 625/5/5 624/5/5
f 627/4/5 622/4/5 625/4/5
f 627/5/5 625/5/5 626/5/5
f 628/5/5 623/5/5 622/5/5
f 628/4/5 622/4/5 627/4/5
f 629/5/5 623/5/5 628/5/5
f 636/5/5 631/5/5 630/5/5
f 636/5/5 632/5/5 631/5/5
f 637/5/5 632/5/5 636/5/5
f 638/5/5 635/5/5 634/5/5
f 638/5/5 634/5/5 633/5/5
f 639/5/5 635/5/5 638/5/5
f 640/4/5 637/4/5 636/4/5
f 641/4/5 639/4/5 638/4/5
f 642/4/5 637/4/5 640/4/5
f 643/5/5 632/5/5 637/5/5
f 643/4/5 637/4/5 642/4/5
f 644/5/5 638/5/5 633/5/5
f 644/4/5 641/4/5 638/4/5
f 645/4/5 641/4/5 644/4/5
f 646/5/5 643/5/5 642/5/5
f 647/5/5 645/5/5 644/5/5
f 648/5/5 643/5/5 646/5/5
f 649/5/5 632/5/5 643/5/5
f 649/5/5 643/5/5 648/5/5
f 650/5/5 644/5/5 633/5/5
f 650/5/5 647/5/5 644/5/5
f 651/5/5 647/5/5 650/5/5
f 652/5/5 649/5/5 648/5/5
f 652/5/5 650/5/5 649/5/5
f 652/5/5 651/5/5 650/5/5
f 653/5/5 651/5/5 652/5/5
f 654/5/5 651/5/5 653/5/5
f 655/5/5 651/5/5 654/5/5
f 656/5/5 651/5/5 655/5/5
f 657/5/5 651/5/5 656/5/5
f 658/5/5 651/5/5 657/5/5
f 659/5/5 651/5/5 658/5/5
f 660/5/5 651/5/5 659/5/5
f 663/5/5 662/5/5 661/5/5
f 664/5/5 662/5/5 663/5/5
f 665/5/6 666/5/6 667/5/6
f 667/5/6 666/5/6 668/5/6
f 667/5/6 668/5/6 671/5/6
f 671/5/6 668/5/6 672/5/6
f 669/5/6 670/5/6 675/5/6
f 673/5/6 674/5/6 675/5/6
f 672/5/6 673/5/6 675/5/6
f 670/5/6 671/5/6 675/5/6
f 671/5/6 672/5/6 675/5/6
f 675/5/6 674/5/6 676/5/6
f 675/5/6 676/5/6 677/5/6
f 677/5/6 676/5/6 678/5/6
f 677/5/6 678/5/6 679/5/6
f 679/5/6 678/5/6 680/5/6
f 679/5/6 680/5/6 681/5/6
f 681/5/6 680/5/6 682/5/6
f 681/5/6 682/5/6 683/5/6
f 683/5/6 682/5/6 684/5/6
f 683/5/6 684/5/6 685/5/6
f 685/5/6 684/5/6 686/5/6
f 686/5/6 684/5/6 687/5/6
f 687/5/6 684/5/6 688/5/6
f 688/5/6 684/5/6 689/5/6
f 689/5/6 684/5/6 690/5/6
f 690/5/6 684/5/6 691/5/6
f 691/5/6 684/5/6 692/5/6
f 692/5/6 684/5/6 693/5/6
f 694/3/6 695/3/6 703/3/6
f 695/4/6 696/4/6 704/4/6
f 703/3/6 695/3/6 704/3/6
f 696/3/6 697/3/6 705/3/6
f 704/4/6 696/4/6 705/4/6
f 697/4/6 698/4/6 706/4/6
f 705/3/6 697/3/6 706/3/6
f 698/3/6 699/3/6 707/3/6
f 706/4/6 698/4/6 707/4/6
f 699/1/6 700/1/6 708/1/6
f 707/3/6 699/3/6 708/3/6
f 700/2/6 701/2/6 709/2/6
f 708/1/6 700/1/6 709/1/6
f 701/3/6 702/3/6 710/3/6
f 709/2/6 701/2/6 710/2/6
f 710/3/6 702/3/6 711/3/6
f 694/3/6 703/3/6 712/3/6
f 712/3/6 703/3/6 713/3/6
f 711/3/6 702/3/6 714/3/6
f 714/3/6 702/3/6 715/3/6
f 712/4/6 713/4/6 716/4/6
f 716/4/6 713/4/6 717/4/6
f 714/4/6 715/4/6 718/4/6
f 718/4/6 715/4/6 719/4/6
f 716/3/6 717/3/6 720/3/6
f 720/3/6 717/3/6 721/3/6
f 718/3/6 719/3/6 722/3/6
f 722/3/6 719/3/6 723/3/6
f 720/1/6 721/1/6 724/1/6
f 724/1/6 721/1/6 725/1/6
f 722/1/6 723/1/6 726/1/6
f 726/1/6 723/1/6 727/1/6
f 724/2/6 725/2/6 728/2/6
f 728/2/6 725/2/6 729/2/6
f 726/2/6 727/2/6 730/2/6
f 730/2/6 727/2/6 731/2/6
f 728/3/6 729/3/6 732/3/6
f 732/3/6 729/3/6 733/3/6
f 730/3/6 731/3/6 735/3/6
f 735/3/6 731/3/6 736/3/6
f 734/5/6 735/5/6 737/5/6
f 737/5/6 735/5/6 738/5/6
f 739/5/6 740/5/6 743/5/6
f 743/5/6 740/5/6 744/5/6
f 741/3/6 742/3/6 746/3/6
f 746/3/6 742/3/6 747/3/6
f 744/3/6 745/3/6 748/3/6
f 748/3/6 745/3/6 749/3/6
f 746/2/6 747/2/6 750/2/6
f 750/2/6 747/2/6 751/2/6
f 748/2/6 749/2/6 752/2/6
f 752/2/6 749/2/6 753/2/6
f 750/1/6 751/1/6 754/1/6
f 754/1/6 751/1/6 755/1/6
f 752/1/6 753/1/6 756/1/6
f 756/1/6 753/1/6 757/1/6
f 754/3/6 755/3/6 758/3/6
f 758/3/6 755/3/6 759/3/6
f 756/3/6 757/3/6 760/3/6
f 760/3/6 757/3/6 761/3/6
f 758/4/6 759/4/6 762/4/6
f 762/4/6 759/4/6 763/4/6
f 760/4/6 761/4/6 764/4/6
f 764/4/6 761/4/6 765/4/6
f 762/3/6 763/3/6 766/3/6
f 764/3/6 765/3/6 774/3/6
f 762/3/6 766/3/6 775/3/6
f 766/3/6 767/3/6 775/3/6
f 767/4/6 768/4/6 776/4/6
f 775/3/6 767/3/6 776/3/6
f 768/3/6 769/3/6 777/3/6
f 776/4/6 768/4/6 777/4/6
f 769/1/6 770/1/6 778/1/6
f 777/3/6 769/3/6 778/3/6
f 770/2/6 771/2/6 779/2/6
f 778/1/6 770/1/6 779/1/6
f 771/3/6 772/3/6 780/3/6
f 779/2/6 771/2/6 780/2/6
f 772/2/6 773/2/6 781/2/6
f 780/3/6 772/3/6 781/3/6
f 773/3/6 774/3/6 782/3/6
f 781/2/6 773/2/6 782/2/6
f 774/3/6 765/3/6 783/3/6
f 782/3/6 774/3/6 783/3/6
f 784/5/6 785/5/6 786/5/6
f 786/5/6 785/5/6 787/5/6
f 788/2/6 789/2/6 790/2/6
f 790/2/6 789/2/6 791/2/6
f 790/1/6 791/1/6 792/1/6
f 792/1/6 791/1/6 793/1/6
f 792/3/6 793/3/6 794/3/6
f 794/3/6 793/3/6 795/3/6
f 794/2/6 795/2/6 796/2/6
f 796/2/6 795/2/6 797/2/6
f 796/3/6 797/3/6 798/3/6
f 798/3/6 797/3/6 799/3/6
f 798/1/6 799/1/6 800/1/6
f 800/1/6 799/1/6 801/1/6
f 800/2/6 801/2/6 802/2/6
f 802/2/6 801/2/6 803/2/6
f 804/1/6 805/1/6 808/1/6
f 808/1/6 805/1/6 809/1/6
f 806/1/6 807/1/6 810/1/6
f 810/1/6 807/1/6 811/1/6
f 808/4/6 809/4/6 812/4/6
f 812/4/6 809/4/6 813/4/6
f 810/4/6 811/4/6 814/4/6
f 814/4/6 811/4/6 815/4/6
f 812/1/6 813/1/6 816/1/6
f 816/1/6 813/1/6 817/1/6
f 814/1/6 815/1/6 818/1/6
f 818/1/6 815/1/6 819/1/6
f 816/4/6 817/4/6 820/4/6
f 820/4/6 817/4/6 821/4/6
f 818/4/6 819/4/6 822/4/6
f 822/4/6 819/4/6 823/4/6
f 820/5/6 821/5/6 824/5/6
f 824/5/6 821/5/6 825/5/6
f 822/5/6 823/5/6 826/5/6
f 826/5/6 823/5/6 827/5/6
f 824/1/6 825/1/6 828/1/6
f 828/1/6 825/1/6 829/1/6
f 828/5/6 829/5/6 832/5/6
f 832/5/6 829/5/6 833/5/6
f 830/5/6 831/5/6 834/5/6
f 834/5/6 831/5/6 835/5/6
f 832/4/6 833/4/6 836/4/6
f 836/4/6 833/4/6 837/4/6
f 834/4/6 835/4/6 838/4/6
f 838/4/6 835/4/6 839/4/6
f 836/1/6 837/1/6 840/1/6
f 840/1/6 837/1/6 841/1/6
f 838/1/6 839/1/6 842/1/6
f 842/1/6 839/1/6 843/1/6
f 840/4/6 841/4/6 844/4/6
f 844/4/6 841/4/6 845/4/6
f 842/4/6 843/4/6 846/4/6
f 846/4/6 843/4/6 847/4/6
f 844/1/6 845/1/6 848/1/6
f 848/1/6 845/1/6 849/1/6
f 846/1/6 847/1/6 850/1/6
f 850/1/6 847/1/6 851/1/6
f 852/4/6 853/4/6 854/4/6
f 854/4/6 853/4/6 855/4/6
f 852/4/6 854/4/6 856/4/6
f 855/4/6 853/4/6 857/4/6
f 852/4/6 856/4/6 858/4/6
f 856/4/6 857/4/6 858/4/6
f 857/4/6 853/4/6 859/4/6
f 858/4/6 857/4/6 859/4/6
