# MagicaVoxel @ Ephtracy

# group
o 

# material
mtllib location_.mtl
usemtl palette

# normals
vn -1 0 0
vn 1 0 0
vn 0 0 1
vn 0 0 -1
vn 0 -1 0
vn 0 1 0

# texcoords
vt 0.783203 0.5
vt 0.787109 0.5
vt 0.814453 0.5
vt 0.935547 0.5
vt 0.943359 0.5

# verts
v -1.9 0.5 9.5
v -1.9 0.5 5.2
v -1.9 3.4 9.5
v -1.9 3.4 5.2
v -1.9 3.5 9.5
v -1.9 3.5 5.2
v -1.9 3.6 9.5
v -1.9 3.6 5.2
v -1.9 3.7 9.5
v -1.9 3.7 5.2
v -1.9 3.8 9.5
v -1.9 3.8 5.2
v -1.9 3.9 9.5
v -1.9 3.9 5.2
v -1.9 4 9.5
v -1.9 4 5.2
v -1.9 4.1 9.5
v -1.9 4.1 5.2
v -1.9 4.2 9.5
v -1.9 4.2 5.2
v -1.8 4.2 9.5
v -1.8 4.2 5.2
v -1.8 4.3 9.5
v -1.8 4.3 5.2
v 1 0.6 9.5
v 1 0.6 5.2
v 1 3.4 9.5
v 1 3.4 5.2
v 1 3.5 9.5
v 1 3.5 5.2
v 1 3.6 9.5
v 1 3.6 5.2
v 1 3.7 9.5
v 1 3.7 5.2
v 1 3.8 9.5
v 1 3.8 5.2
v 1 3.9 9.5
v 1 3.9 5.2
v 1 4 9.5
v 1 4 5.2
v 1 4.1 9.5
v 1 4.1 5.2
v -1.8 0.6 9.5
v -1.8 0.6 5.2
v -1.8 3.4 9.5
v -1.8 3.4 5.2
v -1.8 3.5 9.5
v -1.8 3.5 5.2
v -1.8 3.6 9.5
v -1.8 3.6 5.2
v -1.8 3.7 9.5
v -1.8 3.7 5.2
v -1.8 3.8 9.5
v -1.8 3.8 5.2
v -1.8 3.9 9.5
v -1.8 3.9 5.2
v -1.8 4 9.5
v -1.8 4 5.2
v -1.8 4.1 9.5
v -1.8 4.1 5.2
v 1.1 0.5 5.3
v 1.1 0.5 5.2
v 1.1 3.4 5.3
v 1.1 3.4 5.2
v 1.1 3.5 5.3
v 1.1 3.5 5.2
v 1.1 3.6 5.3
v 1.1 3.6 5.2
v 1.1 3.7 5.3
v 1.1 3.7 5.2
v 1.1 3.8 5.3
v 1.1 3.8 5.2
v 1.1 3.9 5.3
v 1.1 3.9 5.2
v 1.1 4 5.3
v 1.1 4 5.2
v 1.1 4.1 5.3
v 1.1 4.1 5.2
v 1.1 4.3 5.3
v 1.1 4.3 5.2
v 1.2 0.5 9.5
v 1.2 0.5 5.3
v 1.2 4 5.4
v 1.2 4 5.3
v 1.2 4.1 5.4
v 1.2 4.1 5.3
v 1.2 4.3 9.5
v 1.2 4.3 5.3
v -1.9 0.5 9.5
v -1.9 3.4 9.5
v -1.9 3.5 9.5
v -1.9 3.6 9.5
v -1.9 3.7 9.5
v -1.9 3.8 9.5
v -1.9 3.9 9.5
v -1.9 4 9.5
v -1.9 4.1 9.5
v -1.9 4.2 9.5
v -1.8 0.6 9.5
v -1.8 3.4 9.5
v -1.8 3.5 9.5
v -1.8 3.6 9.5
v -1.8 3.7 9.5
v -1.8 3.8 9.5
v -1.8 3.9 9.5
v -1.8 4 9.5
v -1.8 4.1 9.5
v -1.8 4.2 9.5
v -1.8 4.3 9.5
v 1 0.6 9.5
v 1 3.4 9.5
v 1 3.5 9.5
v 1 3.6 9.5
v 1 3.7 9.5
v 1 3.8 9.5
v 1 3.9 9.5
v 1 4 9.5
v 1 4.1 9.5
v 1.1 3.4 9.5
v 1.1 3.5 9.5
v 1.1 3.6 9.5
v 1.1 3.7 9.5
v 1.1 3.8 9.5
v 1.1 3.9 9.5
v 1.1 4 9.5
v 1.1 4.1 9.5
v 1.2 0.5 9.5
v 1.2 4.3 9.5
v 1.1 0.5 5.3
v 1.1 3.4 5.3
v 1.1 3.5 5.3
v 1.1 3.6 5.3
v 1.1 3.7 5.3
v 1.1 3.8 5.3
v 1.1 3.9 5.3
v 1.1 4 5.3
v 1.1 4.1 5.3
v 1.1 4.3 5.3
v 1.2 0.5 5.3
v 1.2 4 5.3
v 1.2 4.1 5.3
v 1.2 4.3 5.3
v -1.9 0.5 5.2
v -1.9 3.4 5.2
v -1.9 3.5 5.2
v -1.9 3.6 5.2
v -1.9 3.7 5.2
v -1.9 3.8 5.2
v -1.9 3.9 5.2
v -1.9 4 5.2
v -1.9 4.1 5.2
v -1.9 4.2 5.2
v -1.8 0.6 5.2
v -1.8 3.4 5.2
v -1.8 3.5 5.2
v -1.8 3.6 5.2
v -1.8 3.7 5.2
v -1.8 3.8 5.2
v -1.8 3.9 5.2
v -1.8 4 5.2
v -1.8 4.1 5.2
v -1.8 4.2 5.2
v -1.8 4.3 5.2
v 1 0.6 5.2
v 1 3.4 5.2
v 1 3.5 5.2
v 1 3.6 5.2
v 1 3.7 5.2
v 1 3.8 5.2
v 1 3.9 5.2
v 1 4 5.2
v 1 4.1 5.2
v 1.1 0.5 5.2
v 1.1 3.4 5.2
v 1.1 3.5 5.2
v 1.1 3.6 5.2
v 1.1 3.7 5.2
v 1.1 3.8 5.2
v 1.1 3.9 5.2
v 1.1 4 5.2
v 1.1 4.1 5.2
v 1.1 4.3 5.2
v -1.9 0.5 9.5
v 1.2 0.5 9.5
v 1.1 0.5 5.3
v 1.2 0.5 5.3
v -1.9 0.5 5.2
v 1.1 0.5 5.2
v -1.8 4.1 9.5
v 1 4.1 9.5
v -1.8 4.1 5.2
v 1 4.1 5.2
v -1.8 0.6 9.5
v 1 0.6 9.5
v -1.8 0.6 5.2
v 1 0.6 5.2
v -1.9 4.2 9.5
v -1.8 4.2 9.5
v -1.9 4.2 5.2
v -1.8 4.2 5.2
v -1.8 4.3 9.5
v 1.2 4.3 9.5
v 1.1 4.3 5.3
v 1.2 4.3 5.3
v -1.8 4.3 5.2
v 1.1 4.3 5.2

# faces
f 3/5/1 2/5/1 1/5/1
f 4/5/1 2/5/1 3/5/1
f 5/1/1 4/1/1 3/1/1
f 6/1/1 4/1/1 5/1/1
f 7/3/1 6/3/1 5/3/1
f 8/3/1 6/3/1 7/3/1
f 9/1/1 8/1/1 7/1/1
f 10/1/1 8/1/1 9/1/1
f 11/5/1 10/5/1 9/5/1
f 12/5/1 10/5/1 11/5/1
f 13/1/1 12/1/1 11/1/1
f 14/1/1 12/1/1 13/1/1
f 15/3/1 14/3/1 13/3/1
f 16/3/1 14/3/1 15/3/1
f 17/1/1 16/1/1 15/1/1
f 18/1/1 16/1/1 17/1/1
f 19/5/1 18/5/1 17/5/1
f 20/5/1 18/5/1 19/5/1
f 23/5/1 22/5/1 21/5/1
f 24/5/1 22/5/1 23/5/1
f 27/5/1 26/5/1 25/5/1
f 28/5/1 26/5/1 27/5/1
f 29/4/1 28/4/1 27/4/1
f 30/4/1 28/4/1 29/4/1
f 31/2/1 30/2/1 29/2/1
f 32/2/1 30/2/1 31/2/1
f 33/4/1 32/4/1 31/4/1
f 34/4/1 32/4/1 33/4/1
f 35/5/1 34/5/1 33/5/1
f 36/5/1 34/5/1 35/5/1
f 37/4/1 36/4/1 35/4/1
f 38/4/1 36/4/1 37/4/1
f 39/2/1 38/2/1 37/2/1
f 40/2/1 38/2/1 39/2/1
f 41/4/1 40/4/1 39/4/1
f 42/4/1 40/4/1 41/4/1
f 43/5/2 44/5/2 45/5/2
f 45/5/2 44/5/2 46/5/2
f 45/1/2 46/1/2 47/1/2
f 47/1/2 46/1/2 48/1/2
f 47/3/2 48/3/2 49/3/2
f 49/3/2 48/3/2 50/3/2
f 49/1/2 50/1/2 51/1/2
f 51/1/2 50/1/2 52/1/2
f 51/5/2 52/5/2 53/5/2
f 53/5/2 52/5/2 54/5/2
f 53/1/2 54/1/2 55/1/2
f 55/1/2 54/1/2 56/1/2
f 55/3/2 56/3/2 57/3/2
f 57/3/2 56/3/2 58/3/2
f 57/1/2 58/1/2 59/1/2
f 59/1/2 58/1/2 60/1/2
f 61/5/2 62/5/2 63/5/2
f 63/5/2 62/5/2 64/5/2
f 63/4/2 64/4/2 65/4/2
f 65/4/2 64/4/2 66/4/2
f 65/2/2 66/2/2 67/2/2
f 67/2/2 66/2/2 68/2/2
f 67/4/2 68/4/2 69/4/2
f 69/4/2 68/4/2 70/4/2
f 69/5/2 70/5/2 71/5/2
f 71/5/2 70/5/2 72/5/2
f 71/4/2 72/4/2 73/4/2
f 73/4/2 72/4/2 74/4/2
f 73/2/2 74/2/2 75/2/2
f 75/2/2 74/2/2 76/2/2
f 75/4/2 76/4/2 77/4/2
f 77/4/2 76/4/2 78/4/2
f 77/5/2 78/5/2 79/5/2
f 79/5/2 78/5/2 80/5/2
f 81/5/2 82/5/2 83/5/2
f 83/5/2 82/5/2 84/5/2
f 81/5/2 83/5/2 85/5/2
f 83/4/2 84/4/2 85/4/2
f 85/4/2 84/4/2 86/4/2
f 81/5/2 85/5/2 87/5/2
f 85/5/2 86/5/2 87/5/2
f 87/5/2 86/5/2 88/5/2
f 99/5/3 90/5/3 89/5/3
f 100/1/3 91/1/3 90/1/3
f 100/5/3 90/5/3 99/5/3
f 101/3/3 92/3/3 91/3/3
f 101/1/3 91/1/3 100/1/3
f 102/1/3 93/1/3 92/1/3
f 102/3/3 92/3/3 101/3/3
f 103/5/3 94/5/3 93/5/3
f 103/1/3 93/1/3 102/1/3
f 104/1/3 95/1/3 94/1/3
f 104/5/3 94/5/3 103/5/3
f 105/3/3 96/3/3 95/3/3
f 105/1/3 95/1/3 104/1/3
f 106/1/3 97/1/3 96/1/3
f 106/3/3 96/3/3 105/3/3
f 107/5/3 98/5/3 97/5/3
f 107/1/3 97/1/3 106/1/3
f 108/5/3 98/5/3 107/5/3
f 110/5/3 99/5/3 89/5/3
f 118/5/3 109/5/3 108/5/3
f 118/5/3 108/5/3 107/5/3
f 119/5/3 111/5/3 110/5/3
f 119/4/3 112/4/3 111/4/3
f 120/2/3 113/2/3 112/2/3
f 120/4/3 112/4/3 119/4/3
f 121/4/3 114/4/3 113/4/3
f 121/2/3 113/2/3 120/2/3
f 122/5/3 115/5/3 114/5/3
f 122/4/3 114/4/3 121/4/3
f 123/4/3 116/4/3 115/4/3
f 123/5/3 115/5/3 122/5/3
f 124/2/3 117/2/3 116/2/3
f 124/4/3 116/4/3 123/4/3
f 125/4/3 118/4/3 117/4/3
f 125/2/3 117/2/3 124/2/3
f 126/5/3 109/5/3 118/5/3
f 126/4/3 118/4/3 125/4/3
f 127/5/3 123/5/3 122/5/3
f 127/5/3 122/5/3 121/5/3
f 127/5/3 126/5/3 125/5/3
f 127/5/3 110/5/3 89/5/3
f 127/5/3 121/5/3 120/5/3
f 127/5/3 120/5/3 119/5/3
f 127/5/3 119/5/3 110/5/3
f 127/5/3 125/5/3 124/5/3
f 127/5/3 124/5/3 123/5/3
f 128/5/3 109/5/3 126/5/3
f 128/5/3 126/5/3 127/5/3
f 129/5/4 130/5/4 139/5/4
f 130/5/4 131/5/4 139/5/4
f 131/5/4 132/5/4 139/5/4
f 135/5/4 136/5/4 139/5/4
f 134/5/4 135/5/4 139/5/4
f 133/5/4 134/5/4 139/5/4
f 132/5/4 133/5/4 139/5/4
f 136/4/4 137/4/4 140/4/4
f 139/5/4 136/5/4 140/5/4
f 137/5/4 138/5/4 141/5/4
f 140/4/4 137/4/4 141/4/4
f 141/5/4 138/5/4 142/5/4
f 143/5/4 144/5/4 153/5/4
f 144/1/4 145/1/4 154/1/4
f 153/5/4 144/5/4 154/5/4
f 145/3/4 146/3/4 155/3/4
f 154/1/4 145/1/4 155/1/4
f 146/1/4 147/1/4 156/1/4
f 155/3/4 146/3/4 156/3/4
f 147/5/4 148/5/4 157/5/4
f 156/1/4 147/1/4 157/1/4
f 148/1/4 149/1/4 158/1/4
f 157/5/4 148/5/4 158/5/4
f 149/3/4 150/3/4 159/3/4
f 158/1/4 149/1/4 159/1/4
f 150/1/4 151/1/4 160/1/4
f 159/3/4 150/3/4 160/3/4
f 151/5/4 152/5/4 161/5/4
f 160/1/4 151/1/4 161/1/4
f 161/5/4 152/5/4 162/5/4
f 143/5/4 153/5/4 164/5/4
f 162/5/4 163/5/4 172/5/4
f 161/5/4 162/5/4 172/5/4
f 143/5/4 164/5/4 173/5/4
f 164/5/4 165/5/4 173/5/4
f 165/4/4 166/4/4 174/4/4
f 173/5/4 165/5/4 174/5/4
f 166/2/4 167/2/4 175/2/4
f 174/4/4 166/4/4 175/4/4
f 167/4/4 168/4/4 176/4/4
f 175/2/4 167/2/4 176/2/4
f 168/5/4 169/5/4 177/5/4
f 176/4/4 168/4/4 177/4/4
f 169/4/4 170/4/4 178/4/4
f 177/5/4 169/5/4 178/5/4
f 170/2/4 171/2/4 179/2/4
f 178/4/4 170/4/4 179/4/4
f 171/4/4 172/4/4 180/4/4
f 179/2/4 171/2/4 180/2/4
f 172/5/4 163/5/4 181/5/4
f 180/4/4 172/4/4 181/4/4
f 181/5/4 163/5/4 182/5/4
f 185/5/5 184/5/5 183/5/5
f 186/5/5 184/5/5 185/5/5
f 187/5/5 185/5/5 183/5/5
f 188/5/5 185/5/5 187/5/5
f 191/5/5 190/5/5 189/5/5
f 192/5/5 190/5/5 191/5/5
f 193/5/6 194/5/6 195/5/6
f 195/5/6 194/5/6 196/5/6
f 197/5/6 198/5/6 199/5/6
f 199/5/6 198/5/6 200/5/6
f 201/5/6 202/5/6 203/5/6
f 203/5/6 202/5/6 204/5/6
f 201/5/6 203/5/6 205/5/6
f 205/5/6 203/5/6 206/5/6
