# MagicaVoxel @ Ephtracy

# group
o 

# material
mtllib radiator.mtl
usemtl palette

# normals
vn -1 0 0
vn 1 0 0
vn 0 0 1
vn 0 0 -1
vn 0 -1 0
vn 0 1 0

# texcoords
vt 0.939453 0.5
vt 0.970703 0.5
vt 0.978516 0.5

# verts
v -0.6 0 1.6
v -0.6 0 1.5
v -0.6 0 1.4
v -0.6 0 1.3
v -0.6 0 1.2
v -0.6 0 1.1
v -0.6 0 1
v -0.6 0 0.9
v -0.6 0 0.8
v -0.6 0 0.7
v -0.6 0 0.6
v -0.6 0 0.5
v -0.6 0 0.4
v -0.6 0 0.3
v -0.6 0 0.2
v -0.6 0 0.1
v -0.6 0 0
v -0.6 0 -0.1
v -0.6 0 -0.2
v -0.6 0 -0.3
v -0.6 0 -0.4
v -0.6 0 -0.5
v -0.6 0 -0.6
v -0.6 0 -0.7
v -0.6 0 -0.8
v -0.6 0 -0.9
v -0.6 0 -1
v -0.6 0 -1.1
v -0.6 0 -1.2
v -0.6 0 -1.3
v -0.6 0 -1.4
v -0.6 0 -1.5
v -0.6 0 -1.6
v -0.6 0 -1.7
v -0.6 0 -1.8
v -0.6 0 -1.9
v -0.6 2.8 1.6
v -0.6 2.8 1.5
v -0.6 2.8 1.4
v -0.6 2.8 1.3
v -0.6 2.8 1.2
v -0.6 2.8 1.1
v -0.6 2.8 1
v -0.6 2.8 0.9
v -0.6 2.8 0.8
v -0.6 2.8 0.7
v -0.6 2.8 0.6
v -0.6 2.8 0.5
v -0.6 2.8 0.4
v -0.6 2.8 0.3
v -0.6 2.8 0.2
v -0.6 2.8 0.1
v -0.6 2.8 0
v -0.6 2.8 -0.1
v -0.6 2.8 -0.2
v -0.6 2.8 -0.3
v -0.6 2.8 -0.4
v -0.6 2.8 -0.5
v -0.6 2.8 -0.6
v -0.6 2.8 -0.7
v -0.6 2.8 -0.8
v -0.6 2.8 -0.9
v -0.6 2.8 -1
v -0.6 2.8 -1.1
v -0.6 2.8 -1.2
v -0.6 2.8 -1.3
v -0.6 2.8 -1.4
v -0.6 2.8 -1.5
v -0.6 2.8 -1.6
v -0.6 2.8 -1.7
v -0.6 2.8 -1.8
v -0.6 2.8 -1.9
v -0.3 0.6 1.4
v -0.3 0.6 1.3
v -0.3 0.6 1.1
v -0.3 0.6 1
v -0.3 0.6 0.8
v -0.3 0.6 0.7
v -0.3 0.6 0.5
v -0.3 0.6 0.4
v -0.3 0.6 0.2
v -0.3 0.6 0.1
v -0.3 0.6 -0.1
v -0.3 0.6 -0.2
v -0.3 0.6 -0.4
v -0.3 0.6 -0.5
v -0.3 0.6 -0.7
v -0.3 0.6 -0.8
v -0.3 0.6 -1
v -0.3 0.6 -1.1
v -0.3 0.6 -1.3
v -0.3 0.6 -1.4
v -0.3 0.6 -1.6
v -0.3 0.6 -1.7
v -0.3 0.6 -1.9
v -0.3 0.6 -2
v -0.3 2.1 1.4
v -0.3 2.1 1.3
v -0.3 2.1 1.1
v -0.3 2.1 1
v -0.3 2.1 0.8
v -0.3 2.1 0.7
v -0.3 2.1 0.5
v -0.3 2.1 0.4
v -0.3 2.1 0.2
v -0.3 2.1 0.1
v -0.3 2.1 -0.1
v -0.3 2.1 -0.2
v -0.3 2.1 -0.4
v -0.3 2.1 -0.5
v -0.3 2.1 -0.7
v -0.3 2.1 -0.8
v -0.3 2.1 -1
v -0.3 2.1 -1.1
v -0.3 2.1 -1.3
v -0.3 2.1 -1.4
v -0.3 2.1 -1.6
v -0.3 2.1 -1.7
v -0.3 2.1 -1.9
v -0.3 2.1 -2
v 0.1 0.6 1.4
v 0.1 0.6 1.3
v 0.1 0.6 1.1
v 0.1 0.6 1
v 0.1 0.6 0.8
v 0.1 0.6 0.7
v 0.1 0.6 0.5
v 0.1 0.6 0.4
v 0.1 0.6 0.2
v 0.1 0.6 0.1
v 0.1 0.6 -0.1
v 0.1 0.6 -0.2
v 0.1 0.6 -0.4
v 0.1 0.6 -0.5
v 0.1 0.6 -0.7
v 0.1 0.6 -0.8
v 0.1 0.6 -1
v 0.1 0.6 -1.1
v 0.1 0.6 -1.3
v 0.1 0.6 -1.4
v 0.1 0.6 -1.6
v 0.1 0.6 -1.7
v 0.1 0.6 -1.9
v 0.1 0.6 -2
v 0.1 2.1 1.4
v 0.1 2.1 1.3
v 0.1 2.1 1.1
v 0.1 2.1 1
v 0.1 2.1 0.8
v 0.1 2.1 0.7
v 0.1 2.1 0.5
v 0.1 2.1 0.4
v 0.1 2.1 0.2
v 0.1 2.1 0.1
v 0.1 2.1 -0.1
v 0.1 2.1 -0.2
v 0.1 2.1 -0.4
v 0.1 2.1 -0.5
v 0.1 2.1 -0.7
v 0.1 2.1 -0.8
v 0.1 2.1 -1
v 0.1 2.1 -1.1
v 0.1 2.1 -1.3
v 0.1 2.1 -1.4
v 0.1 2.1 -1.6
v 0.1 2.1 -1.7
v 0.1 2.1 -1.9
v 0.1 2.1 -2
v 0.4 0 1.6
v 0.4 0 1.5
v 0.4 0 1.4
v 0.4 0 1.3
v 0.4 0 1.2
v 0.4 0 1.1
v 0.4 0 1
v 0.4 0 0.9
v 0.4 0 0.8
v 0.4 0 0.7
v 0.4 0 0.6
v 0.4 0 0.5
v 0.4 0 0.4
v 0.4 0 0.3
v 0.4 0 0.2
v 0.4 0 0.1
v 0.4 0 0
v 0.4 0 -0.1
v 0.4 0 -0.2
v 0.4 0 -0.3
v 0.4 0 -0.4
v 0.4 0 -0.5
v 0.4 0 -0.6
v 0.4 0 -0.7
v 0.4 0 -0.8
v 0.4 0 -0.9
v 0.4 0 -1
v 0.4 0 -1.1
v 0.4 0 -1.2
v 0.4 0 -1.3
v 0.4 0 -1.4
v 0.4 0 -1.5
v 0.4 0 -1.6
v 0.4 0 -1.7
v 0.4 0 -1.8
v 0.4 0 -1.9
v 0.4 2.8 1.6
v 0.4 2.8 1.5
v 0.4 2.8 1.4
v 0.4 2.8 1.3
v 0.4 2.8 1.2
v 0.4 2.8 1.1
v 0.4 2.8 1
v 0.4 2.8 0.9
v 0.4 2.8 0.8
v 0.4 2.8 0.7
v 0.4 2.8 0.6
v 0.4 2.8 0.5
v 0.4 2.8 0.4
v 0.4 2.8 0.3
v 0.4 2.8 0.2
v 0.4 2.8 0.1
v 0.4 2.8 0
v 0.4 2.8 -0.1
v 0.4 2.8 -0.2
v 0.4 2.8 -0.3
v 0.4 2.8 -0.4
v 0.4 2.8 -0.5
v 0.4 2.8 -0.6
v 0.4 2.8 -0.7
v 0.4 2.8 -0.8
v 0.4 2.8 -0.9
v 0.4 2.8 -1
v 0.4 2.8 -1.1
v 0.4 2.8 -1.2
v 0.4 2.8 -1.3
v 0.4 2.8 -1.4
v 0.4 2.8 -1.5
v 0.4 2.8 -1.6
v 0.4 2.8 -1.7
v 0.4 2.8 -1.8
v 0.4 2.8 -1.9
v -0.6 0 1.6
v -0.6 2.8 1.6
v 0.4 0 1.6
v 0.4 2.8 1.6
v -0.6 0 1.3
v -0.6 2.8 1.3
v -0.3 0.6 1.3
v -0.3 2.1 1.3
v 0.1 0.6 1.3
v 0.1 2.1 1.3
v 0.4 0 1.3
v 0.4 2.8 1.3
v -0.6 0 1
v -0.6 2.8 1
v -0.3 0.6 1
v -0.3 2.1 1
v 0.1 0.6 1
v 0.1 2.1 1
v 0.4 0 1
v 0.4 2.8 1
v -0.6 0 0.7
v -0.6 2.8 0.7
v -0.3 0.6 0.7
v -0.3 2.1 0.7
v 0.1 0.6 0.7
v 0.1 2.1 0.7
v 0.4 0 0.7
v 0.4 2.8 0.7
v -0.6 0 0.4
v -0.6 2.8 0.4
v -0.3 0.6 0.4
v -0.3 2.1 0.4
v 0.1 0.6 0.4
v 0.1 2.1 0.4
v 0.4 0 0.4
v 0.4 2.8 0.4
v -0.6 0 0.1
v -0.6 2.8 0.1
v -0.3 0.6 0.1
v -0.3 2.1 0.1
v 0.1 0.6 0.1
v 0.1 2.1 0.1
v 0.4 0 0.1
v 0.4 2.8 0.1
v -0.6 0 -0.2
v -0.6 2.8 -0.2
v -0.3 0.6 -0.2
v -0.3 2.1 -0.2
v 0.1 0.6 -0.2
v 0.1 2.1 -0.2
v 0.4 0 -0.2
v 0.4 2.8 -0.2
v -0.6 0 -0.5
v -0.6 2.8 -0.5
v -0.3 0.6 -0.5
v -0.3 2.1 -0.5
v 0.1 0.6 -0.5
v 0.1 2.1 -0.5
v 0.4 0 -0.5
v 0.4 2.8 -0.5
v -0.6 0 -0.8
v -0.6 2.8 -0.8
v -0.3 0.6 -0.8
v -0.3 2.1 -0.8
v 0.1 0.6 -0.8
v 0.1 2.1 -0.8
v 0.4 0 -0.8
v 0.4 2.8 -0.8
v -0.6 0 -1.1
v -0.6 2.8 -1.1
v -0.3 0.6 -1.1
v -0.3 2.1 -1.1
v 0.1 0.6 -1.1
v 0.1 2.1 -1.1
v 0.4 0 -1.1
v 0.4 2.8 -1.1
v -0.6 0 -1.4
v -0.6 2.8 -1.4
v -0.3 0.6 -1.4
v -0.3 2.1 -1.4
v 0.1 0.6 -1.4
v 0.1 2.1 -1.4
v 0.4 0 -1.4
v 0.4 2.8 -1.4
v -0.6 0 -1.7
v -0.6 2.8 -1.7
v -0.3 0.6 -1.7
v -0.3 2.1 -1.7
v 0.1 0.6 -1.7
v 0.1 2.1 -1.7
v 0.4 0 -1.7
v 0.4 2.8 -1.7
v -0.6 0 1.4
v -0.6 2.8 1.4
v -0.3 0.6 1.4
v -0.3 2.1 1.4
v 0.1 0.6 1.4
v 0.1 2.1 1.4
v 0.4 0 1.4
v 0.4 2.8 1.4
v -0.6 0 1.1
v -0.6 2.8 1.1
v -0.3 0.6 1.1
v -0.3 2.1 1.1
v 0.1 0.6 1.1
v 0.1 2.1 1.1
v 0.4 0 1.1
v 0.4 2.8 1.1
v -0.6 0 0.8
v -0.6 2.8 0.8
v -0.3 0.6 0.8
v -0.3 2.1 0.8
v 0.1 0.6 0.8
v 0.1 2.1 0.8
v 0.4 0 0.8
v 0.4 2.8 0.8
v -0.6 0 0.5
v -0.6 2.8 0.5
v -0.3 0.6 0.5
v -0.3 2.1 0.5
v 0.1 0.6 0.5
v 0.1 2.1 0.5
v 0.4 0 0.5
v 0.4 2.8 0.5
v -0.6 0 0.2
v -0.6 2.8 0.2
v -0.3 0.6 0.2
v -0.3 2.1 0.2
v 0.1 0.6 0.2
v 0.1 2.1 0.2
v 0.4 0 0.2
v 0.4 2.8 0.2
v -0.6 0 -0.1
v -0.6 2.8 -0.1
v -0.3 0.6 -0.1
v -0.3 2.1 -0.1
v 0.1 0.6 -0.1
v 0.1 2.1 -0.1
v 0.4 0 -0.1
v 0.4 2.8 -0.1
v -0.6 0 -0.4
v -0.6 2.8 -0.4
v -0.3 0.6 -0.4
v -0.3 2.1 -0.4
v 0.1 0.6 -0.4
v 0.1 2.1 -0.4
v 0.4 0 -0.4
v 0.4 2.8 -0.4
v -0.6 0 -0.7
v -0.6 2.8 -0.7
v -0.3 0.6 -0.7
v -0.3 2.1 -0.7
v 0.1 0.6 -0.7
v 0.1 2.1 -0.7
v 0.4 0 -0.7
v 0.4 2.8 -0.7
v -0.6 0 -1
v -0.6 2.8 -1
v -0.3 0.6 -1
v -0.3 2.1 -1
v 0.1 0.6 -1
v 0.1 2.1 -1
v 0.4 0 -1
v 0.4 2.8 -1
v -0.6 0 -1.3
v -0.6 2.8 -1.3
v -0.3 0.6 -1.3
v -0.3 2.1 -1.3
v 0.1 0.6 -1.3
v 0.1 2.1 -1.3
v 0.4 0 -1.3
v 0.4 2.8 -1.3
v -0.6 0 -1.6
v -0.6 2.8 -1.6
v -0.3 0.6 -1.6
v -0.3 2.1 -1.6
v 0.1 0.6 -1.6
v 0.1 2.1 -1.6
v 0.4 0 -1.6
v 0.4 2.8 -1.6
v -0.6 0 -1.9
v -0.6 2.8 -1.9
v -0.3 0.6 -1.9
v -0.3 2.1 -1.9
v 0.1 0.6 -1.9
v 0.1 2.1 -1.9
v 0.4 0 -1.9
v 0.4 2.8 -1.9
v -0.3 0.6 -2
v -0.3 2.1 -2
v 0.1 0.6 -2
v 0.1 2.1 -2
v -0.6 0 1.6
v 0.4 0 1.6
v -0.6 0 1.5
v 0.4 0 1.5
v -0.6 0 1.4
v 0.4 0 1.4
v -0.6 0 1.3
v 0.4 0 1.3
v -0.6 0 1.2
v 0.4 0 1.2
v -0.6 0 1.1
v 0.4 0 1.1
v -0.6 0 1
v 0.4 0 1
v -0.6 0 0.9
v 0.4 0 0.9
v -0.6 0 0.8
v 0.4 0 0.8
v -0.6 0 0.7
v 0.4 0 0.7
v -0.6 0 0.6
v 0.4 0 0.6
v -0.6 0 0.5
v 0.4 0 0.5
v -0.6 0 0.4
v 0.4 0 0.4
v -0.6 0 0.3
v 0.4 0 0.3
v -0.6 0 0.2
v 0.4 0 0.2
v -0.6 0 0.1
v 0.4 0 0.1
v -0.6 0 0
v 0.4 0 0
v -0.6 0 -0.1
v 0.4 0 -0.1
v -0.6 0 -0.2
v 0.4 0 -0.2
v -0.6 0 -0.3
v 0.4 0 -0.3
v -0.6 0 -0.4
v 0.4 0 -0.4
v -0.6 0 -0.5
v 0.4 0 -0.5
v -0.6 0 -0.6
v 0.4 0 -0.6
v -0.6 0 -0.7
v 0.4 0 -0.7
v -0.6 0 -0.8
v 0.4 0 -0.8
v -0.6 0 -0.9
v 0.4 0 -0.9
v -0.6 0 -1
v 0.4 0 -1
v -0.6 0 -1.1
v 0.4 0 -1.1
v -0.6 0 -1.2
v 0.4 0 -1.2
v -0.6 0 -1.3
v 0.4 0 -1.3
v -0.6 0 -1.4
v 0.4 0 -1.4
v -0.6 0 -1.5
v 0.4 0 -1.5
v -0.6 0 -1.6
v 0.4 0 -1.6
v -0.6 0 -1.7
v 0.4 0 -1.7
v -0.6 0 -1.8
v 0.4 0 -1.8
v -0.6 0 -1.9
v 0.4 0 -1.9
v -0.3 0.6 1.4
v 0.1 0.6 1.4
v -0.3 0.6 1.3
v 0.1 0.6 1.3
v -0.3 0.6 1.1
v 0.1 0.6 1.1
v -0.3 0.6 1
v 0.1 0.6 1
v -0.3 0.6 0.8
v 0.1 0.6 0.8
v -0.3 0.6 0.7
v 0.1 0.6 0.7
v -0.3 0.6 0.5
v 0.1 0.6 0.5
v -0.3 0.6 0.4
v 0.1 0.6 0.4
v -0.3 0.6 0.2
v 0.1 0.6 0.2
v -0.3 0.6 0.1
v 0.1 0.6 0.1
v -0.3 0.6 -0.1
v 0.1 0.6 -0.1
v -0.3 0.6 -0.2
v 0.1 0.6 -0.2
v -0.3 0.6 -0.4
v 0.1 0.6 -0.4
v -0.3 0.6 -0.5
v 0.1 0.6 -0.5
v -0.3 0.6 -0.7
v 0.1 0.6 -0.7
v -0.3 0.6 -0.8
v 0.1 0.6 -0.8
v -0.3 0.6 -1
v 0.1 0.6 -1
v -0.3 0.6 -1.1
v 0.1 0.6 -1.1
v -0.3 0.6 -1.3
v 0.1 0.6 -1.3
v -0.3 0.6 -1.4
v 0.1 0.6 -1.4
v -0.3 0.6 -1.6
v 0.1 0.6 -1.6
v -0.3 0.6 -1.7
v 0.1 0.6 -1.7
v -0.3 0.6 -1.9
v 0.1 0.6 -1.9
v -0.3 0.6 -2
v 0.1 0.6 -2
v -0.3 2.1 1.4
v 0.1 2.1 1.4
v -0.3 2.1 1.3
v 0.1 2.1 1.3
v -0.3 2.1 1.1
v 0.1 2.1 1.1
v -0.3 2.1 1
v 0.1 2.1 1
v -0.3 2.1 0.8
v 0.1 2.1 0.8
v -0.3 2.1 0.7
v 0.1 2.1 0.7
v -0.3 2.1 0.5
v 0.1 2.1 0.5
v -0.3 2.1 0.4
v 0.1 2.1 0.4
v -0.3 2.1 0.2
v 0.1 2.1 0.2
v -0.3 2.1 0.1
v 0.1 2.1 0.1
v -0.3 2.1 -0.1
v 0.1 2.1 -0.1
v -0.3 2.1 -0.2
v 0.1 2.1 -0.2
v -0.3 2.1 -0.4
v 0.1 2.1 -0.4
v -0.3 2.1 -0.5
v 0.1 2.1 -0.5
v -0.3 2.1 -0.7
v 0.1 2.1 -0.7
v -0.3 2.1 -0.8
v 0.1 2.1 -0.8
v -0.3 2.1 -1
v 0.1 2.1 -1
v -0.3 2.1 -1.1
v 0.1 2.1 -1.1
v -0.3 2.1 -1.3
v 0.1 2.1 -1.3
v -0.3 2.1 -1.4
v 0.1 2.1 -1.4
v -0.3 2.1 -1.6
v 0.1 2.1 -1.6
v -0.3 2.1 -1.7
v 0.1 2.1 -1.7
v -0.3 2.1 -1.9
v 0.1 2.1 -1.9
v -0.3 2.1 -2
v 0.1 2.1 -2
v -0.6 2.8 1.6
v 0.4 2.8 1.6
v -0.6 2.8 1.5
v 0.4 2.8 1.5
v -0.6 2.8 1.4
v 0.4 2.8 1.4
v -0.6 2.8 1.3
v 0.4 2.8 1.3
v -0.6 2.8 1.2
v 0.4 2.8 1.2
v -0.6 2.8 1.1
v 0.4 2.8 1.1
v -0.6 2.8 1
v 0.4 2.8 1
v -0.6 2.8 0.9
v 0.4 2.8 0.9
v -0.6 2.8 0.8
v 0.4 2.8 0.8
v -0.6 2.8 0.7
v 0.4 2.8 0.7
v -0.6 2.8 0.6
v 0.4 2.8 0.6
v -0.6 2.8 0.5
v 0.4 2.8 0.5
v -0.6 2.8 0.4
v 0.4 2.8 0.4
v -0.6 2.8 0.3
v 0.4 2.8 0.3
v -0.6 2.8 0.2
v 0.4 2.8 0.2
v -0.6 2.8 0.1
v 0.4 2.8 0.1
v -0.6 2.8 0
v 0.4 2.8 0
v -0.6 2.8 -0.1
v 0.4 2.8 -0.1
v -0.6 2.8 -0.2
v 0.4 2.8 -0.2
v -0.6 2.8 -0.3
v 0.4 2.8 -0.3
v -0.6 2.8 -0.4
v 0.4 2.8 -0.4
v -0.6 2.8 -0.5
v 0.4 2.8 -0.5
v -0.6 2.8 -0.6
v 0.4 2.8 -0.6
v -0.6 2.8 -0.7
v 0.4 2.8 -0.7
v -0.6 2.8 -0.8
v 0.4 2.8 -0.8
v -0.6 2.8 -0.9
v 0.4 2.8 -0.9
v -0.6 2.8 -1
v 0.4 2.8 -1
v -0.6 2.8 -1.1
v 0.4 2.8 -1.1
v -0.6 2.8 -1.2
v 0.4 2.8 -1.2
v -0.6 2.8 -1.3
v 0.4 2.8 -1.3
v -0.6 2.8 -1.4
v 0.4 2.8 -1.4
v -0.6 2.8 -1.5
v 0.4 2.8 -1.5
v -0.6 2.8 -1.6
v 0.4 2.8 -1.6
v -0.6 2.8 -1.7
v 0.4 2.8 -1.7
v -0.6 2.8 -1.8
v 0.4 2.8 -1.8
v -0.6 2.8 -1.9
v 0.4 2.8 -1.9

# faces
f 37/1/1 2/1/1 1/1/1
f 38/2/1 3/2/1 2/2/1
f 38/1/1 2/1/1 37/1/1
f 39/2/1 3/2/1 38/2/1
f 40/1/1 5/1/1 4/1/1
f 41/2/1 6/2/1 5/2/1
f 41/1/1 5/1/1 40/1/1
f 42/2/1 6/2/1 41/2/1
f 43/1/1 8/1/1 7/1/1
f 44/2/1 9/2/1 8/2/1
f 44/1/1 8/1/1 43/1/1
f 45/2/1 9/2/1 44/2/1
f 46/1/1 11/1/1 10/1/1
f 47/2/1 12/2/1 11/2/1
f 47/1/1 11/1/1 46/1/1
f 48/2/1 12/2/1 47/2/1
f 49/1/1 14/1/1 13/1/1
f 50/2/1 15/2/1 14/2/1
f 50/1/1 14/1/1 49/1/1
f 51/2/1 15/2/1 50/2/1
f 52/1/1 17/1/1 16/1/1
f 53/2/1 18/2/1 17/2/1
f 53/1/1 17/1/1 52/1/1
f 54/2/1 18/2/1 53/2/1
f 55/1/1 20/1/1 19/1/1
f 56/2/1 21/2/1 20/2/1
f 56/1/1 20/1/1 55/1/1
f 57/2/1 21/2/1 56/2/1
f 58/1/1 23/1/1 22/1/1
f 59/2/1 24/2/1 23/2/1
f 59/1/1 23/1/1 58/1/1
f 60/2/1 24/2/1 59/2/1
f 61/1/1 26/1/1 25/1/1
f 62/2/1 27/2/1 26/2/1
f 62/1/1 26/1/1 61/1/1
f 63/2/1 27/2/1 62/2/1
f 64/1/1 29/1/1 28/1/1
f 65/2/1 30/2/1 29/2/1
f 65/1/1 29/1/1 64/1/1
f 66/2/1 30/2/1 65/2/1
f 67/1/1 32/1/1 31/1/1
f 68/2/1 33/2/1 32/2/1
f 68/1/1 32/1/1 67/1/1
f 69/2/1 33/2/1 68/2/1
f 70/1/1 35/1/1 34/1/1
f 71/2/1 36/2/1 35/2/1
f 71/1/1 35/1/1 70/1/1
f 72/2/1 36/2/1 71/2/1
f 97/3/1 74/3/1 73/3/1
f 98/3/1 74/3/1 97/3/1
f 99/3/1 76/3/1 75/3/1
f 100/3/1 76/3/1 99/3/1
f 101/3/1 78/3/1 77/3/1
f 102/3/1 78/3/1 101/3/1
f 103/3/1 80/3/1 79/3/1
f 104/3/1 80/3/1 103/3/1
f 105/3/1 82/3/1 81/3/1
f 106/3/1 82/3/1 105/3/1
f 107/3/1 84/3/1 83/3/1
f 108/3/1 84/3/1 107/3/1
f 109/3/1 86/3/1 85/3/1
f 110/3/1 86/3/1 109/3/1
f 111/3/1 88/3/1 87/3/1
f 112/3/1 88/3/1 111/3/1
f 113/3/1 90/3/1 89/3/1
f 114/3/1 90/3/1 113/3/1
f 115/3/1 92/3/1 91/3/1
f 116/3/1 92/3/1 115/3/1
f 117/3/1 94/3/1 93/3/1
f 118/3/1 94/3/1 117/3/1
f 119/3/1 96/3/1 95/3/1
f 120/3/1 96/3/1 119/3/1
f 121/3/2 122/3/2 145/3/2
f 145/3/2 122/3/2 146/3/2
f 123/3/2 124/3/2 147/3/2
f 147/3/2 124/3/2 148/3/2
f 125/3/2 126/3/2 149/3/2
f 149/3/2 126/3/2 150/3/2
f 127/3/2 128/3/2 151/3/2
f 151/3/2 128/3/2 152/3/2
f 129/3/2 130/3/2 153/3/2
f 153/3/2 130/3/2 154/3/2
f 131/3/2 132/3/2 155/3/2
f 155/3/2 132/3/2 156/3/2
f 133/3/2 134/3/2 157/3/2
f 157/3/2 134/3/2 158/3/2
f 135/3/2 136/3/2 159/3/2
f 159/3/2 136/3/2 160/3/2
f 137/3/2 138/3/2 161/3/2
f 161/3/2 138/3/2 162/3/2
f 139/3/2 140/3/2 163/3/2
f 163/3/2 140/3/2 164/3/2
f 141/3/2 142/3/2 165/3/2
f 165/3/2 142/3/2 166/3/2
f 143/3/2 144/3/2 167/3/2
f 167/3/2 144/3/2 168/3/2
f 169/1/2 170/1/2 205/1/2
f 170/2/2 171/2/2 206/2/2
f 205/1/2 170/1/2 206/1/2
f 206/2/2 171/2/2 207/2/2
f 172/1/2 173/1/2 208/1/2
f 173/2/2 174/2/2 209/2/2
f 208/1/2 173/1/2 209/1/2
f 209/2/2 174/2/2 210/2/2
f 175/1/2 176/1/2 211/1/2
f 176/2/2 177/2/2 212/2/2
f 211/1/2 176/1/2 212/1/2
f 212/2/2 177/2/2 213/2/2
f 178/1/2 179/1/2 214/1/2
f 179/2/2 180/2/2 215/2/2
f 214/1/2 179/1/2 215/1/2
f 215/2/2 180/2/2 216/2/2
f 181/1/2 182/1/2 217/1/2
f 182/2/2 183/2/2 218/2/2
f 217/1/2 182/1/2 218/1/2
f 218/2/2 183/2/2 219/2/2
f 184/1/2 185/1/2 220/1/2
f 185/2/2 186/2/2 221/2/2
f 220/1/2 185/1/2 221/1/2
f 221/2/2 186/2/2 222/2/2
f 187/1/2 188/1/2 223/1/2
f 188/2/2 189/2/2 224/2/2
f 223/1/2 188/1/2 224/1/2
f 224/2/2 189/2/2 225/2/2
f 190/1/2 191/1/2 226/1/2
f 191/2/2 192/2/2 227/2/2
f 226/1/2 191/1/2 227/1/2
f 227/2/2 192/2/2 228/2/2
f 193/1/2 194/1/2 229/1/2
f 194/2/2 195/2/2 230/2/2
f 229/1/2 194/1/2 230/1/2
f 230/2/2 195/2/2 231/2/2
f 196/1/2 197/1/2 232/1/2
f 197/2/2 198/2/2 233/2/2
f 232/1/2 197/1/2 233/1/2
f 233/2/2 198/2/2 234/2/2
f 199/1/2 200/1/2 235/1/2
f 200/2/2 201/2/2 236/2/2
f 235/1/2 200/1/2 236/1/2
f 236/2/2 201/2/2 237/2/2
f 202/1/2 203/1/2 238/1/2
f 203/2/2 204/2/2 239/2/2
f 238/1/2 203/1/2 239/1/2
f 239/2/2 204/2/2 240/2/2
f 243/1/3 242/1/3 241/1/3
f 244/1/3 242/1/3 243/1/3
f 247/1/3 246/1/3 245/1/3
f 248/1/3 246/1/3 247/1/3
f 249/1/3 247/1/3 245/1/3
f 250/1/3 246/1/3 248/1/3
f 251/1/3 249/1/3 245/1/3
f 251/1/3 250/1/3 249/1/3
f 252/1/3 246/1/3 250/1/3
f 252/1/3 250/1/3 251/1/3
f 255/1/3 254/1/3 253/1/3
f 256/1/3 254/1/3 255/1/3
f 257/1/3 255/1/3 253/1/3
f 258/1/3 254/1/3 256/1/3
f 259/1/3 257/1/3 253/1/3
f 259/1/3 258/1/3 257/1/3
f 260/1/3 254/1/3 258/1/3
f 260/1/3 258/1/3 259/1/3
f 263/1/3 262/1/3 261/1/3
f 264/1/3 262/1/3 263/1/3
f 265/1/3 263/1/3 261/1/3
f 266/1/3 262/1/3 264/1/3
f 267/1/3 265/1/3 261/1/3
f 267/1/3 266/1/3 265/1/3
f 268/1/3 262/1/3 266/1/3
f 268/1/3 266/1/3 267/1/3
f 271/1/3 270/1/3 269/1/3
f 272/1/3 270/1/3 271/1/3
f 273/1/3 271/1/3 269/1/3
f 274/1/3 270/1/3 272/1/3
f 275/1/3 273/1/3 269/1/3
f 275/1/3 274/1/3 273/1/3
f 276/1/3 270/1/3 274/1/3
f 276/1/3 274/1/3 275/1/3
f 279/1/3 278/1/3 277/1/3
f 280/1/3 278/1/3 279/1/3
f 281/1/3 279/1/3 277/1/3
f 282/1/3 278/1/3 280/1/3
f 283/1/3 281/1/3 277/1/3
f 283/1/3 282/1/3 281/1/3
f 284/1/3 278/1/3 282/1/3
f 284/1/3 282/1/3 283/1/3
f 287/1/3 286/1/3 285/1/3
f 288/1/3 286/1/3 287/1/3
f 289/1/3 287/1/3 285/1/3
f 290/1/3 286/1/3 288/1/3
f 291/1/3 289/1/3 285/1/3
f 291/1/3 290/1/3 289/1/3
f 292/1/3 286/1/3 290/1/3
f 292/1/3 290/1/3 291/1/3
f 295/1/3 294/1/3 293/1/3
f 296/1/3 294/1/3 295/1/3
f 297/1/3 295/1/3 293/1/3
f 298/1/3 294/1/3 296/1/3
f 299/1/3 297/1/3 293/1/3
f 299/1/3 298/1/3 297/1/3
f 300/1/3 294/1/3 298/1/3
f 300/1/3 298/1/3 299/1/3
f 303/1/3 302/1/3 301/1/3
f 304/1/3 302/1/3 303/1/3
f 305/1/3 303/1/3 301/1/3
f 306/1/3 302/1/3 304/1/3
f 307/1/3 305/1/3 301/1/3
f 307/1/3 306/1/3 305/1/3
f 308/1/3 302/1/3 306/1/3
f 308/1/3 306/1/3 307/1/3
f 311/1/3 310/1/3 309/1/3
f 312/1/3 310/1/3 311/1/3
f 313/1/3 311/1/3 309/1/3
f 314/1/3 310/1/3 312/1/3
f 315/1/3 313/1/3 309/1/3
f 315/1/3 314/1/3 313/1/3
f 316/1/3 310/1/3 314/1/3
f 316/1/3 314/1/3 315/1/3
f 319/1/3 318/1/3 317/1/3
f 320/1/3 318/1/3 319/1/3
f 321/1/3 319/1/3 317/1/3
f 322/1/3 318/1/3 320/1/3
f 323/1/3 321/1/3 317/1/3
f 323/1/3 322/1/3 321/1/3
f 324/1/3 318/1/3 322/1/3
f 324/1/3 322/1/3 323/1/3
f 327/1/3 326/1/3 325/1/3
f 328/1/3 326/1/3 327/1/3
f 329/1/3 327/1/3 325/1/3
f 330/1/3 326/1/3 328/1/3
f 331/1/3 329/1/3 325/1/3
f 331/1/3 330/1/3 329/1/3
f 332/1/3 326/1/3 330/1/3
f 332/1/3 330/1/3 331/1/3
f 333/2/4 334/2/4 335/2/4
f 335/2/4 334/2/4 336/2/4
f 333/2/4 335/2/4 337/2/4
f 336/2/4 334/2/4 338/2/4
f 333/2/4 337/2/4 339/2/4
f 337/2/4 338/2/4 339/2/4
f 338/2/4 334/2/4 340/2/4
f 339/2/4 338/2/4 340/2/4
f 341/2/4 342/2/4 343/2/4
f 343/2/4 342/2/4 344/2/4
f 341/2/4 343/2/4 345/2/4
f 344/2/4 342/2/4 346/2/4
f 341/2/4 345/2/4 347/2/4
f 345/2/4 346/2/4 347/2/4
f 346/2/4 342/2/4 348/2/4
f 347/2/4 346/2/4 348/2/4
f 349/2/4 350/2/4 351/2/4
f 351/2/4 350/2/4 352/2/4
f 349/2/4 351/2/4 353/2/4
f 352/2/4 350/2/4 354/2/4
f 349/2/4 353/2/4 355/2/4
f 353/2/4 354/2/4 355/2/4
f 354/2/4 350/2/4 356/2/4
f 355/2/4 354/2/4 356/2/4
f 357/2/4 358/2/4 359/2/4
f 359/2/4 358/2/4 360/2/4
f 357/2/4 359/2/4 361/2/4
f 360/2/4 358/2/4 362/2/4
f 357/2/4 361/2/4 363/2/4
f 361/2/4 362/2/4 363/2/4
f 362/2/4 358/2/4 364/2/4
f 363/2/4 362/2/4 364/2/4
f 365/2/4 366/2/4 367/2/4
f 367/2/4 366/2/4 368/2/4
f 365/2/4 367/2/4 369/2/4
f 368/2/4 366/2/4 370/2/4
f 365/2/4 369/2/4 371/2/4
f 369/2/4 370/2/4 371/2/4
f 370/2/4 366/2/4 372/2/4
f 371/2/4 370/2/4 372/2/4
f 373/2/4 374/2/4 375/2/4
f 375/2/4 374/2/4 376/2/4
f 373/2/4 375/2/4 377/2/4
f 376/2/4 374/2/4 378/2/4
f 373/2/4 377/2/4 379/2/4
f 377/2/4 378/2/4 379/2/4
f 378/2/4 374/2/4 380/2/4
f 379/2/4 378/2/4 380/2/4
f 381/2/4 382/2/4 383/2/4
f 383/2/4 382/2/4 384/2/4
f 381/2/4 383/2/4 385/2/4
f 384/2/4 382/2/4 386/2/4
f 381/2/4 385/2/4 387/2/4
f 385/2/4 386/2/4 387/2/4
f 386/2/4 382/2/4 388/2/4
f 387/2/4 386/2/4 388/2/4
f 389/2/4 390/2/4 391/2/4
f 391/2/4 390/2/4 392/2/4
f 389/2/4 391/2/4 393/2/4
f 392/2/4 390/2/4 394/2/4
f 389/2/4 393/2/4 395/2/4
f 393/2/4 394/2/4 395/2/4
f 394/2/4 390/2/4 396/2/4
f 395/2/4 394/2/4 396/2/4
f 397/2/4 398/2/4 399/2/4
f 399/2/4 398/2/4 400/2/4
f 397/2/4 399/2/4 401/2/4
f 400/2/4 398/2/4 402/2/4
f 397/2/4 401/2/4 403/2/4
f 401/2/4 402/2/4 403/2/4
f 402/2/4 398/2/4 404/2/4
f 403/2/4 402/2/4 404/2/4
f 405/2/4 406/2/4 407/2/4
f 407/2/4 406/2/4 408/2/4
f 405/2/4 407/2/4 409/2/4
f 408/2/4 406/2/4 410/2/4
f 405/2/4 409/2/4 411/2/4
f 409/2/4 410/2/4 411/2/4
f 410/2/4 406/2/4 412/2/4
f 411/2/4 410/2/4 412/2/4
f 413/2/4 414/2/4 415/2/4
f 415/2/4 414/2/4 416/2/4
f 413/2/4 415/2/4 417/2/4
f 416/2/4 414/2/4 418/2/4
f 413/2/4 417/2/4 419/2/4
f 417/2/4 418/2/4 419/2/4
f 418/2/4 414/2/4 420/2/4
f 419/2/4 418/2/4 420/2/4
f 421/2/4 422/2/4 423/2/4
f 423/2/4 422/2/4 424/2/4
f 421/2/4 423/2/4 425/2/4
f 424/2/4 422/2/4 426/2/4
f 421/2/4 425/2/4 427/2/4
f 425/2/4 426/2/4 427/2/4
f 426/2/4 422/2/4 428/2/4
f 427/2/4 426/2/4 428/2/4
f 429/3/4 430/3/4 431/3/4
f 431/3/4 430/3/4 432/3/4
f 435/1/5 434/1/5 433/1/5
f 436/1/5 434/1/5 435/1/5
f 437/2/5 436/2/5 435/2/5
f 438/2/5 436/2/5 437/2/5
f 441/1/5 440/1/5 439/1/5
f 442/1/5 440/1/5 441/1/5
f 443/2/5 442/2/5 441/2/5
f 444/2/5 442/2/5 443/2/5
f 447/1/5 446/1/5 445/1/5
f 448/1/5 446/1/5 447/1/5
f 449/2/5 448/2/5 447/2/5
f 450/2/5 448/2/5 449/2/5
f 453/1/5 452/1/5 451/1/5
f 454/1/5 452/1/5 453/1/5
f 455/2/5 454/2/5 453/2/5
f 456/2/5 454/2/5 455/2/5
f 459/1/5 458/1/5 457/1/5
f 460/1/5 458/1/5 459/1/5
f 461/2/5 460/2/5 459/2/5
f 462/2/5 460/2/5 461/2/5
f 465/1/5 464/1/5 463/1/5
f 466/1/5 464/1/5 465/1/5
f 467/2/5 466/2/5 465/2/5
f 468/2/5 466/2/5 467/2/5
f 471/1/5 470/1/5 469/1/5
f 472/1/5 470/1/5 471/1/5
f 473/2/5 472/2/5 471/2/5
f 474/2/5 472/2/5 473/2/5
f 477/1/5 476/1/5 475/1/5
f 478/1/5 476/1/5 477/1/5
f 479/2/5 478/2/5 477/2/5
f 480/2/5 478/2/5 479/2/5
f 483/1/5 482/1/5 481/1/5
f 484/1/5 482/1/5 483/1/5
f 485/2/5 484/2/5 483/2/5
f 486/2/5 484/2/5 485/2/5
f 489/1/5 488/1/5 487/1/5
f 490/1/5 488/1/5 489/1/5
f 491/2/5 490/2/5 489/2/5
f 492/2/5 490/2/5 491/2/5
f 495/1/5 494/1/5 493/1/5
f 496/1/5 494/1/5 495/1/5
f 497/2/5 496/2/5 495/2/5
f 498/2/5 496/2/5 497/2/5
f 501/1/5 500/1/5 499/1/5
f 502/1/5 500/1/5 501/1/5
f 503/2/5 502/2/5 501/2/5
f 504/2/5 502/2/5 503/2/5
f 507/3/5 506/3/5 505/3/5
f 508/3/5 506/3/5 507/3/5
f 511/3/5 510/3/5 509/3/5
f 512/3/5 510/3/5 511/3/5
f 515/3/5 514/3/5 513/3/5
f 516/3/5 514/3/5 515/3/5
f 519/3/5 518/3/5 517/3/5
f 520/3/5 518/3/5 519/3/5
f 523/3/5 522/3/5 521/3/5
f 524/3/5 522/3/5 523/3/5
f 527/3/5 526/3/5 525/3/5
f 528/3/5 526/3/5 527/3/5
f 531/3/5 530/3/5 529/3/5
f 532/3/5 530/3/5 531/3/5
f 535/3/5 534/3/5 533/3/5
f 536/3/5 534/3/5 535/3/5
f 539/3/5 538/3/5 537/3/5
f 540/3/5 538/3/5 539/3/5
f 543/3/5 542/3/5 541/3/5
f 544/3/5 542/3/5 543/3/5
f 547/3/5 546/3/5 545/3/5
f 548/3/5 546/3/5 547/3/5
f 551/3/5 550/3/5 549/3/5
f 552/3/5 550/3/5 551/3/5
f 553/3/6 554/3/6 555/3/6
f 555/3/6 554/3/6 556/3/6
f 557/3/6 558/3/6 559/3/6
f 559/3/6 558/3/6 560/3/6
f 561/3/6 562/3/6 563/3/6
f 563/3/6 562/3/6 564/3/6
f 565/3/6 566/3/6 567/3/6
f 567/3/6 566/3/6 568/3/6
f 569/3/6 570/3/6 571/3/6
f 571/3/6 570/3/6 572/3/6
f 573/3/6 574/3/6 575/3/6
f 575/3/6 574/3/6 576/3/6
f 577/3/6 578/3/6 579/3/6
f 579/3/6 578/3/6 580/3/6
f 581/3/6 582/3/6 583/3/6
f 583/3/6 582/3/6 584/3/6
f 585/3/6 586/3/6 587/3/6
f 587/3/6 586/3/6 588/3/6
f 589/3/6 590/3/6 591/3/6
f 591/3/6 590/3/6 592/3/6
f 593/3/6 594/3/6 595/3/6
f 595/3/6 594/3/6 596/3/6
f 597/3/6 598/3/6 599/3/6
f 599/3/6 598/3/6 600/3/6
f 601/1/6 602/1/6 603/1/6
f 603/1/6 602/1/6 604/1/6
f 603/2/6 604/2/6 605/2/6
f 605/2/6 604/2/6 606/2/6
f 607/1/6 608/1/6 609/1/6
f 609/1/6 608/1/6 610/1/6
f 609/2/6 610/2/6 611/2/6
f 611/2/6 610/2/6 612/2/6
f 613/1/6 614/1/6 615/1/6
f 615/1/6 614/1/6 616/1/6
f 615/2/6 616/2/6 617/2/6
f 617/2/6 616/2/6 618/2/6
f 619/1/6 620/1/6 621/1/6
f 621/1/6 620/1/6 622/1/6
f 621/2/6 622/2/6 623/2/6
f 623/2/6 622/2/6 624/2/6
f 625/1/6 626/1/6 627/1/6
f 627/1/6 626/1/6 628/1/6
f 627/2/6 628/2/6 629/2/6
f 629/2/6 628/2/6 630/2/6
f 631/1/6 632/1/6 633/1/6
f 633/1/6 632/1/6 634/1/6
f 633/2/6 634/2/6 635/2/6
f 635/2/6 634/2/6 636/2/6
f 637/1/6 638/1/6 639/1/6
f 639/1/6 638/1/6 640/1/6
f 639/2/6 640/2/6 641/2/6
f 641/2/6 640/2/6 642/2/6
f 643/1/6 644/1/6 645/1/6
f 645/1/6 644/1/6 646/1/6
f 645/2/6 646/2/6 647/2/6
f 647/2/6 646/2/6 648/2/6
f 649/1/6 650/1/6 651/1/6
f 651/1/6 650/1/6 652/1/6
f 651/2/6 652/2/6 653/2/6
f 653/2/6 652/2/6 654/2/6
f 655/1/6 656/1/6 657/1/6
f 657/1/6 656/1/6 658/1/6
f 657/2/6 658/2/6 659/2/6
f 659/2/6 658/2/6 660/2/6
f 661/1/6 662/1/6 663/1/6
f 663/1/6 662/1/6 664/1/6
f 663/2/6 664/2/6 665/2/6
f 665/2/6 664/2/6 666/2/6
f 667/1/6 668/1/6 669/1/6
f 669/1/6 668/1/6 670/1/6
f 669/2/6 670/2/6 671/2/6
f 671/2/6 670/2/6 672/2/6
