# MagicaVoxel @ Ephtracy

# group
o 

# material
mtllib trans_5.mtl
usemtl palette

# normals
vn -1 0 0
vn 1 0 0
vn 0 0 1
vn 0 0 -1
vn 0 -1 0
vn 0 1 0

# texcoords
vt 0.962891 0.5
vt 0.970703 0.5

# verts
v -0.3 0.1 0.1
v -0.3 0.1 -0.5
v -0.3 0.2 0.1
v -0.3 0.2 -0.5
v -0.2 0 0.4
v -0.2 0 0.3
v -0.2 0 0.1
v -0.2 0 -0.5
v -0.2 0 -0.7
v -0.2 0 -0.8
v -0.2 0.1 0.3
v -0.2 0.1 0.2
v -0.2 0.1 0.1
v -0.2 0.1 -0.5
v -0.2 0.1 -0.6
v -0.2 0.1 -0.7
v -0.2 0.2 0.4
v -0.2 0.2 0.2
v -0.2 0.2 0.1
v -0.2 0.2 -0.5
v -0.2 0.2 -0.6
v -0.2 0.2 -0.8
v -0.2 0.3 0.1
v -0.2 0.3 -0.5
v -0.1 0 0.4
v -0.1 0 0.3
v -0.1 0 0.1
v -0.1 0 -0.5
v -0.1 0 -0.7
v -0.1 0 -0.8
v -0.1 0.1 0.3
v -0.1 0.1 0.2
v -0.1 0.1 0.1
v -0.1 0.1 -0.5
v -0.1 0.1 -0.6
v -0.1 0.1 -0.7
v -0.1 0.2 0.4
v -0.1 0.2 0.2
v -0.1 0.2 0.1
v -0.1 0.2 -0.5
v -0.1 0.2 -0.6
v -0.1 0.2 -0.8
v -0.1 0.3 0.1
v -0.1 0.3 -0.5
v 0 0.1 0.1
v 0 0.1 -0.5
v 0 0.2 0.1
v 0 0.2 -0.5
v -0.2 0 0.4
v -0.2 0.2 0.4
v -0.1 0 0.4
v -0.1 0.2 0.4
v -0.3 0.1 0.1
v -0.3 0.2 0.1
v -0.2 0 0.1
v -0.2 0.1 0.1
v -0.2 0.2 0.1
v -0.2 0.3 0.1
v -0.1 0 0.1
v -0.1 0.1 0.1
v -0.1 0.2 0.1
v -0.1 0.3 0.1
v 0 0.1 0.1
v 0 0.2 0.1
v -0.2 0 -0.7
v -0.2 0.1 -0.7
v -0.1 0 -0.7
v -0.1 0.1 -0.7
v -0.2 0 0.3
v -0.2 0.1 0.3
v -0.1 0 0.3
v -0.1 0.1 0.3
v -0.3 0.1 -0.5
v -0.3 0.2 -0.5
v -0.2 0 -0.5
v -0.2 0.1 -0.5
v -0.2 0.2 -0.5
v -0.2 0.3 -0.5
v -0.1 0 -0.5
v -0.1 0.1 -0.5
v -0.1 0.2 -0.5
v -0.1 0.3 -0.5
v 0 0.1 -0.5
v 0 0.2 -0.5
v -0.2 0 -0.8
v -0.2 0.2 -0.8
v -0.1 0 -0.8
v -0.1 0.2 -0.8
v -0.2 0 0.4
v -0.1 0 0.4
v -0.2 0 0.3
v -0.1 0 0.3
v -0.2 0 0.1
v -0.1 0 0.1
v -0.2 0 -0.5
v -0.1 0 -0.5
v -0.2 0 -0.7
v -0.1 0 -0.7
v -0.2 0 -0.8
v -0.1 0 -0.8
v -0.2 0.1 0.3
v -0.1 0.1 0.3
v -0.2 0.1 0.2
v -0.1 0.1 0.2
v -0.3 0.1 0.1
v -0.2 0.1 0.1
v -0.1 0.1 0.1
v 0 0.1 0.1
v -0.3 0.1 -0.5
v -0.2 0.1 -0.5
v -0.1 0.1 -0.5
v 0 0.1 -0.5
v -0.2 0.1 -0.6
v -0.1 0.1 -0.6
v -0.2 0.1 -0.7
v -0.1 0.1 -0.7
v -0.2 0.2 0.4
v -0.1 0.2 0.4
v -0.2 0.2 0.2
v -0.1 0.2 0.2
v -0.3 0.2 0.1
v -0.2 0.2 0.1
v -0.1 0.2 0.1
v 0 0.2 0.1
v -0.3 0.2 -0.5
v -0.2 0.2 -0.5
v -0.1 0.2 -0.5
v 0 0.2 -0.5
v -0.2 0.2 -0.6
v -0.1 0.2 -0.6
v -0.2 0.2 -0.8
v -0.1 0.2 -0.8
v -0.2 0.3 0.1
v -0.1 0.3 0.1
v -0.2 0.3 -0.5
v -0.1 0.3 -0.5

# faces
f 3/1/1 2/1/1 1/1/1
f 4/1/1 2/1/1 3/1/1
f 11/2/1 6/2/1 5/2/1
f 13/1/1 8/1/1 7/1/1
f 14/1/1 8/1/1 13/1/1
f 16/2/1 10/2/1 9/2/1
f 17/2/1 12/2/1 11/2/1
f 17/2/1 11/2/1 5/2/1
f 18/1/1 13/1/1 12/1/1
f 18/2/1 12/2/1 17/2/1
f 19/1/1 13/1/1 18/1/1
f 20/1/1 15/1/1 14/1/1
f 21/2/1 16/2/1 15/2/1
f 21/1/1 15/1/1 20/1/1
f 22/2/1 10/2/1 16/2/1
f 22/2/1 16/2/1 21/2/1
f 23/1/1 20/1/1 19/1/1
f 24/1/1 20/1/1 23/1/1
f 25/2/2 26/2/2 31/2/2
f 27/1/2 28/1/2 33/1/2
f 33/1/2 28/1/2 34/1/2
f 29/2/2 30/2/2 36/2/2
f 31/2/2 32/2/2 37/2/2
f 25/2/2 31/2/2 37/2/2
f 32/1/2 33/1/2 38/1/2
f 37/2/2 32/2/2 38/2/2
f 38/1/2 33/1/2 39/1/2
f 34/1/2 35/1/2 40/1/2
f 35/2/2 36/2/2 41/2/2
f 40/1/2 35/1/2 41/1/2
f 36/2/2 30/2/2 42/2/2
f 41/2/2 36/2/2 42/2/2
f 39/1/2 40/1/2 43/1/2
f 43/1/2 40/1/2 44/1/2
f 45/1/2 46/1/2 47/1/2
f 47/1/2 46/1/2 48/1/2
f 51/2/3 50/2/3 49/2/3
f 52/2/3 50/2/3 51/2/3
f 56/1/3 54/1/3 53/1/3
f 57/1/3 54/1/3 56/1/3
f 59/1/3 56/1/3 55/1/3
f 60/1/3 56/1/3 59/1/3
f 61/1/3 58/1/3 57/1/3
f 62/1/3 58/1/3 61/1/3
f 63/1/3 61/1/3 60/1/3
f 64/1/3 61/1/3 63/1/3
f 67/2/3 66/2/3 65/2/3
f 68/2/3 66/2/3 67/2/3
f 69/2/4 70/2/4 71/2/4
f 71/2/4 70/2/4 72/2/4
f 73/1/4 74/1/4 76/1/4
f 76/1/4 74/1/4 77/1/4
f 75/1/4 76/1/4 79/1/4
f 79/1/4 76/1/4 80/1/4
f 77/1/4 78/1/4 81/1/4
f 81/1/4 78/1/4 82/1/4
f 80/1/4 81/1/4 83/1/4
f 83/1/4 81/1/4 84/1/4
f 85/2/4 86/2/4 87/2/4
f 87/2/4 86/2/4 88/2/4
f 91/2/5 90/2/5 89/2/5
f 92/2/5 90/2/5 91/2/5
f 95/1/5 94/1/5 93/1/5
f 96/1/5 94/1/5 95/1/5
f 99/2/5 98/2/5 97/2/5
f 100/2/5 98/2/5 99/2/5
f 103/2/5 102/2/5 101/2/5
f 104/2/5 102/2/5 103/2/5
f 106/1/5 104/1/5 103/1/5
f 107/1/5 104/1/5 106/1/5
f 109/1/5 106/1/5 105/1/5
f 110/1/5 106/1/5 109/1/5
f 111/1/5 108/1/5 107/1/5
f 112/1/5 108/1/5 111/1/5
f 113/1/5 111/1/5 110/1/5
f 114/1/5 111/1/5 113/1/5
f 115/2/5 114/2/5 113/2/5
f 116/2/5 114/2/5 115/2/5
f 117/2/6 118/2/6 119/2/6
f 119/2/6 118/2/6 120/2/6
f 119/1/6 120/1/6 122/1/6
f 122/1/6 120/1/6 123/1/6
f 121/1/6 122/1/6 125/1/6
f 125/1/6 122/1/6 126/1/6
f 123/1/6 124/1/6 127/1/6
f 127/1/6 124/1/6 128/1/6
f 126/1/6 127/1/6 129/1/6
f 129/1/6 127/1/6 130/1/6
f 129/2/6 130/2/6 131/2/6
f 131/2/6 130/2/6 132/2/6
f 133/1/6 134/1/6 135/1/6
f 135/1/6 134/1/6 136/1/6
