# MagicaVoxel @ Ephtracy

# group
o 

# material
mtllib trans_6_1.mtl
usemtl palette

# normals
vn -1 0 0
vn 1 0 0
vn 0 0 1
vn 0 0 -1
vn 0 -1 0
vn 0 1 0

# texcoords
vt 0.962891 0.5
vt 0.970703 0.5

# verts
v -0.3 0.1 0.1
v -0.3 0.1 0
v -0.3 0.1 -0.4
v -0.3 0.1 -0.5
v -0.3 0.2 0.1
v -0.3 0.2 0
v -0.3 0.2 -0.4
v -0.3 0.2 -0.5
v -0.2 0 0.4
v -0.2 0 0.3
v -0.2 0 0.1
v -0.2 0 -0.1
v -0.2 0 -0.3
v -0.2 0 -0.5
v -0.2 0 -0.7
v -0.2 0 -0.8
v -0.2 0.1 0.3
v -0.2 0.1 0.2
v -0.2 0.1 0.1
v -0.2 0.1 0
v -0.2 0.1 -0.1
v -0.2 0.1 -0.3
v -0.2 0.1 -0.4
v -0.2 0.1 -0.5
v -0.2 0.1 -0.6
v -0.2 0.1 -0.7
v -0.2 0.2 0.4
v -0.2 0.2 0.2
v -0.2 0.2 0.1
v -0.2 0.2 0
v -0.2 0.2 -0.3
v -0.2 0.2 -0.4
v -0.2 0.2 -0.5
v -0.2 0.2 -0.6
v -0.2 0.2 -0.8
v -0.2 0.3 0.1
v -0.2 0.3 0
v -0.2 0.3 -0.3
v -0.2 0.3 -0.5
v -0.1 0.1 -0.3
v -0.1 0.1 -0.4
v -0.1 0.2 -0.3
v -0.1 0.2 -0.4
v -0.1 0 0.4
v -0.1 0 0.3
v -0.1 0 0.1
v -0.1 0 -0.1
v -0.1 0 -0.3
v -0.1 0 -0.5
v -0.1 0 -0.7
v -0.1 0 -0.8
v -0.1 0.1 0.3
v -0.1 0.1 0.2
v -0.1 0.1 0.1
v -0.1 0.1 0
v -0.1 0.1 -0.1
v -0.1 0.1 -0.3
v -0.1 0.1 -0.5
v -0.1 0.1 -0.6
v -0.1 0.1 -0.7
v -0.1 0.2 0.4
v -0.1 0.2 0.2
v -0.1 0.2 0.1
v -0.1 0.2 -0.3
v -0.1 0.2 -0.5
v -0.1 0.2 -0.6
v -0.1 0.2 -0.8
v -0.1 0.3 0.1
v -0.1 0.3 0
v -0.1 0.3 -0.3
v -0.1 0.3 -0.5
v 0 0.1 -0.3
v 0 0.1 -0.5
v 0 0.2 -0.3
v 0 0.2 -0.5
v -0.2 0 0.4
v -0.2 0.2 0.4
v -0.1 0 0.4
v -0.1 0.2 0.4
v -0.3 0.1 0.1
v -0.3 0.2 0.1
v -0.2 0 0.1
v -0.2 0.1 0.1
v -0.2 0.2 0.1
v -0.2 0.3 0.1
v -0.1 0 0.1
v -0.1 0.1 0.1
v -0.1 0.2 0.1
v -0.1 0.3 0.1
v -0.2 0 -0.3
v -0.2 0.1 -0.3
v -0.2 0.2 -0.3
v -0.2 0.3 -0.3
v -0.1 0 -0.3
v -0.1 0.1 -0.3
v -0.1 0.2 -0.3
v -0.1 0.3 -0.3
v 0 0.1 -0.3
v 0 0.2 -0.3
v -0.3 0.1 -0.4
v -0.3 0.2 -0.4
v -0.2 0.1 -0.4
v -0.2 0.2 -0.4
v -0.1 0.1 -0.4
v -0.1 0.2 -0.4
v -0.2 0 -0.7
v -0.2 0.1 -0.7
v -0.1 0 -0.7
v -0.1 0.1 -0.7
v -0.2 0 0.3
v -0.2 0.1 0.3
v -0.1 0 0.3
v -0.1 0.1 0.3
v -0.3 0.1 0
v -0.3 0.2 0
v -0.2 0.1 0
v -0.2 0.2 0
v -0.2 0.3 0
v -0.1 0.1 0
v -0.1 0.3 0
v -0.2 0 -0.1
v -0.2 0.1 -0.1
v -0.1 0 -0.1
v -0.1 0.1 -0.1
v -0.3 0.1 -0.5
v -0.3 0.2 -0.5
v -0.2 0 -0.5
v -0.2 0.1 -0.5
v -0.2 0.2 -0.5
v -0.2 0.3 -0.5
v -0.1 0 -0.5
v -0.1 0.1 -0.5
v -0.1 0.2 -0.5
v -0.1 0.3 -0.5
v 0 0.1 -0.5
v 0 0.2 -0.5
v -0.2 0 -0.8
v -0.2 0.2 -0.8
v -0.1 0 -0.8
v -0.1 0.2 -0.8
v -0.2 0 0.4
v -0.1 0 0.4
v -0.2 0 0.3
v -0.1 0 0.3
v -0.2 0 0.1
v -0.1 0 0.1
v -0.2 0 -0.1
v -0.1 0 -0.1
v -0.2 0 -0.3
v -0.1 0 -0.3
v -0.2 0 -0.5
v -0.1 0 -0.5
v -0.2 0 -0.7
v -0.1 0 -0.7
v -0.2 0 -0.8
v -0.1 0 -0.8
v -0.2 0.1 0.3
v -0.1 0.1 0.3
v -0.2 0.1 0.2
v -0.1 0.1 0.2
v -0.3 0.1 0.1
v -0.2 0.1 0.1
v -0.1 0.1 0.1
v -0.3 0.1 0
v -0.2 0.1 0
v -0.1 0.1 -0.3
v 0 0.1 -0.3
v -0.3 0.1 -0.4
v -0.2 0.1 -0.4
v -0.3 0.1 -0.5
v -0.2 0.1 -0.5
v -0.1 0.1 -0.5
v 0 0.1 -0.5
v -0.2 0.1 -0.6
v -0.1 0.1 -0.6
v -0.2 0.1 -0.7
v -0.1 0.1 -0.7
v -0.2 0.2 -0.3
v -0.1 0.2 -0.3
v -0.2 0.2 -0.4
v -0.1 0.2 -0.4
v -0.2 0.1 0
v -0.1 0.1 0
v -0.2 0.1 -0.1
v -0.1 0.1 -0.1
v -0.2 0.1 -0.3
v -0.1 0.1 -0.3
v -0.2 0.1 -0.4
v -0.1 0.1 -0.4
v -0.2 0.2 0.4
v -0.1 0.2 0.4
v -0.2 0.2 0.2
v -0.1 0.2 0.2
v -0.3 0.2 0.1
v -0.2 0.2 0.1
v -0.1 0.2 0.1
v -0.3 0.2 0
v -0.2 0.2 0
v -0.1 0.2 -0.3
v 0 0.2 -0.3
v -0.3 0.2 -0.4
v -0.2 0.2 -0.4
v -0.3 0.2 -0.5
v -0.2 0.2 -0.5
v -0.1 0.2 -0.5
v 0 0.2 -0.5
v -0.2 0.2 -0.6
v -0.1 0.2 -0.6
v -0.2 0.2 -0.8
v -0.1 0.2 -0.8
v -0.2 0.3 0.1
v -0.1 0.3 0.1
v -0.2 0.3 0
v -0.1 0.3 0
v -0.2 0.3 -0.3
v -0.1 0.3 -0.3
v -0.2 0.3 -0.5
v -0.1 0.3 -0.5

# faces
f 5/1/1 2/1/1 1/1/1
f 6/1/1 2/1/1 5/1/1
f 7/1/1 4/1/1 3/1/1
f 8/1/1 4/1/1 7/1/1
f 17/2/1 10/2/1 9/2/1
f 19/1/1 12/1/1 11/1/1
f 20/1/1 12/1/1 19/1/1
f 21/1/1 12/1/1 20/1/1
f 22/1/1 14/1/1 13/1/1
f 23/1/1 14/1/1 22/1/1
f 24/1/1 14/1/1 23/1/1
f 26/2/1 16/2/1 15/2/1
f 27/2/1 18/2/1 17/2/1
f 27/2/1 17/2/1 9/2/1
f 28/1/1 19/1/1 18/1/1
f 28/2/1 18/2/1 27/2/1
f 29/1/1 19/1/1 28/1/1
f 33/1/1 25/1/1 24/1/1
f 34/2/1 26/2/1 25/2/1
f 34/1/1 25/1/1 33/1/1
f 35/2/1 16/2/1 26/2/1
f 35/2/1 26/2/1 34/2/1
f 36/1/1 30/1/1 29/1/1
f 37/1/1 30/1/1 36/1/1
f 38/1/1 32/1/1 31/1/1
f 38/1/1 33/1/1 32/1/1
f 39/1/1 33/1/1 38/1/1
f 42/1/1 41/1/1 40/1/1
f 43/1/1 41/1/1 42/1/1
f 44/2/2 45/2/2 52/2/2
f 46/1/2 47/1/2 54/1/2
f 54/1/2 47/1/2 55/1/2
f 55/1/2 47/1/2 56/1/2
f 48/1/2 49/1/2 57/1/2
f 57/1/2 49/1/2 58/1/2
f 50/2/2 51/2/2 60/2/2
f 52/2/2 53/2/2 61/2/2
f 44/2/2 52/2/2 61/2/2
f 53/1/2 54/1/2 62/1/2
f 61/2/2 53/2/2 62/2/2
f 54/1/2 55/1/2 62/1/2
f 62/1/2 55/1/2 63/1/2
f 58/1/2 59/1/2 65/1/2
f 59/2/2 60/2/2 66/2/2
f 65/1/2 59/1/2 66/1/2
f 60/2/2 51/2/2 67/2/2
f 66/2/2 60/2/2 67/2/2
f 63/1/2 55/1/2 68/1/2
f 68/1/2 55/1/2 69/1/2
f 64/1/2 65/1/2 70/1/2
f 70/1/2 65/1/2 71/1/2
f 72/1/2 73/1/2 74/1/2
f 74/1/2 73/1/2 75/1/2
f 78/2/3 77/2/3 76/2/3
f 79/2/3 77/2/3 78/2/3
f 83/1/3 81/1/3 80/1/3
f 84/1/3 81/1/3 83/1/3
f 86/1/3 83/1/3 82/1/3
f 87/1/3 83/1/3 86/1/3
f 88/1/3 85/1/3 84/1/3
f 89/1/3 85/1/3 88/1/3
f 94/1/3 91/1/3 90/1/3
f 95/1/3 91/1/3 94/1/3
f 96/1/3 93/1/3 92/1/3
f 97/1/3 93/1/3 96/1/3
f 98/1/3 96/1/3 95/1/3
f 99/1/3 96/1/3 98/1/3
f 102/1/3 101/1/3 100/1/3
f 103/1/3 101/1/3 102/1/3
f 104/1/3 103/1/3 102/1/3
f 105/1/3 103/1/3 104/1/3
f 108/2/3 107/2/3 106/2/3
f 109/2/3 107/2/3 108/2/3
f 110/2/4 111/2/4 112/2/4
f 112/2/4 111/2/4 113/2/4
f 114/1/4 115/1/4 116/1/4
f 116/1/4 115/1/4 117/1/4
f 116/1/4 117/1/4 119/1/4
f 117/1/4 118/1/4 119/1/4
f 119/1/4 118/1/4 120/1/4
f 121/1/4 122/1/4 123/1/4
f 123/1/4 122/1/4 124/1/4
f 125/1/4 126/1/4 128/1/4
f 128/1/4 126/1/4 129/1/4
f 127/1/4 128/1/4 131/1/4
f 131/1/4 128/1/4 132/1/4
f 129/1/4 130/1/4 133/1/4
f 133/1/4 130/1/4 134/1/4
f 132/1/4 133/1/4 135/1/4
f 135/1/4 133/1/4 136/1/4
f 137/2/4 138/2/4 139/2/4
f 139/2/4 138/2/4 140/2/4
f 143/2/5 142/2/5 141/2/5
f 144/2/5 142/2/5 143/2/5
f 147/1/5 146/1/5 145/1/5
f 148/1/5 146/1/5 147/1/5
f 151/1/5 150/1/5 149/1/5
f 152/1/5 150/1/5 151/1/5
f 155/2/5 154/2/5 153/2/5
f 156/2/5 154/2/5 155/2/5
f 159/2/5 158/2/5 157/2/5
f 160/2/5 158/2/5 159/2/5
f 162/1/5 160/1/5 159/1/5
f 163/1/5 160/1/5 162/1/5
f 164/1/5 162/1/5 161/1/5
f 165/1/5 162/1/5 164/1/5
f 170/1/5 169/1/5 168/1/5
f 171/1/5 169/1/5 170/1/5
f 172/1/5 167/1/5 166/1/5
f 173/1/5 167/1/5 172/1/5
f 174/1/5 172/1/5 171/1/5
f 175/1/5 172/1/5 174/1/5
f 176/2/5 175/2/5 174/2/5
f 177/2/5 175/2/5 176/2/5
f 180/1/5 179/1/5 178/1/5
f 181/1/5 179/1/5 180/1/5
f 182/1/6 183/1/6 184/1/6
f 184/1/6 183/1/6 185/1/6
f 186/1/6 187/1/6 188/1/6
f 188/1/6 187/1/6 189/1/6
f 190/2/6 191/2/6 192/2/6
f 192/2/6 191/2/6 193/2/6
f 192/1/6 193/1/6 195/1/6
f 195/1/6 193/1/6 196/1/6
f 194/1/6 195/1/6 197/1/6
f 197/1/6 195/1/6 198/1/6
f 201/1/6 202/1/6 203/1/6
f 203/1/6 202/1/6 204/1/6
f 199/1/6 200/1/6 205/1/6
f 205/1/6 200/1/6 206/1/6
f 204/1/6 205/1/6 207/1/6
f 207/1/6 205/1/6 208/1/6
f 207/2/6 208/2/6 209/2/6
f 209/2/6 208/2/6 210/2/6
f 211/1/6 212/1/6 213/1/6
f 213/1/6 212/1/6 214/1/6
f 215/1/6 216/1/6 217/1/6
f 217/1/6 216/1/6 218/1/6
