# MagicaVoxel @ Ephtracy

# group
o 

# material
mtllib banka2.mtl
usemtl palette

# normals
vn -1 0 0
vn 1 0 0
vn 0 0 1
vn 0 0 -1
vn 0 -1 0
vn 0 1 0

# texcoords
vt 0.283203 0.5
vt 0.287109 0.5
vt 0.978516 0.5
vt 0.986328 0.5

# verts
v -1.6 0 0.3
v -1.6 0 -0.2
v -1.6 0.1 0.3
v -1.6 0.1 -0.2
v -1.6 2.3 0.3
v -1.6 2.3 -0.2
v -1.6 2.4 0.3
v -1.6 2.4 -0.2
v -1.5 0 0.5
v -1.5 0 0.3
v -1.5 0 -0.2
v -1.5 0 -0.4
v -1.5 0.1 0.5
v -1.5 0.1 0.3
v -1.5 0.1 -0.2
v -1.5 0.1 -0.4
v -1.5 0.2 0.3
v -1.5 0.2 -0.2
v -1.5 0.4 0.3
v -1.5 0.4 -0.2
v -1.5 2 0.3
v -1.5 2 -0.2
v -1.5 2.2 0.3
v -1.5 2.2 -0.2
v -1.5 2.3 0.5
v -1.5 2.3 0.3
v -1.5 2.3 -0.2
v -1.5 2.3 -0.4
v -1.5 2.4 0.5
v -1.5 2.4 0.3
v -1.5 2.4 -0.2
v -1.5 2.4 -0.4
v -1.4 0 0.7
v -1.4 0 0.5
v -1.4 0 -0.4
v -1.4 0 -0.6
v -1.4 0.1 0.7
v -1.4 0.1 0.5
v -1.4 0.1 0.3
v -1.4 0.1 -0.2
v -1.4 0.1 -0.4
v -1.4 0.1 -0.6
v -1.4 0.2 0.5
v -1.4 0.2 0.3
v -1.4 0.2 -0.2
v -1.4 0.2 -0.4
v -1.4 0.4 0.5
v -1.4 0.4 0.3
v -1.4 0.4 0.2
v -1.4 0.4 -0.1
v -1.4 0.4 -0.2
v -1.4 0.4 -0.4
v -1.4 1.3 0
v -1.4 1.3 -0.1
v -1.4 1.4 0.1
v -1.4 1.4 0
v -1.4 1.7 0.1
v -1.4 1.7 0
v -1.4 1.8 0
v -1.4 1.8 -0.1
v -1.4 2 0.5
v -1.4 2 0.3
v -1.4 2 0.2
v -1.4 2 -0.1
v -1.4 2 -0.2
v -1.4 2 -0.4
v -1.4 2.2 0.5
v -1.4 2.2 0.3
v -1.4 2.2 -0.2
v -1.4 2.2 -0.4
v -1.4 2.3 0.7
v -1.4 2.3 0.5
v -1.4 2.3 0.3
v -1.4 2.3 -0.2
v -1.4 2.3 -0.4
v -1.4 2.3 -0.6
v -1.4 2.4 0.7
v -1.4 2.4 0.5
v -1.4 2.4 -0.4
v -1.4 2.4 -0.6
v -1.3 0 0.8
v -1.3 0 0.7
v -1.3 0 -0.6
v -1.3 0 -0.7
v -1.3 0.1 0.8
v -1.3 0.1 0.7
v -1.3 0.1 0.5
v -1.3 0.1 -0.4
v -1.3 0.1 -0.6
v -1.3 0.1 -0.7
v -1.3 0.2 0.7
v -1.3 0.2 0.5
v -1.3 0.2 -0.4
v -1.3 0.2 -0.6
v -1.3 0.4 0.7
v -1.3 0.4 0.5
v -1.3 0.4 0.4
v -1.3 0.4 0.2
v -1.3 0.4 -0.1
v -1.3 0.4 -0.3
v -1.3 0.4 -0.4
v -1.3 0.4 -0.6
v -1.3 1.2 -0.1
v -1.3 1.2 -0.2
v -1.3 1.3 -0.1
v -1.3 1.4 -0.1
v -1.3 1.4 -0.2
v -1.3 1.8 -0.1
v -1.3 2 0.7
v -1.3 2 0.5
v -1.3 2 0.4
v -1.3 2 0.2
v -1.3 2 -0.1
v -1.3 2 -0.3
v -1.3 2 -0.4
v -1.3 2 -0.6
v -1.3 2.2 0.7
v -1.3 2.2 0.5
v -1.3 2.2 -0.4
v -1.3 2.2 -0.6
v -1.3 2.3 0.8
v -1.3 2.3 0.7
v -1.3 2.3 0.5
v -1.3 2.3 -0.4
v -1.3 2.3 -0.6
v -1.3 2.3 -0.7
v -1.3 2.4 0.8
v -1.3 2.4 0.7
v -1.3 2.4 -0.6
v -1.3 2.4 -0.7
v -1.2 0.4 0.6
v -1.2 0.4 0.4
v -1.2 0.4 -0.3
v -1.2 0.4 -0.5
v -1.2 0.7 -0.3
v -1.2 0.7 -0.5
v -1.2 0.8 -0.3
v -1.2 0.8 -0.4
v -1.2 1.1 0.6
v -1.2 1.1 0.5
v -1.2 1.1 -0.4
v -1.2 1.1 -0.5
v -1.2 1.4 0.5
v -1.2 1.4 0.4
v -1.2 1.7 0.6
v -1.2 1.7 0.5
v -1.2 1.8 0.5
v -1.2 1.8 0.4
v -1.2 2 0.6
v -1.2 2 0.4
v -1.2 2 -0.3
v -1.2 2 -0.5
v -1.1 0 0.9
v -1.1 0 0.8
v -1.1 0 -0.7
v -1.1 0 -0.8
v -1.1 0.1 0.9
v -1.1 0.1 0.8
v -1.1 0.1 0.7
v -1.1 0.1 -0.6
v -1.1 0.1 -0.7
v -1.1 0.1 -0.8
v -1.1 0.2 0.8
v -1.1 0.2 0.7
v -1.1 0.2 -0.6
v -1.1 0.2 -0.7
v -1.1 0.4 0.8
v -1.1 0.4 0.7
v -1.1 0.4 -0.6
v -1.1 0.4 -0.7
v -1.1 2 0.8
v -1.1 2 0.7
v -1.1 2 -0.6
v -1.1 2 -0.7
v -1.1 2.2 0.8
v -1.1 2.2 0.7
v -1.1 2.2 -0.6
v -1.1 2.2 -0.7
v -1.1 2.3 0.9
v -1.1 2.3 0.8
v -1.1 2.3 0.7
v -1.1 2.3 -0.6
v -1.1 2.3 -0.7
v -1.1 2.3 -0.8
v -1.1 2.4 0.9
v -1.1 2.4 0.8
v -1.1 2.4 -0.7
v -1.1 2.4 -0.8
v -1 0.4 0.7
v -1 0.4 0.6
v -1 0.4 -0.5
v -1 0.4 -0.6
v -1 0.7 -0.5
v -1 0.9 -0.5
v -1 2 0.7
v -1 2 0.6
v -1 2 -0.5
v -1 2 -0.6
v 0.1 0 0.3
v 0.1 0 -0.2
v 0.1 0.1 0.3
v 0.1 0.1 -0.2
v 0.1 2.3 0.3
v 0.1 2.3 -0.2
v 0.1 2.4 0.3
v 0.1 2.4 -0.2
v 0.2 0 0.5
v 0.2 0 0.3
v 0.2 0 -0.2
v 0.2 0 -0.4
v 0.2 0.1 0.5
v 0.2 0.1 0.3
v 0.2 0.1 -0.2
v 0.2 0.1 -0.4
v 0.2 0.2 0.3
v 0.2 0.2 -0.2
v 0.2 0.4 0.3
v 0.2 0.4 -0.2
v 0.2 2 0.3
v 0.2 2 -0.2
v 0.2 2.2 0.3
v 0.2 2.2 -0.2
v 0.2 2.3 0.5
v 0.2 2.3 0.3
v 0.2 2.3 -0.2
v 0.2 2.3 -0.4
v 0.2 2.4 0.5
v 0.2 2.4 0.3
v 0.2 2.4 -0.2
v 0.2 2.4 -0.4
v 0.3 0 0.7
v 0.3 0 0.5
v 0.3 0 -0.4
v 0.3 0 -0.6
v 0.3 0.1 0.7
v 0.3 0.1 0.5
v 0.3 0.1 0.3
v 0.3 0.1 -0.2
v 0.3 0.1 -0.4
v 0.3 0.1 -0.6
v 0.3 0.2 0.5
v 0.3 0.2 0.3
v 0.3 0.2 -0.2
v 0.3 0.2 -0.4
v 0.3 0.4 0.5
v 0.3 0.4 0.3
v 0.3 0.4 0.2
v 0.3 0.4 -0.1
v 0.3 0.4 -0.2
v 0.3 0.4 -0.4
v 0.3 1.3 0
v 0.3 1.3 -0.1
v 0.3 1.4 0.1
v 0.3 1.4 0
v 0.3 1.7 0.1
v 0.3 1.7 0
v 0.3 1.8 0
v 0.3 1.8 -0.1
v 0.3 2 0.5
v 0.3 2 0.3
v 0.3 2 0.2
v 0.3 2 -0.1
v 0.3 2 -0.2
v 0.3 2 -0.4
v 0.3 2.2 0.5
v 0.3 2.2 0.3
v 0.3 2.2 -0.2
v 0.3 2.2 -0.4
v 0.3 2.3 0.7
v 0.3 2.3 0.5
v 0.3 2.3 0.3
v 0.3 2.3 -0.2
v 0.3 2.3 -0.4
v 0.3 2.3 -0.6
v 0.3 2.4 0.7
v 0.3 2.4 0.5
v 0.3 2.4 -0.4
v 0.3 2.4 -0.6
v 0.4 0 0.8
v 0.4 0 0.7
v 0.4 0 -0.6
v 0.4 0 -0.7
v 0.4 0.1 0.8
v 0.4 0.1 0.7
v 0.4 0.1 0.5
v 0.4 0.1 -0.4
v 0.4 0.1 -0.6
v 0.4 0.1 -0.7
v 0.4 0.2 0.7
v 0.4 0.2 0.5
v 0.4 0.2 -0.4
v 0.4 0.2 -0.6
v 0.4 0.4 0.7
v 0.4 0.4 0.5
v 0.4 0.4 0.4
v 0.4 0.4 0.2
v 0.4 0.4 -0.1
v 0.4 0.4 -0.3
v 0.4 0.4 -0.4
v 0.4 0.4 -0.6
v 0.4 1.2 -0.1
v 0.4 1.2 -0.2
v 0.4 1.3 -0.1
v 0.4 1.4 -0.1
v 0.4 1.4 -0.2
v 0.4 1.8 -0.1
v 0.4 2 0.7
v 0.4 2 0.5
v 0.4 2 0.4
v 0.4 2 0.2
v 0.4 2 -0.1
v 0.4 2 -0.3
v 0.4 2 -0.4
v 0.4 2 -0.6
v 0.4 2.2 0.7
v 0.4 2.2 0.5
v 0.4 2.2 -0.4
v 0.4 2.2 -0.6
v 0.4 2.3 0.8
v 0.4 2.3 0.7
v 0.4 2.3 0.5
v 0.4 2.3 -0.4
v 0.4 2.3 -0.6
v 0.4 2.3 -0.7
v 0.4 2.4 0.8
v 0.4 2.4 0.7
v 0.4 2.4 -0.6
v 0.4 2.4 -0.7
v 0.5 0.4 0.6
v 0.5 0.4 0.4
v 0.5 0.4 -0.3
v 0.5 0.4 -0.5
v 0.5 0.7 -0.3
v 0.5 0.7 -0.5
v 0.5 0.8 -0.3
v 0.5 0.8 -0.4
v 0.5 1.1 0.6
v 0.5 1.1 0.5
v 0.5 1.1 -0.4
v 0.5 1.1 -0.5
v 0.5 1.4 0.5
v 0.5 1.4 0.4
v 0.5 1.7 0.6
v 0.5 1.7 0.5
v 0.5 1.8 0.5
v 0.5 1.8 0.4
v 0.5 2 0.6
v 0.5 2 0.4
v 0.5 2 -0.3
v 0.5 2 -0.5
v 0.6 0 0.9
v 0.6 0 0.8
v 0.6 0 -0.7
v 0.6 0 -0.8
v 0.6 0.1 0.9
v 0.6 0.1 0.8
v 0.6 0.1 0.7
v 0.6 0.1 -0.6
v 0.6 0.1 -0.7
v 0.6 0.1 -0.8
v 0.6 0.2 0.8
v 0.6 0.2 0.7
v 0.6 0.2 -0.6
v 0.6 0.2 -0.7
v 0.6 0.4 0.8
v 0.6 0.4 0.7
v 0.6 0.4 -0.6
v 0.6 0.4 -0.7
v 0.6 2 0.8
v 0.6 2 0.7
v 0.6 2 -0.6
v 0.6 2 -0.7
v 0.6 2.2 0.8
v 0.6 2.2 0.7
v 0.6 2.2 -0.6
v 0.6 2.2 -0.7
v 0.6 2.3 0.9
v 0.6 2.3 0.8
v 0.6 2.3 0.7
v 0.6 2.3 -0.6
v 0.6 2.3 -0.7
v 0.6 2.3 -0.8
v 0.6 2.4 0.9
v 0.6 2.4 0.8
v 0.6 2.4 -0.7
v 0.6 2.4 -0.8
v 0.7 0.4 0.7
v 0.7 0.4 0.6
v 0.7 0.4 -0.5
v 0.7 0.4 -0.6
v 0.7 0.7 -0.5
v 0.7 0.9 -0.5
v 0.7 2 0.7
v 0.7 2 0.6
v 0.7 2 -0.5
v 0.7 2 -0.6
v -0.6 0.4 0.7
v -0.6 0.4 0.6
v -0.6 0.4 -0.5
v -0.6 0.4 -0.6
v -0.6 0.7 0.7
v -0.6 0.7 0.6
v -0.6 1.1 0.7
v -0.6 1.1 0.6
v -0.6 1.1 -0.5
v -0.6 1.1 -0.6
v -0.6 1.5 -0.5
v -0.6 1.5 -0.6
v -0.6 2 0.7
v -0.6 2 0.6
v -0.6 2 -0.5
v -0.6 2 -0.6
v -0.5 0 0.9
v -0.5 0 0.8
v -0.5 0 -0.7
v -0.5 0 -0.8
v -0.5 0.1 0.9
v -0.5 0.1 0.8
v -0.5 0.1 0.7
v -0.5 0.1 -0.6
v -0.5 0.1 -0.7
v -0.5 0.1 -0.8
v -0.5 0.2 0.8
v -0.5 0.2 0.7
v -0.5 0.2 -0.6
v -0.5 0.2 -0.7
v -0.5 0.4 0.8
v -0.5 0.4 0.7
v -0.5 0.4 -0.6
v -0.5 0.4 -0.7
v -0.5 2 0.8
v -0.5 2 0.7
v -0.5 2 -0.6
v -0.5 2 -0.7
v -0.5 2.2 0.8
v -0.5 2.2 0.7
v -0.5 2.2 -0.6
v -0.5 2.2 -0.7
v -0.5 2.3 0.9
v -0.5 2.3 0.8
v -0.5 2.3 0.7
v -0.5 2.3 -0.6
v -0.5 2.3 -0.7
v -0.5 2.3 -0.8
v -0.5 2.4 0.9
v -0.5 2.4 0.8
v -0.5 2.4 -0.7
v -0.5 2.4 -0.8
v -0.4 0.4 0.6
v -0.4 0.4 0.4
v -0.4 0.4 -0.3
v -0.4 0.4 -0.5
v -0.4 0.7 0.5
v -0.4 0.7 0.4
v -0.4 0.9 0.5
v -0.4 0.9 0.4
v -0.4 1.1 -0.3
v -0.4 1.6 -0.3
v -0.4 2 0.6
v -0.4 2 0.4
v -0.4 2 -0.3
v -0.4 2 -0.5
v -0.3 0 0.8
v -0.3 0 0.7
v -0.3 0 -0.6
v -0.3 0 -0.7
v -0.3 0.1 0.8
v -0.3 0.1 0.7
v -0.3 0.1 0.5
v -0.3 0.1 -0.4
v -0.3 0.1 -0.6
v -0.3 0.1 -0.7
v -0.3 0.2 0.7
v -0.3 0.2 0.5
v -0.3 0.2 -0.4
v -0.3 0.2 -0.6
v -0.3 0.4 0.7
v -0.3 0.4 0.5
v -0.3 0.4 0.4
v -0.3 0.4 0.3
v -0.3 0.4 0.2
v -0.3 0.4 -0.1
v -0.3 0.4 -0.3
v -0.3 0.4 -0.4
v -0.3 0.4 -0.6
v -0.3 0.9 0.4
v -0.3 0.9 0.3
v -0.3 1.1 0.2
v -0.3 1.1 -0.2
v -0.3 1.1 -0.3
v -0.3 1.6 -0.2
v -0.3 1.6 -0.3
v -0.3 1.8 0.2
v -0.3 1.8 -0.1
v -0.3 1.9 -0.1
v -0.3 2 0.7
v -0.3 2 0.5
v -0.3 2 0.4
v -0.3 2 0.2
v -0.3 2 -0.1
v -0.3 2 -0.3
v -0.3 2 -0.4
v -0.3 2 -0.6
v -0.3 2.2 0.7
v -0.3 2.2 0.5
v -0.3 2.2 -0.4
v -0.3 2.2 -0.6
v -0.3 2.3 0.8
v -0.3 2.3 0.7
v -0.3 2.3 0.5
v -0.3 2.3 -0.4
v -0.3 2.3 -0.6
v -0.3 2.3 -0.7
v -0.3 2.4 0.8
v -0.3 2.4 0.7
v -0.3 2.4 -0.6
v -0.3 2.4 -0.7
v -0.2 0 0.7
v -0.2 0 0.5
v -0.2 0 -0.4
v -0.2 0 -0.6
v -0.2 0.1 0.7
v -0.2 0.1 0.5
v -0.2 0.1 0.3
v -0.2 0.1 -0.2
v -0.2 0.1 -0.4
v -0.2 0.1 -0.6
v -0.2 0.2 0.5
v -0.2 0.2 0.3
v -0.2 0.2 -0.2
v -0.2 0.2 -0.4
v -0.2 0.4 0.5
v -0.2 0.4 0.3
v -0.2 0.4 0.2
v -0.2 0.4 -0.1
v -0.2 0.4 -0.2
v -0.2 0.4 -0.4
v -0.2 1.1 0.2
v -0.2 1.1 0.1
v -0.2 1.5 0.1
v -0.2 1.5 0
v -0.2 1.8 0.2
v -0.2 1.8 0.1
v -0.2 1.8 0
v -0.2 1.8 -0.1
v -0.2 1.9 0.1
v -0.2 1.9 -0.1
v -0.2 2 0.5
v -0.2 2 0.3
v -0.2 2 0.2
v -0.2 2 -0.1
v -0.2 2 -0.2
v -0.2 2 -0.4
v -0.2 2.2 0.5
v -0.2 2.2 0.3
v -0.2 2.2 -0.2
v -0.2 2.2 -0.4
v -0.2 2.3 0.7
v -0.2 2.3 0.5
v -0.2 2.3 0.3
v -0.2 2.3 -0.2
v -0.2 2.3 -0.4
v -0.2 2.3 -0.6
v -0.2 2.4 0.7
v -0.2 2.4 0.5
v -0.2 2.4 -0.4
v -0.2 2.4 -0.6
v -0.1 0 0.5
v -0.1 0 0.3
v -0.1 0 -0.2
v -0.1 0 -0.4
v -0.1 0.1 0.5
v -0.1 0.1 0.3
v -0.1 0.1 -0.2
v -0.1 0.1 -0.4
v -0.1 0.2 0.3
v -0.1 0.2 -0.2
v -0.1 0.4 0.3
v -0.1 0.4 -0.2
v -0.1 2 0.3
v -0.1 2 -0.2
v -0.1 2.2 0.3
v -0.1 2.2 -0.2
v -0.1 2.3 0.5
v -0.1 2.3 0.3
v -0.1 2.3 -0.2
v -0.1 2.3 -0.4
v -0.1 2.4 0.5
v -0.1 2.4 0.3
v -0.1 2.4 -0.2
v -0.1 2.4 -0.4
v 0 0 0.3
v 0 0 -0.2
v 0 0.1 0.3
v 0 0.1 -0.2
v 0 2.3 0.3
v 0 2.3 -0.2
v 0 2.4 0.3
v 0 2.4 -0.2
v 1.1 0.4 0.7
v 1.1 0.4 0.6
v 1.1 0.4 -0.5
v 1.1 0.4 -0.6
v 1.1 0.7 0.7
v 1.1 0.7 0.6
v 1.1 1.1 0.7
v 1.1 1.1 0.6
v 1.1 1.1 -0.5
v 1.1 1.1 -0.6
v 1.1 1.5 -0.5
v 1.1 1.5 -0.6
v 1.1 2 0.7
v 1.1 2 0.6
v 1.1 2 -0.5
v 1.1 2 -0.6
v 1.2 0 0.9
v 1.2 0 0.8
v 1.2 0 -0.7
v 1.2 0 -0.8
v 1.2 0.1 0.9
v 1.2 0.1 0.8
v 1.2 0.1 0.7
v 1.2 0.1 -0.6
v 1.2 0.1 -0.7
v 1.2 0.1 -0.8
v 1.2 0.2 0.8
v 1.2 0.2 0.7
v 1.2 0.2 -0.6
v 1.2 0.2 -0.7
v 1.2 0.4 0.8
v 1.2 0.4 0.7
v 1.2 0.4 -0.6
v 1.2 0.4 -0.7
v 1.2 2 0.8
v 1.2 2 0.7
v 1.2 2 -0.6
v 1.2 2 -0.7
v 1.2 2.2 0.8
v 1.2 2.2 0.7
v 1.2 2.2 -0.6
v 1.2 2.2 -0.7
v 1.2 2.3 0.9
v 1.2 2.3 0.8
v 1.2 2.3 0.7
v 1.2 2.3 -0.6
v 1.2 2.3 -0.7
v 1.2 2.3 -0.8
v 1.2 2.4 0.9
v 1.2 2.4 0.8
v 1.2 2.4 -0.7
v 1.2 2.4 -0.8
v 1.3 0.4 0.6
v 1.3 0.4 0.4
v 1.3 0.4 -0.3
v 1.3 0.4 -0.5
v 1.3 0.7 0.5
v 1.3 0.7 0.4
v 1.3 0.9 0.5
v 1.3 0.9 0.4
v 1.3 1.1 -0.3
v 1.3 1.6 -0.3
v 1.3 2 0.6
v 1.3 2 0.4
v 1.3 2 -0.3
v 1.3 2 -0.5
v 1.4 0 0.8
v 1.4 0 0.7
v 1.4 0 -0.6
v 1.4 0 -0.7
v 1.4 0.1 0.8
v 1.4 0.1 0.7
v 1.4 0.1 0.5
v 1.4 0.1 -0.4
v 1.4 0.1 -0.6
v 1.4 0.1 -0.7
v 1.4 0.2 0.7
v 1.4 0.2 0.5
v 1.4 0.2 -0.4
v 1.4 0.2 -0.6
v 1.4 0.4 0.7
v 1.4 0.4 0.5
v 1.4 0.4 0.4
v 1.4 0.4 0.3
v 1.4 0.4 0.2
v 1.4 0.4 -0.1
v 1.4 0.4 -0.3
v 1.4 0.4 -0.4
v 1.4 0.4 -0.6
v 1.4 0.9 0.4
v 1.4 0.9 0.3
v 1.4 1.1 0.2
v 1.4 1.1 -0.2
v 1.4 1.1 -0.3
v 1.4 1.6 -0.2
v 1.4 1.6 -0.3
v 1.4 1.8 0.2
v 1.4 1.8 -0.1
v 1.4 1.9 -0.1
v 1.4 2 0.7
v 1.4 2 0.5
v 1.4 2 0.4
v 1.4 2 0.2
v 1.4 2 -0.1
v 1.4 2 -0.3
v 1.4 2 -0.4
v 1.4 2 -0.6
v 1.4 2.2 0.7
v 1.4 2.2 0.5
v 1.4 2.2 -0.4
v 1.4 2.2 -0.6
v 1.4 2.3 0.8
v 1.4 2.3 0.7
v 1.4 2.3 0.5
v 1.4 2.3 -0.4
v 1.4 2.3 -0.6
v 1.4 2.3 -0.7
v 1.4 2.4 0.8
v 1.4 2.4 0.7
v 1.4 2.4 -0.6
v 1.4 2.4 -0.7
v 1.5 0 0.7
v 1.5 0 0.5
v 1.5 0 -0.4
v 1.5 0 -0.6
v 1.5 0.1 0.7
v 1.5 0.1 0.5
v 1.5 0.1 0.3
v 1.5 0.1 -0.2
v 1.5 0.1 -0.4
v 1.5 0.1 -0.6
v 1.5 0.2 0.5
v 1.5 0.2 0.3
v 1.5 0.2 -0.2
v 1.5 0.2 -0.4
v 1.5 0.4 0.5
v 1.5 0.4 0.3
v 1.5 0.4 0.2
v 1.5 0.4 -0.1
v 1.5 0.4 -0.2
v 1.5 0.4 -0.4
v 1.5 1.1 0.2
v 1.5 1.1 0.1
v 1.5 1.5 0.1
v 1.5 1.5 0
v 1.5 1.8 0.2
v 1.5 1.8 0.1
v 1.5 1.8 0
v 1.5 1.8 -0.1
v 1.5 1.9 0.1
v 1.5 1.9 -0.1
v 1.5 2 0.5
v 1.5 2 0.3
v 1.5 2 0.2
v 1.5 2 -0.1
v 1.5 2 -0.2
v 1.5 2 -0.4
v 1.5 2.2 0.5
v 1.5 2.2 0.3
v 1.5 2.2 -0.2
v 1.5 2.2 -0.4
v 1.5 2.3 0.7
v 1.5 2.3 0.5
v 1.5 2.3 0.3
v 1.5 2.3 -0.2
v 1.5 2.3 -0.4
v 1.5 2.3 -0.6
v 1.5 2.4 0.7
v 1.5 2.4 0.5
v 1.5 2.4 -0.4
v 1.5 2.4 -0.6
v 1.6 0 0.5
v 1.6 0 0.3
v 1.6 0 -0.2
v 1.6 0 -0.4
v 1.6 0.1 0.5
v 1.6 0.1 0.3
v 1.6 0.1 -0.2
v 1.6 0.1 -0.4
v 1.6 0.2 0.3
v 1.6 0.2 -0.2
v 1.6 0.4 0.3
v 1.6 0.4 -0.2
v 1.6 2 0.3
v 1.6 2 -0.2
v 1.6 2.2 0.3
v 1.6 2.2 -0.2
v 1.6 2.3 0.5
v 1.6 2.3 0.3
v 1.6 2.3 -0.2
v 1.6 2.3 -0.4
v 1.6 2.4 0.5
v 1.6 2.4 0.3
v 1.6 2.4 -0.2
v 1.6 2.4 -0.4
v 1.7 0 0.3
v 1.7 0 -0.2
v 1.7 0.1 0.3
v 1.7 0.1 -0.2
v 1.7 2.3 0.3
v 1.7 2.3 -0.2
v 1.7 2.4 0.3
v 1.7 2.4 -0.2
v -1.1 0 0.9
v -1.1 0.1 0.9
v -1.1 2.3 0.9
v -1.1 2.4 0.9
v -0.5 0 0.9
v -0.5 0.1 0.9
v -0.5 2.3 0.9
v -0.5 2.4 0.9
v 0.6 0 0.9
v 0.6 0.1 0.9
v 0.6 2.3 0.9
v 0.6 2.4 0.9
v 1.2 0 0.9
v 1.2 0.1 0.9
v 1.2 2.3 0.9
v 1.2 2.4 0.9
v -1.3 0 0.8
v -1.3 0.1 0.8
v -1.3 2.3 0.8
v -1.3 2.4 0.8
v -1.1 0 0.8
v -1.1 0.1 0.8
v -1.1 0.2 0.8
v -1.1 0.4 0.8
v -1.1 2 0.8
v -1.1 2.2 0.8
v -1.1 2.3 0.8
v -1.1 2.4 0.8
v -0.5 0 0.8
v -0.5 0.1 0.8
v -0.5 0.2 0.8
v -0.5 0.4 0.8
v -0.5 2 0.8
v -0.5 2.2 0.8
v -0.5 2.3 0.8
v -0.5 2.4 0.8
v -0.3 0 0.8
v -0.3 0.1 0.8
v -0.3 2.3 0.8
v -0.3 2.4 0.8
v 0.4 0 0.8
v 0.4 0.1 0.8
v 0.4 2.3 0.8
v 0.4 2.4 0.8
v 0.6 0 0.8
v 0.6 0.1 0.8
v 0.6 0.2 0.8
v 0.6 0.4 0.8
v 0.6 2 0.8
v 0.6 2.2 0.8
v 0.6 2.3 0.8
v 0.6 2.4 0.8
v 1.2 0 0.8
v 1.2 0.1 0.8
v 1.2 0.2 0.8
v 1.2 0.4 0.8
v 1.2 2 0.8
v 1.2 2.2 0.8
v 1.2 2.3 0.8
v 1.2 2.4 0.8
v 1.4 0 0.8
v 1.4 0.1 0.8
v 1.4 2.3 0.8
v 1.4 2.4 0.8
v -1.4 0 0.7
v -1.4 0.1 0.7
v -1.4 2.3 0.7
v -1.4 2.4 0.7
v -1.3 0 0.7
v -1.3 0.1 0.7
v -1.3 0.2 0.7
v -1.3 0.4 0.7
v -1.3 2 0.7
v -1.3 2.2 0.7
v -1.3 2.3 0.7
v -1.3 2.4 0.7
v -1.1 0.1 0.7
v -1.1 0.2 0.7
v -1.1 0.4 0.7
v -1.1 2 0.7
v -1.1 2.2 0.7
v -1.1 2.3 0.7
v -1 0.4 0.7
v -1 2 0.7
v -0.8 0.9 0.7
v -0.8 1.1 0.7
v -0.7 0.7 0.7
v -0.7 0.9 0.7
v -0.6 0.4 0.7
v -0.6 0.7 0.7
v -0.6 1.1 0.7
v -0.6 2 0.7
v -0.5 0.1 0.7
v -0.5 0.2 0.7
v -0.5 0.4 0.7
v -0.5 2 0.7
v -0.5 2.2 0.7
v -0.5 2.3 0.7
v -0.3 0 0.7
v -0.3 0.1 0.7
v -0.3 0.2 0.7
v -0.3 0.4 0.7
v -0.3 2 0.7
v -0.3 2.2 0.7
v -0.3 2.3 0.7
v -0.3 2.4 0.7
v -0.2 0 0.7
v -0.2 0.1 0.7
v -0.2 2.3 0.7
v -0.2 2.4 0.7
v 0.3 0 0.7
v 0.3 0.1 0.7
v 0.3 2.3 0.7
v 0.3 2.4 0.7
v 0.4 0 0.7
v 0.4 0.1 0.7
v 0.4 0.2 0.7
v 0.4 0.4 0.7
v 0.4 2 0.7
v 0.4 2.2 0.7
v 0.4 2.3 0.7
v 0.4 2.4 0.7
v 0.6 0.1 0.7
v 0.6 0.2 0.7
v 0.6 0.4 0.7
v 0.6 2 0.7
v 0.6 2.2 0.7
v 0.6 2.3 0.7
v 0.7 0.4 0.7
v 0.7 2 0.7
v 0.9 0.9 0.7
v 0.9 1.1 0.7
v 1 0.7 0.7
v 1 0.9 0.7
v 1.1 0.4 0.7
v 1.1 0.7 0.7
v 1.1 1.1 0.7
v 1.1 2 0.7
v 1.2 0.1 0.7
v 1.2 0.2 0.7
v 1.2 0.4 0.7
v 1.2 2 0.7
v 1.2 2.2 0.7
v 1.2 2.3 0.7
v 1.4 0 0.7
v 1.4 0.1 0.7
v 1.4 0.2 0.7
v 1.4 0.4 0.7
v 1.4 2 0.7
v 1.4 2.2 0.7
v 1.4 2.3 0.7
v 1.4 2.4 0.7
v 1.5 0 0.7
v 1.5 0.1 0.7
v 1.5 2.3 0.7
v 1.5 2.4 0.7
v -1.2 0.4 0.6
v -1.2 1.1 0.6
v -1.2 1.7 0.6
v -1.2 2 0.6
v -1.1 1.1 0.6
v -1.1 1.7 0.6
v -1 0.4 0.6
v -1 2 0.6
v -0.6 0.4 0.6
v -0.6 0.7 0.6
v -0.6 1.1 0.6
v -0.6 2 0.6
v -0.4 0.4 0.6
v -0.4 2 0.6
v 0.5 0.4 0.6
v 0.5 1.1 0.6
v 0.5 1.7 0.6
v 0.5 2 0.6
v 0.6 1.1 0.6
v 0.6 1.7 0.6
v 0.7 0.4 0.6
v 0.7 2 0.6
v 1.1 0.4 0.6
v 1.1 0.7 0.6
v 1.1 1.1 0.6
v 1.1 2 0.6
v 1.3 0.4 0.6
v 1.3 2 0.6
v -1.5 0 0.5
v -1.5 0.1 0.5
v -1.5 2.3 0.5
v -1.5 2.4 0.5
v -1.4 0 0.5
v -1.4 0.1 0.5
v -1.4 0.2 0.5
v -1.4 0.4 0.5
v -1.4 2 0.5
v -1.4 2.2 0.5
v -1.4 2.3 0.5
v -1.4 2.4 0.5
v -1.3 0.1 0.5
v -1.3 0.2 0.5
v -1.3 0.4 0.5
v -1.3 2 0.5
v -1.3 2.2 0.5
v -1.3 2.3 0.5
v -0.3 0.1 0.5
v -0.3 0.2 0.5
v -0.3 0.4 0.5
v -0.3 2 0.5
v -0.3 2.2 0.5
v -0.3 2.3 0.5
v -0.2 0 0.5
v -0.2 0.1 0.5
v -0.2 0.2 0.5
v -0.2 0.4 0.5
v -0.2 2 0.5
v -0.2 2.2 0.5
v -0.2 2.3 0.5
v -0.2 2.4 0.5
v -0.1 0 0.5
v -0.1 0.1 0.5
v -0.1 2.3 0.5
v -0.1 2.4 0.5
v 0.2 0 0.5
v 0.2 0.1 0.5
v 0.2 2.3 0.5
v 0.2 2.4 0.5
v 0.3 0 0.5
v 0.3 0.1 0.5
v 0.3 0.2 0.5
v 0.3 0.4 0.5
v 0.3 2 0.5
v 0.3 2.2 0.5
v 0.3 2.3 0.5
v 0.3 2.4 0.5
v 0.4 0.1 0.5
v 0.4 0.2 0.5
v 0.4 0.4 0.5
v 0.4 2 0.5
v 0.4 2.2 0.5
v 0.4 2.3 0.5
v 1.4 0.1 0.5
v 1.4 0.2 0.5
v 1.4 0.4 0.5
v 1.4 2 0.5
v 1.4 2.2 0.5
v 1.4 2.3 0.5
v 1.5 0 0.5
v 1.5 0.1 0.5
v 1.5 0.2 0.5
v 1.5 0.4 0.5
v 1.5 2 0.5
v 1.5 2.2 0.5
v 1.5 2.3 0.5
v 1.5 2.4 0.5
v 1.6 0 0.5
v 1.6 0.1 0.5
v 1.6 2.3 0.5
v 1.6 2.4 0.5
v -1.3 0.4 0.4
v -1.3 2 0.4
v -1.2 0.4 0.4
v -1.2 1.4 0.4
v -1.2 1.8 0.4
v -1.2 2 0.4
v -0.4 0.4 0.4
v -0.4 0.7 0.4
v -0.4 0.9 0.4
v -0.4 2 0.4
v -0.3 0.4 0.4
v -0.3 0.9 0.4
v -0.3 2 0.4
v 0.4 0.4 0.4
v 0.4 2 0.4
v 0.5 0.4 0.4
v 0.5 1.4 0.4
v 0.5 1.8 0.4
v 0.5 2 0.4
v 1.3 0.4 0.4
v 1.3 0.7 0.4
v 1.3 0.9 0.4
v 1.3 2 0.4
v 1.4 0.4 0.4
v 1.4 0.9 0.4
v 1.4 2 0.4
v -1.6 0 0.3
v -1.6 0.1 0.3
v -1.6 2.3 0.3
v -1.6 2.4 0.3
v -1.5 0 0.3
v -1.5 0.1 0.3
v -1.5 0.2 0.3
v -1.5 0.4 0.3
v -1.5 2 0.3
v -1.5 2.2 0.3
v -1.5 2.3 0.3
v -1.5 2.4 0.3
v -1.4 0.1 0.3
v -1.4 0.2 0.3
v -1.4 0.4 0.3
v -1.4 2 0.3
v -1.4 2.2 0.3
v -1.4 2.3 0.3
v -0.2 0.1 0.3
v -0.2 0.2 0.3
v -0.2 0.4 0.3
v -0.2 2 0.3
v -0.2 2.2 0.3
v -0.2 2.3 0.3
v -0.1 0 0.3
v -0.1 0.1 0.3
v -0.1 0.2 0.3
v -0.1 0.4 0.3
v -0.1 2 0.3
v -0.1 2.2 0.3
v -0.1 2.3 0.3
v -0.1 2.4 0.3
v 0 0 0.3
v 0 0.1 0.3
v 0 2.3 0.3
v 0 2.4 0.3
v 0.1 0 0.3
v 0.1 0.1 0.3
v 0.1 2.3 0.3
v 0.1 2.4 0.3
v 0.2 0 0.3
v 0.2 0.1 0.3
v 0.2 0.2 0.3
v 0.2 0.4 0.3
v 0.2 2 0.3
v 0.2 2.2 0.3
v 0.2 2.3 0.3
v 0.2 2.4 0.3
v 0.3 0.1 0.3
v 0.3 0.2 0.3
v 0.3 0.4 0.3
v 0.3 2 0.3
v 0.3 2.2 0.3
v 0.3 2.3 0.3
v 1.5 0.1 0.3
v 1.5 0.2 0.3
v 1.5 0.4 0.3
v 1.5 2 0.3
v 1.5 2.2 0.3
v 1.5 2.3 0.3
v 1.6 0 0.3
v 1.6 0.1 0.3
v 1.6 0.2 0.3
v 1.6 0.4 0.3
v 1.6 2 0.3
v 1.6 2.2 0.3
v 1.6 2.3 0.3
v 1.6 2.4 0.3
v 1.7 0 0.3
v 1.7 0.1 0.3
v 1.7 2.3 0.3
v 1.7 2.4 0.3
v -1.4 0.4 0.2
v -1.4 2 0.2
v -1.3 0.4 0.2
v -1.3 2 0.2
v -0.3 0.4 0.2
v -0.3 1.1 0.2
v -0.3 1.8 0.2
v -0.3 2 0.2
v -0.2 0.4 0.2
v -0.2 1.1 0.2
v -0.2 1.8 0.2
v -0.2 2 0.2
v 0.3 0.4 0.2
v 0.3 2 0.2
v 0.4 0.4 0.2
v 0.4 2 0.2
v 1.4 0.4 0.2
v 1.4 1.1 0.2
v 1.4 1.8 0.2
v 1.4 2 0.2
v 1.5 0.4 0.2
v 1.5 1.1 0.2
v 1.5 1.8 0.2
v 1.5 2 0.2
v -1.4 0.4 -0.1
v -1.4 1.3 -0.1
v -1.4 1.8 -0.1
v -1.4 2 -0.1
v -1.3 0.4 -0.1
v -1.3 1.2 -0.1
v -1.3 1.3 -0.1
v -1.3 1.4 -0.1
v -1.3 1.8 -0.1
v -1.3 2 -0.1
v -0.3 0.4 -0.1
v -0.3 1.8 -0.1
v -0.3 1.9 -0.1
v -0.3 2 -0.1
v -0.2 0.4 -0.1
v -0.2 1.8 -0.1
v -0.2 1.9 -0.1
v -0.2 2 -0.1
v 0.3 0.4 -0.1
v 0.3 1.3 -0.1
v 0.3 1.8 -0.1
v 0.3 2 -0.1
v 0.4 0.4 -0.1
v 0.4 1.2 -0.1
v 0.4 1.3 -0.1
v 0.4 1.4 -0.1
v 0.4 1.8 -0.1
v 0.4 2 -0.1
v 1.4 0.4 -0.1
v 1.4 1.8 -0.1
v 1.4 1.9 -0.1
v 1.4 2 -0.1
v 1.5 0.4 -0.1
v 1.5 1.8 -0.1
v 1.5 1.9 -0.1
v 1.5 2 -0.1
v -1.6 0 -0.2
v -1.6 0.1 -0.2
v -1.6 2.3 -0.2
v -1.6 2.4 -0.2
v -1.5 0 -0.2
v -1.5 0.1 -0.2
v -1.5 0.2 -0.2
v -1.5 0.4 -0.2
v -1.5 2 -0.2
v -1.5 2.2 -0.2
v -1.5 2.3 -0.2
v -1.5 2.4 -0.2
v -1.4 0.1 -0.2
v -1.4 0.2 -0.2
v -1.4 0.4 -0.2
v -1.4 2 -0.2
v -1.4 2.2 -0.2
v -1.4 2.3 -0.2
v -0.2 0.1 -0.2
v -0.2 0.2 -0.2
v -0.2 0.4 -0.2
v -0.2 2 -0.2
v -0.2 2.2 -0.2
v -0.2 2.3 -0.2
v -0.1 0 -0.2
v -0.1 0.1 -0.2
v -0.1 0.2 -0.2
v -0.1 0.4 -0.2
v -0.1 2 -0.2
v -0.1 2.2 -0.2
v -0.1 2.3 -0.2
v -0.1 2.4 -0.2
v 0 0 -0.2
v 0 0.1 -0.2
v 0 2.3 -0.2
v 0 2.4 -0.2
v 0.1 0 -0.2
v 0.1 0.1 -0.2
v 0.1 2.3 -0.2
v 0.1 2.4 -0.2
v 0.2 0 -0.2
v 0.2 0.1 -0.2
v 0.2 0.2 -0.2
v 0.2 0.4 -0.2
v 0.2 2 -0.2
v 0.2 2.2 -0.2
v 0.2 2.3 -0.2
v 0.2 2.4 -0.2
v 0.3 0.1 -0.2
v 0.3 0.2 -0.2
v 0.3 0.4 -0.2
v 0.3 2 -0.2
v 0.3 2.2 -0.2
v 0.3 2.3 -0.2
v 1.5 0.1 -0.2
v 1.5 0.2 -0.2
v 1.5 0.4 -0.2
v 1.5 2 -0.2
v 1.5 2.2 -0.2
v 1.5 2.3 -0.2
v 1.6 0 -0.2
v 1.6 0.1 -0.2
v 1.6 0.2 -0.2
v 1.6 0.4 -0.2
v 1.6 2 -0.2
v 1.6 2.2 -0.2
v 1.6 2.3 -0.2
v 1.6 2.4 -0.2
v 1.7 0 -0.2
v 1.7 0.1 -0.2
v 1.7 2.3 -0.2
v 1.7 2.4 -0.2
v -1.3 0.4 -0.3
v -1.3 2 -0.3
v -1.2 0.4 -0.3
v -1.2 0.7 -0.3
v -1.2 0.8 -0.3
v -1.2 2 -0.3
v -0.4 0.4 -0.3
v -0.4 1.1 -0.3
v -0.4 1.6 -0.3
v -0.4 2 -0.3
v -0.3 0.4 -0.3
v -0.3 1.1 -0.3
v -0.3 1.6 -0.3
v -0.3 2 -0.3
v 0.4 0.4 -0.3
v 0.4 2 -0.3
v 0.5 0.4 -0.3
v 0.5 0.7 -0.3
v 0.5 0.8 -0.3
v 0.5 2 -0.3
v 1.3 0.4 -0.3
v 1.3 1.1 -0.3
v 1.3 1.6 -0.3
v 1.3 2 -0.3
v 1.4 0.4 -0.3
v 1.4 1.1 -0.3
v 1.4 1.6 -0.3
v 1.4 2 -0.3
v -1.5 0 -0.4
v -1.5 0.1 -0.4
v -1.5 2.3 -0.4
v -1.5 2.4 -0.4
v -1.4 0 -0.4
v -1.4 0.1 -0.4
v -1.4 0.2 -0.4
v -1.4 0.4 -0.4
v -1.4 2 -0.4
v -1.4 2.2 -0.4
v -1.4 2.3 -0.4
v -1.4 2.4 -0.4
v -1.3 0.1 -0.4
v -1.3 0.2 -0.4
v -1.3 0.4 -0.4
v -1.3 2 -0.4
v -1.3 2.2 -0.4
v -1.3 2.3 -0.4
v -0.3 0.1 -0.4
v -0.3 0.2 -0.4
v -0.3 0.4 -0.4
v -0.3 2 -0.4
v -0.3 2.2 -0.4
v -0.3 2.3 -0.4
v -0.2 0 -0.4
v -0.2 0.1 -0.4
v -0.2 0.2 -0.4
v -0.2 0.4 -0.4
v -0.2 2 -0.4
v -0.2 2.2 -0.4
v -0.2 2.3 -0.4
v -0.2 2.4 -0.4
v -0.1 0 -0.4
v -0.1 0.1 -0.4
v -0.1 2.3 -0.4
v -0.1 2.4 -0.4
v 0.2 0 -0.4
v 0.2 0.1 -0.4
v 0.2 2.3 -0.4
v 0.2 2.4 -0.4
v 0.3 0 -0.4
v 0.3 0.1 -0.4
v 0.3 0.2 -0.4
v 0.3 0.4 -0.4
v 0.3 2 -0.4
v 0.3 2.2 -0.4
v 0.3 2.3 -0.4
v 0.3 2.4 -0.4
v 0.4 0.1 -0.4
v 0.4 0.2 -0.4
v 0.4 0.4 -0.4
v 0.4 2 -0.4
v 0.4 2.2 -0.4
v 0.4 2.3 -0.4
v 1.4 0.1 -0.4
v 1.4 0.2 -0.4
v 1.4 0.4 -0.4
v 1.4 2 -0.4
v 1.4 2.2 -0.4
v 1.4 2.3 -0.4
v 1.5 0 -0.4
v 1.5 0.1 -0.4
v 1.5 0.2 -0.4
v 1.5 0.4 -0.4
v 1.5 2 -0.4
v 1.5 2.2 -0.4
v 1.5 2.3 -0.4
v 1.5 2.4 -0.4
v 1.6 0 -0.4
v 1.6 0.1 -0.4
v 1.6 2.3 -0.4
v 1.6 2.4 -0.4
v -1.2 0.4 -0.5
v -1.2 0.7 -0.5
v -1.2 1.1 -0.5
v -1.2 2 -0.5
v -1.1 0.9 -0.5
v -1.1 1.1 -0.5
v -1 0.4 -0.5
v -1 0.7 -0.5
v -1 0.9 -0.5
v -1 2 -0.5
v -0.6 0.4 -0.5
v -0.6 1.1 -0.5
v -0.6 1.5 -0.5
v -0.6 2 -0.5
v -0.4 0.4 -0.5
v -0.4 2 -0.5
v 0.5 0.4 -0.5
v 0.5 0.7 -0.5
v 0.5 1.1 -0.5
v 0.5 2 -0.5
v 0.6 0.9 -0.5
v 0.6 1.1 -0.5
v 0.7 0.4 -0.5
v 0.7 0.7 -0.5
v 0.7 0.9 -0.5
v 0.7 2 -0.5
v 1.1 0.4 -0.5
v 1.1 1.1 -0.5
v 1.1 1.5 -0.5
v 1.1 2 -0.5
v 1.3 0.4 -0.5
v 1.3 2 -0.5
v -1.4 0 -0.6
v -1.4 0.1 -0.6
v -1.4 2.3 -0.6
v -1.4 2.4 -0.6
v -1.3 0 -0.6
v -1.3 0.1 -0.6
v -1.3 0.2 -0.6
v -1.3 0.4 -0.6
v -1.3 2 -0.6
v -1.3 2.2 -0.6
v -1.3 2.3 -0.6
v -1.3 2.4 -0.6
v -1.1 0.1 -0.6
v -1.1 0.2 -0.6
v -1.1 0.4 -0.6
v -1.1 2 -0.6
v -1.1 2.2 -0.6
v -1.1 2.3 -0.6
v -1 0.4 -0.6
v -1 2 -0.6
v -0.8 1.3 -0.6
v -0.8 1.7 -0.6
v -0.7 1.1 -0.6
v -0.7 1.3 -0.6
v -0.7 1.5 -0.6
v -0.7 1.7 -0.6
v -0.6 0.4 -0.6
v -0.6 1.1 -0.6
v -0.6 1.5 -0.6
v -0.6 2 -0.6
v -0.5 0.1 -0.6
v -0.5 0.2 -0.6
v -0.5 0.4 -0.6
v -0.5 2 -0.6
v -0.5 2.2 -0.6
v -0.5 2.3 -0.6
v -0.3 0 -0.6
v -0.3 0.1 -0.6
v -0.3 0.2 -0.6
v -0.3 0.4 -0.6
v -0.3 2 -0.6
v -0.3 2.2 -0.6
v -0.3 2.3 -0.6
v -0.3 2.4 -0.6
v -0.2 0 -0.6
v -0.2 0.1 -0.6
v -0.2 2.3 -0.6
v -0.2 2.4 -0.6
v 0.3 0 -0.6
v 0.3 0.1 -0.6
v 0.3 2.3 -0.6
v 0.3 2.4 -0.6
v 0.4 0 -0.6
v 0.4 0.1 -0.6
v 0.4 0.2 -0.6
v 0.4 0.4 -0.6
v 0.4 2 -0.6
v 0.4 2.2 -0.6
v 0.4 2.3 -0.6
v 0.4 2.4 -0.6
v 0.6 0.1 -0.6
v 0.6 0.2 -0.6
v 0.6 0.4 -0.6
v 0.6 2 -0.6
v 0.6 2.2 -0.6
v 0.6 2.3 -0.6
v 0.7 0.4 -0.6
v 0.7 2 -0.6
v 0.9 1.3 -0.6
v 0.9 1.7 -0.6
v 1 1.1 -0.6
v 1 1.3 -0.6
v 1 1.5 -0.6
v 1 1.7 -0.6
v 1.1 0.4 -0.6
v 1.1 1.1 -0.6
v 1.1 1.5 -0.6
v 1.1 2 -0.6
v 1.2 0.1 -0.6
v 1.2 0.2 -0.6
v 1.2 0.4 -0.6
v 1.2 2 -0.6
v 1.2 2.2 -0.6
v 1.2 2.3 -0.6
v 1.4 0 -0.6
v 1.4 0.1 -0.6
v 1.4 0.2 -0.6
v 1.4 0.4 -0.6
v 1.4 2 -0.6
v 1.4 2.2 -0.6
v 1.4 2.3 -0.6
v 1.4 2.4 -0.6
v 1.5 0 -0.6
v 1.5 0.1 -0.6
v 1.5 2.3 -0.6
v 1.5 2.4 -0.6
v -1.3 0 -0.7
v -1.3 0.1 -0.7
v -1.3 2.3 -0.7
v -1.3 2.4 -0.7
v -1.1 0 -0.7
v -1.1 0.1 -0.7
v -1.1 0.2 -0.7
v -1.1 0.4 -0.7
v -1.1 2 -0.7
v -1.1 2.2 -0.7
v -1.1 2.3 -0.7
v -1.1 2.4 -0.7
v -0.5 0 -0.7
v -0.5 0.1 -0.7
v -0.5 0.2 -0.7
v -0.5 0.4 -0.7
v -0.5 2 -0.7
v -0.5 2.2 -0.7
v -0.5 2.3 -0.7
v -0.5 2.4 -0.7
v -0.3 0 -0.7
v -0.3 0.1 -0.7
v -0.3 2.3 -0.7
v -0.3 2.4 -0.7
v 0.4 0 -0.7
v 0.4 0.1 -0.7
v 0.4 2.3 -0.7
v 0.4 2.4 -0.7
v 0.6 0 -0.7
v 0.6 0.1 -0.7
v 0.6 0.2 -0.7
v 0.6 0.4 -0.7
v 0.6 2 -0.7
v 0.6 2.2 -0.7
v 0.6 2.3 -0.7
v 0.6 2.4 -0.7
v 1.2 0 -0.7
v 1.2 0.1 -0.7
v 1.2 0.2 -0.7
v 1.2 0.4 -0.7
v 1.2 2 -0.7
v 1.2 2.2 -0.7
v 1.2 2.3 -0.7
v 1.2 2.4 -0.7
v 1.4 0 -0.7
v 1.4 0.1 -0.7
v 1.4 2.3 -0.7
v 1.4 2.4 -0.7
v -1.1 0 -0.8
v -1.1 0.1 -0.8
v -1.1 2.3 -0.8
v -1.1 2.4 -0.8
v -0.5 0 -0.8
v -0.5 0.1 -0.8
v -0.5 2.3 -0.8
v -0.5 2.4 -0.8
v 0.6 0 -0.8
v 0.6 0.1 -0.8
v 0.6 2.3 -0.8
v 0.6 2.4 -0.8
v 1.2 0 -0.8
v 1.2 0.1 -0.8
v 1.2 2.3 -0.8
v 1.2 2.4 -0.8
v -1.1 0 0.9
v -0.5 0 0.9
v 0.6 0 0.9
v 1.2 0 0.9
v -1.3 0 0.8
v -1.1 0 0.8
v -0.5 0 0.8
v -0.3 0 0.8
v 0.4 0 0.8
v 0.6 0 0.8
v 1.2 0 0.8
v 1.4 0 0.8
v -1.4 0 0.7
v -1.3 0 0.7
v -0.3 0 0.7
v -0.2 0 0.7
v 0.3 0 0.7
v 0.4 0 0.7
v 1.4 0 0.7
v 1.5 0 0.7
v -1.5 0 0.5
v -1.4 0 0.5
v -0.2 0 0.5
v -0.1 0 0.5
v 0.2 0 0.5
v 0.3 0 0.5
v 1.5 0 0.5
v 1.6 0 0.5
v -1.6 0 0.3
v -1.5 0 0.3
v -0.1 0 0.3
v 0 0 0.3
v 0.1 0 0.3
v 0.2 0 0.3
v 1.6 0 0.3
v 1.7 0 0.3
v -1.6 0 -0.2
v -1.5 0 -0.2
v -0.1 0 -0.2
v 0 0 -0.2
v 0.1 0 -0.2
v 0.2 0 -0.2
v 1.6 0 -0.2
v 1.7 0 -0.2
v -1.5 0 -0.4
v -1.4 0 -0.4
v -0.2 0 -0.4
v -0.1 0 -0.4
v 0.2 0 -0.4
v 0.3 0 -0.4
v 1.5 0 -0.4
v 1.6 0 -0.4
v -1.4 0 -0.6
v -1.3 0 -0.6
v -0.3 0 -0.6
v -0.2 0 -0.6
v 0.3 0 -0.6
v 0.4 0 -0.6
v 1.4 0 -0.6
v 1.5 0 -0.6
v -1.3 0 -0.7
v -1.1 0 -0.7
v -0.5 0 -0.7
v -0.3 0 -0.7
v 0.4 0 -0.7
v 0.6 0 -0.7
v 1.2 0 -0.7
v 1.4 0 -0.7
v -1.1 0 -0.8
v -0.5 0 -0.8
v 0.6 0 -0.8
v 1.2 0 -0.8
v -1.1 2 0.8
v -0.5 2 0.8
v 0.6 2 0.8
v 1.2 2 0.8
v -1.3 2 0.7
v -1.1 2 0.7
v -1 2 0.7
v -0.6 2 0.7
v -0.5 2 0.7
v -0.3 2 0.7
v 0.4 2 0.7
v 0.6 2 0.7
v 0.7 2 0.7
v 1.1 2 0.7
v 1.2 2 0.7
v 1.4 2 0.7
v -1.2 2 0.6
v -1 2 0.6
v -0.6 2 0.6
v -0.4 2 0.6
v 0.5 2 0.6
v 0.7 2 0.6
v 1.1 2 0.6
v 1.3 2 0.6
v -1.4 2 0.5
v -1.3 2 0.5
v -0.3 2 0.5
v -0.2 2 0.5
v 0.3 2 0.5
v 0.4 2 0.5
v 1.4 2 0.5
v 1.5 2 0.5
v -1.3 2 0.4
v -1.2 2 0.4
v -0.4 2 0.4
v -0.3 2 0.4
v 0.4 2 0.4
v 0.5 2 0.4
v 1.3 2 0.4
v 1.4 2 0.4
v -1.5 2 0.3
v -1.4 2 0.3
v -0.2 2 0.3
v -0.1 2 0.3
v 0.2 2 0.3
v 0.3 2 0.3
v 1.5 2 0.3
v 1.6 2 0.3
v -1.4 2 0.2
v -1.3 2 0.2
v -0.3 2 0.2
v -0.2 2 0.2
v 0.3 2 0.2
v 0.4 2 0.2
v 1.4 2 0.2
v 1.5 2 0.2
v -1.4 2 -0.1
v -1.3 2 -0.1
v -0.3 2 -0.1
v -0.2 2 -0.1
v 0.3 2 -0.1
v 0.4 2 -0.1
v 1.4 2 -0.1
v 1.5 2 -0.1
v -1.5 2 -0.2
v -1.4 2 -0.2
v -0.2 2 -0.2
v -0.1 2 -0.2
v 0.2 2 -0.2
v 0.3 2 -0.2
v 1.5 2 -0.2
v 1.6 2 -0.2
v -1.3 2 -0.3
v -1.2 2 -0.3
v -0.4 2 -0.3
v -0.3 2 -0.3
v 0.4 2 -0.3
v 0.5 2 -0.3
v 1.3 2 -0.3
v 1.4 2 -0.3
v -1.4 2 -0.4
v -1.3 2 -0.4
v -0.3 2 -0.4
v -0.2 2 -0.4
v 0.3 2 -0.4
v 0.4 2 -0.4
v 1.4 2 -0.4
v 1.5 2 -0.4
v -1.2 2 -0.5
v -1 2 -0.5
v -0.6 2 -0.5
v -0.4 2 -0.5
v 0.5 2 -0.5
v 0.7 2 -0.5
v 1.1 2 -0.5
v 1.3 2 -0.5
v -1.3 2 -0.6
v -1.1 2 -0.6
v -1 2 -0.6
v -0.6 2 -0.6
v -0.5 2 -0.6
v -0.3 2 -0.6
v 0.4 2 -0.6
v 0.6 2 -0.6
v 0.7 2 -0.6
v 1.1 2 -0.6
v 1.2 2 -0.6
v 1.4 2 -0.6
v -1.1 2 -0.7
v -0.5 2 -0.7
v 0.6 2 -0.7
v 1.2 2 -0.7
v -1.1 2.3 0.9
v -0.5 2.3 0.9
v 0.6 2.3 0.9
v 1.2 2.3 0.9
v -1.3 2.3 0.8
v -1.1 2.3 0.8
v -0.5 2.3 0.8
v -0.3 2.3 0.8
v 0.4 2.3 0.8
v 0.6 2.3 0.8
v 1.2 2.3 0.8
v 1.4 2.3 0.8
v -1.4 2.3 0.7
v -1.3 2.3 0.7
v -1.1 2.3 0.7
v -0.5 2.3 0.7
v -0.3 2.3 0.7
v -0.2 2.3 0.7
v 0.3 2.3 0.7
v 0.4 2.3 0.7
v 0.6 2.3 0.7
v 1.2 2.3 0.7
v 1.4 2.3 0.7
v 1.5 2.3 0.7
v -1.5 2.3 0.5
v -1.4 2.3 0.5
v -1.3 2.3 0.5
v -0.3 2.3 0.5
v -0.2 2.3 0.5
v -0.1 2.3 0.5
v 0.2 2.3 0.5
v 0.3 2.3 0.5
v 0.4 2.3 0.5
v 1.4 2.3 0.5
v 1.5 2.3 0.5
v 1.6 2.3 0.5
v -1.6 2.3 0.3
v -1.5 2.3 0.3
v -1.4 2.3 0.3
v -0.2 2.3 0.3
v -0.1 2.3 0.3
v 0 2.3 0.3
v 0.1 2.3 0.3
v 0.2 2.3 0.3
v 0.3 2.3 0.3
v 1.5 2.3 0.3
v 1.6 2.3 0.3
v 1.7 2.3 0.3
v -1.6 2.3 -0.2
v -1.5 2.3 -0.2
v -1.4 2.3 -0.2
v -0.2 2.3 -0.2
v -0.1 2.3 -0.2
v 0 2.3 -0.2
v 0.1 2.3 -0.2
v 0.2 2.3 -0.2
v 0.3 2.3 -0.2
v 1.5 2.3 -0.2
v 1.6 2.3 -0.2
v 1.7 2.3 -0.2
v -1.5 2.3 -0.4
v -1.4 2.3 -0.4
v -1.3 2.3 -0.4
v -0.3 2.3 -0.4
v -0.2 2.3 -0.4
v -0.1 2.3 -0.4
v 0.2 2.3 -0.4
v 0.3 2.3 -0.4
v 0.4 2.3 -0.4
v 1.4 2.3 -0.4
v 1.5 2.3 -0.4
v 1.6 2.3 -0.4
v -1.4 2.3 -0.6
v -1.3 2.3 -0.6
v -1.1 2.3 -0.6
v -0.5 2.3 -0.6
v -0.3 2.3 -0.6
v -0.2 2.3 -0.6
v 0.3 2.3 -0.6
v 0.4 2.3 -0.6
v 0.6 2.3 -0.6
v 1.2 2.3 -0.6
v 1.4 2.3 -0.6
v 1.5 2.3 -0.6
v -1.3 2.3 -0.7
v -1.1 2.3 -0.7
v -0.5 2.3 -0.7
v -0.3 2.3 -0.7
v 0.4 2.3 -0.7
v 0.6 2.3 -0.7
v 1.2 2.3 -0.7
v 1.4 2.3 -0.7
v -1.1 2.3 -0.8
v -0.5 2.3 -0.8
v 0.6 2.3 -0.8
v 1.2 2.3 -0.8
v -1.1 0.1 0.9
v -0.5 0.1 0.9
v 0.6 0.1 0.9
v 1.2 0.1 0.9
v -1.3 0.1 0.8
v -1.1 0.1 0.8
v -0.5 0.1 0.8
v -0.3 0.1 0.8
v 0.4 0.1 0.8
v 0.6 0.1 0.8
v 1.2 0.1 0.8
v 1.4 0.1 0.8
v -1.4 0.1 0.7
v -1.3 0.1 0.7
v -1.1 0.1 0.7
v -0.5 0.1 0.7
v -0.3 0.1 0.7
v -0.2 0.1 0.7
v 0.3 0.1 0.7
v 0.4 0.1 0.7
v 0.6 0.1 0.7
v 1.2 0.1 0.7
v 1.4 0.1 0.7
v 1.5 0.1 0.7
v -1.5 0.1 0.5
v -1.4 0.1 0.5
v -1.3 0.1 0.5
v -0.3 0.1 0.5
v -0.2 0.1 0.5
v -0.1 0.1 0.5
v 0.2 0.1 0.5
v 0.3 0.1 0.5
v 0.4 0.1 0.5
v 1.4 0.1 0.5
v 1.5 0.1 0.5
v 1.6 0.1 0.5
v -1.6 0.1 0.3
v -1.5 0.1 0.3
v -1.4 0.1 0.3
v -0.2 0.1 0.3
v -0.1 0.1 0.3
v 0 0.1 0.3
v 0.1 0.1 0.3
v 0.2 0.1 0.3
v 0.3 0.1 0.3
v 1.5 0.1 0.3
v 1.6 0.1 0.3
v 1.7 0.1 0.3
v -1.6 0.1 -0.2
v -1.5 0.1 -0.2
v -1.4 0.1 -0.2
v -0.2 0.1 -0.2
v -0.1 0.1 -0.2
v 0 0.1 -0.2
v 0.1 0.1 -0.2
v 0.2 0.1 -0.2
v 0.3 0.1 -0.2
v 1.5 0.1 -0.2
v 1.6 0.1 -0.2
v 1.7 0.1 -0.2
v -1.5 0.1 -0.4
v -1.4 0.1 -0.4
v -1.3 0.1 -0.4
v -0.3 0.1 -0.4
v -0.2 0.1 -0.4
v -0.1 0.1 -0.4
v 0.2 0.1 -0.4
v 0.3 0.1 -0.4
v 0.4 0.1 -0.4
v 1.4 0.1 -0.4
v 1.5 0.1 -0.4
v 1.6 0.1 -0.4
v -1.4 0.1 -0.6
v -1.3 0.1 -0.6
v -1.1 0.1 -0.6
v -0.5 0.1 -0.6
v -0.3 0.1 -0.6
v -0.2 0.1 -0.6
v 0.3 0.1 -0.6
v 0.4 0.1 -0.6
v 0.6 0.1 -0.6
v 1.2 0.1 -0.6
v 1.4 0.1 -0.6
v 1.5 0.1 -0.6
v -1.3 0.1 -0.7
v -1.1 0.1 -0.7
v -0.5 0.1 -0.7
v -0.3 0.1 -0.7
v 0.4 0.1 -0.7
v 0.6 0.1 -0.7
v 1.2 0.1 -0.7
v 1.4 0.1 -0.7
v -1.1 0.1 -0.8
v -0.5 0.1 -0.8
v 0.6 0.1 -0.8
v 1.2 0.1 -0.8
v -1.1 0.4 0.8
v -0.5 0.4 0.8
v 0.6 0.4 0.8
v 1.2 0.4 0.8
v -1.3 0.4 0.7
v -1.1 0.4 0.7
v -1 0.4 0.7
v -0.6 0.4 0.7
v -0.5 0.4 0.7
v -0.3 0.4 0.7
v 0.4 0.4 0.7
v 0.6 0.4 0.7
v 0.7 0.4 0.7
v 1.1 0.4 0.7
v 1.2 0.4 0.7
v 1.4 0.4 0.7
v -1.2 0.4 0.6
v -1 0.4 0.6
v -0.6 0.4 0.6
v -0.4 0.4 0.6
v 0.5 0.4 0.6
v 0.7 0.4 0.6
v 1.1 0.4 0.6
v 1.3 0.4 0.6
v -1.4 0.4 0.5
v -1.3 0.4 0.5
v -0.3 0.4 0.5
v -0.2 0.4 0.5
v 0.3 0.4 0.5
v 0.4 0.4 0.5
v 1.4 0.4 0.5
v 1.5 0.4 0.5
v -1.3 0.4 0.4
v -1.2 0.4 0.4
v -0.4 0.4 0.4
v -0.3 0.4 0.4
v 0.4 0.4 0.4
v 0.5 0.4 0.4
v 1.3 0.4 0.4
v 1.4 0.4 0.4
v -1.5 0.4 0.3
v -1.4 0.4 0.3
v -0.3 0.4 0.3
v -0.2 0.4 0.3
v -0.1 0.4 0.3
v 0.2 0.4 0.3
v 0.3 0.4 0.3
v 1.4 0.4 0.3
v 1.5 0.4 0.3
v 1.6 0.4 0.3
v -1.4 0.4 0.2
v -1.3 0.4 0.2
v -0.3 0.4 0.2
v -0.2 0.4 0.2
v 0.3 0.4 0.2
v 0.4 0.4 0.2
v 1.4 0.4 0.2
v 1.5 0.4 0.2
v -1.4 0.4 -0.1
v -1.3 0.4 -0.1
v -0.3 0.4 -0.1
v -0.2 0.4 -0.1
v 0.3 0.4 -0.1
v 0.4 0.4 -0.1
v 1.4 0.4 -0.1
v 1.5 0.4 -0.1
v -1.5 0.4 -0.2
v -1.4 0.4 -0.2
v -0.2 0.4 -0.2
v -0.1 0.4 -0.2
v 0.2 0.4 -0.2
v 0.3 0.4 -0.2
v 1.5 0.4 -0.2
v 1.6 0.4 -0.2
v -1.3 0.4 -0.3
v -1.2 0.4 -0.3
v -0.4 0.4 -0.3
v -0.3 0.4 -0.3
v 0.4 0.4 -0.3
v 0.5 0.4 -0.3
v 1.3 0.4 -0.3
v 1.4 0.4 -0.3
v -1.4 0.4 -0.4
v -1.3 0.4 -0.4
v -0.3 0.4 -0.4
v -0.2 0.4 -0.4
v 0.3 0.4 -0.4
v 0.4 0.4 -0.4
v 1.4 0.4 -0.4
v 1.5 0.4 -0.4
v -1.2 0.4 -0.5
v -1 0.4 -0.5
v -0.6 0.4 -0.5
v -0.4 0.4 -0.5
v 0.5 0.4 -0.5
v 0.7 0.4 -0.5
v 1.1 0.4 -0.5
v 1.3 0.4 -0.5
v -1.3 0.4 -0.6
v -1.1 0.4 -0.6
v -1 0.4 -0.6
v -0.6 0.4 -0.6
v -0.5 0.4 -0.6
v -0.3 0.4 -0.6
v 0.4 0.4 -0.6
v 0.6 0.4 -0.6
v 0.7 0.4 -0.6
v 1.1 0.4 -0.6
v 1.2 0.4 -0.6
v 1.4 0.4 -0.6
v -1.1 0.4 -0.7
v -0.5 0.4 -0.7
v 0.6 0.4 -0.7
v 1.2 0.4 -0.7
v -1.1 2.4 0.9
v -0.5 2.4 0.9
v 0.6 2.4 0.9
v 1.2 2.4 0.9
v -1.3 2.4 0.8
v -1.1 2.4 0.8
v -0.5 2.4 0.8
v -0.3 2.4 0.8
v 0.4 2.4 0.8
v 0.6 2.4 0.8
v 1.2 2.4 0.8
v 1.4 2.4 0.8
v -1.4 2.4 0.7
v -1.3 2.4 0.7
v -0.3 2.4 0.7
v -0.2 2.4 0.7
v 0.3 2.4 0.7
v 0.4 2.4 0.7
v 1.4 2.4 0.7
v 1.5 2.4 0.7
v -1.5 2.4 0.5
v -1.4 2.4 0.5
v -0.2 2.4 0.5
v -0.1 2.4 0.5
v 0.2 2.4 0.5
v 0.3 2.4 0.5
v 1.5 2.4 0.5
v 1.6 2.4 0.5
v -1.6 2.4 0.3
v -1.5 2.4 0.3
v -0.1 2.4 0.3
v 0 2.4 0.3
v 0.1 2.4 0.3
v 0.2 2.4 0.3
v 1.6 2.4 0.3
v 1.7 2.4 0.3
v -1.6 2.4 -0.2
v -1.5 2.4 -0.2
v -0.1 2.4 -0.2
v 0 2.4 -0.2
v 0.1 2.4 -0.2
v 0.2 2.4 -0.2
v 1.6 2.4 -0.2
v 1.7 2.4 -0.2
v -1.5 2.4 -0.4
v -1.4 2.4 -0.4
v -0.2 2.4 -0.4
v -0.1 2.4 -0.4
v 0.2 2.4 -0.4
v 0.3 2.4 -0.4
v 1.5 2.4 -0.4
v 1.6 2.4 -0.4
v -1.4 2.4 -0.6
v -1.3 2.4 -0.6
v -0.3 2.4 -0.6
v -0.2 2.4 -0.6
v 0.3 2.4 -0.6
v 0.4 2.4 -0.6
v 1.4 2.4 -0.6
v 1.5 2.4 -0.6
v -1.3 2.4 -0.7
v -1.1 2.4 -0.7
v -0.5 2.4 -0.7
v -0.3 2.4 -0.7
v 0.4 2.4 -0.7
v 0.6 2.4 -0.7
v 1.2 2.4 -0.7
v 1.4 2.4 -0.7
v -1.1 2.4 -0.8
v -0.5 2.4 -0.8
v 0.6 2.4 -0.8
v 1.2 2.4 -0.8

# faces
f 3/4/1 2/4/1 1/4/1
f 4/4/1 2/4/1 3/4/1
f 7/4/1 6/4/1 5/4/1
f 8/4/1 6/4/1 7/4/1
f 13/4/1 10/4/1 9/4/1
f 14/4/1 10/4/1 13/4/1
f 15/4/1 12/4/1 11/4/1
f 16/4/1 12/4/1 15/4/1
f 17/4/1 15/4/1 14/4/1
f 18/4/1 15/4/1 17/4/1
f 19/3/1 18/3/1 17/3/1
f 20/3/1 18/3/1 19/3/1
f 23/3/1 22/3/1 21/3/1
f 24/3/1 22/3/1 23/3/1
f 26/4/1 24/4/1 23/4/1
f 27/4/1 24/4/1 26/4/1
f 29/4/1 26/4/1 25/4/1
f 30/4/1 26/4/1 29/4/1
f 31/4/1 28/4/1 27/4/1
f 32/4/1 28/4/1 31/4/1
f 37/4/1 34/4/1 33/4/1
f 38/4/1 34/4/1 37/4/1
f 41/4/1 36/4/1 35/4/1
f 42/4/1 36/4/1 41/4/1
f 43/4/1 39/4/1 38/4/1
f 44/4/1 39/4/1 43/4/1
f 45/4/1 41/4/1 40/4/1
f 46/4/1 41/4/1 45/4/1
f 47/3/1 44/3/1 43/3/1
f 48/3/1 44/3/1 47/3/1
f 51/3/1 46/3/1 45/3/1
f 52/3/1 46/3/1 51/3/1
f 53/1/1 50/1/1 49/1/1
f 54/1/1 50/1/1 53/1/1
f 55/1/1 53/1/1 49/1/1
f 56/2/1 54/2/1 53/2/1
f 56/1/1 53/1/1 55/1/1
f 57/1/1 55/1/1 49/1/1
f 57/2/1 56/2/1 55/2/1
f 58/2/1 54/2/1 56/2/1
f 58/2/1 56/2/1 57/2/1
f 59/1/1 58/1/1 57/1/1
f 59/2/1 54/2/1 58/2/1
f 60/2/1 54/2/1 59/2/1
f 63/1/1 57/1/1 49/1/1
f 63/1/1 59/1/1 57/1/1
f 63/1/1 60/1/1 59/1/1
f 64/1/1 60/1/1 63/1/1
f 67/3/1 62/3/1 61/3/1
f 68/3/1 62/3/1 67/3/1
f 69/3/1 66/3/1 65/3/1
f 70/3/1 66/3/1 69/3/1
f 72/4/1 68/4/1 67/4/1
f 73/4/1 68/4/1 72/4/1
f 74/4/1 70/4/1 69/4/1
f 75/4/1 70/4/1 74/4/1
f 77/4/1 72/4/1 71/4/1
f 78/4/1 72/4/1 77/4/1
f 79/4/1 76/4/1 75/4/1
f 80/4/1 76/4/1 79/4/1
f 85/4/1 82/4/1 81/4/1
f 86/4/1 82/4/1 85/4/1
f 89/4/1 84/4/1 83/4/1
f 90/4/1 84/4/1 89/4/1
f 91/4/1 87/4/1 86/4/1
f 92/4/1 87/4/1 91/4/1
f 93/4/1 89/4/1 88/4/1
f 94/4/1 89/4/1 93/4/1
f 95/3/1 92/3/1 91/3/1
f 96/3/1 92/3/1 95/3/1
f 101/3/1 94/3/1 93/3/1
f 102/3/1 94/3/1 101/3/1
f 103/1/1 100/1/1 99/1/1
f 104/1/1 100/1/1 103/1/1
f 105/2/1 104/2/1 103/2/1
f 106/2/1 104/2/1 105/2/1
f 107/1/1 100/1/1 104/1/1
f 107/2/1 104/2/1 106/2/1
f 108/1/1 107/1/1 106/1/1
f 111/1/1 98/1/1 97/1/1
f 112/1/1 98/1/1 111/1/1
f 113/1/1 107/1/1 108/1/1
f 114/1/1 100/1/1 107/1/1
f 114/1/1 107/1/1 113/1/1
f 117/3/1 110/3/1 109/3/1
f 118/3/1 110/3/1 117/3/1
f 119/3/1 116/3/1 115/3/1
f 120/3/1 116/3/1 119/3/1
f 122/4/1 118/4/1 117/4/1
f 123/4/1 118/4/1 122/4/1
f 124/4/1 120/4/1 119/4/1
f 125/4/1 120/4/1 124/4/1
f 127/4/1 122/4/1 121/4/1
f 128/4/1 122/4/1 127/4/1
f 129/4/1 126/4/1 125/4/1
f 130/4/1 126/4/1 129/4/1
f 135/1/1 134/1/1 133/1/1
f 136/1/1 134/1/1 135/1/1
f 137/2/1 136/2/1 135/2/1
f 138/2/1 136/2/1 137/2/1
f 139/1/1 132/1/1 131/1/1
f 140/1/1 132/1/1 139/1/1
f 141/2/1 136/2/1 138/2/1
f 141/1/1 138/1/1 137/1/1
f 142/2/1 136/2/1 141/2/1
f 143/1/1 132/1/1 140/1/1
f 143/2/1 140/2/1 139/2/1
f 144/1/1 132/1/1 143/1/1
f 145/2/1 143/2/1 139/2/1
f 145/2/1 144/2/1 143/2/1
f 146/2/1 144/2/1 145/2/1
f 147/1/1 146/1/1 145/1/1
f 147/2/1 144/2/1 146/2/1
f 148/2/1 144/2/1 147/2/1
f 149/1/1 147/1/1 145/1/1
f 149/1/1 148/1/1 147/1/1
f 150/1/1 148/1/1 149/1/1
f 151/1/1 142/1/1 141/1/1
f 151/1/1 141/1/1 137/1/1
f 152/1/1 142/1/1 151/1/1
f 157/4/1 154/4/1 153/4/1
f 158/4/1 154/4/1 157/4/1
f 161/4/1 156/4/1 155/4/1
f 162/4/1 156/4/1 161/4/1
f 163/4/1 159/4/1 158/4/1
f 164/4/1 159/4/1 163/4/1
f 165/4/1 161/4/1 160/4/1
f 166/4/1 161/4/1 165/4/1
f 167/3/1 164/3/1 163/3/1
f 168/3/1 164/3/1 167/3/1
f 169/3/1 166/3/1 165/3/1
f 170/3/1 166/3/1 169/3/1
f 175/3/1 172/3/1 171/3/1
f 176/3/1 172/3/1 175/3/1
f 177/3/1 174/3/1 173/3/1
f 178/3/1 174/3/1 177/3/1
f 180/4/1 176/4/1 175/4/1
f 181/4/1 176/4/1 180/4/1
f 182/4/1 178/4/1 177/4/1
f 183/4/1 178/4/1 182/4/1
f 185/4/1 180/4/1 179/4/1
f 186/4/1 180/4/1 185/4/1
f 187/4/1 184/4/1 183/4/1
f 188/4/1 184/4/1 187/4/1
f 193/1/1 192/1/1 191/1/1
f 194/1/1 192/1/1 193/1/1
f 195/1/1 190/1/1 189/1/1
f 196/1/1 190/1/1 195/1/1
f 197/1/1 192/1/1 194/1/1
f 198/1/1 192/1/1 197/1/1
f 201/4/1 200/4/1 199/4/1
f 202/4/1 200/4/1 201/4/1
f 205/4/1 204/4/1 203/4/1
f 206/4/1 204/4/1 205/4/1
f 211/4/1 208/4/1 207/4/1
f 212/4/1 208/4/1 211/4/1
f 213/4/1 210/4/1 209/4/1
f 214/4/1 210/4/1 213/4/1
f 215/4/1 213/4/1 212/4/1
f 216/4/1 213/4/1 215/4/1
f 217/3/1 216/3/1 215/3/1
f 218/3/1 216/3/1 217/3/1
f 221/3/1 220/3/1 219/3/1
f 222/3/1 220/3/1 221/3/1
f 224/4/1 222/4/1 221/4/1
f 225/4/1 222/4/1 224/4/1
f 227/4/1 224/4/1 223/4/1
f 228/4/1 224/4/1 227/4/1
f 229/4/1 226/4/1 225/4/1
f 230/4/1 226/4/1 229/4/1
f 235/4/1 232/4/1 231/4/1
f 236/4/1 232/4/1 235/4/1
f 239/4/1 234/4/1 233/4/1
f 240/4/1 234/4/1 239/4/1
f 241/4/1 237/4/1 236/4/1
f 242/4/1 237/4/1 241/4/1
f 243/4/1 239/4/1 238/4/1
f 244/4/1 239/4/1 243/4/1
f 245/3/1 242/3/1 241/3/1
f 246/3/1 242/3/1 245/3/1
f 249/3/1 244/3/1 243/3/1
f 250/3/1 244/3/1 249/3/1
f 251/1/1 248/1/1 247/1/1
f 252/1/1 248/1/1 251/1/1
f 253/1/1 251/1/1 247/1/1
f 254/2/1 252/2/1 251/2/1
f 254/1/1 251/1/1 253/1/1
f 255/1/1 253/1/1 247/1/1
f 255/2/1 254/2/1 253/2/1
f 256/2/1 252/2/1 254/2/1
f 256/2/1 254/2/1 255/2/1
f 257/1/1 256/1/1 255/1/1
f 257/2/1 252/2/1 256/2/1
f 258/2/1 252/2/1 257/2/1
f 261/1/1 255/1/1 247/1/1
f 261/1/1 257/1/1 255/1/1
f 261/1/1 258/1/1 257/1/1
f 262/1/1 258/1/1 261/1/1
f 265/3/1 260/3/1 259/3/1
f 266/3/1 260/3/1 265/3/1
f 267/3/1 264/3/1 263/3/1
f 268/3/1 264/3/1 267/3/1
f 270/4/1 266/4/1 265/4/1
f 271/4/1 266/4/1 270/4/1
f 272/4/1 268/4/1 267/4/1
f 273/4/1 268/4/1 272/4/1
f 275/4/1 270/4/1 269/4/1
f 276/4/1 270/4/1 275/4/1
f 277/4/1 274/4/1 273/4/1
f 278/4/1 274/4/1 277/4/1
f 283/4/1 280/4/1 279/4/1
f 284/4/1 280/4/1 283/4/1
f 287/4/1 282/4/1 281/4/1
f 288/4/1 282/4/1 287/4/1
f 289/4/1 285/4/1 284/4/1
f 290/4/1 285/4/1 289/4/1
f 291/4/1 287/4/1 286/4/1
f 292/4/1 287/4/1 291/4/1
f 293/3/1 290/3/1 289/3/1
f 294/3/1 290/3/1 293/3/1
f 299/3/1 292/3/1 291/3/1
f 300/3/1 292/3/1 299/3/1
f 301/1/1 298/1/1 297/1/1
f 302/1/1 298/1/1 301/1/1
f 303/2/1 302/2/1 301/2/1
f 304/2/1 302/2/1 303/2/1
f 305/1/1 298/1/1 302/1/1
f 305/2/1 302/2/1 304/2/1
f 306/1/1 305/1/1 304/1/1
f 309/1/1 296/1/1 295/1/1
f 310/1/1 296/1/1 309/1/1
f 311/1/1 305/1/1 306/1/1
f 312/1/1 298/1/1 305/1/1
f 312/1/1 305/1/1 311/1/1
f 315/3/1 308/3/1 307/3/1
f 316/3/1 308/3/1 315/3/1
f 317/3/1 314/3/1 313/3/1
f 318/3/1 314/3/1 317/3/1
f 320/4/1 316/4/1 315/4/1
f 321/4/1 316/4/1 320/4/1
f 322/4/1 318/4/1 317/4/1
f 323/4/1 318/4/1 322/4/1
f 325/4/1 320/4/1 319/4/1
f 326/4/1 320/4/1 325/4/1
f 327/4/1 324/4/1 323/4/1
f 328/4/1 324/4/1 327/4/1
f 333/1/1 332/1/1 331/1/1
f 334/1/1 332/1/1 333/1/1
f 335/2/1 334/2/1 333/2/1
f 336/2/1 334/2/1 335/2/1
f 337/1/1 330/1/1 329/1/1
f 338/1/1 330/1/1 337/1/1
f 339/2/1 334/2/1 336/2/1
f 339/1/1 336/1/1 335/1/1
f 340/2/1 334/2/1 339/2/1
f 341/1/1 330/1/1 338/1/1
f 341/2/1 338/2/1 337/2/1
f 342/1/1 330/1/1 341/1/1
f 343/2/1 341/2/1 337/2/1
f 343/2/1 342/2/1 341/2/1
f 344/2/1 342/2/1 343/2/1
f 345/1/1 344/1/1 343/1/1
f 345/2/1 342/2/1 344/2/1
f 346/2/1 342/2/1 345/2/1
f 347/1/1 345/1/1 343/1/1
f 347/1/1 346/1/1 345/1/1
f 348/1/1 346/1/1 347/1/1
f 349/1/1 340/1/1 339/1/1
f 349/1/1 339/1/1 335/1/1
f 350/1/1 340/1/1 349/1/1
f 355/4/1 352/4/1 351/4/1
f 356/4/1 352/4/1 355/4/1
f 359/4/1 354/4/1 353/4/1
f 360/4/1 354/4/1 359/4/1
f 361/4/1 357/4/1 356/4/1
f 362/4/1 357/4/1 361/4/1
f 363/4/1 359/4/1 358/4/1
f 364/4/1 359/4/1 363/4/1
f 365/3/1 362/3/1 361/3/1
f 366/3/1 362/3/1 365/3/1
f 367/3/1 364/3/1 363/3/1
f 368/3/1 364/3/1 367/3/1
f 373/3/1 370/3/1 369/3/1
f 374/3/1 370/3/1 373/3/1
f 375/3/1 372/3/1 371/3/1
f 376/3/1 372/3/1 375/3/1
f 378/4/1 374/4/1 373/4/1
f 379/4/1 374/4/1 378/4/1
f 380/4/1 376/4/1 375/4/1
f 381/4/1 376/4/1 380/4/1
f 383/4/1 378/4/1 377/4/1
f 384/4/1 378/4/1 383/4/1
f 385/4/1 382/4/1 381/4/1
f 386/4/1 382/4/1 385/4/1
f 391/1/1 390/1/1 389/1/1
f 392/1/1 390/1/1 391/1/1
f 393/1/1 388/1/1 387/1/1
f 394/1/1 388/1/1 393/1/1
f 395/1/1 390/1/1 392/1/1
f 396/1/1 390/1/1 395/1/1
f 397/1/2 398/1/2 401/1/2
f 401/1/2 398/1/2 402/1/2
f 401/2/2 402/2/2 403/2/2
f 403/2/2 402/2/2 404/2/2
f 399/1/2 400/1/2 405/1/2
f 405/1/2 400/1/2 406/1/2
f 405/2/2 406/2/2 407/2/2
f 407/2/2 406/2/2 408/2/2
f 403/1/2 404/1/2 409/1/2
f 409/1/2 404/1/2 410/1/2
f 407/1/2 408/1/2 411/1/2
f 411/1/2 408/1/2 412/1/2
f 413/4/2 414/4/2 417/4/2
f 417/4/2 414/4/2 418/4/2
f 415/4/2 416/4/2 421/4/2
f 421/4/2 416/4/2 422/4/2
f 418/4/2 419/4/2 423/4/2
f 423/4/2 419/4/2 424/4/2
f 420/4/2 421/4/2 425/4/2
f 425/4/2 421/4/2 426/4/2
f 423/3/2 424/3/2 427/3/2
f 427/3/2 424/3/2 428/3/2
f 425/3/2 426/3/2 429/3/2
f 429/3/2 426/3/2 430/3/2
f 431/3/2 432/3/2 435/3/2
f 435/3/2 432/3/2 436/3/2
f 433/3/2 434/3/2 437/3/2
f 437/3/2 434/3/2 438/3/2
f 435/4/2 436/4/2 440/4/2
f 440/4/2 436/4/2 441/4/2
f 437/4/2 438/4/2 442/4/2
f 442/4/2 438/4/2 443/4/2
f 439/4/2 440/4/2 445/4/2
f 445/4/2 440/4/2 446/4/2
f 443/4/2 444/4/2 447/4/2
f 447/4/2 444/4/2 448/4/2
f 449/1/2 450/1/2 453/1/2
f 453/1/2 450/1/2 454/1/2
f 449/1/2 453/1/2 455/1/2
f 453/2/2 454/2/2 455/2/2
f 455/2/2 454/2/2 456/2/2
f 451/1/2 452/1/2 457/1/2
f 457/1/2 452/1/2 458/1/2
f 455/1/2 456/1/2 459/1/2
f 449/1/2 455/1/2 459/1/2
f 459/1/2 456/1/2 460/1/2
f 458/1/2 452/1/2 461/1/2
f 461/1/2 452/1/2 462/1/2
f 463/4/2 464/4/2 467/4/2
f 467/4/2 464/4/2 468/4/2
f 465/4/2 466/4/2 471/4/2
f 471/4/2 466/4/2 472/4/2
f 468/4/2 469/4/2 473/4/2
f 473/4/2 469/4/2 474/4/2
f 470/4/2 471/4/2 475/4/2
f 475/4/2 471/4/2 476/4/2
f 473/3/2 474/3/2 477/3/2
f 477/3/2 474/3/2 478/3/2
f 475/3/2 476/3/2 484/3/2
f 484/3/2 476/3/2 485/3/2
f 479/2/2 480/2/2 486/2/2
f 480/1/2 481/1/2 487/1/2
f 486/2/2 480/2/2 487/2/2
f 486/1/2 487/1/2 488/1/2
f 487/1/2 481/1/2 488/1/2
f 482/1/2 483/1/2 489/1/2
f 489/1/2 483/1/2 490/1/2
f 482/1/2 489/1/2 491/1/2
f 489/2/2 490/2/2 491/2/2
f 491/2/2 490/2/2 492/2/2
f 486/1/2 488/1/2 493/1/2
f 482/1/2 491/1/2 494/1/2
f 491/1/2 492/1/2 494/1/2
f 494/1/2 492/1/2 495/1/2
f 486/1/2 493/1/2 498/1/2
f 498/1/2 493/1/2 499/1/2
f 495/1/2 492/1/2 500/1/2
f 500/1/2 492/1/2 501/1/2
f 496/3/2 497/3/2 504/3/2
f 504/3/2 497/3/2 505/3/2
f 502/3/2 503/3/2 506/3/2
f 506/3/2 503/3/2 507/3/2
f 504/4/2 505/4/2 509/4/2
f 509/4/2 505/4/2 510/4/2
f 506/4/2 507/4/2 511/4/2
f 511/4/2 507/4/2 512/4/2
f 508/4/2 509/4/2 514/4/2
f 514/4/2 509/4/2 515/4/2
f 512/4/2 513/4/2 516/4/2
f 516/4/2 513/4/2 517/4/2
f 518/4/2 519/4/2 522/4/2
f 522/4/2 519/4/2 523/4/2
f 520/4/2 521/4/2 526/4/2
f 526/4/2 521/4/2 527/4/2
f 523/4/2 524/4/2 528/4/2
f 528/4/2 524/4/2 529/4/2
f 525/4/2 526/4/2 530/4/2
f 530/4/2 526/4/2 531/4/2
f 528/3/2 529/3/2 532/3/2
f 532/3/2 529/3/2 533/3/2
f 530/3/2 531/3/2 536/3/2
f 536/3/2 531/3/2 537/3/2
f 534/1/2 535/1/2 538/1/2
f 538/1/2 535/1/2 539/1/2
f 538/2/2 539/2/2 540/2/2
f 539/1/2 535/1/2 540/1/2
f 540/1/2 535/1/2 541/1/2
f 538/2/2 540/2/2 542/2/2
f 540/2/2 541/2/2 542/2/2
f 542/2/2 541/2/2 543/2/2
f 541/1/2 535/1/2 544/1/2
f 543/2/2 541/2/2 544/2/2
f 544/1/2 535/1/2 545/1/2
f 542/1/2 543/1/2 546/1/2
f 543/2/2 544/2/2 546/2/2
f 544/2/2 545/2/2 546/2/2
f 546/2/2 545/2/2 547/2/2
f 542/1/2 546/1/2 550/1/2
f 546/1/2 547/1/2 550/1/2
f 550/1/2 547/1/2 551/1/2
f 548/3/2 549/3/2 554/3/2
f 554/3/2 549/3/2 555/3/2
f 552/3/2 553/3/2 556/3/2
f 556/3/2 553/3/2 557/3/2
f 554/4/2 555/4/2 559/4/2
f 559/4/2 555/4/2 560/4/2
f 556/4/2 557/4/2 561/4/2
f 561/4/2 557/4/2 562/4/2
f 558/4/2 559/4/2 564/4/2
f 564/4/2 559/4/2 565/4/2
f 562/4/2 563/4/2 566/4/2
f 566/4/2 563/4/2 567/4/2
f 568/4/2 569/4/2 572/4/2
f 572/4/2 569/4/2 573/4/2
f 570/4/2 571/4/2 574/4/2
f 574/4/2 571/4/2 575/4/2
f 573/4/2 574/4/2 576/4/2
f 576/4/2 574/4/2 577/4/2
f 576/3/2 577/3/2 578/3/2
f 578/3/2 577/3/2 579/3/2
f 580/3/2 581/3/2 582/3/2
f 582/3/2 581/3/2 583/3/2
f 582/4/2 583/4/2 585/4/2
f 585/4/2 583/4/2 586/4/2
f 584/4/2 585/4/2 588/4/2
f 588/4/2 585/4/2 589/4/2
f 586/4/2 587/4/2 590/4/2
f 590/4/2 587/4/2 591/4/2
f 592/4/2 593/4/2 594/4/2
f 594/4/2 593/4/2 595/4/2
f 596/4/2 597/4/2 598/4/2
f 598/4/2 597/4/2 599/4/2
f 600/1/2 601/1/2 604/1/2
f 604/1/2 601/1/2 605/1/2
f 604/2/2 605/2/2 606/2/2
f 606/2/2 605/2/2 607/2/2
f 602/1/2 603/1/2 608/1/2
f 608/1/2 603/1/2 609/1/2
f 608/2/2 609/2/2 610/2/2
f 610/2/2 609/2/2 611/2/2
f 606/1/2 607/1/2 612/1/2
f 612/1/2 607/1/2 613/1/2
f 610/1/2 611/1/2 614/1/2
f 614/1/2 611/1/2 615/1/2
f 616/4/2 617/4/2 620/4/2
f 620/4/2 617/4/2 621/4/2
f 618/4/2 619/4/2 624/4/2
f 624/4/2 619/4/2 625/4/2
f 621/4/2 622/4/2 626/4/2
f 626/4/2 622/4/2 627/4/2
f 623/4/2 624/4/2 628/4/2
f 628/4/2 624/4/2 629/4/2
f 626/3/2 627/3/2 630/3/2
f 630/3/2 627/3/2 631/3/2
f 628/3/2 629/3/2 632/3/2
f 632/3/2 629/3/2 633/3/2
f 634/3/2 635/3/2 638/3/2
f 638/3/2 635/3/2 639/3/2
f 636/3/2 637/3/2 640/3/2
f 640/3/2 637/3/2 641/3/2
f 638/4/2 639/4/2 643/4/2
f 643/4/2 639/4/2 644/4/2
f 640/4/2 641/4/2 645/4/2
f 645/4/2 641/4/2 646/4/2
f 642/4/2 643/4/2 648/4/2
f 648/4/2 643/4/2 649/4/2
f 646/4/2 647/4/2 650/4/2
f 650/4/2 647/4/2 651/4/2
f 652/1/2 653/1/2 656/1/2
f 656/1/2 653/1/2 657/1/2
f 652/1/2 656/1/2 658/1/2
f 656/2/2 657/2/2 658/2/2
f 658/2/2 657/2/2 659/2/2
f 654/1/2 655/1/2 660/1/2
f 660/1/2 655/1/2 661/1/2
f 658/1/2 659/1/2 662/1/2
f 652/1/2 658/1/2 662/1/2
f 662/1/2 659/1/2 663/1/2
f 661/1/2 655/1/2 664/1/2
f 664/1/2 655/1/2 665/1/2
f 666/4/2 667/4/2 670/4/2
f 670/4/2 667/4/2 671/4/2
f 668/4/2 669/4/2 674/4/2
f 674/4/2 669/4/2 675/4/2
f 671/4/2 672/4/2 676/4/2
f 676/4/2 672/4/2 677/4/2
f 673/4/2 674/4/2 678/4/2
f 678/4/2 674/4/2 679/4/2
f 676/3/2 677/3/2 680/3/2
f 680/3/2 677/3/2 681/3/2
f 678/3/2 679/3/2 687/3/2
f 687/3/2 679/3/2 688/3/2
f 682/2/2 683/2/2 689/2/2
f 683/1/2 684/1/2 690/1/2
f 689/2/2 683/2/2 690/2/2
f 689/1/2 690/1/2 691/1/2
f 690/1/2 684/1/2 691/1/2
f 685/1/2 686/1/2 692/1/2
f 692/1/2 686/1/2 693/1/2
f 685/1/2 692/1/2 694/1/2
f 692/2/2 693/2/2 694/2/2
f 694/2/2 693/2/2 695/2/2
f 689/1/2 691/1/2 696/1/2
f 685/1/2 694/1/2 697/1/2
f 694/1/2 695/1/2 697/1/2
f 697/1/2 695/1/2 698/1/2
f 689/1/2 696/1/2 701/1/2
f 701/1/2 696/1/2 702/1/2
f 698/1/2 695/1/2 703/1/2
f 703/1/2 695/1/2 704/1/2
f 699/3/2 700/3/2 707/3/2
f 707/3/2 700/3/2 708/3/2
f 705/3/2 706/3/2 709/3/2
f 709/3/2 706/3/2 710/3/2
f 707/4/2 708/4/2 712/4/2
f 712/4/2 708/4/2 713/4/2
f 709/4/2 710/4/2 714/4/2
f 714/4/2 710/4/2 715/4/2
f 711/4/2 712/4/2 717/4/2
f 717/4/2 712/4/2 718/4/2
f 715/4/2 716/4/2 719/4/2
f 719/4/2 716/4/2 720/4/2
f 721/4/2 722/4/2 725/4/2
f 725/4/2 722/4/2 726/4/2
f 723/4/2 724/4/2 729/4/2
f 729/4/2 724/4/2 730/4/2
f 726/4/2 727/4/2 731/4/2
f 731/4/2 727/4/2 732/4/2
f 728/4/2 729/4/2 733/4/2
f 733/4/2 729/4/2 734/4/2
f 731/3/2 732/3/2 735/3/2
f 735/3/2 732/3/2 736/3/2
f 733/3/2 734/3/2 739/3/2
f 739/3/2 734/3/2 740/3/2
f 737/1/2 738/1/2 741/1/2
f 741/1/2 738/1/2 742/1/2
f 741/2/2 742/2/2 743/2/2
f 742/1/2 738/1/2 743/1/2
f 743/1/2 738/1/2 744/1/2
f 741/2/2 743/2/2 745/2/2
f 743/2/2 744/2/2 745/2/2
f 745/2/2 744/2/2 746/2/2
f 744/1/2 738/1/2 747/1/2
f 746/2/2 744/2/2 747/2/2
f 747/1/2 738/1/2 748/1/2
f 745/1/2 746/1/2 749/1/2
f 746/2/2 747/2/2 749/2/2
f 747/2/2 748/2/2 749/2/2
f 749/2/2 748/2/2 750/2/2
f 745/1/2 749/1/2 753/1/2
f 749/1/2 750/1/2 753/1/2
f 753/1/2 750/1/2 754/1/2
f 751/3/2 752/3/2 757/3/2
f 757/3/2 752/3/2 758/3/2
f 755/3/2 756/3/2 759/3/2
f 759/3/2 756/3/2 760/3/2
f 757/4/2 758/4/2 762/4/2
f 762/4/2 758/4/2 763/4/2
f 759/4/2 760/4/2 764/4/2
f 764/4/2 760/4/2 765/4/2
f 761/4/2 762/4/2 767/4/2
f 767/4/2 762/4/2 768/4/2
f 765/4/2 766/4/2 769/4/2
f 769/4/2 766/4/2 770/4/2
f 771/4/2 772/4/2 775/4/2
f 775/4/2 772/4/2 776/4/2
f 773/4/2 774/4/2 777/4/2
f 777/4/2 774/4/2 778/4/2
f 776/4/2 777/4/2 779/4/2
f 779/4/2 777/4/2 780/4/2
f 779/3/2 780/3/2 781/3/2
f 781/3/2 780/3/2 782/3/2
f 783/3/2 784/3/2 785/3/2
f 785/3/2 784/3/2 786/3/2
f 785/4/2 786/4/2 788/4/2
f 788/4/2 786/4/2 789/4/2
f 787/4/2 788/4/2 791/4/2
f 791/4/2 788/4/2 792/4/2
f 789/4/2 790/4/2 793/4/2
f 793/4/2 790/4/2 794/4/2
f 795/4/2 796/4/2 797/4/2
f 797/4/2 796/4/2 798/4/2
f 799/4/2 800/4/2 801/4/2
f 801/4/2 800/4/2 802/4/2
f 807/4/3 804/4/3 803/4/3
f 808/4/3 804/4/3 807/4/3
f 809/4/3 806/4/3 805/4/3
f 810/4/3 806/4/3 809/4/3
f 815/4/3 812/4/3 811/4/3
f 816/4/3 812/4/3 815/4/3
f 817/4/3 814/4/3 813/4/3
f 818/4/3 814/4/3 817/4/3
f 823/4/3 820/4/3 819/4/3
f 824/4/3 820/4/3 823/4/3
f 829/4/3 822/4/3 821/4/3
f 830/4/3 822/4/3 829/4/3
f 832/4/3 825/4/3 824/4/3
f 833/3/3 826/3/3 825/3/3
f 833/4/3 825/4/3 832/4/3
f 834/3/3 826/3/3 833/3/3
f 835/3/3 828/3/3 827/3/3
f 836/4/3 829/4/3 828/4/3
f 836/3/3 828/3/3 835/3/3
f 837/4/3 829/4/3 836/4/3
f 839/4/3 832/4/3 831/4/3
f 840/4/3 832/4/3 839/4/3
f 841/4/3 838/4/3 837/4/3
f 842/4/3 838/4/3 841/4/3
f 847/4/3 844/4/3 843/4/3
f 848/4/3 844/4/3 847/4/3
f 853/4/3 846/4/3 845/4/3
f 854/4/3 846/4/3 853/4/3
f 856/4/3 849/4/3 848/4/3
f 857/3/3 850/3/3 849/3/3
f 857/4/3 849/4/3 856/4/3
f 858/3/3 850/3/3 857/3/3
f 859/3/3 852/3/3 851/3/3
f 860/4/3 853/4/3 852/4/3
f 860/3/3 852/3/3 859/3/3
f 861/4/3 853/4/3 860/4/3
f 863/4/3 856/4/3 855/4/3
f 864/4/3 856/4/3 863/4/3
f 865/4/3 862/4/3 861/4/3
f 866/4/3 862/4/3 865/4/3
f 871/4/3 868/4/3 867/4/3
f 872/4/3 868/4/3 871/4/3
f 877/4/3 870/4/3 869/4/3
f 878/4/3 870/4/3 877/4/3
f 879/4/3 873/4/3 872/4/3
f 880/3/3 874/3/3 873/3/3
f 880/4/3 873/4/3 879/4/3
f 881/3/3 874/3/3 880/3/3
f 882/3/3 876/3/3 875/3/3
f 883/4/3 877/4/3 876/4/3
f 883/3/3 876/3/3 882/3/3
f 884/4/3 877/4/3 883/4/3
f 887/1/3 886/1/3 885/1/3
f 888/1/3 886/1/3 887/1/3
f 889/1/3 887/1/3 885/1/3
f 890/2/3 888/2/3 887/2/3
f 890/1/3 887/1/3 889/1/3
f 891/1/3 889/1/3 885/1/3
f 892/2/3 890/2/3 889/2/3
f 892/1/3 889/1/3 891/1/3
f 893/1/3 886/1/3 888/1/3
f 893/2/3 890/2/3 892/2/3
f 893/2/3 888/2/3 890/2/3
f 894/1/3 886/1/3 893/1/3
f 902/4/3 896/4/3 895/4/3
f 903/3/3 897/3/3 896/3/3
f 903/4/3 896/4/3 902/4/3
f 904/3/3 897/3/3 903/3/3
f 905/3/3 899/3/3 898/3/3
f 906/4/3 900/4/3 899/4/3
f 906/3/3 899/3/3 905/3/3
f 907/4/3 900/4/3 906/4/3
f 909/4/3 902/4/3 901/4/3
f 910/4/3 902/4/3 909/4/3
f 911/4/3 908/4/3 907/4/3
f 912/4/3 908/4/3 911/4/3
f 917/4/3 914/4/3 913/4/3
f 918/4/3 914/4/3 917/4/3
f 923/4/3 916/4/3 915/4/3
f 924/4/3 916/4/3 923/4/3
f 925/4/3 919/4/3 918/4/3
f 926/3/3 920/3/3 919/3/3
f 926/4/3 919/4/3 925/4/3
f 927/3/3 920/3/3 926/3/3
f 928/3/3 922/3/3 921/3/3
f 929/4/3 923/4/3 922/4/3
f 929/3/3 922/3/3 928/3/3
f 930/4/3 923/4/3 929/4/3
f 933/1/3 932/1/3 931/1/3
f 934/1/3 932/1/3 933/1/3
f 935/1/3 933/1/3 931/1/3
f 936/2/3 934/2/3 933/2/3
f 936/1/3 933/1/3 935/1/3
f 937/1/3 935/1/3 931/1/3
f 938/2/3 936/2/3 935/2/3
f 938/1/3 935/1/3 937/1/3
f 939/1/3 932/1/3 934/1/3
f 939/2/3 936/2/3 938/2/3
f 939/2/3 934/2/3 936/2/3
f 940/1/3 932/1/3 939/1/3
f 948/4/3 942/4/3 941/4/3
f 949/3/3 943/3/3 942/3/3
f 949/4/3 942/4/3 948/4/3
f 950/3/3 943/3/3 949/3/3
f 951/3/3 945/3/3 944/3/3
f 952/4/3 946/4/3 945/4/3
f 952/3/3 945/3/3 951/3/3
f 953/4/3 946/4/3 952/4/3
f 955/4/3 948/4/3 947/4/3
f 956/4/3 948/4/3 955/4/3
f 957/4/3 954/4/3 953/4/3
f 958/4/3 954/4/3 957/4/3
f 963/1/3 960/1/3 959/1/3
f 963/2/3 961/2/3 960/2/3
f 964/1/3 962/1/3 961/1/3
f 964/2/3 961/2/3 963/2/3
f 965/1/3 963/1/3 959/1/3
f 965/1/3 964/1/3 963/1/3
f 966/1/3 962/1/3 964/1/3
f 966/1/3 964/1/3 965/1/3
f 971/1/3 968/1/3 967/1/3
f 971/1/3 970/1/3 969/1/3
f 971/1/3 969/1/3 968/1/3
f 972/1/3 970/1/3 971/1/3
f 977/1/3 974/1/3 973/1/3
f 977/2/3 975/2/3 974/2/3
f 978/1/3 976/1/3 975/1/3
f 978/2/3 975/2/3 977/2/3
f 979/1/3 977/1/3 973/1/3
f 979/1/3 978/1/3 977/1/3
f 980/1/3 976/1/3 978/1/3
f 980/1/3 978/1/3 979/1/3
f 985/1/3 982/1/3 981/1/3
f 985/1/3 984/1/3 983/1/3
f 985/1/3 983/1/3 982/1/3
f 986/1/3 984/1/3 985/1/3
f 991/4/3 988/4/3 987/4/3
f 992/4/3 988/4/3 991/4/3
f 997/4/3 990/4/3 989/4/3
f 998/4/3 990/4/3 997/4/3
f 999/4/3 993/4/3 992/4/3
f 1000/3/3 994/3/3 993/3/3
f 1000/4/3 993/4/3 999/4/3
f 1001/3/3 994/3/3 1000/3/3
f 1002/3/3 996/3/3 995/3/3
f 1003/4/3 997/4/3 996/4/3
f 1003/3/3 996/3/3 1002/3/3
f 1004/4/3 997/4/3 1003/4/3
f 1012/4/3 1006/4/3 1005/4/3
f 1013/3/3 1007/3/3 1006/3/3
f 1013/4/3 1006/4/3 1012/4/3
f 1014/3/3 1007/3/3 1013/3/3
f 1015/3/3 1009/3/3 1008/3/3
f 1016/4/3 1010/4/3 1009/4/3
f 1016/3/3 1009/3/3 1015/3/3
f 1017/4/3 1010/4/3 1016/4/3
f 1019/4/3 1012/4/3 1011/4/3
f 1020/4/3 1012/4/3 1019/4/3
f 1021/4/3 1018/4/3 1017/4/3
f 1022/4/3 1018/4/3 1021/4/3
f 1027/4/3 1024/4/3 1023/4/3
f 1028/4/3 1024/4/3 1027/4/3
f 1033/4/3 1026/4/3 1025/4/3
f 1034/4/3 1026/4/3 1033/4/3
f 1035/4/3 1029/4/3 1028/4/3
f 1036/3/3 1030/3/3 1029/3/3
f 1036/4/3 1029/4/3 1035/4/3
f 1037/3/3 1030/3/3 1036/3/3
f 1038/3/3 1032/3/3 1031/3/3
f 1039/4/3 1033/4/3 1032/4/3
f 1039/3/3 1032/3/3 1038/3/3
f 1040/4/3 1033/4/3 1039/4/3
f 1048/4/3 1042/4/3 1041/4/3
f 1049/3/3 1043/3/3 1042/3/3
f 1049/4/3 1042/4/3 1048/4/3
f 1050/3/3 1043/3/3 1049/3/3
f 1051/3/3 1045/3/3 1044/3/3
f 1052/4/3 1046/4/3 1045/4/3
f 1052/3/3 1045/3/3 1051/3/3
f 1053/4/3 1046/4/3 1052/4/3
f 1055/4/3 1048/4/3 1047/4/3
f 1056/4/3 1048/4/3 1055/4/3
f 1057/4/3 1054/4/3 1053/4/3
f 1058/4/3 1054/4/3 1057/4/3
f 1061/1/3 1060/1/3 1059/1/3
f 1062/1/3 1060/1/3 1061/1/3
f 1063/1/3 1060/1/3 1062/1/3
f 1064/1/3 1060/1/3 1063/1/3
f 1069/2/3 1066/2/3 1065/2/3
f 1069/2/3 1067/2/3 1066/2/3
f 1070/1/3 1068/1/3 1067/1/3
f 1070/2/3 1067/2/3 1069/2/3
f 1071/1/3 1068/1/3 1070/1/3
f 1074/1/3 1073/1/3 1072/1/3
f 1075/1/3 1073/1/3 1074/1/3
f 1076/1/3 1073/1/3 1075/1/3
f 1077/1/3 1073/1/3 1076/1/3
f 1082/2/3 1079/2/3 1078/2/3
f 1082/2/3 1080/2/3 1079/2/3
f 1083/1/3 1081/1/3 1080/1/3
f 1083/2/3 1080/2/3 1082/2/3
f 1084/1/3 1081/1/3 1083/1/3
f 1089/4/3 1086/4/3 1085/4/3
f 1090/4/3 1086/4/3 1089/4/3
f 1095/4/3 1088/4/3 1087/4/3
f 1096/4/3 1088/4/3 1095/4/3
f 1097/4/3 1091/4/3 1090/4/3
f 1098/3/3 1092/3/3 1091/3/3
f 1098/4/3 1091/4/3 1097/4/3
f 1099/3/3 1092/3/3 1098/3/3
f 1100/3/3 1094/3/3 1093/3/3
f 1101/4/3 1095/4/3 1094/4/3
f 1101/3/3 1094/3/3 1100/3/3
f 1102/4/3 1095/4/3 1101/4/3
f 1110/4/3 1104/4/3 1103/4/3
f 1111/3/3 1105/3/3 1104/3/3
f 1111/4/3 1104/4/3 1110/4/3
f 1112/3/3 1105/3/3 1111/3/3
f 1113/3/3 1107/3/3 1106/3/3
f 1114/4/3 1108/4/3 1107/4/3
f 1114/3/3 1107/3/3 1113/3/3
f 1115/4/3 1108/4/3 1114/4/3
f 1117/4/3 1110/4/3 1109/4/3
f 1118/4/3 1110/4/3 1117/4/3
f 1119/4/3 1116/4/3 1115/4/3
f 1120/4/3 1116/4/3 1119/4/3
f 1125/4/3 1122/4/3 1121/4/3
f 1126/4/3 1122/4/3 1125/4/3
f 1131/4/3 1124/4/3 1123/4/3
f 1132/4/3 1124/4/3 1131/4/3
f 1133/4/3 1127/4/3 1126/4/3
f 1134/3/3 1128/3/3 1127/3/3
f 1134/4/3 1127/4/3 1133/4/3
f 1135/3/3 1128/3/3 1134/3/3
f 1136/3/3 1130/3/3 1129/3/3
f 1137/4/3 1131/4/3 1130/4/3
f 1137/3/3 1130/3/3 1136/3/3
f 1138/4/3 1131/4/3 1137/4/3
f 1146/4/3 1140/4/3 1139/4/3
f 1147/3/3 1141/3/3 1140/3/3
f 1147/4/3 1140/4/3 1146/4/3
f 1148/3/3 1141/3/3 1147/3/3
f 1149/3/3 1143/3/3 1142/3/3
f 1150/4/3 1144/4/3 1143/4/3
f 1150/3/3 1143/3/3 1149/3/3
f 1151/4/3 1144/4/3 1150/4/3
f 1153/4/3 1146/4/3 1145/4/3
f 1154/4/3 1146/4/3 1153/4/3
f 1155/4/3 1152/4/3 1151/4/3
f 1156/4/3 1152/4/3 1155/4/3
f 1159/1/3 1158/1/3 1157/1/3
f 1160/1/3 1158/1/3 1159/1/3
f 1165/1/3 1162/1/3 1161/1/3
f 1166/2/3 1163/2/3 1162/2/3
f 1166/1/3 1162/1/3 1165/1/3
f 1167/1/3 1164/1/3 1163/1/3
f 1167/2/3 1163/2/3 1166/2/3
f 1168/1/3 1164/1/3 1167/1/3
f 1171/1/3 1170/1/3 1169/1/3
f 1172/1/3 1170/1/3 1171/1/3
f 1177/1/3 1174/1/3 1173/1/3
f 1178/2/3 1175/2/3 1174/2/3
f 1178/1/3 1174/1/3 1177/1/3
f 1179/1/3 1176/1/3 1175/1/3
f 1179/2/3 1175/2/3 1178/2/3
f 1180/1/3 1176/1/3 1179/1/3
f 1181/1/4 1182/1/4 1185/1/4
f 1185/1/4 1182/1/4 1186/1/4
f 1182/2/4 1183/2/4 1187/2/4
f 1186/1/4 1182/1/4 1187/1/4
f 1187/2/4 1183/2/4 1188/2/4
f 1183/1/4 1184/1/4 1189/1/4
f 1188/2/4 1183/2/4 1189/2/4
f 1189/1/4 1184/1/4 1190/1/4
f 1191/1/4 1192/1/4 1195/1/4
f 1192/2/4 1193/2/4 1196/2/4
f 1195/1/4 1192/1/4 1196/1/4
f 1193/1/4 1194/1/4 1197/1/4
f 1196/2/4 1193/2/4 1197/2/4
f 1197/1/4 1194/1/4 1198/1/4
f 1199/1/4 1200/1/4 1203/1/4
f 1203/1/4 1200/1/4 1204/1/4
f 1200/2/4 1201/2/4 1205/2/4
f 1204/1/4 1200/1/4 1205/1/4
f 1205/2/4 1201/2/4 1206/2/4
f 1201/1/4 1202/1/4 1207/1/4
f 1206/2/4 1201/2/4 1207/2/4
f 1207/1/4 1202/1/4 1208/1/4
f 1209/1/4 1210/1/4 1213/1/4
f 1210/2/4 1211/2/4 1214/2/4
f 1213/1/4 1210/1/4 1214/1/4
f 1211/1/4 1212/1/4 1215/1/4
f 1214/2/4 1211/2/4 1215/2/4
f 1215/1/4 1212/1/4 1216/1/4
f 1217/4/4 1218/4/4 1221/4/4
f 1221/4/4 1218/4/4 1222/4/4
f 1219/4/4 1220/4/4 1227/4/4
f 1227/4/4 1220/4/4 1228/4/4
f 1222/4/4 1223/4/4 1229/4/4
f 1223/3/4 1224/3/4 1230/3/4
f 1229/4/4 1223/4/4 1230/4/4
f 1230/3/4 1224/3/4 1231/3/4
f 1225/3/4 1226/3/4 1232/3/4
f 1226/4/4 1227/4/4 1233/4/4
f 1232/3/4 1226/3/4 1233/3/4
f 1233/4/4 1227/4/4 1234/4/4
f 1235/4/4 1236/4/4 1242/4/4
f 1236/3/4 1237/3/4 1243/3/4
f 1242/4/4 1236/4/4 1243/4/4
f 1243/3/4 1237/3/4 1244/3/4
f 1238/3/4 1239/3/4 1245/3/4
f 1239/4/4 1240/4/4 1246/4/4
f 1245/3/4 1239/3/4 1246/3/4
f 1246/4/4 1240/4/4 1247/4/4
f 1241/4/4 1242/4/4 1249/4/4
f 1249/4/4 1242/4/4 1250/4/4
f 1247/4/4 1248/4/4 1251/4/4
f 1251/4/4 1248/4/4 1252/4/4
f 1253/4/4 1254/4/4 1257/4/4
f 1257/4/4 1254/4/4 1258/4/4
f 1255/4/4 1256/4/4 1263/4/4
f 1263/4/4 1256/4/4 1264/4/4
f 1258/4/4 1259/4/4 1265/4/4
f 1259/3/4 1260/3/4 1266/3/4
f 1265/4/4 1259/4/4 1266/4/4
f 1266/3/4 1260/3/4 1267/3/4
f 1261/3/4 1262/3/4 1268/3/4
f 1262/4/4 1263/4/4 1269/4/4
f 1268/3/4 1262/3/4 1269/3/4
f 1269/4/4 1263/4/4 1270/4/4
f 1271/4/4 1272/4/4 1278/4/4
f 1272/3/4 1273/3/4 1279/3/4
f 1278/4/4 1272/4/4 1279/4/4
f 1279/3/4 1273/3/4 1280/3/4
f 1274/3/4 1275/3/4 1281/3/4
f 1275/4/4 1276/4/4 1282/4/4
f 1281/3/4 1275/3/4 1282/3/4
f 1282/4/4 1276/4/4 1283/4/4
f 1277/4/4 1278/4/4 1285/4/4
f 1285/4/4 1278/4/4 1286/4/4
f 1283/4/4 1284/4/4 1287/4/4
f 1287/4/4 1284/4/4 1288/4/4
f 1289/1/4 1290/1/4 1291/1/4
f 1291/1/4 1290/1/4 1292/1/4
f 1292/1/4 1290/1/4 1293/1/4
f 1293/1/4 1290/1/4 1294/1/4
f 1295/1/4 1296/1/4 1299/1/4
f 1296/2/4 1297/2/4 1300/2/4
f 1299/1/4 1296/1/4 1300/1/4
f 1297/1/4 1298/1/4 1301/1/4
f 1300/2/4 1297/2/4 1301/2/4
f 1301/1/4 1298/1/4 1302/1/4
f 1303/1/4 1304/1/4 1305/1/4
f 1305/1/4 1304/1/4 1306/1/4
f 1306/1/4 1304/1/4 1307/1/4
f 1307/1/4 1304/1/4 1308/1/4
f 1309/1/4 1310/1/4 1313/1/4
f 1310/2/4 1311/2/4 1314/2/4
f 1313/1/4 1310/1/4 1314/1/4
f 1311/1/4 1312/1/4 1315/1/4
f 1314/2/4 1311/2/4 1315/2/4
f 1315/1/4 1312/1/4 1316/1/4
f 1317/4/4 1318/4/4 1321/4/4
f 1321/4/4 1318/4/4 1322/4/4
f 1319/4/4 1320/4/4 1327/4/4
f 1327/4/4 1320/4/4 1328/4/4
f 1322/4/4 1323/4/4 1329/4/4
f 1323/3/4 1324/3/4 1330/3/4
f 1329/4/4 1323/4/4 1330/4/4
f 1330/3/4 1324/3/4 1331/3/4
f 1325/3/4 1326/3/4 1332/3/4
f 1326/4/4 1327/4/4 1333/4/4
f 1332/3/4 1326/3/4 1333/3/4
f 1333/4/4 1327/4/4 1334/4/4
f 1335/4/4 1336/4/4 1342/4/4
f 1336/3/4 1337/3/4 1343/3/4
f 1342/4/4 1336/4/4 1343/4/4
f 1343/3/4 1337/3/4 1344/3/4
f 1338/3/4 1339/3/4 1345/3/4
f 1339/4/4 1340/4/4 1346/4/4
f 1345/3/4 1339/3/4 1346/3/4
f 1346/4/4 1340/4/4 1347/4/4
f 1341/4/4 1342/4/4 1349/4/4
f 1349/4/4 1342/4/4 1350/4/4
f 1347/4/4 1348/4/4 1351/4/4
f 1351/4/4 1348/4/4 1352/4/4
f 1353/4/4 1354/4/4 1357/4/4
f 1357/4/4 1354/4/4 1358/4/4
f 1355/4/4 1356/4/4 1363/4/4
f 1363/4/4 1356/4/4 1364/4/4
f 1358/4/4 1359/4/4 1365/4/4
f 1359/3/4 1360/3/4 1366/3/4
f 1365/4/4 1359/4/4 1366/4/4
f 1366/3/4 1360/3/4 1367/3/4
f 1361/3/4 1362/3/4 1368/3/4
f 1362/4/4 1363/4/4 1369/4/4
f 1368/3/4 1362/3/4 1369/3/4
f 1369/4/4 1363/4/4 1370/4/4
f 1371/4/4 1372/4/4 1378/4/4
f 1372/3/4 1373/3/4 1379/3/4
f 1378/4/4 1372/4/4 1379/4/4
f 1379/3/4 1373/3/4 1380/3/4
f 1374/3/4 1375/3/4 1381/3/4
f 1375/4/4 1376/4/4 1382/4/4
f 1381/3/4 1375/3/4 1382/3/4
f 1382/4/4 1376/4/4 1383/4/4
f 1377/4/4 1378/4/4 1385/4/4
f 1385/4/4 1378/4/4 1386/4/4
f 1383/4/4 1384/4/4 1387/4/4
f 1387/4/4 1384/4/4 1388/4/4
f 1390/2/4 1391/2/4 1393/2/4
f 1391/1/4 1392/1/4 1394/1/4
f 1393/2/4 1391/2/4 1394/2/4
f 1389/1/4 1390/1/4 1395/1/4
f 1390/2/4 1393/2/4 1396/2/4
f 1395/1/4 1390/1/4 1396/1/4
f 1393/1/4 1394/1/4 1397/1/4
f 1396/2/4 1393/2/4 1397/2/4
f 1394/1/4 1392/1/4 1398/1/4
f 1397/1/4 1394/1/4 1398/1/4
f 1399/1/4 1400/1/4 1403/1/4
f 1401/1/4 1402/1/4 1403/1/4
f 1400/1/4 1401/1/4 1403/1/4
f 1403/1/4 1402/1/4 1404/1/4
f 1406/2/4 1407/2/4 1409/2/4
f 1407/1/4 1408/1/4 1410/1/4
f 1409/2/4 1407/2/4 1410/2/4
f 1405/1/4 1406/1/4 1411/1/4
f 1406/2/4 1409/2/4 1412/2/4
f 1411/1/4 1406/1/4 1412/1/4
f 1409/1/4 1410/1/4 1413/1/4
f 1412/2/4 1409/2/4 1413/2/4
f 1410/1/4 1408/1/4 1414/1/4
f 1413/1/4 1410/1/4 1414/1/4
f 1415/1/4 1416/1/4 1419/1/4
f 1417/1/4 1418/1/4 1419/1/4
f 1416/1/4 1417/1/4 1419/1/4
f 1419/1/4 1418/1/4 1420/1/4
f 1421/4/4 1422/4/4 1425/4/4
f 1425/4/4 1422/4/4 1426/4/4
f 1423/4/4 1424/4/4 1431/4/4
f 1431/4/4 1424/4/4 1432/4/4
f 1426/4/4 1427/4/4 1433/4/4
f 1427/3/4 1428/3/4 1434/3/4
f 1433/4/4 1427/4/4 1434/4/4
f 1434/3/4 1428/3/4 1435/3/4
f 1429/3/4 1430/3/4 1436/3/4
f 1430/4/4 1431/4/4 1437/4/4
f 1436/3/4 1430/3/4 1437/3/4
f 1437/4/4 1431/4/4 1438/4/4
f 1439/1/4 1440/1/4 1441/1/4
f 1441/1/4 1440/1/4 1442/1/4
f 1439/1/4 1441/1/4 1443/1/4
f 1441/2/4 1442/2/4 1444/2/4
f 1443/1/4 1441/1/4 1444/1/4
f 1444/2/4 1442/2/4 1445/2/4
f 1442/1/4 1440/1/4 1446/1/4
f 1445/2/4 1442/2/4 1446/2/4
f 1439/1/4 1443/1/4 1447/1/4
f 1444/2/4 1445/2/4 1448/2/4
f 1447/1/4 1443/1/4 1448/1/4
f 1443/2/4 1444/2/4 1448/2/4
f 1445/1/4 1446/1/4 1449/1/4
f 1448/2/4 1445/2/4 1449/2/4
f 1446/1/4 1440/1/4 1450/1/4
f 1449/1/4 1446/1/4 1450/1/4
f 1451/4/4 1452/4/4 1458/4/4
f 1452/3/4 1453/3/4 1459/3/4
f 1458/4/4 1452/4/4 1459/4/4
f 1459/3/4 1453/3/4 1460/3/4
f 1454/3/4 1455/3/4 1461/3/4
f 1455/4/4 1456/4/4 1462/4/4
f 1461/3/4 1455/3/4 1462/3/4
f 1462/4/4 1456/4/4 1463/4/4
f 1457/4/4 1458/4/4 1465/4/4
f 1465/4/4 1458/4/4 1466/4/4
f 1463/4/4 1464/4/4 1467/4/4
f 1467/4/4 1464/4/4 1468/4/4
f 1469/4/4 1470/4/4 1473/4/4
f 1473/4/4 1470/4/4 1474/4/4
f 1471/4/4 1472/4/4 1479/4/4
f 1479/4/4 1472/4/4 1480/4/4
f 1474/4/4 1475/4/4 1481/4/4
f 1475/3/4 1476/3/4 1482/3/4
f 1481/4/4 1475/4/4 1482/4/4
f 1482/3/4 1476/3/4 1483/3/4
f 1477/3/4 1478/3/4 1484/3/4
f 1478/4/4 1479/4/4 1485/4/4
f 1484/3/4 1478/3/4 1485/3/4
f 1485/4/4 1479/4/4 1486/4/4
f 1487/1/4 1488/1/4 1489/1/4
f 1489/1/4 1488/1/4 1490/1/4
f 1487/1/4 1489/1/4 1491/1/4
f 1489/2/4 1490/2/4 1492/2/4
f 1491/1/4 1489/1/4 1492/1/4
f 1492/2/4 1490/2/4 1493/2/4
f 1490/1/4 1488/1/4 1494/1/4
f 1493/2/4 1490/2/4 1494/2/4
f 1487/1/4 1491/1/4 1495/1/4
f 1492/2/4 1493/2/4 1496/2/4
f 1495/1/4 1491/1/4 1496/1/4
f 1491/2/4 1492/2/4 1496/2/4
f 1493/1/4 1494/1/4 1497/1/4
f 1496/2/4 1493/2/4 1497/2/4
f 1494/1/4 1488/1/4 1498/1/4
f 1497/1/4 1494/1/4 1498/1/4
f 1499/4/4 1500/4/4 1506/4/4
f 1500/3/4 1501/3/4 1507/3/4
f 1506/4/4 1500/4/4 1507/4/4
f 1507/3/4 1501/3/4 1508/3/4
f 1502/3/4 1503/3/4 1509/3/4
f 1503/4/4 1504/4/4 1510/4/4
f 1509/3/4 1503/3/4 1510/3/4
f 1510/4/4 1504/4/4 1511/4/4
f 1505/4/4 1506/4/4 1513/4/4
f 1513/4/4 1506/4/4 1514/4/4
f 1511/4/4 1512/4/4 1515/4/4
f 1515/4/4 1512/4/4 1516/4/4
f 1517/4/4 1518/4/4 1521/4/4
f 1521/4/4 1518/4/4 1522/4/4
f 1519/4/4 1520/4/4 1527/4/4
f 1527/4/4 1520/4/4 1528/4/4
f 1522/4/4 1523/4/4 1530/4/4
f 1523/3/4 1524/3/4 1531/3/4
f 1530/4/4 1523/4/4 1531/4/4
f 1531/3/4 1524/3/4 1532/3/4
f 1525/3/4 1526/3/4 1533/3/4
f 1526/4/4 1527/4/4 1534/4/4
f 1533/3/4 1526/3/4 1534/3/4
f 1534/4/4 1527/4/4 1535/4/4
f 1529/4/4 1530/4/4 1537/4/4
f 1537/4/4 1530/4/4 1538/4/4
f 1535/4/4 1536/4/4 1539/4/4
f 1539/4/4 1536/4/4 1540/4/4
f 1541/4/4 1542/4/4 1545/4/4
f 1545/4/4 1542/4/4 1546/4/4
f 1543/4/4 1544/4/4 1551/4/4
f 1551/4/4 1544/4/4 1552/4/4
f 1546/4/4 1547/4/4 1554/4/4
f 1547/3/4 1548/3/4 1555/3/4
f 1554/4/4 1547/4/4 1555/4/4
f 1555/3/4 1548/3/4 1556/3/4
f 1549/3/4 1550/3/4 1557/3/4
f 1550/4/4 1551/4/4 1558/4/4
f 1557/3/4 1550/3/4 1558/3/4
f 1558/4/4 1551/4/4 1559/4/4
f 1553/4/4 1554/4/4 1561/4/4
f 1561/4/4 1554/4/4 1562/4/4
f 1559/4/4 1560/4/4 1563/4/4
f 1563/4/4 1560/4/4 1564/4/4
f 1565/4/4 1566/4/4 1569/4/4
f 1569/4/4 1566/4/4 1570/4/4
f 1567/4/4 1568/4/4 1571/4/4
f 1571/4/4 1568/4/4 1572/4/4
f 1573/4/4 1574/4/4 1577/4/4
f 1577/4/4 1574/4/4 1578/4/4
f 1575/4/4 1576/4/4 1579/4/4
f 1579/4/4 1576/4/4 1580/4/4
f 1586/4/5 1582/4/5 1581/4/5
f 1587/4/5 1582/4/5 1586/4/5
f 1590/4/5 1584/4/5 1583/4/5
f 1591/4/5 1584/4/5 1590/4/5
f 1594/4/5 1588/4/5 1587/4/5
f 1594/4/5 1586/4/5 1585/4/5
f 1594/4/5 1587/4/5 1586/4/5
f 1595/4/5 1588/4/5 1594/4/5
f 1598/4/5 1592/4/5 1591/4/5
f 1598/4/5 1591/4/5 1590/4/5
f 1598/4/5 1590/4/5 1589/4/5
f 1599/4/5 1592/4/5 1598/4/5
f 1602/4/5 1596/4/5 1595/4/5
f 1602/4/5 1595/4/5 1594/4/5
f 1602/4/5 1594/4/5 1593/4/5
f 1603/4/5 1596/4/5 1602/4/5
f 1606/4/5 1600/4/5 1599/4/5
f 1606/4/5 1599/4/5 1598/4/5
f 1606/4/5 1598/4/5 1597/4/5
f 1607/4/5 1600/4/5 1606/4/5
f 1610/4/5 1604/4/5 1603/4/5
f 1610/4/5 1603/4/5 1602/4/5
f 1610/4/5 1602/4/5 1601/4/5
f 1611/4/5 1604/4/5 1610/4/5
f 1614/4/5 1608/4/5 1607/4/5
f 1614/4/5 1607/4/5 1606/4/5
f 1614/4/5 1606/4/5 1605/4/5
f 1615/4/5 1608/4/5 1614/4/5
f 1617/4/5 1612/4/5 1611/4/5
f 1617/4/5 1611/4/5 1610/4/5
f 1617/4/5 1610/4/5 1609/4/5
f 1618/4/5 1612/4/5 1617/4/5
f 1619/4/5 1612/4/5 1618/4/5
f 1620/4/5 1612/4/5 1619/4/5
f 1621/4/5 1616/4/5 1615/4/5
f 1621/4/5 1615/4/5 1614/4/5
f 1621/4/5 1614/4/5 1613/4/5
f 1622/4/5 1616/4/5 1621/4/5
f 1623/4/5 1616/4/5 1622/4/5
f 1624/4/5 1616/4/5 1623/4/5
f 1625/4/5 1619/4/5 1618/4/5
f 1626/4/5 1619/4/5 1625/4/5
f 1627/4/5 1619/4/5 1626/4/5
f 1628/4/5 1619/4/5 1627/4/5
f 1629/4/5 1623/4/5 1622/4/5
f 1630/4/5 1623/4/5 1629/4/5
f 1631/4/5 1623/4/5 1630/4/5
f 1632/4/5 1623/4/5 1631/4/5
f 1633/4/5 1627/4/5 1626/4/5
f 1634/4/5 1627/4/5 1633/4/5
f 1635/4/5 1627/4/5 1634/4/5
f 1636/4/5 1627/4/5 1635/4/5
f 1637/4/5 1631/4/5 1630/4/5
f 1638/4/5 1631/4/5 1637/4/5
f 1639/4/5 1631/4/5 1638/4/5
f 1640/4/5 1631/4/5 1639/4/5
f 1641/4/5 1635/4/5 1634/4/5
f 1642/4/5 1635/4/5 1641/4/5
f 1643/4/5 1635/4/5 1642/4/5
f 1644/4/5 1635/4/5 1643/4/5
f 1645/4/5 1639/4/5 1638/4/5
f 1646/4/5 1639/4/5 1645/4/5
f 1647/4/5 1639/4/5 1646/4/5
f 1648/4/5 1639/4/5 1647/4/5
f 1649/4/5 1643/4/5 1642/4/5
f 1650/4/5 1643/4/5 1649/4/5
f 1651/4/5 1647/4/5 1646/4/5
f 1652/4/5 1647/4/5 1651/4/5
f 1658/3/5 1654/3/5 1653/3/5
f 1659/3/5 1654/3/5 1658/3/5
f 1660/3/5 1654/3/5 1659/3/5
f 1661/3/5 1654/3/5 1660/3/5
f 1664/3/5 1656/3/5 1655/3/5
f 1665/3/5 1656/3/5 1664/3/5
f 1666/3/5 1656/3/5 1665/3/5
f 1667/3/5 1656/3/5 1666/3/5
f 1669/3/5 1658/3/5 1657/3/5
f 1669/3/5 1659/3/5 1658/3/5
f 1670/3/5 1659/3/5 1669/3/5
f 1671/3/5 1662/3/5 1661/3/5
f 1671/3/5 1661/3/5 1660/3/5
f 1672/3/5 1662/3/5 1671/3/5
f 1673/3/5 1665/3/5 1664/3/5
f 1673/3/5 1664/3/5 1663/3/5
f 1674/3/5 1665/3/5 1673/3/5
f 1675/3/5 1668/3/5 1667/3/5
f 1675/3/5 1667/3/5 1666/3/5
f 1676/3/5 1668/3/5 1675/3/5
f 1678/3/5 1669/3/5 1657/3/5
f 1679/3/5 1662/3/5 1672/3/5
f 1682/3/5 1673/3/5 1663/3/5
f 1683/3/5 1668/3/5 1676/3/5
f 1685/3/5 1678/3/5 1677/3/5
f 1685/3/5 1669/3/5 1678/3/5
f 1686/3/5 1669/3/5 1685/3/5
f 1687/3/5 1680/3/5 1679/3/5
f 1687/3/5 1679/3/5 1672/3/5
f 1688/3/5 1680/3/5 1687/3/5
f 1689/3/5 1682/3/5 1681/3/5
f 1689/3/5 1673/3/5 1682/3/5
f 1690/3/5 1673/3/5 1689/3/5
f 1691/3/5 1684/3/5 1683/3/5
f 1691/3/5 1683/3/5 1676/3/5
f 1692/3/5 1684/3/5 1691/3/5
f 1694/3/5 1685/3/5 1677/3/5
f 1695/3/5 1680/3/5 1688/3/5
f 1698/3/5 1689/3/5 1681/3/5
f 1699/3/5 1684/3/5 1692/3/5
f 1701/3/5 1694/3/5 1693/3/5
f 1701/3/5 1685/3/5 1694/3/5
f 1702/3/5 1685/3/5 1701/3/5
f 1703/3/5 1696/3/5 1695/3/5
f 1703/3/5 1695/3/5 1688/3/5
f 1704/3/5 1696/3/5 1703/3/5
f 1705/3/5 1698/3/5 1697/3/5
f 1705/3/5 1689/3/5 1698/3/5
f 1706/3/5 1689/3/5 1705/3/5
f 1707/3/5 1700/3/5 1699/3/5
f 1707/3/5 1699/3/5 1692/3/5
f 1708/3/5 1700/3/5 1707/3/5
f 1709/3/5 1701/3/5 1693/3/5
f 1712/3/5 1696/3/5 1704/3/5
f 1713/3/5 1705/3/5 1697/3/5
f 1716/3/5 1700/3/5 1708/3/5
f 1717/3/5 1710/3/5 1709/3/5
f 1717/3/5 1709/3/5 1693/3/5
f 1718/3/5 1710/3/5 1717/3/5
f 1719/3/5 1712/3/5 1711/3/5
f 1719/3/5 1696/3/5 1712/3/5
f 1720/3/5 1696/3/5 1719/3/5
f 1721/3/5 1714/3/5 1713/3/5
f 1721/3/5 1713/3/5 1697/3/5
f 1722/3/5 1714/3/5 1721/3/5
f 1723/3/5 1716/3/5 1715/3/5
f 1723/3/5 1700/3/5 1716/3/5
f 1724/3/5 1700/3/5 1723/3/5
f 1725/3/5 1710/3/5 1718/3/5
f 1728/3/5 1719/3/5 1711/3/5
f 1729/3/5 1714/3/5 1722/3/5
f 1732/3/5 1723/3/5 1715/3/5
f 1733/3/5 1726/3/5 1725/3/5
f 1733/3/5 1725/3/5 1718/3/5
f 1734/3/5 1726/3/5 1733/3/5
f 1735/3/5 1728/3/5 1727/3/5
f 1735/3/5 1719/3/5 1728/3/5
f 1736/3/5 1719/3/5 1735/3/5
f 1737/3/5 1730/3/5 1729/3/5
f 1737/3/5 1729/3/5 1722/3/5
f 1738/3/5 1730/3/5 1737/3/5
f 1739/3/5 1732/3/5 1731/3/5
f 1739/3/5 1723/3/5 1732/3/5
f 1740/3/5 1723/3/5 1739/3/5
f 1741/3/5 1726/3/5 1734/3/5
f 1744/3/5 1735/3/5 1727/3/5
f 1745/3/5 1730/3/5 1738/3/5
f 1748/3/5 1739/3/5 1731/3/5
f 1749/3/5 1742/3/5 1741/3/5
f 1749/3/5 1741/3/5 1734/3/5
f 1750/3/5 1742/3/5 1749/3/5
f 1751/3/5 1742/3/5 1750/3/5
f 1752/3/5 1744/3/5 1743/3/5
f 1753/3/5 1744/3/5 1752/3/5
f 1754/3/5 1735/3/5 1744/3/5
f 1754/3/5 1744/3/5 1753/3/5
f 1755/3/5 1746/3/5 1745/3/5
f 1755/3/5 1745/3/5 1738/3/5
f 1756/3/5 1746/3/5 1755/3/5
f 1757/3/5 1746/3/5 1756/3/5
f 1758/3/5 1748/3/5 1747/3/5
f 1759/3/5 1748/3/5 1758/3/5
f 1760/3/5 1739/3/5 1748/3/5
f 1760/3/5 1748/3/5 1759/3/5
f 1761/3/5 1751/3/5 1750/3/5
f 1761/3/5 1753/3/5 1752/3/5
f 1761/3/5 1752/3/5 1751/3/5
f 1762/3/5 1753/3/5 1761/3/5
f 1763/3/5 1758/3/5 1757/3/5
f 1763/3/5 1757/3/5 1756/3/5
f 1763/3/5 1759/3/5 1758/3/5
f 1764/3/5 1759/3/5 1763/3/5
f 1770/4/5 1766/4/5 1765/4/5
f 1771/4/5 1766/4/5 1770/4/5
f 1774/4/5 1768/4/5 1767/4/5
f 1775/4/5 1768/4/5 1774/4/5
f 1778/4/5 1770/4/5 1769/4/5
f 1779/4/5 1770/4/5 1778/4/5
f 1780/4/5 1772/4/5 1771/4/5
f 1781/4/5 1772/4/5 1780/4/5
f 1784/4/5 1774/4/5 1773/4/5
f 1785/4/5 1774/4/5 1784/4/5
f 1786/4/5 1776/4/5 1775/4/5
f 1787/4/5 1776/4/5 1786/4/5
f 1790/4/5 1778/4/5 1777/4/5
f 1791/4/5 1778/4/5 1790/4/5
f 1792/4/5 1782/4/5 1781/4/5
f 1793/4/5 1782/4/5 1792/4/5
f 1796/4/5 1784/4/5 1783/4/5
f 1797/4/5 1784/4/5 1796/4/5
f 1798/4/5 1788/4/5 1787/4/5
f 1799/4/5 1788/4/5 1798/4/5
f 1802/4/5 1790/4/5 1789/4/5
f 1803/4/5 1790/4/5 1802/4/5
f 1804/4/5 1794/4/5 1793/4/5
f 1805/4/5 1794/4/5 1804/4/5
f 1808/4/5 1796/4/5 1795/4/5
f 1809/4/5 1796/4/5 1808/4/5
f 1810/4/5 1800/4/5 1799/4/5
f 1811/4/5 1800/4/5 1810/4/5
f 1813/4/5 1802/4/5 1801/4/5
f 1814/4/5 1802/4/5 1813/4/5
f 1817/4/5 1806/4/5 1805/4/5
f 1818/4/5 1806/4/5 1817/4/5
f 1819/4/5 1808/4/5 1807/4/5
f 1820/4/5 1808/4/5 1819/4/5
f 1823/4/5 1812/4/5 1811/4/5
f 1824/4/5 1812/4/5 1823/4/5
f 1825/4/5 1815/4/5 1814/4/5
f 1826/4/5 1815/4/5 1825/4/5
f 1829/4/5 1817/4/5 1816/4/5
f 1830/4/5 1817/4/5 1829/4/5
f 1831/4/5 1821/4/5 1820/4/5
f 1832/4/5 1821/4/5 1831/4/5
f 1835/4/5 1823/4/5 1822/4/5
f 1836/4/5 1823/4/5 1835/4/5
f 1837/4/5 1827/4/5 1826/4/5
f 1838/4/5 1827/4/5 1837/4/5
f 1841/4/5 1829/4/5 1828/4/5
f 1842/4/5 1829/4/5 1841/4/5
f 1843/4/5 1833/4/5 1832/4/5
f 1844/4/5 1833/4/5 1843/4/5
f 1847/4/5 1835/4/5 1834/4/5
f 1848/4/5 1835/4/5 1847/4/5
f 1849/4/5 1839/4/5 1838/4/5
f 1850/4/5 1839/4/5 1849/4/5
f 1851/4/5 1841/4/5 1840/4/5
f 1852/4/5 1841/4/5 1851/4/5
f 1853/4/5 1845/4/5 1844/4/5
f 1854/4/5 1845/4/5 1853/4/5
f 1855/4/5 1847/4/5 1846/4/5
f 1856/4/5 1847/4/5 1855/4/5
f 1857/4/5 1851/4/5 1850/4/5
f 1858/4/5 1851/4/5 1857/4/5
f 1859/4/5 1855/4/5 1854/4/5
f 1860/4/5 1855/4/5 1859/4/5
f 1861/4/6 1862/4/6 1866/4/6
f 1866/4/6 1862/4/6 1867/4/6
f 1863/4/6 1864/4/6 1870/4/6
f 1870/4/6 1864/4/6 1871/4/6
f 1865/4/6 1866/4/6 1874/4/6
f 1874/4/6 1866/4/6 1875/4/6
f 1867/4/6 1868/4/6 1876/4/6
f 1876/4/6 1868/4/6 1877/4/6
f 1869/4/6 1870/4/6 1880/4/6
f 1880/4/6 1870/4/6 1881/4/6
f 1871/4/6 1872/4/6 1882/4/6
f 1882/4/6 1872/4/6 1883/4/6
f 1873/4/6 1874/4/6 1886/4/6
f 1886/4/6 1874/4/6 1887/4/6
f 1877/4/6 1878/4/6 1888/4/6
f 1888/4/6 1878/4/6 1889/4/6
f 1879/4/6 1880/4/6 1892/4/6
f 1892/4/6 1880/4/6 1893/4/6
f 1883/4/6 1884/4/6 1894/4/6
f 1894/4/6 1884/4/6 1895/4/6
f 1885/4/6 1886/4/6 1898/4/6
f 1898/4/6 1886/4/6 1899/4/6
f 1889/4/6 1890/4/6 1900/4/6
f 1900/4/6 1890/4/6 1901/4/6
f 1891/4/6 1892/4/6 1904/4/6
f 1904/4/6 1892/4/6 1905/4/6
f 1895/4/6 1896/4/6 1906/4/6
f 1906/4/6 1896/4/6 1907/4/6
f 1897/4/6 1898/4/6 1909/4/6
f 1909/4/6 1898/4/6 1910/4/6
f 1901/4/6 1902/4/6 1913/4/6
f 1913/4/6 1902/4/6 1914/4/6
f 1903/4/6 1904/4/6 1915/4/6
f 1915/4/6 1904/4/6 1916/4/6
f 1907/4/6 1908/4/6 1919/4/6
f 1919/4/6 1908/4/6 1920/4/6
f 1910/4/6 1911/4/6 1921/4/6
f 1921/4/6 1911/4/6 1922/4/6
f 1912/4/6 1913/4/6 1925/4/6
f 1925/4/6 1913/4/6 1926/4/6
f 1916/4/6 1917/4/6 1927/4/6
f 1927/4/6 1917/4/6 1928/4/6
f 1918/4/6 1919/4/6 1931/4/6
f 1931/4/6 1919/4/6 1932/4/6
f 1922/4/6 1923/4/6 1933/4/6
f 1933/4/6 1923/4/6 1934/4/6
f 1924/4/6 1925/4/6 1937/4/6
f 1937/4/6 1925/4/6 1938/4/6
f 1928/4/6 1929/4/6 1939/4/6
f 1939/4/6 1929/4/6 1940/4/6
f 1930/4/6 1931/4/6 1943/4/6
f 1943/4/6 1931/4/6 1944/4/6
f 1934/4/6 1935/4/6 1945/4/6
f 1945/4/6 1935/4/6 1946/4/6
f 1936/4/6 1937/4/6 1947/4/6
f 1947/4/6 1937/4/6 1948/4/6
f 1940/4/6 1941/4/6 1949/4/6
f 1949/4/6 1941/4/6 1950/4/6
f 1942/4/6 1943/4/6 1951/4/6
f 1951/4/6 1943/4/6 1952/4/6
f 1946/4/6 1947/4/6 1953/4/6
f 1953/4/6 1947/4/6 1954/4/6
f 1950/4/6 1951/4/6 1955/4/6
f 1955/4/6 1951/4/6 1956/4/6
f 1957/3/6 1958/3/6 1962/3/6
f 1962/3/6 1958/3/6 1963/3/6
f 1963/3/6 1958/3/6 1964/3/6
f 1964/3/6 1958/3/6 1965/3/6
f 1959/3/6 1960/3/6 1968/3/6
f 1968/3/6 1960/3/6 1969/3/6
f 1969/3/6 1960/3/6 1970/3/6
f 1970/3/6 1960/3/6 1971/3/6
f 1961/3/6 1962/3/6 1973/3/6
f 1962/3/6 1963/3/6 1973/3/6
f 1973/3/6 1963/3/6 1974/3/6
f 1965/3/6 1966/3/6 1975/3/6
f 1964/3/6 1965/3/6 1975/3/6
f 1975/3/6 1966/3/6 1976/3/6
f 1968/3/6 1969/3/6 1977/3/6
f 1967/3/6 1968/3/6 1977/3/6
f 1977/3/6 1969/3/6 1978/3/6
f 1971/3/6 1972/3/6 1979/3/6
f 1970/3/6 1971/3/6 1979/3/6
f 1979/3/6 1972/3/6 1980/3/6
f 1961/3/6 1973/3/6 1982/3/6
f 1976/3/6 1966/3/6 1983/3/6
f 1967/3/6 1977/3/6 1986/3/6
f 1980/3/6 1972/3/6 1987/3/6
f 1981/3/6 1982/3/6 1989/3/6
f 1982/3/6 1973/3/6 1989/3/6
f 1989/3/6 1973/3/6 1990/3/6
f 1983/3/6 1984/3/6 1991/3/6
f 1976/3/6 1983/3/6 1991/3/6
f 1991/3/6 1984/3/6 1992/3/6
f 1985/3/6 1986/3/6 1993/3/6
f 1986/3/6 1977/3/6 1993/3/6
f 1993/3/6 1977/3/6 1994/3/6
f 1987/3/6 1988/3/6 1995/3/6
f 1980/3/6 1987/3/6 1995/3/6
f 1995/3/6 1988/3/6 1996/3/6
f 1981/3/6 1989/3/6 1998/3/6
f 1992/3/6 1984/3/6 1999/3/6
f 1999/3/6 1984/3/6 2000/3/6
f 1985/3/6 1993/3/6 2003/3/6
f 1996/3/6 1988/3/6 2004/3/6
f 2004/3/6 1988/3/6 2005/3/6
f 1997/3/6 1998/3/6 2007/3/6
f 1998/3/6 1989/3/6 2007/3/6
f 2007/3/6 1989/3/6 2008/3/6
f 2000/3/6 2001/3/6 2009/3/6
f 1999/3/6 2000/3/6 2009/3/6
f 2009/3/6 2001/3/6 2010/3/6
f 2002/3/6 2003/3/6 2011/3/6
f 2003/3/6 1993/3/6 2011/3/6
f 2011/3/6 1993/3/6 2012/3/6
f 2005/3/6 2006/3/6 2013/3/6
f 2004/3/6 2005/3/6 2013/3/6
f 2013/3/6 2006/3/6 2014/3/6
f 1997/3/6 2007/3/6 2015/3/6
f 2010/3/6 2001/3/6 2018/3/6
f 2002/3/6 2011/3/6 2019/3/6
f 2014/3/6 2006/3/6 2022/3/6
f 2015/3/6 2016/3/6 2023/3/6
f 1997/3/6 2015/3/6 2023/3/6
f 2023/3/6 2016/3/6 2024/3/6
f 2017/3/6 2018/3/6 2025/3/6
f 2018/3/6 2001/3/6 2025/3/6
f 2025/3/6 2001/3/6 2026/3/6
f 2019/3/6 2020/3/6 2027/3/6
f 2002/3/6 2019/3/6 2027/3/6
f 2027/3/6 2020/3/6 2028/3/6
f 2021/3/6 2022/3/6 2029/3/6
f 2022/3/6 2006/3/6 2029/3/6
f 2029/3/6 2006/3/6 2030/3/6
f 2024/3/6 2016/3/6 2031/3/6
f 2017/3/6 2025/3/6 2034/3/6
f 2028/3/6 2020/3/6 2035/3/6
f 2021/3/6 2029/3/6 2038/3/6
f 2031/3/6 2032/3/6 2039/3/6
f 2024/3/6 2031/3/6 2039/3/6
f 2039/3/6 2032/3/6 2040/3/6
f 2033/3/6 2034/3/6 2041/3/6
f 2034/3/6 2025/3/6 2041/3/6
f 2041/3/6 2025/3/6 2042/3/6
f 2035/3/6 2036/3/6 2043/3/6
f 2028/3/6 2035/3/6 2043/3/6
f 2043/3/6 2036/3/6 2044/3/6
f 2037/3/6 2038/3/6 2045/3/6
f 2038/3/6 2029/3/6 2045/3/6
f 2045/3/6 2029/3/6 2046/3/6
f 2040/3/6 2032/3/6 2047/3/6
f 2033/3/6 2041/3/6 2050/3/6
f 2044/3/6 2036/3/6 2051/3/6
f 2037/3/6 2045/3/6 2054/3/6
f 2047/3/6 2048/3/6 2055/3/6
f 2040/3/6 2047/3/6 2055/3/6
f 2055/3/6 2048/3/6 2056/3/6
f 2056/3/6 2048/3/6 2057/3/6
f 2049/3/6 2050/3/6 2058/3/6
f 2058/3/6 2050/3/6 2059/3/6
f 2050/3/6 2041/3/6 2060/3/6
f 2059/3/6 2050/3/6 2060/3/6
f 2051/3/6 2052/3/6 2061/3/6
f 2044/3/6 2051/3/6 2061/3/6
f 2061/3/6 2052/3/6 2062/3/6
f 2062/3/6 2052/3/6 2063/3/6
f 2053/3/6 2054/3/6 2064/3/6
f 2064/3/6 2054/3/6 2065/3/6
f 2054/3/6 2045/3/6 2066/3/6
f 2065/3/6 2054/3/6 2066/3/6
f 2056/3/6 2057/3/6 2067/3/6
f 2058/3/6 2059/3/6 2067/3/6
f 2057/3/6 2058/3/6 2067/3/6
f 2067/3/6 2059/3/6 2068/3/6
f 2063/3/6 2064/3/6 2069/3/6
f 2062/3/6 2063/3/6 2069/3/6
f 2064/3/6 2065/3/6 2069/3/6
f 2069/3/6 2065/3/6 2070/3/6
f 2071/4/6 2072/4/6 2076/4/6
f 2076/4/6 2072/4/6 2077/4/6
f 2073/4/6 2074/4/6 2080/4/6
f 2080/4/6 2074/4/6 2081/4/6
f 2077/4/6 2078/4/6 2084/4/6
f 2075/4/6 2076/4/6 2084/4/6
f 2076/4/6 2077/4/6 2084/4/6
f 2084/4/6 2078/4/6 2085/4/6
f 2081/4/6 2082/4/6 2088/4/6
f 2080/4/6 2081/4/6 2088/4/6
f 2079/4/6 2080/4/6 2088/4/6
f 2088/4/6 2082/4/6 2089/4/6
f 2085/4/6 2086/4/6 2092/4/6
f 2084/4/6 2085/4/6 2092/4/6
f 2083/4/6 2084/4/6 2092/4/6
f 2092/4/6 2086/4/6 2093/4/6
f 2089/4/6 2090/4/6 2096/4/6
f 2088/4/6 2089/4/6 2096/4/6
f 2087/4/6 2088/4/6 2096/4/6
f 2096/4/6 2090/4/6 2097/4/6
f 2093/4/6 2094/4/6 2100/4/6
f 2092/4/6 2093/4/6 2100/4/6
f 2091/4/6 2092/4/6 2100/4/6
f 2100/4/6 2094/4/6 2101/4/6
f 2097/4/6 2098/4/6 2104/4/6
f 2096/4/6 2097/4/6 2104/4/6
f 2095/4/6 2096/4/6 2104/4/6
f 2104/4/6 2098/4/6 2105/4/6
f 2101/4/6 2102/4/6 2107/4/6
f 2100/4/6 2101/4/6 2107/4/6
f 2099/4/6 2100/4/6 2107/4/6
f 2107/4/6 2102/4/6 2108/4/6
f 2108/4/6 2102/4/6 2109/4/6
f 2109/4/6 2102/4/6 2110/4/6
f 2105/4/6 2106/4/6 2111/4/6
f 2104/4/6 2105/4/6 2111/4/6
f 2103/4/6 2104/4/6 2111/4/6
f 2111/4/6 2106/4/6 2112/4/6
f 2112/4/6 2106/4/6 2113/4/6
f 2113/4/6 2106/4/6 2114/4/6
f 2108/4/6 2109/4/6 2115/4/6
f 2115/4/6 2109/4/6 2116/4/6
f 2116/4/6 2109/4/6 2117/4/6
f 2117/4/6 2109/4/6 2118/4/6
f 2112/4/6 2113/4/6 2119/4/6
f 2119/4/6 2113/4/6 2120/4/6
f 2120/4/6 2113/4/6 2121/4/6
f 2121/4/6 2113/4/6 2122/4/6
f 2116/4/6 2117/4/6 2123/4/6
f 2123/4/6 2117/4/6 2124/4/6
f 2124/4/6 2117/4/6 2125/4/6
f 2125/4/6 2117/4/6 2126/4/6
f 2120/4/6 2121/4/6 2127/4/6
f 2127/4/6 2121/4/6 2128/4/6
f 2128/4/6 2121/4/6 2129/4/6
f 2129/4/6 2121/4/6 2130/4/6
f 2124/4/6 2125/4/6 2131/4/6
f 2131/4/6 2125/4/6 2132/4/6
f 2132/4/6 2125/4/6 2133/4/6
f 2133/4/6 2125/4/6 2134/4/6
f 2128/4/6 2129/4/6 2135/4/6
f 2135/4/6 2129/4/6 2136/4/6
f 2136/4/6 2129/4/6 2137/4/6
f 2137/4/6 2129/4/6 2138/4/6
f 2132/4/6 2133/4/6 2139/4/6
f 2139/4/6 2133/4/6 2140/4/6
f 2136/4/6 2137/4/6 2141/4/6
f 2141/4/6 2137/4/6 2142/4/6
