# MagicaVoxel @ Ephtracy

# group
o 

# material
mtllib banka.mtl
usemtl palette

# normals
vn -1 0 0
vn 1 0 0
vn 0 0 1
vn 0 0 -1
vn 0 -1 0
vn 0 1 0

# texcoords
vt 0.283203 0.5
vt 0.287109 0.5
vt 0.978516 0.5
vt 0.986328 0.5

# verts
v -1 0 0.3
v -1 0 -0.2
v -1 0.1 0.3
v -1 0.1 -0.2
v -1 2.3 0.3
v -1 2.3 -0.2
v -1 2.4 0.3
v -1 2.4 -0.2
v -0.9 0 0.5
v -0.9 0 0.3
v -0.9 0 -0.2
v -0.9 0 -0.4
v -0.9 0.1 0.5
v -0.9 0.1 0.3
v -0.9 0.1 -0.2
v -0.9 0.1 -0.4
v -0.9 0.2 0.3
v -0.9 0.2 -0.2
v -0.9 0.4 0.3
v -0.9 0.4 -0.2
v -0.9 2 0.3
v -0.9 2 -0.2
v -0.9 2.2 0.3
v -0.9 2.2 -0.2
v -0.9 2.3 0.5
v -0.9 2.3 0.3
v -0.9 2.3 -0.2
v -0.9 2.3 -0.4
v -0.9 2.4 0.5
v -0.9 2.4 0.3
v -0.9 2.4 -0.2
v -0.9 2.4 -0.4
v -0.8 0 0.7
v -0.8 0 0.5
v -0.8 0 -0.4
v -0.8 0 -0.6
v -0.8 0.1 0.7
v -0.8 0.1 0.5
v -0.8 0.1 0.3
v -0.8 0.1 -0.2
v -0.8 0.1 -0.4
v -0.8 0.1 -0.6
v -0.8 0.2 0.5
v -0.8 0.2 0.3
v -0.8 0.2 -0.2
v -0.8 0.2 -0.4
v -0.8 0.4 0.5
v -0.8 0.4 0.3
v -0.8 0.4 0.2
v -0.8 0.4 -0.1
v -0.8 0.4 -0.2
v -0.8 0.4 -0.4
v -0.8 1.3 0
v -0.8 1.3 -0.1
v -0.8 1.4 0.1
v -0.8 1.4 0
v -0.8 1.7 0.1
v -0.8 1.7 0
v -0.8 1.8 0
v -0.8 1.8 -0.1
v -0.8 2 0.5
v -0.8 2 0.3
v -0.8 2 0.2
v -0.8 2 -0.1
v -0.8 2 -0.2
v -0.8 2 -0.4
v -0.8 2.2 0.5
v -0.8 2.2 0.3
v -0.8 2.2 -0.2
v -0.8 2.2 -0.4
v -0.8 2.3 0.7
v -0.8 2.3 0.5
v -0.8 2.3 0.3
v -0.8 2.3 -0.2
v -0.8 2.3 -0.4
v -0.8 2.3 -0.6
v -0.8 2.4 0.7
v -0.8 2.4 0.5
v -0.8 2.4 -0.4
v -0.8 2.4 -0.6
v -0.7 0 0.8
v -0.7 0 0.7
v -0.7 0 -0.6
v -0.7 0 -0.7
v -0.7 0.1 0.8
v -0.7 0.1 0.7
v -0.7 0.1 0.5
v -0.7 0.1 -0.4
v -0.7 0.1 -0.6
v -0.7 0.1 -0.7
v -0.7 0.2 0.7
v -0.7 0.2 0.5
v -0.7 0.2 -0.4
v -0.7 0.2 -0.6
v -0.7 0.4 0.7
v -0.7 0.4 0.5
v -0.7 0.4 0.4
v -0.7 0.4 0.2
v -0.7 0.4 -0.1
v -0.7 0.4 -0.3
v -0.7 0.4 -0.4
v -0.7 0.4 -0.6
v -0.7 1.2 -0.1
v -0.7 1.2 -0.2
v -0.7 1.3 -0.1
v -0.7 1.4 -0.1
v -0.7 1.4 -0.2
v -0.7 1.8 -0.1
v -0.7 2 0.7
v -0.7 2 0.5
v -0.7 2 0.4
v -0.7 2 0.2
v -0.7 2 -0.1
v -0.7 2 -0.3
v -0.7 2 -0.4
v -0.7 2 -0.6
v -0.7 2.2 0.7
v -0.7 2.2 0.5
v -0.7 2.2 -0.4
v -0.7 2.2 -0.6
v -0.7 2.3 0.8
v -0.7 2.3 0.7
v -0.7 2.3 0.5
v -0.7 2.3 -0.4
v -0.7 2.3 -0.6
v -0.7 2.3 -0.7
v -0.7 2.4 0.8
v -0.7 2.4 0.7
v -0.7 2.4 -0.6
v -0.7 2.4 -0.7
v -0.6 0.4 0.6
v -0.6 0.4 0.4
v -0.6 0.4 -0.3
v -0.6 0.4 -0.5
v -0.6 0.7 -0.3
v -0.6 0.7 -0.5
v -0.6 0.8 -0.3
v -0.6 0.8 -0.4
v -0.6 1.1 0.6
v -0.6 1.1 0.5
v -0.6 1.1 -0.4
v -0.6 1.1 -0.5
v -0.6 1.4 0.5
v -0.6 1.4 0.4
v -0.6 1.7 0.6
v -0.6 1.7 0.5
v -0.6 1.8 0.5
v -0.6 1.8 0.4
v -0.6 2 0.6
v -0.6 2 0.4
v -0.6 2 -0.3
v -0.6 2 -0.5
v -0.5 0 0.9
v -0.5 0 0.8
v -0.5 0 -0.7
v -0.5 0 -0.8
v -0.5 0.1 0.9
v -0.5 0.1 0.8
v -0.5 0.1 0.7
v -0.5 0.1 -0.6
v -0.5 0.1 -0.7
v -0.5 0.1 -0.8
v -0.5 0.2 0.8
v -0.5 0.2 0.7
v -0.5 0.2 -0.6
v -0.5 0.2 -0.7
v -0.5 0.4 0.8
v -0.5 0.4 0.7
v -0.5 0.4 -0.6
v -0.5 0.4 -0.7
v -0.5 2 0.8
v -0.5 2 0.7
v -0.5 2 -0.6
v -0.5 2 -0.7
v -0.5 2.2 0.8
v -0.5 2.2 0.7
v -0.5 2.2 -0.6
v -0.5 2.2 -0.7
v -0.5 2.3 0.9
v -0.5 2.3 0.8
v -0.5 2.3 0.7
v -0.5 2.3 -0.6
v -0.5 2.3 -0.7
v -0.5 2.3 -0.8
v -0.5 2.4 0.9
v -0.5 2.4 0.8
v -0.5 2.4 -0.7
v -0.5 2.4 -0.8
v -0.4 0.4 0.7
v -0.4 0.4 0.6
v -0.4 0.4 -0.5
v -0.4 0.4 -0.6
v -0.4 0.7 -0.5
v -0.4 0.9 -0.5
v -0.4 2 0.7
v -0.4 2 0.6
v -0.4 2 -0.5
v -0.4 2 -0.6
v 0 0.4 0.7
v 0 0.4 0.6
v 0 0.4 -0.5
v 0 0.4 -0.6
v 0 0.7 0.7
v 0 0.7 0.6
v 0 1.1 0.7
v 0 1.1 0.6
v 0 1.1 -0.5
v 0 1.1 -0.6
v 0 1.5 -0.5
v 0 1.5 -0.6
v 0 2 0.7
v 0 2 0.6
v 0 2 -0.5
v 0 2 -0.6
v 0.1 0 0.9
v 0.1 0 0.8
v 0.1 0 -0.7
v 0.1 0 -0.8
v 0.1 0.1 0.9
v 0.1 0.1 0.8
v 0.1 0.1 0.7
v 0.1 0.1 -0.6
v 0.1 0.1 -0.7
v 0.1 0.1 -0.8
v 0.1 0.2 0.8
v 0.1 0.2 0.7
v 0.1 0.2 -0.6
v 0.1 0.2 -0.7
v 0.1 0.4 0.8
v 0.1 0.4 0.7
v 0.1 0.4 -0.6
v 0.1 0.4 -0.7
v 0.1 2 0.8
v 0.1 2 0.7
v 0.1 2 -0.6
v 0.1 2 -0.7
v 0.1 2.2 0.8
v 0.1 2.2 0.7
v 0.1 2.2 -0.6
v 0.1 2.2 -0.7
v 0.1 2.3 0.9
v 0.1 2.3 0.8
v 0.1 2.3 0.7
v 0.1 2.3 -0.6
v 0.1 2.3 -0.7
v 0.1 2.3 -0.8
v 0.1 2.4 0.9
v 0.1 2.4 0.8
v 0.1 2.4 -0.7
v 0.1 2.4 -0.8
v 0.2 0.4 0.6
v 0.2 0.4 0.4
v 0.2 0.4 -0.3
v 0.2 0.4 -0.5
v 0.2 0.7 0.5
v 0.2 0.7 0.4
v 0.2 0.9 0.5
v 0.2 0.9 0.4
v 0.2 1.1 -0.3
v 0.2 1.6 -0.3
v 0.2 2 0.6
v 0.2 2 0.4
v 0.2 2 -0.3
v 0.2 2 -0.5
v 0.3 0 0.8
v 0.3 0 0.7
v 0.3 0 -0.6
v 0.3 0 -0.7
v 0.3 0.1 0.8
v 0.3 0.1 0.7
v 0.3 0.1 0.5
v 0.3 0.1 -0.4
v 0.3 0.1 -0.6
v 0.3 0.1 -0.7
v 0.3 0.2 0.7
v 0.3 0.2 0.5
v 0.3 0.2 -0.4
v 0.3 0.2 -0.6
v 0.3 0.4 0.7
v 0.3 0.4 0.5
v 0.3 0.4 0.4
v 0.3 0.4 0.3
v 0.3 0.4 0.2
v 0.3 0.4 -0.1
v 0.3 0.4 -0.3
v 0.3 0.4 -0.4
v 0.3 0.4 -0.6
v 0.3 0.9 0.4
v 0.3 0.9 0.3
v 0.3 1.1 0.2
v 0.3 1.1 -0.2
v 0.3 1.1 -0.3
v 0.3 1.6 -0.2
v 0.3 1.6 -0.3
v 0.3 1.8 0.2
v 0.3 1.8 -0.1
v 0.3 1.9 -0.1
v 0.3 2 0.7
v 0.3 2 0.5
v 0.3 2 0.4
v 0.3 2 0.2
v 0.3 2 -0.1
v 0.3 2 -0.3
v 0.3 2 -0.4
v 0.3 2 -0.6
v 0.3 2.2 0.7
v 0.3 2.2 0.5
v 0.3 2.2 -0.4
v 0.3 2.2 -0.6
v 0.3 2.3 0.8
v 0.3 2.3 0.7
v 0.3 2.3 0.5
v 0.3 2.3 -0.4
v 0.3 2.3 -0.6
v 0.3 2.3 -0.7
v 0.3 2.4 0.8
v 0.3 2.4 0.7
v 0.3 2.4 -0.6
v 0.3 2.4 -0.7
v 0.4 0 0.7
v 0.4 0 0.5
v 0.4 0 -0.4
v 0.4 0 -0.6
v 0.4 0.1 0.7
v 0.4 0.1 0.5
v 0.4 0.1 0.3
v 0.4 0.1 -0.2
v 0.4 0.1 -0.4
v 0.4 0.1 -0.6
v 0.4 0.2 0.5
v 0.4 0.2 0.3
v 0.4 0.2 -0.2
v 0.4 0.2 -0.4
v 0.4 0.4 0.5
v 0.4 0.4 0.3
v 0.4 0.4 0.2
v 0.4 0.4 -0.1
v 0.4 0.4 -0.2
v 0.4 0.4 -0.4
v 0.4 1.1 0.2
v 0.4 1.1 0.1
v 0.4 1.5 0.1
v 0.4 1.5 0
v 0.4 1.8 0.2
v 0.4 1.8 0.1
v 0.4 1.8 0
v 0.4 1.8 -0.1
v 0.4 1.9 0.1
v 0.4 1.9 -0.1
v 0.4 2 0.5
v 0.4 2 0.3
v 0.4 2 0.2
v 0.4 2 -0.1
v 0.4 2 -0.2
v 0.4 2 -0.4
v 0.4 2.2 0.5
v 0.4 2.2 0.3
v 0.4 2.2 -0.2
v 0.4 2.2 -0.4
v 0.4 2.3 0.7
v 0.4 2.3 0.5
v 0.4 2.3 0.3
v 0.4 2.3 -0.2
v 0.4 2.3 -0.4
v 0.4 2.3 -0.6
v 0.4 2.4 0.7
v 0.4 2.4 0.5
v 0.4 2.4 -0.4
v 0.4 2.4 -0.6
v 0.5 0 0.5
v 0.5 0 0.3
v 0.5 0 -0.2
v 0.5 0 -0.4
v 0.5 0.1 0.5
v 0.5 0.1 0.3
v 0.5 0.1 -0.2
v 0.5 0.1 -0.4
v 0.5 0.2 0.3
v 0.5 0.2 -0.2
v 0.5 0.4 0.3
v 0.5 0.4 -0.2
v 0.5 2 0.3
v 0.5 2 -0.2
v 0.5 2.2 0.3
v 0.5 2.2 -0.2
v 0.5 2.3 0.5
v 0.5 2.3 0.3
v 0.5 2.3 -0.2
v 0.5 2.3 -0.4
v 0.5 2.4 0.5
v 0.5 2.4 0.3
v 0.5 2.4 -0.2
v 0.5 2.4 -0.4
v 0.6 0 0.3
v 0.6 0 -0.2
v 0.6 0.1 0.3
v 0.6 0.1 -0.2
v 0.6 2.3 0.3
v 0.6 2.3 -0.2
v 0.6 2.4 0.3
v 0.6 2.4 -0.2
v -0.5 0 0.9
v -0.5 0.1 0.9
v -0.5 2.3 0.9
v -0.5 2.4 0.9
v 0.1 0 0.9
v 0.1 0.1 0.9
v 0.1 2.3 0.9
v 0.1 2.4 0.9
v -0.7 0 0.8
v -0.7 0.1 0.8
v -0.7 2.3 0.8
v -0.7 2.4 0.8
v -0.5 0 0.8
v -0.5 0.1 0.8
v -0.5 0.2 0.8
v -0.5 0.4 0.8
v -0.5 2 0.8
v -0.5 2.2 0.8
v -0.5 2.3 0.8
v -0.5 2.4 0.8
v 0.1 0 0.8
v 0.1 0.1 0.8
v 0.1 0.2 0.8
v 0.1 0.4 0.8
v 0.1 2 0.8
v 0.1 2.2 0.8
v 0.1 2.3 0.8
v 0.1 2.4 0.8
v 0.3 0 0.8
v 0.3 0.1 0.8
v 0.3 2.3 0.8
v 0.3 2.4 0.8
v -0.8 0 0.7
v -0.8 0.1 0.7
v -0.8 2.3 0.7
v -0.8 2.4 0.7
v -0.7 0 0.7
v -0.7 0.1 0.7
v -0.7 0.2 0.7
v -0.7 0.4 0.7
v -0.7 2 0.7
v -0.7 2.2 0.7
v -0.7 2.3 0.7
v -0.7 2.4 0.7
v -0.5 0.1 0.7
v -0.5 0.2 0.7
v -0.5 0.4 0.7
v -0.5 2 0.7
v -0.5 2.2 0.7
v -0.5 2.3 0.7
v -0.4 0.4 0.7
v -0.4 2 0.7
v -0.2 0.9 0.7
v -0.2 1.1 0.7
v -0.1 0.7 0.7
v -0.1 0.9 0.7
v 0 0.4 0.7
v 0 0.7 0.7
v 0 1.1 0.7
v 0 2 0.7
v 0.1 0.1 0.7
v 0.1 0.2 0.7
v 0.1 0.4 0.7
v 0.1 2 0.7
v 0.1 2.2 0.7
v 0.1 2.3 0.7
v 0.3 0 0.7
v 0.3 0.1 0.7
v 0.3 0.2 0.7
v 0.3 0.4 0.7
v 0.3 2 0.7
v 0.3 2.2 0.7
v 0.3 2.3 0.7
v 0.3 2.4 0.7
v 0.4 0 0.7
v 0.4 0.1 0.7
v 0.4 2.3 0.7
v 0.4 2.4 0.7
v -0.6 0.4 0.6
v -0.6 1.1 0.6
v -0.6 1.7 0.6
v -0.6 2 0.6
v -0.5 1.1 0.6
v -0.5 1.7 0.6
v -0.4 0.4 0.6
v -0.4 2 0.6
v 0 0.4 0.6
v 0 0.7 0.6
v 0 1.1 0.6
v 0 2 0.6
v 0.2 0.4 0.6
v 0.2 2 0.6
v -0.9 0 0.5
v -0.9 0.1 0.5
v -0.9 2.3 0.5
v -0.9 2.4 0.5
v -0.8 0 0.5
v -0.8 0.1 0.5
v -0.8 0.2 0.5
v -0.8 0.4 0.5
v -0.8 2 0.5
v -0.8 2.2 0.5
v -0.8 2.3 0.5
v -0.8 2.4 0.5
v -0.7 0.1 0.5
v -0.7 0.2 0.5
v -0.7 0.4 0.5
v -0.7 2 0.5
v -0.7 2.2 0.5
v -0.7 2.3 0.5
v 0.3 0.1 0.5
v 0.3 0.2 0.5
v 0.3 0.4 0.5
v 0.3 2 0.5
v 0.3 2.2 0.5
v 0.3 2.3 0.5
v 0.4 0 0.5
v 0.4 0.1 0.5
v 0.4 0.2 0.5
v 0.4 0.4 0.5
v 0.4 2 0.5
v 0.4 2.2 0.5
v 0.4 2.3 0.5
v 0.4 2.4 0.5
v 0.5 0 0.5
v 0.5 0.1 0.5
v 0.5 2.3 0.5
v 0.5 2.4 0.5
v -0.7 0.4 0.4
v -0.7 2 0.4
v -0.6 0.4 0.4
v -0.6 1.4 0.4
v -0.6 1.8 0.4
v -0.6 2 0.4
v 0.2 0.4 0.4
v 0.2 0.7 0.4
v 0.2 0.9 0.4
v 0.2 2 0.4
v 0.3 0.4 0.4
v 0.3 0.9 0.4
v 0.3 2 0.4
v -1 0 0.3
v -1 0.1 0.3
v -1 2.3 0.3
v -1 2.4 0.3
v -0.9 0 0.3
v -0.9 0.1 0.3
v -0.9 0.2 0.3
v -0.9 0.4 0.3
v -0.9 2 0.3
v -0.9 2.2 0.3
v -0.9 2.3 0.3
v -0.9 2.4 0.3
v -0.8 0.1 0.3
v -0.8 0.2 0.3
v -0.8 0.4 0.3
v -0.8 2 0.3
v -0.8 2.2 0.3
v -0.8 2.3 0.3
v 0.4 0.1 0.3
v 0.4 0.2 0.3
v 0.4 0.4 0.3
v 0.4 2 0.3
v 0.4 2.2 0.3
v 0.4 2.3 0.3
v 0.5 0 0.3
v 0.5 0.1 0.3
v 0.5 0.2 0.3
v 0.5 0.4 0.3
v 0.5 2 0.3
v 0.5 2.2 0.3
v 0.5 2.3 0.3
v 0.5 2.4 0.3
v 0.6 0 0.3
v 0.6 0.1 0.3
v 0.6 2.3 0.3
v 0.6 2.4 0.3
v -0.8 0.4 0.2
v -0.8 2 0.2
v -0.7 0.4 0.2
v -0.7 2 0.2
v 0.3 0.4 0.2
v 0.3 1.1 0.2
v 0.3 1.8 0.2
v 0.3 2 0.2
v 0.4 0.4 0.2
v 0.4 1.1 0.2
v 0.4 1.8 0.2
v 0.4 2 0.2
v -0.8 0.4 -0.1
v -0.8 1.3 -0.1
v -0.8 1.8 -0.1
v -0.8 2 -0.1
v -0.7 0.4 -0.1
v -0.7 1.2 -0.1
v -0.7 1.3 -0.1
v -0.7 1.4 -0.1
v -0.7 1.8 -0.1
v -0.7 2 -0.1
v 0.3 0.4 -0.1
v 0.3 1.8 -0.1
v 0.3 1.9 -0.1
v 0.3 2 -0.1
v 0.4 0.4 -0.1
v 0.4 1.8 -0.1
v 0.4 1.9 -0.1
v 0.4 2 -0.1
v -1 0 -0.2
v -1 0.1 -0.2
v -1 2.3 -0.2
v -1 2.4 -0.2
v -0.9 0 -0.2
v -0.9 0.1 -0.2
v -0.9 0.2 -0.2
v -0.9 0.4 -0.2
v -0.9 2 -0.2
v -0.9 2.2 -0.2
v -0.9 2.3 -0.2
v -0.9 2.4 -0.2
v -0.8 0.1 -0.2
v -0.8 0.2 -0.2
v -0.8 0.4 -0.2
v -0.8 2 -0.2
v -0.8 2.2 -0.2
v -0.8 2.3 -0.2
v 0.4 0.1 -0.2
v 0.4 0.2 -0.2
v 0.4 0.4 -0.2
v 0.4 2 -0.2
v 0.4 2.2 -0.2
v 0.4 2.3 -0.2
v 0.5 0 -0.2
v 0.5 0.1 -0.2
v 0.5 0.2 -0.2
v 0.5 0.4 -0.2
v 0.5 2 -0.2
v 0.5 2.2 -0.2
v 0.5 2.3 -0.2
v 0.5 2.4 -0.2
v 0.6 0 -0.2
v 0.6 0.1 -0.2
v 0.6 2.3 -0.2
v 0.6 2.4 -0.2
v -0.7 0.4 -0.3
v -0.7 2 -0.3
v -0.6 0.4 -0.3
v -0.6 0.7 -0.3
v -0.6 0.8 -0.3
v -0.6 2 -0.3
v 0.2 0.4 -0.3
v 0.2 1.1 -0.3
v 0.2 1.6 -0.3
v 0.2 2 -0.3
v 0.3 0.4 -0.3
v 0.3 1.1 -0.3
v 0.3 1.6 -0.3
v 0.3 2 -0.3
v -0.9 0 -0.4
v -0.9 0.1 -0.4
v -0.9 2.3 -0.4
v -0.9 2.4 -0.4
v -0.8 0 -0.4
v -0.8 0.1 -0.4
v -0.8 0.2 -0.4
v -0.8 0.4 -0.4
v -0.8 2 -0.4
v -0.8 2.2 -0.4
v -0.8 2.3 -0.4
v -0.8 2.4 -0.4
v -0.7 0.1 -0.4
v -0.7 0.2 -0.4
v -0.7 0.4 -0.4
v -0.7 2 -0.4
v -0.7 2.2 -0.4
v -0.7 2.3 -0.4
v 0.3 0.1 -0.4
v 0.3 0.2 -0.4
v 0.3 0.4 -0.4
v 0.3 2 -0.4
v 0.3 2.2 -0.4
v 0.3 2.3 -0.4
v 0.4 0 -0.4
v 0.4 0.1 -0.4
v 0.4 0.2 -0.4
v 0.4 0.4 -0.4
v 0.4 2 -0.4
v 0.4 2.2 -0.4
v 0.4 2.3 -0.4
v 0.4 2.4 -0.4
v 0.5 0 -0.4
v 0.5 0.1 -0.4
v 0.5 2.3 -0.4
v 0.5 2.4 -0.4
v -0.6 0.4 -0.5
v -0.6 0.7 -0.5
v -0.6 1.1 -0.5
v -0.6 2 -0.5
v -0.5 0.9 -0.5
v -0.5 1.1 -0.5
v -0.4 0.4 -0.5
v -0.4 0.7 -0.5
v -0.4 0.9 -0.5
v -0.4 2 -0.5
v 0 0.4 -0.5
v 0 1.1 -0.5
v 0 1.5 -0.5
v 0 2 -0.5
v 0.2 0.4 -0.5
v 0.2 2 -0.5
v -0.8 0 -0.6
v -0.8 0.1 -0.6
v -0.8 2.3 -0.6
v -0.8 2.4 -0.6
v -0.7 0 -0.6
v -0.7 0.1 -0.6
v -0.7 0.2 -0.6
v -0.7 0.4 -0.6
v -0.7 2 -0.6
v -0.7 2.2 -0.6
v -0.7 2.3 -0.6
v -0.7 2.4 -0.6
v -0.5 0.1 -0.6
v -0.5 0.2 -0.6
v -0.5 0.4 -0.6
v -0.5 2 -0.6
v -0.5 2.2 -0.6
v -0.5 2.3 -0.6
v -0.4 0.4 -0.6
v -0.4 2 -0.6
v -0.2 1.3 -0.6
v -0.2 1.7 -0.6
v -0.1 1.1 -0.6
v -0.1 1.3 -0.6
v -0.1 1.5 -0.6
v -0.1 1.7 -0.6
v 0 0.4 -0.6
v 0 1.1 -0.6
v 0 1.5 -0.6
v 0 2 -0.6
v 0.1 0.1 -0.6
v 0.1 0.2 -0.6
v 0.1 0.4 -0.6
v 0.1 2 -0.6
v 0.1 2.2 -0.6
v 0.1 2.3 -0.6
v 0.3 0 -0.6
v 0.3 0.1 -0.6
v 0.3 0.2 -0.6
v 0.3 0.4 -0.6
v 0.3 2 -0.6
v 0.3 2.2 -0.6
v 0.3 2.3 -0.6
v 0.3 2.4 -0.6
v 0.4 0 -0.6
v 0.4 0.1 -0.6
v 0.4 2.3 -0.6
v 0.4 2.4 -0.6
v -0.7 0 -0.7
v -0.7 0.1 -0.7
v -0.7 2.3 -0.7
v -0.7 2.4 -0.7
v -0.5 0 -0.7
v -0.5 0.1 -0.7
v -0.5 0.2 -0.7
v -0.5 0.4 -0.7
v -0.5 2 -0.7
v -0.5 2.2 -0.7
v -0.5 2.3 -0.7
v -0.5 2.4 -0.7
v 0.1 0 -0.7
v 0.1 0.1 -0.7
v 0.1 0.2 -0.7
v 0.1 0.4 -0.7
v 0.1 2 -0.7
v 0.1 2.2 -0.7
v 0.1 2.3 -0.7
v 0.1 2.4 -0.7
v 0.3 0 -0.7
v 0.3 0.1 -0.7
v 0.3 2.3 -0.7
v 0.3 2.4 -0.7
v -0.5 0 -0.8
v -0.5 0.1 -0.8
v -0.5 2.3 -0.8
v -0.5 2.4 -0.8
v 0.1 0 -0.8
v 0.1 0.1 -0.8
v 0.1 2.3 -0.8
v 0.1 2.4 -0.8
v -0.5 0 0.9
v 0.1 0 0.9
v -0.7 0 0.8
v -0.5 0 0.8
v 0.1 0 0.8
v 0.3 0 0.8
v -0.8 0 0.7
v -0.7 0 0.7
v 0.3 0 0.7
v 0.4 0 0.7
v -0.9 0 0.5
v -0.8 0 0.5
v 0.4 0 0.5
v 0.5 0 0.5
v -1 0 0.3
v -0.9 0 0.3
v 0.5 0 0.3
v 0.6 0 0.3
v -1 0 -0.2
v -0.9 0 -0.2
v 0.5 0 -0.2
v 0.6 0 -0.2
v -0.9 0 -0.4
v -0.8 0 -0.4
v 0.4 0 -0.4
v 0.5 0 -0.4
v -0.8 0 -0.6
v -0.7 0 -0.6
v 0.3 0 -0.6
v 0.4 0 -0.6
v -0.7 0 -0.7
v -0.5 0 -0.7
v 0.1 0 -0.7
v 0.3 0 -0.7
v -0.5 0 -0.8
v 0.1 0 -0.8
v -0.5 2 0.8
v 0.1 2 0.8
v -0.7 2 0.7
v -0.5 2 0.7
v -0.4 2 0.7
v 0 2 0.7
v 0.1 2 0.7
v 0.3 2 0.7
v -0.6 2 0.6
v -0.4 2 0.6
v 0 2 0.6
v 0.2 2 0.6
v -0.8 2 0.5
v -0.7 2 0.5
v 0.3 2 0.5
v 0.4 2 0.5
v -0.7 2 0.4
v -0.6 2 0.4
v 0.2 2 0.4
v 0.3 2 0.4
v -0.9 2 0.3
v -0.8 2 0.3
v 0.4 2 0.3
v 0.5 2 0.3
v -0.8 2 0.2
v -0.7 2 0.2
v 0.3 2 0.2
v 0.4 2 0.2
v -0.8 2 -0.1
v -0.7 2 -0.1
v 0.3 2 -0.1
v 0.4 2 -0.1
v -0.9 2 -0.2
v -0.8 2 -0.2
v 0.4 2 -0.2
v 0.5 2 -0.2
v -0.7 2 -0.3
v -0.6 2 -0.3
v 0.2 2 -0.3
v 0.3 2 -0.3
v -0.8 2 -0.4
v -0.7 2 -0.4
v 0.3 2 -0.4
v 0.4 2 -0.4
v -0.6 2 -0.5
v -0.4 2 -0.5
v 0 2 -0.5
v 0.2 2 -0.5
v -0.7 2 -0.6
v -0.5 2 -0.6
v -0.4 2 -0.6
v 0 2 -0.6
v 0.1 2 -0.6
v 0.3 2 -0.6
v -0.5 2 -0.7
v 0.1 2 -0.7
v -0.5 2.3 0.9
v 0.1 2.3 0.9
v -0.7 2.3 0.8
v -0.5 2.3 0.8
v 0.1 2.3 0.8
v 0.3 2.3 0.8
v -0.8 2.3 0.7
v -0.7 2.3 0.7
v -0.5 2.3 0.7
v 0.1 2.3 0.7
v 0.3 2.3 0.7
v 0.4 2.3 0.7
v -0.9 2.3 0.5
v -0.8 2.3 0.5
v -0.7 2.3 0.5
v 0.3 2.3 0.5
v 0.4 2.3 0.5
v 0.5 2.3 0.5
v -1 2.3 0.3
v -0.9 2.3 0.3
v -0.8 2.3 0.3
v 0.4 2.3 0.3
v 0.5 2.3 0.3
v 0.6 2.3 0.3
v -1 2.3 -0.2
v -0.9 2.3 -0.2
v -0.8 2.3 -0.2
v 0.4 2.3 -0.2
v 0.5 2.3 -0.2
v 0.6 2.3 -0.2
v -0.9 2.3 -0.4
v -0.8 2.3 -0.4
v -0.7 2.3 -0.4
v 0.3 2.3 -0.4
v 0.4 2.3 -0.4
v 0.5 2.3 -0.4
v -0.8 2.3 -0.6
v -0.7 2.3 -0.6
v -0.5 2.3 -0.6
v 0.1 2.3 -0.6
v 0.3 2.3 -0.6
v 0.4 2.3 -0.6
v -0.7 2.3 -0.7
v -0.5 2.3 -0.7
v 0.1 2.3 -0.7
v 0.3 2.3 -0.7
v -0.5 2.3 -0.8
v 0.1 2.3 -0.8
v -0.5 0.1 0.9
v 0.1 0.1 0.9
v -0.7 0.1 0.8
v -0.5 0.1 0.8
v 0.1 0.1 0.8
v 0.3 0.1 0.8
v -0.8 0.1 0.7
v -0.7 0.1 0.7
v -0.5 0.1 0.7
v 0.1 0.1 0.7
v 0.3 0.1 0.7
v 0.4 0.1 0.7
v -0.9 0.1 0.5
v -0.8 0.1 0.5
v -0.7 0.1 0.5
v 0.3 0.1 0.5
v 0.4 0.1 0.5
v 0.5 0.1 0.5
v -1 0.1 0.3
v -0.9 0.1 0.3
v -0.8 0.1 0.3
v 0.4 0.1 0.3
v 0.5 0.1 0.3
v 0.6 0.1 0.3
v -1 0.1 -0.2
v -0.9 0.1 -0.2
v -0.8 0.1 -0.2
v 0.4 0.1 -0.2
v 0.5 0.1 -0.2
v 0.6 0.1 -0.2
v -0.9 0.1 -0.4
v -0.8 0.1 -0.4
v -0.7 0.1 -0.4
v 0.3 0.1 -0.4
v 0.4 0.1 -0.4
v 0.5 0.1 -0.4
v -0.8 0.1 -0.6
v -0.7 0.1 -0.6
v -0.5 0.1 -0.6
v 0.1 0.1 -0.6
v 0.3 0.1 -0.6
v 0.4 0.1 -0.6
v -0.7 0.1 -0.7
v -0.5 0.1 -0.7
v 0.1 0.1 -0.7
v 0.3 0.1 -0.7
v -0.5 0.1 -0.8
v 0.1 0.1 -0.8
v -0.5 0.4 0.8
v 0.1 0.4 0.8
v -0.7 0.4 0.7
v -0.5 0.4 0.7
v -0.4 0.4 0.7
v 0 0.4 0.7
v 0.1 0.4 0.7
v 0.3 0.4 0.7
v -0.6 0.4 0.6
v -0.4 0.4 0.6
v 0 0.4 0.6
v 0.2 0.4 0.6
v -0.8 0.4 0.5
v -0.7 0.4 0.5
v 0.3 0.4 0.5
v 0.4 0.4 0.5
v -0.7 0.4 0.4
v -0.6 0.4 0.4
v 0.2 0.4 0.4
v 0.3 0.4 0.4
v -0.9 0.4 0.3
v -0.8 0.4 0.3
v 0.3 0.4 0.3
v 0.4 0.4 0.3
v 0.5 0.4 0.3
v -0.8 0.4 0.2
v -0.7 0.4 0.2
v 0.3 0.4 0.2
v 0.4 0.4 0.2
v -0.8 0.4 -0.1
v -0.7 0.4 -0.1
v 0.3 0.4 -0.1
v 0.4 0.4 -0.1
v -0.9 0.4 -0.2
v -0.8 0.4 -0.2
v 0.4 0.4 -0.2
v 0.5 0.4 -0.2
v -0.7 0.4 -0.3
v -0.6 0.4 -0.3
v 0.2 0.4 -0.3
v 0.3 0.4 -0.3
v -0.8 0.4 -0.4
v -0.7 0.4 -0.4
v 0.3 0.4 -0.4
v 0.4 0.4 -0.4
v -0.6 0.4 -0.5
v -0.4 0.4 -0.5
v 0 0.4 -0.5
v 0.2 0.4 -0.5
v -0.7 0.4 -0.6
v -0.5 0.4 -0.6
v -0.4 0.4 -0.6
v 0 0.4 -0.6
v 0.1 0.4 -0.6
v 0.3 0.4 -0.6
v -0.5 0.4 -0.7
v 0.1 0.4 -0.7
v -0.5 2.4 0.9
v 0.1 2.4 0.9
v -0.7 2.4 0.8
v -0.5 2.4 0.8
v 0.1 2.4 0.8
v 0.3 2.4 0.8
v -0.8 2.4 0.7
v -0.7 2.4 0.7
v 0.3 2.4 0.7
v 0.4 2.4 0.7
v -0.9 2.4 0.5
v -0.8 2.4 0.5
v 0.4 2.4 0.5
v 0.5 2.4 0.5
v -1 2.4 0.3
v -0.9 2.4 0.3
v 0.5 2.4 0.3
v 0.6 2.4 0.3
v -1 2.4 -0.2
v -0.9 2.4 -0.2
v 0.5 2.4 -0.2
v 0.6 2.4 -0.2
v -0.9 2.4 -0.4
v -0.8 2.4 -0.4
v 0.4 2.4 -0.4
v 0.5 2.4 -0.4
v -0.8 2.4 -0.6
v -0.7 2.4 -0.6
v 0.3 2.4 -0.6
v 0.4 2.4 -0.6
v -0.7 2.4 -0.7
v -0.5 2.4 -0.7
v 0.1 2.4 -0.7
v 0.3 2.4 -0.7
v -0.5 2.4 -0.8
v 0.1 2.4 -0.8

# faces
f 3/4/1 2/4/1 1/4/1
f 4/4/1 2/4/1 3/4/1
f 7/4/1 6/4/1 5/4/1
f 8/4/1 6/4/1 7/4/1
f 13/4/1 10/4/1 9/4/1
f 14/4/1 10/4/1 13/4/1
f 15/4/1 12/4/1 11/4/1
f 16/4/1 12/4/1 15/4/1
f 17/4/1 15/4/1 14/4/1
f 18/4/1 15/4/1 17/4/1
f 19/3/1 18/3/1 17/3/1
f 20/3/1 18/3/1 19/3/1
f 23/3/1 22/3/1 21/3/1
f 24/3/1 22/3/1 23/3/1
f 26/4/1 24/4/1 23/4/1
f 27/4/1 24/4/1 26/4/1
f 29/4/1 26/4/1 25/4/1
f 30/4/1 26/4/1 29/4/1
f 31/4/1 28/4/1 27/4/1
f 32/4/1 28/4/1 31/4/1
f 37/4/1 34/4/1 33/4/1
f 38/4/1 34/4/1 37/4/1
f 41/4/1 36/4/1 35/4/1
f 42/4/1 36/4/1 41/4/1
f 43/4/1 39/4/1 38/4/1
f 44/4/1 39/4/1 43/4/1
f 45/4/1 41/4/1 40/4/1
f 46/4/1 41/4/1 45/4/1
f 47/3/1 44/3/1 43/3/1
f 48/3/1 44/3/1 47/3/1
f 51/3/1 46/3/1 45/3/1
f 52/3/1 46/3/1 51/3/1
f 53/1/1 50/1/1 49/1/1
f 54/1/1 50/1/1 53/1/1
f 55/1/1 53/1/1 49/1/1
f 56/2/1 54/2/1 53/2/1
f 56/1/1 53/1/1 55/1/1
f 57/1/1 55/1/1 49/1/1
f 57/2/1 56/2/1 55/2/1
f 58/2/1 54/2/1 56/2/1
f 58/2/1 56/2/1 57/2/1
f 59/1/1 58/1/1 57/1/1
f 59/2/1 54/2/1 58/2/1
f 60/2/1 54/2/1 59/2/1
f 63/1/1 57/1/1 49/1/1
f 63/1/1 59/1/1 57/1/1
f 63/1/1 60/1/1 59/1/1
f 64/1/1 60/1/1 63/1/1
f 67/3/1 62/3/1 61/3/1
f 68/3/1 62/3/1 67/3/1
f 69/3/1 66/3/1 65/3/1
f 70/3/1 66/3/1 69/3/1
f 72/4/1 68/4/1 67/4/1
f 73/4/1 68/4/1 72/4/1
f 74/4/1 70/4/1 69/4/1
f 75/4/1 70/4/1 74/4/1
f 77/4/1 72/4/1 71/4/1
f 78/4/1 72/4/1 77/4/1
f 79/4/1 76/4/1 75/4/1
f 80/4/1 76/4/1 79/4/1
f 85/4/1 82/4/1 81/4/1
f 86/4/1 82/4/1 85/4/1
f 89/4/1 84/4/1 83/4/1
f 90/4/1 84/4/1 89/4/1
f 91/4/1 87/4/1 86/4/1
f 92/4/1 87/4/1 91/4/1
f 93/4/1 89/4/1 88/4/1
f 94/4/1 89/4/1 93/4/1
f 95/3/1 92/3/1 91/3/1
f 96/3/1 92/3/1 95/3/1
f 101/3/1 94/3/1 93/3/1
f 102/3/1 94/3/1 101/3/1
f 103/1/1 100/1/1 99/1/1
f 104/1/1 100/1/1 103/1/1
f 105/2/1 104/2/1 103/2/1
f 106/2/1 104/2/1 105/2/1
f 107/1/1 100/1/1 104/1/1
f 107/2/1 104/2/1 106/2/1
f 108/1/1 107/1/1 106/1/1
f 111/1/1 98/1/1 97/1/1
f 112/1/1 98/1/1 111/1/1
f 113/1/1 107/1/1 108/1/1
f 114/1/1 100/1/1 107/1/1
f 114/1/1 107/1/1 113/1/1
f 117/3/1 110/3/1 109/3/1
f 118/3/1 110/3/1 117/3/1
f 119/3/1 116/3/1 115/3/1
f 120/3/1 116/3/1 119/3/1
f 122/4/1 118/4/1 117/4/1
f 123/4/1 118/4/1 122/4/1
f 124/4/1 120/4/1 119/4/1
f 125/4/1 120/4/1 124/4/1
f 127/4/1 122/4/1 121/4/1
f 128/4/1 122/4/1 127/4/1
f 129/4/1 126/4/1 125/4/1
f 130/4/1 126/4/1 129/4/1
f 135/1/1 134/1/1 133/1/1
f 136/1/1 134/1/1 135/1/1
f 137/2/1 136/2/1 135/2/1
f 138/2/1 136/2/1 137/2/1
f 139/1/1 132/1/1 131/1/1
f 140/1/1 132/1/1 139/1/1
f 141/2/1 136/2/1 138/2/1
f 141/1/1 138/1/1 137/1/1
f 142/2/1 136/2/1 141/2/1
f 143/1/1 132/1/1 140/1/1
f 143/2/1 140/2/1 139/2/1
f 144/1/1 132/1/1 143/1/1
f 145/2/1 143/2/1 139/2/1
f 145/2/1 144/2/1 143/2/1
f 146/2/1 144/2/1 145/2/1
f 147/1/1 146/1/1 145/1/1
f 147/2/1 144/2/1 146/2/1
f 148/2/1 144/2/1 147/2/1
f 149/1/1 147/1/1 145/1/1
f 149/1/1 148/1/1 147/1/1
f 150/1/1 148/1/1 149/1/1
f 151/1/1 142/1/1 141/1/1
f 151/1/1 141/1/1 137/1/1
f 152/1/1 142/1/1 151/1/1
f 157/4/1 154/4/1 153/4/1
f 158/4/1 154/4/1 157/4/1
f 161/4/1 156/4/1 155/4/1
f 162/4/1 156/4/1 161/4/1
f 163/4/1 159/4/1 158/4/1
f 164/4/1 159/4/1 163/4/1
f 165/4/1 161/4/1 160/4/1
f 166/4/1 161/4/1 165/4/1
f 167/3/1 164/3/1 163/3/1
f 168/3/1 164/3/1 167/3/1
f 169/3/1 166/3/1 165/3/1
f 170/3/1 166/3/1 169/3/1
f 175/3/1 172/3/1 171/3/1
f 176/3/1 172/3/1 175/3/1
f 177/3/1 174/3/1 173/3/1
f 178/3/1 174/3/1 177/3/1
f 180/4/1 176/4/1 175/4/1
f 181/4/1 176/4/1 180/4/1
f 182/4/1 178/4/1 177/4/1
f 183/4/1 178/4/1 182/4/1
f 185/4/1 180/4/1 179/4/1
f 186/4/1 180/4/1 185/4/1
f 187/4/1 184/4/1 183/4/1
f 188/4/1 184/4/1 187/4/1
f 193/1/1 192/1/1 191/1/1
f 194/1/1 192/1/1 193/1/1
f 195/1/1 190/1/1 189/1/1
f 196/1/1 190/1/1 195/1/1
f 197/1/1 192/1/1 194/1/1
f 198/1/1 192/1/1 197/1/1
f 199/1/2 200/1/2 203/1/2
f 203/1/2 200/1/2 204/1/2
f 203/2/2 204/2/2 205/2/2
f 205/2/2 204/2/2 206/2/2
f 201/1/2 202/1/2 207/1/2
f 207/1/2 202/1/2 208/1/2
f 207/2/2 208/2/2 209/2/2
f 209/2/2 208/2/2 210/2/2
f 205/1/2 206/1/2 211/1/2
f 211/1/2 206/1/2 212/1/2
f 209/1/2 210/1/2 213/1/2
f 213/1/2 210/1/2 214/1/2
f 215/4/2 216/4/2 219/4/2
f 219/4/2 216/4/2 220/4/2
f 217/4/2 218/4/2 223/4/2
f 223/4/2 218/4/2 224/4/2
f 220/4/2 221/4/2 225/4/2
f 225/4/2 221/4/2 226/4/2
f 222/4/2 223/4/2 227/4/2
f 227/4/2 223/4/2 228/4/2
f 225/3/2 226/3/2 229/3/2
f 229/3/2 226/3/2 230/3/2
f 227/3/2 228/3/2 231/3/2
f 231/3/2 228/3/2 232/3/2
f 233/3/2 234/3/2 237/3/2
f 237/3/2 234/3/2 238/3/2
f 235/3/2 236/3/2 239/3/2
f 239/3/2 236/3/2 240/3/2
f 237/4/2 238/4/2 242/4/2
f 242/4/2 238/4/2 243/4/2
f 239/4/2 240/4/2 244/4/2
f 244/4/2 240/4/2 245/4/2
f 241/4/2 242/4/2 247/4/2
f 247/4/2 242/4/2 248/4/2
f 245/4/2 246/4/2 249/4/2
f 249/4/2 246/4/2 250/4/2
f 251/1/2 252/1/2 255/1/2
f 255/1/2 252/1/2 256/1/2
f 251/1/2 255/1/2 257/1/2
f 255/2/2 256/2/2 257/2/2
f 257/2/2 256/2/2 258/2/2
f 253/1/2 254/1/2 259/1/2
f 259/1/2 254/1/2 260/1/2
f 257/1/2 258/1/2 261/1/2
f 251/1/2 257/1/2 261/1/2
f 261/1/2 258/1/2 262/1/2
f 260/1/2 254/1/2 263/1/2
f 263/1/2 254/1/2 264/1/2
f 265/4/2 266/4/2 269/4/2
f 269/4/2 266/4/2 270/4/2
f 267/4/2 268/4/2 273/4/2
f 273/4/2 268/4/2 274/4/2
f 270/4/2 271/4/2 275/4/2
f 275/4/2 271/4/2 276/4/2
f 272/4/2 273/4/2 277/4/2
f 277/4/2 273/4/2 278/4/2
f 275/3/2 276/3/2 279/3/2
f 279/3/2 276/3/2 280/3/2
f 277/3/2 278/3/2 286/3/2
f 286/3/2 278/3/2 287/3/2
f 281/2/2 282/2/2 288/2/2
f 282/1/2 283/1/2 289/1/2
f 288/2/2 282/2/2 289/2/2
f 288/1/2 289/1/2 290/1/2
f 289/1/2 283/1/2 290/1/2
f 284/1/2 285/1/2 291/1/2
f 291/1/2 285/1/2 292/1/2
f 284/1/2 291/1/2 293/1/2
f 291/2/2 292/2/2 293/2/2
f 293/2/2 292/2/2 294/2/2
f 288/1/2 290/1/2 295/1/2
f 284/1/2 293/1/2 296/1/2
f 293/1/2 294/1/2 296/1/2
f 296/1/2 294/1/2 297/1/2
f 288/1/2 295/1/2 300/1/2
f 300/1/2 295/1/2 301/1/2
f 297/1/2 294/1/2 302/1/2
f 302/1/2 294/1/2 303/1/2
f 298/3/2 299/3/2 306/3/2
f 306/3/2 299/3/2 307/3/2
f 304/3/2 305/3/2 308/3/2
f 308/3/2 305/3/2 309/3/2
f 306/4/2 307/4/2 311/4/2
f 311/4/2 307/4/2 312/4/2
f 308/4/2 309/4/2 313/4/2
f 313/4/2 309/4/2 314/4/2
f 310/4/2 311/4/2 316/4/2
f 316/4/2 311/4/2 317/4/2
f 314/4/2 315/4/2 318/4/2
f 318/4/2 315/4/2 319/4/2
f 320/4/2 321/4/2 324/4/2
f 324/4/2 321/4/2 325/4/2
f 322/4/2 323/4/2 328/4/2
f 328/4/2 323/4/2 329/4/2
f 325/4/2 326/4/2 330/4/2
f 330/4/2 326/4/2 331/4/2
f 327/4/2 328/4/2 332/4/2
f 332/4/2 328/4/2 333/4/2
f 330/3/2 331/3/2 334/3/2
f 334/3/2 331/3/2 335/3/2
f 332/3/2 333/3/2 338/3/2
f 338/3/2 333/3/2 339/3/2
f 336/1/2 337/1/2 340/1/2
f 340/1/2 337/1/2 341/1/2
f 340/2/2 341/2/2 342/2/2
f 341/1/2 337/1/2 342/1/2
f 342/1/2 337/1/2 343/1/2
f 340/2/2 342/2/2 344/2/2
f 342/2/2 343/2/2 344/2/2
f 344/2/2 343/2/2 345/2/2
f 343/1/2 337/1/2 346/1/2
f 345/2/2 343/2/2 346/2/2
f 346/1/2 337/1/2 347/1/2
f 344/1/2 345/1/2 348/1/2
f 345/2/2 346/2/2 348/2/2
f 346/2/2 347/2/2 348/2/2
f 348/2/2 347/2/2 349/2/2
f 344/1/2 348/1/2 352/1/2
f 348/1/2 349/1/2 352/1/2
f 352/1/2 349/1/2 353/1/2
f 350/3/2 351/3/2 356/3/2
f 356/3/2 351/3/2 357/3/2
f 354/3/2 355/3/2 358/3/2
f 358/3/2 355/3/2 359/3/2
f 356/4/2 357/4/2 361/4/2
f 361/4/2 357/4/2 362/4/2
f 358/4/2 359/4/2 363/4/2
f 363/4/2 359/4/2 364/4/2
f 360/4/2 361/4/2 366/4/2
f 366/4/2 361/4/2 367/4/2
f 364/4/2 365/4/2 368/4/2
f 368/4/2 365/4/2 369/4/2
f 370/4/2 371/4/2 374/4/2
f 374/4/2 371/4/2 375/4/2
f 372/4/2 373/4/2 376/4/2
f 376/4/2 373/4/2 377/4/2
f 375/4/2 376/4/2 378/4/2
f 378/4/2 376/4/2 379/4/2
f 378/3/2 379/3/2 380/3/2
f 380/3/2 379/3/2 381/3/2
f 382/3/2 383/3/2 384/3/2
f 384/3/2 383/3/2 385/3/2
f 384/4/2 385/4/2 387/4/2
f 387/4/2 385/4/2 388/4/2
f 386/4/2 387/4/2 390/4/2
f 390/4/2 387/4/2 391/4/2
f 388/4/2 389/4/2 392/4/2
f 392/4/2 389/4/2 393/4/2
f 394/4/2 395/4/2 396/4/2
f 396/4/2 395/4/2 397/4/2
f 398/4/2 399/4/2 400/4/2
f 400/4/2 399/4/2 401/4/2
f 406/4/3 403/4/3 402/4/3
f 407/4/3 403/4/3 406/4/3
f 408/4/3 405/4/3 404/4/3
f 409/4/3 405/4/3 408/4/3
f 414/4/3 411/4/3 410/4/3
f 415/4/3 411/4/3 414/4/3
f 420/4/3 413/4/3 412/4/3
f 421/4/3 413/4/3 420/4/3
f 423/4/3 416/4/3 415/4/3
f 424/3/3 417/3/3 416/3/3
f 424/4/3 416/4/3 423/4/3
f 425/3/3 417/3/3 424/3/3
f 426/3/3 419/3/3 418/3/3
f 427/4/3 420/4/3 419/4/3
f 427/3/3 419/3/3 426/3/3
f 428/4/3 420/4/3 427/4/3
f 430/4/3 423/4/3 422/4/3
f 431/4/3 423/4/3 430/4/3
f 432/4/3 429/4/3 428/4/3
f 433/4/3 429/4/3 432/4/3
f 438/4/3 435/4/3 434/4/3
f 439/4/3 435/4/3 438/4/3
f 444/4/3 437/4/3 436/4/3
f 445/4/3 437/4/3 444/4/3
f 446/4/3 440/4/3 439/4/3
f 447/3/3 441/3/3 440/3/3
f 447/4/3 440/4/3 446/4/3
f 448/3/3 441/3/3 447/3/3
f 449/3/3 443/3/3 442/3/3
f 450/4/3 444/4/3 443/4/3
f 450/3/3 443/3/3 449/3/3
f 451/4/3 444/4/3 450/4/3
f 454/1/3 453/1/3 452/1/3
f 455/1/3 453/1/3 454/1/3
f 456/1/3 454/1/3 452/1/3
f 457/2/3 455/2/3 454/2/3
f 457/1/3 454/1/3 456/1/3
f 458/1/3 456/1/3 452/1/3
f 459/2/3 457/2/3 456/2/3
f 459/1/3 456/1/3 458/1/3
f 460/1/3 453/1/3 455/1/3
f 460/2/3 457/2/3 459/2/3
f 460/2/3 455/2/3 457/2/3
f 461/1/3 453/1/3 460/1/3
f 469/4/3 463/4/3 462/4/3
f 470/3/3 464/3/3 463/3/3
f 470/4/3 463/4/3 469/4/3
f 471/3/3 464/3/3 470/3/3
f 472/3/3 466/3/3 465/3/3
f 473/4/3 467/4/3 466/4/3
f 473/3/3 466/3/3 472/3/3
f 474/4/3 467/4/3 473/4/3
f 476/4/3 469/4/3 468/4/3
f 477/4/3 469/4/3 476/4/3
f 478/4/3 475/4/3 474/4/3
f 479/4/3 475/4/3 478/4/3
f 484/1/3 481/1/3 480/1/3
f 484/2/3 482/2/3 481/2/3
f 485/1/3 483/1/3 482/1/3
f 485/2/3 482/2/3 484/2/3
f 486/1/3 484/1/3 480/1/3
f 486/1/3 485/1/3 484/1/3
f 487/1/3 483/1/3 485/1/3
f 487/1/3 485/1/3 486/1/3
f 492/1/3 489/1/3 488/1/3
f 492/1/3 491/1/3 490/1/3
f 492/1/3 490/1/3 489/1/3
f 493/1/3 491/1/3 492/1/3
f 498/4/3 495/4/3 494/4/3
f 499/4/3 495/4/3 498/4/3
f 504/4/3 497/4/3 496/4/3
f 505/4/3 497/4/3 504/4/3
f 506/4/3 500/4/3 499/4/3
f 507/3/3 501/3/3 500/3/3
f 507/4/3 500/4/3 506/4/3
f 508/3/3 501/3/3 507/3/3
f 509/3/3 503/3/3 502/3/3
f 510/4/3 504/4/3 503/4/3
f 510/3/3 503/3/3 509/3/3
f 511/4/3 504/4/3 510/4/3
f 519/4/3 513/4/3 512/4/3
f 520/3/3 514/3/3 513/3/3
f 520/4/3 513/4/3 519/4/3
f 521/3/3 514/3/3 520/3/3
f 522/3/3 516/3/3 515/3/3
f 523/4/3 517/4/3 516/4/3
f 523/3/3 516/3/3 522/3/3
f 524/4/3 517/4/3 523/4/3
f 526/4/3 519/4/3 518/4/3
f 527/4/3 519/4/3 526/4/3
f 528/4/3 525/4/3 524/4/3
f 529/4/3 525/4/3 528/4/3
f 532/1/3 531/1/3 530/1/3
f 533/1/3 531/1/3 532/1/3
f 534/1/3 531/1/3 533/1/3
f 535/1/3 531/1/3 534/1/3
f 540/2/3 537/2/3 536/2/3
f 540/2/3 538/2/3 537/2/3
f 541/1/3 539/1/3 538/1/3
f 541/2/3 538/2/3 540/2/3
f 542/1/3 539/1/3 541/1/3
f 547/4/3 544/4/3 543/4/3
f 548/4/3 544/4/3 547/4/3
f 553/4/3 546/4/3 545/4/3
f 554/4/3 546/4/3 553/4/3
f 555/4/3 549/4/3 548/4/3
f 556/3/3 550/3/3 549/3/3
f 556/4/3 549/4/3 555/4/3
f 557/3/3 550/3/3 556/3/3
f 558/3/3 552/3/3 551/3/3
f 559/4/3 553/4/3 552/4/3
f 559/3/3 552/3/3 558/3/3
f 560/4/3 553/4/3 559/4/3
f 568/4/3 562/4/3 561/4/3
f 569/3/3 563/3/3 562/3/3
f 569/4/3 562/4/3 568/4/3
f 570/3/3 563/3/3 569/3/3
f 571/3/3 565/3/3 564/3/3
f 572/4/3 566/4/3 565/4/3
f 572/3/3 565/3/3 571/3/3
f 573/4/3 566/4/3 572/4/3
f 575/4/3 568/4/3 567/4/3
f 576/4/3 568/4/3 575/4/3
f 577/4/3 574/4/3 573/4/3
f 578/4/3 574/4/3 577/4/3
f 581/1/3 580/1/3 579/1/3
f 582/1/3 580/1/3 581/1/3
f 587/1/3 584/1/3 583/1/3
f 588/2/3 585/2/3 584/2/3
f 588/1/3 584/1/3 587/1/3
f 589/1/3 586/1/3 585/1/3
f 589/2/3 585/2/3 588/2/3
f 590/1/3 586/1/3 589/1/3
f 591/1/4 592/1/4 595/1/4
f 595/1/4 592/1/4 596/1/4
f 592/2/4 593/2/4 597/2/4
f 596/1/4 592/1/4 597/1/4
f 597/2/4 593/2/4 598/2/4
f 593/1/4 594/1/4 599/1/4
f 598/2/4 593/2/4 599/2/4
f 599/1/4 594/1/4 600/1/4
f 601/1/4 602/1/4 605/1/4
f 602/2/4 603/2/4 606/2/4
f 605/1/4 602/1/4 606/1/4
f 603/1/4 604/1/4 607/1/4
f 606/2/4 603/2/4 607/2/4
f 607/1/4 604/1/4 608/1/4
f 609/4/4 610/4/4 613/4/4
f 613/4/4 610/4/4 614/4/4
f 611/4/4 612/4/4 619/4/4
f 619/4/4 612/4/4 620/4/4
f 614/4/4 615/4/4 621/4/4
f 615/3/4 616/3/4 622/3/4
f 621/4/4 615/4/4 622/4/4
f 622/3/4 616/3/4 623/3/4
f 617/3/4 618/3/4 624/3/4
f 618/4/4 619/4/4 625/4/4
f 624/3/4 618/3/4 625/3/4
f 625/4/4 619/4/4 626/4/4
f 627/4/4 628/4/4 634/4/4
f 628/3/4 629/3/4 635/3/4
f 634/4/4 628/4/4 635/4/4
f 635/3/4 629/3/4 636/3/4
f 630/3/4 631/3/4 637/3/4
f 631/4/4 632/4/4 638/4/4
f 637/3/4 631/3/4 638/3/4
f 638/4/4 632/4/4 639/4/4
f 633/4/4 634/4/4 641/4/4
f 641/4/4 634/4/4 642/4/4
f 639/4/4 640/4/4 643/4/4
f 643/4/4 640/4/4 644/4/4
f 645/1/4 646/1/4 647/1/4
f 647/1/4 646/1/4 648/1/4
f 648/1/4 646/1/4 649/1/4
f 649/1/4 646/1/4 650/1/4
f 651/1/4 652/1/4 655/1/4
f 652/2/4 653/2/4 656/2/4
f 655/1/4 652/1/4 656/1/4
f 653/1/4 654/1/4 657/1/4
f 656/2/4 653/2/4 657/2/4
f 657/1/4 654/1/4 658/1/4
f 659/4/4 660/4/4 663/4/4
f 663/4/4 660/4/4 664/4/4
f 661/4/4 662/4/4 669/4/4
f 669/4/4 662/4/4 670/4/4
f 664/4/4 665/4/4 671/4/4
f 665/3/4 666/3/4 672/3/4
f 671/4/4 665/4/4 672/4/4
f 672/3/4 666/3/4 673/3/4
f 667/3/4 668/3/4 674/3/4
f 668/4/4 669/4/4 675/4/4
f 674/3/4 668/3/4 675/3/4
f 675/4/4 669/4/4 676/4/4
f 677/4/4 678/4/4 684/4/4
f 678/3/4 679/3/4 685/3/4
f 684/4/4 678/4/4 685/4/4
f 685/3/4 679/3/4 686/3/4
f 680/3/4 681/3/4 687/3/4
f 681/4/4 682/4/4 688/4/4
f 687/3/4 681/3/4 688/3/4
f 688/4/4 682/4/4 689/4/4
f 683/4/4 684/4/4 691/4/4
f 691/4/4 684/4/4 692/4/4
f 689/4/4 690/4/4 693/4/4
f 693/4/4 690/4/4 694/4/4
f 696/2/4 697/2/4 699/2/4
f 697/1/4 698/1/4 700/1/4
f 699/2/4 697/2/4 700/2/4
f 695/1/4 696/1/4 701/1/4
f 696/2/4 699/2/4 702/2/4
f 701/1/4 696/1/4 702/1/4
f 699/1/4 700/1/4 703/1/4
f 702/2/4 699/2/4 703/2/4
f 700/1/4 698/1/4 704/1/4
f 703/1/4 700/1/4 704/1/4
f 705/1/4 706/1/4 709/1/4
f 707/1/4 708/1/4 709/1/4
f 706/1/4 707/1/4 709/1/4
f 709/1/4 708/1/4 710/1/4
f 711/4/4 712/4/4 715/4/4
f 715/4/4 712/4/4 716/4/4
f 713/4/4 714/4/4 721/4/4
f 721/4/4 714/4/4 722/4/4
f 716/4/4 717/4/4 723/4/4
f 717/3/4 718/3/4 724/3/4
f 723/4/4 717/4/4 724/4/4
f 724/3/4 718/3/4 725/3/4
f 719/3/4 720/3/4 726/3/4
f 720/4/4 721/4/4 727/4/4
f 726/3/4 720/3/4 727/3/4
f 727/4/4 721/4/4 728/4/4
f 729/1/4 730/1/4 731/1/4
f 731/1/4 730/1/4 732/1/4
f 729/1/4 731/1/4 733/1/4
f 731/2/4 732/2/4 734/2/4
f 733/1/4 731/1/4 734/1/4
f 734/2/4 732/2/4 735/2/4
f 732/1/4 730/1/4 736/1/4
f 735/2/4 732/2/4 736/2/4
f 729/1/4 733/1/4 737/1/4
f 734/2/4 735/2/4 738/2/4
f 737/1/4 733/1/4 738/1/4
f 733/2/4 734/2/4 738/2/4
f 735/1/4 736/1/4 739/1/4
f 738/2/4 735/2/4 739/2/4
f 736/1/4 730/1/4 740/1/4
f 739/1/4 736/1/4 740/1/4
f 741/4/4 742/4/4 748/4/4
f 742/3/4 743/3/4 749/3/4
f 748/4/4 742/4/4 749/4/4
f 749/3/4 743/3/4 750/3/4
f 744/3/4 745/3/4 751/3/4
f 745/4/4 746/4/4 752/4/4
f 751/3/4 745/3/4 752/3/4
f 752/4/4 746/4/4 753/4/4
f 747/4/4 748/4/4 755/4/4
f 755/4/4 748/4/4 756/4/4
f 753/4/4 754/4/4 757/4/4
f 757/4/4 754/4/4 758/4/4
f 759/4/4 760/4/4 763/4/4
f 763/4/4 760/4/4 764/4/4
f 761/4/4 762/4/4 769/4/4
f 769/4/4 762/4/4 770/4/4
f 764/4/4 765/4/4 772/4/4
f 765/3/4 766/3/4 773/3/4
f 772/4/4 765/4/4 773/4/4
f 773/3/4 766/3/4 774/3/4
f 767/3/4 768/3/4 775/3/4
f 768/4/4 769/4/4 776/4/4
f 775/3/4 768/3/4 776/3/4
f 776/4/4 769/4/4 777/4/4
f 771/4/4 772/4/4 779/4/4
f 779/4/4 772/4/4 780/4/4
f 777/4/4 778/4/4 781/4/4
f 781/4/4 778/4/4 782/4/4
f 783/4/4 784/4/4 787/4/4
f 787/4/4 784/4/4 788/4/4
f 785/4/4 786/4/4 789/4/4
f 789/4/4 786/4/4 790/4/4
f 794/4/5 792/4/5 791/4/5
f 795/4/5 792/4/5 794/4/5
f 798/4/5 794/4/5 793/4/5
f 798/4/5 796/4/5 795/4/5
f 798/4/5 795/4/5 794/4/5
f 799/4/5 796/4/5 798/4/5
f 802/4/5 798/4/5 797/4/5
f 802/4/5 800/4/5 799/4/5
f 802/4/5 799/4/5 798/4/5
f 803/4/5 800/4/5 802/4/5
f 806/4/5 802/4/5 801/4/5
f 806/4/5 804/4/5 803/4/5
f 806/4/5 803/4/5 802/4/5
f 807/4/5 804/4/5 806/4/5
f 809/4/5 806/4/5 805/4/5
f 809/4/5 808/4/5 807/4/5
f 809/4/5 807/4/5 806/4/5
f 810/4/5 808/4/5 809/4/5
f 811/4/5 808/4/5 810/4/5
f 812/4/5 808/4/5 811/4/5
f 813/4/5 811/4/5 810/4/5
f 814/4/5 811/4/5 813/4/5
f 815/4/5 811/4/5 814/4/5
f 816/4/5 811/4/5 815/4/5
f 817/4/5 815/4/5 814/4/5
f 818/4/5 815/4/5 817/4/5
f 819/4/5 815/4/5 818/4/5
f 820/4/5 815/4/5 819/4/5
f 821/4/5 819/4/5 818/4/5
f 822/4/5 819/4/5 821/4/5
f 823/4/5 819/4/5 822/4/5
f 824/4/5 819/4/5 823/4/5
f 825/4/5 823/4/5 822/4/5
f 826/4/5 823/4/5 825/4/5
f 830/3/5 828/3/5 827/3/5
f 831/3/5 828/3/5 830/3/5
f 832/3/5 828/3/5 831/3/5
f 833/3/5 828/3/5 832/3/5
f 835/3/5 830/3/5 829/3/5
f 835/3/5 831/3/5 830/3/5
f 836/3/5 831/3/5 835/3/5
f 837/3/5 834/3/5 833/3/5
f 837/3/5 833/3/5 832/3/5
f 838/3/5 834/3/5 837/3/5
f 840/3/5 835/3/5 829/3/5
f 841/3/5 834/3/5 838/3/5
f 843/3/5 840/3/5 839/3/5
f 843/3/5 835/3/5 840/3/5
f 844/3/5 835/3/5 843/3/5
f 845/3/5 842/3/5 841/3/5
f 845/3/5 841/3/5 838/3/5
f 846/3/5 842/3/5 845/3/5
f 848/3/5 843/3/5 839/3/5
f 849/3/5 842/3/5 846/3/5
f 851/3/5 848/3/5 847/3/5
f 851/3/5 843/3/5 848/3/5
f 852/3/5 843/3/5 851/3/5
f 853/3/5 850/3/5 849/3/5
f 853/3/5 849/3/5 846/3/5
f 854/3/5 850/3/5 853/3/5
f 855/3/5 851/3/5 847/3/5
f 858/3/5 850/3/5 854/3/5
f 859/3/5 856/3/5 855/3/5
f 859/3/5 855/3/5 847/3/5
f 860/3/5 856/3/5 859/3/5
f 861/3/5 858/3/5 857/3/5
f 861/3/5 850/3/5 858/3/5
f 862/3/5 850/3/5 861/3/5
f 863/3/5 856/3/5 860/3/5
f 866/3/5 861/3/5 857/3/5
f 867/3/5 864/3/5 863/3/5
f 867/3/5 863/3/5 860/3/5
f 868/3/5 864/3/5 867/3/5
f 869/3/5 866/3/5 865/3/5
f 869/3/5 861/3/5 866/3/5
f 870/3/5 861/3/5 869/3/5
f 871/3/5 864/3/5 868/3/5
f 874/3/5 869/3/5 865/3/5
f 875/3/5 872/3/5 871/3/5
f 875/3/5 871/3/5 868/3/5
f 876/3/5 872/3/5 875/3/5
f 877/3/5 872/3/5 876/3/5
f 878/3/5 874/3/5 873/3/5
f 879/3/5 874/3/5 878/3/5
f 880/3/5 869/3/5 874/3/5
f 880/3/5 874/3/5 879/3/5
f 881/3/5 877/3/5 876/3/5
f 881/3/5 879/3/5 878/3/5
f 881/3/5 878/3/5 877/3/5
f 882/3/5 879/3/5 881/3/5
f 886/4/5 884/4/5 883/4/5
f 887/4/5 884/4/5 886/4/5
f 890/4/5 886/4/5 885/4/5
f 891/4/5 886/4/5 890/4/5
f 892/4/5 888/4/5 887/4/5
f 893/4/5 888/4/5 892/4/5
f 896/4/5 890/4/5 889/4/5
f 897/4/5 890/4/5 896/4/5
f 898/4/5 894/4/5 893/4/5
f 899/4/5 894/4/5 898/4/5
f 902/4/5 896/4/5 895/4/5
f 903/4/5 896/4/5 902/4/5
f 904/4/5 900/4/5 899/4/5
f 905/4/5 900/4/5 904/4/5
f 907/4/5 902/4/5 901/4/5
f 908/4/5 902/4/5 907/4/5
f 911/4/5 906/4/5 905/4/5
f 912/4/5 906/4/5 911/4/5
f 913/4/5 909/4/5 908/4/5
f 914/4/5 909/4/5 913/4/5
f 917/4/5 911/4/5 910/4/5
f 918/4/5 911/4/5 917/4/5
f 919/4/5 915/4/5 914/4/5
f 920/4/5 915/4/5 919/4/5
f 923/4/5 917/4/5 916/4/5
f 924/4/5 917/4/5 923/4/5
f 925/4/5 921/4/5 920/4/5
f 926/4/5 921/4/5 925/4/5
f 927/4/5 923/4/5 922/4/5
f 928/4/5 923/4/5 927/4/5
f 929/4/5 927/4/5 926/4/5
f 930/4/5 927/4/5 929/4/5
f 931/4/6 932/4/6 934/4/6
f 934/4/6 932/4/6 935/4/6
f 933/4/6 934/4/6 938/4/6
f 938/4/6 934/4/6 939/4/6
f 935/4/6 936/4/6 940/4/6
f 940/4/6 936/4/6 941/4/6
f 937/4/6 938/4/6 944/4/6
f 944/4/6 938/4/6 945/4/6
f 941/4/6 942/4/6 946/4/6
f 946/4/6 942/4/6 947/4/6
f 943/4/6 944/4/6 950/4/6
f 950/4/6 944/4/6 951/4/6
f 947/4/6 948/4/6 952/4/6
f 952/4/6 948/4/6 953/4/6
f 949/4/6 950/4/6 955/4/6
f 955/4/6 950/4/6 956/4/6
f 953/4/6 954/4/6 959/4/6
f 959/4/6 954/4/6 960/4/6
f 956/4/6 957/4/6 961/4/6
f 961/4/6 957/4/6 962/4/6
f 958/4/6 959/4/6 965/4/6
f 965/4/6 959/4/6 966/4/6
f 962/4/6 963/4/6 967/4/6
f 967/4/6 963/4/6 968/4/6
f 964/4/6 965/4/6 971/4/6
f 971/4/6 965/4/6 972/4/6
f 968/4/6 969/4/6 973/4/6
f 973/4/6 969/4/6 974/4/6
f 970/4/6 971/4/6 975/4/6
f 975/4/6 971/4/6 976/4/6
f 974/4/6 975/4/6 977/4/6
f 977/4/6 975/4/6 978/4/6
f 979/3/6 980/3/6 982/3/6
f 982/3/6 980/3/6 983/3/6
f 983/3/6 980/3/6 984/3/6
f 984/3/6 980/3/6 985/3/6
f 981/3/6 982/3/6 987/3/6
f 982/3/6 983/3/6 987/3/6
f 987/3/6 983/3/6 988/3/6
f 985/3/6 986/3/6 989/3/6
f 984/3/6 985/3/6 989/3/6
f 989/3/6 986/3/6 990/3/6
f 981/3/6 987/3/6 992/3/6
f 990/3/6 986/3/6 993/3/6
f 991/3/6 992/3/6 995/3/6
f 992/3/6 987/3/6 995/3/6
f 995/3/6 987/3/6 996/3/6
f 993/3/6 994/3/6 997/3/6
f 990/3/6 993/3/6 997/3/6
f 997/3/6 994/3/6 998/3/6
f 991/3/6 995/3/6 1000/3/6
f 998/3/6 994/3/6 1001/3/6
f 1001/3/6 994/3/6 1002/3/6
f 999/3/6 1000/3/6 1004/3/6
f 1000/3/6 995/3/6 1004/3/6
f 1004/3/6 995/3/6 1005/3/6
f 1002/3/6 1003/3/6 1006/3/6
f 1001/3/6 1002/3/6 1006/3/6
f 1006/3/6 1003/3/6 1007/3/6
f 999/3/6 1004/3/6 1008/3/6
f 1007/3/6 1003/3/6 1011/3/6
f 1008/3/6 1009/3/6 1012/3/6
f 999/3/6 1008/3/6 1012/3/6
f 1012/3/6 1009/3/6 1013/3/6
f 1010/3/6 1011/3/6 1014/3/6
f 1011/3/6 1003/3/6 1014/3/6
f 1014/3/6 1003/3/6 1015/3/6
f 1013/3/6 1009/3/6 1016/3/6
f 1010/3/6 1014/3/6 1019/3/6
f 1016/3/6 1017/3/6 1020/3/6
f 1013/3/6 1016/3/6 1020/3/6
f 1020/3/6 1017/3/6 1021/3/6
f 1018/3/6 1019/3/6 1022/3/6
f 1019/3/6 1014/3/6 1022/3/6
f 1022/3/6 1014/3/6 1023/3/6
f 1021/3/6 1017/3/6 1024/3/6
f 1018/3/6 1022/3/6 1027/3/6
f 1024/3/6 1025/3/6 1028/3/6
f 1021/3/6 1024/3/6 1028/3/6
f 1028/3/6 1025/3/6 1029/3/6
f 1029/3/6 1025/3/6 1030/3/6
f 1026/3/6 1027/3/6 1031/3/6
f 1031/3/6 1027/3/6 1032/3/6
f 1027/3/6 1022/3/6 1033/3/6
f 1032/3/6 1027/3/6 1033/3/6
f 1029/3/6 1030/3/6 1034/3/6
f 1031/3/6 1032/3/6 1034/3/6
f 1030/3/6 1031/3/6 1034/3/6
f 1034/3/6 1032/3/6 1035/3/6
f 1036/4/6 1037/4/6 1039/4/6
f 1039/4/6 1037/4/6 1040/4/6
f 1038/4/6 1039/4/6 1043/4/6
f 1040/4/6 1041/4/6 1043/4/6
f 1039/4/6 1040/4/6 1043/4/6
f 1043/4/6 1041/4/6 1044/4/6
f 1042/4/6 1043/4/6 1047/4/6
f 1044/4/6 1045/4/6 1047/4/6
f 1043/4/6 1044/4/6 1047/4/6
f 1047/4/6 1045/4/6 1048/4/6
f 1046/4/6 1047/4/6 1051/4/6
f 1048/4/6 1049/4/6 1051/4/6
f 1047/4/6 1048/4/6 1051/4/6
f 1051/4/6 1049/4/6 1052/4/6
f 1050/4/6 1051/4/6 1054/4/6
f 1052/4/6 1053/4/6 1054/4/6
f 1051/4/6 1052/4/6 1054/4/6
f 1054/4/6 1053/4/6 1055/4/6
f 1055/4/6 1053/4/6 1056/4/6
f 1056/4/6 1053/4/6 1057/4/6
f 1055/4/6 1056/4/6 1058/4/6
f 1058/4/6 1056/4/6 1059/4/6
f 1059/4/6 1056/4/6 1060/4/6
f 1060/4/6 1056/4/6 1061/4/6
f 1059/4/6 1060/4/6 1062/4/6
f 1062/4/6 1060/4/6 1063/4/6
f 1063/4/6 1060/4/6 1064/4/6
f 1064/4/6 1060/4/6 1065/4/6
f 1063/4/6 1064/4/6 1066/4/6
f 1066/4/6 1064/4/6 1067/4/6
f 1067/4/6 1064/4/6 1068/4/6
f 1068/4/6 1064/4/6 1069/4/6
f 1067/4/6 1068/4/6 1070/4/6
f 1070/4/6 1068/4/6 1071/4/6
