# MagicaVoxel @ Ephtracy

# group
o 

# material
mtllib trans_10_1.mtl
usemtl palette

# normals
vn -1 0 0
vn 1 0 0
vn 0 0 1
vn 0 0 -1
vn 0 -1 0
vn 0 1 0

# texcoords
vt 0.939453 0.5
vt 0.970703 0.5
vt 0.974609 0.5

# verts
v -0.7 0 0.4
v -0.7 0 0.3
v -0.7 0.1 0.4
v -0.7 0.1 0.3
v -0.7 0.7 0.4
v -0.7 0.7 0.3
v -0.7 0.8 0.3
v -0.7 0.8 0.2
v -0.7 0.9 0.4
v -0.7 0.9 0.3
v -0.7 1 0.3
v -0.7 1 0.2
v -0.6 0.7 0.3
v -0.6 0.7 0.2
v -0.6 0.8 0.6
v -0.6 0.8 0.4
v -0.6 0.8 0.3
v -0.6 0.8 0.2
v -0.6 0.8 0.1
v -0.6 0.9 0.6
v -0.6 0.9 0.4
v -0.6 0.9 0.3
v -0.6 0.9 0.2
v -0.6 0.9 0.1
v -0.6 1 0.4
v -0.6 1 0.3
v -0.6 0 0.4
v -0.6 0 0.3
v -0.6 0.1 0.4
v -0.6 0.1 0.3
v -0.6 0.7 0.4
v -0.6 0.7 0.3
v -0.5 0.7 0.4
v -0.5 0.7 0.2
v -0.5 0.8 0.6
v -0.5 0.8 0.4
v -0.5 0.8 0.3
v -0.5 0.8 0.2
v -0.5 0.8 0.1
v -0.5 0.9 0.6
v -0.5 0.9 0.4
v -0.5 0.9 0.3
v -0.5 0.9 0.2
v -0.5 0.9 0.1
v -0.5 1 0.4
v -0.5 1 0.2
v -0.4 0.8 0.4
v -0.4 0.8 0.3
v -0.4 0.9 0.4
v -0.4 0.9 0.3
v -0.6 0.8 0.6
v -0.6 0.9 0.6
v -0.5 0.8 0.6
v -0.5 0.9 0.6
v -0.7 0 0.4
v -0.7 0.1 0.4
v -0.7 0.7 0.4
v -0.7 0.9 0.4
v -0.6 0 0.4
v -0.6 0.1 0.4
v -0.6 0.7 0.4
v -0.6 0.8 0.4
v -0.6 0.9 0.4
v -0.6 1 0.4
v -0.5 0.7 0.4
v -0.5 0.8 0.4
v -0.5 0.9 0.4
v -0.5 1 0.4
v -0.4 0.8 0.4
v -0.4 0.9 0.4
v -0.7 0.9 0.3
v -0.7 1 0.3
v -0.6 0.9 0.3
v -0.6 1 0.3
v -0.7 0 0.3
v -0.7 0.1 0.3
v -0.7 0.7 0.3
v -0.7 0.8 0.3
v -0.6 0 0.3
v -0.6 0.1 0.3
v -0.6 0.7 0.3
v -0.6 0.8 0.3
v -0.5 0.8 0.3
v -0.5 0.9 0.3
v -0.4 0.8 0.3
v -0.4 0.9 0.3
v -0.7 0.8 0.2
v -0.7 1 0.2
v -0.6 0.7 0.2
v -0.6 0.8 0.2
v -0.6 0.9 0.2
v -0.5 0.7 0.2
v -0.5 0.8 0.2
v -0.5 0.9 0.2
v -0.5 1 0.2
v -0.6 0.8 0.1
v -0.6 0.9 0.1
v -0.5 0.8 0.1
v -0.5 0.9 0.1
v -0.7 0 0.4
v -0.6 0 0.4
v -0.7 0 0.3
v -0.6 0 0.3
v -0.6 0.7 0.4
v -0.5 0.7 0.4
v -0.6 0.7 0.3
v -0.6 0.7 0.2
v -0.5 0.7 0.2
v -0.6 0.8 0.6
v -0.5 0.8 0.6
v -0.6 0.8 0.4
v -0.5 0.8 0.4
v -0.4 0.8 0.4
v -0.7 0.8 0.3
v -0.6 0.8 0.3
v -0.5 0.8 0.3
v -0.4 0.8 0.3
v -0.7 0.8 0.2
v -0.6 0.8 0.2
v -0.5 0.8 0.2
v -0.6 0.8 0.1
v -0.5 0.8 0.1
v -0.6 0.9 0.6
v -0.5 0.9 0.6
v -0.7 0.9 0.4
v -0.6 0.9 0.4
v -0.5 0.9 0.4
v -0.4 0.9 0.4
v -0.7 0.9 0.3
v -0.6 0.9 0.3
v -0.5 0.9 0.3
v -0.4 0.9 0.3
v -0.6 0.9 0.2
v -0.5 0.9 0.2
v -0.6 0.9 0.1
v -0.5 0.9 0.1
v -0.6 1 0.4
v -0.5 1 0.4
v -0.7 1 0.3
v -0.6 1 0.3
v -0.7 1 0.2
v -0.5 1 0.2

# faces
f 3/1/1 2/1/1 1/1/1
f 4/1/1 2/1/1 3/1/1
f 5/2/1 4/2/1 3/2/1
f 6/2/1 4/2/1 5/2/1
f 7/3/1 6/3/1 5/3/1
f 9/3/1 7/3/1 5/3/1
f 9/3/1 8/3/1 7/3/1
f 10/3/1 8/3/1 9/3/1
f 11/3/1 8/3/1 10/3/1
f 12/3/1 8/3/1 11/3/1
f 17/3/1 14/3/1 13/3/1
f 18/3/1 14/3/1 17/3/1
f 20/3/1 16/3/1 15/3/1
f 21/3/1 16/3/1 20/3/1
f 23/3/1 19/3/1 18/3/1
f 24/3/1 19/3/1 23/3/1
f 25/3/1 22/3/1 21/3/1
f 26/3/1 22/3/1 25/3/1
f 27/1/2 28/1/2 29/1/2
f 29/1/2 28/1/2 30/1/2
f 29/2/2 30/2/2 31/2/2
f 31/2/2 30/2/2 32/2/2
f 33/3/2 34/3/2 36/3/2
f 36/3/2 34/3/2 37/3/2
f 37/3/2 34/3/2 38/3/2
f 35/3/2 36/3/2 40/3/2
f 40/3/2 36/3/2 41/3/2
f 38/3/2 39/3/2 42/3/2
f 37/3/2 38/3/2 42/3/2
f 42/3/2 39/3/2 43/3/2
f 43/3/2 39/3/2 44/3/2
f 41/3/2 42/3/2 45/3/2
f 42/3/2 43/3/2 45/3/2
f 45/3/2 43/3/2 46/3/2
f 47/3/2 48/3/2 49/3/2
f 49/3/2 48/3/2 50/3/2
f 53/3/3 52/3/3 51/3/3
f 54/3/3 52/3/3 53/3/3
f 59/1/3 56/1/3 55/1/3
f 60/2/3 57/2/3 56/2/3
f 60/1/3 56/1/3 59/1/3
f 61/3/3 58/3/3 57/3/3
f 61/2/3 57/2/3 60/2/3
f 62/3/3 58/3/3 61/3/3
f 63/3/3 58/3/3 62/3/3
f 65/3/3 62/3/3 61/3/3
f 66/3/3 62/3/3 65/3/3
f 67/3/3 64/3/3 63/3/3
f 68/3/3 64/3/3 67/3/3
f 69/3/3 67/3/3 66/3/3
f 70/3/3 67/3/3 69/3/3
f 73/3/3 72/3/3 71/3/3
f 74/3/3 72/3/3 73/3/3
f 75/1/4 76/1/4 79/1/4
f 76/2/4 77/2/4 80/2/4
f 79/1/4 76/1/4 80/1/4
f 77/3/4 78/3/4 81/3/4
f 80/2/4 77/2/4 81/2/4
f 81/3/4 78/3/4 82/3/4
f 83/3/4 84/3/4 85/3/4
f 85/3/4 84/3/4 86/3/4
f 87/3/4 88/3/4 90/3/4
f 90/3/4 88/3/4 91/3/4
f 89/3/4 90/3/4 92/3/4
f 92/3/4 90/3/4 93/3/4
f 91/3/4 88/3/4 94/3/4
f 94/3/4 88/3/4 95/3/4
f 96/3/4 97/3/4 98/3/4
f 98/3/4 97/3/4 99/3/4
f 102/1/5 101/1/5 100/1/5
f 103/1/5 101/1/5 102/1/5
f 106/3/5 105/3/5 104/3/5
f 107/3/5 105/3/5 106/3/5
f 108/3/5 105/3/5 107/3/5
f 111/3/5 110/3/5 109/3/5
f 112/3/5 110/3/5 111/3/5
f 116/3/5 113/3/5 112/3/5
f 117/3/5 113/3/5 116/3/5
f 118/3/5 115/3/5 114/3/5
f 119/3/5 115/3/5 118/3/5
f 121/3/5 120/3/5 119/3/5
f 122/3/5 120/3/5 121/3/5
f 123/3/6 124/3/6 126/3/6
f 126/3/6 124/3/6 127/3/6
f 125/3/6 126/3/6 129/3/6
f 129/3/6 126/3/6 130/3/6
f 127/3/6 128/3/6 131/3/6
f 131/3/6 128/3/6 132/3/6
f 133/3/6 134/3/6 135/3/6
f 135/3/6 134/3/6 136/3/6
f 137/3/6 138/3/6 140/3/6
f 139/3/6 140/3/6 141/3/6
f 140/3/6 138/3/6 142/3/6
f 141/3/6 140/3/6 142/3/6
