# MagicaVoxel @ Ephtracy

# group
o 

# material
mtllib trans_1_3.mtl
usemtl palette

# normals
vn -1 0 0
vn 1 0 0
vn 0 0 1
vn 0 0 -1
vn 0 -1 0
vn 0 1 0

# texcoords
vt 0.919922 0.5
vt 0.923828 0.5
vt 0.927734 0.5
vt 0.962891 0.5
vt 0.966797 0.5
vt 0.994141 0.5

# verts
v -1 0.3 0.4
v -1 0.3 0.1
v -1 0.3 -0.2
v -1 0.4 0.4
v -1 0.4 0.1
v -1 0.4 -0.2
v -1 0.5 0.4
v -1 0.5 0.1
v -1 0.5 -0.2
v -1 0.6 0.4
v -1 0.6 0.1
v -1 0.6 -0.2
v -1 1 0.2
v -1 1 -0.2
v -1 1.1 0.3
v -1 1.1 0.2
v -1 1.2 0.4
v -1 1.2 0.3
v -0.9 0.3 0.6
v -0.9 0.3 0.4
v -0.9 0.3 -0.2
v -0.9 0.3 -0.3
v -0.9 0.3 -0.4
v -0.9 0.4 0.6
v -0.9 0.4 0.4
v -0.9 0.4 -0.2
v -0.9 0.4 -0.3
v -0.9 0.4 -0.4
v -0.9 0.5 0.6
v -0.9 0.5 0.4
v -0.9 0.5 -0.2
v -0.9 0.5 -0.3
v -0.9 0.5 -0.4
v -0.9 0.6 0.6
v -0.9 0.6 0.5
v -0.9 0.6 0.4
v -0.9 0.6 -0.2
v -0.9 0.6 -0.3
v -0.9 0.6 -0.4
v -0.9 0.9 0.6
v -0.9 0.9 0.5
v -0.9 1 0.2
v -0.9 1 -0.1
v -0.9 1 -0.2
v -0.9 1 -0.3
v -0.9 1.1 0.5
v -0.9 1.1 0.4
v -0.9 1.1 0.3
v -0.9 1.1 0.2
v -0.9 1.1 -0.3
v -0.9 1.1 -0.4
v -0.9 1.2 0.3
v -0.9 1.2 -0.1
v -0.9 1.3 0.6
v -0.9 1.3 0.5
v -0.8 0.3 0.7
v -0.8 0.3 0.6
v -0.8 0.3 -0.4
v -0.8 0.3 -0.5
v -0.8 0.4 0.7
v -0.8 0.4 0.6
v -0.8 0.4 -0.4
v -0.8 0.4 -0.5
v -0.8 0.5 -0.4
v -0.8 0.5 -0.5
v -0.8 0.6 0.6
v -0.8 0.6 0.5
v -0.8 0.6 -0.4
v -0.8 0.6 -0.5
v -0.8 0.9 0.6
v -0.8 0.9 0.5
v -0.8 1 -0.1
v -0.8 1 -0.2
v -0.8 1 -0.4
v -0.8 1 -0.5
v -0.8 1.1 0.5
v -0.8 1.1 0.3
v -0.8 1.1 -0.1
v -0.8 1.1 -0.2
v -0.8 1.2 0.5
v -0.8 1.2 0.3
v -0.8 1.2 0
v -0.8 1.3 0.3
v -0.8 1.3 0
v -0.7 0 0.5
v -0.7 0 0.3
v -0.7 0 -0.1
v -0.7 0 -0.3
v -0.7 0.1 0.5
v -0.7 0.1 0.3
v -0.7 0.1 -0.1
v -0.7 0.1 -0.3
v -0.7 0.3 0.5
v -0.7 0.3 0.3
v -0.7 0.3 -0.1
v -0.7 0.3 -0.3
v -0.7 0.4 0.7
v -0.7 0.4 0.6
v -0.7 0.5 0.7
v -0.7 0.5 0.6
v -0.7 0.6 0.7
v -0.7 0.6 0.6
v -0.7 1 0.7
v -0.7 1 0.6
v -0.7 1 -0.2
v -0.7 1 -0.3
v -0.7 1.1 0.6
v -0.7 1.1 0.5
v -0.7 1.1 -0.1
v -0.7 1.1 -0.2
v -0.7 1.1 -0.3
v -0.7 1.2 0.5
v -0.7 1.2 0.3
v -0.7 1.2 0
v -0.7 1.2 -0.1
v -0.7 1.2 -0.3
v -0.7 1.3 0.3
v -0.7 1.3 0.1
v -0.7 1.3 0
v -0.7 1.3 -0.1
v -0.7 1.4 0.6
v -0.7 1.4 0.4
v -0.7 1.4 0.2
v -0.7 1.4 0.1
v -0.7 1.5 0.4
v -0.7 1.5 0.2
v -0.6 0.3 0.8
v -0.6 0.3 0.7
v -0.6 0.3 -0.5
v -0.6 0.3 -0.6
v -0.6 0.4 0.8
v -0.6 0.4 0.7
v -0.6 0.4 -0.5
v -0.6 0.4 -0.6
v -0.6 0.5 0.8
v -0.6 0.5 0.7
v -0.6 0.5 -0.5
v -0.6 0.5 -0.6
v -0.6 0.6 0.8
v -0.6 0.6 0.7
v -0.6 0.6 -0.5
v -0.6 0.6 -0.6
v -0.6 0.7 -0.5
v -0.6 0.7 -0.6
v -0.6 0.9 0.8
v -0.6 0.9 0.7
v -0.6 1 0.7
v -0.6 1 0.6
v -0.6 1.1 0.8
v -0.6 1.1 0.6
v -0.6 1.1 -0.3
v -0.6 1.1 -0.4
v -0.6 1.2 -0.1
v -0.6 1.2 -0.3
v -0.6 1.2 -0.4
v -0.6 1.3 0.1
v -0.6 1.3 -0.1
v -0.6 1.3 -0.3
v -0.6 1.4 0.6
v -0.6 1.4 0.5
v -0.6 1.4 0.2
v -0.6 1.4 0.1
v -0.6 1.5 0.6
v -0.6 1.5 0.5
v -0.6 1.5 0.4
v -0.6 1.5 0.3
v -0.6 1.5 0.2
v -0.6 1.5 0.1
v -0.6 1.6 0.4
v -0.6 1.6 0.3
v -0.6 1.6 0.2
v -0.6 1.6 0.1
v -0.6 1.7 0.2
v -0.6 1.7 -0.1
v -0.5 0.6 0.8
v -0.5 0.6 0.7
v -0.5 0.9 0.8
v -0.5 0.9 0.7
v -0.5 0.9 -0.4
v -0.5 0.9 -0.5
v -0.5 1.1 0.8
v -0.5 1.1 0.6
v -0.5 1.1 -0.4
v -0.5 1.1 -0.5
v -0.5 1.2 0.8
v -0.5 1.2 0.6
v -0.5 1.3 -0.1
v -0.5 1.3 -0.3
v -0.5 1.4 0.5
v -0.5 1.4 0.4
v -0.5 1.4 -0.2
v -0.5 1.4 -0.3
v -0.5 1.5 0.6
v -0.5 1.5 0.5
v -0.5 1.5 0.3
v -0.5 1.5 0.1
v -0.5 1.5 -0.2
v -0.5 1.5 -0.3
v -0.5 1.6 0.6
v -0.5 1.6 0.4
v -0.5 1.6 0.3
v -0.5 1.6 0.2
v -0.5 1.6 0.1
v -0.5 1.6 -0.2
v -0.5 1.6 -0.3
v -0.5 1.7 0.4
v -0.5 1.7 0.2
v -0.5 1.7 -0.1
v -0.5 1.8 0.2
v -0.5 1.8 0.1
v -0.5 1.8 -0.1
v -0.5 1.8 -0.2
v -0.5 1.9 0.3
v -0.5 1.9 0.2
v -0.5 1.9 0
v -0.5 1.9 -0.1
v -0.5 2 0.3
v -0.5 2 0.2
v -0.5 2 0.1
v -0.5 2 0
v -0.4 0.3 0.9
v -0.4 0.3 0.8
v -0.4 0.4 0.9
v -0.4 0.4 0.8
v -0.4 0.5 0.9
v -0.4 0.5 0.8
v -0.4 0.5 -0.5
v -0.4 0.5 -0.6
v -0.4 0.6 0.9
v -0.4 0.6 0.8
v -0.4 0.6 -0.5
v -0.4 0.6 -0.6
v -0.4 0.8 0.9
v -0.4 0.8 0.8
v -0.4 0.8 -0.5
v -0.4 0.8 -0.6
v -0.4 0.9 -0.5
v -0.4 0.9 -0.7
v -0.4 1 -0.6
v -0.4 1 -0.7
v -0.4 1.1 -0.4
v -0.4 1.1 -0.5
v -0.4 1.1 -0.6
v -0.4 1.2 0.9
v -0.4 1.2 0.8
v -0.4 1.2 0.6
v -0.4 1.2 -0.3
v -0.4 1.2 -0.4
v -0.4 1.2 -0.5
v -0.4 1.3 -0.4
v -0.4 1.3 -0.5
v -0.4 1.4 0.8
v -0.4 1.4 0.7
v -0.4 1.4 -0.2
v -0.4 1.4 -0.3
v -0.4 1.5 0.9
v -0.4 1.5 0.8
v -0.4 1.5 -0.2
v -0.4 1.5 -0.3
v -0.4 1.5 -0.4
v -0.4 1.5 -0.5
v -0.4 1.6 0.7
v -0.4 1.6 0.6
v -0.4 1.6 0.5
v -0.4 1.6 0.4
v -0.4 1.6 -0.2
v -0.4 1.6 -0.3
v -0.4 1.6 -0.4
v -0.4 1.7 0.5
v -0.4 1.7 0.4
v -0.4 1.7 0.2
v -0.4 1.8 0.4
v -0.4 1.8 0.3
v -0.4 1.8 0.2
v -0.4 1.8 0.1
v -0.4 1.8 -0.1
v -0.4 1.8 -0.2
v -0.4 1.9 0.3
v -0.4 1.9 0.2
v -0.4 1.9 0
v -0.4 1.9 -0.1
v -0.4 1.9 -0.3
v -0.4 2 0.2
v -0.4 2 0.1
v -0.4 2 0
v -0.4 2 -0.1
v -0.3 0.3 -0.6
v -0.3 0.3 -0.7
v -0.3 0.4 -0.6
v -0.3 0.4 -0.7
v -0.3 0.7 -0.6
v -0.3 0.7 -0.7
v -0.3 0.8 0.9
v -0.3 0.8 0.8
v -0.3 0.8 -0.5
v -0.3 0.8 -0.6
v -0.3 0.9 0.9
v -0.3 0.9 0.8
v -0.3 0.9 -0.5
v -0.3 0.9 -0.6
v -0.3 0.9 -0.7
v -0.3 1.1 -0.5
v -0.3 1.1 -0.6
v -0.3 1.2 -0.4
v -0.3 1.2 -0.5
v -0.3 1.3 -0.4
v -0.3 1.3 -0.5
v -0.3 1.3 -0.6
v -0.3 1.4 0.8
v -0.3 1.4 0.7
v -0.3 1.4 -0.5
v -0.3 1.4 -0.6
v -0.3 1.5 0.8
v -0.3 1.5 0.7
v -0.3 1.5 -0.4
v -0.3 1.5 -0.5
v -0.3 1.6 -0.3
v -0.3 1.6 -0.4
v -0.3 1.6 -0.6
v -0.3 1.6 -0.7
v -0.3 1.7 0.5
v -0.3 1.7 0.4
v -0.3 1.7 -0.5
v -0.3 1.7 -0.6
v -0.3 1.7 -0.7
v -0.3 1.8 0.6
v -0.3 1.8 0.5
v -0.3 1.8 0.4
v -0.3 1.8 0.3
v -0.3 1.8 -0.4
v -0.3 1.8 -0.5
v -0.3 1.9 0.6
v -0.3 1.9 0.3
v -0.3 1.9 -0.3
v -0.3 1.9 -0.4
v -0.2 0.4 -0.6
v -0.2 0.4 -0.7
v -0.2 0.5 -0.6
v -0.2 0.5 -0.7
v -0.2 0.6 -0.6
v -0.2 0.6 -0.7
v -0.2 0.7 -0.6
v -0.2 0.7 -0.7
v -0.2 0.9 0.9
v -0.2 0.9 0.8
v -0.2 1 0.9
v -0.2 1 0.8
v -0.2 1 -0.6
v -0.2 1 -0.7
v -0.2 1.1 -0.6
v -0.2 1.1 -0.7
v -0.2 1.3 -0.5
v -0.2 1.3 -0.6
v -0.2 1.4 -0.5
v -0.2 1.4 -0.6
v -0.2 1.4 -0.7
v -0.2 1.5 -0.6
v -0.2 1.5 -0.7
v -0.2 1.6 -0.6
v -0.2 1.6 -0.7
v -0.2 1.8 0.3
v -0.2 1.8 0.2
v -0.2 1.8 -0.4
v -0.2 1.8 -0.5
v -0.2 1.9 0.3
v -0.2 1.9 0.2
v -0.2 1.9 -0.4
v -0.2 1.9 -0.5
v -0.1 0.3 -0.6
v -0.1 0.3 -0.7
v -0.1 0.4 -0.6
v -0.1 0.4 -0.7
v -0.1 0.8 -0.6
v -0.1 0.8 -0.7
v -0.1 0.9 -0.6
v -0.1 0.9 -0.7
v -0.1 1 -0.6
v -0.1 1 -0.7
v -0.1 1.1 -0.6
v -0.1 1.1 -0.7
v -0.1 1.2 -0.6
v -0.1 1.2 -0.7
v -0.1 1.3 -0.6
v -0.1 1.3 -0.7
v -0.1 1.4 -0.6
v -0.1 1.4 -0.7
v -0.1 1.7 -0.5
v -0.1 1.7 -0.6
v -0.1 1.9 -0.5
v -0.1 1.9 -0.6
v 0 0.6 -0.6
v 0 0.6 -0.7
v 0 0.8 -0.6
v 0 0.8 -0.7
v 0.1 1.3 0.7
v 0.1 1.3 0.6
v 0.1 1.4 0.7
v 0.1 1.4 0.6
v 0.2 1.4 0.7
v 0.2 1.4 0.5
v 0.2 1.5 0.7
v 0.2 1.5 0.5
v 0.3 0 0.5
v 0.3 0 0.3
v 0.3 0 -0.1
v 0.3 0 -0.3
v 0.3 0.1 0.5
v 0.3 0.1 0.3
v 0.3 0.1 -0.1
v 0.3 0.1 -0.3
v 0.3 0.3 0.5
v 0.3 0.3 0.3
v 0.3 0.3 -0.1
v 0.3 0.3 -0.3
v -0.9 1.1 0.4
v -0.9 1.1 0.3
v -0.9 1.2 0.4
v -0.9 1.2 0.3
v -0.8 1.1 0.6
v -0.8 1.1 0.5
v -0.8 1.2 0.5
v -0.8 1.3 0.6
v -0.8 1.3 0.5
v -0.7 0.9 -0.4
v -0.7 0.9 -0.5
v -0.7 1 -0.4
v -0.7 1 -0.5
v -0.5 0 0.5
v -0.5 0 0.3
v -0.5 0 -0.1
v -0.5 0 -0.3
v -0.5 0.1 0.5
v -0.5 0.1 0.3
v -0.5 0.1 -0.1
v -0.5 0.1 -0.3
v -0.5 0.3 0.5
v -0.5 0.3 0.3
v -0.5 0.3 -0.1
v -0.5 0.3 -0.3
v -0.5 0.5 -0.5
v -0.5 0.5 -0.6
v -0.5 0.6 -0.5
v -0.5 0.6 -0.6
v -0.5 0.7 -0.5
v -0.5 0.7 -0.6
v -0.4 1.9 0.3
v -0.4 1.9 0.2
v -0.4 2 0.3
v -0.4 2 0.2
v -0.3 0.9 -0.6
v -0.3 0.9 -0.7
v -0.3 1 -0.6
v -0.3 1 -0.7
v -0.3 1.2 0.9
v -0.3 1.2 0.8
v -0.3 1.5 0.9
v -0.3 1.5 0.8
v -0.3 1.5 0.7
v -0.3 1.5 0.6
v -0.3 1.6 0.7
v -0.3 1.6 0.6
v -0.3 1.8 0.3
v -0.3 1.8 0.2
v -0.3 1.9 0.3
v -0.3 1.9 0.2
v -0.3 1.9 -0.1
v -0.3 2 0.2
v -0.3 2 -0.1
v -0.2 0.3 -0.6
v -0.2 0.3 -0.7
v -0.2 0.4 -0.6
v -0.2 0.4 -0.7
v -0.2 0.7 -0.6
v -0.2 0.7 -0.7
v -0.2 0.9 -0.6
v -0.2 0.9 -0.7
v -0.2 1.3 0.8
v -0.2 1.3 0.7
v -0.2 1.5 0.8
v -0.2 1.5 0.7
v -0.2 1.5 0.6
v -0.2 1.5 0.5
v -0.2 1.6 0.6
v -0.2 1.6 0.5
v -0.2 1.8 0.2
v -0.2 1.8 0.1
v -0.2 1.9 0.2
v -0.2 1.9 0.1
v -0.1 0.5 -0.6
v -0.1 0.5 -0.7
v -0.1 0.6 -0.6
v -0.1 0.6 -0.7
v -0.1 0.7 -0.6
v -0.1 0.7 -0.7
v -0.1 1.4 -0.6
v -0.1 1.4 -0.7
v -0.1 1.5 -0.6
v -0.1 1.5 -0.7
v -0.1 1.6 0.5
v -0.1 1.6 0.4
v -0.1 1.6 -0.6
v -0.1 1.6 -0.7
v -0.1 1.7 0.4
v -0.1 1.7 0.3
v -0.1 1.7 -0.6
v -0.1 1.7 -0.7
v -0.1 1.8 0.6
v -0.1 1.8 0.5
v -0.1 1.8 0.3
v -0.1 1.8 0.2
v -0.1 1.8 0.1
v -0.1 1.8 0
v -0.1 1.9 0.6
v -0.1 1.9 0.2
v -0.1 1.9 0.1
v -0.1 1.9 0
v 0 0.3 0.9
v 0 0.3 0.8
v 0 0.3 -0.6
v 0 0.3 -0.7
v 0 0.4 0.9
v 0 0.4 0.8
v 0 0.4 -0.6
v 0 0.4 -0.7
v 0 0.5 -0.6
v 0 0.5 -0.7
v 0 0.9 0.9
v 0 0.9 0.8
v 0 1 0.9
v 0 1 0.8
v 0 1.1 -0.6
v 0 1.1 -0.7
v 0 1.2 0.8
v 0 1.2 0.7
v 0 1.2 -0.6
v 0 1.2 -0.7
v 0 1.3 0.8
v 0 1.3 0.7
v 0 1.3 0.6
v 0 1.3 -0.6
v 0 1.3 -0.7
v 0 1.4 -0.6
v 0 1.4 -0.7
v 0 1.5 0.7
v 0 1.5 0.6
v 0 1.5 -0.6
v 0 1.5 -0.7
v 0 1.6 -0.6
v 0 1.6 -0.7
v 0 1.7 0.3
v 0 1.7 0.1
v 0 1.8 0.3
v 0 1.8 0.1
v 0 1.8 0
v 0 1.8 -0.1
v 0 1.8 -0.5
v 0 1.8 -0.6
v 0 1.9 0
v 0 1.9 -0.1
v 0 1.9 -0.5
v 0 1.9 -0.6
v 0.1 0.4 0.9
v 0.1 0.4 0.8
v 0.1 0.5 0.9
v 0.1 0.5 0.8
v 0.1 0.6 0.9
v 0.1 0.6 0.8
v 0.1 0.6 -0.6
v 0.1 0.6 -0.7
v 0.1 0.9 0.9
v 0.1 0.9 0.8
v 0.1 1.1 -0.6
v 0.1 1.1 -0.7
v 0.1 1.2 -0.5
v 0.1 1.2 -0.6
v 0.1 1.3 -0.5
v 0.1 1.3 -0.6
v 0.1 1.4 0.6
v 0.1 1.4 0.5
v 0.1 1.5 0.6
v 0.1 1.5 0.5
v 0.1 1.5 0.3
v 0.1 1.5 -0.5
v 0.1 1.5 -0.6
v 0.1 1.6 0.5
v 0.1 1.6 0.4
v 0.1 1.6 0.3
v 0.1 1.6 0.1
v 0.1 1.7 0.4
v 0.1 1.7 0.1
v 0.1 1.7 -0.2
v 0.1 1.7 -0.4
v 0.1 1.7 -0.5
v 0.1 1.8 0.1
v 0.1 1.8 -0.1
v 0.1 1.8 -0.2
v 0.1 1.8 -0.4
v 0.1 1.8 -0.5
v 0.1 1.8 -0.6
v 0.1 1.9 -0.1
v 0.1 1.9 -0.5
v 0.2 0.3 0.8
v 0.2 0.3 0.7
v 0.2 0.4 0.8
v 0.2 0.4 0.7
v 0.2 0.5 0.8
v 0.2 0.5 0.7
v 0.2 0.6 0.8
v 0.2 0.6 0.7
v 0.2 0.9 -0.5
v 0.2 0.9 -0.6
v 0.2 1 0.8
v 0.2 1 0.7
v 0.2 1.2 0.8
v 0.2 1.2 0.7
v 0.2 1.2 0.6
v 0.2 1.2 -0.4
v 0.2 1.2 -0.5
v 0.2 1.2 -0.6
v 0.2 1.3 0.6
v 0.2 1.3 0.5
v 0.2 1.3 -0.4
v 0.2 1.3 -0.5
v 0.2 1.3 -0.6
v 0.2 1.4 0.7
v 0.2 1.4 0.5
v 0.2 1.4 0
v 0.2 1.4 -0.1
v 0.2 1.4 -0.2
v 0.2 1.4 -0.3
v 0.2 1.5 0.3
v 0.2 1.5 0
v 0.2 1.5 -0.1
v 0.2 1.5 -0.2
v 0.2 1.5 -0.5
v 0.2 1.5 -0.6
v 0.2 1.6 0.3
v 0.2 1.6 0.1
v 0.2 1.6 -0.2
v 0.2 1.6 -0.3
v 0.2 1.6 -0.4
v 0.2 1.6 -0.5
v 0.2 1.7 0.1
v 0.2 1.7 -0.2
v 0.2 1.7 -0.4
v 0.2 1.7 -0.5
v 0.2 1.8 -0.2
v 0.2 1.8 -0.4
v 0.3 0.3 -0.5
v 0.3 0.3 -0.6
v 0.3 0.4 -0.5
v 0.3 0.4 -0.6
v 0.3 0.5 0.7
v 0.3 0.5 0.6
v 0.3 0.5 -0.5
v 0.3 0.5 -0.6
v 0.3 0.6 0.8
v 0.3 0.6 0.7
v 0.3 0.6 0.6
v 0.3 0.6 -0.5
v 0.3 0.6 -0.6
v 0.3 0.9 0.7
v 0.3 0.9 0.6
v 0.3 0.9 -0.4
v 0.3 0.9 -0.5
v 0.3 0.9 -0.6
v 0.3 1 0.8
v 0.3 1 0.7
v 0.3 1.1 0.7
v 0.3 1.1 0.6
v 0.3 1.2 0.7
v 0.3 1.2 0.6
v 0.3 1.2 0.4
v 0.3 1.2 -0.1
v 0.3 1.2 -0.3
v 0.3 1.2 -0.4
v 0.3 1.2 -0.5
v 0.3 1.3 0.6
v 0.3 1.3 0.5
v 0.3 1.3 0
v 0.3 1.3 -0.1
v 0.3 1.3 -0.3
v 0.3 1.3 -0.4
v 0.3 1.3 -0.5
v 0.3 1.4 0.7
v 0.3 1.4 0.5
v 0.3 1.4 0.4
v 0.3 1.4 0
v 0.3 1.4 -0.1
v 0.3 1.4 -0.2
v 0.3 1.4 -0.3
v 0.3 1.5 0.7
v 0.3 1.5 0
v 0.3 1.5 -0.1
v 0.3 1.5 -0.2
v 0.3 1.6 -0.2
v 0.3 1.6 -0.3
v 0.3 1.6 -0.4
v 0.3 1.6 -0.5
v 0.3 1.7 -0.2
v 0.3 1.7 -0.4
v 0.4 0.5 0.6
v 0.4 0.5 0.4
v 0.4 0.6 0.6
v 0.4 0.6 0.4
v 0.4 0.7 -0.4
v 0.4 0.7 -0.5
v 0.4 0.8 0.6
v 0.4 0.8 0.4
v 0.4 0.9 0.7
v 0.4 0.9 0.6
v 0.4 0.9 0.4
v 0.4 0.9 0.3
v 0.4 0.9 0.2
v 0.4 0.9 -0.1
v 0.4 0.9 -0.4
v 0.4 0.9 -0.5
v 0.4 1 0.2
v 0.4 1 0.1
v 0.4 1 -0.1
v 0.4 1 -0.2
v 0.4 1 -0.3
v 0.4 1 -0.4
v 0.4 1.1 0.7
v 0.4 1.1 0.6
v 0.4 1.1 0.4
v 0.4 1.1 0.3
v 0.4 1.1 -0.3
v 0.4 1.1 -0.4
v 0.4 1.2 0.6
v 0.4 1.2 0.4
v 0.4 1.2 0
v 0.4 1.2 -0.1
v 0.4 1.2 -0.2
v 0.4 1.2 -0.3
v 0.4 1.3 0.1
v 0.4 1.3 0
v 0.4 1.3 -0.1
v 0.4 1.3 -0.3
v 0.4 1.3 -0.4
v 0.4 1.4 0.4
v 0.4 1.4 0
v 0.5 0 0.5
v 0.5 0 0.3
v 0.5 0 -0.1
v 0.5 0 -0.3
v 0.5 0.1 0.5
v 0.5 0.1 0.3
v 0.5 0.1 -0.1
v 0.5 0.1 -0.3
v 0.5 0.3 0.7
v 0.5 0.3 0.6
v 0.5 0.3 0.5
v 0.5 0.3 0.4
v 0.5 0.3 0.3
v 0.5 0.3 -0.1
v 0.5 0.3 -0.2
v 0.5 0.3 -0.3
v 0.5 0.3 -0.4
v 0.5 0.3 -0.5
v 0.5 0.4 0.7
v 0.5 0.4 0.6
v 0.5 0.4 0.5
v 0.5 0.4 0.4
v 0.5 0.4 -0.2
v 0.5 0.4 -0.3
v 0.5 0.4 -0.4
v 0.5 0.4 -0.5
v 0.5 0.5 0.7
v 0.5 0.5 0.6
v 0.5 0.5 0.5
v 0.5 0.5 0.4
v 0.5 0.5 0.3
v 0.5 0.5 0.1
v 0.5 0.5 -0.1
v 0.5 0.5 -0.2
v 0.5 0.5 -0.4
v 0.5 0.5 -0.5
v 0.5 0.6 0.4
v 0.5 0.6 0.3
v 0.5 0.6 0.2
v 0.5 0.6 0.1
v 0.5 0.6 0
v 0.5 0.6 -0.1
v 0.5 0.6 -0.2
v 0.5 0.6 -0.3
v 0.5 0.6 -0.4
v 0.5 0.6 -0.5
v 0.5 0.7 -0.3
v 0.5 0.7 -0.4
v 0.5 0.7 -0.5
v 0.5 0.8 0.6
v 0.5 0.8 0.4
v 0.5 0.8 0.2
v 0.5 0.8 0.1
v 0.5 0.8 -0.1
v 0.5 0.8 -0.2
v 0.5 0.9 0.6
v 0.5 0.9 0.4
v 0.5 0.9 0.3
v 0.5 0.9 0.2
v 0.5 0.9 -0.1
v 0.5 0.9 -0.4
v 0.5 1 0.2
v 0.5 1 0.1
v 0.5 1 0
v 0.5 1 -0.1
v 0.5 1 -0.2
v 0.5 1 -0.3
v 0.5 1 -0.4
v 0.5 1.1 0.4
v 0.5 1.1 0.3
v 0.5 1.1 -0.3
v 0.5 1.1 -0.4
v 0.5 1.2 0
v 0.5 1.2 -0.2
v 0.5 1.3 0.1
v 0.5 1.3 0
v 0.6 0.3 0.6
v 0.6 0.3 0.4
v 0.6 0.3 -0.3
v 0.6 0.3 -0.4
v 0.6 0.4 0.6
v 0.6 0.4 0.5
v 0.6 0.4 0.4
v 0.6 0.4 0.2
v 0.6 0.4 -0.2
v 0.6 0.4 -0.3
v 0.6 0.4 -0.4
v 0.6 0.5 0.6
v 0.6 0.5 0.5
v 0.6 0.5 0.3
v 0.6 0.5 0.2
v 0.6 0.5 0.1
v 0.6 0.5 -0.1
v 0.6 0.5 -0.2
v 0.6 0.6 0.3
v 0.6 0.6 0.2
v 0.6 0.6 0.1
v 0.6 0.6 0
v 0.6 0.6 -0.1
v 0.6 0.6 -0.2
v 0.6 0.6 -0.3
v 0.6 0.6 -0.4
v 0.6 0.7 -0.3
v 0.6 0.7 -0.4
v 0.6 0.8 0.2
v 0.6 0.8 0.1
v 0.6 0.8 -0.1
v 0.6 0.8 -0.2
v 0.6 1 0.1
v 0.6 1 0
v 0.7 0.3 0.4
v 0.7 0.3 0.3
v 0.7 0.3 -0.2
v 0.7 0.4 0.4
v 0.7 0.4 0.3
v 0.7 0.4 0.2
v 0.7 0.4 -0.2
v 0.7 0.5 0.4
v 0.7 0.5 0.2
v -0.4 0.3 0.9
v -0.4 0.4 0.9
v -0.4 0.5 0.9
v -0.4 0.6 0.9
v -0.4 0.8 0.9
v -0.4 1.2 0.9
v -0.4 1.5 0.9
v -0.3 0.3 0.9
v -0.3 0.4 0.9
v -0.3 0.5 0.9
v -0.3 0.6 0.9
v -0.3 0.8 0.9
v -0.3 0.9 0.9
v -0.3 1.2 0.9
v -0.3 1.5 0.9
v -0.2 0.9 0.9
v -0.2 1 0.9
v -0.1 0.8 0.9
v -0.1 1 0.9
v 0 0.3 0.9
v 0 0.4 0.9
v 0 0.5 0.9
v 0 0.6 0.9
v 0 0.8 0.9
v 0 0.9 0.9
v 0 1 0.9
v 0.1 0.4 0.9
v 0.1 0.5 0.9
v 0.1 0.6 0.9
v 0.1 0.9 0.9
v -0.6 0.3 0.8
v -0.6 0.4 0.8
v -0.6 0.5 0.8
v -0.6 0.6 0.8
v -0.6 0.9 0.8
v -0.6 1.1 0.8
v -0.5 0.6 0.8
v -0.5 0.9 0.8
v -0.5 1.1 0.8
v -0.5 1.2 0.8
v -0.4 0.3 0.8
v -0.4 0.4 0.8
v -0.4 0.5 0.8
v -0.4 0.6 0.8
v -0.4 0.8 0.8
v -0.4 1.2 0.8
v -0.3 0.8 0.8
v -0.3 0.9 0.8
v -0.3 1.2 0.8
v -0.3 1.5 0.8
v -0.2 0.9 0.8
v -0.2 1 0.8
v -0.2 1.3 0.8
v -0.2 1.5 0.8
v -0.1 1 0.8
v 0 0.3 0.8
v 0 0.4 0.8
v 0 0.9 0.8
v 0 1 0.8
v 0 1.2 0.8
v 0 1.3 0.8
v 0.1 0.3 0.8
v 0.1 0.4 0.8
v 0.1 0.5 0.8
v 0.1 0.6 0.8
v 0.1 0.9 0.8
v 0.2 0.3 0.8
v 0.2 0.4 0.8
v 0.2 0.5 0.8
v 0.2 0.6 0.8
v 0.2 1 0.8
v 0.2 1.2 0.8
v 0.3 0.6 0.8
v 0.3 1 0.8
v -0.8 0.3 0.7
v -0.8 0.4 0.7
v -0.7 0.4 0.7
v -0.7 0.5 0.7
v -0.7 0.6 0.7
v -0.7 1 0.7
v -0.6 0.3 0.7
v -0.6 0.4 0.7
v -0.6 0.5 0.7
v -0.6 0.6 0.7
v -0.6 0.9 0.7
v -0.6 1 0.7
v -0.5 0.6 0.7
v -0.5 0.9 0.7
v -0.4 1.4 0.7
v -0.4 1.6 0.7
v -0.3 1.4 0.7
v -0.3 1.5 0.7
v -0.3 1.6 0.7
v -0.2 1.3 0.7
v -0.2 1.5 0.7
v 0 1.2 0.7
v 0 1.3 0.7
v 0 1.5 0.7
v 0.1 1.3 0.7
v 0.1 1.4 0.7
v 0.2 0.3 0.7
v 0.2 0.4 0.7
v 0.2 0.5 0.7
v 0.2 0.6 0.7
v 0.2 1 0.7
v 0.2 1.2 0.7
v 0.2 1.4 0.7
v 0.2 1.5 0.7
v 0.3 0.5 0.7
v 0.3 0.6 0.7
v 0.3 0.9 0.7
v 0.3 1 0.7
v 0.3 1.1 0.7
v 0.3 1.2 0.7
v 0.3 1.4 0.7
v 0.3 1.5 0.7
v 0.4 0.9 0.7
v 0.4 1.1 0.7
v 0.5 0.3 0.7
v 0.5 0.4 0.7
v 0.5 0.5 0.7
v -0.9 0.3 0.6
v -0.9 0.4 0.6
v -0.9 0.5 0.6
v -0.9 0.6 0.6
v -0.9 0.9 0.6
v -0.9 1.3 0.6
v -0.8 0.3 0.6
v -0.8 0.4 0.6
v -0.8 0.5 0.6
v -0.8 0.6 0.6
v -0.8 0.9 0.6
v -0.8 1.1 0.6
v -0.8 1.3 0.6
v -0.7 0.4 0.6
v -0.7 0.5 0.6
v -0.7 0.6 0.6
v -0.7 1 0.6
v -0.7 1.1 0.6
v -0.7 1.4 0.6
v -0.6 1 0.6
v -0.6 1.1 0.6
v -0.6 1.4 0.6
v -0.6 1.5 0.6
v -0.5 1.1 0.6
v -0.5 1.2 0.6
v -0.5 1.5 0.6
v -0.5 1.6 0.6
v -0.4 1.2 0.6
v -0.4 1.6 0.6
v -0.3 1.5 0.6
v -0.3 1.6 0.6
v -0.3 1.8 0.6
v -0.3 1.9 0.6
v -0.2 1.5 0.6
v -0.2 1.6 0.6
v -0.1 1.8 0.6
v -0.1 1.9 0.6
v 0 1.3 0.6
v 0 1.5 0.6
v 0.1 1.3 0.6
v 0.1 1.4 0.6
v 0.1 1.5 0.6
v 0.2 1.2 0.6
v 0.2 1.3 0.6
v 0.3 0.5 0.6
v 0.3 0.6 0.6
v 0.3 0.9 0.6
v 0.3 1.1 0.6
v 0.3 1.2 0.6
v 0.3 1.3 0.6
v 0.4 0.5 0.6
v 0.4 0.6 0.6
v 0.4 0.8 0.6
v 0.4 0.9 0.6
v 0.4 1.1 0.6
v 0.4 1.2 0.6
v 0.5 0.3 0.6
v 0.5 0.4 0.6
v 0.5 0.5 0.6
v 0.5 0.8 0.6
v 0.5 0.9 0.6
v 0.6 0.3 0.6
v 0.6 0.4 0.6
v 0.6 0.5 0.6
v -0.9 0.6 0.5
v -0.9 0.9 0.5
v -0.8 0.6 0.5
v -0.8 0.9 0.5
v -0.8 1.1 0.5
v -0.8 1.2 0.5
v -0.7 0 0.5
v -0.7 0.1 0.5
v -0.7 0.3 0.5
v -0.7 1.1 0.5
v -0.7 1.2 0.5
v -0.5 0 0.5
v -0.5 0.1 0.5
v -0.5 0.3 0.5
v -0.4 1.6 0.5
v -0.4 1.7 0.5
v -0.3 1.7 0.5
v -0.3 1.8 0.5
v -0.2 1.5 0.5
v -0.2 1.6 0.5
v -0.1 1.6 0.5
v -0.1 1.8 0.5
v 0.1 1.4 0.5
v 0.1 1.5 0.5
v 0.1 1.6 0.5
v 0.2 1.3 0.5
v 0.2 1.4 0.5
v 0.2 1.5 0.5
v 0.3 0 0.5
v 0.3 0.1 0.5
v 0.3 0.3 0.5
v 0.3 1.3 0.5
v 0.3 1.4 0.5
v 0.5 0 0.5
v 0.5 0.1 0.5
v 0.5 0.3 0.5
v -1 0.3 0.4
v -1 0.4 0.4
v -1 0.5 0.4
v -1 0.6 0.4
v -1 1.2 0.4
v -0.9 0.3 0.4
v -0.9 0.4 0.4
v -0.9 0.5 0.4
v -0.9 0.6 0.4
v -0.9 1.1 0.4
v -0.9 1.2 0.4
v -0.7 1.4 0.4
v -0.7 1.5 0.4
v -0.6 1.5 0.4
v -0.6 1.6 0.4
v -0.5 1.4 0.4
v -0.5 1.6 0.4
v -0.5 1.7 0.4
v -0.4 1.6 0.4
v -0.4 1.7 0.4
v -0.4 1.8 0.4
v -0.3 1.7 0.4
v -0.3 1.8 0.4
v -0.1 1.6 0.4
v -0.1 1.7 0.4
v 0.1 1.6 0.4
v 0.1 1.7 0.4
v 0.3 1.2 0.4
v 0.3 1.4 0.4
v 0.4 0.5 0.4
v 0.4 0.6 0.4
v 0.4 0.8 0.4
v 0.4 0.9 0.4
v 0.4 1.1 0.4
v 0.4 1.2 0.4
v 0.4 1.4 0.4
v 0.5 0.4 0.4
v 0.5 0.5 0.4
v 0.5 0.6 0.4
v 0.5 0.8 0.4
v 0.5 0.9 0.4
v 0.5 1.1 0.4
v 0.6 0.3 0.4
v 0.6 0.4 0.4
v 0.7 0.3 0.4
v 0.7 0.4 0.4
v 0.7 0.5 0.4
v -0.9 1.1 0.3
v -0.9 1.2 0.3
v -0.8 1.1 0.3
v -0.8 1.2 0.3
v -0.8 1.3 0.3
v -0.7 1.2 0.3
v -0.7 1.3 0.3
v -0.5 1.9 0.3
v -0.5 2 0.3
v -0.4 1.8 0.3
v -0.4 1.9 0.3
v -0.4 2 0.3
v -0.3 1.8 0.3
v -0.3 1.9 0.3
v -0.1 1.7 0.3
v -0.1 1.8 0.3
v 0 1.7 0.3
v 0 1.8 0.3
v 0.1 1.5 0.3
v 0.1 1.6 0.3
v 0.2 1.5 0.3
v 0.2 1.6 0.3
v 0.5 0.5 0.3
v 0.5 0.6 0.3
v 0.6 0.5 0.3
v 0.6 0.6 0.3
v -0.6 1.6 0.2
v -0.6 1.7 0.2
v -0.5 1.6 0.2
v -0.5 1.7 0.2
v -0.5 1.8 0.2
v -0.4 1.7 0.2
v -0.4 1.8 0.2
v -0.4 1.9 0.2
v -0.4 2 0.2
v -0.3 1.8 0.2
v -0.3 1.9 0.2
v -0.3 2 0.2
v -0.2 1.8 0.2
v -0.2 1.9 0.2
v 0.4 0.9 0.2
v 0.4 1 0.2
v 0.5 0.6 0.2
v 0.5 0.8 0.2
v 0.5 0.9 0.2
v 0.5 1 0.2
v 0.6 0.6 0.2
v 0.6 0.8 0.2
v -0.6 1.5 0.1
v -0.6 1.6 0.1
v -0.5 1.5 0.1
v -0.5 1.6 0.1
v -0.5 1.8 0.1
v -0.5 2 0.1
v -0.4 1.8 0.1
v -0.4 2 0.1
v -0.2 1.8 0.1
v -0.2 1.9 0.1
v -0.1 1.8 0.1
v -0.1 1.9 0.1
v 0 1.7 0.1
v 0 1.8 0.1
v 0.1 1.6 0.1
v 0.1 1.7 0.1
v 0.1 1.8 0.1
v 0.2 1.6 0.1
v 0.2 1.7 0.1
v 0.4 1 0.1
v 0.4 1.3 0.1
v 0.5 0.8 0.1
v 0.5 1 0.1
v 0.5 1.3 0.1
v 0.6 0.8 0.1
v 0.6 1 0.1
v -0.1 1.8 0
v -0.1 1.9 0
v 0 1.8 0
v 0 1.9 0
v -0.7 0 -0.1
v -0.7 0.1 -0.1
v -0.7 0.3 -0.1
v -0.5 0 -0.1
v -0.5 0.1 -0.1
v -0.5 0.3 -0.1
v 0 1.8 -0.1
v 0 1.9 -0.1
v 0.1 1.8 -0.1
v 0.1 1.9 -0.1
v 0.2 1.4 -0.1
v 0.2 1.5 -0.1
v 0.3 0 -0.1
v 0.3 0.1 -0.1
v 0.3 0.3 -0.1
v 0.3 1.4 -0.1
v 0.3 1.5 -0.1
v 0.5 0 -0.1
v 0.5 0.1 -0.1
v 0.5 0.3 -0.1
v 0.5 0.5 -0.1
v 0.5 0.6 -0.1
v 0.5 0.8 -0.1
v 0.6 0.5 -0.1
v 0.6 0.6 -0.1
v 0.6 0.8 -0.1
v 0.1 1.7 -0.2
v 0.1 1.8 -0.2
v 0.2 1.6 -0.2
v 0.2 1.7 -0.2
v 0.2 1.8 -0.2
v 0.3 1.6 -0.2
v 0.3 1.7 -0.2
v -0.9 1 -0.3
v -0.9 1.1 -0.3
v -0.7 1 -0.3
v -0.7 1.1 -0.3
v 0.2 1.4 -0.3
v 0.2 1.6 -0.3
v 0.3 1.2 -0.3
v 0.3 1.3 -0.3
v 0.3 1.4 -0.3
v 0.3 1.6 -0.3
v 0.4 1 -0.3
v 0.4 1.1 -0.3
v 0.4 1.2 -0.3
v 0.4 1.3 -0.3
v 0.5 0.3 -0.3
v 0.5 0.4 -0.3
v 0.5 0.6 -0.3
v 0.5 0.7 -0.3
v 0.5 1 -0.3
v 0.5 1.1 -0.3
v 0.6 0.3 -0.3
v 0.6 0.4 -0.3
v 0.6 0.6 -0.3
v 0.6 0.7 -0.3
v -0.4 1.4 0.8
v -0.4 1.5 0.8
v -0.3 1.4 0.8
v -0.3 1.5 0.8
v -0.9 1.1 0.5
v -0.9 1.3 0.5
v -0.8 1.1 0.5
v -0.8 1.2 0.5
v -0.8 1.3 0.5
v -0.6 1.4 0.5
v -0.6 1.5 0.5
v -0.5 1.4 0.5
v -0.5 1.5 0.5
v 0.5 0.4 0.5
v 0.5 0.5 0.5
v 0.6 0.4 0.5
v 0.6 0.5 0.5
v -1 1.1 0.3
v -1 1.2 0.3
v -0.9 1.1 0.3
v -0.9 1.2 0.3
v -0.7 0 0.3
v -0.7 0.1 0.3
v -0.7 0.3 0.3
v -0.6 1.5 0.3
v -0.6 1.6 0.3
v -0.5 0 0.3
v -0.5 0.1 0.3
v -0.5 0.3 0.3
v -0.5 1.5 0.3
v -0.5 1.6 0.3
v -0.3 1.8 0.3
v -0.3 1.9 0.3
v -0.2 1.8 0.3
v -0.2 1.9 0.3
v 0.3 0 0.3
v 0.3 0.1 0.3
v 0.3 0.3 0.3
v 0.4 0.9 0.3
v 0.4 1.1 0.3
v 0.5 0 0.3
v 0.5 0.1 0.3
v 0.5 0.3 0.3
v 0.5 0.9 0.3
v 0.5 1.1 0.3
v -1 1 0.2
v -1 1.1 0.2
v -0.9 1 0.2
v -0.9 1.1 0.2
v -0.7 1.4 0.2
v -0.7 1.5 0.2
v -0.6 1.4 0.2
v -0.6 1.5 0.2
v -0.5 1.9 0.2
v -0.5 2 0.2
v -0.4 1.9 0.2
v -0.4 2 0.2
v -0.2 1.8 0.2
v -0.2 1.9 0.2
v -0.1 1.8 0.2
v -0.1 1.9 0.2
v 0.6 0.4 0.2
v 0.6 0.5 0.2
v 0.7 0.4 0.2
v 0.7 0.5 0.2
v -0.7 1.3 0.1
v -0.7 1.4 0.1
v -0.6 1.3 0.1
v -0.6 1.4 0.1
v 0.5 0.5 0.1
v 0.5 0.6 0.1
v 0.6 0.5 0.1
v 0.6 0.6 0.1
v -0.8 1.2 0
v -0.8 1.3 0
v -0.7 1.2 0
v -0.7 1.3 0
v -0.5 1.9 0
v -0.5 2 0
v -0.4 1.9 0
v -0.4 2 0
v 0.2 1.4 0
v 0.2 1.5 0
v 0.3 1.3 0
v 0.3 1.4 0
v 0.3 1.5 0
v 0.4 1.2 0
v 0.4 1.3 0
v 0.4 1.4 0
v 0.5 0.6 0
v 0.5 1 0
v 0.5 1.2 0
v 0.5 1.3 0
v 0.6 0.6 0
v 0.6 1 0
v -0.9 1 -0.1
v -0.9 1.2 -0.1
v -0.8 1 -0.1
v -0.8 1.1 -0.1
v -0.7 1.1 -0.1
v -0.7 1.2 -0.1
v -0.7 1.3 -0.1
v -0.6 1.2 -0.1
v -0.6 1.3 -0.1
v -0.6 1.7 -0.1
v -0.5 1.3 -0.1
v -0.5 1.7 -0.1
v -0.5 1.8 -0.1
v -0.5 1.9 -0.1
v -0.4 1.8 -0.1
v -0.4 1.9 -0.1
v -0.4 2 -0.1
v -0.3 1.9 -0.1
v -0.3 2 -0.1
v 0.3 1.2 -0.1
v 0.3 1.3 -0.1
v 0.4 0.9 -0.1
v 0.4 1 -0.1
v 0.4 1.2 -0.1
v 0.4 1.3 -0.1
v 0.5 0.9 -0.1
v 0.5 1 -0.1
v -1 0.3 -0.2
v -1 0.4 -0.2
v -1 0.5 -0.2
v -1 0.6 -0.2
v -1 1 -0.2
v -0.9 0.3 -0.2
v -0.9 0.4 -0.2
v -0.9 0.5 -0.2
v -0.9 0.6 -0.2
v -0.9 1 -0.2
v -0.8 1 -0.2
v -0.8 1.1 -0.2
v -0.7 1 -0.2
v -0.7 1.1 -0.2
v -0.5 1.4 -0.2
v -0.5 1.5 -0.2
v -0.5 1.6 -0.2
v -0.5 1.8 -0.2
v -0.4 1.4 -0.2
v -0.4 1.5 -0.2
v -0.4 1.6 -0.2
v -0.4 1.8 -0.2
v 0.2 1.4 -0.2
v 0.2 1.5 -0.2
v 0.3 1.4 -0.2
v 0.3 1.5 -0.2
v 0.4 1 -0.2
v 0.4 1.2 -0.2
v 0.5 0.3 -0.2
v 0.5 0.4 -0.2
v 0.5 0.5 -0.2
v 0.5 0.6 -0.2
v 0.5 0.8 -0.2
v 0.5 1 -0.2
v 0.5 1.2 -0.2
v 0.6 0.3 -0.2
v 0.6 0.4 -0.2
v 0.6 0.5 -0.2
v 0.6 0.6 -0.2
v 0.6 0.8 -0.2
v 0.7 0.3 -0.2
v 0.7 0.4 -0.2
v -0.7 0 -0.3
v -0.7 0.1 -0.3
v -0.7 0.3 -0.3
v -0.7 1.1 -0.3
v -0.7 1.2 -0.3
v -0.6 0.3 -0.3
v -0.6 1.1 -0.3
v -0.6 1.2 -0.3
v -0.6 1.3 -0.3
v -0.5 0 -0.3
v -0.5 0.1 -0.3
v -0.5 0.3 -0.3
v -0.5 1.3 -0.3
v -0.5 1.4 -0.3
v -0.5 1.5 -0.3
v -0.5 1.6 -0.3
v -0.4 1.2 -0.3
v -0.4 1.4 -0.3
v -0.4 1.5 -0.3
v -0.4 1.6 -0.3
v -0.4 1.9 -0.3
v -0.3 1.6 -0.3
v -0.3 1.9 -0.3
v 0.3 0 -0.3
v 0.3 0.1 -0.3
v 0.3 0.3 -0.3
v 0.5 0 -0.3
v 0.5 0.1 -0.3
v 0.5 0.3 -0.3
v -0.9 0.3 -0.4
v -0.9 0.4 -0.4
v -0.9 0.5 -0.4
v -0.9 0.6 -0.4
v -0.9 1.1 -0.4
v -0.8 0.3 -0.4
v -0.8 0.4 -0.4
v -0.8 0.5 -0.4
v -0.8 0.6 -0.4
v -0.8 1 -0.4
v -0.7 0.9 -0.4
v -0.7 1 -0.4
v -0.6 1.1 -0.4
v -0.6 1.2 -0.4
v -0.5 0.9 -0.4
v -0.5 1.1 -0.4
v -0.4 1.1 -0.4
v -0.4 1.2 -0.4
v -0.4 1.3 -0.4
v -0.4 1.5 -0.4
v -0.4 1.6 -0.4
v -0.3 1.2 -0.4
v -0.3 1.3 -0.4
v -0.3 1.5 -0.4
v -0.3 1.6 -0.4
v -0.3 1.8 -0.4
v -0.3 1.9 -0.4
v -0.2 1.8 -0.4
v -0.2 1.9 -0.4
v 0.1 1.7 -0.4
v 0.1 1.8 -0.4
v 0.2 1.2 -0.4
v 0.2 1.3 -0.4
v 0.2 1.6 -0.4
v 0.2 1.7 -0.4
v 0.2 1.8 -0.4
v 0.3 0.9 -0.4
v 0.3 1.2 -0.4
v 0.3 1.3 -0.4
v 0.3 1.6 -0.4
v 0.3 1.7 -0.4
v 0.4 0.7 -0.4
v 0.4 0.9 -0.4
v 0.4 1 -0.4
v 0.4 1.1 -0.4
v 0.4 1.3 -0.4
v 0.5 0.3 -0.4
v 0.5 0.4 -0.4
v 0.5 0.6 -0.4
v 0.5 0.7 -0.4
v 0.5 0.9 -0.4
v 0.5 1 -0.4
v 0.5 1.1 -0.4
v 0.6 0.3 -0.4
v 0.6 0.4 -0.4
v 0.6 0.6 -0.4
v 0.6 0.7 -0.4
v -0.8 0.3 -0.5
v -0.8 0.4 -0.5
v -0.8 0.5 -0.5
v -0.8 0.6 -0.5
v -0.8 1 -0.5
v -0.7 0.9 -0.5
v -0.7 1 -0.5
v -0.6 0.3 -0.5
v -0.6 0.4 -0.5
v -0.6 0.5 -0.5
v -0.6 0.6 -0.5
v -0.6 0.7 -0.5
v -0.5 0.5 -0.5
v -0.5 0.6 -0.5
v -0.5 0.7 -0.5
v -0.5 0.9 -0.5
v -0.5 1.1 -0.5
v -0.4 0.5 -0.5
v -0.4 0.6 -0.5
v -0.4 0.8 -0.5
v -0.4 0.9 -0.5
v -0.4 1.1 -0.5
v -0.4 1.2 -0.5
v -0.4 1.3 -0.5
v -0.4 1.5 -0.5
v -0.3 0.8 -0.5
v -0.3 0.9 -0.5
v -0.3 1.1 -0.5
v -0.3 1.2 -0.5
v -0.3 1.3 -0.5
v -0.3 1.4 -0.5
v -0.3 1.5 -0.5
v -0.3 1.7 -0.5
v -0.3 1.8 -0.5
v -0.2 1.3 -0.5
v -0.2 1.4 -0.5
v -0.2 1.8 -0.5
v -0.2 1.9 -0.5
v -0.1 1.7 -0.5
v -0.1 1.9 -0.5
v 0 1.8 -0.5
v 0 1.9 -0.5
v 0.1 1.2 -0.5
v 0.1 1.3 -0.5
v 0.1 1.5 -0.5
v 0.1 1.7 -0.5
v 0.1 1.8 -0.5
v 0.1 1.9 -0.5
v 0.2 0.9 -0.5
v 0.2 1.2 -0.5
v 0.2 1.3 -0.5
v 0.2 1.5 -0.5
v 0.2 1.6 -0.5
v 0.2 1.7 -0.5
v 0.3 0.3 -0.5
v 0.3 0.4 -0.5
v 0.3 0.5 -0.5
v 0.3 0.6 -0.5
v 0.3 0.9 -0.5
v 0.3 1.2 -0.5
v 0.3 1.3 -0.5
v 0.3 1.6 -0.5
v 0.4 0.7 -0.5
v 0.4 0.9 -0.5
v 0.5 0.3 -0.5
v 0.5 0.4 -0.5
v 0.5 0.5 -0.5
v 0.5 0.6 -0.5
v 0.5 0.7 -0.5
v -0.6 0.3 -0.6
v -0.6 0.4 -0.6
v -0.6 0.5 -0.6
v -0.6 0.6 -0.6
v -0.6 0.7 -0.6
v -0.5 0.5 -0.6
v -0.5 0.6 -0.6
v -0.5 0.7 -0.6
v -0.4 0.3 -0.6
v -0.4 0.4 -0.6
v -0.4 0.5 -0.6
v -0.4 0.6 -0.6
v -0.4 0.8 -0.6
v -0.4 1 -0.6
v -0.4 1.1 -0.6
v -0.3 0.3 -0.6
v -0.3 0.4 -0.6
v -0.3 0.7 -0.6
v -0.3 0.8 -0.6
v -0.3 0.9 -0.6
v -0.3 1 -0.6
v -0.3 1.1 -0.6
v -0.3 1.3 -0.6
v -0.3 1.4 -0.6
v -0.3 1.6 -0.6
v -0.2 0.3 -0.6
v -0.2 0.4 -0.6
v -0.2 0.5 -0.6
v -0.2 0.6 -0.6
v -0.2 0.7 -0.6
v -0.2 0.9 -0.6
v -0.2 1 -0.6
v -0.2 1.1 -0.6
v -0.2 1.3 -0.6
v -0.2 1.4 -0.6
v -0.2 1.5 -0.6
v -0.2 1.6 -0.6
v -0.1 0.3 -0.6
v -0.1 0.4 -0.6
v -0.1 0.5 -0.6
v -0.1 0.6 -0.6
v -0.1 0.7 -0.6
v -0.1 0.8 -0.6
v -0.1 0.9 -0.6
v -0.1 1 -0.6
v -0.1 1.1 -0.6
v -0.1 1.2 -0.6
v -0.1 1.3 -0.6
v -0.1 1.4 -0.6
v -0.1 1.5 -0.6
v -0.1 1.6 -0.6
v -0.1 1.7 -0.6
v -0.1 1.9 -0.6
v 0 0.3 -0.6
v 0 0.4 -0.6
v 0 0.5 -0.6
v 0 0.6 -0.6
v 0 0.8 -0.6
v 0 1.1 -0.6
v 0 1.2 -0.6
v 0 1.3 -0.6
v 0 1.4 -0.6
v 0 1.5 -0.6
v 0 1.6 -0.6
v 0 1.8 -0.6
v 0 1.9 -0.6
v 0.1 0.3 -0.6
v 0.1 0.4 -0.6
v 0.1 0.5 -0.6
v 0.1 0.6 -0.6
v 0.1 1.1 -0.6
v 0.1 1.2 -0.6
v 0.1 1.3 -0.6
v 0.1 1.5 -0.6
v 0.1 1.8 -0.6
v 0.2 0.3 -0.6
v 0.2 0.4 -0.6
v 0.2 0.5 -0.6
v 0.2 0.6 -0.6
v 0.2 0.9 -0.6
v 0.2 1.2 -0.6
v 0.2 1.3 -0.6
v 0.2 1.5 -0.6
v 0.3 0.3 -0.6
v 0.3 0.4 -0.6
v 0.3 0.5 -0.6
v 0.3 0.6 -0.6
v 0.3 0.9 -0.6
v -0.4 0.9 -0.7
v -0.4 1 -0.7
v -0.3 0.3 -0.7
v -0.3 0.4 -0.7
v -0.3 0.7 -0.7
v -0.3 0.9 -0.7
v -0.3 1 -0.7
v -0.3 1.6 -0.7
v -0.3 1.7 -0.7
v -0.2 0.3 -0.7
v -0.2 0.4 -0.7
v -0.2 0.5 -0.7
v -0.2 0.6 -0.7
v -0.2 0.7 -0.7
v -0.2 0.9 -0.7
v -0.2 1 -0.7
v -0.2 1.1 -0.7
v -0.2 1.4 -0.7
v -0.2 1.5 -0.7
v -0.2 1.6 -0.7
v -0.1 0.3 -0.7
v -0.1 0.4 -0.7
v -0.1 0.5 -0.7
v -0.1 0.6 -0.7
v -0.1 0.7 -0.7
v -0.1 0.8 -0.7
v -0.1 0.9 -0.7
v -0.1 1 -0.7
v -0.1 1.1 -0.7
v -0.1 1.2 -0.7
v -0.1 1.3 -0.7
v -0.1 1.4 -0.7
v -0.1 1.5 -0.7
v -0.1 1.6 -0.7
v -0.1 1.7 -0.7
v 0 0.3 -0.7
v 0 0.4 -0.7
v 0 0.5 -0.7
v 0 0.6 -0.7
v 0 0.8 -0.7
v 0 0.9 -0.7
v 0 1.1 -0.7
v 0 1.2 -0.7
v 0 1.3 -0.7
v 0 1.4 -0.7
v 0 1.5 -0.7
v 0 1.6 -0.7
v 0.1 0.6 -0.7
v 0.1 1.1 -0.7
v -0.7 0 0.5
v -0.5 0 0.5
v 0.3 0 0.5
v 0.5 0 0.5
v -0.7 0 0.3
v -0.5 0 0.3
v 0.3 0 0.3
v 0.5 0 0.3
v -0.7 0 -0.1
v -0.5 0 -0.1
v 0.3 0 -0.1
v 0.5 0 -0.1
v -0.7 0 -0.3
v -0.5 0 -0.3
v 0.3 0 -0.3
v 0.5 0 -0.3
v -0.4 0.3 0.9
v -0.3 0.3 0.9
v 0 0.3 0.9
v -0.6 0.3 0.8
v -0.4 0.3 0.8
v -0.3 0.3 0.8
v 0 0.3 0.8
v 0.1 0.3 0.8
v 0.2 0.3 0.8
v -0.8 0.3 0.7
v -0.6 0.3 0.7
v -0.4 0.3 0.7
v 0.2 0.3 0.7
v 0.5 0.3 0.7
v -0.9 0.3 0.6
v -0.8 0.3 0.6
v -0.6 0.3 0.6
v 0.1 0.3 0.6
v 0.5 0.3 0.6
v 0.6 0.3 0.6
v -0.7 0.3 0.5
v -0.5 0.3 0.5
v 0.3 0.3 0.5
v 0.5 0.3 0.5
v -1 0.3 0.4
v -0.9 0.3 0.4
v -0.8 0.3 0.4
v 0.5 0.3 0.4
v 0.6 0.3 0.4
v 0.7 0.3 0.4
v -0.7 0.3 0.3
v -0.5 0.3 0.3
v 0.3 0.3 0.3
v 0.5 0.3 0.3
v 0.6 0.3 0.3
v 0.7 0.3 0.3
v -1 0.3 0.1
v -0.9 0.3 0.1
v -0.7 0.3 -0.1
v -0.5 0.3 -0.1
v 0.3 0.3 -0.1
v 0.5 0.3 -0.1
v -1 0.3 -0.2
v -0.9 0.3 -0.2
v -0.8 0.3 -0.2
v 0.5 0.3 -0.2
v 0.6 0.3 -0.2
v 0.7 0.3 -0.2
v -0.9 0.3 -0.3
v -0.8 0.3 -0.3
v -0.7 0.3 -0.3
v -0.6 0.3 -0.3
v -0.5 0.3 -0.3
v 0.3 0.3 -0.3
v 0.5 0.3 -0.3
v 0.6 0.3 -0.3
v -0.9 0.3 -0.4
v -0.8 0.3 -0.4
v 0.2 0.3 -0.4
v 0.5 0.3 -0.4
v 0.6 0.3 -0.4
v -0.8 0.3 -0.5
v -0.6 0.3 -0.5
v -0.4 0.3 -0.5
v 0.1 0.3 -0.5
v 0.2 0.3 -0.5
v 0.3 0.3 -0.5
v 0.5 0.3 -0.5
v -0.6 0.3 -0.6
v -0.4 0.3 -0.6
v -0.3 0.3 -0.6
v -0.2 0.3 -0.6
v -0.1 0.3 -0.6
v 0 0.3 -0.6
v 0.1 0.3 -0.6
v 0.2 0.3 -0.6
v 0.3 0.3 -0.6
v -0.3 0.3 -0.7
v -0.2 0.3 -0.7
v -0.1 0.3 -0.7
v 0 0.3 -0.7
v 0 0.4 0.9
v 0.1 0.4 0.9
v 0 0.4 0.8
v 0.1 0.4 0.8
v -0.2 0.4 -0.6
v -0.1 0.4 -0.6
v -0.2 0.4 -0.7
v -0.1 0.4 -0.7
v 0.2 0.6 0.8
v 0.3 0.6 0.8
v 0.2 0.6 0.7
v 0.3 0.6 0.7
v 0.5 0.6 0.1
v 0.6 0.6 0.1
v 0.5 0.6 0
v 0.6 0.6 0
v 0.5 0.6 -0.3
v 0.6 0.6 -0.3
v 0.5 0.6 -0.4
v 0.6 0.6 -0.4
v 0 0.6 -0.6
v 0.1 0.6 -0.6
v 0 0.6 -0.7
v 0.1 0.6 -0.7
v -0.3 0.7 -0.6
v -0.2 0.7 -0.6
v -0.3 0.7 -0.7
v -0.2 0.7 -0.7
v 0.4 0.8 0.6
v 0.5 0.8 0.6
v 0.4 0.8 0.4
v 0.5 0.8 0.4
v -0.1 0.8 -0.6
v 0 0.8 -0.6
v -0.1 0.8 -0.7
v 0 0.8 -0.7
v -0.6 0.9 0.8
v -0.5 0.9 0.8
v -0.6 0.9 0.7
v -0.5 0.9 0.7
v 0.3 0.9 0.7
v 0.4 0.9 0.7
v -0.9 0.9 0.6
v -0.8 0.9 0.6
v 0.3 0.9 0.6
v 0.4 0.9 0.6
v -0.9 0.9 0.5
v -0.8 0.9 0.5
v -0.4 0.9 -0.5
v -0.3 0.9 -0.5
v -0.3 0.9 -0.6
v -0.4 0.9 -0.7
v -0.3 0.9 -0.7
v 0.4 1 -0.1
v 0.5 1 -0.1
v 0.4 1 -0.2
v 0.5 1 -0.2
v 0.4 1 -0.3
v 0.5 1 -0.3
v 0.4 1 -0.4
v 0.5 1 -0.4
v -0.2 1 -0.6
v -0.1 1 -0.6
v -0.2 1 -0.7
v -0.1 1 -0.7
v -0.4 1.2 0.9
v -0.3 1.2 0.9
v -0.4 1.2 0.8
v -0.3 1.2 0.8
v -0.4 1.3 -0.4
v -0.3 1.3 -0.4
v 0.2 1.3 -0.4
v 0.3 1.3 -0.4
v -0.4 1.3 -0.5
v -0.3 1.3 -0.5
v 0.1 1.3 -0.5
v 0.2 1.3 -0.5
v 0.3 1.3 -0.5
v -0.1 1.3 -0.6
v 0 1.3 -0.6
v 0.1 1.3 -0.6
v 0.2 1.3 -0.6
v -0.1 1.3 -0.7
v 0 1.3 -0.7
v 0.2 1.4 0.7
v 0.3 1.4 0.7
v 0.2 1.4 0.5
v 0.3 1.4 0.5
v -0.3 1.4 -0.5
v -0.2 1.4 -0.5
v -0.3 1.4 -0.6
v -0.2 1.4 -0.6
v -0.1 1.4 -0.6
v -0.2 1.4 -0.7
v -0.1 1.4 -0.7
v -0.5 1.5 -0.2
v -0.4 1.5 -0.2
v -0.5 1.5 -0.3
v -0.4 1.5 -0.3
v -0.1 1.5 -0.6
v 0 1.5 -0.6
v -0.1 1.5 -0.7
v 0 1.5 -0.7
v -0.6 1.6 0.2
v -0.5 1.6 0.2
v -0.6 1.6 0.1
v -0.5 1.6 0.1
v 0.2 1.6 -0.2
v 0.3 1.6 -0.2
v 0.2 1.6 -0.3
v 0.3 1.6 -0.3
v -0.3 1.6 -0.6
v -0.2 1.6 -0.6
v -0.3 1.6 -0.7
v -0.2 1.6 -0.7
v -0.3 1.8 0.6
v -0.1 1.8 0.6
v -0.3 1.8 0.5
v -0.1 1.8 0.5
v -0.5 1.9 0.3
v -0.4 1.9 0.3
v -0.5 1.9 0.2
v -0.4 1.9 0.2
v -0.8 0.4 0.7
v -0.7 0.4 0.7
v -0.8 0.4 0.6
v -0.7 0.4 0.6
v 0.5 0.4 0.5
v 0.6 0.4 0.5
v 0.5 0.4 0.4
v 0.6 0.4 0.4
v 0.6 0.4 0.2
v 0.7 0.4 0.2
v 0.6 0.4 -0.2
v 0.7 0.4 -0.2
v 0.5 0.4 -0.3
v 0.6 0.4 -0.3
v 0.5 0.4 -0.4
v 0.6 0.4 -0.4
v -0.3 0.4 -0.6
v -0.2 0.4 -0.6
v -0.3 0.4 -0.7
v -0.2 0.4 -0.7
v 0.3 0.5 0.7
v 0.5 0.5 0.7
v 0.3 0.5 0.6
v 0.4 0.5 0.6
v 0.5 0.5 0.6
v 0.6 0.5 0.6
v 0.5 0.5 0.5
v 0.6 0.5 0.5
v 0.4 0.5 0.4
v 0.5 0.5 0.4
v 0.7 0.5 0.4
v 0.5 0.5 0.3
v 0.6 0.5 0.3
v 0.6 0.5 0.2
v 0.7 0.5 0.2
v 0.5 0.5 0.1
v 0.6 0.5 0.1
v 0.5 0.5 -0.1
v 0.6 0.5 -0.1
v -0.5 0.5 -0.5
v -0.4 0.5 -0.5
v -0.5 0.5 -0.6
v -0.4 0.5 -0.6
v -0.1 0.5 -0.6
v 0 0.5 -0.6
v -0.1 0.5 -0.7
v 0 0.5 -0.7
v -0.6 0.6 0.8
v -0.5 0.6 0.8
v -0.6 0.6 0.7
v -0.5 0.6 0.7
v -0.9 0.6 0.6
v -0.8 0.6 0.6
v -0.9 0.6 0.5
v -0.8 0.6 0.5
v 0.5 0.6 0.3
v 0.6 0.6 0.3
v 0.5 0.6 0.2
v 0.6 0.6 0.2
v 0.5 0.7 -0.3
v 0.6 0.7 -0.3
v 0.4 0.7 -0.4
v 0.5 0.7 -0.4
v 0.6 0.7 -0.4
v -0.6 0.7 -0.5
v -0.5 0.7 -0.5
v 0.4 0.7 -0.5
v 0.5 0.7 -0.5
v -0.6 0.7 -0.6
v -0.5 0.7 -0.6
v -0.2 0.7 -0.6
v -0.1 0.7 -0.6
v -0.2 0.7 -0.7
v -0.1 0.7 -0.7
v -0.4 0.8 0.9
v -0.3 0.8 0.9
v -0.4 0.8 0.8
v -0.3 0.8 0.8
v 0.5 0.8 0.2
v 0.6 0.8 0.2
v 0.5 0.8 0.1
v 0.6 0.8 0.1
v 0.5 0.8 -0.1
v 0.6 0.8 -0.1
v 0.5 0.8 -0.2
v 0.6 0.8 -0.2
v -0.4 0.8 -0.5
v -0.3 0.8 -0.5
v -0.4 0.8 -0.6
v -0.3 0.8 -0.6
v -0.3 0.9 0.9
v -0.2 0.9 0.9
v 0 0.9 0.9
v 0.1 0.9 0.9
v -0.3 0.9 0.8
v -0.2 0.9 0.8
v 0 0.9 0.8
v 0.1 0.9 0.8
v 0.4 0.9 0.6
v 0.5 0.9 0.6
v 0.4 0.9 0.4
v 0.5 0.9 0.4
v 0.4 0.9 0.3
v 0.5 0.9 0.3
v 0.4 0.9 0.2
v 0.5 0.9 0.2
v 0.4 0.9 -0.1
v 0.5 0.9 -0.1
v -0.7 0.9 -0.4
v -0.5 0.9 -0.4
v 0.3 0.9 -0.4
v 0.4 0.9 -0.4
v 0.5 0.9 -0.4
v -0.7 0.9 -0.5
v -0.5 0.9 -0.5
v 0.2 0.9 -0.5
v 0.3 0.9 -0.5
v 0.4 0.9 -0.5
v -0.3 0.9 -0.6
v -0.2 0.9 -0.6
v 0.2 0.9 -0.6
v 0.3 0.9 -0.6
v -0.3 0.9 -0.7
v -0.2 0.9 -0.7
v -0.2 1 0.9
v -0.1 1 0.9
v 0 1 0.9
v -0.2 1 0.8
v -0.1 1 0.8
v 0 1 0.8
v 0.2 1 0.8
v 0.3 1 0.8
v -0.7 1 0.7
v -0.6 1 0.7
v 0.2 1 0.7
v 0.3 1 0.7
v -0.7 1 0.6
v -0.6 1 0.6
v -1 1 0.2
v -0.9 1 0.2
v 0.4 1 0.2
v 0.5 1 0.2
v 0.4 1 0.1
v 0.5 1 0.1
v 0.6 1 0.1
v 0.5 1 0
v 0.6 1 0
v -0.9 1 -0.1
v -0.8 1 -0.1
v -1 1 -0.2
v -0.9 1 -0.2
v -0.8 1 -0.2
v -0.7 1 -0.2
v -0.9 1 -0.3
v -0.7 1 -0.3
v -0.8 1 -0.4
v -0.7 1 -0.4
v -0.8 1 -0.5
v -0.7 1 -0.5
v -0.4 1 -0.6
v -0.3 1 -0.6
v -0.4 1 -0.7
v -0.3 1 -0.7
v -0.6 1.1 0.8
v -0.5 1.1 0.8
v 0.3 1.1 0.7
v 0.4 1.1 0.7
v -0.8 1.1 0.6
v -0.7 1.1 0.6
v -0.6 1.1 0.6
v -0.5 1.1 0.6
v 0.3 1.1 0.6
v 0.4 1.1 0.6
v -0.9 1.1 0.5
v -0.8 1.1 0.5
v -0.7 1.1 0.5
v -0.9 1.1 0.4
v 0.4 1.1 0.4
v 0.5 1.1 0.4
v -1 1.1 0.3
v -0.9 1.1 0.3
v -0.8 1.1 0.3
v 0.4 1.1 0.3
v 0.5 1.1 0.3
v -1 1.1 0.2
v -0.9 1.1 0.2
v -0.8 1.1 -0.1
v -0.7 1.1 -0.1
v -0.8 1.1 -0.2
v -0.7 1.1 -0.2
v -0.9 1.1 -0.3
v -0.7 1.1 -0.3
v -0.6 1.1 -0.3
v 0.4 1.1 -0.3
v 0.5 1.1 -0.3
v -0.9 1.1 -0.4
v -0.6 1.1 -0.4
v -0.5 1.1 -0.4
v -0.4 1.1 -0.4
v 0.4 1.1 -0.4
v 0.5 1.1 -0.4
v -0.5 1.1 -0.5
v -0.4 1.1 -0.5
v -0.3 1.1 -0.5
v -0.4 1.1 -0.6
v -0.3 1.1 -0.6
v -0.2 1.1 -0.6
v -0.1 1.1 -0.6
v 0 1.1 -0.6
v 0.1 1.1 -0.6
v -0.2 1.1 -0.7
v -0.1 1.1 -0.7
v 0 1.1 -0.7
v 0.1 1.1 -0.7
v -0.5 1.2 0.8
v -0.4 1.2 0.8
v 0 1.2 0.8
v 0.2 1.2 0.8
v 0 1.2 0.7
v 0.2 1.2 0.7
v 0.3 1.2 0.7
v -0.5 1.2 0.6
v -0.4 1.2 0.6
v 0.2 1.2 0.6
v 0.3 1.2 0.6
v 0.4 1.2 0.6
v -0.8 1.2 0.5
v -0.7 1.2 0.5
v -1 1.2 0.4
v -0.9 1.2 0.4
v 0.3 1.2 0.4
v 0.4 1.2 0.4
v -1 1.2 0.3
v -0.9 1.2 0.3
v -0.8 1.2 0.3
v -0.7 1.2 0.3
v -0.8 1.2 0
v -0.7 1.2 0
v 0.4 1.2 0
v 0.5 1.2 0
v -0.9 1.2 -0.1
v -0.7 1.2 -0.1
v -0.6 1.2 -0.1
v 0.3 1.2 -0.1
v 0.4 1.2 -0.1
v 0.4 1.2 -0.2
v 0.5 1.2 -0.2
v -0.7 1.2 -0.3
v -0.6 1.2 -0.3
v -0.4 1.2 -0.3
v 0.3 1.2 -0.3
v 0.4 1.2 -0.3
v -0.6 1.2 -0.4
v -0.4 1.2 -0.4
v -0.3 1.2 -0.4
v 0.2 1.2 -0.4
v 0.3 1.2 -0.4
v -0.4 1.2 -0.5
v -0.3 1.2 -0.5
v 0.1 1.2 -0.5
v 0.2 1.2 -0.5
v 0.3 1.2 -0.5
v -0.1 1.2 -0.6
v 0 1.2 -0.6
v 0.1 1.2 -0.6
v 0.2 1.2 -0.6
v -0.1 1.2 -0.7
v 0 1.2 -0.7
v -0.2 1.3 0.8
v 0 1.3 0.8
v -0.2 1.3 0.7
v 0 1.3 0.7
v 0.1 1.3 0.7
v -0.9 1.3 0.6
v -0.8 1.3 0.6
v 0 1.3 0.6
v 0.1 1.3 0.6
v 0.2 1.3 0.6
v 0.3 1.3 0.6
v -0.9 1.3 0.5
v -0.8 1.3 0.5
v 0.2 1.3 0.5
v 0.3 1.3 0.5
v -0.8 1.3 0.3
v -0.7 1.3 0.3
v -0.7 1.3 0.1
v -0.6 1.3 0.1
v 0.4 1.3 0.1
v 0.5 1.3 0.1
v -0.8 1.3 0
v -0.7 1.3 0
v 0.3 1.3 0
v 0.4 1.3 0
v 0.5 1.3 0
v -0.7 1.3 -0.1
v -0.6 1.3 -0.1
v -0.5 1.3 -0.1
v 0.3 1.3 -0.1
v 0.4 1.3 -0.1
v -0.6 1.3 -0.3
v -0.5 1.3 -0.3
v 0.3 1.3 -0.3
v 0.4 1.3 -0.3
v 0.3 1.3 -0.4
v 0.4 1.3 -0.4
v -0.3 1.3 -0.5
v -0.2 1.3 -0.5
v -0.3 1.3 -0.6
v -0.2 1.3 -0.6
v -0.4 1.4 0.8
v -0.3 1.4 0.8
v -0.4 1.4 0.7
v -0.3 1.4 0.7
v 0.1 1.4 0.7
v 0.2 1.4 0.7
v -0.7 1.4 0.6
v -0.6 1.4 0.6
v 0.1 1.4 0.6
v -0.6 1.4 0.5
v -0.5 1.4 0.5
v 0.1 1.4 0.5
v 0.2 1.4 0.5
v -0.7 1.4 0.4
v -0.5 1.4 0.4
v 0.3 1.4 0.4
v 0.4 1.4 0.4
v -0.7 1.4 0.2
v -0.6 1.4 0.2
v -0.7 1.4 0.1
v -0.6 1.4 0.1
v 0.2 1.4 0
v 0.3 1.4 0
v 0.4 1.4 0
v 0.2 1.4 -0.1
v 0.3 1.4 -0.1
v -0.5 1.4 -0.2
v -0.4 1.4 -0.2
v 0.2 1.4 -0.2
v 0.3 1.4 -0.2
v -0.5 1.4 -0.3
v -0.4 1.4 -0.3
v 0.2 1.4 -0.3
v 0.3 1.4 -0.3
v -0.1 1.4 -0.6
v 0 1.4 -0.6
v -0.1 1.4 -0.7
v 0 1.4 -0.7
v -0.4 1.5 0.9
v -0.3 1.5 0.9
v -0.4 1.5 0.8
v -0.3 1.5 0.8
v -0.2 1.5 0.8
v -0.3 1.5 0.7
v -0.2 1.5 0.7
v 0 1.5 0.7
v 0.2 1.5 0.7
v 0.3 1.5 0.7
v -0.6 1.5 0.6
v -0.5 1.5 0.6
v -0.3 1.5 0.6
v -0.2 1.5 0.6
v 0 1.5 0.6
v 0.1 1.5 0.6
v -0.6 1.5 0.5
v -0.5 1.5 0.5
v -0.2 1.5 0.5
v 0.1 1.5 0.5
v 0.2 1.5 0.5
v -0.7 1.5 0.4
v -0.6 1.5 0.4
v -0.6 1.5 0.3
v -0.5 1.5 0.3
v 0.1 1.5 0.3
v 0.2 1.5 0.3
v -0.7 1.5 0.2
v -0.6 1.5 0.2
v -0.6 1.5 0.1
v -0.5 1.5 0.1
v 0.2 1.5 0
v 0.3 1.5 0
v 0.2 1.5 -0.1
v 0.3 1.5 -0.1
v 0.2 1.5 -0.2
v 0.3 1.5 -0.2
v -0.4 1.5 -0.4
v -0.3 1.5 -0.4
v -0.4 1.5 -0.5
v -0.3 1.5 -0.5
v 0.1 1.5 -0.5
v 0.2 1.5 -0.5
v 0.1 1.5 -0.6
v 0.2 1.5 -0.6
v -0.4 1.6 0.7
v -0.3 1.6 0.7
v -0.5 1.6 0.6
v -0.4 1.6 0.6
v -0.3 1.6 0.6
v -0.2 1.6 0.6
v -0.4 1.6 0.5
v -0.2 1.6 0.5
v -0.1 1.6 0.5
v 0.1 1.6 0.5
v -0.6 1.6 0.4
v -0.5 1.6 0.4
v -0.4 1.6 0.4
v -0.1 1.6 0.4
v 0.1 1.6 0.4
v -0.6 1.6 0.3
v -0.5 1.6 0.3
v 0.1 1.6 0.3
v 0.2 1.6 0.3
v 0.1 1.6 0.1
v 0.2 1.6 0.1
v -0.5 1.6 -0.2
v -0.4 1.6 -0.2
v -0.5 1.6 -0.3
v -0.4 1.6 -0.3
v -0.3 1.6 -0.3
v -0.4 1.6 -0.4
v -0.3 1.6 -0.4
v 0.2 1.6 -0.4
v 0.3 1.6 -0.4
v 0.2 1.6 -0.5
v 0.3 1.6 -0.5
v -0.1 1.6 -0.6
v 0 1.6 -0.6
v -0.1 1.6 -0.7
v 0 1.6 -0.7
v -0.4 1.7 0.5
v -0.3 1.7 0.5
v -0.5 1.7 0.4
v -0.4 1.7 0.4
v -0.3 1.7 0.4
v -0.1 1.7 0.4
v 0.1 1.7 0.4
v -0.1 1.7 0.3
v 0 1.7 0.3
v -0.6 1.7 0.2
v -0.5 1.7 0.2
v -0.4 1.7 0.2
v 0 1.7 0.1
v 0.1 1.7 0.1
v 0.2 1.7 0.1
v -0.6 1.7 -0.1
v -0.5 1.7 -0.1
v 0.1 1.7 -0.2
v 0.2 1.7 -0.2
v 0.3 1.7 -0.2
v 0.1 1.7 -0.4
v 0.2 1.7 -0.4
v 0.3 1.7 -0.4
v -0.3 1.7 -0.5
v -0.1 1.7 -0.5
v 0.1 1.7 -0.5
v 0.2 1.7 -0.5
v -0.3 1.7 -0.6
v -0.1 1.7 -0.6
v -0.3 1.7 -0.7
v -0.1 1.7 -0.7
v -0.4 1.8 0.4
v -0.3 1.8 0.4
v -0.4 1.8 0.3
v -0.3 1.8 0.3
v -0.2 1.8 0.3
v -0.1 1.8 0.3
v 0 1.8 0.3
v -0.5 1.8 0.2
v -0.4 1.8 0.2
v -0.3 1.8 0.2
v -0.2 1.8 0.2
v -0.1 1.8 0.2
v -0.5 1.8 0.1
v -0.4 1.8 0.1
v -0.2 1.8 0.1
v -0.1 1.8 0.1
v 0 1.8 0.1
v 0.1 1.8 0.1
v -0.1 1.8 0
v 0 1.8 0
v -0.5 1.8 -0.1
v -0.4 1.8 -0.1
v 0 1.8 -0.1
v 0.1 1.8 -0.1
v -0.5 1.8 -0.2
v -0.4 1.8 -0.2
v 0.1 1.8 -0.2
v 0.2 1.8 -0.2
v -0.3 1.8 -0.4
v -0.2 1.8 -0.4
v 0.1 1.8 -0.4
v 0.2 1.8 -0.4
v -0.3 1.8 -0.5
v -0.2 1.8 -0.5
v 0 1.8 -0.5
v 0.1 1.8 -0.5
v 0 1.8 -0.6
v 0.1 1.8 -0.6
v -0.3 1.9 0.6
v -0.1 1.9 0.6
v -0.4 1.9 0.3
v -0.3 1.9 0.3
v -0.2 1.9 0.3
v -0.4 1.9 0.2
v -0.3 1.9 0.2
v -0.2 1.9 0.2
v -0.1 1.9 0.2
v -0.2 1.9 0.1
v -0.1 1.9 0.1
v -0.5 1.9 0
v -0.4 1.9 0
v -0.1 1.9 0
v 0 1.9 0
v -0.5 1.9 -0.1
v -0.4 1.9 -0.1
v -0.3 1.9 -0.1
v 0 1.9 -0.1
v 0.1 1.9 -0.1
v -0.4 1.9 -0.3
v -0.3 1.9 -0.3
v -0.3 1.9 -0.4
v -0.2 1.9 -0.4
v -0.2 1.9 -0.5
v -0.1 1.9 -0.5
v 0 1.9 -0.5
v 0.1 1.9 -0.5
v -0.1 1.9 -0.6
v 0 1.9 -0.6
v -0.5 2 0.3
v -0.4 2 0.3
v -0.5 2 0.2
v -0.4 2 0.2
v -0.3 2 0.2
v -0.5 2 0.1
v -0.4 2 0.1
v -0.5 2 0
v -0.4 2 0
v -0.4 2 -0.1
v -0.3 2 -0.1

# faces
f 4/2/1 2/2/1 1/2/1
f 5/1/1 3/1/1 2/1/1
f 5/2/1 2/2/1 4/2/1
f 6/1/1 3/1/1 5/1/1
f 7/3/1 5/3/1 4/3/1
f 7/3/1 6/3/1 5/3/1
f 8/3/1 6/3/1 7/3/1
f 9/3/1 6/3/1 8/3/1
f 10/2/1 8/2/1 7/2/1
f 11/1/1 9/1/1 8/1/1
f 11/2/1 8/2/1 10/2/1
f 12/1/1 9/1/1 11/1/1
f 13/3/1 11/3/1 10/3/1
f 13/3/1 12/3/1 11/3/1
f 14/3/1 12/3/1 13/3/1
f 15/3/1 13/3/1 10/3/1
f 16/3/1 13/3/1 15/3/1
f 17/3/1 15/3/1 10/3/1
f 18/3/1 15/3/1 17/3/1
f 24/2/1 20/2/1 19/2/1
f 25/2/1 20/2/1 24/2/1
f 26/2/1 22/2/1 21/2/1
f 27/1/1 23/1/1 22/1/1
f 27/2/1 22/2/1 26/2/1
f 28/1/1 23/1/1 27/1/1
f 29/3/1 25/3/1 24/3/1
f 30/3/1 25/3/1 29/3/1
f 31/3/1 27/3/1 26/3/1
f 31/3/1 28/3/1 27/3/1
f 32/3/1 28/3/1 31/3/1
f 33/3/1 28/3/1 32/3/1
f 34/2/1 30/2/1 29/2/1
f 35/2/1 30/2/1 34/2/1
f 36/2/1 30/2/1 35/2/1
f 37/2/1 32/2/1 31/2/1
f 38/1/1 33/1/1 32/1/1
f 38/2/1 32/2/1 37/2/1
f 39/1/1 33/1/1 38/1/1
f 41/3/1 36/3/1 35/3/1
f 44/3/1 39/3/1 38/3/1
f 44/3/1 38/3/1 37/3/1
f 45/3/1 39/3/1 44/3/1
f 46/3/1 41/3/1 40/3/1
f 46/3/1 36/3/1 41/3/1
f 47/3/1 36/3/1 46/3/1
f 49/3/1 43/3/1 42/3/1
f 50/3/1 39/3/1 45/3/1
f 51/3/1 39/3/1 50/3/1
f 52/3/1 49/3/1 48/3/1
f 53/3/1 43/3/1 49/3/1
f 53/3/1 49/3/1 52/3/1
f 54/3/1 46/3/1 40/3/1
f 55/3/1 46/3/1 54/3/1
f 60/2/1 57/2/1 56/2/1
f 61/2/1 57/2/1 60/2/1
f 62/1/1 59/1/1 58/1/1
f 63/1/1 59/1/1 62/1/1
f 64/3/1 63/3/1 62/3/1
f 65/3/1 63/3/1 64/3/1
f 68/1/1 65/1/1 64/1/1
f 69/1/1 65/1/1 68/1/1
f 70/3/1 67/3/1 66/3/1
f 71/3/1 67/3/1 70/3/1
f 74/3/1 69/3/1 68/3/1
f 75/3/1 69/3/1 74/3/1
f 78/3/1 73/3/1 72/3/1
f 79/3/1 73/3/1 78/3/1
f 80/3/1 77/3/1 76/3/1
f 81/3/1 77/3/1 80/3/1
f 83/3/1 82/3/1 81/3/1
f 84/3/1 82/3/1 83/3/1
f 89/4/1 86/4/1 85/4/1
f 90/4/1 86/4/1 89/4/1
f 91/4/1 88/4/1 87/4/1
f 92/4/1 88/4/1 91/4/1
f 93/5/1 90/5/1 89/5/1
f 94/5/1 90/5/1 93/5/1
f 95/5/1 92/5/1 91/5/1
f 96/5/1 92/5/1 95/5/1
f 99/3/1 98/3/1 97/3/1
f 100/3/1 98/3/1 99/3/1
f 101/2/1 100/2/1 99/2/1
f 102/2/1 100/2/1 101/2/1
f 103/3/1 102/3/1 101/3/1
f 104/3/1 102/3/1 103/3/1
f 110/3/1 106/3/1 105/3/1
f 111/3/1 106/3/1 110/3/1
f 112/3/1 108/3/1 107/3/1
f 115/3/1 110/3/1 109/3/1
f 115/3/1 111/3/1 110/3/1
f 116/3/1 111/3/1 115/3/1
f 117/3/1 113/3/1 112/3/1
f 119/3/1 115/3/1 114/3/1
f 120/3/1 115/3/1 119/3/1
f 121/3/1 112/3/1 107/3/1
f 121/3/1 118/3/1 117/3/1
f 121/3/1 117/3/1 112/3/1
f 122/3/1 118/3/1 121/3/1
f 123/3/1 118/3/1 122/3/1
f 124/3/1 118/3/1 123/3/1
f 125/3/1 123/3/1 122/3/1
f 126/3/1 123/3/1 125/3/1
f 131/2/1 128/2/1 127/2/1
f 132/2/1 128/2/1 131/2/1
f 133/2/1 130/2/1 129/2/1
f 134/2/1 130/2/1 133/2/1
f 135/3/1 132/3/1 131/3/1
f 136/3/1 132/3/1 135/3/1
f 137/3/1 134/3/1 133/3/1
f 138/3/1 134/3/1 137/3/1
f 139/2/1 136/2/1 135/2/1
f 140/2/1 136/2/1 139/2/1
f 141/2/1 138/2/1 137/2/1
f 142/2/1 138/2/1 141/2/1
f 143/3/1 142/3/1 141/3/1
f 144/3/1 142/3/1 143/3/1
f 147/3/1 146/3/1 145/3/1
f 149/3/1 147/3/1 145/3/1
f 149/3/1 148/3/1 147/3/1
f 150/3/1 148/3/1 149/3/1
f 154/3/1 152/3/1 151/3/1
f 155/3/1 152/3/1 154/3/1
f 157/3/1 154/3/1 153/3/1
f 158/3/1 154/3/1 157/3/1
f 162/3/1 157/3/1 156/3/1
f 163/3/1 160/3/1 159/3/1
f 164/3/1 160/3/1 163/3/1
f 167/3/1 162/3/1 161/3/1
f 168/3/1 157/3/1 162/3/1
f 168/3/1 162/3/1 167/3/1
f 169/3/1 166/3/1 165/3/1
f 170/3/1 166/3/1 169/3/1
f 172/3/1 157/3/1 168/3/1
f 173/3/1 172/3/1 171/3/1
f 174/3/1 157/3/1 172/3/1
f 174/3/1 172/3/1 173/3/1
f 177/3/1 176/3/1 175/3/1
f 178/3/1 176/3/1 177/3/1
f 183/3/1 180/3/1 179/3/1
f 184/3/1 180/3/1 183/3/1
f 185/3/1 182/3/1 181/3/1
f 186/3/1 182/3/1 185/3/1
f 191/3/1 188/3/1 187/3/1
f 192/3/1 188/3/1 191/3/1
f 194/3/1 190/3/1 189/3/1
f 197/3/1 191/3/1 187/3/1
f 199/3/1 194/3/1 193/3/1
f 200/3/1 190/3/1 194/3/1
f 200/3/1 194/3/1 199/3/1
f 201/3/1 196/3/1 195/3/1
f 202/3/1 196/3/1 201/3/1
f 203/3/1 196/3/1 202/3/1
f 204/3/1 198/3/1 197/3/1
f 204/3/1 197/3/1 187/3/1
f 205/3/1 198/3/1 204/3/1
f 206/3/1 202/3/1 201/3/1
f 206/3/1 201/3/1 200/3/1
f 207/3/1 202/3/1 206/3/1
f 208/3/1 204/3/1 187/3/1
f 209/3/1 208/3/1 207/3/1
f 210/3/1 208/3/1 209/3/1
f 211/3/1 204/3/1 208/3/1
f 211/3/1 208/3/1 210/3/1
f 212/3/1 204/3/1 211/3/1
f 215/3/1 211/3/1 210/3/1
f 216/3/1 211/3/1 215/3/1
f 217/3/1 214/3/1 213/3/1
f 218/3/1 214/3/1 217/3/1
f 219/3/1 215/3/1 210/3/1
f 220/3/1 215/3/1 219/3/1
f 223/1/1 222/1/1 221/1/1
f 224/1/1 222/1/1 223/1/1
f 225/3/1 224/3/1 223/3/1
f 226/3/1 224/3/1 225/3/1
f 229/1/1 226/1/1 225/1/1
f 230/1/1 226/1/1 229/1/1
f 231/6/1 228/6/1 227/6/1
f 232/6/1 228/6/1 231/6/1
f 233/3/1 230/3/1 229/3/1
f 234/3/1 230/3/1 233/3/1
f 235/3/1 232/3/1 231/3/1
f 236/3/1 232/3/1 235/3/1
f 239/3/1 238/3/1 237/3/1
f 240/3/1 238/3/1 239/3/1
f 242/3/1 239/3/1 237/3/1
f 243/3/1 239/3/1 242/3/1
f 248/3/1 242/3/1 241/3/1
f 249/3/1 242/3/1 248/3/1
f 250/3/1 248/3/1 247/3/1
f 252/3/1 246/3/1 245/3/1
f 252/3/1 245/3/1 244/3/1
f 253/3/1 246/3/1 252/3/1
f 255/3/1 251/3/1 250/3/1
f 255/3/1 250/3/1 247/3/1
f 256/3/1 252/3/1 244/3/1
f 257/3/1 252/3/1 256/3/1
f 258/3/1 255/3/1 254/3/1
f 259/3/1 251/3/1 255/3/1
f 259/3/1 255/3/1 258/3/1
f 260/3/1 251/3/1 259/3/1
f 261/3/1 251/3/1 260/3/1
f 262/3/1 246/3/1 253/3/1
f 263/3/1 246/3/1 262/3/1
f 267/3/1 260/3/1 259/3/1
f 268/3/1 260/3/1 267/3/1
f 269/3/1 265/3/1 264/3/1
f 270/3/1 265/3/1 269/3/1
f 272/3/1 271/3/1 270/3/1
f 273/3/1 271/3/1 272/3/1
f 274/3/1 271/3/1 273/3/1
f 277/3/1 267/3/1 266/3/1
f 278/3/1 275/3/1 274/3/1
f 278/3/1 274/3/1 273/3/1
f 279/3/1 275/3/1 278/3/1
f 281/3/1 277/3/1 276/3/1
f 282/3/1 267/3/1 277/3/1
f 282/3/1 277/3/1 281/3/1
f 283/3/1 275/3/1 279/3/1
f 284/3/1 275/3/1 283/3/1
f 285/3/1 281/3/1 280/3/1
f 286/3/1 281/3/1 285/3/1
f 289/4/1 288/4/1 287/4/1
f 290/4/1 288/4/1 289/4/1
f 296/5/1 292/5/1 291/5/1
f 297/5/1 294/5/1 293/5/1
f 298/5/1 294/5/1 297/5/1
f 299/3/1 296/3/1 295/3/1
f 300/5/1 292/5/1 296/5/1
f 300/3/1 296/3/1 299/3/1
f 301/5/1 292/5/1 300/5/1
f 305/3/1 303/3/1 302/3/1
f 306/3/1 305/3/1 304/3/1
f 307/3/1 303/3/1 305/3/1
f 307/3/1 305/3/1 306/3/1
f 308/3/1 303/3/1 307/3/1
f 313/3/1 310/3/1 309/3/1
f 314/3/1 310/3/1 313/3/1
f 316/3/1 312/3/1 311/3/1
f 318/3/1 316/3/1 315/3/1
f 319/3/1 312/3/1 316/3/1
f 319/3/1 316/3/1 318/3/1
f 323/3/1 319/3/1 318/3/1
f 323/3/1 318/3/1 317/3/1
f 324/5/1 320/5/1 319/5/1
f 324/3/1 319/3/1 323/3/1
f 325/5/1 320/5/1 324/5/1
f 327/3/1 322/3/1 321/3/1
f 328/3/1 322/3/1 327/3/1
f 330/3/1 323/3/1 317/3/1
f 331/3/1 323/3/1 330/3/1
f 332/3/1 329/3/1 328/3/1
f 332/3/1 327/3/1 326/3/1
f 332/3/1 328/3/1 327/3/1
f 333/3/1 329/3/1 332/3/1
f 334/3/1 330/3/1 317/3/1
f 335/3/1 330/3/1 334/3/1
f 338/5/1 337/5/1 336/5/1
f 339/5/1 337/5/1 338/5/1
f 340/4/1 339/4/1 338/4/1
f 341/4/1 339/4/1 340/4/1
f 342/5/1 341/5/1 340/5/1
f 343/5/1 341/5/1 342/5/1
f 346/5/1 345/5/1 344/5/1
f 347/5/1 345/5/1 346/5/1
f 350/4/1 349/4/1 348/4/1
f 351/4/1 349/4/1 350/4/1
f 354/3/1 353/3/1 352/3/1
f 355/3/1 353/3/1 354/3/1
f 357/4/1 356/4/1 355/4/1
f 358/4/1 356/4/1 357/4/1
f 359/5/1 358/5/1 357/5/1
f 360/5/1 358/5/1 359/5/1
f 365/3/1 362/3/1 361/3/1
f 366/3/1 362/3/1 365/3/1
f 367/3/1 364/3/1 363/3/1
f 368/3/1 364/3/1 367/3/1
f 371/4/1 370/4/1 369/4/1
f 372/4/1 370/4/1 371/4/1
f 375/5/1 374/5/1 373/5/1
f 376/5/1 374/5/1 375/5/1
f 377/4/1 376/4/1 375/4/1
f 378/4/1 376/4/1 377/4/1
f 381/4/1 380/4/1 379/4/1
f 382/4/1 380/4/1 381/4/1
f 385/5/1 384/5/1 383/5/1
f 386/5/1 384/5/1 385/5/1
f 389/3/1 388/3/1 387/3/1
f 390/3/1 388/3/1 389/3/1
f 393/3/1 392/3/1 391/3/1
f 394/3/1 392/3/1 393/3/1
f 397/3/1 396/3/1 395/3/1
f 398/3/1 396/3/1 397/3/1
f 401/3/1 400/3/1 399/3/1
f 402/3/1 400/3/1 401/3/1
f 407/4/1 404/4/1 403/4/1
f 408/4/1 404/4/1 407/4/1
f 409/4/1 406/4/1 405/4/1
f 410/4/1 406/4/1 409/4/1
f 411/5/1 408/5/1 407/5/1
f 412/5/1 408/5/1 411/5/1
f 413/5/1 410/5/1 409/5/1
f 414/5/1 410/5/1 413/5/1
f 415/3/2 416/3/2 417/3/2
f 417/3/2 416/3/2 418/3/2
f 419/3/2 420/3/2 421/3/2
f 419/3/2 421/3/2 422/3/2
f 422/3/2 421/3/2 423/3/2
f 424/3/2 425/3/2 426/3/2
f 426/3/2 425/3/2 427/3/2
f 428/4/2 429/4/2 432/4/2
f 432/4/2 429/4/2 433/4/2
f 430/4/2 431/4/2 434/4/2
f 434/4/2 431/4/2 435/4/2
f 432/5/2 433/5/2 436/5/2
f 436/5/2 433/5/2 437/5/2
f 434/5/2 435/5/2 438/5/2
f 438/5/2 435/5/2 439/5/2
f 440/2/2 441/2/2 442/2/2
f 442/2/2 441/2/2 443/2/2
f 442/3/2 443/3/2 444/3/2
f 444/3/2 443/3/2 445/3/2
f 446/3/2 447/3/2 448/3/2
f 448/3/2 447/3/2 449/3/2
f 450/3/2 451/3/2 452/3/2
f 452/3/2 451/3/2 453/3/2
f 454/3/2 455/3/2 456/3/2
f 456/3/2 455/3/2 457/3/2
f 458/3/2 459/3/2 460/3/2
f 460/3/2 459/3/2 461/3/2
f 462/3/2 463/3/2 464/3/2
f 464/3/2 463/3/2 465/3/2
f 465/3/2 466/3/2 467/3/2
f 467/3/2 466/3/2 468/3/2
f 469/4/2 470/4/2 471/4/2
f 471/4/2 470/4/2 472/4/2
f 473/5/2 474/5/2 475/5/2
f 475/5/2 474/5/2 476/5/2
f 477/3/2 478/3/2 479/3/2
f 479/3/2 478/3/2 480/3/2
f 481/3/2 482/3/2 483/3/2
f 483/3/2 482/3/2 484/3/2
f 485/3/2 486/3/2 487/3/2
f 487/3/2 486/3/2 488/3/2
f 489/4/2 490/4/2 491/4/2
f 491/4/2 490/4/2 492/4/2
f 491/5/2 492/5/2 493/5/2
f 493/5/2 492/5/2 494/5/2
f 495/4/2 496/4/2 497/4/2
f 497/4/2 496/4/2 498/4/2
f 499/3/2 500/3/2 503/3/2
f 501/5/2 502/5/2 505/5/2
f 505/5/2 502/5/2 506/5/2
f 503/3/2 504/3/2 508/3/2
f 499/3/2 503/3/2 508/3/2
f 508/3/2 504/3/2 509/3/2
f 507/3/2 508/3/2 513/3/2
f 508/3/2 509/3/2 513/3/2
f 509/3/2 510/3/2 513/3/2
f 513/3/2 510/3/2 514/3/2
f 511/3/2 512/3/2 515/3/2
f 515/3/2 512/3/2 516/3/2
f 517/4/2 518/4/2 521/4/2
f 521/4/2 518/4/2 522/4/2
f 519/4/2 520/4/2 523/4/2
f 523/4/2 520/4/2 524/4/2
f 523/5/2 524/5/2 525/5/2
f 525/5/2 524/5/2 526/5/2
f 527/4/2 528/4/2 529/4/2
f 529/4/2 528/4/2 530/4/2
f 531/4/2 532/4/2 535/4/2
f 535/4/2 532/4/2 536/4/2
f 533/3/2 534/3/2 537/3/2
f 537/3/2 534/3/2 538/3/2
f 540/5/2 541/5/2 542/5/2
f 542/5/2 541/5/2 543/5/2
f 538/3/2 539/3/2 544/3/2
f 544/3/2 539/3/2 545/3/2
f 546/4/2 547/4/2 548/4/2
f 548/4/2 547/4/2 549/4/2
f 550/3/2 551/3/2 552/3/2
f 552/3/2 551/3/2 553/3/2
f 554/3/2 555/3/2 558/3/2
f 558/3/2 555/3/2 559/3/2
f 556/3/2 557/3/2 560/3/2
f 560/3/2 557/3/2 561/3/2
f 562/3/2 563/3/2 564/3/2
f 564/3/2 563/3/2 565/3/2
f 564/2/2 565/2/2 566/2/2
f 566/2/2 565/2/2 567/2/2
f 566/3/2 567/3/2 570/3/2
f 570/3/2 567/3/2 571/3/2
f 568/3/2 569/3/2 572/3/2
f 572/3/2 569/3/2 573/3/2
f 574/3/2 575/3/2 576/3/2
f 576/3/2 575/3/2 577/3/2
f 578/3/2 579/3/2 580/3/2
f 580/3/2 579/3/2 581/3/2
f 581/3/2 582/3/2 585/3/2
f 585/3/2 582/3/2 586/3/2
f 586/3/2 582/3/2 587/3/2
f 587/3/2 588/3/2 589/3/2
f 586/3/2 587/3/2 589/3/2
f 589/3/2 588/3/2 590/3/2
f 583/3/2 584/3/2 593/3/2
f 590/3/2 591/3/2 594/3/2
f 594/3/2 591/3/2 595/3/2
f 595/3/2 591/3/2 596/3/2
f 592/3/2 593/3/2 597/3/2
f 593/3/2 584/3/2 598/3/2
f 597/3/2 593/3/2 598/3/2
f 598/3/2 584/3/2 599/3/2
f 595/3/2 596/3/2 600/3/2
f 596/3/2 597/3/2 600/3/2
f 597/3/2 598/3/2 600/3/2
f 600/3/2 598/3/2 601/3/2
f 602/1/2 603/1/2 604/1/2
f 604/1/2 603/1/2 605/1/2
f 604/3/2 605/3/2 606/3/2
f 606/3/2 605/3/2 607/3/2
f 606/1/2 607/1/2 608/1/2
f 608/1/2 607/1/2 609/1/2
f 612/3/2 613/3/2 614/3/2
f 614/3/2 613/3/2 615/3/2
f 610/3/2 611/3/2 618/3/2
f 618/3/2 611/3/2 619/3/2
f 615/3/2 616/3/2 620/3/2
f 617/3/2 618/3/2 622/3/2
f 622/3/2 618/3/2 623/3/2
f 620/3/2 621/3/2 625/3/2
f 615/3/2 620/3/2 625/3/2
f 625/3/2 621/3/2 626/3/2
f 627/3/2 628/3/2 632/3/2
f 632/3/2 628/3/2 633/3/2
f 629/3/2 630/3/2 634/3/2
f 623/3/2 624/3/2 635/3/2
f 635/3/2 624/3/2 636/3/2
f 633/3/2 634/3/2 637/3/2
f 632/3/2 633/3/2 637/3/2
f 631/3/2 632/3/2 637/3/2
f 637/3/2 634/3/2 638/3/2
f 634/3/2 630/3/2 639/3/2
f 638/3/2 634/3/2 639/3/2
f 639/3/2 630/3/2 640/3/2
f 638/3/2 639/3/2 643/3/2
f 643/3/2 639/3/2 644/3/2
f 641/3/2 642/3/2 645/3/2
f 645/3/2 642/3/2 646/3/2
f 644/3/2 645/3/2 647/3/2
f 647/3/2 645/3/2 648/3/2
f 649/1/2 650/1/2 651/1/2
f 651/1/2 650/1/2 652/1/2
f 651/3/2 652/3/2 655/3/2
f 655/3/2 652/3/2 656/3/2
f 653/1/2 654/1/2 658/1/2
f 658/1/2 654/1/2 659/1/2
f 655/1/2 656/1/2 660/1/2
f 660/1/2 656/1/2 661/1/2
f 658/3/2 659/3/2 662/3/2
f 657/3/2 658/3/2 662/3/2
f 662/3/2 659/3/2 663/3/2
f 660/3/2 661/3/2 665/3/2
f 665/3/2 661/3/2 666/3/2
f 657/3/2 662/3/2 667/3/2
f 667/3/2 662/3/2 668/3/2
f 669/3/2 670/3/2 671/3/2
f 671/3/2 670/3/2 672/3/2
f 664/3/2 665/3/2 676/3/2
f 676/3/2 665/3/2 677/3/2
f 672/3/2 673/3/2 678/3/2
f 678/3/2 673/3/2 679/3/2
f 674/3/2 675/3/2 681/3/2
f 681/3/2 675/3/2 682/3/2
f 679/3/2 673/3/2 686/3/2
f 686/3/2 673/3/2 687/3/2
f 682/3/2 683/3/2 688/3/2
f 683/3/2 684/3/2 688/3/2
f 680/3/2 681/3/2 688/3/2
f 681/3/2 682/3/2 688/3/2
f 688/3/2 684/3/2 689/3/2
f 689/3/2 684/3/2 690/3/2
f 690/3/2 684/3/2 691/3/2
f 686/3/2 687/3/2 692/3/2
f 685/3/2 686/3/2 692/3/2
f 687/3/2 688/3/2 692/3/2
f 692/3/2 688/3/2 693/3/2
f 689/3/2 690/3/2 694/3/2
f 694/3/2 690/3/2 695/3/2
f 691/3/2 684/3/2 697/3/2
f 697/3/2 684/3/2 698/3/2
f 698/3/2 684/3/2 699/3/2
f 696/3/2 697/3/2 700/3/2
f 697/3/2 698/3/2 700/3/2
f 700/3/2 698/3/2 701/3/2
f 702/6/2 703/6/2 704/6/2
f 704/6/2 703/6/2 705/6/2
f 704/3/2 705/3/2 708/3/2
f 708/3/2 705/3/2 709/3/2
f 706/3/2 707/3/2 716/3/2
f 716/3/2 707/3/2 717/3/2
f 713/3/2 714/3/2 718/3/2
f 715/3/2 716/3/2 720/3/2
f 720/3/2 716/3/2 721/3/2
f 721/3/2 716/3/2 722/3/2
f 722/3/2 716/3/2 723/3/2
f 711/3/2 712/3/2 724/3/2
f 710/3/2 711/3/2 724/3/2
f 724/3/2 712/3/2 725/3/2
f 725/3/2 712/3/2 726/3/2
f 718/3/2 719/3/2 727/3/2
f 713/3/2 718/3/2 727/3/2
f 721/3/2 722/3/2 728/3/2
f 726/3/2 727/3/2 730/3/2
f 725/3/2 726/3/2 730/3/2
f 730/3/2 727/3/2 731/3/2
f 728/3/2 729/3/2 734/3/2
f 721/3/2 728/3/2 734/3/2
f 734/3/2 729/3/2 735/3/2
f 731/3/2 727/3/2 736/3/2
f 727/3/2 719/3/2 736/3/2
f 732/3/2 733/3/2 737/3/2
f 737/3/2 733/3/2 738/3/2
f 735/3/2 729/3/2 739/3/2
f 739/3/2 729/3/2 740/3/2
f 731/3/2 736/3/2 741/3/2
f 736/3/2 737/3/2 741/3/2
f 741/3/2 737/3/2 742/3/2
f 743/4/2 744/4/2 747/4/2
f 747/4/2 744/4/2 748/4/2
f 745/4/2 746/4/2 749/4/2
f 749/4/2 746/4/2 750/4/2
f 747/5/2 748/5/2 753/5/2
f 753/5/2 748/5/2 754/5/2
f 754/5/2 748/5/2 755/5/2
f 749/5/2 750/5/2 756/5/2
f 756/5/2 750/5/2 757/5/2
f 757/5/2 750/5/2 758/5/2
f 751/1/2 752/1/2 761/1/2
f 761/1/2 752/1/2 762/1/2
f 757/6/2 758/6/2 765/6/2
f 765/6/2 758/6/2 766/6/2
f 759/1/2 760/1/2 767/1/2
f 767/1/2 760/1/2 768/1/2
f 761/3/2 762/3/2 769/3/2
f 769/3/2 762/3/2 770/3/2
f 763/3/2 764/3/2 771/3/2
f 771/3/2 764/3/2 772/3/2
f 765/3/2 766/3/2 776/3/2
f 766/3/2 767/3/2 776/3/2
f 767/3/2 768/3/2 776/3/2
f 776/3/2 768/3/2 777/3/2
f 777/3/2 768/3/2 778/3/2
f 772/6/2 773/6/2 779/6/2
f 779/6/2 773/6/2 780/6/2
f 774/6/2 775/6/2 782/6/2
f 782/6/2 775/6/2 783/6/2
f 783/6/2 775/6/2 784/6/2
f 776/6/2 777/6/2 785/6/2
f 785/6/2 777/6/2 786/6/2
f 777/1/2 778/1/2 787/1/2
f 786/6/2 777/6/2 787/6/2
f 787/1/2 778/1/2 788/1/2
f 785/3/2 786/3/2 789/3/2
f 787/3/2 788/3/2 790/3/2
f 790/3/2 788/3/2 791/3/2
f 780/3/2 781/3/2 793/3/2
f 779/3/2 780/3/2 793/3/2
f 793/3/2 781/3/2 794/3/2
f 783/3/2 784/3/2 796/3/2
f 789/3/2 790/3/2 797/3/2
f 785/3/2 789/3/2 797/3/2
f 794/3/2 795/3/2 798/3/2
f 793/3/2 794/3/2 798/3/2
f 792/3/2 793/3/2 798/3/2
f 798/3/2 795/3/2 799/3/2
f 799/3/2 795/3/2 800/3/2
f 800/3/2 795/3/2 801/3/2
f 796/3/2 797/3/2 802/3/2
f 783/3/2 796/3/2 802/3/2
f 797/3/2 790/3/2 803/3/2
f 802/3/2 797/3/2 803/3/2
f 801/3/2 795/3/2 804/3/2
f 804/3/2 795/3/2 805/3/2
f 783/3/2 802/3/2 806/3/2
f 806/3/2 802/3/2 807/3/2
f 799/3/2 800/3/2 811/3/2
f 811/3/2 800/3/2 812/3/2
f 809/3/2 810/3/2 813/3/2
f 813/3/2 810/3/2 814/3/2
f 807/3/2 808/3/2 815/3/2
f 805/3/2 806/3/2 815/3/2
f 806/3/2 807/3/2 815/3/2
f 815/3/2 808/3/2 816/3/2
f 805/3/2 815/3/2 817/3/2
f 817/3/2 815/3/2 818/3/2
f 819/2/2 820/2/2 823/2/2
f 823/2/2 820/2/2 824/2/2
f 824/2/2 820/2/2 825/2/2
f 821/2/2 822/2/2 828/2/2
f 828/2/2 822/2/2 829/2/2
f 823/3/2 824/3/2 830/3/2
f 830/3/2 824/3/2 831/3/2
f 826/3/2 827/3/2 833/3/2
f 833/3/2 827/3/2 834/3/2
f 834/3/2 827/3/2 835/3/2
f 835/3/2 827/3/2 836/3/2
f 832/6/2 833/6/2 837/6/2
f 833/6/2 834/6/2 837/6/2
f 837/6/2 834/6/2 838/6/2
f 838/6/2 834/6/2 839/6/2
f 835/6/2 836/6/2 841/6/2
f 841/6/2 836/6/2 842/6/2
f 843/3/2 844/3/2 845/3/2
f 845/3/2 844/3/2 846/3/2
f 839/3/2 840/3/2 847/3/2
f 838/3/2 839/3/2 847/3/2
f 847/3/2 840/3/2 848/3/2
f 841/3/2 842/3/2 849/3/2
f 849/3/2 842/3/2 850/3/2
f 848/3/2 840/3/2 851/3/2
f 851/3/2 840/3/2 852/3/2
f 853/2/2 854/2/2 856/2/2
f 854/1/2 855/1/2 857/1/2
f 856/2/2 854/2/2 857/2/2
f 857/1/2 855/1/2 858/1/2
f 858/1/2 855/1/2 859/1/2
f 856/3/2 857/3/2 860/3/2
f 857/3/2 858/3/2 860/3/2
f 860/3/2 858/3/2 861/3/2
f 869/1/3 863/1/3 862/1/3
f 870/3/3 864/3/3 863/3/3
f 870/1/3 863/1/3 869/1/3
f 871/1/3 865/1/3 864/1/3
f 871/3/3 864/3/3 870/3/3
f 872/3/3 866/3/3 865/3/3
f 872/1/3 865/1/3 871/1/3
f 873/3/3 866/3/3 872/3/3
f 875/3/3 868/3/3 867/3/3
f 876/3/3 868/3/3 875/3/3
f 877/5/3 874/5/3 873/5/3
f 877/5/3 873/5/3 872/5/3
f 879/5/3 877/5/3 872/5/3
f 879/5/3 878/5/3 877/5/3
f 880/5/3 878/5/3 879/5/3
f 881/4/3 870/4/3 869/4/3
f 882/5/3 871/5/3 870/5/3
f 882/4/3 870/4/3 881/4/3
f 883/4/3 872/4/3 871/4/3
f 883/5/3 871/5/3 882/5/3
f 884/5/3 879/5/3 872/5/3
f 884/4/3 872/4/3 883/4/3
f 885/4/3 880/4/3 879/4/3
f 885/5/3 879/5/3 884/5/3
f 886/4/3 880/4/3 885/4/3
f 887/4/3 880/4/3 886/4/3
f 888/3/3 883/3/3 882/3/3
f 889/2/3 884/2/3 883/2/3
f 889/3/3 883/3/3 888/3/3
f 890/3/3 886/3/3 885/3/3
f 890/2/3 884/2/3 889/2/3
f 890/3/3 885/3/3 884/3/3
f 891/3/3 886/3/3 890/3/3
f 898/2/3 895/2/3 894/2/3
f 899/3/3 897/3/3 896/3/3
f 900/3/3 897/3/3 899/3/3
f 902/2/3 893/2/3 892/2/3
f 903/3/3 894/3/3 893/3/3
f 903/2/3 893/2/3 902/2/3
f 904/2/3 898/2/3 894/2/3
f 904/3/3 894/3/3 903/3/3
f 905/3/3 901/3/3 900/3/3
f 905/2/3 898/2/3 904/2/3
f 905/3/3 899/3/3 898/3/3
f 905/3/3 900/3/3 899/3/3
f 906/3/3 901/3/3 905/3/3
f 907/3/3 901/3/3 906/3/3
f 908/3/3 907/3/3 906/3/3
f 909/3/3 907/3/3 908/3/3
f 910/3/3 907/3/3 909/3/3
f 912/3/3 910/3/3 909/3/3
f 912/3/3 911/3/3 910/3/3
f 913/3/3 911/3/3 912/3/3
f 914/3/3 911/3/3 913/3/3
f 915/3/3 911/3/3 914/3/3
f 916/3/3 914/3/3 913/3/3
f 920/3/3 914/3/3 916/3/3
f 921/3/3 914/3/3 920/3/3
f 922/3/3 914/3/3 921/3/3
f 923/6/3 918/6/3 917/6/3
f 924/6/3 918/6/3 923/6/3
f 927/3/3 920/3/3 919/3/3
f 927/3/3 921/3/3 920/3/3
f 928/1/3 924/1/3 923/1/3
f 929/3/3 925/3/3 924/3/3
f 929/1/3 924/1/3 928/1/3
f 930/1/3 926/1/3 925/1/3
f 930/3/3 925/3/3 929/3/3
f 931/3/3 927/3/3 926/3/3
f 931/1/3 926/1/3 930/1/3
f 932/3/3 921/3/3 927/3/3
f 932/3/3 927/3/3 931/3/3
f 933/3/3 921/3/3 932/3/3
f 934/3/3 932/3/3 931/3/3
f 935/3/3 932/3/3 934/3/3
f 938/2/3 937/2/3 936/2/3
f 942/2/3 938/2/3 936/2/3
f 943/3/3 939/3/3 938/3/3
f 943/2/3 938/2/3 942/2/3
f 944/2/3 940/2/3 939/2/3
f 944/3/3 939/3/3 943/3/3
f 945/3/3 941/3/3 940/3/3
f 945/2/3 940/2/3 944/2/3
f 946/3/3 941/3/3 945/3/3
f 947/3/3 941/3/3 946/3/3
f 948/3/3 946/3/3 945/3/3
f 949/3/3 946/3/3 948/3/3
f 952/3/3 951/3/3 950/3/3
f 953/3/3 951/3/3 952/3/3
f 954/3/3 951/3/3 953/3/3
f 958/3/3 956/3/3 955/3/3
f 959/3/3 956/3/3 958/3/3
f 960/3/3 958/3/3 957/3/3
f 967/3/3 960/3/3 957/3/3
f 967/3/3 961/3/3 960/3/3
f 968/3/3 961/3/3 967/3/3
f 970/1/3 965/1/3 964/1/3
f 970/3/3 964/3/3 963/3/3
f 971/1/3 965/1/3 970/1/3
f 973/3/3 967/3/3 966/3/3
f 974/3/3 967/3/3 973/3/3
f 975/3/3 967/3/3 974/3/3
f 976/3/3 969/3/3 968/3/3
f 977/3/3 969/3/3 976/3/3
f 978/3/3 973/3/3 972/3/3
f 978/3/3 974/3/3 973/3/3
f 979/3/3 974/3/3 978/3/3
f 980/1/3 963/1/3 962/1/3
f 981/3/3 970/3/3 963/3/3
f 981/1/3 963/1/3 980/1/3
f 982/3/3 970/3/3 981/3/3
f 989/2/3 984/2/3 983/2/3
f 990/3/3 985/3/3 984/3/3
f 990/2/3 984/2/3 989/2/3
f 991/2/3 986/2/3 985/2/3
f 991/3/3 985/3/3 990/3/3
f 992/2/3 986/2/3 991/2/3
f 993/3/3 988/3/3 987/3/3
f 994/3/3 988/3/3 993/3/3
f 995/3/3 988/3/3 994/3/3
f 996/3/3 991/3/3 990/3/3
f 997/6/3 992/6/3 991/6/3
f 997/3/3 991/3/3 996/3/3
f 998/3/3 994/3/3 993/3/3
f 998/6/3 992/6/3 997/6/3
f 998/3/3 993/3/3 992/3/3
f 999/3/3 994/3/3 998/3/3
f 1000/3/3 994/3/3 999/3/3
f 1002/3/3 1000/3/3 999/3/3
f 1002/3/3 1001/3/3 1000/3/3
f 1003/3/3 1001/3/3 1002/3/3
f 1004/3/3 1001/3/3 1003/3/3
f 1006/3/3 1005/3/3 1004/3/3
f 1006/3/3 1004/3/3 1003/3/3
f 1007/3/3 1005/3/3 1006/3/3
f 1008/3/3 1005/3/3 1007/3/3
f 1010/3/3 1009/3/3 1008/3/3
f 1010/3/3 1008/3/3 1007/3/3
f 1011/3/3 1009/3/3 1010/3/3
f 1016/3/3 1013/3/3 1012/3/3
f 1017/3/3 1013/3/3 1016/3/3
f 1018/3/3 1015/3/3 1014/3/3
f 1019/3/3 1015/3/3 1018/3/3
f 1022/3/3 1021/3/3 1020/3/3
f 1023/3/3 1021/3/3 1022/3/3
f 1024/3/3 1021/3/3 1023/3/3
f 1031/3/3 1026/3/3 1025/3/3
f 1032/3/3 1026/3/3 1031/3/3
f 1033/6/3 1028/6/3 1027/6/3
f 1034/3/3 1029/3/3 1028/3/3
f 1034/6/3 1028/6/3 1033/6/3
f 1035/3/3 1029/3/3 1034/3/3
f 1036/3/3 1029/3/3 1035/3/3
f 1037/3/3 1031/3/3 1030/3/3
f 1038/3/3 1031/3/3 1037/3/3
f 1042/3/3 1036/3/3 1035/3/3
f 1043/3/3 1036/3/3 1042/3/3
f 1044/2/3 1040/2/3 1039/2/3
f 1045/3/3 1041/3/3 1040/3/3
f 1045/2/3 1040/2/3 1044/2/3
f 1046/3/3 1041/3/3 1045/3/3
f 1049/3/3 1048/3/3 1047/3/3
f 1050/3/3 1048/3/3 1049/3/3
f 1056/3/3 1052/3/3 1051/3/3
f 1057/3/3 1052/3/3 1056/3/3
f 1058/4/3 1054/4/3 1053/4/3
f 1059/5/3 1055/5/3 1054/5/3
f 1059/4/3 1054/4/3 1058/4/3
f 1060/5/3 1055/5/3 1059/5/3
f 1063/3/3 1062/3/3 1061/3/3
f 1066/3/3 1063/3/3 1061/3/3
f 1066/3/3 1064/3/3 1063/3/3
f 1067/3/3 1064/3/3 1066/3/3
f 1067/3/3 1066/3/3 1065/3/3
f 1068/3/3 1064/3/3 1067/3/3
f 1070/3/3 1067/3/3 1065/3/3
f 1071/3/3 1067/3/3 1070/3/3
f 1073/3/3 1070/3/3 1069/3/3
f 1074/3/3 1070/3/3 1073/3/3
f 1078/3/3 1073/3/3 1072/3/3
f 1079/3/3 1073/3/3 1078/3/3
f 1080/4/3 1076/4/3 1075/4/3
f 1081/5/3 1077/5/3 1076/5/3
f 1081/4/3 1076/4/3 1080/4/3
f 1082/5/3 1077/5/3 1081/5/3
f 1088/2/3 1084/2/3 1083/2/3
f 1089/3/3 1085/3/3 1084/3/3
f 1089/2/3 1084/2/3 1088/2/3
f 1090/2/3 1086/2/3 1085/2/3
f 1090/3/3 1085/3/3 1089/3/3
f 1091/3/3 1087/3/3 1086/3/3
f 1091/2/3 1086/2/3 1090/2/3
f 1092/3/3 1087/3/3 1091/3/3
f 1093/3/3 1087/3/3 1092/3/3
f 1096/3/3 1095/3/3 1094/3/3
f 1098/3/3 1096/3/3 1094/3/3
f 1098/3/3 1097/3/3 1096/3/3
f 1099/3/3 1097/3/3 1098/3/3
f 1101/3/3 1100/3/3 1099/3/3
f 1102/3/3 1100/3/3 1101/3/3
f 1104/3/3 1103/3/3 1102/3/3
f 1105/3/3 1103/3/3 1104/3/3
f 1108/3/3 1107/3/3 1106/3/3
f 1109/3/3 1107/3/3 1108/3/3
f 1117/3/3 1111/3/3 1110/3/3
f 1118/3/3 1111/3/3 1117/3/3
f 1120/6/3 1113/6/3 1112/6/3
f 1121/3/3 1114/3/3 1113/3/3
f 1121/6/3 1113/6/3 1120/6/3
f 1122/3/3 1114/3/3 1121/3/3
f 1123/3/3 1116/3/3 1115/3/3
f 1124/3/3 1116/3/3 1123/3/3
f 1126/3/3 1120/3/3 1119/3/3
f 1127/2/3 1126/2/3 1125/2/3
f 1128/3/3 1120/3/3 1126/3/3
f 1128/2/3 1126/2/3 1127/2/3
f 1129/3/3 1120/3/3 1128/3/3
f 1132/3/3 1131/3/3 1130/3/3
f 1133/3/3 1131/3/3 1132/3/3
f 1135/3/3 1134/3/3 1133/3/3
f 1136/3/3 1134/3/3 1135/3/3
f 1140/3/3 1138/3/3 1137/3/3
f 1141/3/3 1138/3/3 1140/3/3
f 1142/3/3 1140/3/3 1139/3/3
f 1143/3/3 1140/3/3 1142/3/3
f 1146/3/3 1145/3/3 1144/3/3
f 1147/3/3 1145/3/3 1146/3/3
f 1150/3/3 1149/3/3 1148/3/3
f 1151/3/3 1149/3/3 1150/3/3
f 1154/6/3 1153/6/3 1152/6/3
f 1155/6/3 1153/6/3 1154/6/3
f 1158/3/3 1157/3/3 1156/3/3
f 1159/3/3 1157/3/3 1158/3/3
f 1161/3/3 1160/3/3 1159/3/3
f 1162/3/3 1160/3/3 1161/3/3
f 1166/3/3 1164/3/3 1163/3/3
f 1167/3/3 1164/3/3 1166/3/3
f 1168/3/3 1166/3/3 1165/3/3
f 1169/3/3 1166/3/3 1168/3/3
f 1174/3/3 1171/3/3 1170/3/3
f 1175/3/3 1171/3/3 1174/3/3
f 1176/3/3 1173/3/3 1172/3/3
f 1177/3/3 1173/3/3 1176/3/3
f 1180/3/3 1179/3/3 1178/3/3
f 1181/3/3 1179/3/3 1180/3/3
f 1184/3/3 1183/3/3 1182/3/3
f 1185/3/3 1183/3/3 1184/3/3
f 1188/3/3 1187/3/3 1186/3/3
f 1189/3/3 1187/3/3 1188/3/3
f 1193/3/3 1191/3/3 1190/3/3
f 1194/3/3 1191/3/3 1193/3/3
f 1195/3/3 1193/3/3 1192/3/3
f 1196/3/3 1193/3/3 1195/3/3
f 1200/3/3 1198/3/3 1197/3/3
f 1201/3/3 1198/3/3 1200/3/3
f 1202/3/3 1200/3/3 1199/3/3
f 1203/3/3 1200/3/3 1202/3/3
f 1206/3/3 1205/3/3 1204/3/3
f 1207/3/3 1205/3/3 1206/3/3
f 1211/4/3 1209/4/3 1208/4/3
f 1212/5/3 1210/5/3 1209/5/3
f 1212/4/3 1209/4/3 1211/4/3
f 1213/5/3 1210/5/3 1212/5/3
f 1216/3/3 1215/3/3 1214/3/3
f 1217/3/3 1215/3/3 1216/3/3
f 1223/3/3 1219/3/3 1218/3/3
f 1224/3/3 1219/3/3 1223/3/3
f 1225/4/3 1221/4/3 1220/4/3
f 1226/5/3 1222/5/3 1221/5/3
f 1226/4/3 1221/4/3 1225/4/3
f 1227/5/3 1222/5/3 1226/5/3
f 1231/6/3 1229/6/3 1228/6/3
f 1232/3/3 1230/3/3 1229/3/3
f 1232/6/3 1229/6/3 1231/6/3
f 1233/3/3 1230/3/3 1232/3/3
f 1237/3/3 1235/3/3 1234/3/3
f 1238/3/3 1235/3/3 1237/3/3
f 1239/3/3 1237/3/3 1236/3/3
f 1240/3/3 1237/3/3 1239/3/3
f 1243/3/3 1242/3/3 1241/3/3
f 1244/3/3 1242/3/3 1243/3/3
f 1249/3/3 1246/3/3 1245/3/3
f 1250/3/3 1246/3/3 1249/3/3
f 1253/3/3 1248/3/3 1247/3/3
f 1254/3/3 1248/3/3 1253/3/3
f 1259/3/3 1252/3/3 1251/3/3
f 1260/3/3 1252/3/3 1259/3/3
f 1261/2/3 1256/2/3 1255/2/3
f 1262/2/3 1256/2/3 1261/2/3
f 1263/3/3 1258/3/3 1257/3/3
f 1264/3/3 1258/3/3 1263/3/3
f 1265/3/4 1266/3/4 1267/3/4
f 1267/3/4 1266/3/4 1268/3/4
f 1269/3/4 1270/3/4 1271/3/4
f 1271/3/4 1270/3/4 1272/3/4
f 1272/3/4 1270/3/4 1273/3/4
f 1274/3/4 1275/3/4 1276/3/4
f 1276/3/4 1275/3/4 1277/3/4
f 1278/3/4 1279/3/4 1280/3/4
f 1280/3/4 1279/3/4 1281/3/4
f 1282/3/4 1283/3/4 1284/3/4
f 1284/3/4 1283/3/4 1285/3/4
f 1286/4/4 1287/4/4 1291/4/4
f 1287/5/4 1288/5/4 1292/5/4
f 1291/4/4 1287/4/4 1292/4/4
f 1292/5/4 1288/5/4 1293/5/4
f 1289/3/4 1290/3/4 1294/3/4
f 1294/3/4 1290/3/4 1295/3/4
f 1296/3/4 1297/3/4 1298/3/4
f 1298/3/4 1297/3/4 1299/3/4
f 1300/4/4 1301/4/4 1305/4/4
f 1301/5/4 1302/5/4 1306/5/4
f 1305/4/4 1301/4/4 1306/4/4
f 1306/5/4 1302/5/4 1307/5/4
f 1303/3/4 1304/3/4 1308/3/4
f 1308/3/4 1304/3/4 1309/3/4
f 1310/3/4 1311/3/4 1312/3/4
f 1312/3/4 1311/3/4 1313/3/4
f 1314/3/4 1315/3/4 1316/3/4
f 1316/3/4 1315/3/4 1317/3/4
f 1318/3/4 1319/3/4 1320/3/4
f 1320/3/4 1319/3/4 1321/3/4
f 1322/3/4 1323/3/4 1324/3/4
f 1324/3/4 1323/3/4 1325/3/4
f 1326/3/4 1327/3/4 1328/3/4
f 1328/3/4 1327/3/4 1329/3/4
f 1330/3/4 1331/3/4 1332/3/4
f 1332/3/4 1331/3/4 1333/3/4
f 1334/6/4 1335/6/4 1336/6/4
f 1336/6/4 1335/6/4 1337/6/4
f 1338/3/4 1339/3/4 1340/3/4
f 1340/3/4 1339/3/4 1341/3/4
f 1342/3/4 1343/3/4 1344/3/4
f 1344/3/4 1343/3/4 1345/3/4
f 1346/3/4 1347/3/4 1349/3/4
f 1349/3/4 1347/3/4 1350/3/4
f 1348/3/4 1349/3/4 1352/3/4
f 1352/3/4 1349/3/4 1353/3/4
f 1351/3/4 1352/3/4 1356/3/4
f 1356/3/4 1352/3/4 1357/3/4
f 1354/3/4 1355/3/4 1358/3/4
f 1358/3/4 1355/3/4 1359/3/4
f 1360/3/4 1361/3/4 1362/3/4
f 1362/3/4 1361/3/4 1363/3/4
f 1363/3/4 1361/3/4 1364/3/4
f 1364/3/4 1361/3/4 1365/3/4
f 1365/3/4 1366/3/4 1367/3/4
f 1367/3/4 1366/3/4 1368/3/4
f 1368/3/4 1369/3/4 1370/3/4
f 1370/3/4 1369/3/4 1371/3/4
f 1372/3/4 1373/3/4 1374/3/4
f 1374/3/4 1373/3/4 1375/3/4
f 1375/3/4 1376/3/4 1377/3/4
f 1377/3/4 1376/3/4 1378/3/4
f 1379/3/4 1380/3/4 1383/3/4
f 1383/3/4 1380/3/4 1384/3/4
f 1381/3/4 1382/3/4 1385/3/4
f 1385/3/4 1382/3/4 1386/3/4
f 1387/1/4 1388/1/4 1392/1/4
f 1388/3/4 1389/3/4 1393/3/4
f 1392/1/4 1388/1/4 1393/1/4
f 1389/1/4 1390/1/4 1394/1/4
f 1393/3/4 1389/3/4 1394/3/4
f 1390/3/4 1391/3/4 1395/3/4
f 1394/1/4 1390/1/4 1395/1/4
f 1395/3/4 1391/3/4 1396/3/4
f 1397/3/4 1398/3/4 1399/3/4
f 1399/3/4 1398/3/4 1400/3/4
f 1401/3/4 1402/3/4 1405/3/4
f 1405/3/4 1402/3/4 1406/3/4
f 1403/3/4 1404/3/4 1407/3/4
f 1407/3/4 1404/3/4 1408/3/4
f 1409/3/4 1410/3/4 1411/3/4
f 1411/3/4 1410/3/4 1412/3/4
f 1413/3/4 1414/3/4 1420/3/4
f 1420/3/4 1414/3/4 1421/3/4
f 1415/6/4 1416/6/4 1422/6/4
f 1416/3/4 1417/3/4 1423/3/4
f 1422/6/4 1416/6/4 1423/6/4
f 1417/6/4 1418/6/4 1424/6/4
f 1423/3/4 1417/3/4 1424/3/4
f 1418/3/4 1419/3/4 1425/3/4
f 1424/6/4 1418/6/4 1425/6/4
f 1425/3/4 1419/3/4 1426/3/4
f 1422/1/4 1423/1/4 1427/1/4
f 1427/1/4 1423/1/4 1428/1/4
f 1430/5/4 1431/5/4 1434/5/4
f 1432/3/4 1433/3/4 1435/3/4
f 1435/3/4 1433/3/4 1436/3/4
f 1429/4/4 1430/4/4 1438/4/4
f 1430/5/4 1434/5/4 1439/5/4
f 1438/4/4 1430/4/4 1439/4/4
f 1439/5/4 1434/5/4 1440/5/4
f 1436/3/4 1437/3/4 1441/3/4
f 1441/3/4 1442/3/4 1445/3/4
f 1436/3/4 1441/3/4 1445/3/4
f 1445/3/4 1442/3/4 1446/3/4
f 1443/3/4 1444/3/4 1447/3/4
f 1447/3/4 1444/3/4 1448/3/4
f 1448/3/4 1449/3/4 1450/3/4
f 1450/3/4 1449/3/4 1451/3/4
f 1452/4/4 1453/4/4 1455/4/4
f 1453/5/4 1454/5/4 1456/5/4
f 1455/4/4 1453/4/4 1456/4/4
f 1456/5/4 1454/5/4 1457/5/4
f 1458/1/4 1459/1/4 1463/1/4
f 1459/3/4 1460/3/4 1464/3/4
f 1463/1/4 1459/1/4 1464/1/4
f 1460/1/4 1461/1/4 1465/1/4
f 1464/3/4 1460/3/4 1465/3/4
f 1461/3/4 1462/3/4 1466/3/4
f 1465/1/4 1461/1/4 1466/1/4
f 1466/3/4 1462/3/4 1467/3/4
f 1467/3/4 1462/3/4 1469/3/4
f 1469/3/4 1462/3/4 1470/3/4
f 1468/3/4 1469/3/4 1470/3/4
f 1468/3/4 1470/3/4 1472/3/4
f 1470/3/4 1471/3/4 1472/3/4
f 1472/3/4 1471/3/4 1473/3/4
f 1473/3/4 1471/3/4 1474/3/4
f 1474/3/4 1471/3/4 1475/3/4
f 1475/3/4 1476/3/4 1479/3/4
f 1479/3/4 1476/3/4 1480/3/4
f 1477/3/4 1478/3/4 1481/3/4
f 1481/3/4 1478/3/4 1482/3/4
f 1483/3/4 1484/3/4 1485/3/4
f 1485/3/4 1484/3/4 1486/3/4
f 1487/3/4 1488/3/4 1492/3/4
f 1492/3/4 1488/3/4 1493/3/4
f 1489/3/4 1490/3/4 1495/3/4
f 1495/3/4 1490/3/4 1496/3/4
f 1491/3/4 1492/3/4 1497/3/4
f 1497/3/4 1492/3/4 1498/3/4
f 1495/3/4 1496/3/4 1500/3/4
f 1494/3/4 1495/3/4 1500/3/4
f 1500/3/4 1496/3/4 1501/3/4
f 1501/3/4 1496/3/4 1502/3/4
f 1502/3/4 1496/3/4 1503/3/4
f 1499/3/4 1500/3/4 1507/3/4
f 1507/3/4 1500/3/4 1508/3/4
f 1501/3/4 1502/3/4 1509/3/4
f 1509/3/4 1502/3/4 1510/3/4
f 1504/2/4 1505/2/4 1511/2/4
f 1511/2/4 1505/2/4 1512/2/4
f 1506/3/4 1507/3/4 1513/3/4
f 1513/3/4 1507/3/4 1514/3/4
f 1518/3/4 1519/3/4 1520/3/4
f 1520/3/4 1519/3/4 1521/3/4
f 1515/1/4 1516/1/4 1522/1/4
f 1516/3/4 1517/3/4 1523/3/4
f 1522/1/4 1516/1/4 1523/1/4
f 1517/1/4 1518/1/4 1524/1/4
f 1523/3/4 1517/3/4 1524/3/4
f 1518/3/4 1520/3/4 1525/3/4
f 1524/1/4 1518/1/4 1525/1/4
f 1525/3/4 1520/3/4 1526/3/4
f 1526/3/4 1520/3/4 1529/3/4
f 1529/3/4 1520/3/4 1530/3/4
f 1527/6/4 1528/6/4 1532/6/4
f 1529/3/4 1530/3/4 1533/3/4
f 1532/6/4 1528/6/4 1533/6/4
f 1530/3/4 1531/3/4 1533/3/4
f 1528/3/4 1529/3/4 1533/3/4
f 1533/3/4 1531/3/4 1534/3/4
f 1534/3/4 1531/3/4 1535/3/4
f 1535/3/4 1531/3/4 1536/3/4
f 1534/3/4 1535/3/4 1540/3/4
f 1540/3/4 1535/3/4 1541/3/4
f 1536/3/4 1537/3/4 1542/3/4
f 1542/3/4 1537/3/4 1543/3/4
f 1538/3/4 1539/3/4 1544/3/4
f 1544/3/4 1539/3/4 1545/3/4
f 1545/3/4 1539/3/4 1546/3/4
f 1544/3/4 1545/3/4 1549/3/4
f 1549/3/4 1545/3/4 1550/3/4
f 1547/3/4 1548/3/4 1551/3/4
f 1551/3/4 1552/3/4 1553/3/4
f 1547/3/4 1551/3/4 1553/3/4
f 1553/3/4 1552/3/4 1554/3/4
f 1555/3/4 1556/3/4 1561/3/4
f 1561/3/4 1556/3/4 1562/3/4
f 1557/3/4 1558/3/4 1564/3/4
f 1564/3/4 1558/3/4 1565/3/4
f 1559/3/4 1560/3/4 1566/3/4
f 1566/3/4 1560/3/4 1567/3/4
f 1567/3/4 1560/3/4 1568/3/4
f 1563/3/4 1564/3/4 1573/3/4
f 1573/3/4 1564/3/4 1574/3/4
f 1565/3/4 1566/3/4 1575/3/4
f 1566/3/4 1567/3/4 1575/3/4
f 1575/3/4 1567/3/4 1576/3/4
f 1572/3/4 1573/3/4 1577/3/4
f 1577/3/4 1573/3/4 1578/3/4
f 1569/1/4 1570/1/4 1579/1/4
f 1570/3/4 1571/3/4 1580/3/4
f 1579/1/4 1570/1/4 1580/1/4
f 1571/1/4 1572/1/4 1581/1/4
f 1580/3/4 1571/3/4 1581/3/4
f 1572/3/4 1577/3/4 1582/3/4
f 1581/1/4 1572/1/4 1582/1/4
f 1582/3/4 1577/3/4 1583/3/4
f 1585/3/4 1586/3/4 1589/3/4
f 1586/2/4 1587/2/4 1589/2/4
f 1587/3/4 1588/3/4 1590/3/4
f 1589/2/4 1587/2/4 1590/2/4
f 1590/3/4 1588/3/4 1591/3/4
f 1584/2/4 1585/2/4 1592/2/4
f 1585/3/4 1589/3/4 1593/3/4
f 1592/2/4 1585/2/4 1593/2/4
f 1593/3/4 1589/3/4 1594/3/4
f 1592/6/4 1593/6/4 1599/6/4
f 1593/3/4 1594/3/4 1600/3/4
f 1599/6/4 1593/6/4 1600/6/4
f 1595/3/4 1596/3/4 1601/3/4
f 1601/3/4 1596/3/4 1602/3/4
f 1597/3/4 1598/3/4 1604/3/4
f 1604/3/4 1598/3/4 1605/3/4
f 1600/3/4 1594/3/4 1610/3/4
f 1594/6/4 1595/6/4 1611/6/4
f 1610/3/4 1594/3/4 1611/3/4
f 1595/3/4 1601/3/4 1612/3/4
f 1611/6/4 1595/6/4 1612/6/4
f 1612/3/4 1601/3/4 1613/3/4
f 1604/3/4 1605/3/4 1614/3/4
f 1605/3/4 1606/3/4 1614/3/4
f 1603/3/4 1604/3/4 1614/3/4
f 1614/3/4 1606/3/4 1615/3/4
f 1615/3/4 1606/3/4 1616/3/4
f 1616/3/4 1606/3/4 1617/3/4
f 1607/3/4 1608/3/4 1618/3/4
f 1618/3/4 1608/3/4 1619/3/4
f 1619/3/4 1608/3/4 1620/3/4
f 1609/6/4 1610/6/4 1621/6/4
f 1621/6/4 1610/6/4 1622/6/4
f 1614/3/4 1615/3/4 1625/3/4
f 1613/3/4 1614/3/4 1625/3/4
f 1625/3/4 1615/3/4 1626/3/4
f 1626/3/4 1615/3/4 1627/3/4
f 1627/3/4 1615/3/4 1628/3/4
f 1616/3/4 1617/3/4 1629/3/4
f 1617/3/4 1618/3/4 1629/3/4
f 1629/3/4 1618/3/4 1630/3/4
f 1630/3/4 1618/3/4 1631/3/4
f 1631/3/4 1618/3/4 1632/3/4
f 1623/6/4 1624/6/4 1639/6/4
f 1624/3/4 1625/3/4 1640/3/4
f 1625/3/4 1626/3/4 1640/3/4
f 1639/6/4 1624/6/4 1640/6/4
f 1640/3/4 1626/3/4 1641/3/4
f 1630/3/4 1631/3/4 1643/3/4
f 1643/3/4 1631/3/4 1644/3/4
f 1632/3/4 1633/3/4 1645/3/4
f 1645/3/4 1633/3/4 1646/3/4
f 1635/3/4 1636/3/4 1647/3/4
f 1634/3/4 1635/3/4 1647/3/4
f 1647/3/4 1636/3/4 1648/3/4
f 1648/3/4 1636/3/4 1649/3/4
f 1637/6/4 1638/6/4 1650/6/4
f 1638/3/4 1639/3/4 1651/3/4
f 1650/6/4 1638/6/4 1651/6/4
f 1639/6/4 1640/6/4 1652/6/4
f 1651/3/4 1639/3/4 1652/3/4
f 1652/6/4 1640/6/4 1653/6/4
f 1643/3/4 1644/3/4 1654/3/4
f 1645/3/4 1646/3/4 1654/3/4
f 1644/3/4 1645/3/4 1654/3/4
f 1646/3/4 1647/3/4 1654/3/4
f 1647/3/4 1648/3/4 1654/3/4
f 1642/3/4 1643/3/4 1654/3/4
f 1654/3/4 1648/3/4 1655/3/4
f 1655/3/4 1648/3/4 1656/3/4
f 1656/3/4 1648/3/4 1657/3/4
f 1657/3/4 1648/3/4 1658/3/4
f 1650/2/4 1651/2/4 1659/2/4
f 1651/3/4 1652/3/4 1660/3/4
f 1659/2/4 1651/2/4 1660/2/4
f 1652/2/4 1653/2/4 1661/2/4
f 1660/3/4 1652/3/4 1661/3/4
f 1653/3/4 1654/3/4 1662/3/4
f 1661/2/4 1653/2/4 1662/2/4
f 1654/3/4 1655/3/4 1662/3/4
f 1662/3/4 1655/3/4 1663/3/4
f 1663/3/4 1655/3/4 1664/3/4
f 1656/3/4 1657/3/4 1665/3/4
f 1665/3/4 1657/3/4 1666/3/4
f 1659/1/4 1660/1/4 1667/1/4
f 1660/3/4 1661/3/4 1668/3/4
f 1667/1/4 1660/1/4 1668/1/4
f 1661/1/4 1662/1/4 1669/1/4
f 1668/3/4 1661/3/4 1669/3/4
f 1662/3/4 1663/3/4 1670/3/4
f 1669/1/4 1662/1/4 1670/1/4
f 1670/3/4 1663/3/4 1671/3/4
f 1672/3/4 1673/3/4 1677/3/4
f 1677/3/4 1673/3/4 1678/3/4
f 1674/4/4 1675/4/4 1681/4/4
f 1681/4/4 1675/4/4 1682/4/4
f 1676/5/4 1677/5/4 1685/5/4
f 1685/5/4 1677/5/4 1686/5/4
f 1679/5/4 1680/5/4 1691/5/4
f 1682/5/4 1683/5/4 1693/5/4
f 1683/4/4 1684/4/4 1694/4/4
f 1693/5/4 1683/5/4 1694/5/4
f 1684/5/4 1685/5/4 1695/5/4
f 1694/4/4 1684/4/4 1695/4/4
f 1695/5/4 1685/5/4 1696/5/4
f 1687/4/4 1688/4/4 1699/4/4
f 1699/4/4 1688/4/4 1700/4/4
f 1689/4/4 1690/4/4 1703/4/4
f 1690/5/4 1691/5/4 1704/5/4
f 1703/4/4 1690/4/4 1704/4/4
f 1691/5/4 1680/5/4 1705/5/4
f 1704/5/4 1691/5/4 1705/5/4
f 1705/5/4 1680/5/4 1706/5/4
f 1692/4/4 1693/4/4 1707/4/4
f 1693/5/4 1694/5/4 1708/5/4
f 1707/4/4 1693/4/4 1708/4/4
f 1708/5/4 1694/5/4 1709/5/4
f 1697/5/4 1698/5/4 1711/5/4
f 1700/4/4 1701/4/4 1712/4/4
f 1699/4/4 1700/4/4 1712/4/4
f 1711/5/4 1698/5/4 1712/5/4
f 1698/4/4 1699/4/4 1712/4/4
f 1712/4/4 1701/4/4 1713/4/4
f 1713/4/4 1701/4/4 1714/4/4
f 1702/5/4 1703/5/4 1715/5/4
f 1715/5/4 1703/5/4 1716/5/4
f 1704/4/4 1705/4/4 1717/4/4
f 1717/4/4 1705/4/4 1718/4/4
f 1710/3/4 1711/3/4 1719/3/4
f 1712/3/4 1713/3/4 1719/3/4
f 1711/3/4 1712/3/4 1719/3/4
f 1719/3/4 1713/3/4 1720/3/4
f 1725/4/5 1722/4/5 1721/4/5
f 1726/4/5 1722/4/5 1725/4/5
f 1727/4/5 1724/4/5 1723/4/5
f 1728/4/5 1724/4/5 1727/4/5
f 1733/4/5 1730/4/5 1729/4/5
f 1734/4/5 1730/4/5 1733/4/5
f 1735/4/5 1732/4/5 1731/4/5
f 1736/4/5 1732/4/5 1735/4/5
f 1741/1/5 1738/1/5 1737/1/5
f 1742/4/5 1739/4/5 1738/4/5
f 1742/1/5 1738/1/5 1741/1/5
f 1743/4/5 1739/4/5 1742/4/5
f 1747/2/5 1741/2/5 1740/2/5
f 1748/6/5 1742/6/5 1741/6/5
f 1748/6/5 1743/6/5 1742/6/5
f 1748/2/5 1741/2/5 1747/2/5
f 1748/6/5 1744/6/5 1743/6/5
f 1749/1/5 1745/1/5 1744/1/5
f 1752/2/5 1747/2/5 1746/2/5
f 1753/6/5 1748/6/5 1747/6/5
f 1753/2/5 1747/2/5 1752/2/5
f 1754/6/5 1744/6/5 1748/6/5
f 1754/6/5 1748/6/5 1753/6/5
f 1754/1/5 1750/1/5 1749/1/5
f 1754/1/5 1749/1/5 1744/1/5
f 1755/1/5 1750/1/5 1754/1/5
f 1757/6/5 1753/6/5 1752/6/5
f 1757/6/5 1754/6/5 1753/6/5
f 1757/6/5 1755/6/5 1754/6/5
f 1758/6/5 1755/6/5 1757/6/5
f 1759/6/5 1755/6/5 1758/6/5
f 1760/2/5 1756/2/5 1755/2/5
f 1760/6/5 1755/6/5 1759/6/5
f 1762/2/5 1752/2/5 1751/2/5
f 1763/6/5 1757/6/5 1752/6/5
f 1763/2/5 1752/2/5 1762/2/5
f 1764/2/5 1756/2/5 1760/2/5
f 1765/2/5 1756/2/5 1764/2/5
f 1767/6/5 1757/6/5 1763/6/5
f 1767/6/5 1763/6/5 1762/6/5
f 1768/6/5 1759/6/5 1758/6/5
f 1769/6/5 1759/6/5 1768/6/5
f 1770/6/5 1765/6/5 1764/6/5
f 1771/2/5 1766/2/5 1765/2/5
f 1771/6/5 1765/6/5 1770/6/5
f 1772/2/5 1766/2/5 1771/2/5
f 1773/2/5 1762/2/5 1761/2/5
f 1774/6/5 1767/6/5 1762/6/5
f 1774/2/5 1762/2/5 1773/2/5
f 1774/6/5 1770/6/5 1769/6/5
f 1774/6/5 1769/6/5 1768/6/5
f 1774/6/5 1771/6/5 1770/6/5
f 1774/6/5 1768/6/5 1767/6/5
f 1775/6/5 1771/6/5 1774/6/5
f 1776/6/5 1771/6/5 1775/6/5
f 1777/6/5 1771/6/5 1776/6/5
f 1778/6/5 1771/6/5 1777/6/5
f 1779/1/5 1774/1/5 1773/1/5
f 1780/6/5 1775/6/5 1774/6/5
f 1780/1/5 1774/1/5 1779/1/5
f 1781/6/5 1775/6/5 1780/6/5
f 1782/6/5 1771/6/5 1778/6/5
f 1783/1/5 1772/1/5 1771/1/5
f 1783/6/5 1771/6/5 1782/6/5
f 1784/1/5 1772/1/5 1783/1/5
f 1785/2/5 1781/2/5 1780/2/5
f 1786/6/5 1775/6/5 1781/6/5
f 1786/2/5 1781/2/5 1785/2/5
f 1787/6/5 1775/6/5 1786/6/5
f 1789/6/5 1777/6/5 1776/6/5
f 1790/6/5 1777/6/5 1789/6/5
f 1793/1/5 1788/1/5 1787/1/5
f 1793/1/5 1786/1/5 1785/1/5
f 1793/1/5 1787/1/5 1786/1/5
f 1794/1/5 1788/1/5 1793/1/5
f 1795/6/5 1791/6/5 1790/6/5
f 1795/6/5 1790/6/5 1789/6/5
f 1795/6/5 1789/6/5 1788/6/5
f 1796/2/5 1792/2/5 1791/2/5
f 1796/6/5 1791/6/5 1795/6/5
f 1797/2/5 1792/2/5 1796/2/5
f 1798/1/5 1788/1/5 1794/1/5
f 1799/6/5 1795/6/5 1788/6/5
f 1799/1/5 1788/1/5 1798/1/5
f 1800/6/5 1795/6/5 1799/6/5
f 1801/6/5 1795/6/5 1800/6/5
f 1802/1/5 1796/1/5 1795/1/5
f 1802/6/5 1795/6/5 1801/6/5
f 1803/1/5 1796/1/5 1802/1/5
f 1804/1/5 1796/1/5 1803/1/5
f 1805/2/5 1800/2/5 1799/2/5
f 1806/6/5 1801/6/5 1800/6/5
f 1806/2/5 1800/2/5 1805/2/5
f 1807/6/5 1801/6/5 1806/6/5
f 1808/6/5 1801/6/5 1807/6/5
f 1809/6/5 1801/6/5 1808/6/5
f 1810/6/5 1801/6/5 1809/6/5
f 1811/2/5 1802/2/5 1801/2/5
f 1811/6/5 1801/6/5 1810/6/5
f 1812/1/5 1803/1/5 1802/1/5
f 1812/2/5 1802/2/5 1811/2/5
f 1813/1/5 1803/1/5 1812/1/5
f 1814/4/5 1808/4/5 1807/4/5
f 1815/4/5 1808/4/5 1814/4/5
f 1816/4/5 1810/4/5 1809/4/5
f 1817/4/5 1810/4/5 1816/4/5
f 1820/3/5 1819/3/5 1818/3/5
f 1821/3/5 1819/3/5 1820/3/5
f 1824/5/5 1823/5/5 1822/5/5
f 1825/5/5 1823/5/5 1824/5/5
f 1828/3/5 1827/3/5 1826/3/5
f 1829/3/5 1827/3/5 1828/3/5
f 1832/3/5 1831/3/5 1830/3/5
f 1833/3/5 1831/3/5 1832/3/5
f 1836/3/5 1835/3/5 1834/3/5
f 1837/3/5 1835/3/5 1836/3/5
f 1840/3/5 1839/3/5 1838/3/5
f 1841/3/5 1839/3/5 1840/3/5
f 1844/5/5 1843/5/5 1842/5/5
f 1845/5/5 1843/5/5 1844/5/5
f 1848/3/5 1847/3/5 1846/3/5
f 1849/3/5 1847/3/5 1848/3/5
f 1852/5/5 1851/5/5 1850/5/5
f 1853/5/5 1851/5/5 1852/5/5
f 1856/3/5 1855/3/5 1854/3/5
f 1857/3/5 1855/3/5 1856/3/5
f 1862/3/5 1859/3/5 1858/3/5
f 1863/3/5 1859/3/5 1862/3/5
f 1864/3/5 1861/3/5 1860/3/5
f 1865/3/5 1861/3/5 1864/3/5
f 1868/3/5 1867/3/5 1866/3/5
f 1869/3/5 1868/3/5 1866/3/5
f 1870/3/5 1868/3/5 1869/3/5
f 1873/3/5 1872/3/5 1871/3/5
f 1874/3/5 1872/3/5 1873/3/5
f 1877/3/5 1876/3/5 1875/3/5
f 1878/3/5 1876/3/5 1877/3/5
f 1881/4/5 1880/4/5 1879/4/5
f 1882/4/5 1880/4/5 1881/4/5
f 1885/3/5 1884/3/5 1883/3/5
f 1886/3/5 1884/3/5 1885/3/5
f 1891/3/5 1888/3/5 1887/3/5
f 1892/3/5 1888/3/5 1891/3/5
f 1894/3/5 1890/3/5 1889/3/5
f 1895/3/5 1890/3/5 1894/3/5
f 1898/3/5 1894/3/5 1893/3/5
f 1899/3/5 1894/3/5 1898/3/5
f 1900/5/5 1897/5/5 1896/5/5
f 1901/5/5 1897/5/5 1900/5/5
f 1904/3/5 1903/3/5 1902/3/5
f 1905/3/5 1903/3/5 1904/3/5
f 1908/3/5 1907/3/5 1906/3/5
f 1909/3/5 1907/3/5 1908/3/5
f 1911/4/5 1910/4/5 1909/4/5
f 1912/4/5 1910/4/5 1911/4/5
f 1915/3/5 1914/3/5 1913/3/5
f 1916/3/5 1914/3/5 1915/3/5
f 1919/4/5 1918/4/5 1917/4/5
f 1920/4/5 1918/4/5 1919/4/5
f 1923/3/5 1922/3/5 1921/3/5
f 1924/3/5 1922/3/5 1923/3/5
f 1927/3/5 1926/3/5 1925/3/5
f 1928/3/5 1926/3/5 1927/3/5
f 1931/5/5 1930/5/5 1929/5/5
f 1932/5/5 1930/5/5 1931/5/5
f 1935/3/5 1934/3/5 1933/3/5
f 1936/3/5 1934/3/5 1935/3/5
f 1939/3/5 1938/3/5 1937/3/5
f 1940/3/5 1938/3/5 1939/3/5
f 1941/2/6 1942/2/6 1943/2/6
f 1943/2/6 1942/2/6 1944/2/6
f 1945/2/6 1946/2/6 1947/2/6
f 1947/2/6 1946/2/6 1948/2/6
f 1949/1/6 1950/1/6 1951/1/6
f 1951/1/6 1950/1/6 1952/1/6
f 1953/2/6 1954/2/6 1955/2/6
f 1955/2/6 1954/2/6 1956/2/6
f 1957/4/6 1958/4/6 1959/4/6
f 1959/4/6 1958/4/6 1960/4/6
f 1961/3/6 1962/3/6 1963/3/6
f 1963/3/6 1962/3/6 1964/3/6
f 1964/3/6 1962/3/6 1965/3/6
f 1965/3/6 1966/3/6 1967/3/6
f 1964/3/6 1965/3/6 1967/3/6
f 1967/3/6 1966/3/6 1968/3/6
f 1964/3/6 1967/3/6 1969/3/6
f 1969/3/6 1967/3/6 1970/3/6
f 1970/3/6 1971/3/6 1972/3/6
f 1972/3/6 1971/3/6 1973/3/6
f 1973/3/6 1971/3/6 1974/3/6
f 1974/3/6 1971/3/6 1975/3/6
f 1976/3/6 1977/3/6 1978/3/6
f 1978/3/6 1977/3/6 1979/3/6
f 1980/3/6 1981/3/6 1982/3/6
f 1982/3/6 1981/3/6 1983/3/6
f 1984/5/6 1985/5/6 1986/5/6
f 1986/5/6 1985/5/6 1987/5/6
f 1988/2/6 1989/2/6 1990/2/6
f 1990/2/6 1989/2/6 1991/2/6
f 1992/2/6 1993/2/6 1994/2/6
f 1994/2/6 1993/2/6 1995/2/6
f 1996/6/6 1997/6/6 1998/6/6
f 1998/6/6 1997/6/6 1999/6/6
f 2000/3/6 2001/3/6 2003/3/6
f 2003/3/6 2001/3/6 2004/3/6
f 2002/3/6 2003/3/6 2007/3/6
f 2007/3/6 2003/3/6 2008/3/6
f 2005/3/6 2006/3/6 2009/3/6
f 2009/3/6 2006/3/6 2010/3/6
f 2011/5/6 2012/5/6 2013/5/6
f 2013/5/6 2012/5/6 2014/5/6
f 2015/3/6 2016/3/6 2017/3/6
f 2017/3/6 2016/3/6 2018/3/6
f 2019/3/6 2020/3/6 2021/3/6
f 2021/3/6 2020/3/6 2022/3/6
f 2023/3/6 2024/3/6 2025/3/6
f 2025/3/6 2024/3/6 2026/3/6
f 2027/3/6 2028/3/6 2029/3/6
f 2029/3/6 2028/3/6 2030/3/6
f 2031/5/6 2032/5/6 2035/5/6
f 2035/5/6 2032/5/6 2036/5/6
f 2033/3/6 2034/3/6 2037/3/6
f 2037/3/6 2034/3/6 2038/3/6
f 2039/3/6 2040/3/6 2041/3/6
f 2041/3/6 2040/3/6 2042/3/6
f 2043/3/6 2044/3/6 2045/3/6
f 2045/3/6 2044/3/6 2046/3/6
f 2047/3/6 2048/3/6 2052/3/6
f 2052/3/6 2048/3/6 2053/3/6
f 2049/3/6 2050/3/6 2054/3/6
f 2054/3/6 2050/3/6 2055/3/6
f 2051/3/6 2052/3/6 2057/3/6
f 2057/3/6 2052/3/6 2058/3/6
f 2056/3/6 2057/3/6 2061/3/6
f 2061/3/6 2057/3/6 2062/3/6
f 2059/5/6 2060/5/6 2063/5/6
f 2063/5/6 2060/5/6 2064/5/6
f 2065/5/6 2066/5/6 2068/5/6
f 2066/4/6 2067/4/6 2069/4/6
f 2068/5/6 2066/5/6 2069/5/6
f 2069/4/6 2067/4/6 2070/4/6
f 2071/3/6 2072/3/6 2075/3/6
f 2075/3/6 2072/3/6 2076/3/6
f 2073/3/6 2074/3/6 2077/3/6
f 2077/3/6 2074/3/6 2078/3/6
f 2081/3/6 2082/3/6 2083/3/6
f 2083/3/6 2082/3/6 2084/3/6
f 2084/3/6 2085/3/6 2086/3/6
f 2086/3/6 2085/3/6 2087/3/6
f 2079/3/6 2080/3/6 2088/3/6
f 2079/3/6 2088/3/6 2090/3/6
f 2088/3/6 2089/3/6 2090/3/6
f 2090/3/6 2089/3/6 2091/3/6
f 2091/3/6 2089/3/6 2092/3/6
f 2092/3/6 2093/3/6 2094/3/6
f 2091/3/6 2092/3/6 2094/3/6
f 2094/3/6 2093/3/6 2095/3/6
f 2096/3/6 2097/3/6 2098/3/6
f 2098/3/6 2097/3/6 2099/3/6
f 2100/3/6 2101/3/6 2102/3/6
f 2102/3/6 2101/3/6 2103/3/6
f 2104/3/6 2105/3/6 2110/3/6
f 2110/3/6 2105/3/6 2111/3/6
f 2106/3/6 2107/3/6 2112/3/6
f 2112/3/6 2107/3/6 2113/3/6
f 2108/3/6 2109/3/6 2115/3/6
f 2115/3/6 2109/3/6 2116/3/6
f 2114/3/6 2115/3/6 2117/3/6
f 2117/3/6 2115/3/6 2121/3/6
f 2121/3/6 2115/3/6 2122/3/6
f 2118/3/6 2119/3/6 2123/3/6
f 2123/3/6 2119/3/6 2124/3/6
f 2120/3/6 2121/3/6 2125/3/6
f 2125/3/6 2121/3/6 2126/3/6
f 2127/3/6 2128/3/6 2129/3/6
f 2129/3/6 2128/3/6 2130/3/6
f 2131/3/6 2132/3/6 2136/3/6
f 2132/3/6 2133/3/6 2136/3/6
f 2136/3/6 2133/3/6 2137/3/6
f 2134/3/6 2135/3/6 2140/3/6
f 2140/3/6 2135/3/6 2141/3/6
f 2138/3/6 2139/3/6 2142/3/6
f 2142/3/6 2139/3/6 2143/3/6
f 2143/3/6 2144/3/6 2145/3/6
f 2145/3/6 2144/3/6 2146/3/6
f 2147/4/6 2148/4/6 2151/4/6
f 2151/4/6 2148/4/6 2152/4/6
f 2149/3/6 2150/3/6 2153/3/6
f 2153/3/6 2150/3/6 2154/3/6
f 2157/3/6 2158/3/6 2159/3/6
f 2159/3/6 2158/3/6 2160/3/6
f 2155/3/6 2156/3/6 2162/3/6
f 2162/3/6 2156/3/6 2163/3/6
f 2160/3/6 2161/3/6 2164/3/6
f 2164/3/6 2161/3/6 2165/3/6
f 2165/3/6 2166/3/6 2171/3/6
f 2171/3/6 2166/3/6 2172/3/6
f 2169/3/6 2170/3/6 2173/3/6
f 2173/3/6 2170/3/6 2174/3/6
f 2167/3/6 2168/3/6 2175/3/6
f 2175/3/6 2168/3/6 2176/3/6
f 2174/3/6 2175/3/6 2177/3/6
f 2174/3/6 2177/3/6 2181/3/6
f 2177/3/6 2178/3/6 2181/3/6
f 2181/3/6 2178/3/6 2182/3/6
f 2179/3/6 2180/3/6 2185/3/6
f 2184/3/6 2185/3/6 2186/3/6
f 2185/3/6 2180/3/6 2186/3/6
f 2186/3/6 2180/3/6 2187/3/6
f 2182/3/6 2183/3/6 2188/3/6
f 2188/3/6 2183/3/6 2189/3/6
f 2184/3/6 2186/3/6 2191/3/6
f 2191/3/6 2186/3/6 2192/3/6
f 2189/3/6 2190/3/6 2193/3/6
f 2193/3/6 2190/3/6 2194/3/6
f 2194/3/6 2195/3/6 2198/3/6
f 2198/3/6 2195/3/6 2199/3/6
f 2196/3/6 2197/3/6 2201/3/6
f 2201/3/6 2197/3/6 2202/3/6
f 2200/3/6 2201/3/6 2205/3/6
f 2205/3/6 2201/3/6 2206/3/6
f 2203/4/6 2204/4/6 2207/4/6
f 2207/4/6 2204/4/6 2208/4/6
f 2209/3/6 2210/3/6 2211/3/6
f 2211/3/6 2210/3/6 2212/3/6
f 2212/3/6 2213/3/6 2216/3/6
f 2216/3/6 2213/3/6 2217/3/6
f 2214/3/6 2215/3/6 2220/3/6
f 2220/3/6 2215/3/6 2221/3/6
f 2218/3/6 2219/3/6 2222/3/6
f 2222/3/6 2219/3/6 2223/3/6
f 2224/3/6 2225/3/6 2226/3/6
f 2226/3/6 2227/3/6 2230/3/6
f 2224/3/6 2226/3/6 2230/3/6
f 2230/3/6 2227/3/6 2231/3/6
f 2228/3/6 2229/3/6 2233/3/6
f 2233/3/6 2229/3/6 2234/3/6
f 2231/3/6 2227/3/6 2235/3/6
f 2235/3/6 2227/3/6 2236/3/6
f 2232/3/6 2233/3/6 2238/3/6
f 2238/3/6 2233/3/6 2239/3/6
f 2236/3/6 2237/3/6 2240/3/6
f 2240/3/6 2237/3/6 2241/3/6
f 2242/3/6 2243/3/6 2244/3/6
f 2244/3/6 2243/3/6 2245/3/6
f 2246/3/6 2247/3/6 2248/3/6
f 2248/3/6 2247/3/6 2249/3/6
f 2250/3/6 2251/3/6 2252/3/6
f 2252/3/6 2251/3/6 2253/3/6
f 2254/3/6 2255/3/6 2258/3/6
f 2256/3/6 2257/3/6 2259/3/6
f 2258/3/6 2255/3/6 2261/3/6
f 2261/3/6 2255/3/6 2262/3/6
f 2259/3/6 2260/3/6 2263/3/6
f 2256/3/6 2259/3/6 2263/3/6
f 2263/3/6 2260/3/6 2264/3/6
f 2267/3/6 2268/3/6 2269/3/6
f 2269/3/6 2268/3/6 2270/3/6
f 2265/3/6 2266/3/6 2272/3/6
f 2272/3/6 2266/3/6 2273/3/6
f 2271/3/6 2272/3/6 2274/3/6
f 2274/3/6 2272/3/6 2275/3/6
f 2276/3/6 2277/3/6 2280/3/6
f 2280/3/6 2277/3/6 2281/3/6
f 2278/3/6 2279/3/6 2282/3/6
f 2282/3/6 2279/3/6 2283/3/6
f 2284/5/6 2285/5/6 2286/5/6
f 2286/5/6 2285/5/6 2287/5/6
f 2288/3/6 2289/3/6 2290/3/6
f 2290/3/6 2289/3/6 2291/3/6
f 2291/3/6 2292/3/6 2293/3/6
f 2293/3/6 2292/3/6 2294/3/6
f 2293/3/6 2294/3/6 2300/3/6
f 2294/3/6 2295/3/6 2300/3/6
f 2300/3/6 2295/3/6 2301/3/6
f 2301/3/6 2295/3/6 2302/3/6
f 2298/3/6 2299/3/6 2304/3/6
f 2304/3/6 2299/3/6 2305/3/6
f 2302/3/6 2303/3/6 2306/3/6
f 2301/3/6 2302/3/6 2306/3/6
f 2306/3/6 2303/3/6 2307/3/6
f 2296/3/6 2297/3/6 2308/3/6
f 2309/3/6 2310/3/6 2311/3/6
f 2307/3/6 2308/3/6 2313/3/6
f 2308/3/6 2297/3/6 2314/3/6
f 2313/3/6 2308/3/6 2314/3/6
f 2311/3/6 2312/3/6 2315/3/6
f 2309/3/6 2311/3/6 2315/3/6
f 2315/3/6 2312/3/6 2316/3/6
f 2316/3/6 2312/3/6 2317/3/6
f 2317/3/6 2312/3/6 2318/3/6
f 2314/3/6 2297/3/6 2319/3/6
f 2319/3/6 2297/3/6 2320/3/6
f 2321/3/6 2322/3/6 2323/3/6
f 2323/3/6 2322/3/6 2324/3/6
f 2325/3/6 2326/3/6 2327/3/6
f 2327/3/6 2326/3/6 2328/3/6
f 2329/3/6 2330/3/6 2331/3/6
f 2331/3/6 2330/3/6 2332/3/6
f 2333/3/6 2334/3/6 2336/3/6
f 2336/3/6 2334/3/6 2337/3/6
f 2335/3/6 2336/3/6 2339/3/6
f 2337/3/6 2338/3/6 2339/3/6
f 2336/3/6 2337/3/6 2339/3/6
f 2339/3/6 2338/3/6 2340/3/6
f 2335/3/6 2339/3/6 2344/3/6
f 2344/3/6 2339/3/6 2345/3/6
f 2341/3/6 2342/3/6 2346/3/6
f 2346/3/6 2342/3/6 2347/3/6
f 2343/3/6 2344/3/6 2348/3/6
f 2348/3/6 2344/3/6 2349/3/6
f 2350/3/6 2351/3/6 2352/3/6
f 2352/3/6 2351/3/6 2353/3/6
f 2354/3/6 2355/3/6 2356/3/6
f 2356/3/6 2355/3/6 2357/3/6
f 2357/3/6 2358/3/6 2359/3/6
f 2359/3/6 2358/3/6 2360/3/6
f 2361/3/6 2362/3/6 2363/3/6
f 2363/3/6 2362/3/6 2364/3/6
f 2365/4/6 2366/4/6 2367/4/6
f 2367/4/6 2366/4/6 2368/4/6
f 2369/3/6 2370/3/6 2372/3/6
f 2372/3/6 2370/3/6 2373/3/6
f 2374/3/6 2375/3/6 2376/3/6
f 2376/3/6 2375/3/6 2377/3/6
f 2371/3/6 2372/3/6 2379/3/6
f 2379/3/6 2372/3/6 2380/3/6
f 2377/3/6 2375/3/6 2381/3/6
f 2381/3/6 2375/3/6 2382/3/6
f 2378/3/6 2379/3/6 2384/3/6
f 2384/3/6 2379/3/6 2385/3/6
f 2382/3/6 2383/3/6 2386/3/6
f 2386/3/6 2383/3/6 2387/3/6
f 2387/3/6 2388/3/6 2390/3/6
f 2390/3/6 2388/3/6 2391/3/6
f 2389/3/6 2390/3/6 2394/3/6
f 2394/3/6 2390/3/6 2395/3/6
f 2392/3/6 2393/3/6 2396/3/6
f 2396/3/6 2393/3/6 2397/3/6
f 2396/5/6 2397/5/6 2398/5/6
f 2398/5/6 2397/5/6 2399/5/6
f 2400/3/6 2401/3/6 2402/3/6
f 2402/3/6 2401/3/6 2403/3/6
f 2403/3/6 2404/3/6 2409/3/6
f 2409/3/6 2404/3/6 2410/3/6
f 2405/3/6 2406/3/6 2411/3/6
f 2407/3/6 2408/3/6 2412/3/6
f 2412/3/6 2408/3/6 2413/3/6
f 2410/3/6 2411/3/6 2414/3/6
f 2411/3/6 2406/3/6 2415/3/6
f 2414/3/6 2411/3/6 2415/3/6
f 2415/3/6 2406/3/6 2416/3/6
f 2416/3/6 2417/3/6 2418/3/6
f 2415/3/6 2416/3/6 2418/3/6
f 2418/3/6 2417/3/6 2419/3/6
f 2419/3/6 2417/3/6 2422/3/6
f 2422/3/6 2417/3/6 2423/3/6
f 2420/3/6 2421/3/6 2424/3/6
f 2424/3/6 2421/3/6 2425/3/6
f 2426/3/6 2427/3/6 2430/3/6
f 2430/3/6 2427/3/6 2431/3/6
f 2428/3/6 2429/3/6 2432/3/6
f 2432/3/6 2429/3/6 2433/3/6
f 2434/3/6 2435/3/6 2436/3/6
f 2436/3/6 2435/3/6 2437/3/6
f 2438/3/6 2439/3/6 2441/3/6
f 2441/3/6 2439/3/6 2442/3/6
f 2440/3/6 2441/3/6 2443/3/6
f 2443/3/6 2441/3/6 2444/3/6
f 2442/3/6 2439/3/6 2445/3/6
f 2445/3/6 2439/3/6 2446/3/6
f 2444/3/6 2445/3/6 2447/3/6
f 2447/3/6 2448/3/6 2451/3/6
f 2449/3/6 2450/3/6 2453/3/6
f 2453/3/6 2450/3/6 2454/3/6
f 2447/3/6 2451/3/6 2455/3/6
f 2444/3/6 2447/3/6 2455/3/6
f 2451/3/6 2452/3/6 2455/3/6
f 2455/3/6 2452/3/6 2456/3/6
f 2456/3/6 2457/3/6 2458/3/6
f 2455/3/6 2456/3/6 2458/3/6
f 2454/3/6 2455/3/6 2458/3/6
f 2458/3/6 2457/3/6 2459/3/6
f 2459/3/6 2457/3/6 2460/3/6
f 2460/3/6 2457/3/6 2461/3/6
f 2461/3/6 2457/3/6 2462/3/6
f 2462/3/6 2457/3/6 2463/3/6
f 2463/3/6 2457/3/6 2464/3/6
f 2464/3/6 2457/3/6 2465/3/6
f 2463/3/6 2464/3/6 2466/3/6
f 2466/3/6 2464/3/6 2467/3/6
f 2468/3/6 2469/3/6 2470/3/6
f 2470/3/6 2469/3/6 2471/3/6
f 2471/3/6 2472/3/6 2474/3/6
f 2473/3/6 2474/3/6 2475/3/6
f 2474/3/6 2472/3/6 2476/3/6
f 2475/3/6 2474/3/6 2476/3/6
f 2476/3/6 2472/3/6 2477/3/6
f 2477/3/6 2472/3/6 2478/3/6
