# MagicaVoxel @ Ephtracy

# group
o 

# material
mtllib trans_1_2.mtl
usemtl palette

# normals
vn -1 0 0
vn 1 0 0
vn 0 0 1
vn 0 0 -1
vn 0 -1 0
vn 0 1 0

# texcoords
vt 0.919922 0.5
vt 0.923828 0.5
vt 0.927734 0.5
vt 0.962891 0.5
vt 0.966797 0.5
vt 0.994141 0.5

# verts
v -1 0.3 0.4
v -1 0.3 0.1
v -1 0.3 -0.2
v -1 0.4 0.4
v -1 0.4 0.1
v -1 0.4 -0.2
v -1 0.5 0.4
v -1 0.5 0.1
v -1 0.5 -0.2
v -1 0.6 0.4
v -1 0.6 0.1
v -1 0.6 -0.2
v -1 2.2 0.4
v -1 2.2 0.1
v -1 2.2 -0.2
v -1 2.3 0.4
v -1 2.3 0.1
v -1 2.3 -0.2
v -1 2.4 0.4
v -1 2.4 0.1
v -1 2.4 0
v -1 2.4 -0.2
v -1 2.5 0.4
v -1 2.5 0.1
v -1 2.5 0
v -0.9 0.3 0.6
v -0.9 0.3 0.4
v -0.9 0.3 -0.2
v -0.9 0.3 -0.3
v -0.9 0.3 -0.4
v -0.9 0.4 0.6
v -0.9 0.4 0.4
v -0.9 0.4 -0.2
v -0.9 0.4 -0.3
v -0.9 0.4 -0.4
v -0.9 0.5 0.6
v -0.9 0.5 0.4
v -0.9 0.5 -0.2
v -0.9 0.5 -0.3
v -0.9 0.5 -0.4
v -0.9 0.6 0.6
v -0.9 0.6 0.4
v -0.9 0.6 -0.2
v -0.9 0.6 -0.3
v -0.9 0.6 -0.4
v -0.9 2.2 0.6
v -0.9 2.2 0.4
v -0.9 2.2 -0.2
v -0.9 2.2 -0.3
v -0.9 2.2 -0.4
v -0.9 2.3 0.6
v -0.9 2.3 0.4
v -0.9 2.3 -0.2
v -0.9 2.3 -0.3
v -0.9 2.3 -0.4
v -0.9 2.4 0.6
v -0.9 2.4 0.4
v -0.9 2.4 -0.2
v -0.9 2.4 -0.3
v -0.9 2.4 -0.4
v -0.9 2.5 0.6
v -0.9 2.5 0.4
v -0.9 2.5 -0.2
v -0.9 2.5 -0.3
v -0.9 2.5 -0.4
v -0.8 0.3 0.7
v -0.8 0.3 0.6
v -0.8 0.3 -0.4
v -0.8 0.3 -0.5
v -0.8 0.4 0.7
v -0.8 0.4 0.6
v -0.8 0.4 -0.4
v -0.8 0.4 -0.5
v -0.8 0.5 0.7
v -0.8 0.5 0.6
v -0.8 0.5 -0.4
v -0.8 0.5 -0.5
v -0.8 0.6 0.7
v -0.8 0.6 0.6
v -0.8 0.6 -0.4
v -0.8 0.6 -0.5
v -0.8 2.2 0.7
v -0.8 2.2 0.6
v -0.8 2.2 -0.4
v -0.8 2.2 -0.5
v -0.8 2.3 0.7
v -0.8 2.3 0.6
v -0.8 2.3 0
v -0.8 2.3 -0.1
v -0.8 2.3 -0.4
v -0.8 2.3 -0.5
v -0.8 2.4 0.7
v -0.8 2.4 0.6
v -0.8 2.4 0.4
v -0.8 2.4 0.2
v -0.8 2.4 0
v -0.8 2.4 -0.1
v -0.8 2.4 -0.4
v -0.8 2.4 -0.5
v -0.8 2.5 0.7
v -0.8 2.5 0.6
v -0.8 2.5 0.4
v -0.8 2.5 0.2
v -0.7 0 0.5
v -0.7 0 0.3
v -0.7 0 -0.1
v -0.7 0 -0.3
v -0.7 0.1 0.5
v -0.7 0.1 0.3
v -0.7 0.1 -0.1
v -0.7 0.1 -0.3
v -0.7 0.3 0.5
v -0.7 0.3 0.3
v -0.7 0.3 -0.1
v -0.7 0.3 -0.3
v -0.6 0.3 0.8
v -0.6 0.3 0.7
v -0.6 0.3 -0.5
v -0.6 0.3 -0.6
v -0.6 0.4 0.8
v -0.6 0.4 0.7
v -0.6 0.4 -0.5
v -0.6 0.4 -0.6
v -0.6 0.5 0.8
v -0.6 0.5 0.7
v -0.6 0.5 -0.5
v -0.6 0.5 -0.6
v -0.6 0.6 0.8
v -0.6 0.6 0.7
v -0.6 0.6 -0.5
v -0.6 0.6 -0.6
v -0.6 2.2 0.8
v -0.6 2.2 0.7
v -0.6 2.2 -0.5
v -0.6 2.2 -0.6
v -0.6 2.3 0.8
v -0.6 2.3 0.7
v -0.6 2.3 0.1
v -0.6 2.3 0
v -0.6 2.3 -0.5
v -0.6 2.3 -0.6
v -0.6 2.4 0.6
v -0.6 2.4 0.5
v -0.6 2.4 0.4
v -0.6 2.4 0.2
v -0.6 2.4 0.1
v -0.6 2.4 0
v -0.6 2.4 -0.5
v -0.6 2.4 -0.6
v -0.6 2.5 0.6
v -0.6 2.5 0.5
v -0.6 2.5 0.4
v -0.6 2.5 0.2
v -0.5 2.3 -0.3
v -0.5 2.3 -0.4
v -0.5 2.4 -0.3
v -0.5 2.4 -0.4
v -0.5 2.4 -0.5
v -0.5 2.4 -0.6
v -0.5 2.5 -0.5
v -0.5 2.5 -0.6
v -0.4 0.3 0.9
v -0.4 0.3 0.8
v -0.4 0.3 -0.6
v -0.4 0.3 -0.7
v -0.4 0.4 0.9
v -0.4 0.4 0.8
v -0.4 0.4 -0.6
v -0.4 0.4 -0.7
v -0.4 0.5 0.9
v -0.4 0.5 0.8
v -0.4 0.5 -0.6
v -0.4 0.5 -0.7
v -0.4 0.6 0.9
v -0.4 0.6 0.8
v -0.4 0.6 -0.6
v -0.4 0.6 -0.7
v -0.4 1 -0.6
v -0.4 1 -0.7
v -0.4 1.1 -0.6
v -0.4 1.1 -0.7
v -0.4 1.2 -0.6
v -0.4 1.2 -0.7
v -0.4 1.4 -0.6
v -0.4 1.4 -0.7
v -0.4 1.8 -0.6
v -0.4 1.8 -0.7
v -0.4 2.1 -0.6
v -0.4 2.1 -0.7
v -0.4 2.2 0.9
v -0.4 2.2 0.8
v -0.4 2.2 -0.6
v -0.4 2.2 -0.7
v -0.4 2.3 0.9
v -0.4 2.3 0.8
v -0.4 2.3 0.7
v -0.4 2.4 0.9
v -0.4 2.4 0.7
v -0.4 2.4 0.5
v -0.4 2.4 0.4
v -0.4 2.5 0.5
v -0.4 2.5 0.4
v -0.3 1 -0.6
v -0.3 1 -0.7
v -0.3 1.1 -0.6
v -0.3 1.1 -0.7
v -0.3 1.2 -0.6
v -0.3 1.2 -0.7
v -0.3 1.3 -0.6
v -0.3 1.3 -0.7
v -0.3 2.2 -0.1
v -0.3 2.2 -0.2
v -0.3 2.3 -0.1
v -0.3 2.3 -0.2
v -0.2 1.1 -0.6
v -0.2 1.1 -0.7
v -0.2 1.2 -0.6
v -0.2 1.2 -0.7
v -0.2 2.3 0.6
v -0.2 2.3 0.5
v -0.2 2.4 0.6
v -0.2 2.4 0.5
v -0.1 1.3 0.9
v -0.1 1.3 0.8
v -0.1 1.3 -0.6
v -0.1 1.3 -0.7
v -0.1 1.4 0.9
v -0.1 1.4 0.8
v -0.1 1.4 -0.6
v -0.1 1.4 -0.7
v -0.1 1.9 -0.5
v -0.1 1.9 -0.6
v -0.1 2 -0.5
v -0.1 2 -0.6
v 0.3 0 0.5
v 0.3 0 0.3
v 0.3 0 -0.1
v 0.3 0 -0.3
v 0.3 0.1 0.5
v 0.3 0.1 0.3
v 0.3 0.1 -0.1
v 0.3 0.1 -0.3
v 0.3 0.3 0.5
v 0.3 0.3 0.3
v 0.3 0.3 -0.1
v 0.3 0.3 -0.3
v 0.3 1.5 0.6
v 0.3 1.5 0.5
v 0.3 1.6 0.6
v 0.3 1.6 0.5
v 0.4 0.9 -0.4
v 0.4 0.9 -0.5
v 0.4 1 -0.4
v 0.4 1 -0.5
v -0.9 2.3 0
v -0.9 2.3 -0.1
v -0.9 2.4 0.4
v -0.9 2.4 0.1
v -0.9 2.4 0
v -0.9 2.4 -0.1
v -0.9 2.5 0.4
v -0.9 2.5 0.1
v -0.9 2.5 0
v -0.8 2.3 0.1
v -0.8 2.3 0
v -0.8 2.3 -0.1
v -0.8 2.3 -0.2
v -0.8 2.4 0.5
v -0.8 2.4 0.4
v -0.8 2.4 0.1
v -0.8 2.4 0
v -0.8 2.4 -0.1
v -0.8 2.4 -0.2
v -0.8 2.4 -0.3
v -0.8 2.4 -0.4
v -0.8 2.5 0.5
v -0.8 2.5 0.4
v -0.8 2.5 -0.3
v -0.8 2.5 -0.4
v -0.7 2.3 -0.2
v -0.7 2.3 -0.3
v -0.7 2.3 -0.4
v -0.7 2.4 0.6
v -0.7 2.4 0.5
v -0.7 2.4 0.4
v -0.7 2.4 0.2
v -0.7 2.4 -0.2
v -0.7 2.4 -0.3
v -0.7 2.4 -0.4
v -0.7 2.5 0.6
v -0.7 2.5 0.5
v -0.7 2.5 0.4
v -0.7 2.5 0.2
v -0.7 2.5 -0.2
v -0.7 2.5 -0.3
v -0.6 2.3 0
v -0.6 2.3 -0.1
v -0.6 2.3 -0.4
v -0.6 2.3 -0.5
v -0.6 2.4 0.7
v -0.6 2.4 0.6
v -0.6 2.4 0
v -0.6 2.4 -0.1
v -0.6 2.4 -0.4
v -0.6 2.4 -0.5
v -0.6 2.5 0.7
v -0.6 2.5 0.6
v -0.5 0 0.5
v -0.5 0 0.3
v -0.5 0 -0.1
v -0.5 0 -0.3
v -0.5 0.1 0.5
v -0.5 0.1 0.3
v -0.5 0.1 -0.1
v -0.5 0.1 -0.3
v -0.5 0.3 0.5
v -0.5 0.3 0.3
v -0.5 0.3 -0.1
v -0.5 0.3 -0.3
v -0.5 2.2 -0.2
v -0.5 2.2 -0.3
v -0.5 2.3 0.2
v -0.5 2.3 0
v -0.5 2.3 -0.2
v -0.5 2.3 -0.3
v -0.5 2.3 -0.5
v -0.5 2.3 -0.6
v -0.5 2.4 0.6
v -0.5 2.4 0.5
v -0.5 2.4 0.2
v -0.5 2.4 0
v -0.5 2.4 -0.5
v -0.5 2.4 -0.6
v -0.5 2.5 0.6
v -0.5 2.5 0.5
v -0.4 2.2 -0.1
v -0.4 2.2 -0.2
v -0.4 2.2 -0.5
v -0.4 2.2 -0.6
v -0.4 2.3 -0.1
v -0.4 2.3 -0.2
v -0.4 2.3 -0.5
v -0.4 2.3 -0.6
v -0.4 2.4 0.4
v -0.4 2.4 0.2
v -0.4 2.4 -0.5
v -0.4 2.4 -0.6
v -0.4 2.5 0.4
v -0.4 2.5 0.2
v -0.4 2.5 -0.5
v -0.4 2.5 -0.6
v -0.3 1.1 -0.6
v -0.3 1.1 -0.7
v -0.3 1.2 -0.6
v -0.3 1.2 -0.7
v -0.3 1.5 0.9
v -0.3 1.5 0.8
v -0.3 1.7 0.9
v -0.3 1.7 0.8
v -0.3 1.9 -0.5
v -0.3 1.9 -0.6
v -0.3 2 0.9
v -0.3 2 0.8
v -0.3 2 -0.5
v -0.3 2 -0.6
v -0.3 2.1 0.9
v -0.3 2.1 0.8
v -0.3 2.2 0
v -0.3 2.2 -0.1
v -0.3 2.3 0.9
v -0.3 2.3 0.8
v -0.3 2.3 0.6
v -0.3 2.3 0.5
v -0.3 2.3 0.3
v -0.3 2.3 0.2
v -0.3 2.3 0
v -0.3 2.3 -0.1
v -0.3 2.3 -0.3
v -0.3 2.3 -0.4
v -0.3 2.4 0.9
v -0.3 2.4 0.8
v -0.3 2.4 0.6
v -0.3 2.4 0.5
v -0.3 2.4 0.4
v -0.3 2.4 0.3
v -0.3 2.4 0.2
v -0.3 2.4 -0.3
v -0.3 2.4 -0.4
v -0.3 2.5 0.5
v -0.3 2.5 0.4
v -0.2 1.2 -0.6
v -0.2 1.2 -0.7
v -0.2 1.3 0.9
v -0.2 1.3 0.8
v -0.2 1.3 -0.6
v -0.2 1.3 -0.7
v -0.2 1.5 0.9
v -0.2 1.5 0.8
v -0.2 1.5 0.7
v -0.2 1.7 0.8
v -0.2 1.8 0.9
v -0.2 1.8 0.8
v -0.2 1.8 0.7
v -0.2 2 0.9
v -0.2 2 0.8
v -0.2 2.1 0.9
v -0.2 2.1 0.8
v -0.2 2.1 0.7
v -0.2 2.1 -0.6
v -0.2 2.1 -0.7
v -0.2 2.2 0.9
v -0.2 2.2 0.8
v -0.2 2.2 0.7
v -0.2 2.2 0.1
v -0.2 2.2 0
v -0.2 2.2 -0.3
v -0.2 2.2 -0.5
v -0.2 2.2 -0.6
v -0.2 2.2 -0.7
v -0.2 2.3 0.9
v -0.2 2.3 0.8
v -0.2 2.3 0.7
v -0.2 2.3 0.1
v -0.2 2.3 0
v -0.2 2.3 -0.3
v -0.2 2.3 -0.5
v -0.2 2.4 0.8
v -0.2 2.4 0.7
v -0.1 1 0.9
v -0.1 1 0.8
v -0.1 1.1 0.9
v -0.1 1.1 0.8
v -0.1 1.4 -0.6
v -0.1 1.4 -0.7
v -0.1 1.5 -0.6
v -0.1 1.5 -0.7
v -0.1 1.7 0.9
v -0.1 1.7 0.8
v -0.1 1.8 0.9
v -0.1 1.8 0.8
v -0.1 1.8 0.7
v -0.1 1.9 0.7
v -0.1 1.9 0.6
v -0.1 2 0.6
v -0.1 2 0.5
v -0.1 2 -0.5
v -0.1 2 -0.6
v -0.1 2.1 0.8
v -0.1 2.1 0.7
v -0.1 2.1 0.6
v -0.1 2.1 0.5
v -0.1 2.1 0
v -0.1 2.1 -0.1
v -0.1 2.1 -0.3
v -0.1 2.1 -0.4
v -0.1 2.1 -0.5
v -0.1 2.1 -0.6
v -0.1 2.2 0.7
v -0.1 2.2 0.6
v -0.1 2.2 0.5
v -0.1 2.2 0.4
v -0.1 2.2 0.3
v -0.1 2.2 0.1
v -0.1 2.2 0
v -0.1 2.2 -0.1
v -0.1 2.2 -0.2
v -0.1 2.2 -0.3
v -0.1 2.2 -0.4
v -0.1 2.3 0.7
v -0.1 2.3 0.6
v -0.1 2.3 0.5
v -0.1 2.3 0.4
v -0.1 2.3 0.3
v -0.1 2.3 0.1
v -0.1 2.3 -0.1
v -0.1 2.3 -0.2
v -0.1 2.4 0.7
v -0.1 2.4 0.4
v 0 0.3 0.9
v 0 0.3 0.8
v 0 0.4 0.9
v 0 0.4 0.8
v 0 0.9 0.9
v 0 0.9 0.8
v 0 1 0.9
v 0 1 0.8
v 0 1.1 0.9
v 0 1.1 0.8
v 0 1.1 -0.6
v 0 1.1 -0.7
v 0 1.2 0.9
v 0 1.2 0.8
v 0 1.2 -0.6
v 0 1.2 -0.7
v 0 1.3 0.9
v 0 1.3 0.8
v 0 1.3 0.7
v 0 1.3 -0.6
v 0 1.3 -0.7
v 0 1.4 0.9
v 0 1.4 0.8
v 0 1.4 -0.6
v 0 1.4 -0.7
v 0 1.5 0.8
v 0 1.5 0.7
v 0 1.5 0.6
v 0 1.5 -0.6
v 0 1.5 -0.7
v 0 1.6 0.6
v 0 1.6 0.5
v 0 1.6 -0.6
v 0 1.6 -0.7
v 0 1.7 -0.6
v 0 1.7 -0.7
v 0 1.8 0.5
v 0 1.8 0.1
v 0 1.8 -0.6
v 0 1.8 -0.7
v 0 1.9 0.7
v 0 1.9 0.6
v 0 1.9 0.5
v 0 1.9 0.1
v 0 1.9 -0.5
v 0 1.9 -0.6
v 0 2 0.6
v 0 2 0.5
v 0 2 0.4
v 0 2 0.1
v 0 2 0
v 0 2 -0.3
v 0 2 -0.4
v 0 2 -0.5
v 0 2 -0.6
v 0 2.1 0.6
v 0 2.1 0.5
v 0 2.1 0.4
v 0 2.1 0.3
v 0 2.1 0.2
v 0 2.1 0.1
v 0 2.1 0
v 0 2.1 -0.1
v 0 2.1 -0.3
v 0 2.1 -0.4
v 0 2.1 -0.5
v 0 2.1 -0.6
v 0 2.2 0.6
v 0 2.2 0.5
v 0 2.2 0.4
v 0 2.2 0.3
v 0 2.2 0.2
v 0 2.2 0
v 0 2.2 -0.1
v 0 2.2 -0.3
v 0 2.2 -0.4
v 0 2.2 -0.6
v 0 2.3 0.6
v 0 2.3 0.5
v 0 2.3 0.4
v 0 2.3 0.3
v 0 2.4 0.4
v 0 2.4 0.3
v 0.1 0.3 -0.6
v 0.1 0.3 -0.7
v 0.1 0.4 0.9
v 0.1 0.4 0.8
v 0.1 0.4 -0.6
v 0.1 0.4 -0.7
v 0.1 0.5 0.9
v 0.1 0.5 0.8
v 0.1 0.5 -0.6
v 0.1 0.5 -0.7
v 0.1 0.6 0.9
v 0.1 0.6 0.8
v 0.1 0.6 -0.6
v 0.1 0.6 -0.7
v 0.1 0.9 0.9
v 0.1 0.9 0.8
v 0.1 1.1 -0.6
v 0.1 1.1 -0.7
v 0.1 1.2 0.8
v 0.1 1.2 0.7
v 0.1 1.2 -0.5
v 0.1 1.2 -0.6
v 0.1 1.3 0.8
v 0.1 1.3 0.7
v 0.1 1.3 -0.5
v 0.1 1.3 -0.6
v 0.1 1.5 0.6
v 0.1 1.5 0.5
v 0.1 1.5 -0.5
v 0.1 1.5 -0.6
v 0.1 1.6 0.6
v 0.1 1.6 0.5
v 0.1 1.6 -0.5
v 0.1 1.6 -0.6
v 0.1 1.7 0.5
v 0.1 1.7 0.1
v 0.1 1.7 -0.5
v 0.1 1.7 -0.6
v 0.1 1.8 0.5
v 0.1 1.8 0.1
v 0.1 1.8 0
v 0.1 1.9 0.5
v 0.1 1.9 0.1
v 0.1 1.9 0
v 0.1 1.9 -0.1
v 0.1 1.9 -0.3
v 0.1 1.9 -0.5
v 0.1 1.9 -0.6
v 0.1 2 0.5
v 0.1 2 0.4
v 0.1 2 0.1
v 0.1 2 0
v 0.1 2 -0.1
v 0.1 2 -0.3
v 0.1 2 -0.4
v 0.1 2.1 0.4
v 0.1 2.1 0.3
v 0.1 2.1 0.2
v 0.1 2.1 0.1
v 0.1 2.1 0
v 0.1 2.1 -0.3
v 0.1 2.1 -0.4
v 0.1 2.1 -0.5
v 0.1 2.2 0.3
v 0.1 2.2 0.2
v 0.2 0.3 0.8
v 0.2 0.3 0.7
v 0.2 0.4 0.8
v 0.2 0.4 0.7
v 0.2 0.5 0.8
v 0.2 0.5 0.7
v 0.2 0.6 0.8
v 0.2 0.6 0.7
v 0.2 0.9 -0.5
v 0.2 0.9 -0.6
v 0.2 1 0.8
v 0.2 1 0.7
v 0.2 1.1 -0.5
v 0.2 1.1 -0.6
v 0.2 1.2 0.8
v 0.2 1.2 0.7
v 0.2 1.3 0.7
v 0.2 1.3 0.6
v 0.2 1.3 -0.5
v 0.2 1.3 -0.6
v 0.2 1.4 0.7
v 0.2 1.4 0.6
v 0.2 1.4 -0.5
v 0.2 1.4 -0.6
v 0.2 1.6 0.5
v 0.2 1.6 0.2
v 0.2 1.6 -0.5
v 0.2 1.6 -0.6
v 0.2 1.7 0.5
v 0.2 1.7 0.2
v 0.2 1.7 0.1
v 0.2 1.7 0
v 0.2 1.7 -0.1
v 0.2 1.7 -0.2
v 0.2 1.7 -0.4
v 0.2 1.7 -0.5
v 0.2 1.7 -0.6
v 0.2 1.8 0.1
v 0.2 1.8 0
v 0.2 1.8 -0.1
v 0.2 1.8 -0.2
v 0.2 1.8 -0.4
v 0.2 1.9 0
v 0.2 1.9 -0.1
v 0.2 1.9 -0.3
v 0.2 1.9 -0.5
v 0.2 2 -0.1
v 0.2 2 -0.3
v 0.3 0.3 -0.5
v 0.3 0.3 -0.6
v 0.3 0.4 -0.5
v 0.3 0.4 -0.6
v 0.3 0.5 -0.5
v 0.3 0.5 -0.6
v 0.3 0.6 0.8
v 0.3 0.6 0.7
v 0.3 0.6 -0.5
v 0.3 0.6 -0.6
v 0.3 0.9 -0.4
v 0.3 0.9 -0.5
v 0.3 0.9 -0.6
v 0.3 1 0.8
v 0.3 1 0.7
v 0.3 1.1 -0.4
v 0.3 1.1 -0.5
v 0.3 1.1 -0.6
v 0.3 1.2 0.7
v 0.3 1.2 0.6
v 0.3 1.2 -0.4
v 0.3 1.2 -0.5
v 0.3 1.2 -0.6
v 0.3 1.3 0.7
v 0.3 1.3 0.6
v 0.3 1.3 -0.2
v 0.3 1.3 -0.3
v 0.3 1.4 0.7
v 0.3 1.4 0.6
v 0.3 1.4 0
v 0.3 1.4 -0.1
v 0.3 1.4 -0.4
v 0.3 1.4 -0.5
v 0.3 1.4 -0.6
v 0.3 1.5 0.7
v 0.3 1.5 0.6
v 0.3 1.5 0.5
v 0.3 1.5 0.4
v 0.3 1.5 0.3
v 0.3 1.5 0
v 0.3 1.5 -0.1
v 0.3 1.5 -0.2
v 0.3 1.5 -0.4
v 0.3 1.5 -0.5
v 0.3 1.5 -0.6
v 0.3 1.6 0.5
v 0.3 1.6 0.4
v 0.3 1.6 0.3
v 0.3 1.6 0.2
v 0.3 1.7 0.2
v 0.3 1.7 0
v 0.3 1.7 -0.1
v 0.3 1.7 -0.2
v 0.3 1.7 -0.3
v 0.3 1.7 -0.4
v 0.3 1.7 -0.5
v 0.3 1.8 0
v 0.3 1.8 -0.1
v 0.3 1.8 -0.2
v 0.3 1.8 -0.4
v 0.4 0.5 0.7
v 0.4 0.5 0.6
v 0.4 0.5 0.4
v 0.4 0.6 0.7
v 0.4 0.6 0.6
v 0.4 0.6 0.4
v 0.4 0.8 0.7
v 0.4 0.8 0.4
v 0.4 0.8 -0.4
v 0.4 0.8 -0.5
v 0.4 0.9 0.6
v 0.4 0.9 0.4
v 0.4 0.9 -0.4
v 0.4 0.9 -0.5
v 0.4 1 0.6
v 0.4 1 0.5
v 0.4 1.1 0.7
v 0.4 1.1 0.6
v 0.4 1.1 0.5
v 0.4 1.1 0.4
v 0.4 1.1 -0.3
v 0.4 1.1 -0.4
v 0.4 1.1 -0.5
v 0.4 1.2 0.7
v 0.4 1.2 0.6
v 0.4 1.2 0.4
v 0.4 1.2 0.3
v 0.4 1.2 0.2
v 0.4 1.2 -0.1
v 0.4 1.2 -0.3
v 0.4 1.2 -0.4
v 0.4 1.2 -0.5
v 0.4 1.3 0
v 0.4 1.3 -0.1
v 0.4 1.3 -0.2
v 0.4 1.3 -0.3
v 0.4 1.3 -0.4
v 0.4 1.4 0.2
v 0.4 1.4 0
v 0.4 1.4 -0.1
v 0.4 1.4 -0.4
v 0.4 1.4 -0.5
v 0.4 1.5 0.5
v 0.4 1.5 0.4
v 0.4 1.5 0.3
v 0.4 1.5 0
v 0.4 1.5 -0.1
v 0.4 1.5 -0.2
v 0.4 1.5 -0.4
v 0.4 1.5 -0.5
v 0.4 1.6 0.6
v 0.4 1.6 0.5
v 0.4 1.6 0.4
v 0.4 1.6 0.3
v 0.4 1.7 -0.3
v 0.4 1.7 -0.4
v 0.5 0 0.5
v 0.5 0 0.3
v 0.5 0 -0.1
v 0.5 0 -0.3
v 0.5 0.1 0.5
v 0.5 0.1 0.3
v 0.5 0.1 -0.1
v 0.5 0.1 -0.3
v 0.5 0.3 0.7
v 0.5 0.3 0.6
v 0.5 0.3 0.5
v 0.5 0.3 0.4
v 0.5 0.3 0.3
v 0.5 0.3 -0.1
v 0.5 0.3 -0.2
v 0.5 0.3 -0.3
v 0.5 0.3 -0.4
v 0.5 0.3 -0.5
v 0.5 0.4 0.7
v 0.5 0.4 0.6
v 0.5 0.4 0.5
v 0.5 0.4 0.4
v 0.5 0.4 -0.2
v 0.5 0.4 -0.3
v 0.5 0.4 -0.4
v 0.5 0.4 -0.5
v 0.5 0.5 0.7
v 0.5 0.5 0.6
v 0.5 0.5 0.5
v 0.5 0.5 0.4
v 0.5 0.5 0.3
v 0.5 0.5 -0.2
v 0.5 0.5 -0.3
v 0.5 0.5 -0.4
v 0.5 0.5 -0.5
v 0.5 0.6 0.4
v 0.5 0.6 0.3
v 0.5 0.6 0.2
v 0.5 0.6 -0.2
v 0.5 0.6 -0.3
v 0.5 0.6 -0.4
v 0.5 0.6 -0.5
v 0.5 0.8 0.7
v 0.5 0.8 0.4
v 0.5 0.8 0.2
v 0.5 0.8 0.1
v 0.5 0.8 -0.4
v 0.5 0.8 -0.5
v 0.5 0.9 0.6
v 0.5 0.9 0.4
v 0.5 0.9 0.3
v 0.5 0.9 0
v 0.5 0.9 -0.4
v 0.5 0.9 -0.5
v 0.5 1 0.6
v 0.5 1 0.5
v 0.5 1 0.4
v 0.5 1 0.3
v 0.5 1 -0.4
v 0.5 1 -0.5
v 0.5 1.1 0.7
v 0.5 1.1 0.6
v 0.5 1.1 0.5
v 0.5 1.1 0.4
v 0.5 1.1 -0.3
v 0.5 1.1 -0.4
v 0.5 1.2 0.6
v 0.5 1.2 0.4
v 0.5 1.2 0.3
v 0.5 1.2 0.2
v 0.5 1.2 -0.1
v 0.5 1.2 -0.3
v 0.5 1.2 -0.4
v 0.5 1.3 0.1
v 0.5 1.3 0
v 0.5 1.3 -0.1
v 0.5 1.3 -0.3
v 0.5 1.3 -0.4
v 0.5 1.4 0.2
v 0.5 1.4 0
v 0.5 1.5 0.4
v 0.5 1.5 0.3
v 0.6 0.3 0.6
v 0.6 0.3 0.4
v 0.6 0.3 -0.2
v 0.6 0.3 -0.4
v 0.6 0.4 0.6
v 0.6 0.4 0.5
v 0.6 0.4 0.4
v 0.6 0.4 -0.1
v 0.6 0.4 -0.2
v 0.6 0.4 -0.3
v 0.6 0.4 -0.4
v 0.6 0.5 0.6
v 0.6 0.5 0.5
v 0.6 0.5 0.3
v 0.6 0.5 -0.1
v 0.6 0.5 -0.2
v 0.6 0.5 -0.3
v 0.6 0.5 -0.4
v 0.6 0.6 0.3
v 0.6 0.6 0.2
v 0.6 0.6 -0.2
v 0.6 0.6 -0.3
v 0.6 0.6 -0.4
v 0.6 0.7 -0.1
v 0.6 0.7 -0.2
v 0.6 0.8 0.2
v 0.6 0.8 0.1
v 0.6 0.8 0
v 0.6 0.8 -0.1
v 0.6 0.8 -0.2
v 0.6 0.9 0.4
v 0.6 0.9 0.3
v 0.6 0.9 0.1
v 0.6 0.9 0
v 0.6 0.9 -0.4
v 0.6 1 0.4
v 0.6 1 0.3
v 0.6 1.3 0.1
v 0.6 1.3 0
v 0.7 0.3 0.4
v 0.7 0.3 0.3
v 0.7 0.3 -0.2
v 0.7 0.4 0.4
v 0.7 0.4 0.3
v 0.7 0.4 -0.1
v 0.7 0.4 -0.2
v 0.7 0.5 0.4
v 0.7 0.5 -0.1
v 0.7 0.7 -0.1
v 0.7 0.7 -0.2
v 0.7 0.8 0.1
v 0.7 0.8 0
v 0.7 0.8 -0.1
v 0.7 0.8 -0.2
v 0.7 0.9 0.1
v 0.7 0.9 0
v -0.4 0.3 0.9
v -0.4 0.4 0.9
v -0.4 0.5 0.9
v -0.4 0.6 0.9
v -0.4 2.2 0.9
v -0.4 2.3 0.9
v -0.4 2.4 0.9
v -0.3 0.3 0.9
v -0.3 0.4 0.9
v -0.3 0.5 0.9
v -0.3 0.6 0.9
v -0.3 0.9 0.9
v -0.3 1.3 0.9
v -0.3 1.5 0.9
v -0.3 1.7 0.9
v -0.3 2 0.9
v -0.3 2.1 0.9
v -0.3 2.2 0.9
v -0.3 2.3 0.9
v -0.3 2.4 0.9
v -0.2 0.9 0.9
v -0.2 1.3 0.9
v -0.2 1.5 0.9
v -0.2 1.7 0.9
v -0.2 1.8 0.9
v -0.2 2 0.9
v -0.2 2.1 0.9
v -0.2 2.2 0.9
v -0.2 2.3 0.9
v -0.1 0.8 0.9
v -0.1 1 0.9
v -0.1 1.1 0.9
v -0.1 1.2 0.9
v -0.1 1.3 0.9
v -0.1 1.4 0.9
v -0.1 1.7 0.9
v -0.1 1.8 0.9
v 0 0.3 0.9
v 0 0.4 0.9
v 0 0.5 0.9
v 0 0.6 0.9
v 0 0.8 0.9
v 0 0.9 0.9
v 0 1 0.9
v 0 1.1 0.9
v 0 1.2 0.9
v 0 1.3 0.9
v 0 1.4 0.9
v 0.1 0.4 0.9
v 0.1 0.5 0.9
v 0.1 0.6 0.9
v 0.1 0.9 0.9
v -0.6 0.3 0.8
v -0.6 0.4 0.8
v -0.6 0.5 0.8
v -0.6 0.6 0.8
v -0.6 2.2 0.8
v -0.6 2.3 0.8
v -0.4 0.3 0.8
v -0.4 0.4 0.8
v -0.4 0.5 0.8
v -0.4 0.6 0.8
v -0.4 2.2 0.8
v -0.4 2.3 0.8
v -0.3 1.5 0.8
v -0.3 1.7 0.8
v -0.3 2 0.8
v -0.3 2.1 0.8
v -0.3 2.3 0.8
v -0.3 2.4 0.8
v -0.2 1.3 0.8
v -0.2 1.5 0.8
v -0.2 1.7 0.8
v -0.2 1.8 0.8
v -0.2 2 0.8
v -0.2 2.1 0.8
v -0.2 2.3 0.8
v -0.2 2.4 0.8
v -0.1 1 0.8
v -0.1 1.1 0.8
v -0.1 1.3 0.8
v -0.1 1.4 0.8
v -0.1 1.8 0.8
v -0.1 2.1 0.8
v 0 0.3 0.8
v 0 0.4 0.8
v 0 0.9 0.8
v 0 1 0.8
v 0 1.1 0.8
v 0 1.2 0.8
v 0 1.3 0.8
v 0 1.4 0.8
v 0 1.5 0.8
v 0.1 0.3 0.8
v 0.1 0.4 0.8
v 0.1 0.5 0.8
v 0.1 0.6 0.8
v 0.1 0.9 0.8
v 0.1 1.2 0.8
v 0.1 1.3 0.8
v 0.2 0.3 0.8
v 0.2 0.4 0.8
v 0.2 0.5 0.8
v 0.2 0.6 0.8
v 0.2 1 0.8
v 0.2 1.2 0.8
v 0.3 0.6 0.8
v 0.3 1 0.8
v -0.8 0.3 0.7
v -0.8 0.4 0.7
v -0.8 0.5 0.7
v -0.8 0.6 0.7
v -0.8 2.2 0.7
v -0.8 2.3 0.7
v -0.8 2.4 0.7
v -0.8 2.5 0.7
v -0.6 0.3 0.7
v -0.6 0.4 0.7
v -0.6 0.5 0.7
v -0.6 0.6 0.7
v -0.6 2.2 0.7
v -0.6 2.3 0.7
v -0.6 2.4 0.7
v -0.6 2.5 0.7
v -0.4 2.3 0.7
v -0.4 2.4 0.7
v -0.2 1.5 0.7
v -0.2 1.8 0.7
v -0.2 2.1 0.7
v -0.2 2.2 0.7
v -0.2 2.3 0.7
v -0.2 2.4 0.7
v -0.1 1.8 0.7
v -0.1 1.9 0.7
v -0.1 2.1 0.7
v -0.1 2.2 0.7
v -0.1 2.3 0.7
v -0.1 2.4 0.7
v 0 1.3 0.7
v 0 1.5 0.7
v 0 1.9 0.7
v 0.1 1.2 0.7
v 0.1 1.3 0.7
v 0.2 0.3 0.7
v 0.2 0.4 0.7
v 0.2 0.5 0.7
v 0.2 0.6 0.7
v 0.2 1 0.7
v 0.2 1.2 0.7
v 0.2 1.3 0.7
v 0.2 1.4 0.7
v 0.3 0.6 0.7
v 0.3 1 0.7
v 0.3 1.2 0.7
v 0.3 1.3 0.7
v 0.3 1.4 0.7
v 0.3 1.5 0.7
v 0.4 0.5 0.7
v 0.4 0.6 0.7
v 0.4 0.8 0.7
v 0.4 1.1 0.7
v 0.4 1.2 0.7
v 0.5 0.3 0.7
v 0.5 0.4 0.7
v 0.5 0.5 0.7
v 0.5 0.8 0.7
v 0.5 1.1 0.7
v -0.9 0.3 0.6
v -0.9 0.4 0.6
v -0.9 0.5 0.6
v -0.9 0.6 0.6
v -0.9 2.2 0.6
v -0.9 2.3 0.6
v -0.9 2.4 0.6
v -0.9 2.5 0.6
v -0.8 0.3 0.6
v -0.8 0.4 0.6
v -0.8 0.5 0.6
v -0.8 0.6 0.6
v -0.8 2.2 0.6
v -0.8 2.3 0.6
v -0.8 2.4 0.6
v -0.8 2.5 0.6
v -0.6 2.4 0.6
v -0.6 2.5 0.6
v -0.5 2.4 0.6
v -0.5 2.5 0.6
v -0.1 1.9 0.6
v -0.1 2 0.6
v -0.1 2.1 0.6
v -0.1 2.2 0.6
v -0.1 2.3 0.6
v 0 1.5 0.6
v 0 1.6 0.6
v 0 1.9 0.6
v 0 2 0.6
v 0 2.1 0.6
v 0 2.2 0.6
v 0 2.3 0.6
v 0.1 1.5 0.6
v 0.1 1.6 0.6
v 0.2 1.3 0.6
v 0.2 1.4 0.6
v 0.3 1.2 0.6
v 0.3 1.3 0.6
v 0.3 1.4 0.6
v 0.3 1.5 0.6
v 0.3 1.6 0.6
v 0.4 1.1 0.6
v 0.4 1.2 0.6
v 0.4 1.6 0.6
v 0.5 0.3 0.6
v 0.5 0.4 0.6
v 0.5 0.5 0.6
v 0.5 1.1 0.6
v 0.5 1.2 0.6
v 0.6 0.3 0.6
v 0.6 0.4 0.6
v 0.6 0.5 0.6
v -0.7 0 0.5
v -0.7 0.1 0.5
v -0.7 0.3 0.5
v -0.5 0 0.5
v -0.5 0.1 0.5
v -0.5 0.3 0.5
v -0.4 2.4 0.5
v -0.4 2.5 0.5
v -0.3 2.3 0.5
v -0.3 2.4 0.5
v -0.3 2.5 0.5
v -0.2 2.3 0.5
v -0.2 2.4 0.5
v -0.1 2 0.5
v -0.1 2.1 0.5
v 0 1.6 0.5
v 0 1.8 0.5
v 0 1.9 0.5
v 0 2 0.5
v 0 2.1 0.5
v 0.1 1.5 0.5
v 0.1 1.6 0.5
v 0.1 1.7 0.5
v 0.1 1.8 0.5
v 0.1 1.9 0.5
v 0.1 2 0.5
v 0.2 1.6 0.5
v 0.2 1.7 0.5
v 0.3 0 0.5
v 0.3 0.1 0.5
v 0.3 0.3 0.5
v 0.3 1.5 0.5
v 0.3 1.6 0.5
v 0.5 0 0.5
v 0.5 0.1 0.5
v 0.5 0.3 0.5
v -1 0.3 0.4
v -1 0.4 0.4
v -1 0.5 0.4
v -1 0.6 0.4
v -1 2.2 0.4
v -1 2.3 0.4
v -1 2.4 0.4
v -1 2.5 0.4
v -0.9 0.3 0.4
v -0.9 0.4 0.4
v -0.9 0.5 0.4
v -0.9 0.6 0.4
v -0.9 2.2 0.4
v -0.9 2.3 0.4
v -0.9 2.4 0.4
v -0.9 2.5 0.4
v -0.8 2.4 0.4
v -0.8 2.5 0.4
v -0.7 2.4 0.4
v -0.7 2.5 0.4
v -0.6 2.4 0.4
v -0.6 2.5 0.4
v -0.4 2.4 0.4
v -0.4 2.5 0.4
v -0.1 2.2 0.4
v -0.1 2.3 0.4
v -0.1 2.4 0.4
v 0 2 0.4
v 0 2.1 0.4
v 0 2.2 0.4
v 0 2.3 0.4
v 0 2.4 0.4
v 0.1 2 0.4
v 0.1 2.1 0.4
v 0.3 1.5 0.4
v 0.3 1.6 0.4
v 0.4 0.5 0.4
v 0.4 0.6 0.4
v 0.4 0.8 0.4
v 0.4 0.9 0.4
v 0.4 1.1 0.4
v 0.4 1.2 0.4
v 0.4 1.5 0.4
v 0.4 1.6 0.4
v 0.5 0.4 0.4
v 0.5 0.5 0.4
v 0.5 0.6 0.4
v 0.5 0.8 0.4
v 0.5 0.9 0.4
v 0.5 1 0.4
v 0.5 1.1 0.4
v 0.5 1.2 0.4
v 0.5 1.5 0.4
v 0.6 0.3 0.4
v 0.6 0.4 0.4
v 0.6 0.9 0.4
v 0.6 1 0.4
v 0.7 0.3 0.4
v 0.7 0.4 0.4
v 0.7 0.5 0.4
v 0 2.1 0.3
v 0 2.2 0.3
v 0.1 2.1 0.3
v 0.1 2.2 0.3
v 0.5 0.5 0.3
v 0.5 0.6 0.3
v 0.6 0.5 0.3
v 0.6 0.6 0.3
v 0.2 1.6 0.2
v 0.2 1.7 0.2
v 0.3 1.6 0.2
v 0.3 1.7 0.2
v 0.4 1.2 0.2
v 0.4 1.4 0.2
v 0.5 0.6 0.2
v 0.5 0.8 0.2
v 0.5 1.2 0.2
v 0.5 1.4 0.2
v 0.6 0.6 0.2
v 0.6 0.8 0.2
v 0 1.8 0.1
v 0 1.9 0.1
v 0.1 1.7 0.1
v 0.1 1.8 0.1
v 0.1 1.9 0.1
v 0.2 1.7 0.1
v 0.2 1.8 0.1
v 0.5 0.8 0.1
v 0.5 1.3 0.1
v 0.6 0.8 0.1
v 0.6 0.9 0.1
v 0.6 1.3 0.1
v 0.7 0.8 0.1
v 0.7 0.9 0.1
v -0.8 2.3 0
v -0.8 2.4 0
v -0.6 2.3 0
v -0.6 2.4 0
v 0 2 0
v 0 2.1 0
v 0.1 1.8 0
v 0.1 1.9 0
v 0.1 2 0
v 0.1 2.1 0
v 0.2 1.7 0
v 0.2 1.8 0
v 0.2 1.9 0
v 0.3 1.7 0
v 0.3 1.8 0
v -0.9 2.3 -0.1
v -0.9 2.4 -0.1
v -0.8 2.3 -0.1
v -0.8 2.4 -0.1
v -0.7 0 -0.1
v -0.7 0.1 -0.1
v -0.7 0.3 -0.1
v -0.5 0 -0.1
v -0.5 0.1 -0.1
v -0.5 0.3 -0.1
v -0.3 2.2 -0.1
v -0.3 2.3 -0.1
v -0.1 2.1 -0.1
v -0.1 2.2 -0.1
v -0.1 2.3 -0.1
v 0 2.1 -0.1
v 0 2.2 -0.1
v 0.1 1.9 -0.1
v 0.1 2 -0.1
v 0.2 1.9 -0.1
v 0.2 2 -0.1
v 0.3 0 -0.1
v 0.3 0.1 -0.1
v 0.3 0.3 -0.1
v 0.3 1.4 -0.1
v 0.3 1.5 -0.1
v 0.4 1.4 -0.1
v 0.4 1.5 -0.1
v 0.5 0 -0.1
v 0.5 0.1 -0.1
v 0.5 0.3 -0.1
v 0.6 0.7 -0.1
v 0.6 0.8 -0.1
v 0.7 0.7 -0.1
v 0.7 0.8 -0.1
v -0.9 2.4 -0.2
v -0.9 2.5 -0.2
v -0.8 2.3 -0.2
v -0.8 2.4 -0.2
v -0.8 2.5 -0.2
v -0.7 2.3 -0.2
v -0.7 2.4 -0.2
v -0.7 2.5 -0.2
v 0.2 1.7 -0.2
v 0.2 1.8 -0.2
v 0.3 1.7 -0.2
v 0.3 1.8 -0.2
v -0.5 2.2 -0.3
v -0.5 2.3 -0.3
v -0.5 2.4 -0.3
v -0.3 2.3 -0.3
v -0.3 2.4 -0.3
v -0.2 2.2 -0.3
v -0.2 2.3 -0.3
v 0.3 1.3 -0.3
v 0.3 1.7 -0.3
v 0.4 1.2 -0.3
v 0.4 1.3 -0.3
v 0.4 1.7 -0.3
v 0.5 0.4 -0.3
v 0.5 0.5 -0.3
v 0.5 0.6 -0.3
v 0.5 1.2 -0.3
v 0.5 1.3 -0.3
v 0.6 0.4 -0.3
v 0.6 0.5 -0.3
v 0.6 0.6 -0.3
v -0.7 2.3 -0.4
v -0.7 2.4 -0.4
v -0.6 2.3 -0.4
v -0.6 2.4 -0.4
v -0.1 2.1 -0.4
v -0.1 2.2 -0.4
v 0 2 -0.4
v 0 2.1 -0.4
v 0 2.2 -0.4
v 0.1 2 -0.4
v 0.1 2.1 -0.4
v -0.6 2.3 -0.5
v -0.6 2.4 -0.5
v -0.5 2.3 -0.5
v -0.5 2.4 -0.5
v -0.5 2.5 -0.5
v -0.4 2.4 -0.5
v -0.4 2.5 -0.5
v -0.2 1.7 0.8
v -0.2 1.8 0.8
v -0.1 1.7 0.8
v -0.1 1.8 0.8
v -0.7 2.4 0.6
v -0.7 2.5 0.6
v -0.6 2.4 0.6
v -0.6 2.5 0.6
v -0.3 2.3 0.6
v -0.3 2.4 0.6
v -0.2 2.3 0.6
v -0.2 2.4 0.6
v 0.4 0.9 0.6
v 0.4 1 0.6
v 0.5 0.9 0.6
v 0.5 1 0.6
v -0.8 2.4 0.5
v -0.8 2.5 0.5
v -0.7 2.4 0.5
v -0.7 2.5 0.5
v -0.6 2.4 0.5
v -0.6 2.5 0.5
v -0.5 2.4 0.5
v -0.5 2.5 0.5
v -0.1 2.2 0.5
v -0.1 2.3 0.5
v 0 2.2 0.5
v 0 2.3 0.5
v 0.3 1.5 0.5
v 0.3 1.6 0.5
v 0.4 1 0.5
v 0.4 1.1 0.5
v 0.4 1.5 0.5
v 0.4 1.6 0.5
v 0.5 0.4 0.5
v 0.5 0.5 0.5
v 0.5 1 0.5
v 0.5 1.1 0.5
v 0.6 0.4 0.5
v 0.6 0.5 0.5
v -0.9 2.4 0.4
v -0.9 2.5 0.4
v -0.8 2.4 0.4
v -0.8 2.5 0.4
v -0.4 2.4 0.4
v -0.4 2.5 0.4
v -0.3 2.4 0.4
v -0.3 2.5 0.4
v -0.7 0 0.3
v -0.7 0.1 0.3
v -0.7 0.3 0.3
v -0.5 0 0.3
v -0.5 0.1 0.3
v -0.5 0.3 0.3
v -0.3 2.3 0.3
v -0.3 2.4 0.3
v -0.1 2.2 0.3
v -0.1 2.3 0.3
v 0 2.2 0.3
v 0 2.3 0.3
v 0 2.4 0.3
v 0.3 0 0.3
v 0.3 0.1 0.3
v 0.3 0.3 0.3
v 0.3 1.5 0.3
v 0.3 1.6 0.3
v 0.4 1.2 0.3
v 0.4 1.5 0.3
v 0.4 1.6 0.3
v 0.5 0 0.3
v 0.5 0.1 0.3
v 0.5 0.3 0.3
v 0.5 0.9 0.3
v 0.5 1 0.3
v 0.5 1.2 0.3
v 0.5 1.5 0.3
v 0.6 0.9 0.3
v 0.6 1 0.3
v -0.8 2.4 0.2
v -0.8 2.5 0.2
v -0.7 2.4 0.2
v -0.7 2.5 0.2
v -0.6 2.4 0.2
v -0.6 2.5 0.2
v -0.5 2.3 0.2
v -0.5 2.4 0.2
v -0.4 2.4 0.2
v -0.4 2.5 0.2
v -0.3 2.3 0.2
v -0.3 2.4 0.2
v 0 2.1 0.2
v 0 2.2 0.2
v 0.1 2.1 0.2
v 0.1 2.2 0.2
v -0.8 2.3 0.1
v -0.8 2.4 0.1
v -0.6 2.3 0.1
v -0.6 2.4 0.1
v -0.2 2.2 0.1
v -0.2 2.3 0.1
v -0.1 2.2 0.1
v -0.1 2.3 0.1
v 0 2 0.1
v 0 2.1 0.1
v 0.1 2 0.1
v 0.1 2.1 0.1
v -1 2.4 0
v -1 2.5 0
v -0.9 2.3 0
v -0.9 2.4 0
v -0.9 2.5 0
v -0.8 2.3 0
v -0.8 2.4 0
v -0.6 2.3 0
v -0.6 2.4 0
v -0.5 2.3 0
v -0.5 2.4 0
v -0.3 2.2 0
v -0.3 2.3 0
v -0.2 2.2 0
v -0.2 2.3 0
v -0.1 2.1 0
v -0.1 2.2 0
v 0 2.1 0
v 0 2.2 0
v 0.3 1.4 0
v 0.3 1.5 0
v 0.4 1.3 0
v 0.4 1.4 0
v 0.4 1.5 0
v 0.5 0.9 0
v 0.5 1.3 0
v 0.5 1.4 0
v 0.6 0.8 0
v 0.6 0.9 0
v 0.6 1.3 0
v 0.7 0.8 0
v 0.7 0.9 0
v -0.8 2.3 -0.1
v -0.8 2.4 -0.1
v -0.6 2.3 -0.1
v -0.6 2.4 -0.1
v -0.4 2.2 -0.1
v -0.4 2.3 -0.1
v -0.3 2.2 -0.1
v -0.3 2.3 -0.1
v 0.2 1.7 -0.1
v 0.2 1.8 -0.1
v 0.3 1.7 -0.1
v 0.3 1.8 -0.1
v 0.4 1.2 -0.1
v 0.4 1.3 -0.1
v 0.5 1.2 -0.1
v 0.5 1.3 -0.1
v 0.6 0.4 -0.1
v 0.6 0.5 -0.1
v 0.7 0.4 -0.1
v 0.7 0.5 -0.1
v -1 0.3 -0.2
v -1 0.4 -0.2
v -1 0.5 -0.2
v -1 0.6 -0.2
v -1 2.2 -0.2
v -1 2.3 -0.2
v -1 2.4 -0.2
v -0.9 0.3 -0.2
v -0.9 0.4 -0.2
v -0.9 0.5 -0.2
v -0.9 0.6 -0.2
v -0.9 2.2 -0.2
v -0.9 2.3 -0.2
v -0.9 2.4 -0.2
v -0.5 2.2 -0.2
v -0.5 2.3 -0.2
v -0.4 2.2 -0.2
v -0.4 2.3 -0.2
v -0.3 2.2 -0.2
v -0.3 2.3 -0.2
v -0.1 2.2 -0.2
v -0.1 2.3 -0.2
v 0.3 1.3 -0.2
v 0.3 1.5 -0.2
v 0.4 1.3 -0.2
v 0.4 1.5 -0.2
v 0.5 0.4 -0.2
v 0.5 0.5 -0.2
v 0.5 0.6 -0.2
v 0.6 0.3 -0.2
v 0.6 0.4 -0.2
v 0.6 0.5 -0.2
v 0.6 0.6 -0.2
v 0.6 0.7 -0.2
v 0.6 0.8 -0.2
v 0.7 0.3 -0.2
v 0.7 0.4 -0.2
v 0.7 0.7 -0.2
v 0.7 0.8 -0.2
v -0.8 2.4 -0.3
v -0.8 2.5 -0.3
v -0.7 0 -0.3
v -0.7 0.1 -0.3
v -0.7 0.3 -0.3
v -0.7 2.4 -0.3
v -0.7 2.5 -0.3
v -0.6 0.3 -0.3
v -0.5 0 -0.3
v -0.5 0.1 -0.3
v -0.5 0.3 -0.3
v -0.1 2.1 -0.3
v -0.1 2.2 -0.3
v 0 2 -0.3
v 0 2.1 -0.3
v 0 2.2 -0.3
v 0.1 1.9 -0.3
v 0.1 2 -0.3
v 0.1 2.1 -0.3
v 0.2 1.9 -0.3
v 0.2 2 -0.3
v 0.3 0 -0.3
v 0.3 0.1 -0.3
v 0.3 0.3 -0.3
v 0.4 1.1 -0.3
v 0.4 1.2 -0.3
v 0.5 0 -0.3
v 0.5 0.1 -0.3
v 0.5 0.3 -0.3
v 0.5 1.1 -0.3
v 0.5 1.2 -0.3
v -0.9 0.3 -0.4
v -0.9 0.4 -0.4
v -0.9 0.5 -0.4
v -0.9 0.6 -0.4
v -0.9 2.2 -0.4
v -0.9 2.3 -0.4
v -0.9 2.4 -0.4
v -0.9 2.5 -0.4
v -0.8 0.3 -0.4
v -0.8 0.4 -0.4
v -0.8 0.5 -0.4
v -0.8 0.6 -0.4
v -0.8 2.2 -0.4
v -0.8 2.3 -0.4
v -0.8 2.4 -0.4
v -0.8 2.5 -0.4
v -0.5 2.3 -0.4
v -0.5 2.4 -0.4
v -0.3 2.3 -0.4
v -0.3 2.4 -0.4
v 0.2 1.7 -0.4
v 0.2 1.8 -0.4
v 0.3 0.9 -0.4
v 0.3 1.1 -0.4
v 0.3 1.2 -0.4
v 0.3 1.4 -0.4
v 0.3 1.5 -0.4
v 0.3 1.7 -0.4
v 0.3 1.8 -0.4
v 0.4 0.8 -0.4
v 0.4 0.9 -0.4
v 0.4 1 -0.4
v 0.4 1.1 -0.4
v 0.4 1.2 -0.4
v 0.4 1.3 -0.4
v 0.4 1.4 -0.4
v 0.4 1.5 -0.4
v 0.4 1.7 -0.4
v 0.5 0.3 -0.4
v 0.5 0.4 -0.4
v 0.5 0.5 -0.4
v 0.5 0.6 -0.4
v 0.5 0.8 -0.4
v 0.5 0.9 -0.4
v 0.5 1 -0.4
v 0.5 1.1 -0.4
v 0.5 1.2 -0.4
v 0.5 1.3 -0.4
v 0.6 0.3 -0.4
v 0.6 0.4 -0.4
v 0.6 0.5 -0.4
v 0.6 0.6 -0.4
v 0.6 0.9 -0.4
v -0.8 0.3 -0.5
v -0.8 0.4 -0.5
v -0.8 0.5 -0.5
v -0.8 0.6 -0.5
v -0.8 2.2 -0.5
v -0.8 2.3 -0.5
v -0.8 2.4 -0.5
v -0.6 0.3 -0.5
v -0.6 0.4 -0.5
v -0.6 0.5 -0.5
v -0.6 0.6 -0.5
v -0.6 2.2 -0.5
v -0.6 2.3 -0.5
v -0.6 2.4 -0.5
v -0.4 2.2 -0.5
v -0.4 2.3 -0.5
v -0.3 1.9 -0.5
v -0.3 2 -0.5
v -0.2 2.2 -0.5
v -0.2 2.3 -0.5
v -0.1 1.9 -0.5
v -0.1 2 -0.5
v -0.1 2.1 -0.5
v 0 1.9 -0.5
v 0 2 -0.5
v 0 2.1 -0.5
v 0.1 1.2 -0.5
v 0.1 1.3 -0.5
v 0.1 1.5 -0.5
v 0.1 1.6 -0.5
v 0.1 1.7 -0.5
v 0.1 1.9 -0.5
v 0.1 2.1 -0.5
v 0.2 0.9 -0.5
v 0.2 1.1 -0.5
v 0.2 1.3 -0.5
v 0.2 1.4 -0.5
v 0.2 1.6 -0.5
v 0.2 1.7 -0.5
v 0.2 1.9 -0.5
v 0.3 0.3 -0.5
v 0.3 0.4 -0.5
v 0.3 0.5 -0.5
v 0.3 0.6 -0.5
v 0.3 0.9 -0.5
v 0.3 1.1 -0.5
v 0.3 1.2 -0.5
v 0.3 1.4 -0.5
v 0.3 1.5 -0.5
v 0.3 1.7 -0.5
v 0.4 0.8 -0.5
v 0.4 0.9 -0.5
v 0.4 1 -0.5
v 0.4 1.1 -0.5
v 0.4 1.2 -0.5
v 0.4 1.4 -0.5
v 0.4 1.5 -0.5
v 0.5 0.3 -0.5
v 0.5 0.4 -0.5
v 0.5 0.5 -0.5
v 0.5 0.6 -0.5
v 0.5 0.8 -0.5
v 0.5 0.9 -0.5
v 0.5 1 -0.5
v -0.6 0.3 -0.6
v -0.6 0.4 -0.6
v -0.6 0.5 -0.6
v -0.6 0.6 -0.6
v -0.6 2.2 -0.6
v -0.6 2.3 -0.6
v -0.6 2.4 -0.6
v -0.5 2.3 -0.6
v -0.5 2.4 -0.6
v -0.5 2.5 -0.6
v -0.4 0.3 -0.6
v -0.4 0.4 -0.6
v -0.4 0.5 -0.6
v -0.4 0.6 -0.6
v -0.4 1 -0.6
v -0.4 1.1 -0.6
v -0.4 1.2 -0.6
v -0.4 1.4 -0.6
v -0.4 1.8 -0.6
v -0.4 2.1 -0.6
v -0.4 2.2 -0.6
v -0.4 2.3 -0.6
v -0.4 2.4 -0.6
v -0.4 2.5 -0.6
v -0.3 1 -0.6
v -0.3 1.1 -0.6
v -0.3 1.2 -0.6
v -0.3 1.3 -0.6
v -0.3 1.4 -0.6
v -0.3 1.8 -0.6
v -0.3 1.9 -0.6
v -0.3 2 -0.6
v -0.3 2.1 -0.6
v -0.2 1.1 -0.6
v -0.2 1.2 -0.6
v -0.2 1.3 -0.6
v -0.2 1.8 -0.6
v -0.2 2.1 -0.6
v -0.2 2.2 -0.6
v -0.1 1.3 -0.6
v -0.1 1.4 -0.6
v -0.1 1.5 -0.6
v -0.1 1.9 -0.6
v -0.1 2 -0.6
v -0.1 2.1 -0.6
v 0 1.1 -0.6
v 0 1.2 -0.6
v 0 1.3 -0.6
v 0 1.4 -0.6
v 0 1.5 -0.6
v 0 1.6 -0.6
v 0 1.7 -0.6
v 0 1.8 -0.6
v 0 1.9 -0.6
v 0 2 -0.6
v 0 2.1 -0.6
v 0 2.2 -0.6
v 0.1 0.3 -0.6
v 0.1 0.4 -0.6
v 0.1 0.5 -0.6
v 0.1 0.6 -0.6
v 0.1 1.1 -0.6
v 0.1 1.2 -0.6
v 0.1 1.3 -0.6
v 0.1 1.5 -0.6
v 0.1 1.6 -0.6
v 0.1 1.7 -0.6
v 0.1 1.9 -0.6
v 0.2 0.3 -0.6
v 0.2 0.4 -0.6
v 0.2 0.5 -0.6
v 0.2 0.6 -0.6
v 0.2 0.9 -0.6
v 0.2 1.1 -0.6
v 0.2 1.3 -0.6
v 0.2 1.4 -0.6
v 0.2 1.6 -0.6
v 0.2 1.7 -0.6
v 0.3 0.3 -0.6
v 0.3 0.4 -0.6
v 0.3 0.5 -0.6
v 0.3 0.6 -0.6
v 0.3 0.9 -0.6
v 0.3 1.1 -0.6
v 0.3 1.2 -0.6
v 0.3 1.4 -0.6
v 0.3 1.5 -0.6
v -0.4 0.3 -0.7
v -0.4 0.4 -0.7
v -0.4 0.5 -0.7
v -0.4 0.6 -0.7
v -0.4 1 -0.7
v -0.4 1.1 -0.7
v -0.4 1.2 -0.7
v -0.4 1.4 -0.7
v -0.4 1.8 -0.7
v -0.4 2.1 -0.7
v -0.4 2.2 -0.7
v -0.3 0.3 -0.7
v -0.3 0.4 -0.7
v -0.3 0.5 -0.7
v -0.3 0.6 -0.7
v -0.3 1 -0.7
v -0.3 1.1 -0.7
v -0.3 1.2 -0.7
v -0.3 1.3 -0.7
v -0.3 1.4 -0.7
v -0.3 1.6 -0.7
v -0.3 1.8 -0.7
v -0.3 2.1 -0.7
v -0.3 2.2 -0.7
v -0.2 0.8 -0.7
v -0.2 1 -0.7
v -0.2 1.1 -0.7
v -0.2 1.2 -0.7
v -0.2 1.3 -0.7
v -0.2 1.5 -0.7
v -0.2 1.6 -0.7
v -0.2 1.7 -0.7
v -0.2 1.8 -0.7
v -0.2 2.1 -0.7
v -0.2 2.2 -0.7
v -0.1 0.8 -0.7
v -0.1 0.9 -0.7
v -0.1 1.3 -0.7
v -0.1 1.4 -0.7
v -0.1 1.5 -0.7
v -0.1 1.6 -0.7
v 0 0.3 -0.7
v 0 0.4 -0.7
v 0 0.5 -0.7
v 0 0.6 -0.7
v 0 0.9 -0.7
v 0 1.1 -0.7
v 0 1.2 -0.7
v 0 1.3 -0.7
v 0 1.4 -0.7
v 0 1.5 -0.7
v 0 1.6 -0.7
v 0 1.7 -0.7
v 0 1.8 -0.7
v 0.1 0.3 -0.7
v 0.1 0.4 -0.7
v 0.1 0.5 -0.7
v 0.1 0.6 -0.7
v 0.1 1.1 -0.7
v -0.7 0 0.5
v -0.5 0 0.5
v 0.3 0 0.5
v 0.5 0 0.5
v -0.7 0 0.3
v -0.5 0 0.3
v 0.3 0 0.3
v 0.5 0 0.3
v -0.7 0 -0.1
v -0.5 0 -0.1
v 0.3 0 -0.1
v 0.5 0 -0.1
v -0.7 0 -0.3
v -0.5 0 -0.3
v 0.3 0 -0.3
v 0.5 0 -0.3
v -0.4 0.3 0.9
v -0.3 0.3 0.9
v 0 0.3 0.9
v -0.6 0.3 0.8
v -0.4 0.3 0.8
v -0.3 0.3 0.8
v 0 0.3 0.8
v 0.1 0.3 0.8
v 0.2 0.3 0.8
v -0.8 0.3 0.7
v -0.6 0.3 0.7
v -0.4 0.3 0.7
v 0.2 0.3 0.7
v 0.5 0.3 0.7
v -0.9 0.3 0.6
v -0.8 0.3 0.6
v -0.6 0.3 0.6
v 0.1 0.3 0.6
v 0.5 0.3 0.6
v 0.6 0.3 0.6
v -0.7 0.3 0.5
v -0.5 0.3 0.5
v 0.3 0.3 0.5
v 0.5 0.3 0.5
v -1 0.3 0.4
v -0.9 0.3 0.4
v -0.8 0.3 0.4
v 0.5 0.3 0.4
v 0.6 0.3 0.4
v 0.7 0.3 0.4
v -0.7 0.3 0.3
v -0.5 0.3 0.3
v 0.3 0.3 0.3
v 0.5 0.3 0.3
v 0.6 0.3 0.3
v 0.7 0.3 0.3
v -1 0.3 0.1
v -0.9 0.3 0.1
v -0.7 0.3 -0.1
v -0.5 0.3 -0.1
v 0.3 0.3 -0.1
v 0.5 0.3 -0.1
v -1 0.3 -0.2
v -0.9 0.3 -0.2
v -0.8 0.3 -0.2
v 0.5 0.3 -0.2
v 0.6 0.3 -0.2
v 0.7 0.3 -0.2
v -0.9 0.3 -0.3
v -0.8 0.3 -0.3
v -0.7 0.3 -0.3
v -0.6 0.3 -0.3
v -0.5 0.3 -0.3
v 0.3 0.3 -0.3
v 0.5 0.3 -0.3
v -0.9 0.3 -0.4
v -0.8 0.3 -0.4
v 0.2 0.3 -0.4
v 0.5 0.3 -0.4
v 0.6 0.3 -0.4
v -0.8 0.3 -0.5
v -0.6 0.3 -0.5
v -0.4 0.3 -0.5
v 0.1 0.3 -0.5
v 0.2 0.3 -0.5
v 0.3 0.3 -0.5
v 0.5 0.3 -0.5
v -0.6 0.3 -0.6
v -0.4 0.3 -0.6
v -0.3 0.3 -0.6
v 0 0.3 -0.6
v 0.1 0.3 -0.6
v 0.2 0.3 -0.6
v 0.3 0.3 -0.6
v -0.4 0.3 -0.7
v -0.3 0.3 -0.7
v 0 0.3 -0.7
v 0.1 0.3 -0.7
v 0 0.4 0.9
v 0.1 0.4 0.9
v 0 0.4 0.8
v 0.1 0.4 0.8
v 0.2 0.6 0.8
v 0.3 0.6 0.8
v 0.2 0.6 0.7
v 0.3 0.6 0.7
v 0.5 0.6 -0.2
v 0.6 0.6 -0.2
v 0.5 0.6 -0.3
v 0.6 0.6 -0.3
v 0.6 0.7 -0.1
v 0.7 0.7 -0.1
v 0.6 0.7 -0.2
v 0.7 0.7 -0.2
v 0.4 0.8 0.7
v 0.5 0.8 0.7
v 0.4 0.8 0.4
v 0.5 0.8 0.4
v 0.6 0.8 0.1
v 0.7 0.8 0.1
v 0.6 0.8 0
v 0.7 0.8 0
v 0.5 0.9 0.4
v 0.6 0.9 0.4
v 0.5 0.9 0.3
v 0.6 0.9 0.3
v 0.4 0.9 -0.4
v 0.5 0.9 -0.4
v 0.4 0.9 -0.5
v 0.5 0.9 -0.5
v 0.4 1 0.6
v 0.5 1 0.6
v 0.4 1 0.5
v 0.5 1 0.5
v -0.1 1.1 0.9
v 0 1.1 0.9
v -0.1 1.1 0.8
v 0 1.1 0.8
v 0.4 1.1 0.5
v 0.5 1.1 0.5
v 0.4 1.1 0.4
v 0.5 1.1 0.4
v 0.3 1.1 -0.4
v 0.4 1.1 -0.4
v 0.2 1.1 -0.5
v 0.3 1.1 -0.5
v 0.4 1.1 -0.5
v -0.4 1.1 -0.6
v -0.3 1.1 -0.6
v 0.2 1.1 -0.6
v 0.3 1.1 -0.6
v -0.4 1.1 -0.7
v -0.3 1.1 -0.7
v 0.4 1.2 -0.3
v 0.5 1.2 -0.3
v 0.4 1.2 -0.4
v 0.5 1.2 -0.4
v -0.3 1.2 -0.6
v -0.2 1.2 -0.6
v -0.3 1.2 -0.7
v -0.2 1.2 -0.7
v 0.1 1.3 -0.5
v 0.2 1.3 -0.5
v -0.1 1.3 -0.6
v 0 1.3 -0.6
v 0.1 1.3 -0.6
v 0.2 1.3 -0.6
v -0.1 1.3 -0.7
v 0 1.3 -0.7
v 0.2 1.4 0.7
v 0.3 1.4 0.7
v 0.2 1.4 0.6
v 0.3 1.4 0.6
v 0.3 1.4 -0.4
v 0.4 1.4 -0.4
v 0.2 1.4 -0.5
v 0.3 1.4 -0.5
v 0.4 1.4 -0.5
v -0.4 1.4 -0.6
v -0.3 1.4 -0.6
v -0.1 1.4 -0.6
v 0.2 1.4 -0.6
v 0.3 1.4 -0.6
v -0.4 1.4 -0.7
v -0.3 1.4 -0.7
v -0.1 1.4 -0.7
v -0.1 1.5 -0.6
v 0 1.5 -0.6
v -0.1 1.5 -0.7
v 0 1.5 -0.7
v 0.1 1.6 -0.5
v 0.2 1.6 -0.5
v 0.1 1.6 -0.6
v 0.2 1.6 -0.6
v -0.3 1.7 0.9
v -0.2 1.7 0.9
v -0.1 1.7 0.9
v -0.3 1.7 0.8
v -0.2 1.7 0.8
v -0.1 1.7 0.8
v -0.2 1.8 0.8
v -0.1 1.8 0.8
v -0.2 1.8 0.7
v -0.1 1.8 0.7
v 0 1.9 0.5
v 0.1 1.9 0.5
v 0 1.9 0.1
v 0.1 1.9 0.1
v -0.3 2 -0.5
v -0.1 2 -0.5
v -0.3 2 -0.6
v -0.1 2 -0.6
v -0.3 2.1 0.9
v -0.2 2.1 0.9
v -0.3 2.1 0.8
v -0.2 2.1 0.8
v -0.1 2.1 0.6
v 0 2.1 0.6
v -0.1 2.1 0.5
v 0 2.1 0.5
v -0.1 2.1 -0.5
v 0 2.1 -0.5
v -0.4 2.1 -0.6
v -0.3 2.1 -0.6
v -0.2 2.1 -0.6
v -0.1 2.1 -0.6
v 0 2.1 -0.6
v -0.4 2.1 -0.7
v -0.3 2.1 -0.7
v -0.2 2.1 -0.7
v -0.5 2.4 -0.5
v -0.4 2.4 -0.5
v -0.5 2.4 -0.6
v -0.4 2.4 -0.6
v 0.5 0.4 0.5
v 0.6 0.4 0.5
v 0.5 0.4 0.4
v 0.6 0.4 0.4
v 0.6 0.4 -0.1
v 0.7 0.4 -0.1
v 0.5 0.4 -0.2
v 0.6 0.4 -0.2
v 0.7 0.4 -0.2
v 0.5 0.4 -0.3
v 0.6 0.4 -0.3
v 0.4 0.5 0.7
v 0.5 0.5 0.7
v 0.4 0.5 0.6
v 0.5 0.5 0.6
v 0.6 0.5 0.6
v 0.5 0.5 0.5
v 0.6 0.5 0.5
v 0.4 0.5 0.4
v 0.5 0.5 0.4
v 0.7 0.5 0.4
v 0.5 0.5 0.3
v 0.6 0.5 0.3
v 0.6 0.5 -0.1
v 0.7 0.5 -0.1
v 0.5 0.6 0.3
v 0.6 0.6 0.3
v 0.5 0.6 0.2
v 0.6 0.6 0.2
v 0.5 0.8 0.2
v 0.6 0.8 0.2
v 0.5 0.8 0.1
v 0.6 0.8 0.1
v 0.6 0.8 -0.1
v 0.7 0.8 -0.1
v 0.6 0.8 -0.2
v 0.7 0.8 -0.2
v 0.4 0.8 -0.4
v 0.5 0.8 -0.4
v 0.4 0.8 -0.5
v 0.5 0.8 -0.5
v 0 0.9 0.9
v 0.1 0.9 0.9
v 0 0.9 0.8
v 0.1 0.9 0.8
v 0.4 0.9 0.6
v 0.5 0.9 0.6
v 0.4 0.9 0.4
v 0.5 0.9 0.4
v 0.6 0.9 0.1
v 0.7 0.9 0.1
v 0.5 0.9 0
v 0.6 0.9 0
v 0.7 0.9 0
v 0.3 0.9 -0.4
v 0.4 0.9 -0.4
v 0.5 0.9 -0.4
v 0.6 0.9 -0.4
v 0.2 0.9 -0.5
v 0.3 0.9 -0.5
v 0.4 0.9 -0.5
v 0.2 0.9 -0.6
v 0.3 0.9 -0.6
v -0.1 1 0.9
v 0 1 0.9
v -0.1 1 0.8
v 0 1 0.8
v 0.2 1 0.8
v 0.3 1 0.8
v 0.2 1 0.7
v 0.3 1 0.7
v 0.5 1 0.4
v 0.6 1 0.4
v 0.5 1 0.3
v 0.6 1 0.3
v 0.4 1 -0.4
v 0.5 1 -0.4
v 0.4 1 -0.5
v 0.5 1 -0.5
v -0.4 1 -0.6
v -0.3 1 -0.6
v -0.4 1 -0.7
v -0.3 1 -0.7
v 0.4 1.1 0.7
v 0.5 1.1 0.7
v 0.4 1.1 0.6
v 0.5 1.1 0.6
v 0.4 1.1 -0.3
v 0.5 1.1 -0.3
v 0.4 1.1 -0.4
v 0.5 1.1 -0.4
v -0.3 1.1 -0.6
v -0.2 1.1 -0.6
v 0 1.1 -0.6
v 0.1 1.1 -0.6
v -0.3 1.1 -0.7
v -0.2 1.1 -0.7
v 0 1.1 -0.7
v 0.1 1.1 -0.7
v 0.1 1.2 0.8
v 0.2 1.2 0.8
v 0.1 1.2 0.7
v 0.2 1.2 0.7
v 0.3 1.2 0.7
v 0.4 1.2 0.7
v 0.3 1.2 0.6
v 0.4 1.2 0.6
v 0.5 1.2 0.6
v 0.4 1.2 0.4
v 0.5 1.2 0.4
v 0.4 1.2 0.3
v 0.5 1.2 0.3
v 0.4 1.2 0.2
v 0.5 1.2 0.2
v 0.4 1.2 -0.1
v 0.5 1.2 -0.1
v 0.4 1.2 -0.3
v 0.5 1.2 -0.3
v 0.3 1.2 -0.4
v 0.4 1.2 -0.4
v 0.1 1.2 -0.5
v 0.3 1.2 -0.5
v 0.4 1.2 -0.5
v -0.4 1.2 -0.6
v -0.3 1.2 -0.6
v -0.2 1.2 -0.6
v 0 1.2 -0.6
v 0.1 1.2 -0.6
v 0.3 1.2 -0.6
v -0.4 1.2 -0.7
v -0.3 1.2 -0.7
v -0.2 1.2 -0.7
v 0 1.2 -0.7
v -0.2 1.3 0.9
v -0.1 1.3 0.9
v -0.2 1.3 0.8
v -0.1 1.3 0.8
v 0 1.3 0.8
v 0.1 1.3 0.8
v 0 1.3 0.7
v 0.1 1.3 0.7
v 0.2 1.3 0.7
v 0.3 1.3 0.7
v 0.2 1.3 0.6
v 0.3 1.3 0.6
v 0.5 1.3 0.1
v 0.6 1.3 0.1
v 0.4 1.3 0
v 0.5 1.3 0
v 0.6 1.3 0
v 0.4 1.3 -0.1
v 0.5 1.3 -0.1
v 0.3 1.3 -0.2
v 0.4 1.3 -0.2
v 0.3 1.3 -0.3
v 0.4 1.3 -0.3
v 0.5 1.3 -0.3
v 0.4 1.3 -0.4
v 0.5 1.3 -0.4
v -0.3 1.3 -0.6
v -0.2 1.3 -0.6
v -0.3 1.3 -0.7
v -0.2 1.3 -0.7
v -0.1 1.4 0.9
v 0 1.4 0.9
v -0.1 1.4 0.8
v 0 1.4 0.8
v 0.4 1.4 0.2
v 0.5 1.4 0.2
v 0.3 1.4 0
v 0.4 1.4 0
v 0.5 1.4 0
v 0.3 1.4 -0.1
v 0.4 1.4 -0.1
v -0.1 1.4 -0.6
v 0 1.4 -0.6
v -0.1 1.4 -0.7
v 0 1.4 -0.7
v -0.3 1.5 0.9
v -0.2 1.5 0.9
v -0.3 1.5 0.8
v -0.2 1.5 0.8
v 0 1.5 0.8
v -0.2 1.5 0.7
v 0 1.5 0.7
v 0.3 1.5 0.7
v 0 1.5 0.6
v 0.1 1.5 0.6
v 0.3 1.5 0.6
v 0.1 1.5 0.5
v 0.3 1.5 0.5
v 0.4 1.5 0.5
v 0.3 1.5 0.4
v 0.4 1.5 0.4
v 0.5 1.5 0.4
v 0.3 1.5 0.3
v 0.4 1.5 0.3
v 0.5 1.5 0.3
v 0.3 1.5 0
v 0.4 1.5 0
v 0.3 1.5 -0.1
v 0.4 1.5 -0.1
v 0.3 1.5 -0.2
v 0.4 1.5 -0.2
v 0.3 1.5 -0.4
v 0.4 1.5 -0.4
v 0.1 1.5 -0.5
v 0.3 1.5 -0.5
v 0.4 1.5 -0.5
v 0.1 1.5 -0.6
v 0.3 1.5 -0.6
v 0 1.6 0.6
v 0.1 1.6 0.6
v 0.3 1.6 0.6
v 0.4 1.6 0.6
v 0 1.6 0.5
v 0.1 1.6 0.5
v 0.2 1.6 0.5
v 0.3 1.6 0.5
v 0.4 1.6 0.5
v 0.3 1.6 0.4
v 0.4 1.6 0.4
v 0.3 1.6 0.3
v 0.4 1.6 0.3
v 0.2 1.6 0.2
v 0.3 1.6 0.2
v 0.1 1.7 0.5
v 0.2 1.7 0.5
v 0.2 1.7 0.2
v 0.3 1.7 0.2
v 0.1 1.7 0.1
v 0.2 1.7 0.1
v 0.2 1.7 0
v 0.3 1.7 0
v 0.2 1.7 -0.1
v 0.3 1.7 -0.1
v 0.2 1.7 -0.2
v 0.3 1.7 -0.2
v 0.3 1.7 -0.3
v 0.4 1.7 -0.3
v 0.2 1.7 -0.4
v 0.3 1.7 -0.4
v 0.4 1.7 -0.4
v 0.1 1.7 -0.5
v 0.2 1.7 -0.5
v 0.3 1.7 -0.5
v 0.1 1.7 -0.6
v 0.2 1.7 -0.6
v -0.2 1.8 0.9
v -0.1 1.8 0.9
v -0.2 1.8 0.8
v -0.1 1.8 0.8
v 0 1.8 0.5
v 0.1 1.8 0.5
v 0 1.8 0.1
v 0.1 1.8 0.1
v 0.2 1.8 0.1
v 0.1 1.8 0
v 0.2 1.8 0
v 0.3 1.8 0
v 0.2 1.8 -0.1
v 0.3 1.8 -0.1
v 0.2 1.8 -0.2
v 0.3 1.8 -0.2
v 0.2 1.8 -0.4
v 0.3 1.8 -0.4
v -0.4 1.8 -0.6
v -0.3 1.8 -0.6
v -0.2 1.8 -0.6
v 0 1.8 -0.6
v -0.4 1.8 -0.7
v -0.3 1.8 -0.7
v -0.2 1.8 -0.7
v 0 1.8 -0.7
v -0.1 1.9 0.7
v 0 1.9 0.7
v -0.1 1.9 0.6
v 0 1.9 0.6
v 0.1 1.9 0
v 0.2 1.9 0
v 0.1 1.9 -0.1
v 0.2 1.9 -0.1
v 0.1 1.9 -0.3
v 0.2 1.9 -0.3
v -0.3 1.9 -0.5
v -0.1 1.9 -0.5
v 0 1.9 -0.5
v 0.1 1.9 -0.5
v 0.2 1.9 -0.5
v -0.3 1.9 -0.6
v -0.1 1.9 -0.6
v 0 1.9 -0.6
v 0.1 1.9 -0.6
v -0.3 2 0.9
v -0.2 2 0.9
v -0.3 2 0.8
v -0.2 2 0.8
v -0.1 2 0.6
v 0 2 0.6
v -0.1 2 0.5
v 0 2 0.5
v 0.1 2 0.5
v 0 2 0.4
v 0.1 2 0.4
v 0 2 0.1
v 0.1 2 0.1
v 0 2 0
v 0.1 2 0
v 0.1 2 -0.1
v 0.2 2 -0.1
v 0 2 -0.3
v 0.1 2 -0.3
v 0.2 2 -0.3
v 0 2 -0.4
v 0.1 2 -0.4
v -0.1 2 -0.5
v 0 2 -0.5
v -0.1 2 -0.6
v 0 2 -0.6
v -0.2 2.1 0.8
v -0.1 2.1 0.8
v -0.2 2.1 0.7
v -0.1 2.1 0.7
v 0 2.1 0.4
v 0.1 2.1 0.4
v 0 2.1 0.3
v 0.1 2.1 0.3
v 0 2.1 0.2
v 0.1 2.1 0.2
v 0 2.1 0.1
v 0.1 2.1 0.1
v -0.1 2.1 0
v 0 2.1 0
v 0.1 2.1 0
v -0.1 2.1 -0.1
v 0 2.1 -0.1
v -0.1 2.1 -0.3
v 0 2.1 -0.3
v 0.1 2.1 -0.3
v -0.1 2.1 -0.4
v 0 2.1 -0.4
v 0.1 2.1 -0.4
v 0 2.1 -0.5
v 0.1 2.1 -0.5
v -0.1 2.2 0.5
v 0 2.2 0.5
v -0.1 2.2 0.4
v 0 2.2 0.4
v -0.1 2.2 0.3
v 0 2.2 0.3
v 0.1 2.2 0.3
v 0 2.2 0.2
v 0.1 2.2 0.2
v -0.2 2.2 0.1
v -0.1 2.2 0.1
v -0.3 2.2 0
v -0.2 2.2 0
v -0.1 2.2 0
v 0 2.2 0
v -0.4 2.2 -0.1
v -0.3 2.2 -0.1
v -0.1 2.2 -0.1
v 0 2.2 -0.1
v -0.5 2.2 -0.2
v -0.4 2.2 -0.2
v -0.3 2.2 -0.2
v -0.1 2.2 -0.2
v -0.5 2.2 -0.3
v -0.2 2.2 -0.3
v -0.1 2.2 -0.3
v 0 2.2 -0.3
v -0.1 2.2 -0.4
v 0 2.2 -0.4
v -0.4 2.2 -0.5
v -0.2 2.2 -0.5
v -0.4 2.2 -0.6
v -0.3 2.2 -0.6
v -0.2 2.2 -0.6
v 0 2.2 -0.6
v -0.4 2.2 -0.7
v -0.3 2.2 -0.7
v -0.2 2.2 -0.7
v -0.3 2.3 0.9
v -0.2 2.3 0.9
v -0.6 2.3 0.8
v -0.4 2.3 0.8
v -0.3 2.3 0.8
v -0.2 2.3 0.8
v -0.6 2.3 0.7
v -0.4 2.3 0.7
v -0.3 2.3 0.6
v -0.2 2.3 0.6
v -0.1 2.3 0.6
v 0 2.3 0.6
v -0.3 2.3 0.5
v -0.2 2.3 0.5
v -0.1 2.3 0.5
v 0 2.3 0.5
v -0.3 2.3 0.3
v -0.1 2.3 0.3
v -0.5 2.3 0.2
v -0.3 2.3 0.2
v -0.8 2.3 0.1
v -0.6 2.3 0.1
v -0.2 2.3 0.1
v -0.1 2.3 0.1
v -0.9 2.3 0
v -0.8 2.3 0
v -0.6 2.3 0
v -0.5 2.3 0
v -0.3 2.3 0
v -0.2 2.3 0
v -0.9 2.3 -0.1
v -0.8 2.3 -0.1
v -0.6 2.3 -0.1
v -0.4 2.3 -0.1
v -0.3 2.3 -0.1
v -0.1 2.3 -0.1
v -0.8 2.3 -0.2
v -0.7 2.3 -0.2
v -0.5 2.3 -0.2
v -0.4 2.3 -0.2
v -0.3 2.3 -0.2
v -0.1 2.3 -0.2
v -0.7 2.3 -0.3
v -0.6 2.3 -0.3
v -0.5 2.3 -0.3
v -0.3 2.3 -0.3
v -0.2 2.3 -0.3
v -0.7 2.3 -0.4
v -0.6 2.3 -0.4
v -0.5 2.3 -0.4
v -0.3 2.3 -0.4
v -0.6 2.3 -0.5
v -0.5 2.3 -0.5
v -0.4 2.3 -0.5
v -0.2 2.3 -0.5
v -0.5 2.3 -0.6
v -0.4 2.3 -0.6
v -0.4 2.4 0.9
v -0.3 2.4 0.9
v -0.3 2.4 0.8
v -0.2 2.4 0.8
v -0.6 2.4 0.7
v -0.4 2.4 0.7
v -0.2 2.4 0.7
v -0.1 2.4 0.7
v -0.7 2.4 0.6
v -0.6 2.4 0.6
v -0.5 2.4 0.6
v -0.3 2.4 0.6
v -0.2 2.4 0.6
v -0.8 2.4 0.5
v -0.7 2.4 0.5
v -0.6 2.4 0.5
v -0.5 2.4 0.5
v -0.4 2.4 0.5
v -0.3 2.4 0.5
v -0.2 2.4 0.5
v -0.9 2.4 0.4
v -0.8 2.4 0.4
v -0.7 2.4 0.4
v -0.6 2.4 0.4
v -0.4 2.4 0.4
v -0.3 2.4 0.4
v -0.1 2.4 0.4
v 0 2.4 0.4
v -0.3 2.4 0.3
v 0 2.4 0.3
v -0.8 2.4 0.2
v -0.7 2.4 0.2
v -0.6 2.4 0.2
v -0.5 2.4 0.2
v -0.4 2.4 0.2
v -0.3 2.4 0.2
v -0.9 2.4 0.1
v -0.8 2.4 0.1
v -0.6 2.4 0.1
v -1 2.4 0
v -0.9 2.4 0
v -0.8 2.4 0
v -0.6 2.4 0
v -0.5 2.4 0
v -0.9 2.4 -0.1
v -0.8 2.4 -0.1
v -0.6 2.4 -0.1
v -1 2.4 -0.2
v -0.9 2.4 -0.2
v -0.8 2.4 -0.2
v -0.8 2.4 -0.3
v -0.7 2.4 -0.3
v -0.5 2.4 -0.3
v -0.3 2.4 -0.3
v -0.8 2.4 -0.4
v -0.7 2.4 -0.4
v -0.6 2.4 -0.4
v -0.5 2.4 -0.4
v -0.3 2.4 -0.4
v -0.8 2.4 -0.5
v -0.6 2.4 -0.5
v -0.5 2.4 -0.5
v -0.6 2.4 -0.6
v -0.5 2.4 -0.6
v -0.8 2.5 0.7
v -0.6 2.5 0.7
v -0.9 2.5 0.6
v -0.8 2.5 0.6
v -0.7 2.5 0.6
v -0.6 2.5 0.6
v -0.5 2.5 0.6
v -0.8 2.5 0.5
v -0.7 2.5 0.5
v -0.6 2.5 0.5
v -0.5 2.5 0.5
v -0.4 2.5 0.5
v -0.3 2.5 0.5
v -1 2.5 0.4
v -0.9 2.5 0.4
v -0.8 2.5 0.4
v -0.7 2.5 0.4
v -0.6 2.5 0.4
v -0.4 2.5 0.4
v -0.3 2.5 0.4
v -0.8 2.5 0.2
v -0.7 2.5 0.2
v -0.6 2.5 0.2
v -0.4 2.5 0.2
v -1 2.5 0.1
v -0.9 2.5 0.1
v -1 2.5 0
v -0.9 2.5 0
v -0.9 2.5 -0.2
v -0.8 2.5 -0.2
v -0.7 2.5 -0.2
v -0.9 2.5 -0.3
v -0.8 2.5 -0.3
v -0.7 2.5 -0.3
v -0.9 2.5 -0.4
v -0.8 2.5 -0.4
v -0.5 2.5 -0.5
v -0.4 2.5 -0.5
v -0.5 2.5 -0.6
v -0.4 2.5 -0.6

# faces
f 4/2/1 2/2/1 1/2/1
f 5/1/1 3/1/1 2/1/1
f 5/2/1 2/2/1 4/2/1
f 6/1/1 3/1/1 5/1/1
f 7/3/1 5/3/1 4/3/1
f 7/3/1 6/3/1 5/3/1
f 8/3/1 6/3/1 7/3/1
f 9/3/1 6/3/1 8/3/1
f 10/2/1 8/2/1 7/2/1
f 11/1/1 9/1/1 8/1/1
f 11/2/1 8/2/1 10/2/1
f 12/1/1 9/1/1 11/1/1
f 13/3/1 11/3/1 10/3/1
f 13/3/1 12/3/1 11/3/1
f 14/3/1 12/3/1 13/3/1
f 15/3/1 12/3/1 14/3/1
f 16/2/1 14/2/1 13/2/1
f 17/1/1 15/1/1 14/1/1
f 17/2/1 14/2/1 16/2/1
f 18/1/1 15/1/1 17/1/1
f 19/3/1 17/3/1 16/3/1
f 19/3/1 18/3/1 17/3/1
f 20/3/1 18/3/1 19/3/1
f 21/3/1 18/3/1 20/3/1
f 22/3/1 18/3/1 21/3/1
f 23/2/1 20/2/1 19/2/1
f 24/1/1 21/1/1 20/1/1
f 24/2/1 20/2/1 23/2/1
f 25/1/1 21/1/1 24/1/1
f 31/2/1 27/2/1 26/2/1
f 32/2/1 27/2/1 31/2/1
f 33/2/1 29/2/1 28/2/1
f 34/1/1 30/1/1 29/1/1
f 34/2/1 29/2/1 33/2/1
f 35/1/1 30/1/1 34/1/1
f 36/3/1 32/3/1 31/3/1
f 37/3/1 32/3/1 36/3/1
f 38/3/1 34/3/1 33/3/1
f 38/3/1 35/3/1 34/3/1
f 39/3/1 35/3/1 38/3/1
f 40/3/1 35/3/1 39/3/1
f 41/2/1 37/2/1 36/2/1
f 42/2/1 37/2/1 41/2/1
f 43/2/1 39/2/1 38/2/1
f 44/1/1 40/1/1 39/1/1
f 44/2/1 39/2/1 43/2/1
f 45/1/1 40/1/1 44/1/1
f 46/3/1 42/3/1 41/3/1
f 47/3/1 42/3/1 46/3/1
f 48/3/1 44/3/1 43/3/1
f 48/3/1 45/3/1 44/3/1
f 49/3/1 45/3/1 48/3/1
f 50/3/1 45/3/1 49/3/1
f 51/2/1 47/2/1 46/2/1
f 52/2/1 47/2/1 51/2/1
f 53/2/1 49/2/1 48/2/1
f 54/1/1 50/1/1 49/1/1
f 54/2/1 49/2/1 53/2/1
f 55/1/1 50/1/1 54/1/1
f 56/3/1 52/3/1 51/3/1
f 57/3/1 52/3/1 56/3/1
f 58/3/1 54/3/1 53/3/1
f 58/3/1 55/3/1 54/3/1
f 59/3/1 55/3/1 58/3/1
f 60/3/1 55/3/1 59/3/1
f 61/2/1 57/2/1 56/2/1
f 62/2/1 57/2/1 61/2/1
f 63/2/1 59/2/1 58/2/1
f 64/1/1 60/1/1 59/1/1
f 64/2/1 59/2/1 63/2/1
f 65/1/1 60/1/1 64/1/1
f 70/2/1 67/2/1 66/2/1
f 71/2/1 67/2/1 70/2/1
f 72/1/1 69/1/1 68/1/1
f 73/1/1 69/1/1 72/1/1
f 74/3/1 71/3/1 70/3/1
f 75/3/1 71/3/1 74/3/1
f 76/3/1 73/3/1 72/3/1
f 77/3/1 73/3/1 76/3/1
f 78/2/1 75/2/1 74/2/1
f 79/2/1 75/2/1 78/2/1
f 80/1/1 77/1/1 76/1/1
f 81/1/1 77/1/1 80/1/1
f 82/3/1 79/3/1 78/3/1
f 83/3/1 79/3/1 82/3/1
f 84/3/1 81/3/1 80/3/1
f 85/3/1 81/3/1 84/3/1
f 86/2/1 83/2/1 82/2/1
f 87/2/1 83/2/1 86/2/1
f 90/1/1 85/1/1 84/1/1
f 91/1/1 85/1/1 90/1/1
f 92/3/1 87/3/1 86/3/1
f 93/3/1 87/3/1 92/3/1
f 96/3/1 89/3/1 88/3/1
f 97/3/1 89/3/1 96/3/1
f 98/3/1 91/3/1 90/3/1
f 99/3/1 91/3/1 98/3/1
f 100/2/1 93/2/1 92/2/1
f 101/2/1 93/2/1 100/2/1
f 102/6/1 95/6/1 94/6/1
f 103/6/1 95/6/1 102/6/1
f 108/4/1 105/4/1 104/4/1
f 109/4/1 105/4/1 108/4/1
f 110/4/1 107/4/1 106/4/1
f 111/4/1 107/4/1 110/4/1
f 112/5/1 109/5/1 108/5/1
f 113/5/1 109/5/1 112/5/1
f 114/5/1 111/5/1 110/5/1
f 115/5/1 111/5/1 114/5/1
f 120/2/1 117/2/1 116/2/1
f 121/2/1 117/2/1 120/2/1
f 122/2/1 119/2/1 118/2/1
f 123/2/1 119/2/1 122/2/1
f 124/3/1 121/3/1 120/3/1
f 125/3/1 121/3/1 124/3/1
f 126/3/1 123/3/1 122/3/1
f 127/3/1 123/3/1 126/3/1
f 128/2/1 125/2/1 124/2/1
f 129/2/1 125/2/1 128/2/1
f 130/2/1 127/2/1 126/2/1
f 131/2/1 127/2/1 130/2/1
f 132/3/1 129/3/1 128/3/1
f 133/3/1 129/3/1 132/3/1
f 134/3/1 131/3/1 130/3/1
f 135/3/1 131/3/1 134/3/1
f 136/2/1 133/2/1 132/2/1
f 137/2/1 133/2/1 136/2/1
f 140/2/1 135/2/1 134/2/1
f 141/2/1 135/2/1 140/2/1
f 146/3/1 139/3/1 138/3/1
f 147/3/1 139/3/1 146/3/1
f 148/3/1 141/3/1 140/3/1
f 149/3/1 141/3/1 148/3/1
f 150/6/1 143/6/1 142/6/1
f 151/6/1 143/6/1 150/6/1
f 152/6/1 145/6/1 144/6/1
f 153/6/1 145/6/1 152/6/1
f 156/3/1 155/3/1 154/3/1
f 157/3/1 155/3/1 156/3/1
f 160/2/1 159/2/1 158/2/1
f 161/2/1 159/2/1 160/2/1
f 166/1/1 163/1/1 162/1/1
f 167/1/1 163/1/1 166/1/1
f 168/1/1 165/1/1 164/1/1
f 169/1/1 165/1/1 168/1/1
f 170/3/1 167/3/1 166/3/1
f 171/3/1 167/3/1 170/3/1
f 172/3/1 169/3/1 168/3/1
f 173/3/1 169/3/1 172/3/1
f 174/1/1 171/1/1 170/1/1
f 175/1/1 171/1/1 174/1/1
f 176/1/1 173/1/1 172/1/1
f 177/1/1 173/1/1 176/1/1
f 178/3/1 177/3/1 176/3/1
f 179/3/1 177/3/1 178/3/1
f 182/3/1 181/3/1 180/3/1
f 183/3/1 181/3/1 182/3/1
f 186/3/1 185/3/1 184/3/1
f 187/3/1 185/3/1 186/3/1
f 190/3/1 175/3/1 174/3/1
f 191/3/1 175/3/1 190/3/1
f 192/3/1 189/3/1 188/3/1
f 193/3/1 189/3/1 192/3/1
f 194/1/1 191/1/1 190/1/1
f 195/1/1 191/1/1 194/1/1
f 197/3/1 195/3/1 194/3/1
f 197/3/1 196/3/1 195/3/1
f 198/3/1 196/3/1 197/3/1
f 201/6/1 200/6/1 199/6/1
f 202/6/1 200/6/1 201/6/1
f 205/4/1 204/4/1 203/4/1
f 206/4/1 204/4/1 205/4/1
f 209/5/1 208/5/1 207/5/1
f 210/5/1 208/5/1 209/5/1
f 213/6/1 212/6/1 211/6/1
f 214/6/1 212/6/1 213/6/1
f 217/4/1 216/4/1 215/4/1
f 218/4/1 216/4/1 217/4/1
f 221/3/1 220/3/1 219/3/1
f 222/3/1 220/3/1 221/3/1
f 227/4/1 224/4/1 223/4/1
f 228/4/1 224/4/1 227/4/1
f 229/5/1 226/5/1 225/5/1
f 230/5/1 226/5/1 229/5/1
f 233/3/1 232/3/1 231/3/1
f 234/3/1 232/3/1 233/3/1
f 239/4/1 236/4/1 235/4/1
f 240/4/1 236/4/1 239/4/1
f 241/4/1 238/4/1 237/4/1
f 242/4/1 238/4/1 241/4/1
f 243/5/1 240/5/1 239/5/1
f 244/5/1 240/5/1 243/5/1
f 245/5/1 242/5/1 241/5/1
f 246/5/1 242/5/1 245/5/1
f 249/3/1 248/3/1 247/3/1
f 250/3/1 248/3/1 249/3/1
f 253/3/1 252/3/1 251/3/1
f 254/3/1 252/3/1 253/3/1
f 255/3/2 256/3/2 259/3/2
f 259/3/2 256/3/2 260/3/2
f 257/2/2 258/2/2 261/2/2
f 258/1/2 259/1/2 262/1/2
f 261/2/2 258/2/2 262/2/2
f 262/1/2 259/1/2 263/1/2
f 264/3/2 265/3/2 270/3/2
f 270/3/2 265/3/2 271/3/2
f 266/3/2 267/3/2 272/3/2
f 272/3/2 267/3/2 273/3/2
f 268/2/2 269/2/2 276/2/2
f 276/2/2 269/2/2 277/2/2
f 274/1/2 275/1/2 278/1/2
f 278/1/2 275/1/2 279/1/2
f 280/3/2 281/3/2 287/3/2
f 281/3/2 282/3/2 287/3/2
f 287/3/2 282/3/2 288/3/2
f 288/3/2 282/3/2 289/3/2
f 283/6/2 284/6/2 290/6/2
f 290/6/2 284/6/2 291/6/2
f 285/6/2 286/6/2 292/6/2
f 292/6/2 286/6/2 293/6/2
f 287/6/2 288/6/2 294/6/2
f 294/6/2 288/6/2 295/6/2
f 296/3/2 297/3/2 302/3/2
f 302/3/2 297/3/2 303/3/2
f 298/3/2 299/3/2 304/3/2
f 304/3/2 299/3/2 305/3/2
f 300/2/2 301/2/2 306/2/2
f 306/2/2 301/2/2 307/2/2
f 308/4/2 309/4/2 312/4/2
f 312/4/2 309/4/2 313/4/2
f 310/4/2 311/4/2 314/4/2
f 314/4/2 311/4/2 315/4/2
f 312/5/2 313/5/2 316/5/2
f 316/5/2 313/5/2 317/5/2
f 314/5/2 315/5/2 318/5/2
f 318/5/2 315/5/2 319/5/2
f 320/6/2 321/6/2 324/6/2
f 324/6/2 321/6/2 325/6/2
f 322/3/2 323/3/2 330/3/2
f 330/3/2 323/3/2 331/3/2
f 326/3/2 327/3/2 332/3/2
f 332/3/2 327/3/2 333/3/2
f 328/6/2 329/6/2 334/6/2
f 334/6/2 329/6/2 335/6/2
f 336/6/2 337/6/2 340/6/2
f 340/6/2 337/6/2 341/6/2
f 338/2/2 339/2/2 342/2/2
f 342/2/2 339/2/2 343/2/2
f 344/6/2 345/6/2 348/6/2
f 348/6/2 345/6/2 349/6/2
f 346/2/2 347/2/2 350/2/2
f 350/2/2 347/2/2 351/2/2
f 352/3/2 353/3/2 354/3/2
f 354/3/2 353/3/2 355/3/2
f 356/3/2 357/3/2 358/3/2
f 358/3/2 357/3/2 359/3/2
f 360/3/2 361/3/2 364/3/2
f 364/3/2 361/3/2 365/3/2
f 362/3/2 363/3/2 366/3/2
f 366/3/2 363/3/2 367/3/2
f 368/6/2 369/6/2 376/6/2
f 376/6/2 369/6/2 377/6/2
f 370/3/2 371/3/2 380/3/2
f 380/3/2 371/3/2 381/3/2
f 372/3/2 373/3/2 382/3/2
f 382/3/2 373/3/2 383/3/2
f 374/3/2 375/3/2 385/3/2
f 385/3/2 375/3/2 386/3/2
f 378/3/2 379/3/2 387/3/2
f 387/3/2 379/3/2 388/3/2
f 383/6/2 384/6/2 389/6/2
f 389/6/2 384/6/2 390/6/2
f 391/5/2 392/5/2 395/5/2
f 395/5/2 392/5/2 396/5/2
f 393/5/2 394/5/2 397/5/2
f 397/5/2 394/5/2 398/5/2
f 398/3/2 399/3/2 400/3/2
f 400/3/2 399/3/2 402/3/2
f 402/3/2 399/3/2 403/3/2
f 401/4/2 402/4/2 404/4/2
f 404/4/2 402/4/2 405/4/2
f 406/5/2 407/5/2 411/5/2
f 407/3/2 408/3/2 412/3/2
f 411/5/2 407/5/2 412/5/2
f 412/3/2 408/3/2 413/3/2
f 409/5/2 410/5/2 418/5/2
f 418/5/2 410/5/2 419/5/2
f 411/4/2 412/4/2 420/4/2
f 412/6/2 413/6/2 421/6/2
f 420/4/2 412/4/2 421/4/2
f 421/6/2 413/6/2 422/6/2
f 414/6/2 415/6/2 423/6/2
f 423/6/2 415/6/2 424/6/2
f 416/6/2 417/6/2 425/6/2
f 425/6/2 417/6/2 426/6/2
f 421/3/2 422/3/2 427/3/2
f 427/3/2 422/3/2 428/3/2
f 429/5/2 430/5/2 431/5/2
f 431/5/2 430/5/2 432/5/2
f 433/4/2 434/4/2 435/4/2
f 435/4/2 434/4/2 436/4/2
f 437/5/2 438/5/2 439/5/2
f 439/5/2 438/5/2 440/5/2
f 440/3/2 441/3/2 442/3/2
f 442/3/2 443/3/2 444/3/2
f 440/3/2 442/3/2 448/3/2
f 442/3/2 444/3/2 448/3/2
f 444/3/2 445/3/2 448/3/2
f 448/3/2 445/3/2 449/3/2
f 449/3/2 445/3/2 450/3/2
f 450/3/2 445/3/2 451/3/2
f 446/3/2 447/3/2 456/3/2
f 456/3/2 447/3/2 457/3/2
f 449/3/2 450/3/2 458/3/2
f 458/3/2 450/3/2 459/3/2
f 452/3/2 453/3/2 464/3/2
f 464/3/2 453/3/2 465/3/2
f 454/3/2 455/3/2 467/3/2
f 467/3/2 455/3/2 468/3/2
f 458/6/2 459/6/2 469/6/2
f 469/6/2 459/6/2 470/6/2
f 460/6/2 461/6/2 471/6/2
f 471/6/2 461/6/2 472/6/2
f 462/6/2 463/6/2 473/6/2
f 473/6/2 463/6/2 474/6/2
f 465/6/2 466/6/2 475/6/2
f 475/6/2 466/6/2 476/6/2
f 471/3/2 472/3/2 477/3/2
f 469/3/2 470/3/2 477/3/2
f 470/3/2 471/3/2 477/3/2
f 477/3/2 472/3/2 478/3/2
f 479/4/2 480/4/2 481/4/2
f 481/4/2 480/4/2 482/4/2
f 483/4/2 484/4/2 485/4/2
f 485/4/2 484/4/2 486/4/2
f 487/4/2 488/4/2 491/4/2
f 491/4/2 488/4/2 492/4/2
f 489/4/2 490/4/2 493/4/2
f 493/4/2 490/4/2 494/4/2
f 491/5/2 492/5/2 495/5/2
f 495/5/2 492/5/2 496/5/2
f 495/4/2 496/4/2 500/4/2
f 496/3/2 497/3/2 501/3/2
f 500/4/2 496/4/2 501/4/2
f 498/5/2 499/5/2 502/5/2
f 502/5/2 499/5/2 503/5/2
f 501/3/2 497/3/2 504/3/2
f 504/3/2 497/3/2 505/3/2
f 505/3/2 506/3/2 509/3/2
f 507/4/2 508/4/2 511/4/2
f 511/4/2 508/4/2 512/4/2
f 511/5/2 512/5/2 513/5/2
f 513/5/2 512/5/2 514/5/2
f 509/3/2 510/3/2 515/3/2
f 513/4/2 514/4/2 517/4/2
f 517/4/2 514/4/2 518/4/2
f 505/3/2 509/3/2 519/3/2
f 515/3/2 516/3/2 519/3/2
f 509/3/2 515/3/2 519/3/2
f 519/3/2 516/3/2 520/3/2
f 520/3/2 516/3/2 521/3/2
f 521/3/2 516/3/2 522/3/2
f 520/3/2 521/3/2 525/3/2
f 525/3/2 521/3/2 526/3/2
f 523/3/2 524/3/2 532/3/2
f 532/3/2 524/3/2 533/3/2
f 526/3/2 527/3/2 535/3/2
f 535/3/2 527/3/2 536/3/2
f 528/3/2 529/3/2 539/3/2
f 539/3/2 529/3/2 540/3/2
f 530/3/2 531/3/2 542/3/2
f 542/3/2 531/3/2 543/3/2
f 536/3/2 537/3/2 546/3/2
f 534/3/2 535/3/2 546/3/2
f 535/3/2 536/3/2 546/3/2
f 546/3/2 537/3/2 547/3/2
f 547/3/2 537/3/2 548/3/2
f 548/3/2 537/3/2 549/3/2
f 539/3/2 540/3/2 550/3/2
f 538/3/2 539/3/2 550/3/2
f 550/3/2 540/3/2 551/3/2
f 541/3/2 542/3/2 552/3/2
f 552/3/2 542/3/2 553/3/2
f 544/3/2 545/3/2 554/3/2
f 543/3/2 544/3/2 554/3/2
f 554/3/2 545/3/2 555/3/2
f 546/6/2 547/6/2 556/6/2
f 556/6/2 547/6/2 557/6/2
f 548/6/2 549/6/2 558/6/2
f 558/6/2 549/6/2 559/6/2
f 558/3/2 559/3/2 560/3/2
f 560/3/2 559/3/2 561/3/2
f 562/2/2 563/2/2 566/2/2
f 566/2/2 563/2/2 567/2/2
f 564/3/2 565/3/2 568/3/2
f 568/3/2 565/3/2 569/3/2
f 566/3/2 567/3/2 570/3/2
f 570/3/2 567/3/2 571/3/2
f 568/2/2 569/2/2 572/2/2
f 572/2/2 569/2/2 573/2/2
f 570/2/2 571/2/2 574/2/2
f 574/2/2 571/2/2 575/2/2
f 572/3/2 573/3/2 576/3/2
f 576/3/2 573/3/2 577/3/2
f 574/3/2 575/3/2 578/3/2
f 578/3/2 575/3/2 579/3/2
f 580/3/2 581/3/2 584/3/2
f 584/3/2 581/3/2 585/3/2
f 582/3/2 583/3/2 586/3/2
f 586/3/2 583/3/2 587/3/2
f 588/3/2 589/3/2 592/3/2
f 592/3/2 589/3/2 593/3/2
f 590/3/2 591/3/2 594/3/2
f 594/3/2 591/3/2 595/3/2
f 596/3/2 597/3/2 600/3/2
f 600/3/2 597/3/2 601/3/2
f 601/3/2 602/3/2 604/3/2
f 604/3/2 602/3/2 605/3/2
f 598/3/2 599/3/2 608/3/2
f 608/3/2 599/3/2 609/3/2
f 605/3/2 606/3/2 610/3/2
f 603/3/2 604/3/2 610/3/2
f 604/3/2 605/3/2 610/3/2
f 610/3/2 606/3/2 611/3/2
f 611/3/2 606/3/2 612/3/2
f 612/3/2 606/3/2 613/3/2
f 613/3/2 606/3/2 614/3/2
f 607/3/2 608/3/2 615/3/2
f 615/3/2 608/3/2 616/3/2
f 611/3/2 612/3/2 617/3/2
f 617/3/2 612/3/2 618/3/2
f 618/3/2 612/3/2 619/3/2
f 619/3/2 612/3/2 620/3/2
f 613/3/2 614/3/2 621/3/2
f 614/3/2 615/3/2 621/3/2
f 621/3/2 615/3/2 622/3/2
f 616/3/2 608/3/2 623/3/2
f 623/3/2 608/3/2 624/3/2
f 618/3/2 619/3/2 625/3/2
f 625/3/2 619/3/2 626/3/2
f 627/1/2 628/1/2 629/1/2
f 629/1/2 628/1/2 630/1/2
f 629/3/2 630/3/2 631/3/2
f 631/3/2 630/3/2 632/3/2
f 631/1/2 632/1/2 633/1/2
f 633/1/2 632/1/2 634/1/2
f 635/3/2 636/3/2 639/3/2
f 639/3/2 636/3/2 640/3/2
f 637/3/2 638/3/2 641/3/2
f 641/3/2 638/3/2 642/3/2
f 643/3/2 644/3/2 647/3/2
f 647/3/2 644/3/2 648/3/2
f 645/3/2 646/3/2 649/3/2
f 649/3/2 646/3/2 650/3/2
f 651/3/2 652/3/2 655/3/2
f 655/3/2 652/3/2 656/3/2
f 653/3/2 654/3/2 662/3/2
f 662/3/2 654/3/2 663/3/2
f 657/3/2 658/3/2 664/3/2
f 664/3/2 658/3/2 665/3/2
f 659/3/2 660/3/2 666/3/2
f 666/3/2 660/3/2 667/3/2
f 661/3/2 662/3/2 668/3/2
f 667/3/2 668/3/2 669/3/2
f 666/3/2 667/3/2 669/3/2
f 665/3/2 666/3/2 669/3/2
f 669/3/2 668/3/2 670/3/2
f 670/3/2 668/3/2 671/3/2
f 668/3/2 662/3/2 672/3/2
f 671/3/2 668/3/2 672/3/2
f 670/3/2 671/3/2 673/3/2
f 673/3/2 671/3/2 674/3/2
f 675/1/2 676/1/2 677/1/2
f 677/1/2 676/1/2 678/1/2
f 677/3/2 678/3/2 679/3/2
f 679/3/2 678/3/2 680/3/2
f 679/1/2 680/1/2 683/1/2
f 683/1/2 680/1/2 684/1/2
f 683/3/2 684/3/2 686/3/2
f 686/3/2 684/3/2 687/3/2
f 681/3/2 682/3/2 688/3/2
f 688/3/2 682/3/2 689/3/2
f 685/3/2 686/3/2 690/3/2
f 690/3/2 686/3/2 691/3/2
f 691/3/2 692/3/2 696/3/2
f 696/3/2 692/3/2 697/3/2
f 693/3/2 694/3/2 698/3/2
f 698/3/2 694/3/2 699/3/2
f 695/3/2 696/3/2 706/3/2
f 706/3/2 696/3/2 707/3/2
f 702/3/2 703/3/2 709/3/2
f 709/3/2 703/3/2 710/3/2
f 704/3/2 705/3/2 714/3/2
f 714/3/2 705/3/2 715/3/2
f 700/3/2 701/3/2 716/3/2
f 707/3/2 708/3/2 718/3/2
f 718/3/2 708/3/2 719/3/2
f 711/3/2 712/3/2 720/3/2
f 720/3/2 712/3/2 721/3/2
f 714/3/2 715/3/2 722/3/2
f 715/3/2 716/3/2 722/3/2
f 713/3/2 714/3/2 722/3/2
f 722/3/2 716/3/2 723/3/2
f 723/3/2 716/3/2 724/3/2
f 724/3/2 716/3/2 725/3/2
f 725/3/2 716/3/2 726/3/2
f 716/3/2 701/3/2 727/3/2
f 726/3/2 716/3/2 727/3/2
f 727/3/2 701/3/2 728/3/2
f 717/3/2 718/3/2 729/3/2
f 729/3/2 718/3/2 730/3/2
f 725/3/2 726/3/2 731/3/2
f 731/3/2 726/3/2 732/3/2
f 727/3/2 728/3/2 733/3/2
f 728/3/2 729/3/2 733/3/2
f 733/3/2 729/3/2 734/3/2
f 735/1/2 736/1/2 738/1/2
f 736/6/2 737/6/2 739/6/2
f 738/1/2 736/1/2 739/1/2
f 739/6/2 737/6/2 740/6/2
f 738/3/2 739/3/2 741/3/2
f 739/3/2 740/3/2 741/3/2
f 741/3/2 740/3/2 742/3/2
f 743/3/2 744/3/2 747/3/2
f 747/3/2 744/3/2 748/3/2
f 745/3/2 746/3/2 749/3/2
f 749/3/2 746/3/2 750/3/2
f 750/3/2 746/3/2 753/3/2
f 753/3/2 746/3/2 754/3/2
f 751/3/2 752/3/2 758/3/2
f 758/3/2 752/3/2 759/3/2
f 756/3/2 757/3/2 764/3/2
f 755/3/2 756/3/2 764/3/2
f 764/3/2 757/3/2 765/3/2
f 765/3/2 757/3/2 766/3/2
f 763/3/2 764/3/2 768/3/2
f 768/3/2 764/3/2 769/3/2
f 769/3/2 764/3/2 770/3/2
f 761/3/2 762/3/2 772/3/2
f 767/3/2 768/3/2 773/3/2
f 768/3/2 769/3/2 773/3/2
f 773/3/2 769/3/2 774/3/2
f 770/3/2 771/3/2 775/3/2
f 759/3/2 760/3/2 777/3/2
f 777/3/2 760/3/2 778/3/2
f 761/3/2 772/3/2 779/3/2
f 772/3/2 773/3/2 779/3/2
f 779/3/2 773/3/2 780/3/2
f 774/3/2 769/3/2 781/3/2
f 781/3/2 769/3/2 782/3/2
f 775/3/2 776/3/2 783/3/2
f 770/3/2 775/3/2 783/3/2
f 783/3/2 776/3/2 784/3/2
f 759/3/2 777/3/2 785/3/2
f 785/3/2 777/3/2 786/3/2
f 778/3/2 779/3/2 787/3/2
f 787/3/2 779/3/2 788/3/2
f 770/3/2 783/3/2 789/3/2
f 789/3/2 783/3/2 790/3/2
f 791/4/2 792/4/2 795/4/2
f 795/4/2 792/4/2 796/4/2
f 793/4/2 794/4/2 797/4/2
f 797/4/2 794/4/2 798/4/2
f 795/5/2 796/5/2 801/5/2
f 801/5/2 796/5/2 802/5/2
f 802/5/2 796/5/2 803/5/2
f 797/5/2 798/5/2 804/5/2
f 804/5/2 798/5/2 805/5/2
f 805/5/2 798/5/2 806/5/2
f 799/1/2 800/1/2 809/1/2
f 809/1/2 800/1/2 810/1/2
f 807/1/2 808/1/2 815/1/2
f 815/1/2 808/1/2 816/1/2
f 809/3/2 810/3/2 817/3/2
f 817/3/2 810/3/2 818/3/2
f 811/3/2 812/3/2 819/3/2
f 819/3/2 812/3/2 820/3/2
f 813/3/2 814/3/2 822/3/2
f 822/3/2 814/3/2 823/3/2
f 815/3/2 816/3/2 824/3/2
f 824/3/2 816/3/2 825/3/2
f 820/6/2 821/6/2 826/6/2
f 826/6/2 821/6/2 827/6/2
f 822/6/2 823/6/2 829/6/2
f 829/6/2 823/6/2 830/6/2
f 824/1/2 825/1/2 831/1/2
f 831/1/2 825/1/2 832/1/2
f 827/3/2 828/3/2 834/3/2
f 826/3/2 827/3/2 834/3/2
f 834/3/2 828/3/2 835/3/2
f 831/3/2 832/3/2 837/3/2
f 837/3/2 832/3/2 838/3/2
f 835/3/2 836/3/2 839/3/2
f 833/3/2 834/3/2 839/3/2
f 834/3/2 835/3/2 839/3/2
f 839/3/2 836/3/2 840/3/2
f 840/3/2 836/3/2 841/3/2
f 833/3/2 839/3/2 845/3/2
f 841/3/2 836/3/2 848/3/2
f 843/3/2 844/3/2 849/3/2
f 842/3/2 843/3/2 849/3/2
f 849/3/2 844/3/2 850/3/2
f 845/3/2 846/3/2 851/3/2
f 833/3/2 845/3/2 851/3/2
f 851/3/2 846/3/2 852/3/2
f 852/3/2 846/3/2 853/3/2
f 847/3/2 848/3/2 854/3/2
f 842/3/2 849/3/2 855/3/2
f 855/3/2 849/3/2 856/3/2
f 852/3/2 853/3/2 857/3/2
f 853/3/2 854/3/2 857/3/2
f 854/3/2 848/3/2 858/3/2
f 857/3/2 854/3/2 858/3/2
f 848/3/2 836/3/2 859/3/2
f 858/3/2 848/3/2 859/3/2
f 859/3/2 836/3/2 860/3/2
f 842/3/2 855/3/2 861/3/2
f 861/3/2 855/3/2 862/3/2
f 860/3/2 836/3/2 864/3/2
f 842/3/2 861/3/2 865/3/2
f 865/3/2 861/3/2 866/3/2
f 862/3/2 863/3/2 867/3/2
f 867/3/2 863/3/2 868/3/2
f 860/3/2 864/3/2 869/3/2
f 864/3/2 865/3/2 869/3/2
f 869/3/2 865/3/2 870/3/2
f 858/3/2 859/3/2 871/3/2
f 871/3/2 859/3/2 872/3/2
f 873/2/2 874/2/2 877/2/2
f 877/2/2 874/2/2 878/2/2
f 878/2/2 874/2/2 879/2/2
f 875/2/2 876/2/2 881/2/2
f 881/2/2 876/2/2 882/2/2
f 882/2/2 876/2/2 883/2/2
f 877/3/2 878/3/2 884/3/2
f 884/3/2 878/3/2 885/3/2
f 880/3/2 881/3/2 887/3/2
f 887/3/2 881/3/2 888/3/2
f 882/3/2 883/3/2 889/3/2
f 889/3/2 883/3/2 890/3/2
f 887/6/2 888/6/2 891/6/2
f 886/6/2 887/6/2 891/6/2
f 891/6/2 888/6/2 892/6/2
f 892/6/2 888/6/2 893/6/2
f 889/2/2 890/2/2 894/2/2
f 894/2/2 890/2/2 895/2/2
f 892/3/2 893/3/2 896/3/2
f 894/3/2 895/3/2 896/3/2
f 893/3/2 894/3/2 896/3/2
f 896/3/2 895/3/2 897/3/2
f 892/3/2 896/3/2 898/3/2
f 898/3/2 896/3/2 899/3/2
f 899/3/2 896/3/2 900/3/2
f 900/3/2 896/3/2 901/3/2
f 897/3/2 895/3/2 902/3/2
f 900/3/2 901/3/2 906/3/2
f 901/3/2 902/3/2 906/3/2
f 902/3/2 895/3/2 907/3/2
f 906/3/2 902/3/2 907/3/2
f 903/3/2 904/3/2 908/3/2
f 908/3/2 904/3/2 909/3/2
f 905/3/2 906/3/2 910/3/2
f 910/3/2 906/3/2 911/3/2
f 912/2/2 913/2/2 915/2/2
f 913/1/2 914/1/2 916/1/2
f 915/2/2 913/2/2 916/2/2
f 916/1/2 914/1/2 917/1/2
f 917/1/2 914/1/2 918/1/2
f 915/3/2 916/3/2 919/3/2
f 916/3/2 917/3/2 919/3/2
f 919/3/2 917/3/2 920/3/2
f 921/3/2 922/3/2 925/3/2
f 925/3/2 922/3/2 926/3/2
f 923/3/2 924/3/2 927/3/2
f 927/3/2 924/3/2 928/3/2
f 936/1/3 930/1/3 929/1/3
f 937/3/3 931/3/3 930/3/3
f 937/1/3 930/1/3 936/1/3
f 938/1/3 932/1/3 931/1/3
f 938/3/3 931/3/3 937/3/3
f 939/3/3 933/3/3 932/3/3
f 939/1/3 932/1/3 938/1/3
f 940/3/3 933/3/3 939/3/3
f 941/3/3 933/3/3 940/3/3
f 942/3/3 933/3/3 941/3/3
f 943/3/3 933/3/3 942/3/3
f 944/3/3 933/3/3 943/3/3
f 945/3/3 933/3/3 944/3/3
f 946/1/3 934/1/3 933/1/3
f 946/3/3 933/3/3 945/3/3
f 947/3/3 935/3/3 934/3/3
f 947/1/3 934/1/3 946/1/3
f 948/3/3 935/3/3 947/3/3
f 949/5/3 940/5/3 939/5/3
f 949/4/3 941/4/3 940/4/3
f 950/5/3 942/5/3 941/5/3
f 950/4/3 941/4/3 949/4/3
f 951/5/3 942/5/3 950/5/3
f 952/4/3 944/4/3 943/4/3
f 953/4/3 944/4/3 952/4/3
f 954/4/3 944/4/3 953/4/3
f 955/5/3 946/5/3 945/5/3
f 956/4/3 947/4/3 946/4/3
f 956/5/3 946/5/3 955/5/3
f 957/4/3 947/4/3 956/4/3
f 958/5/3 949/5/3 939/5/3
f 958/5/3 950/5/3 949/5/3
f 959/5/3 950/5/3 958/5/3
f 960/5/3 950/5/3 959/5/3
f 961/5/3 950/5/3 960/5/3
f 962/5/3 950/5/3 961/5/3
f 964/5/3 953/5/3 952/5/3
f 965/5/3 953/5/3 964/5/3
f 966/4/3 937/4/3 936/4/3
f 967/5/3 938/5/3 937/5/3
f 967/4/3 937/4/3 966/4/3
f 968/4/3 939/4/3 938/4/3
f 968/5/3 938/5/3 967/5/3
f 969/5/3 958/5/3 939/5/3
f 969/4/3 939/4/3 968/4/3
f 970/4/3 959/4/3 958/4/3
f 970/5/3 958/5/3 969/5/3
f 971/4/3 959/4/3 970/4/3
f 972/4/3 959/4/3 971/4/3
f 973/4/3 961/4/3 960/4/3
f 974/5/3 962/5/3 961/5/3
f 974/4/3 961/4/3 973/4/3
f 975/4/3 963/4/3 962/4/3
f 975/5/3 962/5/3 974/5/3
f 976/4/3 963/4/3 975/4/3
f 977/3/3 968/3/3 967/3/3
f 978/2/3 969/2/3 968/2/3
f 978/3/3 968/3/3 977/3/3
f 979/3/3 971/3/3 970/3/3
f 979/2/3 969/2/3 978/2/3
f 979/3/3 970/3/3 969/3/3
f 980/3/3 971/3/3 979/3/3
f 987/2/3 982/2/3 981/2/3
f 988/3/3 983/3/3 982/3/3
f 988/2/3 982/2/3 987/2/3
f 989/2/3 984/2/3 983/2/3
f 989/3/3 983/3/3 988/3/3
f 990/3/3 985/3/3 984/3/3
f 990/2/3 984/2/3 989/2/3
f 991/2/3 986/2/3 985/2/3
f 991/3/3 985/3/3 990/3/3
f 992/2/3 986/2/3 991/2/3
f 1000/3/3 994/3/3 993/3/3
f 1001/3/3 994/3/3 1000/3/3
f 1003/3/3 996/3/3 995/3/3
f 1004/3/3 996/3/3 1003/3/3
f 1005/3/3 998/3/3 997/3/3
f 1006/3/3 998/3/3 1005/3/3
f 1009/3/3 1000/3/3 999/3/3
f 1010/3/3 1000/3/3 1009/3/3
f 1011/3/3 1004/3/3 1003/3/3
f 1011/3/3 1003/3/3 1002/3/3
f 1012/3/3 1004/3/3 1011/3/3
f 1016/3/3 1008/3/3 1007/3/3
f 1017/3/3 1008/3/3 1016/3/3
f 1020/3/3 1000/3/3 1010/3/3
f 1021/3/3 1000/3/3 1020/3/3
f 1022/6/3 1014/6/3 1013/6/3
f 1023/6/3 1014/6/3 1022/6/3
f 1026/3/3 1019/3/3 1018/3/3
f 1026/3/3 1016/3/3 1015/3/3
f 1026/3/3 1017/3/3 1016/3/3
f 1026/3/3 1018/3/3 1017/3/3
f 1027/3/3 1019/3/3 1026/3/3
f 1028/3/3 1019/3/3 1027/3/3
f 1029/1/3 1023/1/3 1022/1/3
f 1030/3/3 1024/3/3 1023/3/3
f 1030/1/3 1023/1/3 1029/1/3
f 1031/1/3 1025/1/3 1024/1/3
f 1031/3/3 1024/3/3 1030/3/3
f 1032/3/3 1026/3/3 1025/3/3
f 1032/1/3 1025/1/3 1031/1/3
f 1032/3/3 1027/3/3 1026/3/3
f 1033/3/3 1027/3/3 1032/3/3
f 1034/3/3 1027/3/3 1033/3/3
f 1035/3/3 1033/3/3 1032/3/3
f 1036/3/3 1033/3/3 1035/3/3
f 1045/2/3 1038/2/3 1037/2/3
f 1046/3/3 1039/3/3 1038/3/3
f 1046/2/3 1038/2/3 1045/2/3
f 1047/2/3 1040/2/3 1039/2/3
f 1047/3/3 1039/3/3 1046/3/3
f 1048/3/3 1041/3/3 1040/3/3
f 1048/2/3 1040/2/3 1047/2/3
f 1049/2/3 1042/2/3 1041/2/3
f 1049/3/3 1041/3/3 1048/3/3
f 1050/3/3 1043/3/3 1042/3/3
f 1050/2/3 1042/2/3 1049/2/3
f 1051/2/3 1044/2/3 1043/2/3
f 1051/3/3 1043/3/3 1050/3/3
f 1052/2/3 1044/2/3 1051/2/3
f 1053/3/3 1051/3/3 1050/3/3
f 1054/3/3 1051/3/3 1053/3/3
f 1061/3/3 1056/3/3 1055/3/3
f 1063/3/3 1058/3/3 1057/3/3
f 1064/6/3 1059/6/3 1058/6/3
f 1064/3/3 1058/3/3 1063/3/3
f 1065/3/3 1060/3/3 1059/3/3
f 1065/6/3 1059/6/3 1064/6/3
f 1066/3/3 1060/3/3 1065/3/3
f 1068/3/3 1062/3/3 1061/3/3
f 1068/3/3 1061/3/3 1055/3/3
f 1069/3/3 1062/3/3 1068/3/3
f 1071/3/3 1068/3/3 1067/3/3
f 1077/3/3 1071/3/3 1070/3/3
f 1078/3/3 1068/3/3 1071/3/3
f 1078/3/3 1071/3/3 1077/3/3
f 1079/3/3 1068/3/3 1078/3/3
f 1080/1/3 1075/1/3 1074/1/3
f 1081/3/3 1077/3/3 1076/3/3
f 1081/3/3 1078/3/3 1077/3/3
f 1082/3/3 1078/3/3 1081/3/3
f 1083/3/3 1078/3/3 1082/3/3
f 1084/3/3 1068/3/3 1079/3/3
f 1085/3/3 1068/3/3 1084/3/3
f 1086/1/3 1080/1/3 1074/1/3
f 1086/3/3 1074/3/3 1073/3/3
f 1087/3/3 1082/3/3 1081/3/3
f 1087/1/3 1080/1/3 1086/1/3
f 1087/3/3 1081/3/3 1080/3/3
f 1088/3/3 1082/3/3 1087/3/3
f 1089/3/3 1082/3/3 1088/3/3
f 1090/3/3 1082/3/3 1089/3/3
f 1091/1/3 1073/1/3 1072/1/3
f 1092/3/3 1086/3/3 1073/3/3
f 1092/1/3 1073/1/3 1091/1/3
f 1093/3/3 1086/3/3 1092/3/3
f 1094/3/3 1089/3/3 1088/3/3
f 1095/3/3 1089/3/3 1094/3/3
f 1104/2/3 1097/2/3 1096/2/3
f 1105/3/3 1098/3/3 1097/3/3
f 1105/2/3 1097/2/3 1104/2/3
f 1106/2/3 1099/2/3 1098/2/3
f 1106/3/3 1098/3/3 1105/3/3
f 1107/3/3 1100/3/3 1099/3/3
f 1107/2/3 1099/2/3 1106/2/3
f 1108/2/3 1101/2/3 1100/2/3
f 1108/3/3 1100/3/3 1107/3/3
f 1109/3/3 1102/3/3 1101/3/3
f 1109/2/3 1101/2/3 1108/2/3
f 1110/2/3 1103/2/3 1102/2/3
f 1110/3/3 1102/3/3 1109/3/3
f 1111/2/3 1103/2/3 1110/2/3
f 1114/6/3 1113/6/3 1112/6/3
f 1115/6/3 1113/6/3 1114/6/3
f 1123/3/3 1117/3/3 1116/3/3
f 1124/3/3 1117/3/3 1123/3/3
f 1125/3/3 1119/3/3 1118/3/3
f 1126/6/3 1120/6/3 1119/6/3
f 1126/3/3 1119/3/3 1125/3/3
f 1127/6/3 1120/6/3 1126/6/3
f 1128/3/3 1122/3/3 1121/3/3
f 1129/3/3 1122/3/3 1128/3/3
f 1133/3/3 1131/3/3 1130/3/3
f 1134/3/3 1131/3/3 1133/3/3
f 1138/3/3 1133/3/3 1132/3/3
f 1138/3/3 1136/3/3 1135/3/3
f 1138/3/3 1135/3/3 1134/3/3
f 1138/3/3 1134/3/3 1133/3/3
f 1139/3/3 1136/3/3 1138/3/3
f 1143/3/3 1138/3/3 1137/3/3
f 1144/3/3 1138/3/3 1143/3/3
f 1145/2/3 1141/2/3 1140/2/3
f 1146/3/3 1142/3/3 1141/3/3
f 1146/2/3 1141/2/3 1145/2/3
f 1147/3/3 1142/3/3 1146/3/3
f 1151/4/3 1149/4/3 1148/4/3
f 1152/5/3 1150/5/3 1149/5/3
f 1152/4/3 1149/4/3 1151/4/3
f 1153/5/3 1150/5/3 1152/5/3
f 1157/6/3 1155/6/3 1154/6/3
f 1158/6/3 1155/6/3 1157/6/3
f 1159/3/3 1157/3/3 1156/3/3
f 1160/3/3 1157/3/3 1159/3/3
f 1166/3/3 1162/3/3 1161/3/3
f 1167/3/3 1162/3/3 1166/3/3
f 1169/3/3 1164/3/3 1163/3/3
f 1170/3/3 1164/3/3 1169/3/3
f 1171/3/3 1164/3/3 1170/3/3
f 1172/3/3 1166/3/3 1165/3/3
f 1173/3/3 1166/3/3 1172/3/3
f 1174/3/3 1169/3/3 1168/3/3
f 1174/3/3 1170/3/3 1169/3/3
f 1175/3/3 1170/3/3 1174/3/3
f 1179/3/3 1174/3/3 1168/3/3
f 1180/3/3 1174/3/3 1179/3/3
f 1181/4/3 1177/4/3 1176/4/3
f 1182/5/3 1178/5/3 1177/5/3
f 1182/4/3 1177/4/3 1181/4/3
f 1183/5/3 1178/5/3 1182/5/3
f 1192/2/3 1185/2/3 1184/2/3
f 1193/3/3 1186/3/3 1185/3/3
f 1193/2/3 1185/2/3 1192/2/3
f 1194/2/3 1187/2/3 1186/2/3
f 1194/3/3 1186/3/3 1193/3/3
f 1195/3/3 1188/3/3 1187/3/3
f 1195/2/3 1187/2/3 1194/2/3
f 1196/2/3 1189/2/3 1188/2/3
f 1196/3/3 1188/3/3 1195/3/3
f 1197/3/3 1190/3/3 1189/3/3
f 1197/2/3 1189/2/3 1196/2/3
f 1198/2/3 1191/2/3 1190/2/3
f 1198/3/3 1190/3/3 1197/3/3
f 1199/2/3 1191/2/3 1198/2/3
f 1202/6/3 1201/6/3 1200/6/3
f 1203/6/3 1201/6/3 1202/6/3
f 1206/6/3 1205/6/3 1204/6/3
f 1207/6/3 1205/6/3 1206/6/3
f 1213/6/3 1209/6/3 1208/6/3
f 1214/3/3 1210/3/3 1209/3/3
f 1214/6/3 1209/6/3 1213/6/3
f 1215/3/3 1210/3/3 1214/3/3
f 1216/3/3 1212/3/3 1211/3/3
f 1217/3/3 1212/3/3 1216/3/3
f 1226/3/3 1219/3/3 1218/3/3
f 1227/3/3 1219/3/3 1226/3/3
f 1229/6/3 1221/6/3 1220/6/3
f 1230/3/3 1222/3/3 1221/3/3
f 1230/6/3 1221/6/3 1229/6/3
f 1231/3/3 1222/3/3 1230/3/3
f 1232/3/3 1224/3/3 1223/3/3
f 1233/3/3 1224/3/3 1232/3/3
f 1234/3/3 1224/3/3 1233/3/3
f 1235/3/3 1226/3/3 1225/3/3
f 1236/3/3 1226/3/3 1235/3/3
f 1238/3/3 1229/3/3 1228/3/3
f 1239/3/3 1233/3/3 1232/3/3
f 1240/3/3 1233/3/3 1239/3/3
f 1241/2/3 1238/2/3 1237/2/3
f 1242/3/3 1229/3/3 1238/3/3
f 1242/2/3 1238/2/3 1241/2/3
f 1243/3/3 1229/3/3 1242/3/3
f 1246/3/3 1245/3/3 1244/3/3
f 1247/3/3 1245/3/3 1246/3/3
f 1250/6/3 1249/6/3 1248/6/3
f 1251/6/3 1249/6/3 1250/6/3
f 1254/3/3 1253/3/3 1252/3/3
f 1255/3/3 1253/3/3 1254/3/3
f 1260/3/3 1257/3/3 1256/3/3
f 1261/3/3 1257/3/3 1260/3/3
f 1262/3/3 1259/3/3 1258/3/3
f 1263/3/3 1259/3/3 1262/3/3
f 1267/3/3 1265/3/3 1264/3/3
f 1268/3/3 1265/3/3 1267/3/3
f 1269/3/3 1267/3/3 1266/3/3
f 1270/3/3 1267/3/3 1269/3/3
f 1273/3/3 1272/3/3 1271/3/3
f 1274/3/3 1272/3/3 1273/3/3
f 1275/3/3 1272/3/3 1274/3/3
f 1276/3/3 1274/3/3 1273/3/3
f 1277/3/3 1274/3/3 1276/3/3
f 1280/3/3 1279/3/3 1278/3/3
f 1281/3/3 1279/3/3 1280/3/3
f 1286/3/3 1283/3/3 1282/3/3
f 1287/3/3 1283/3/3 1286/3/3
f 1289/3/3 1285/3/3 1284/3/3
f 1290/3/3 1285/3/3 1289/3/3
f 1291/3/3 1289/3/3 1288/3/3
f 1292/3/3 1289/3/3 1291/3/3
f 1295/3/3 1294/3/3 1293/3/3
f 1296/3/3 1294/3/3 1295/3/3
f 1300/4/3 1298/4/3 1297/4/3
f 1301/5/3 1299/5/3 1298/5/3
f 1301/4/3 1298/4/3 1300/4/3
f 1302/5/3 1299/5/3 1301/5/3
f 1306/6/3 1304/6/3 1303/6/3
f 1307/6/3 1304/6/3 1306/6/3
f 1308/3/3 1306/3/3 1305/3/3
f 1309/3/3 1306/3/3 1308/3/3
f 1312/3/3 1311/3/3 1310/3/3
f 1313/3/3 1311/3/3 1312/3/3
f 1319/3/3 1318/3/3 1317/3/3
f 1320/3/3 1318/3/3 1319/3/3
f 1321/4/3 1315/4/3 1314/4/3
f 1322/5/3 1316/5/3 1315/5/3
f 1322/4/3 1315/4/3 1321/4/3
f 1323/5/3 1316/5/3 1322/5/3
f 1326/3/3 1325/3/3 1324/3/3
f 1327/3/3 1325/3/3 1326/3/3
f 1331/2/3 1329/2/3 1328/2/3
f 1332/2/3 1329/2/3 1331/2/3
f 1333/3/3 1331/3/3 1330/3/3
f 1334/6/3 1332/6/3 1331/6/3
f 1334/3/3 1331/3/3 1333/3/3
f 1335/6/3 1332/6/3 1334/6/3
f 1338/3/3 1337/3/3 1336/3/3
f 1339/3/3 1337/3/3 1338/3/3
f 1343/6/3 1341/6/3 1340/6/3
f 1343/3/3 1342/3/3 1341/3/3
f 1344/3/3 1342/3/3 1343/3/3
f 1345/6/3 1343/6/3 1340/6/3
f 1346/6/3 1343/6/3 1345/6/3
f 1350/3/3 1348/3/3 1347/3/3
f 1351/3/3 1348/3/3 1350/3/3
f 1355/3/3 1350/3/3 1349/3/3
f 1356/3/3 1350/3/3 1355/3/3
f 1357/3/3 1353/3/3 1352/3/3
f 1358/2/3 1354/2/3 1353/2/3
f 1358/3/3 1353/3/3 1357/3/3
f 1359/2/3 1354/2/3 1358/2/3
f 1362/3/3 1361/3/3 1360/3/3
f 1363/3/3 1361/3/3 1362/3/3
f 1367/3/3 1365/3/3 1364/3/3
f 1368/3/3 1365/3/3 1367/3/3
f 1369/3/3 1367/3/3 1366/3/3
f 1370/3/3 1367/3/3 1369/3/3
f 1373/3/3 1372/3/3 1371/3/3
f 1374/3/3 1372/3/3 1373/3/3
f 1376/2/3 1375/2/3 1374/2/3
f 1377/2/3 1375/2/3 1376/2/3
f 1378/5/4 1379/5/4 1380/5/4
f 1380/5/4 1379/5/4 1381/5/4
f 1382/2/4 1383/2/4 1384/2/4
f 1384/2/4 1383/2/4 1385/2/4
f 1386/3/4 1387/3/4 1388/3/4
f 1388/3/4 1387/3/4 1389/3/4
f 1390/3/4 1391/3/4 1392/3/4
f 1392/3/4 1391/3/4 1393/3/4
f 1394/6/4 1395/6/4 1396/6/4
f 1396/6/4 1395/6/4 1397/6/4
f 1398/6/4 1399/6/4 1400/6/4
f 1400/6/4 1399/6/4 1401/6/4
f 1402/6/4 1403/6/4 1404/6/4
f 1404/6/4 1403/6/4 1405/6/4
f 1406/3/4 1407/3/4 1410/3/4
f 1410/3/4 1407/3/4 1411/3/4
f 1408/3/4 1409/3/4 1414/3/4
f 1414/3/4 1409/3/4 1415/3/4
f 1412/3/4 1413/3/4 1416/3/4
f 1416/3/4 1413/3/4 1417/3/4
f 1418/2/4 1419/2/4 1420/2/4
f 1420/2/4 1419/2/4 1421/2/4
f 1422/6/4 1423/6/4 1424/6/4
f 1424/6/4 1423/6/4 1425/6/4
f 1426/4/4 1427/4/4 1429/4/4
f 1427/5/4 1428/5/4 1430/5/4
f 1429/4/4 1427/4/4 1430/4/4
f 1430/5/4 1428/5/4 1431/5/4
f 1432/3/4 1433/3/4 1435/3/4
f 1434/6/4 1435/6/4 1436/6/4
f 1435/3/4 1433/3/4 1437/3/4
f 1436/6/4 1435/6/4 1437/6/4
f 1437/3/4 1433/3/4 1438/3/4
f 1442/3/4 1443/3/4 1445/3/4
f 1445/3/4 1443/3/4 1446/3/4
f 1439/4/4 1440/4/4 1447/4/4
f 1440/5/4 1441/5/4 1448/5/4
f 1447/4/4 1440/4/4 1448/4/4
f 1448/5/4 1441/5/4 1449/5/4
f 1444/3/4 1445/3/4 1452/3/4
f 1452/3/4 1445/3/4 1453/3/4
f 1450/3/4 1451/3/4 1454/3/4
f 1454/3/4 1451/3/4 1455/3/4
f 1456/6/4 1457/6/4 1458/6/4
f 1458/6/4 1457/6/4 1459/6/4
f 1460/6/4 1461/6/4 1463/6/4
f 1463/6/4 1461/6/4 1464/6/4
f 1462/3/4 1463/3/4 1464/3/4
f 1464/6/4 1461/6/4 1465/6/4
f 1462/3/4 1464/3/4 1466/3/4
f 1466/3/4 1464/3/4 1467/3/4
f 1468/3/4 1469/3/4 1470/3/4
f 1470/3/4 1469/3/4 1471/3/4
f 1472/3/4 1473/3/4 1474/3/4
f 1474/3/4 1473/3/4 1475/3/4
f 1476/6/4 1477/6/4 1478/6/4
f 1478/6/4 1477/6/4 1479/6/4
f 1480/3/4 1481/3/4 1482/3/4
f 1482/3/4 1481/3/4 1483/3/4
f 1484/1/4 1485/1/4 1487/1/4
f 1487/1/4 1485/1/4 1488/1/4
f 1486/3/4 1487/3/4 1489/3/4
f 1489/3/4 1487/3/4 1490/3/4
f 1491/3/4 1492/3/4 1493/3/4
f 1493/3/4 1492/3/4 1494/3/4
f 1495/6/4 1496/6/4 1497/6/4
f 1497/6/4 1496/6/4 1498/6/4
f 1499/3/4 1500/3/4 1501/3/4
f 1501/3/4 1500/3/4 1502/3/4
f 1503/3/4 1504/3/4 1506/3/4
f 1506/3/4 1504/3/4 1507/3/4
f 1505/3/4 1506/3/4 1509/3/4
f 1509/3/4 1506/3/4 1510/3/4
f 1508/3/4 1509/3/4 1512/3/4
f 1512/3/4 1509/3/4 1513/3/4
f 1511/3/4 1512/3/4 1514/3/4
f 1514/3/4 1512/3/4 1515/3/4
f 1516/3/4 1517/3/4 1518/3/4
f 1518/3/4 1517/3/4 1519/3/4
f 1520/6/4 1521/6/4 1522/6/4
f 1522/6/4 1521/6/4 1523/6/4
f 1524/3/4 1525/3/4 1526/3/4
f 1526/3/4 1525/3/4 1527/3/4
f 1528/3/4 1529/3/4 1530/3/4
f 1530/3/4 1529/3/4 1531/3/4
f 1532/3/4 1533/3/4 1534/3/4
f 1534/3/4 1533/3/4 1535/3/4
f 1536/1/4 1537/1/4 1543/1/4
f 1537/3/4 1538/3/4 1544/3/4
f 1543/1/4 1537/1/4 1544/1/4
f 1538/1/4 1539/1/4 1545/1/4
f 1544/3/4 1538/3/4 1545/3/4
f 1539/3/4 1540/3/4 1546/3/4
f 1545/1/4 1539/1/4 1546/1/4
f 1540/1/4 1541/1/4 1547/1/4
f 1546/3/4 1540/3/4 1547/3/4
f 1541/3/4 1542/3/4 1548/3/4
f 1547/1/4 1541/1/4 1548/1/4
f 1548/3/4 1542/3/4 1549/3/4
f 1550/6/4 1551/6/4 1552/6/4
f 1552/6/4 1551/6/4 1553/6/4
f 1554/6/4 1555/6/4 1556/6/4
f 1556/6/4 1555/6/4 1557/6/4
f 1558/3/4 1559/3/4 1560/3/4
f 1560/3/4 1559/3/4 1561/3/4
f 1562/3/4 1563/3/4 1566/3/4
f 1563/6/4 1564/6/4 1567/6/4
f 1566/3/4 1563/3/4 1567/3/4
f 1567/6/4 1564/6/4 1568/6/4
f 1565/1/4 1566/1/4 1571/1/4
f 1571/1/4 1566/1/4 1572/1/4
f 1569/3/4 1570/3/4 1573/3/4
f 1573/3/4 1570/3/4 1574/3/4
f 1575/6/4 1576/6/4 1580/6/4
f 1580/6/4 1576/6/4 1581/6/4
f 1578/5/4 1579/5/4 1582/5/4
f 1577/4/4 1578/4/4 1583/4/4
f 1578/5/4 1582/5/4 1584/5/4
f 1583/4/4 1578/4/4 1584/4/4
f 1584/5/4 1582/5/4 1585/5/4
f 1586/3/4 1587/3/4 1589/3/4
f 1589/3/4 1587/3/4 1590/3/4
f 1588/3/4 1589/3/4 1592/3/4
f 1592/3/4 1589/3/4 1593/3/4
f 1591/3/4 1592/3/4 1594/3/4
f 1594/3/4 1592/3/4 1595/3/4
f 1596/4/4 1597/4/4 1601/4/4
f 1597/5/4 1598/5/4 1602/5/4
f 1601/4/4 1597/4/4 1602/4/4
f 1602/5/4 1598/5/4 1603/5/4
f 1599/3/4 1600/3/4 1604/3/4
f 1604/3/4 1600/3/4 1605/3/4
f 1606/1/4 1607/1/4 1614/1/4
f 1607/3/4 1608/3/4 1615/3/4
f 1614/1/4 1607/1/4 1615/1/4
f 1608/1/4 1609/1/4 1616/1/4
f 1615/3/4 1608/3/4 1616/3/4
f 1609/3/4 1610/3/4 1617/3/4
f 1616/1/4 1609/1/4 1617/1/4
f 1610/1/4 1611/1/4 1618/1/4
f 1617/3/4 1610/3/4 1618/3/4
f 1611/3/4 1612/3/4 1619/3/4
f 1618/1/4 1611/1/4 1619/1/4
f 1612/1/4 1613/1/4 1620/1/4
f 1619/3/4 1612/3/4 1620/3/4
f 1620/1/4 1613/1/4 1621/1/4
f 1622/3/4 1623/3/4 1624/3/4
f 1624/3/4 1623/3/4 1625/3/4
f 1626/3/4 1627/3/4 1633/3/4
f 1633/3/4 1627/3/4 1634/3/4
f 1628/3/4 1629/3/4 1636/3/4
f 1636/3/4 1629/3/4 1637/3/4
f 1637/3/4 1629/3/4 1638/3/4
f 1630/3/4 1631/3/4 1639/3/4
f 1639/3/4 1631/3/4 1640/3/4
f 1640/3/4 1631/3/4 1641/3/4
f 1632/3/4 1633/3/4 1642/3/4
f 1642/3/4 1633/3/4 1643/3/4
f 1635/3/4 1636/3/4 1648/3/4
f 1648/3/4 1636/3/4 1649/3/4
f 1637/3/4 1638/3/4 1650/3/4
f 1650/3/4 1638/3/4 1651/3/4
f 1639/3/4 1640/3/4 1652/3/4
f 1652/3/4 1640/3/4 1653/3/4
f 1644/2/4 1645/2/4 1654/2/4
f 1645/3/4 1646/3/4 1655/3/4
f 1654/2/4 1645/2/4 1655/2/4
f 1646/2/4 1647/2/4 1656/2/4
f 1655/3/4 1646/3/4 1656/3/4
f 1648/3/4 1649/3/4 1657/3/4
f 1656/2/4 1647/2/4 1657/2/4
f 1647/3/4 1648/3/4 1657/3/4
f 1657/3/4 1649/3/4 1658/3/4
f 1659/1/4 1660/1/4 1666/1/4
f 1660/3/4 1661/3/4 1667/3/4
f 1666/1/4 1660/1/4 1667/1/4
f 1661/1/4 1662/1/4 1668/1/4
f 1667/3/4 1661/3/4 1668/3/4
f 1662/3/4 1663/3/4 1669/3/4
f 1668/1/4 1662/1/4 1669/1/4
f 1663/1/4 1664/1/4 1670/1/4
f 1669/3/4 1663/3/4 1670/3/4
f 1664/3/4 1665/3/4 1671/3/4
f 1670/1/4 1664/1/4 1671/1/4
f 1671/3/4 1665/3/4 1672/3/4
f 1673/6/4 1674/6/4 1677/6/4
f 1677/6/4 1674/6/4 1678/6/4
f 1675/3/4 1676/3/4 1679/3/4
f 1679/3/4 1676/3/4 1680/3/4
f 1680/3/4 1681/3/4 1683/3/4
f 1683/3/4 1681/3/4 1684/3/4
f 1682/3/4 1683/3/4 1690/3/4
f 1683/3/4 1684/3/4 1690/3/4
f 1690/3/4 1684/3/4 1691/3/4
f 1685/3/4 1686/3/4 1694/3/4
f 1687/3/4 1688/3/4 1696/3/4
f 1689/3/4 1690/3/4 1697/3/4
f 1697/3/4 1690/3/4 1698/3/4
f 1692/3/4 1693/3/4 1703/3/4
f 1703/3/4 1693/3/4 1704/3/4
f 1694/3/4 1695/3/4 1705/3/4
f 1685/3/4 1694/3/4 1705/3/4
f 1705/3/4 1695/3/4 1706/3/4
f 1687/3/4 1696/3/4 1707/3/4
f 1696/3/4 1697/3/4 1707/3/4
f 1707/3/4 1697/3/4 1708/3/4
f 1702/3/4 1703/3/4 1709/3/4
f 1709/3/4 1703/3/4 1710/3/4
f 1704/3/4 1705/3/4 1712/3/4
f 1712/3/4 1705/3/4 1713/3/4
f 1706/3/4 1707/3/4 1714/3/4
f 1714/3/4 1707/3/4 1715/3/4
f 1699/1/4 1700/1/4 1716/1/4
f 1700/3/4 1701/3/4 1717/3/4
f 1716/1/4 1700/1/4 1717/1/4
f 1701/1/4 1702/1/4 1718/1/4
f 1717/3/4 1701/3/4 1718/3/4
f 1702/3/4 1709/3/4 1719/3/4
f 1718/1/4 1702/1/4 1719/1/4
f 1719/3/4 1709/3/4 1720/3/4
f 1710/3/4 1711/3/4 1721/3/4
f 1721/3/4 1711/3/4 1722/3/4
f 1727/2/4 1728/2/4 1730/2/4
f 1728/3/4 1729/3/4 1730/3/4
f 1730/3/4 1729/3/4 1731/3/4
f 1723/2/4 1724/2/4 1733/2/4
f 1724/3/4 1725/3/4 1734/3/4
f 1733/2/4 1724/2/4 1734/2/4
f 1725/2/4 1726/2/4 1735/2/4
f 1734/3/4 1725/3/4 1735/3/4
f 1726/3/4 1727/3/4 1736/3/4
f 1735/2/4 1726/2/4 1736/2/4
f 1736/3/4 1727/3/4 1737/3/4
f 1737/3/4 1727/3/4 1738/3/4
f 1738/3/4 1727/3/4 1739/3/4
f 1739/3/4 1727/3/4 1740/3/4
f 1740/3/4 1727/3/4 1741/3/4
f 1741/3/4 1727/3/4 1742/3/4
f 1727/2/4 1730/2/4 1743/2/4
f 1742/3/4 1727/3/4 1743/3/4
f 1743/2/4 1730/2/4 1744/2/4
f 1731/2/4 1732/2/4 1745/2/4
f 1745/2/4 1732/2/4 1746/2/4
f 1737/3/4 1738/3/4 1747/3/4
f 1747/3/4 1738/3/4 1748/3/4
f 1739/3/4 1740/3/4 1749/3/4
f 1749/3/4 1740/3/4 1750/3/4
f 1750/3/4 1740/3/4 1751/3/4
f 1741/3/4 1742/3/4 1752/3/4
f 1752/3/4 1742/3/4 1753/3/4
f 1753/3/4 1742/3/4 1754/3/4
f 1754/3/4 1742/3/4 1755/3/4
f 1748/3/4 1749/3/4 1756/3/4
f 1756/3/4 1749/3/4 1757/3/4
f 1750/3/4 1751/3/4 1758/3/4
f 1752/3/4 1753/3/4 1759/3/4
f 1754/3/4 1755/3/4 1760/3/4
f 1757/3/4 1758/3/4 1762/3/4
f 1758/3/4 1751/3/4 1762/3/4
f 1762/3/4 1751/3/4 1763/3/4
f 1759/3/4 1753/3/4 1765/3/4
f 1754/3/4 1760/3/4 1766/3/4
f 1760/3/4 1761/3/4 1766/3/4
f 1766/3/4 1761/3/4 1767/3/4
f 1757/3/4 1762/3/4 1769/3/4
f 1769/3/4 1762/3/4 1770/3/4
f 1763/3/4 1764/3/4 1771/3/4
f 1771/3/4 1764/3/4 1772/3/4
f 1759/3/4 1765/3/4 1775/3/4
f 1765/3/4 1766/3/4 1775/3/4
f 1775/3/4 1766/3/4 1776/3/4
f 1776/3/4 1766/3/4 1777/3/4
f 1767/3/4 1761/3/4 1778/3/4
f 1778/3/4 1761/3/4 1779/3/4
f 1773/3/4 1774/3/4 1784/3/4
f 1769/3/4 1770/3/4 1784/3/4
f 1772/3/4 1773/3/4 1784/3/4
f 1768/3/4 1769/3/4 1784/3/4
f 1770/3/4 1771/3/4 1784/3/4
f 1775/3/4 1776/3/4 1784/3/4
f 1774/3/4 1775/3/4 1784/3/4
f 1771/3/4 1772/3/4 1784/3/4
f 1784/3/4 1776/3/4 1785/3/4
f 1785/3/4 1776/3/4 1786/3/4
f 1786/3/4 1776/3/4 1787/3/4
f 1787/3/4 1776/3/4 1788/3/4
f 1788/3/4 1776/3/4 1789/3/4
f 1789/3/4 1776/3/4 1790/3/4
f 1780/2/4 1781/2/4 1791/2/4
f 1781/3/4 1782/3/4 1792/3/4
f 1791/2/4 1781/2/4 1792/2/4
f 1782/2/4 1783/2/4 1793/2/4
f 1792/3/4 1782/3/4 1793/3/4
f 1783/3/4 1784/3/4 1794/3/4
f 1793/2/4 1783/2/4 1794/2/4
f 1784/3/4 1785/3/4 1794/3/4
f 1794/3/4 1785/3/4 1795/3/4
f 1795/3/4 1785/3/4 1796/3/4
f 1786/3/4 1787/3/4 1797/3/4
f 1797/3/4 1787/3/4 1798/3/4
f 1788/3/4 1789/3/4 1799/3/4
f 1799/3/4 1789/3/4 1800/3/4
f 1791/1/4 1792/1/4 1801/1/4
f 1792/3/4 1793/3/4 1802/3/4
f 1801/1/4 1792/1/4 1802/1/4
f 1793/1/4 1794/1/4 1803/1/4
f 1802/3/4 1793/3/4 1803/3/4
f 1794/3/4 1795/3/4 1804/3/4
f 1803/1/4 1794/1/4 1804/1/4
f 1804/3/4 1795/3/4 1805/3/4
f 1796/3/4 1785/3/4 1806/3/4
f 1806/3/4 1785/3/4 1807/3/4
f 1798/3/4 1787/3/4 1808/3/4
f 1808/3/4 1787/3/4 1809/3/4
f 1810/1/4 1811/1/4 1821/1/4
f 1811/3/4 1812/3/4 1822/3/4
f 1821/1/4 1811/1/4 1822/1/4
f 1812/1/4 1813/1/4 1823/1/4
f 1822/3/4 1812/3/4 1823/3/4
f 1813/3/4 1814/3/4 1824/3/4
f 1823/1/4 1813/1/4 1824/1/4
f 1824/3/4 1814/3/4 1825/3/4
f 1815/3/4 1816/3/4 1826/3/4
f 1826/3/4 1816/3/4 1827/3/4
f 1817/3/4 1818/3/4 1829/3/4
f 1829/3/4 1818/3/4 1830/3/4
f 1830/3/4 1818/3/4 1831/3/4
f 1819/3/4 1820/3/4 1832/3/4
f 1832/3/4 1820/3/4 1833/3/4
f 1824/5/4 1825/5/4 1834/5/4
f 1825/4/4 1826/4/4 1835/4/4
f 1834/5/4 1825/5/4 1835/5/4
f 1835/4/4 1826/4/4 1836/4/4
f 1827/5/4 1828/5/4 1837/5/4
f 1837/5/4 1828/5/4 1838/5/4
f 1829/4/4 1830/4/4 1839/4/4
f 1830/5/4 1831/5/4 1840/5/4
f 1839/4/4 1830/4/4 1840/4/4
f 1840/5/4 1831/5/4 1841/5/4
f 1841/5/4 1831/5/4 1842/5/4
f 1832/5/4 1833/5/4 1843/5/4
f 1843/5/4 1833/5/4 1844/5/4
f 1835/4/4 1836/4/4 1845/4/4
f 1824/5/4 1834/5/4 1845/5/4
f 1834/4/4 1835/4/4 1845/4/4
f 1836/4/4 1837/4/4 1845/4/4
f 1845/4/4 1837/4/4 1846/4/4
f 1829/4/4 1839/4/4 1848/4/4
f 1840/5/4 1841/5/4 1849/5/4
f 1839/5/4 1840/5/4 1849/5/4
f 1848/4/4 1839/4/4 1849/4/4
f 1849/5/4 1841/5/4 1850/5/4
f 1821/4/4 1822/4/4 1851/4/4
f 1822/5/4 1823/5/4 1852/5/4
f 1851/4/4 1822/4/4 1852/4/4
f 1823/4/4 1824/4/4 1853/4/4
f 1852/5/4 1823/5/4 1853/5/4
f 1824/5/4 1845/5/4 1854/5/4
f 1853/4/4 1824/4/4 1854/4/4
f 1845/5/4 1846/5/4 1854/5/4
f 1846/4/4 1837/4/4 1855/4/4
f 1854/5/4 1846/5/4 1855/5/4
f 1855/4/4 1837/4/4 1856/4/4
f 1856/4/4 1837/4/4 1857/4/4
f 1847/5/4 1848/5/4 1858/5/4
f 1858/5/4 1848/5/4 1859/5/4
f 1849/4/4 1850/4/4 1860/4/4
f 1850/5/4 1841/5/4 1861/5/4
f 1860/4/4 1850/4/4 1861/4/4
f 1841/4/4 1842/4/4 1862/4/4
f 1861/5/4 1841/5/4 1862/5/4
f 1862/4/4 1842/4/4 1863/4/4
f 1851/2/4 1852/2/4 1864/2/4
f 1852/3/4 1853/3/4 1865/3/4
f 1864/2/4 1852/2/4 1865/2/4
f 1853/2/4 1854/2/4 1866/2/4
f 1865/3/4 1853/3/4 1866/3/4
f 1855/3/4 1856/3/4 1867/3/4
f 1866/2/4 1854/2/4 1867/2/4
f 1854/3/4 1855/3/4 1867/3/4
f 1867/3/4 1856/3/4 1868/3/4
f 1873/4/5 1870/4/5 1869/4/5
f 1874/4/5 1870/4/5 1873/4/5
f 1875/4/5 1872/4/5 1871/4/5
f 1876/4/5 1872/4/5 1875/4/5
f 1881/4/5 1878/4/5 1877/4/5
f 1882/4/5 1878/4/5 1881/4/5
f 1883/4/5 1880/4/5 1879/4/5
f 1884/4/5 1880/4/5 1883/4/5
f 1889/1/5 1886/1/5 1885/1/5
f 1890/4/5 1887/4/5 1886/4/5
f 1890/1/5 1886/1/5 1889/1/5
f 1891/4/5 1887/4/5 1890/4/5
f 1895/2/5 1889/2/5 1888/2/5
f 1896/6/5 1890/6/5 1889/6/5
f 1896/6/5 1891/6/5 1890/6/5
f 1896/2/5 1889/2/5 1895/2/5
f 1896/6/5 1892/6/5 1891/6/5
f 1897/1/5 1893/1/5 1892/1/5
f 1900/2/5 1895/2/5 1894/2/5
f 1901/6/5 1896/6/5 1895/6/5
f 1901/2/5 1895/2/5 1900/2/5
f 1902/6/5 1892/6/5 1896/6/5
f 1902/6/5 1896/6/5 1901/6/5
f 1902/1/5 1898/1/5 1897/1/5
f 1902/1/5 1897/1/5 1892/1/5
f 1903/1/5 1898/1/5 1902/1/5
f 1905/6/5 1901/6/5 1900/6/5
f 1905/6/5 1902/6/5 1901/6/5
f 1905/6/5 1903/6/5 1902/6/5
f 1906/6/5 1903/6/5 1905/6/5
f 1907/6/5 1903/6/5 1906/6/5
f 1908/2/5 1904/2/5 1903/2/5
f 1908/6/5 1903/6/5 1907/6/5
f 1910/2/5 1900/2/5 1899/2/5
f 1911/6/5 1905/6/5 1900/6/5
f 1911/2/5 1900/2/5 1910/2/5
f 1912/2/5 1904/2/5 1908/2/5
f 1913/2/5 1904/2/5 1912/2/5
f 1915/6/5 1905/6/5 1911/6/5
f 1915/6/5 1911/6/5 1910/6/5
f 1916/6/5 1907/6/5 1906/6/5
f 1917/6/5 1907/6/5 1916/6/5
f 1918/6/5 1913/6/5 1912/6/5
f 1919/2/5 1914/2/5 1913/2/5
f 1919/6/5 1913/6/5 1918/6/5
f 1920/2/5 1914/2/5 1919/2/5
f 1921/2/5 1910/2/5 1909/2/5
f 1922/6/5 1915/6/5 1910/6/5
f 1922/2/5 1910/2/5 1921/2/5
f 1922/6/5 1918/6/5 1917/6/5
f 1922/6/5 1917/6/5 1916/6/5
f 1922/6/5 1919/6/5 1918/6/5
f 1922/6/5 1916/6/5 1915/6/5
f 1923/6/5 1919/6/5 1922/6/5
f 1924/6/5 1919/6/5 1923/6/5
f 1925/6/5 1919/6/5 1924/6/5
f 1926/6/5 1919/6/5 1925/6/5
f 1927/1/5 1922/1/5 1921/1/5
f 1928/6/5 1923/6/5 1922/6/5
f 1928/1/5 1922/1/5 1927/1/5
f 1929/6/5 1923/6/5 1928/6/5
f 1930/6/5 1919/6/5 1926/6/5
f 1931/1/5 1920/1/5 1919/1/5
f 1931/6/5 1919/6/5 1930/6/5
f 1932/1/5 1920/1/5 1931/1/5
f 1933/2/5 1929/2/5 1928/2/5
f 1934/6/5 1923/6/5 1929/6/5
f 1934/2/5 1929/2/5 1933/2/5
f 1935/6/5 1923/6/5 1934/6/5
f 1937/6/5 1925/6/5 1924/6/5
f 1938/6/5 1925/6/5 1937/6/5
f 1939/2/5 1931/2/5 1930/2/5
f 1940/1/5 1936/1/5 1935/1/5
f 1940/1/5 1934/1/5 1933/1/5
f 1940/1/5 1935/1/5 1934/1/5
f 1941/1/5 1936/1/5 1940/1/5
f 1942/6/5 1939/6/5 1938/6/5
f 1942/6/5 1938/6/5 1937/6/5
f 1942/6/5 1937/6/5 1936/6/5
f 1943/2/5 1931/2/5 1939/2/5
f 1943/6/5 1939/6/5 1942/6/5
f 1944/2/5 1931/2/5 1943/2/5
f 1945/1/5 1936/1/5 1941/1/5
f 1946/6/5 1942/6/5 1936/6/5
f 1946/1/5 1936/1/5 1945/1/5
f 1947/6/5 1942/6/5 1946/6/5
f 1948/6/5 1942/6/5 1947/6/5
f 1949/1/5 1943/1/5 1942/1/5
f 1949/6/5 1942/6/5 1948/6/5
f 1950/1/5 1943/1/5 1949/1/5
f 1951/1/5 1943/1/5 1950/1/5
f 1952/2/5 1947/2/5 1946/2/5
f 1953/6/5 1948/6/5 1947/6/5
f 1953/2/5 1947/2/5 1952/2/5
f 1954/6/5 1948/6/5 1953/6/5
f 1955/6/5 1948/6/5 1954/6/5
f 1956/2/5 1949/2/5 1948/2/5
f 1956/6/5 1948/6/5 1955/6/5
f 1957/1/5 1950/1/5 1949/1/5
f 1957/2/5 1949/2/5 1956/2/5
f 1958/1/5 1950/1/5 1957/1/5
f 1959/1/5 1954/1/5 1953/1/5
f 1960/4/5 1955/4/5 1954/4/5
f 1960/1/5 1954/1/5 1959/1/5
f 1961/2/5 1956/2/5 1955/2/5
f 1961/4/5 1955/4/5 1960/4/5
f 1962/2/5 1956/2/5 1961/2/5
f 1965/3/5 1964/3/5 1963/3/5
f 1966/3/5 1964/3/5 1965/3/5
f 1969/3/5 1968/3/5 1967/3/5
f 1970/3/5 1968/3/5 1969/3/5
f 1973/3/5 1972/3/5 1971/3/5
f 1974/3/5 1972/3/5 1973/3/5
f 1977/3/5 1976/3/5 1975/3/5
f 1978/3/5 1976/3/5 1977/3/5
f 1981/3/5 1980/3/5 1979/3/5
f 1982/3/5 1980/3/5 1981/3/5
f 1985/3/5 1984/3/5 1983/3/5
f 1986/3/5 1984/3/5 1985/3/5
f 1989/3/5 1988/3/5 1987/3/5
f 1990/3/5 1988/3/5 1989/3/5
f 1993/3/5 1992/3/5 1991/3/5
f 1994/3/5 1992/3/5 1993/3/5
f 1997/3/5 1996/3/5 1995/3/5
f 1998/3/5 1996/3/5 1997/3/5
f 2001/4/5 2000/4/5 1999/4/5
f 2002/4/5 2000/4/5 2001/4/5
f 2005/3/5 2004/3/5 2003/3/5
f 2006/3/5 2004/3/5 2005/3/5
f 2010/3/5 2008/3/5 2007/3/5
f 2011/3/5 2008/3/5 2010/3/5
f 2014/3/5 2010/3/5 2009/3/5
f 2015/3/5 2010/3/5 2014/3/5
f 2016/3/5 2013/3/5 2012/3/5
f 2017/3/5 2013/3/5 2016/3/5
f 2020/3/5 2019/3/5 2018/3/5
f 2021/3/5 2019/3/5 2020/3/5
f 2024/5/5 2023/5/5 2022/5/5
f 2025/5/5 2023/5/5 2024/5/5
f 2030/3/5 2027/3/5 2026/3/5
f 2031/3/5 2027/3/5 2030/3/5
f 2032/5/5 2029/5/5 2028/5/5
f 2033/5/5 2029/5/5 2032/5/5
f 2036/3/5 2035/3/5 2034/3/5
f 2037/3/5 2035/3/5 2036/3/5
f 2041/3/5 2039/3/5 2038/3/5
f 2042/3/5 2039/3/5 2041/3/5
f 2046/3/5 2041/3/5 2040/3/5
f 2047/3/5 2041/3/5 2046/3/5
f 2048/3/5 2044/3/5 2043/3/5
f 2049/4/5 2045/4/5 2044/4/5
f 2049/3/5 2044/3/5 2048/3/5
f 2050/4/5 2045/4/5 2049/4/5
f 2053/4/5 2052/4/5 2051/4/5
f 2054/4/5 2052/4/5 2053/4/5
f 2057/3/5 2056/3/5 2055/3/5
f 2058/3/5 2056/3/5 2057/3/5
f 2062/4/5 2060/4/5 2059/4/5
f 2063/5/5 2061/5/5 2060/5/5
f 2063/4/5 2060/4/5 2062/4/5
f 2064/5/5 2061/5/5 2063/5/5
f 2067/3/5 2066/3/5 2065/3/5
f 2068/3/5 2066/3/5 2067/3/5
f 2071/3/5 2070/3/5 2069/3/5
f 2072/3/5 2070/3/5 2071/3/5
f 2075/3/5 2074/3/5 2073/3/5
f 2076/3/5 2074/3/5 2075/3/5
f 2079/5/5 2078/5/5 2077/5/5
f 2080/5/5 2078/5/5 2079/5/5
f 2083/3/5 2082/3/5 2081/3/5
f 2084/3/5 2082/3/5 2083/3/5
f 2090/3/5 2086/3/5 2085/3/5
f 2091/3/5 2086/3/5 2090/3/5
f 2092/3/5 2088/3/5 2087/3/5
f 2093/5/5 2089/5/5 2088/5/5
f 2093/3/5 2088/3/5 2092/3/5
f 2094/5/5 2089/5/5 2093/5/5
f 2097/2/5 2096/2/5 2095/2/5
f 2098/2/5 2096/2/5 2097/2/5
f 2099/2/6 2100/2/6 2101/2/6
f 2101/2/6 2100/2/6 2102/2/6
f 2103/1/6 2104/1/6 2106/1/6
f 2106/1/6 2104/1/6 2107/1/6
f 2105/2/6 2106/2/6 2108/2/6
f 2108/2/6 2106/2/6 2109/2/6
f 2110/3/6 2111/3/6 2112/3/6
f 2112/3/6 2111/3/6 2113/3/6
f 2112/3/6 2113/3/6 2115/3/6
f 2113/3/6 2114/3/6 2115/3/6
f 2115/3/6 2114/3/6 2116/3/6
f 2112/3/6 2115/3/6 2117/3/6
f 2117/3/6 2115/3/6 2118/3/6
f 2118/3/6 2119/3/6 2120/3/6
f 2120/3/6 2119/3/6 2121/3/6
f 2121/3/6 2119/3/6 2122/3/6
f 2122/3/6 2119/3/6 2123/3/6
f 2124/6/6 2125/6/6 2126/6/6
f 2126/6/6 2125/6/6 2127/6/6
f 2128/3/6 2129/3/6 2130/3/6
f 2130/3/6 2129/3/6 2131/3/6
f 2132/3/6 2133/3/6 2134/3/6
f 2134/3/6 2133/3/6 2135/3/6
f 2136/3/6 2137/3/6 2138/3/6
f 2138/3/6 2137/3/6 2139/3/6
f 2140/3/6 2141/3/6 2142/3/6
f 2142/3/6 2141/3/6 2143/3/6
f 2144/3/6 2145/3/6 2146/3/6
f 2146/3/6 2145/3/6 2147/3/6
f 2148/3/6 2149/3/6 2151/3/6
f 2151/3/6 2149/3/6 2152/3/6
f 2150/3/6 2151/3/6 2155/3/6
f 2155/3/6 2151/3/6 2156/3/6
f 2153/3/6 2154/3/6 2158/3/6
f 2158/3/6 2154/3/6 2159/3/6
f 2157/3/6 2158/3/6 2160/3/6
f 2160/3/6 2158/3/6 2161/3/6
f 2162/4/6 2163/4/6 2164/4/6
f 2164/4/6 2163/4/6 2165/4/6
f 2166/3/6 2167/3/6 2168/3/6
f 2168/3/6 2167/3/6 2169/3/6
f 2170/3/6 2171/3/6 2172/3/6
f 2172/3/6 2171/3/6 2173/3/6
f 2174/3/6 2175/3/6 2176/3/6
f 2176/3/6 2175/3/6 2177/3/6
f 2178/3/6 2179/3/6 2180/3/6
f 2180/3/6 2179/3/6 2181/3/6
f 2182/3/6 2183/3/6 2184/3/6
f 2184/3/6 2183/3/6 2185/3/6
f 2186/3/6 2187/3/6 2188/3/6
f 2188/3/6 2187/3/6 2189/3/6
f 2190/4/6 2191/4/6 2194/4/6
f 2194/4/6 2191/4/6 2195/4/6
f 2192/3/6 2193/3/6 2196/3/6
f 2196/3/6 2193/3/6 2197/3/6
f 2198/3/6 2199/3/6 2200/3/6
f 2200/3/6 2199/3/6 2201/3/6
f 2202/3/6 2203/3/6 2204/3/6
f 2204/3/6 2203/3/6 2205/3/6
f 2205/3/6 2206/3/6 2207/3/6
f 2207/3/6 2206/3/6 2208/3/6
f 2209/3/6 2210/3/6 2211/3/6
f 2211/3/6 2210/3/6 2212/3/6
f 2213/3/6 2214/3/6 2215/3/6
f 2215/3/6 2214/3/6 2216/3/6
f 2217/3/6 2218/3/6 2220/3/6
f 2220/3/6 2218/3/6 2221/3/6
f 2219/3/6 2220/3/6 2226/3/6
f 2226/3/6 2220/3/6 2227/3/6
f 2222/3/6 2223/3/6 2228/3/6
f 2228/3/6 2223/3/6 2229/3/6
f 2224/4/6 2225/4/6 2230/4/6
f 2230/4/6 2225/4/6 2231/4/6
f 2232/5/6 2233/5/6 2234/5/6
f 2234/5/6 2233/5/6 2235/5/6
f 2236/3/6 2237/3/6 2238/3/6
f 2238/3/6 2237/3/6 2239/3/6
f 2240/3/6 2241/3/6 2242/3/6
f 2242/3/6 2241/3/6 2243/3/6
f 2244/3/6 2245/3/6 2247/3/6
f 2247/3/6 2245/3/6 2248/3/6
f 2246/3/6 2247/3/6 2249/3/6
f 2249/3/6 2247/3/6 2250/3/6
f 2251/3/6 2252/3/6 2253/3/6
f 2253/3/6 2252/3/6 2254/3/6
f 2254/3/6 2255/3/6 2256/3/6
f 2256/3/6 2255/3/6 2257/3/6
f 2258/5/6 2259/5/6 2260/5/6
f 2260/5/6 2259/5/6 2261/5/6
f 2262/4/6 2263/4/6 2264/4/6
f 2264/4/6 2263/4/6 2265/4/6
f 2266/3/6 2267/3/6 2269/3/6
f 2269/3/6 2267/3/6 2270/3/6
f 2268/3/6 2269/3/6 2271/3/6
f 2271/3/6 2269/3/6 2272/3/6
f 2273/5/6 2274/5/6 2275/5/6
f 2275/5/6 2274/5/6 2276/5/6
f 2277/5/6 2278/5/6 2279/5/6
f 2279/5/6 2278/5/6 2280/5/6
f 2280/3/6 2281/3/6 2282/3/6
f 2282/3/6 2281/3/6 2283/3/6
f 2283/3/6 2284/3/6 2285/3/6
f 2285/3/6 2284/3/6 2286/3/6
f 2286/3/6 2284/3/6 2287/3/6
f 2286/3/6 2287/3/6 2288/3/6
f 2288/3/6 2287/3/6 2289/3/6
f 2289/3/6 2290/3/6 2291/3/6
f 2291/3/6 2290/3/6 2292/3/6
f 2292/3/6 2293/3/6 2295/3/6
f 2295/3/6 2293/3/6 2296/3/6
f 2294/3/6 2295/3/6 2297/3/6
f 2297/3/6 2295/3/6 2298/3/6
f 2299/3/6 2300/3/6 2301/3/6
f 2301/3/6 2300/3/6 2302/3/6
f 2303/3/6 2304/3/6 2306/3/6
f 2306/3/6 2304/3/6 2307/3/6
f 2305/3/6 2306/3/6 2308/3/6
f 2308/3/6 2306/3/6 2309/3/6
f 2310/3/6 2311/3/6 2314/3/6
f 2314/3/6 2311/3/6 2315/3/6
f 2312/3/6 2313/3/6 2317/3/6
f 2317/3/6 2313/3/6 2318/3/6
f 2316/3/6 2317/3/6 2319/3/6
f 2316/3/6 2319/3/6 2321/3/6
f 2319/3/6 2320/3/6 2321/3/6
f 2321/3/6 2320/3/6 2322/3/6
f 2316/3/6 2321/3/6 2323/3/6
f 2323/3/6 2321/3/6 2324/3/6
f 2325/3/6 2326/3/6 2327/3/6
f 2325/3/6 2327/3/6 2329/3/6
f 2327/3/6 2328/3/6 2329/3/6
f 2329/3/6 2328/3/6 2330/3/6
f 2330/3/6 2328/3/6 2331/3/6
f 2331/3/6 2328/3/6 2332/3/6
f 2333/3/6 2334/3/6 2335/3/6
f 2335/3/6 2334/3/6 2336/3/6
f 2337/3/6 2338/3/6 2340/3/6
f 2340/3/6 2338/3/6 2341/3/6
f 2339/3/6 2340/3/6 2343/3/6
f 2343/3/6 2340/3/6 2344/3/6
f 2342/3/6 2343/3/6 2345/3/6
f 2345/3/6 2343/3/6 2346/3/6
f 2347/5/6 2348/5/6 2349/5/6
f 2349/5/6 2348/5/6 2350/5/6
f 2351/3/6 2352/3/6 2353/3/6
f 2353/3/6 2352/3/6 2354/3/6
f 2354/3/6 2355/3/6 2356/3/6
f 2356/3/6 2355/3/6 2357/3/6
f 2357/3/6 2358/3/6 2359/3/6
f 2359/3/6 2358/3/6 2360/3/6
f 2361/3/6 2362/3/6 2363/3/6
f 2363/3/6 2362/3/6 2364/3/6
f 2365/3/6 2366/3/6 2369/3/6
f 2366/5/6 2367/5/6 2370/5/6
f 2369/3/6 2366/3/6 2370/3/6
f 2367/4/6 2368/4/6 2371/4/6
f 2370/5/6 2367/5/6 2371/5/6
f 2371/4/6 2368/4/6 2372/4/6
f 2373/3/6 2374/3/6 2375/3/6
f 2375/3/6 2374/3/6 2376/3/6
f 2377/3/6 2378/3/6 2379/3/6
f 2379/3/6 2378/3/6 2380/3/6
f 2381/3/6 2382/3/6 2386/3/6
f 2386/3/6 2382/3/6 2387/3/6
f 2383/3/6 2384/3/6 2388/3/6
f 2388/3/6 2384/3/6 2389/3/6
f 2385/3/6 2386/3/6 2390/3/6
f 2390/3/6 2386/3/6 2391/3/6
f 2392/4/6 2393/4/6 2394/4/6
f 2394/4/6 2393/4/6 2395/4/6
f 2396/3/6 2397/3/6 2398/3/6
f 2398/3/6 2397/3/6 2399/3/6
f 2399/3/6 2400/3/6 2401/3/6
f 2401/3/6 2400/3/6 2402/3/6
f 2403/3/6 2404/3/6 2405/3/6
f 2405/3/6 2404/3/6 2406/3/6
f 2407/3/6 2408/3/6 2410/3/6
f 2410/3/6 2408/3/6 2411/3/6
f 2409/3/6 2410/3/6 2412/3/6
f 2412/3/6 2410/3/6 2413/3/6
f 2414/3/6 2415/3/6 2416/3/6
f 2416/3/6 2415/3/6 2417/3/6
f 2418/3/6 2419/3/6 2420/3/6
f 2420/3/6 2419/3/6 2421/3/6
f 2422/3/6 2423/3/6 2424/3/6
f 2424/3/6 2423/3/6 2425/3/6
f 2426/3/6 2427/3/6 2428/3/6
f 2428/3/6 2427/3/6 2429/3/6
f 2430/3/6 2431/3/6 2433/3/6
f 2431/3/6 2432/3/6 2433/3/6
f 2433/3/6 2432/3/6 2434/3/6
f 2434/3/6 2432/3/6 2436/3/6
f 2436/3/6 2432/3/6 2437/3/6
f 2435/3/6 2436/3/6 2438/3/6
f 2438/3/6 2436/3/6 2439/3/6
f 2439/3/6 2440/3/6 2441/3/6
f 2441/3/6 2440/3/6 2442/3/6
f 2443/3/6 2444/3/6 2445/3/6
f 2445/3/6 2444/3/6 2446/3/6
f 2447/3/6 2448/3/6 2450/3/6
f 2448/3/6 2449/3/6 2450/3/6
f 2450/3/6 2449/3/6 2451/3/6
f 2447/3/6 2450/3/6 2453/3/6
f 2452/3/6 2453/3/6 2455/3/6
f 2453/3/6 2450/3/6 2456/3/6
f 2455/3/6 2453/3/6 2456/3/6
f 2456/3/6 2450/3/6 2457/3/6
f 2454/3/6 2455/3/6 2459/3/6
f 2455/3/6 2456/3/6 2459/3/6
f 2459/3/6 2456/3/6 2460/3/6
f 2458/3/6 2459/3/6 2463/3/6
f 2463/3/6 2459/3/6 2464/3/6
f 2460/3/6 2461/3/6 2465/3/6
f 2463/3/6 2464/3/6 2466/3/6
f 2464/3/6 2465/3/6 2466/3/6
f 2462/3/6 2463/3/6 2466/3/6
f 2466/3/6 2465/3/6 2467/3/6
f 2465/3/6 2461/3/6 2468/3/6
f 2467/3/6 2465/3/6 2468/3/6
f 2468/3/6 2461/3/6 2469/3/6
f 2467/3/6 2468/3/6 2470/3/6
f 2467/3/6 2470/3/6 2473/3/6
f 2470/3/6 2471/3/6 2473/3/6
f 2472/3/6 2473/3/6 2474/3/6
f 2474/3/6 2473/3/6 2475/3/6
f 2473/3/6 2471/3/6 2476/3/6
f 2475/3/6 2473/3/6 2476/3/6
f 2476/3/6 2471/3/6 2477/3/6
f 2474/3/6 2475/3/6 2478/3/6
f 2475/5/6 2476/5/6 2479/5/6
f 2478/3/6 2475/3/6 2479/3/6
f 2479/5/6 2476/5/6 2480/5/6
f 2481/4/6 2482/4/6 2485/4/6
f 2485/4/6 2482/4/6 2486/4/6
f 2483/2/6 2484/2/6 2487/2/6
f 2487/2/6 2484/2/6 2488/2/6
f 2489/6/6 2490/6/6 2493/6/6
f 2493/6/6 2490/6/6 2494/6/6
f 2491/6/6 2492/6/6 2495/6/6
f 2495/6/6 2492/6/6 2496/6/6
f 2497/6/6 2498/6/6 2500/6/6
f 2500/6/6 2498/6/6 2503/6/6
f 2499/6/6 2500/6/6 2503/6/6
f 2503/6/6 2498/6/6 2504/6/6
f 2501/6/6 2502/6/6 2506/6/6
f 2506/6/6 2502/6/6 2507/6/6
f 2499/6/6 2503/6/6 2508/6/6
f 2508/6/6 2503/6/6 2509/6/6
f 2509/6/6 2503/6/6 2510/6/6
f 2505/6/6 2506/6/6 2511/6/6
f 2511/6/6 2506/6/6 2512/6/6
f 2508/6/6 2509/6/6 2513/6/6
f 2507/6/6 2508/6/6 2513/6/6
f 2513/6/6 2509/6/6 2514/6/6
f 2514/6/6 2509/6/6 2515/6/6
f 2513/6/6 2514/6/6 2517/6/6
f 2512/6/6 2513/6/6 2517/6/6
f 2517/6/6 2514/6/6 2518/6/6
f 2518/6/6 2514/6/6 2519/6/6
f 2519/6/6 2514/6/6 2520/6/6
f 2515/6/6 2516/6/6 2521/6/6
f 2521/6/6 2516/6/6 2522/6/6
f 2518/6/6 2519/6/6 2523/6/6
f 2523/6/6 2519/6/6 2524/6/6
f 2524/6/6 2519/6/6 2525/6/6
f 2523/1/6 2524/1/6 2528/1/6
f 2524/6/6 2525/6/6 2529/6/6
f 2528/1/6 2524/1/6 2529/1/6
f 2529/6/6 2525/6/6 2530/6/6
f 2526/6/6 2527/6/6 2531/6/6
f 2529/6/6 2530/6/6 2532/6/6
f 2530/6/6 2531/6/6 2532/6/6
f 2532/6/6 2531/6/6 2533/6/6
f 2533/6/6 2531/6/6 2534/6/6
f 2531/6/6 2527/6/6 2535/6/6
f 2534/6/6 2531/6/6 2535/6/6
f 2533/2/6 2534/2/6 2536/2/6
f 2536/2/6 2534/2/6 2537/2/6
f 2538/3/6 2539/3/6 2540/3/6
f 2538/3/6 2540/3/6 2543/3/6
f 2540/3/6 2541/3/6 2543/3/6
f 2543/3/6 2541/3/6 2544/3/6
f 2542/3/6 2543/3/6 2547/3/6
f 2544/3/6 2545/3/6 2547/3/6
f 2543/3/6 2544/3/6 2547/3/6
f 2547/3/6 2545/3/6 2548/3/6
f 2548/3/6 2545/3/6 2549/3/6
f 2549/3/6 2545/3/6 2550/3/6
f 2546/3/6 2547/3/6 2552/3/6
f 2552/3/6 2547/3/6 2553/3/6
f 2548/3/6 2549/3/6 2554/3/6
f 2554/3/6 2549/3/6 2555/3/6
f 2555/3/6 2549/3/6 2556/3/6
f 2550/3/6 2545/3/6 2557/3/6
f 2552/3/6 2553/3/6 2559/3/6
f 2551/3/6 2552/3/6 2559/3/6
f 2553/3/6 2554/3/6 2559/3/6
f 2554/3/6 2555/3/6 2559/3/6
f 2559/3/6 2555/3/6 2560/3/6
f 2560/3/6 2555/3/6 2561/3/6
f 2561/3/6 2555/3/6 2562/3/6
f 2556/3/6 2557/3/6 2563/3/6
f 2557/3/6 2545/3/6 2564/3/6
f 2563/3/6 2557/3/6 2564/3/6
f 2562/3/6 2563/3/6 2566/3/6
f 2564/3/6 2565/3/6 2566/3/6
f 2563/3/6 2564/3/6 2566/3/6
f 2566/3/6 2565/3/6 2567/3/6
f 2558/3/6 2559/3/6 2568/3/6
f 2560/3/6 2561/3/6 2569/3/6
f 2569/3/6 2561/3/6 2570/3/6
f 2562/3/6 2566/3/6 2572/3/6
f 2572/3/6 2566/3/6 2573/3/6
f 2558/3/6 2568/3/6 2574/3/6
f 2570/3/6 2571/3/6 2574/3/6
f 2568/3/6 2569/3/6 2574/3/6
f 2569/3/6 2570/3/6 2574/3/6
f 2574/3/6 2571/3/6 2575/3/6
f 2575/3/6 2571/3/6 2576/3/6
f 2574/3/6 2575/3/6 2578/3/6
f 2578/3/6 2575/3/6 2579/3/6
f 2576/3/6 2571/3/6 2580/3/6
f 2580/3/6 2571/3/6 2581/3/6
f 2577/3/6 2578/3/6 2582/3/6
f 2579/3/6 2580/3/6 2583/3/6
f 2583/3/6 2580/3/6 2584/3/6
f 2577/3/6 2582/3/6 2585/3/6
f 2582/3/6 2583/3/6 2585/3/6
f 2585/3/6 2583/3/6 2586/3/6
f 2586/3/6 2583/3/6 2587/3/6
f 2588/3/6 2589/3/6 2592/3/6
f 2592/3/6 2589/3/6 2593/3/6
f 2590/3/6 2591/3/6 2595/3/6
f 2595/3/6 2591/3/6 2596/3/6
f 2593/3/6 2594/3/6 2597/3/6
f 2592/3/6 2593/3/6 2597/3/6
f 2597/3/6 2594/3/6 2598/3/6
f 2598/3/6 2599/3/6 2600/3/6
f 2600/3/6 2599/3/6 2601/3/6
f 2602/2/6 2603/2/6 2605/2/6
f 2605/2/6 2603/2/6 2606/2/6
f 2606/2/6 2603/2/6 2607/2/6
f 2604/2/6 2605/2/6 2609/2/6
f 2605/6/6 2606/6/6 2609/6/6
f 2609/6/6 2606/6/6 2610/6/6
f 2607/6/6 2608/6/6 2611/6/6
f 2611/6/6 2608/6/6 2612/6/6
f 2604/2/6 2609/2/6 2616/2/6
f 2616/2/6 2609/2/6 2617/2/6
f 2613/6/6 2614/6/6 2620/6/6
f 2620/6/6 2614/6/6 2621/6/6
f 2617/6/6 2618/6/6 2622/6/6
f 2622/6/6 2618/6/6 2623/6/6
f 2619/6/6 2620/6/6 2624/6/6
f 2624/6/6 2620/6/6 2625/6/6
f 2615/2/6 2616/2/6 2626/2/6
f 2626/2/6 2616/2/6 2627/2/6
f 2626/1/6 2627/1/6 2628/1/6
f 2628/1/6 2627/1/6 2629/1/6
f 2630/2/6 2631/2/6 2633/2/6
f 2631/6/6 2632/6/6 2634/6/6
f 2633/2/6 2631/2/6 2634/2/6
f 2634/6/6 2632/6/6 2635/6/6
f 2633/1/6 2634/1/6 2636/1/6
f 2636/1/6 2634/1/6 2637/1/6
f 2638/2/6 2639/2/6 2640/2/6
f 2640/2/6 2639/2/6 2641/2/6
