# MagicaVoxel @ Ephtracy

# group
o 

# material
mtllib trans_1_4.mtl
usemtl palette

# normals
vn -1 0 0
vn 1 0 0
vn 0 0 1
vn 0 0 -1
vn 0 -1 0
vn 0 1 0

# texcoords
vt 0.919922 0.5
vt 0.923828 0.5
vt 0.927734 0.5
vt 0.962891 0.5
vt 0.966797 0.5
vt 0.994141 0.5

# verts
v -1 0.3 0.2
v -1 0.3 0.1
v -1 0.4 0.2
v -1 0.4 0.1
v -0.9 0.3 0.4
v -0.9 0.3 0.2
v -0.9 0.3 0.1
v -0.9 0.3 -0.2
v -0.9 0.3 -0.3
v -0.9 0.4 0.4
v -0.9 0.4 0.2
v -0.9 0.4 0.1
v -0.9 0.4 -0.2
v -0.9 0.4 -0.3
v -0.9 0.5 0.4
v -0.9 0.5 -0.2
v -0.9 0.5 -0.3
v -0.9 0.6 0.4
v -0.9 0.6 0.1
v -0.9 0.6 -0.2
v -0.9 0.7 0.4
v -0.9 0.7 0.3
v -0.9 0.7 0.2
v -0.9 0.7 0.1
v -0.9 0.8 0.3
v -0.9 0.8 0.2
v -0.8 0.3 0.7
v -0.8 0.3 0.6
v -0.8 0.3 0.4
v -0.8 0.3 -0.3
v -0.8 0.3 -0.4
v -0.8 0.4 0.7
v -0.8 0.4 0.6
v -0.8 0.4 0.4
v -0.8 0.4 -0.3
v -0.8 0.4 -0.4
v -0.8 0.5 0.6
v -0.8 0.5 0.4
v -0.8 0.5 -0.2
v -0.8 0.5 -0.3
v -0.8 0.5 -0.4
v -0.8 0.6 0.6
v -0.8 0.6 0.4
v -0.8 0.6 0.1
v -0.8 0.6 -0.1
v -0.8 0.6 -0.2
v -0.8 0.6 -0.3
v -0.8 0.6 -0.4
v -0.8 0.7 0.6
v -0.8 0.7 0.5
v -0.8 0.7 0.4
v -0.8 0.7 0.3
v -0.8 0.7 0.2
v -0.8 0.7 0.1
v -0.8 0.8 0.5
v -0.8 0.8 0.4
v -0.8 0.8 0.3
v -0.8 0.8 0.2
v -0.8 0.8 -0.1
v -0.8 0.9 0.5
v -0.8 0.9 0.4
v -0.8 0.9 0.3
v -0.8 0.9 0.2
v -0.8 1 0.5
v -0.8 1 0.3
v -0.7 0 0.5
v -0.7 0 0.3
v -0.7 0 -0.1
v -0.7 0 -0.2
v -0.7 0.1 0.5
v -0.7 0.1 0.3
v -0.7 0.1 -0.1
v -0.7 0.1 -0.2
v -0.7 0.3 0.5
v -0.7 0.3 0.3
v -0.7 0.3 -0.1
v -0.7 0.3 -0.2
v -0.7 0.4 0.7
v -0.7 0.4 0.6
v -0.7 0.5 0.7
v -0.7 0.5 0.6
v -0.7 0.6 0.7
v -0.7 0.6 0.6
v -0.7 0.6 -0.3
v -0.7 0.6 -0.4
v -0.7 0.7 0.6
v -0.7 0.7 0.5
v -0.7 0.7 -0.3
v -0.7 0.7 -0.4
v -0.7 0.8 0.7
v -0.7 0.8 0.5
v -0.7 0.8 0.4
v -0.7 0.8 0.2
v -0.7 0.8 0.1
v -0.7 0.9 0.5
v -0.7 0.9 0.4
v -0.7 0.9 0.2
v -0.7 0.9 0.1
v -0.7 1 0.5
v -0.7 1 0.3
v -0.7 1.1 0.5
v -0.7 1.1 0.3
v -0.6 0 -0.2
v -0.6 0 -0.3
v -0.6 0.1 -0.2
v -0.6 0.1 -0.3
v -0.6 0.3 0.8
v -0.6 0.3 0.7
v -0.6 0.3 -0.2
v -0.6 0.3 -0.3
v -0.6 0.4 0.8
v -0.6 0.4 0.7
v -0.6 0.5 0.8
v -0.6 0.5 0.7
v -0.6 0.6 0.8
v -0.6 0.6 0.7
v -0.6 0.6 -0.1
v -0.6 0.6 -0.3
v -0.6 0.7 -0.2
v -0.6 0.7 -0.3
v -0.6 0.7 -0.4
v -0.6 0.8 0.6
v -0.6 0.8 0.5
v -0.6 0.8 0.1
v -0.6 0.8 -0.1
v -0.6 0.8 -0.2
v -0.6 0.8 -0.3
v -0.6 0.8 -0.4
v -0.6 0.9 0.3
v -0.6 0.9 0.1
v -0.6 0.9 0
v -0.6 0.9 -0.1
v -0.6 1 0.6
v -0.6 1 0.5
v -0.6 1 0.3
v -0.6 1 0
v -0.5 0.3 -0.4
v -0.5 0.3 -0.5
v -0.5 0.4 -0.4
v -0.5 0.4 -0.5
v -0.5 0.5 -0.4
v -0.5 0.5 -0.5
v -0.5 0.6 0.8
v -0.5 0.6 0.7
v -0.5 0.6 -0.4
v -0.5 0.6 -0.5
v -0.5 0.7 -0.2
v -0.5 0.7 -0.3
v -0.5 0.7 -0.4
v -0.5 0.7 -0.5
v -0.5 0.8 0.8
v -0.5 0.8 0.7
v -0.5 0.8 0.6
v -0.5 0.8 -0.1
v -0.5 0.8 -0.2
v -0.5 0.8 -0.3
v -0.5 0.9 0.7
v -0.5 0.9 0.6
v -0.5 0.9 0
v -0.5 0.9 -0.1
v -0.5 0.9 -0.2
v -0.5 0.9 -0.3
v -0.5 1 0.2
v -0.5 1 0
v -0.5 1 -0.2
v -0.5 1.1 0.5
v -0.5 1.1 0.3
v -0.5 1.1 0.2
v -0.5 1.1 0
v -0.5 1.2 0.4
v -0.5 1.2 0.3
v -0.5 1.3 0.5
v -0.5 1.3 0.4
v -0.4 0.3 0.9
v -0.4 0.3 0.8
v -0.4 0.3 -0.5
v -0.4 0.3 -0.6
v -0.4 0.4 0.9
v -0.4 0.4 0.8
v -0.4 0.4 -0.5
v -0.4 0.4 -0.6
v -0.4 0.5 0.9
v -0.4 0.5 0.8
v -0.4 0.5 -0.5
v -0.4 0.5 -0.6
v -0.4 0.6 0.9
v -0.4 0.6 0.8
v -0.4 0.6 -0.5
v -0.4 0.6 -0.6
v -0.4 0.7 -0.4
v -0.4 0.7 -0.5
v -0.4 0.7 -0.6
v -0.4 0.8 0.9
v -0.4 0.8 0.8
v -0.4 0.8 -0.3
v -0.4 0.8 -0.4
v -0.4 0.8 -0.5
v -0.4 0.9 -0.2
v -0.4 0.9 -0.3
v -0.4 0.9 -0.4
v -0.4 1 0.6
v -0.4 1 0.5
v -0.4 1 0.3
v -0.4 1 0.2
v -0.4 1 0
v -0.4 1 -0.2
v -0.4 1 -0.3
v -0.4 1.1 0.6
v -0.4 1.1 0.5
v -0.4 1.1 0.3
v -0.4 1.1 0.2
v -0.4 1.1 0
v -0.4 1.1 -0.2
v -0.4 1.2 0.4
v -0.4 1.2 0.3
v -0.4 1.3 0.4
v -0.4 1.3 0.3
v -0.3 0.3 -0.6
v -0.3 0.3 -0.7
v -0.3 0.4 -0.6
v -0.3 0.4 -0.7
v -0.3 0.7 -0.5
v -0.3 0.7 -0.6
v -0.3 0.8 -0.4
v -0.3 0.8 -0.5
v -0.3 0.8 -0.6
v -0.3 0.9 -0.3
v -0.3 0.9 -0.4
v -0.3 0.9 -0.5
v -0.3 1 -0.2
v -0.3 1 -0.3
v -0.3 1 -0.4
v -0.3 1.1 -0.1
v -0.3 1.1 -0.2
v -0.3 1.1 -0.3
v -0.3 1.2 -0.1
v -0.3 1.2 -0.2
v -0.2 0.4 -0.6
v -0.2 0.4 -0.7
v -0.2 0.5 -0.6
v -0.2 0.5 -0.7
v -0.2 0.6 -0.6
v -0.2 0.6 -0.7
v -0.2 0.7 -0.6
v -0.2 0.7 -0.7
v -0.2 0.8 0.9
v -0.2 0.8 0.8
v -0.2 0.8 0.7
v -0.2 0.9 0.9
v -0.2 0.9 0.8
v -0.2 0.9 0.7
v -0.2 0.9 0.6
v -0.2 0.9 0.1
v -0.2 0.9 0
v -0.2 0.9 -0.4
v -0.2 0.9 -0.5
v -0.2 1 0.7
v -0.2 1 0.6
v -0.2 1 0.5
v -0.2 1 0.1
v -0.2 1 0
v -0.2 1 -0.3
v -0.2 1 -0.4
v -0.2 1 -0.5
v -0.2 1.1 0.6
v -0.2 1.1 0.5
v -0.2 1.1 -0.2
v -0.2 1.1 -0.3
v -0.2 1.2 -0.2
v -0.2 1.2 -0.3
v -0.2 1.2 -0.4
v -0.2 1.3 -0.2
v -0.2 1.3 -0.3
v -0.1 0.3 -0.6
v -0.1 0.3 -0.7
v -0.1 0.4 -0.6
v -0.1 0.4 -0.7
v -0.1 0.8 -0.5
v -0.1 0.8 -0.6
v -0.1 1 0.5
v -0.1 1 0.3
v -0.1 1 -0.4
v -0.1 1 -0.5
v -0.1 1 -0.6
v -0.1 1.1 0.5
v -0.1 1.1 0.3
v -0.1 1.1 -0.4
v -0.1 1.1 -0.5
v 0 0.6 -0.6
v 0 0.6 -0.7
v 0 0.7 -0.5
v 0 0.7 -0.6
v 0 0.7 -0.7
v 0 0.8 -0.5
v 0 0.8 -0.6
v 0.3 0 0.5
v 0.3 0 0.3
v 0.3 0 -0.1
v 0.3 0 -0.3
v 0.3 0.1 0.5
v 0.3 0.1 0.3
v 0.3 0.1 -0.1
v 0.3 0.1 -0.3
v 0.3 0.3 0.5
v 0.3 0.3 0.3
v 0.3 0.3 -0.1
v 0.3 0.3 -0.3
v 0.4 0.4 -0.4
v 0.4 0.4 -0.5
v 0.4 0.5 -0.4
v 0.4 0.5 -0.5
v 0.4 0.6 -0.4
v 0.4 0.6 -0.5
v 0.6 0.4 0.4
v 0.6 0.4 0.2
v 0.6 0.5 0.4
v 0.6 0.5 0.2
v -0.5 0 0.5
v -0.5 0 0.3
v -0.5 0 -0.1
v -0.5 0 -0.3
v -0.5 0.1 0.5
v -0.5 0.1 0.3
v -0.5 0.1 -0.1
v -0.5 0.1 -0.3
v -0.5 0.3 0.5
v -0.5 0.3 0.3
v -0.5 0.3 -0.1
v -0.5 0.3 -0.3
v -0.4 1 0.1
v -0.4 1 0
v -0.4 1.1 0.1
v -0.4 1.1 0
v -0.3 0.9 0.1
v -0.3 0.9 0
v -0.3 1 0.6
v -0.3 1 0.4
v -0.3 1 0.1
v -0.3 1 0
v -0.3 1.1 0.6
v -0.3 1.1 0.5
v -0.3 1.1 0.4
v -0.3 1.1 0.3
v -0.3 1.2 0.4
v -0.3 1.2 0.3
v -0.3 1.3 0.5
v -0.3 1.3 0.4
v -0.2 0.3 -0.6
v -0.2 0.3 -0.7
v -0.2 0.4 -0.6
v -0.2 0.4 -0.7
v -0.2 0.7 -0.5
v -0.2 0.7 -0.6
v -0.2 0.8 -0.5
v -0.2 0.8 -0.6
v -0.2 1 0.4
v -0.2 1 0.1
v -0.2 1.1 0.4
v -0.2 1.1 0.1
v -0.2 1.2 0.4
v -0.2 1.2 0.3
v -0.2 1.3 0.4
v -0.2 1.3 0.3
v -0.1 0.5 -0.6
v -0.1 0.5 -0.7
v -0.1 0.6 -0.6
v -0.1 0.6 -0.7
v -0.1 0.7 -0.6
v -0.1 0.7 -0.7
v -0.1 1 0.6
v -0.1 1 0.5
v -0.1 1 0
v -0.1 1 -0.1
v -0.1 1.1 0.6
v -0.1 1.1 0.5
v -0.1 1.1 0
v -0.1 1.1 -0.1
v -0.1 1.1 -0.4
v -0.1 1.2 -0.1
v -0.1 1.2 -0.2
v -0.1 1.2 -0.3
v -0.1 1.2 -0.4
v -0.1 1.3 -0.2
v -0.1 1.3 -0.3
v 0 0.3 0.9
v 0 0.3 0.8
v 0 0.3 -0.6
v 0 0.3 -0.7
v 0 0.4 0.9
v 0 0.4 0.8
v 0 0.4 -0.6
v 0 0.4 -0.7
v 0 0.5 0.9
v 0 0.5 0.8
v 0 0.5 -0.6
v 0 0.5 -0.7
v 0 0.6 0.9
v 0 0.6 0.8
v 0 0.8 0.9
v 0 0.8 0.8
v 0 0.8 -0.5
v 0 0.8 -0.6
v 0 0.9 0.9
v 0 0.9 0.8
v 0 0.9 -0.4
v 0 0.9 -0.5
v 0 1 0.4
v 0 1 0.3
v 0 1 -0.1
v 0 1 -0.2
v 0 1 -0.3
v 0 1 -0.4
v 0 1 -0.5
v 0 1 -0.6
v 0 1.1 0.4
v 0 1.1 0.3
v 0 1.1 -0.1
v 0 1.1 -0.2
v 0 1.1 -0.3
v 0 1.1 -0.5
v 0.1 0.6 -0.6
v 0.1 0.6 -0.7
v 0.1 0.7 -0.4
v 0.1 0.7 -0.6
v 0.1 0.7 -0.7
v 0.1 0.8 -0.5
v 0.1 0.8 -0.6
v 0.1 0.9 0.2
v 0.1 0.9 0.1
v 0.1 0.9 -0.1
v 0.1 0.9 -0.4
v 0.1 0.9 -0.5
v 0.1 1 0.5
v 0.1 1 0.4
v 0.1 1 0.2
v 0.1 1 0.1
v 0.1 1 -0.1
v 0.1 1 -0.2
v 0.1 1 -0.3
v 0.1 1 -0.4
v 0.1 1.1 0.5
v 0.1 1.1 0.4
v 0.1 1.1 -0.2
v 0.1 1.1 -0.3
v 0.2 0.3 0.8
v 0.2 0.3 0.7
v 0.2 0.4 0.8
v 0.2 0.4 0.7
v 0.2 0.5 0.8
v 0.2 0.5 0.7
v 0.2 0.6 0.8
v 0.2 0.6 0.7
v 0.2 0.8 0.5
v 0.2 0.8 0.4
v 0.2 0.8 -0.1
v 0.2 0.8 -0.2
v 0.2 0.8 -0.3
v 0.2 0.8 -0.4
v 0.2 0.9 0.8
v 0.2 0.9 0.7
v 0.2 0.9 0.5
v 0.2 0.9 0.4
v 0.2 0.9 0.3
v 0.2 0.9 -0.1
v 0.2 0.9 -0.2
v 0.2 0.9 -0.3
v 0.2 0.9 -0.4
v 0.2 1 0.7
v 0.2 1 0.3
v 0.3 0.3 -0.5
v 0.3 0.3 -0.6
v 0.3 0.4 0.7
v 0.3 0.4 0.6
v 0.3 0.4 -0.4
v 0.3 0.4 -0.5
v 0.3 0.4 -0.6
v 0.3 0.5 0.7
v 0.3 0.5 0.6
v 0.3 0.5 0.5
v 0.3 0.5 -0.4
v 0.3 0.5 -0.6
v 0.3 0.6 0.7
v 0.3 0.6 0.6
v 0.3 0.6 0.5
v 0.3 0.6 -0.4
v 0.3 0.6 -0.6
v 0.3 0.7 0.3
v 0.3 0.7 0.2
v 0.3 0.7 0
v 0.3 0.7 -0.2
v 0.3 0.7 -0.3
v 0.3 0.7 -0.4
v 0.3 0.7 -0.6
v 0.3 0.8 0.6
v 0.3 0.8 0.5
v 0.3 0.8 0.4
v 0.3 0.8 0.3
v 0.3 0.8 0.2
v 0.3 0.8 0.1
v 0.3 0.8 -0.1
v 0.3 0.8 -0.2
v 0.3 0.8 -0.3
v 0.3 0.8 -0.4
v 0.3 0.9 0.7
v 0.3 0.9 0.5
v 0.3 0.9 0.4
v 0.3 0.9 0.3
v 0.3 0.9 0.2
v 0.3 0.9 0.1
v 0.3 0.9 0
v 0.3 0.9 -0.2
v 0.3 0.9 -0.3
v 0.3 1 0.3
v 0.3 1 0.2
v 0.3 1 0.1
v 0.3 1 -0.1
v 0.4 0.3 0.7
v 0.4 0.3 0.6
v 0.4 0.3 -0.2
v 0.4 0.3 -0.3
v 0.4 0.4 0.7
v 0.4 0.4 0.6
v 0.4 0.4 0.5
v 0.4 0.4 0.4
v 0.4 0.4 -0.2
v 0.4 0.4 -0.3
v 0.4 0.5 0.5
v 0.4 0.5 0.4
v 0.4 0.5 0.2
v 0.4 0.5 -0.2
v 0.4 0.5 -0.3
v 0.4 0.6 0.6
v 0.4 0.6 0.5
v 0.4 0.6 0.2
v 0.4 0.6 0.1
v 0.4 0.6 -0.2
v 0.4 0.6 -0.3
v 0.4 0.7 0.4
v 0.4 0.7 0.3
v 0.4 0.7 0.2
v 0.4 0.7 0.1
v 0.4 0.7 0
v 0.4 0.7 -0.2
v 0.4 0.7 -0.3
v 0.4 0.8 0.6
v 0.4 0.8 0.4
v 0.4 0.8 0.2
v 0.4 0.8 0.1
v 0.4 0.8 0
v 0.4 0.8 -0.2
v 0.4 0.8 -0.3
v 0.5 0 0.5
v 0.5 0 0.3
v 0.5 0 -0.1
v 0.5 0 -0.3
v 0.5 0.1 0.5
v 0.5 0.1 0.3
v 0.5 0.1 -0.1
v 0.5 0.1 -0.3
v 0.5 0.3 0.6
v 0.5 0.3 0.5
v 0.5 0.3 0.4
v 0.5 0.3 0.3
v 0.5 0.3 -0.1
v 0.5 0.3 -0.2
v 0.5 0.3 -0.3
v 0.5 0.3 -0.4
v 0.5 0.3 -0.5
v 0.5 0.4 0.6
v 0.5 0.4 0.5
v 0.5 0.4 0.4
v 0.5 0.4 0.2
v 0.5 0.4 0
v 0.5 0.4 -0.1
v 0.5 0.4 -0.3
v 0.5 0.4 -0.4
v 0.5 0.4 -0.5
v 0.5 0.5 0.6
v 0.5 0.5 0.5
v 0.5 0.5 0.4
v 0.5 0.5 0.2
v 0.5 0.5 0.1
v 0.5 0.5 0
v 0.5 0.5 -0.1
v 0.5 0.5 -0.3
v 0.5 0.5 -0.4
v 0.5 0.5 -0.5
v 0.5 0.6 0.2
v 0.5 0.6 0.1
v 0.5 0.6 -0.1
v 0.5 0.6 -0.3
v 0.5 0.6 -0.4
v 0.5 0.6 -0.5
v 0.5 0.7 0.4
v 0.5 0.7 0.3
v 0.5 0.7 0.2
v 0.5 0.7 0.1
v 0.5 0.7 -0.3
v 0.5 0.7 -0.4
v 0.5 0.8 0.4
v 0.5 0.8 0.3
v 0.5 0.8 0.1
v 0.5 0.8 0
v 0.5 0.9 0.1
v 0.5 0.9 0
v 0.6 0.3 0.1
v 0.6 0.3 -0.1
v 0.6 0.4 0.2
v 0.6 0.4 0.1
v 0.6 0.4 0
v 0.6 0.4 -0.1
v 0.6 0.4 -0.2
v 0.6 0.5 0.2
v 0.6 0.5 0.1
v 0.6 0.5 0
v 0.6 0.5 -0.1
v 0.6 0.5 -0.2
v 0.6 0.6 0.2
v 0.6 0.6 0.1
v 0.6 0.6 -0.1
v 0.6 0.6 -0.2
v 0.7 0.3 0.4
v 0.7 0.3 0.3
v 0.7 0.3 0.1
v 0.7 0.3 -0.1
v 0.7 0.3 -0.2
v 0.7 0.4 0.4
v 0.7 0.4 0.3
v 0.7 0.4 0.2
v 0.7 0.4 0.1
v 0.7 0.4 -0.1
v 0.7 0.4 -0.2
v 0.7 0.5 0.4
v 0.7 0.5 0.2
v -0.4 0.3 0.9
v -0.4 0.4 0.9
v -0.4 0.5 0.9
v -0.4 0.6 0.9
v -0.4 0.8 0.9
v -0.3 0.3 0.9
v -0.3 0.4 0.9
v -0.3 0.5 0.9
v -0.3 0.6 0.9
v -0.3 0.8 0.9
v -0.2 0.8 0.9
v -0.2 0.9 0.9
v -0.1 0.8 0.9
v -0.1 0.9 0.9
v 0 0.3 0.9
v 0 0.4 0.9
v 0 0.5 0.9
v 0 0.6 0.9
v 0 0.8 0.9
v 0 0.9 0.9
v -0.6 0.3 0.8
v -0.6 0.4 0.8
v -0.6 0.5 0.8
v -0.6 0.6 0.8
v -0.5 0.6 0.8
v -0.5 0.8 0.8
v -0.4 0.3 0.8
v -0.4 0.4 0.8
v -0.4 0.5 0.8
v -0.4 0.6 0.8
v -0.4 0.8 0.8
v 0 0.3 0.8
v 0 0.4 0.8
v 0 0.5 0.8
v 0 0.6 0.8
v 0 0.8 0.8
v 0 0.9 0.8
v 0.1 0.3 0.8
v 0.1 0.4 0.8
v 0.1 0.5 0.8
v 0.1 0.6 0.8
v 0.2 0.3 0.8
v 0.2 0.4 0.8
v 0.2 0.5 0.8
v 0.2 0.6 0.8
v 0.2 0.9 0.8
v -0.8 0.3 0.7
v -0.8 0.4 0.7
v -0.7 0.4 0.7
v -0.7 0.5 0.7
v -0.7 0.6 0.7
v -0.7 0.8 0.7
v -0.6 0.3 0.7
v -0.6 0.4 0.7
v -0.6 0.5 0.7
v -0.6 0.6 0.7
v -0.5 0.6 0.7
v -0.5 0.8 0.7
v -0.5 0.9 0.7
v -0.2 0.8 0.7
v -0.2 0.9 0.7
v -0.2 1 0.7
v 0.2 0.3 0.7
v 0.2 0.4 0.7
v 0.2 0.5 0.7
v 0.2 0.6 0.7
v 0.2 0.9 0.7
v 0.2 1 0.7
v 0.3 0.4 0.7
v 0.3 0.5 0.7
v 0.3 0.6 0.7
v 0.3 0.9 0.7
v 0.4 0.3 0.7
v 0.4 0.4 0.7
v -0.8 0.4 0.6
v -0.8 0.5 0.6
v -0.8 0.6 0.6
v -0.8 0.7 0.6
v -0.7 0.4 0.6
v -0.7 0.5 0.6
v -0.7 0.6 0.6
v -0.7 0.7 0.6
v -0.6 0.8 0.6
v -0.6 1 0.6
v -0.5 0.8 0.6
v -0.5 0.9 0.6
v -0.4 1 0.6
v -0.4 1.1 0.6
v -0.3 1 0.6
v -0.3 1.1 0.6
v -0.2 0.9 0.6
v -0.2 1 0.6
v -0.2 1.1 0.6
v -0.1 1 0.6
v -0.1 1.1 0.6
v 0.3 0.4 0.6
v 0.3 0.5 0.6
v 0.3 0.6 0.6
v 0.3 0.8 0.6
v 0.4 0.3 0.6
v 0.4 0.4 0.6
v 0.4 0.6 0.6
v 0.4 0.8 0.6
v 0.5 0.3 0.6
v 0.5 0.4 0.6
v 0.5 0.5 0.6
v -0.8 0.7 0.5
v -0.8 0.8 0.5
v -0.8 0.9 0.5
v -0.8 1 0.5
v -0.7 0 0.5
v -0.7 0.1 0.5
v -0.7 0.3 0.5
v -0.7 0.7 0.5
v -0.7 0.8 0.5
v -0.7 0.9 0.5
v -0.7 1 0.5
v -0.7 1.1 0.5
v -0.6 0.8 0.5
v -0.6 1 0.5
v -0.5 0 0.5
v -0.5 0.1 0.5
v -0.5 0.3 0.5
v -0.5 1.1 0.5
v -0.5 1.3 0.5
v -0.4 1 0.5
v -0.4 1.1 0.5
v -0.3 1.1 0.5
v -0.3 1.3 0.5
v -0.1 1 0.5
v -0.1 1.1 0.5
v 0.1 1 0.5
v 0.1 1.1 0.5
v 0.3 0 0.5
v 0.3 0.1 0.5
v 0.3 0.3 0.5
v 0.3 0.5 0.5
v 0.3 0.6 0.5
v 0.4 0.5 0.5
v 0.4 0.6 0.5
v 0.5 0 0.5
v 0.5 0.1 0.5
v 0.5 0.3 0.5
v -0.9 0.3 0.4
v -0.9 0.4 0.4
v -0.9 0.5 0.4
v -0.9 0.6 0.4
v -0.9 0.7 0.4
v -0.8 0.3 0.4
v -0.8 0.4 0.4
v -0.8 0.5 0.4
v -0.8 0.6 0.4
v -0.8 0.7 0.4
v -0.8 0.8 0.4
v -0.8 0.9 0.4
v -0.7 0.8 0.4
v -0.7 0.9 0.4
v -0.3 1 0.4
v -0.3 1.1 0.4
v -0.3 1.2 0.4
v -0.3 1.3 0.4
v -0.2 1 0.4
v -0.2 1.1 0.4
v -0.2 1.2 0.4
v -0.2 1.3 0.4
v 0.2 0.8 0.4
v 0.2 0.9 0.4
v 0.3 0.8 0.4
v 0.3 0.9 0.4
v 0.4 0.4 0.4
v 0.4 0.5 0.4
v 0.4 0.7 0.4
v 0.4 0.8 0.4
v 0.5 0.3 0.4
v 0.5 0.4 0.4
v 0.5 0.5 0.4
v 0.5 0.7 0.4
v 0.5 0.8 0.4
v 0.6 0.3 0.4
v 0.6 0.4 0.4
v 0.6 0.5 0.4
v 0.7 0.3 0.4
v 0.7 0.4 0.4
v 0.7 0.5 0.4
v -0.9 0.7 0.3
v -0.9 0.8 0.3
v -0.8 0.7 0.3
v -0.8 0.8 0.3
v 0.2 0.9 0.3
v 0.2 1 0.3
v 0.3 0.9 0.3
v 0.3 1 0.3
v -1 0.3 0.2
v -1 0.4 0.2
v -0.9 0.3 0.2
v -0.9 0.4 0.2
v -0.5 1 0.2
v -0.5 1.1 0.2
v -0.4 1 0.2
v -0.4 1.1 0.2
v 0.3 0.7 0.2
v 0.3 0.8 0.2
v 0.4 0.5 0.2
v 0.4 0.6 0.2
v 0.4 0.7 0.2
v 0.4 0.8 0.2
v 0.5 0.4 0.2
v 0.5 0.5 0.2
v 0.5 0.6 0.2
v 0.5 0.7 0.2
v 0.6 0.4 0.2
v 0.6 0.5 0.2
v 0.6 0.6 0.2
v 0.1 0.9 0.1
v 0.1 1 0.1
v 0.3 0.8 0.1
v 0.3 0.9 0.1
v 0.3 1 0.1
v 0.4 0.8 0.1
v 0.5 0.8 0.1
v 0.5 0.9 0.1
v -0.4 1 0
v -0.4 1.1 0
v -0.3 0.9 0
v -0.3 1 0
v -0.2 0.9 0
v -0.2 1 0
v -0.1 1 0
v -0.1 1.1 0
v -0.7 0 -0.1
v -0.7 0.1 -0.1
v -0.7 0.3 -0.1
v -0.5 0 -0.1
v -0.5 0.1 -0.1
v -0.5 0.3 -0.1
v -0.3 1.1 -0.1
v -0.3 1.2 -0.1
v -0.1 1 -0.1
v -0.1 1.1 -0.1
v -0.1 1.2 -0.1
v 0 1 -0.1
v 0 1.1 -0.1
v 0.3 0 -0.1
v 0.3 0.1 -0.1
v 0.3 0.3 -0.1
v 0.5 0 -0.1
v 0.5 0.1 -0.1
v 0.5 0.3 -0.1
v 0.5 0.4 -0.1
v 0.5 0.5 -0.1
v 0.5 0.6 -0.1
v 0.6 0.3 -0.1
v 0.6 0.4 -0.1
v 0.6 0.5 -0.1
v 0.6 0.6 -0.1
v 0.7 0.3 -0.1
v 0.7 0.4 -0.1
v -0.2 1.2 -0.2
v -0.2 1.3 -0.2
v -0.1 1.2 -0.2
v -0.1 1.3 -0.2
v 0 1 -0.2
v 0 1.1 -0.2
v 0.1 1 -0.2
v 0.1 1.1 -0.2
v 0.2 0.8 -0.2
v 0.2 0.9 -0.2
v 0.3 0.7 -0.2
v 0.3 0.8 -0.2
v 0.3 0.9 -0.2
v 0.4 0.7 -0.2
v 0.4 0.8 -0.2
v -0.7 0.6 -0.3
v -0.7 0.7 -0.3
v -0.6 0.6 -0.3
v -0.6 0.7 -0.3
v -0.6 0.8 -0.3
v -0.5 0.7 -0.3
v -0.5 0.8 -0.3
v 0.4 0.3 -0.3
v 0.4 0.4 -0.3
v 0.4 0.5 -0.3
v 0.4 0.6 -0.3
v 0.4 0.7 -0.3
v 0.5 0.3 -0.3
v 0.5 0.4 -0.3
v 0.5 0.5 -0.3
v 0.5 0.6 -0.3
v 0.5 0.7 -0.3
v -0.2 1 0.5
v -0.2 1.1 0.5
v -0.1 1 0.5
v -0.1 1.1 0.5
v 0.2 0.8 0.5
v 0.2 0.9 0.5
v 0.3 0.8 0.5
v 0.3 0.9 0.5
v 0.4 0.4 0.5
v 0.4 0.5 0.5
v 0.5 0.4 0.5
v 0.5 0.5 0.5
v -0.5 1.2 0.4
v -0.5 1.3 0.4
v -0.4 1.2 0.4
v -0.4 1.3 0.4
v 0 1 0.4
v 0 1.1 0.4
v 0.1 1 0.4
v 0.1 1.1 0.4
v -0.8 0.9 0.3
v -0.8 1 0.3
v -0.7 0 0.3
v -0.7 0.1 0.3
v -0.7 0.3 0.3
v -0.7 1 0.3
v -0.7 1.1 0.3
v -0.6 0.9 0.3
v -0.6 1 0.3
v -0.5 0 0.3
v -0.5 0.1 0.3
v -0.5 0.3 0.3
v -0.5 1.1 0.3
v -0.5 1.2 0.3
v -0.4 1 0.3
v -0.4 1.1 0.3
v -0.4 1.2 0.3
v -0.4 1.3 0.3
v -0.3 1.1 0.3
v -0.3 1.2 0.3
v -0.2 1.2 0.3
v -0.2 1.3 0.3
v -0.1 1 0.3
v -0.1 1.1 0.3
v 0 1 0.3
v 0 1.1 0.3
v 0.3 0 0.3
v 0.3 0.1 0.3
v 0.3 0.3 0.3
v 0.3 0.7 0.3
v 0.3 0.8 0.3
v 0.4 0.7 0.3
v 0.5 0 0.3
v 0.5 0.1 0.3
v 0.5 0.3 0.3
v 0.5 0.7 0.3
v 0.5 0.8 0.3
v -0.9 0.7 0.2
v -0.9 0.8 0.2
v -0.8 0.7 0.2
v -0.8 0.8 0.2
v -0.8 0.9 0.2
v -0.7 0.8 0.2
v -0.7 0.9 0.2
v 0.1 0.9 0.2
v 0.1 1 0.2
v 0.3 0.9 0.2
v 0.3 1 0.2
v 0.6 0.4 0.2
v 0.6 0.5 0.2
v 0.7 0.4 0.2
v 0.7 0.5 0.2
v -1 0.3 0.1
v -1 0.4 0.1
v -0.9 0.3 0.1
v -0.9 0.4 0.1
v -0.9 0.6 0.1
v -0.9 0.7 0.1
v -0.8 0.6 0.1
v -0.8 0.7 0.1
v -0.7 0.8 0.1
v -0.7 0.9 0.1
v -0.6 0.8 0.1
v -0.6 0.9 0.1
v -0.4 1 0.1
v -0.4 1.1 0.1
v -0.3 0.9 0.1
v -0.3 1 0.1
v -0.2 0.9 0.1
v -0.2 1 0.1
v -0.2 1.1 0.1
v 0.4 0.6 0.1
v 0.4 0.7 0.1
v 0.5 0.5 0.1
v 0.5 0.6 0.1
v 0.5 0.7 0.1
v 0.6 0.3 0.1
v 0.6 0.4 0.1
v 0.6 0.5 0.1
v 0.6 0.6 0.1
v 0.7 0.3 0.1
v 0.7 0.4 0.1
v -0.6 0.9 0
v -0.6 1 0
v -0.5 0.9 0
v -0.5 1 0
v -0.5 1.1 0
v -0.4 1 0
v -0.4 1.1 0
v 0.3 0.7 0
v 0.3 0.9 0
v 0.4 0.7 0
v 0.4 0.8 0
v 0.5 0.4 0
v 0.5 0.5 0
v 0.5 0.8 0
v 0.5 0.9 0
v 0.6 0.4 0
v 0.6 0.5 0
v -0.8 0.6 -0.1
v -0.8 0.8 -0.1
v -0.6 0.6 -0.1
v -0.6 0.8 -0.1
v -0.6 0.9 -0.1
v -0.5 0.8 -0.1
v -0.5 0.9 -0.1
v 0.1 0.9 -0.1
v 0.1 1 -0.1
v 0.2 0.8 -0.1
v 0.2 0.9 -0.1
v 0.3 0.8 -0.1
v 0.3 1 -0.1
v -0.9 0.5 -0.2
v -0.9 0.6 -0.2
v -0.8 0.5 -0.2
v -0.8 0.6 -0.2
v -0.7 0 -0.2
v -0.7 0.1 -0.2
v -0.7 0.3 -0.2
v -0.6 0 -0.2
v -0.6 0.1 -0.2
v -0.6 0.3 -0.2
v -0.6 0.7 -0.2
v -0.6 0.8 -0.2
v -0.5 0.7 -0.2
v -0.5 0.8 -0.2
v -0.5 0.9 -0.2
v -0.5 1 -0.2
v -0.4 0.9 -0.2
v -0.4 1 -0.2
v -0.4 1.1 -0.2
v -0.3 1 -0.2
v -0.3 1.1 -0.2
v -0.3 1.2 -0.2
v -0.2 1.1 -0.2
v -0.2 1.2 -0.2
v 0.4 0.3 -0.2
v 0.4 0.4 -0.2
v 0.4 0.5 -0.2
v 0.4 0.6 -0.2
v 0.5 0.3 -0.2
v 0.6 0.3 -0.2
v 0.6 0.4 -0.2
v 0.6 0.5 -0.2
v 0.6 0.6 -0.2
v 0.7 0.3 -0.2
v 0.7 0.4 -0.2
v -0.9 0.3 -0.3
v -0.9 0.4 -0.3
v -0.9 0.5 -0.3
v -0.8 0.3 -0.3
v -0.8 0.4 -0.3
v -0.8 0.5 -0.3
v -0.6 0 -0.3
v -0.6 0.1 -0.3
v -0.6 0.3 -0.3
v -0.5 0 -0.3
v -0.5 0.1 -0.3
v -0.5 0.3 -0.3
v -0.5 0.8 -0.3
v -0.5 0.9 -0.3
v -0.4 0.8 -0.3
v -0.4 0.9 -0.3
v -0.4 1 -0.3
v -0.3 0.9 -0.3
v -0.3 1 -0.3
v -0.3 1.1 -0.3
v -0.2 1 -0.3
v -0.2 1.1 -0.3
v -0.2 1.2 -0.3
v -0.2 1.3 -0.3
v -0.1 1.2 -0.3
v -0.1 1.3 -0.3
v 0 1 -0.3
v 0 1.1 -0.3
v 0.1 1 -0.3
v 0.1 1.1 -0.3
v 0.2 0.8 -0.3
v 0.2 0.9 -0.3
v 0.3 0 -0.3
v 0.3 0.1 -0.3
v 0.3 0.3 -0.3
v 0.3 0.7 -0.3
v 0.3 0.8 -0.3
v 0.3 0.9 -0.3
v 0.4 0.7 -0.3
v 0.4 0.8 -0.3
v 0.5 0 -0.3
v 0.5 0.1 -0.3
v 0.5 0.3 -0.3
v -0.8 0.3 -0.4
v -0.8 0.4 -0.4
v -0.8 0.5 -0.4
v -0.8 0.6 -0.4
v -0.7 0.6 -0.4
v -0.7 0.7 -0.4
v -0.6 0.3 -0.4
v -0.6 0.4 -0.4
v -0.6 0.5 -0.4
v -0.6 0.6 -0.4
v -0.6 0.7 -0.4
v -0.6 0.8 -0.4
v -0.5 0.3 -0.4
v -0.5 0.4 -0.4
v -0.5 0.5 -0.4
v -0.5 0.6 -0.4
v -0.5 0.7 -0.4
v -0.4 0.7 -0.4
v -0.4 0.8 -0.4
v -0.4 0.9 -0.4
v -0.3 0.8 -0.4
v -0.3 0.9 -0.4
v -0.3 1 -0.4
v -0.2 0.9 -0.4
v -0.2 1 -0.4
v -0.2 1.2 -0.4
v -0.1 1 -0.4
v -0.1 1.1 -0.4
v -0.1 1.2 -0.4
v 0 0.9 -0.4
v 0 1 -0.4
v 0.1 0.7 -0.4
v 0.1 0.9 -0.4
v 0.1 1 -0.4
v 0.2 0.8 -0.4
v 0.2 0.9 -0.4
v 0.3 0.4 -0.4
v 0.3 0.5 -0.4
v 0.3 0.6 -0.4
v 0.3 0.7 -0.4
v 0.3 0.8 -0.4
v 0.4 0.4 -0.4
v 0.4 0.5 -0.4
v 0.4 0.6 -0.4
v 0.5 0.6 -0.4
v 0.5 0.7 -0.4
v -0.5 0.3 -0.5
v -0.5 0.4 -0.5
v -0.5 0.5 -0.5
v -0.5 0.6 -0.5
v -0.5 0.7 -0.5
v -0.4 0.3 -0.5
v -0.4 0.4 -0.5
v -0.4 0.5 -0.5
v -0.4 0.6 -0.5
v -0.4 0.7 -0.5
v -0.4 0.8 -0.5
v -0.3 0.7 -0.5
v -0.3 0.8 -0.5
v -0.3 0.9 -0.5
v -0.2 0.7 -0.5
v -0.2 0.8 -0.5
v -0.2 0.9 -0.5
v -0.2 1 -0.5
v -0.1 0.8 -0.5
v -0.1 1 -0.5
v -0.1 1.1 -0.5
v 0 0.7 -0.5
v 0 0.8 -0.5
v 0 0.9 -0.5
v 0 1 -0.5
v 0 1.1 -0.5
v 0.1 0.8 -0.5
v 0.1 0.9 -0.5
v 0.3 0.3 -0.5
v 0.3 0.4 -0.5
v 0.4 0.4 -0.5
v 0.4 0.5 -0.5
v 0.4 0.6 -0.5
v 0.5 0.3 -0.5
v 0.5 0.4 -0.5
v 0.5 0.5 -0.5
v 0.5 0.6 -0.5
v -0.4 0.3 -0.6
v -0.4 0.4 -0.6
v -0.4 0.5 -0.6
v -0.4 0.6 -0.6
v -0.4 0.7 -0.6
v -0.3 0.3 -0.6
v -0.3 0.4 -0.6
v -0.3 0.7 -0.6
v -0.3 0.8 -0.6
v -0.2 0.3 -0.6
v -0.2 0.4 -0.6
v -0.2 0.5 -0.6
v -0.2 0.6 -0.6
v -0.2 0.7 -0.6
v -0.2 0.8 -0.6
v -0.1 0.3 -0.6
v -0.1 0.4 -0.6
v -0.1 0.5 -0.6
v -0.1 0.6 -0.6
v -0.1 0.7 -0.6
v -0.1 0.8 -0.6
v -0.1 1 -0.6
v 0 0.3 -0.6
v 0 0.4 -0.6
v 0 0.5 -0.6
v 0 0.6 -0.6
v 0 0.7 -0.6
v 0 0.8 -0.6
v 0 1 -0.6
v 0.1 0.3 -0.6
v 0.1 0.4 -0.6
v 0.1 0.5 -0.6
v 0.1 0.6 -0.6
v 0.1 0.7 -0.6
v 0.1 0.8 -0.6
v 0.2 0.3 -0.6
v 0.2 0.4 -0.6
v 0.2 0.5 -0.6
v 0.2 0.6 -0.6
v 0.3 0.3 -0.6
v 0.3 0.4 -0.6
v 0.3 0.5 -0.6
v 0.3 0.6 -0.6
v 0.3 0.7 -0.6
v -0.3 0.3 -0.7
v -0.3 0.4 -0.7
v -0.2 0.3 -0.7
v -0.2 0.4 -0.7
v -0.2 0.5 -0.7
v -0.2 0.6 -0.7
v -0.2 0.7 -0.7
v -0.1 0.3 -0.7
v -0.1 0.4 -0.7
v -0.1 0.5 -0.7
v -0.1 0.6 -0.7
v -0.1 0.7 -0.7
v 0 0.3 -0.7
v 0 0.4 -0.7
v 0 0.5 -0.7
v 0 0.6 -0.7
v 0 0.7 -0.7
v 0.1 0.6 -0.7
v 0.1 0.7 -0.7
v -0.7 0 0.5
v -0.5 0 0.5
v 0.3 0 0.5
v 0.5 0 0.5
v -0.7 0 0.3
v -0.5 0 0.3
v 0.3 0 0.3
v 0.5 0 0.3
v -0.7 0 -0.1
v -0.5 0 -0.1
v 0.3 0 -0.1
v 0.5 0 -0.1
v -0.7 0 -0.2
v -0.6 0 -0.2
v -0.6 0 -0.3
v -0.5 0 -0.3
v 0.3 0 -0.3
v 0.5 0 -0.3
v -0.4 0.3 0.9
v -0.3 0.3 0.9
v 0 0.3 0.9
v -0.6 0.3 0.8
v -0.4 0.3 0.8
v -0.3 0.3 0.8
v 0 0.3 0.8
v 0.1 0.3 0.8
v 0.2 0.3 0.8
v -0.8 0.3 0.7
v -0.6 0.3 0.7
v -0.4 0.3 0.7
v 0.2 0.3 0.7
v 0.4 0.3 0.7
v -0.8 0.3 0.6
v -0.6 0.3 0.6
v 0.1 0.3 0.6
v 0.4 0.3 0.6
v 0.5 0.3 0.6
v -0.7 0.3 0.5
v -0.5 0.3 0.5
v 0.3 0.3 0.5
v 0.5 0.3 0.5
v -0.9 0.3 0.4
v -0.8 0.3 0.4
v 0.5 0.3 0.4
v 0.6 0.3 0.4
v 0.7 0.3 0.4
v -0.7 0.3 0.3
v -0.5 0.3 0.3
v 0.3 0.3 0.3
v 0.5 0.3 0.3
v 0.6 0.3 0.3
v 0.7 0.3 0.3
v -1 0.3 0.2
v -0.9 0.3 0.2
v -1 0.3 0.1
v -0.9 0.3 0.1
v 0.6 0.3 0.1
v 0.7 0.3 0.1
v -0.7 0.3 -0.1
v -0.5 0.3 -0.1
v 0.3 0.3 -0.1
v 0.5 0.3 -0.1
v 0.6 0.3 -0.1
v 0.7 0.3 -0.1
v -0.9 0.3 -0.2
v -0.8 0.3 -0.2
v -0.7 0.3 -0.2
v -0.6 0.3 -0.2
v 0.5 0.3 -0.2
v 0.6 0.3 -0.2
v 0.7 0.3 -0.2
v -0.9 0.3 -0.3
v -0.8 0.3 -0.3
v -0.6 0.3 -0.3
v -0.5 0.3 -0.3
v 0.3 0.3 -0.3
v 0.5 0.3 -0.3
v -0.8 0.3 -0.4
v -0.6 0.3 -0.4
v -0.5 0.3 -0.4
v 0.2 0.3 -0.4
v 0.5 0.3 -0.4
v -0.5 0.3 -0.5
v -0.4 0.3 -0.5
v 0.1 0.3 -0.5
v 0.2 0.3 -0.5
v 0.3 0.3 -0.5
v 0.5 0.3 -0.5
v -0.4 0.3 -0.6
v -0.3 0.3 -0.6
v -0.2 0.3 -0.6
v -0.1 0.3 -0.6
v 0 0.3 -0.6
v 0.1 0.3 -0.6
v 0.2 0.3 -0.6
v 0.3 0.3 -0.6
v -0.3 0.3 -0.7
v -0.2 0.3 -0.7
v -0.1 0.3 -0.7
v 0 0.3 -0.7
v -0.2 0.4 -0.6
v -0.1 0.4 -0.6
v -0.2 0.4 -0.7
v -0.1 0.4 -0.7
v 0.3 0.6 0.6
v 0.4 0.6 0.6
v 0.3 0.6 0.5
v 0.4 0.6 0.5
v 0 0.6 -0.6
v 0.1 0.6 -0.6
v 0 0.6 -0.7
v 0.1 0.6 -0.7
v 0.4 0.7 0.4
v 0.5 0.7 0.4
v 0.4 0.7 0.3
v 0.5 0.7 0.3
v 0.4 0.8 0.1
v 0.5 0.8 0.1
v 0.4 0.8 0
v 0.5 0.8 0
v -0.1 0.8 -0.5
v 0 0.8 -0.5
v -0.1 0.8 -0.6
v 0 0.8 -0.6
v -0.8 0.9 0.5
v -0.7 0.9 0.5
v -0.8 0.9 0.4
v -0.7 0.9 0.4
v -0.3 1.2 0.4
v -0.2 1.2 0.4
v -0.3 1.2 0.3
v -0.2 1.2 0.3
v 0.4 0.3 -0.2
v 0.5 0.3 -0.2
v 0.4 0.3 -0.3
v 0.5 0.3 -0.3
v -0.8 0.4 0.7
v -0.7 0.4 0.7
v 0.3 0.4 0.7
v 0.4 0.4 0.7
v -0.8 0.4 0.6
v -0.7 0.4 0.6
v 0.3 0.4 0.6
v 0.4 0.4 0.6
v 0.4 0.4 0.5
v 0.5 0.4 0.5
v 0.4 0.4 0.4
v 0.5 0.4 0.4
v 0.6 0.4 0.4
v -1 0.4 0.2
v -0.9 0.4 0.2
v 0.5 0.4 0.2
v 0.6 0.4 0.2
v 0.7 0.4 0.2
v -1 0.4 0.1
v -0.9 0.4 0.1
v 0.6 0.4 0.1
v 0.7 0.4 0.1
v 0.5 0.4 0
v 0.6 0.4 0
v 0.5 0.4 -0.1
v 0.6 0.4 -0.1
v 0.7 0.4 -0.1
v 0.6 0.4 -0.2
v 0.7 0.4 -0.2
v 0.3 0.4 -0.4
v 0.4 0.4 -0.4
v 0.3 0.4 -0.5
v 0.4 0.4 -0.5
v -0.3 0.4 -0.6
v -0.2 0.4 -0.6
v -0.3 0.4 -0.7
v -0.2 0.4 -0.7
v 0.3 0.5 0.6
v 0.5 0.5 0.6
v 0.3 0.5 0.5
v 0.4 0.5 0.5
v 0.5 0.5 0.5
v 0.4 0.5 0.4
v 0.5 0.5 0.4
v 0.6 0.5 0.4
v 0.7 0.5 0.4
v 0.4 0.5 0.2
v 0.5 0.5 0.2
v 0.6 0.5 0.2
v 0.7 0.5 0.2
v 0.5 0.5 0.1
v 0.6 0.5 0.1
v 0.5 0.5 0
v 0.6 0.5 0
v -0.9 0.5 -0.2
v -0.8 0.5 -0.2
v -0.9 0.5 -0.3
v -0.8 0.5 -0.3
v -0.1 0.5 -0.6
v 0 0.5 -0.6
v -0.1 0.5 -0.7
v 0 0.5 -0.7
v -0.6 0.6 0.8
v -0.5 0.6 0.8
v -0.6 0.6 0.7
v -0.5 0.6 0.7
v 0.5 0.6 0.2
v 0.6 0.6 0.2
v -0.9 0.6 0.1
v -0.8 0.6 0.1
v 0.4 0.6 0.1
v 0.5 0.6 0.1
v 0.6 0.6 0.1
v -0.8 0.6 -0.1
v -0.6 0.6 -0.1
v 0.5 0.6 -0.1
v 0.6 0.6 -0.1
v -0.9 0.6 -0.2
v -0.8 0.6 -0.2
v 0.4 0.6 -0.2
v 0.6 0.6 -0.2
v -0.8 0.6 -0.3
v -0.7 0.6 -0.3
v -0.6 0.6 -0.3
v -0.8 0.6 -0.4
v -0.7 0.6 -0.4
v 0.4 0.6 -0.4
v 0.5 0.6 -0.4
v 0.4 0.6 -0.5
v 0.5 0.6 -0.5
v -0.8 0.7 0.6
v -0.7 0.7 0.6
v -0.8 0.7 0.5
v -0.7 0.7 0.5
v -0.9 0.7 0.4
v -0.8 0.7 0.4
v -0.9 0.7 0.3
v -0.8 0.7 0.3
v 0.3 0.7 0.3
v 0.4 0.7 0.3
v -0.9 0.7 0.2
v -0.8 0.7 0.2
v 0.3 0.7 0.2
v 0.4 0.7 0.2
v 0.5 0.7 0.2
v -0.9 0.7 0.1
v -0.8 0.7 0.1
v 0.4 0.7 0.1
v 0.5 0.7 0.1
v 0.3 0.7 0
v 0.4 0.7 0
v -0.6 0.7 -0.2
v -0.5 0.7 -0.2
v 0.3 0.7 -0.2
v 0.4 0.7 -0.2
v -0.7 0.7 -0.3
v -0.6 0.7 -0.3
v -0.5 0.7 -0.3
v 0.3 0.7 -0.3
v 0.4 0.7 -0.3
v 0.5 0.7 -0.3
v -0.7 0.7 -0.4
v -0.6 0.7 -0.4
v -0.5 0.7 -0.4
v -0.4 0.7 -0.4
v 0.1 0.7 -0.4
v 0.3 0.7 -0.4
v 0.5 0.7 -0.4
v -0.5 0.7 -0.5
v -0.4 0.7 -0.5
v -0.3 0.7 -0.5
v -0.2 0.7 -0.5
v 0 0.7 -0.5
v -0.4 0.7 -0.6
v -0.3 0.7 -0.6
v -0.2 0.7 -0.6
v -0.1 0.7 -0.6
v 0 0.7 -0.6
v 0.1 0.7 -0.6
v 0.3 0.7 -0.6
v -0.2 0.7 -0.7
v -0.1 0.7 -0.7
v 0 0.7 -0.7
v 0.1 0.7 -0.7
v -0.4 0.8 0.9
v -0.3 0.8 0.9
v -0.2 0.8 0.9
v -0.5 0.8 0.8
v -0.4 0.8 0.8
v -0.3 0.8 0.8
v -0.2 0.8 0.8
v -0.7 0.8 0.7
v -0.5 0.8 0.7
v -0.2 0.8 0.7
v -0.6 0.8 0.6
v -0.5 0.8 0.6
v 0.3 0.8 0.6
v 0.4 0.8 0.6
v -0.8 0.8 0.5
v -0.7 0.8 0.5
v -0.6 0.8 0.5
v 0.2 0.8 0.5
v 0.3 0.8 0.5
v -0.8 0.8 0.4
v -0.7 0.8 0.4
v 0.2 0.8 0.4
v 0.3 0.8 0.4
v 0.4 0.8 0.4
v 0.5 0.8 0.4
v -0.9 0.8 0.3
v -0.8 0.8 0.3
v 0.3 0.8 0.3
v 0.5 0.8 0.3
v -0.9 0.8 0.2
v -0.8 0.8 0.2
v -0.7 0.8 0.2
v 0.3 0.8 0.2
v 0.4 0.8 0.2
v -0.7 0.8 0.1
v -0.6 0.8 0.1
v 0.3 0.8 0.1
v 0.4 0.8 0.1
v -0.8 0.8 -0.1
v -0.6 0.8 -0.1
v -0.5 0.8 -0.1
v 0.2 0.8 -0.1
v 0.3 0.8 -0.1
v -0.6 0.8 -0.2
v -0.5 0.8 -0.2
v 0.2 0.8 -0.2
v 0.3 0.8 -0.2
v 0.4 0.8 -0.2
v -0.6 0.8 -0.3
v -0.5 0.8 -0.3
v -0.4 0.8 -0.3
v 0.2 0.8 -0.3
v 0.3 0.8 -0.3
v 0.4 0.8 -0.3
v -0.6 0.8 -0.4
v -0.4 0.8 -0.4
v -0.3 0.8 -0.4
v 0.2 0.8 -0.4
v 0.3 0.8 -0.4
v -0.4 0.8 -0.5
v -0.3 0.8 -0.5
v -0.2 0.8 -0.5
v 0 0.8 -0.5
v 0.1 0.8 -0.5
v -0.3 0.8 -0.6
v -0.2 0.8 -0.6
v 0 0.8 -0.6
v 0.1 0.8 -0.6
v -0.2 0.9 0.9
v -0.1 0.9 0.9
v 0 0.9 0.9
v -0.2 0.9 0.8
v -0.1 0.9 0.8
v 0 0.9 0.8
v 0.2 0.9 0.8
v -0.5 0.9 0.7
v -0.2 0.9 0.7
v 0.2 0.9 0.7
v 0.3 0.9 0.7
v -0.5 0.9 0.6
v -0.2 0.9 0.6
v 0.2 0.9 0.5
v 0.3 0.9 0.5
v 0.2 0.9 0.4
v 0.3 0.9 0.4
v -0.8 0.9 0.3
v -0.6 0.9 0.3
v 0.2 0.9 0.3
v 0.3 0.9 0.3
v -0.8 0.9 0.2
v -0.7 0.9 0.2
v 0.1 0.9 0.2
v 0.3 0.9 0.2
v -0.7 0.9 0.1
v -0.6 0.9 0.1
v -0.3 0.9 0.1
v -0.2 0.9 0.1
v 0.1 0.9 0.1
v 0.3 0.9 0.1
v 0.5 0.9 0.1
v -0.6 0.9 0
v -0.5 0.9 0
v -0.3 0.9 0
v -0.2 0.9 0
v 0.3 0.9 0
v 0.5 0.9 0
v -0.6 0.9 -0.1
v -0.5 0.9 -0.1
v 0.1 0.9 -0.1
v 0.2 0.9 -0.1
v -0.5 0.9 -0.2
v -0.4 0.9 -0.2
v 0.2 0.9 -0.2
v 0.3 0.9 -0.2
v -0.5 0.9 -0.3
v -0.4 0.9 -0.3
v -0.3 0.9 -0.3
v 0.2 0.9 -0.3
v 0.3 0.9 -0.3
v -0.4 0.9 -0.4
v -0.3 0.9 -0.4
v -0.2 0.9 -0.4
v 0 0.9 -0.4
v 0.1 0.9 -0.4
v 0.2 0.9 -0.4
v -0.3 0.9 -0.5
v -0.2 0.9 -0.5
v 0 0.9 -0.5
v 0.1 0.9 -0.5
v -0.2 1 0.7
v 0.2 1 0.7
v -0.6 1 0.6
v -0.4 1 0.6
v -0.3 1 0.6
v -0.2 1 0.6
v -0.1 1 0.6
v -0.8 1 0.5
v -0.7 1 0.5
v -0.6 1 0.5
v -0.4 1 0.5
v -0.2 1 0.5
v -0.1 1 0.5
v 0.1 1 0.5
v -0.3 1 0.4
v -0.2 1 0.4
v 0 1 0.4
v 0.1 1 0.4
v -0.8 1 0.3
v -0.7 1 0.3
v -0.6 1 0.3
v -0.4 1 0.3
v -0.1 1 0.3
v 0 1 0.3
v 0.2 1 0.3
v 0.3 1 0.3
v -0.5 1 0.2
v -0.4 1 0.2
v 0.1 1 0.2
v 0.3 1 0.2
v -0.4 1 0.1
v -0.3 1 0.1
v -0.2 1 0.1
v 0.1 1 0.1
v 0.3 1 0.1
v -0.6 1 0
v -0.5 1 0
v -0.4 1 0
v -0.3 1 0
v -0.2 1 0
v -0.1 1 0
v -0.1 1 -0.1
v 0 1 -0.1
v 0.1 1 -0.1
v 0.3 1 -0.1
v -0.5 1 -0.2
v -0.4 1 -0.2
v -0.3 1 -0.2
v 0 1 -0.2
v 0.1 1 -0.2
v -0.4 1 -0.3
v -0.3 1 -0.3
v -0.2 1 -0.3
v 0 1 -0.3
v 0.1 1 -0.3
v -0.3 1 -0.4
v -0.2 1 -0.4
v -0.1 1 -0.4
v 0 1 -0.4
v 0.1 1 -0.4
v -0.2 1 -0.5
v -0.1 1 -0.5
v 0 1 -0.5
v -0.1 1 -0.6
v 0 1 -0.6
v -0.4 1.1 0.6
v -0.3 1.1 0.6
v -0.2 1.1 0.6
v -0.1 1.1 0.6
v -0.7 1.1 0.5
v -0.5 1.1 0.5
v -0.4 1.1 0.5
v -0.3 1.1 0.5
v -0.2 1.1 0.5
v -0.1 1.1 0.5
v 0.1 1.1 0.5
v -0.3 1.1 0.4
v -0.2 1.1 0.4
v 0 1.1 0.4
v 0.1 1.1 0.4
v -0.7 1.1 0.3
v -0.5 1.1 0.3
v -0.4 1.1 0.3
v -0.3 1.1 0.3
v -0.1 1.1 0.3
v 0 1.1 0.3
v -0.5 1.1 0.2
v -0.4 1.1 0.2
v -0.4 1.1 0.1
v -0.2 1.1 0.1
v -0.5 1.1 0
v -0.4 1.1 0
v -0.1 1.1 0
v -0.3 1.1 -0.1
v -0.1 1.1 -0.1
v 0 1.1 -0.1
v -0.4 1.1 -0.2
v -0.3 1.1 -0.2
v -0.2 1.1 -0.2
v 0 1.1 -0.2
v 0.1 1.1 -0.2
v -0.3 1.1 -0.3
v -0.2 1.1 -0.3
v 0 1.1 -0.3
v 0.1 1.1 -0.3
v -0.1 1.1 -0.4
v -0.1 1.1 -0.5
v 0 1.1 -0.5
v -0.5 1.2 0.4
v -0.4 1.2 0.4
v -0.5 1.2 0.3
v -0.4 1.2 0.3
v -0.3 1.2 -0.1
v -0.1 1.2 -0.1
v -0.3 1.2 -0.2
v -0.2 1.2 -0.2
v -0.1 1.2 -0.2
v -0.2 1.2 -0.3
v -0.1 1.2 -0.3
v -0.2 1.2 -0.4
v -0.1 1.2 -0.4
v -0.5 1.3 0.5
v -0.3 1.3 0.5
v -0.5 1.3 0.4
v -0.4 1.3 0.4
v -0.3 1.3 0.4
v -0.2 1.3 0.4
v -0.4 1.3 0.3
v -0.2 1.3 0.3
v -0.2 1.3 -0.2
v -0.1 1.3 -0.2
v -0.2 1.3 -0.3
v -0.1 1.3 -0.3

# faces
f 3/2/1 2/2/1 1/2/1
f 4/2/1 2/2/1 3/2/1
f 10/6/1 6/6/1 5/6/1
f 11/6/1 6/6/1 10/6/1
f 12/6/1 8/6/1 7/6/1
f 13/2/1 9/2/1 8/2/1
f 13/6/1 8/6/1 12/6/1
f 14/2/1 9/2/1 13/2/1
f 15/3/1 12/3/1 11/3/1
f 15/3/1 11/3/1 10/3/1
f 15/3/1 14/3/1 13/3/1
f 15/3/1 13/3/1 12/3/1
f 16/3/1 14/3/1 15/3/1
f 17/3/1 14/3/1 16/3/1
f 18/6/1 16/6/1 15/6/1
f 19/6/1 16/6/1 18/6/1
f 20/6/1 16/6/1 19/6/1
f 21/3/1 19/3/1 18/3/1
f 22/3/1 19/3/1 21/3/1
f 23/3/1 19/3/1 22/3/1
f 24/3/1 19/3/1 23/3/1
f 25/3/1 23/3/1 22/3/1
f 26/3/1 23/3/1 25/3/1
f 32/2/1 28/2/1 27/2/1
f 33/6/1 29/6/1 28/6/1
f 33/2/1 28/2/1 32/2/1
f 34/6/1 29/6/1 33/6/1
f 35/1/1 31/1/1 30/1/1
f 36/1/1 31/1/1 35/1/1
f 37/3/1 34/3/1 33/3/1
f 38/3/1 34/3/1 37/3/1
f 40/3/1 36/3/1 35/3/1
f 41/3/1 36/3/1 40/3/1
f 42/6/1 38/6/1 37/6/1
f 43/6/1 38/6/1 42/6/1
f 46/6/1 40/6/1 39/6/1
f 47/1/1 41/1/1 40/1/1
f 47/6/1 40/6/1 46/6/1
f 48/1/1 41/1/1 47/1/1
f 49/3/1 43/3/1 42/3/1
f 50/3/1 43/3/1 49/3/1
f 51/3/1 43/3/1 50/3/1
f 54/3/1 45/3/1 44/3/1
f 55/3/1 52/3/1 51/3/1
f 55/3/1 51/3/1 50/3/1
f 56/3/1 52/3/1 55/3/1
f 57/3/1 52/3/1 56/3/1
f 58/3/1 54/3/1 53/3/1
f 59/3/1 45/3/1 54/3/1
f 59/3/1 54/3/1 58/3/1
f 61/3/1 57/3/1 56/3/1
f 61/3/1 58/3/1 57/3/1
f 62/3/1 58/3/1 61/3/1
f 63/3/1 58/3/1 62/3/1
f 64/3/1 61/3/1 60/3/1
f 64/3/1 62/3/1 61/3/1
f 65/3/1 62/3/1 64/3/1
f 70/4/1 67/4/1 66/4/1
f 71/4/1 67/4/1 70/4/1
f 72/4/1 69/4/1 68/4/1
f 73/4/1 69/4/1 72/4/1
f 74/5/1 71/5/1 70/5/1
f 75/5/1 71/5/1 74/5/1
f 76/5/1 73/5/1 72/5/1
f 77/5/1 73/5/1 76/5/1
f 80/3/1 79/3/1 78/3/1
f 81/3/1 79/3/1 80/3/1
f 82/2/1 81/2/1 80/2/1
f 83/2/1 81/2/1 82/2/1
f 86/3/1 83/3/1 82/3/1
f 88/3/1 85/3/1 84/3/1
f 89/3/1 85/3/1 88/3/1
f 90/3/1 87/3/1 86/3/1
f 90/3/1 86/3/1 82/3/1
f 91/3/1 87/3/1 90/3/1
f 95/3/1 92/3/1 91/3/1
f 96/3/1 92/3/1 95/3/1
f 97/3/1 94/3/1 93/3/1
f 98/3/1 94/3/1 97/3/1
f 101/3/1 100/3/1 99/3/1
f 102/3/1 100/3/1 101/3/1
f 105/4/1 104/4/1 103/4/1
f 106/4/1 104/4/1 105/4/1
f 109/5/1 106/5/1 105/5/1
f 110/5/1 106/5/1 109/5/1
f 111/2/1 108/2/1 107/2/1
f 112/2/1 108/2/1 111/2/1
f 113/3/1 112/3/1 111/3/1
f 114/3/1 112/3/1 113/3/1
f 115/2/1 114/2/1 113/2/1
f 116/2/1 114/2/1 115/2/1
f 119/3/1 118/3/1 117/3/1
f 120/3/1 118/3/1 119/3/1
f 125/3/1 119/3/1 117/3/1
f 126/3/1 119/3/1 125/3/1
f 127/3/1 121/3/1 120/3/1
f 128/3/1 121/3/1 127/3/1
f 130/3/1 125/3/1 124/3/1
f 131/3/1 125/3/1 130/3/1
f 132/3/1 125/3/1 131/3/1
f 133/3/1 123/3/1 122/3/1
f 134/3/1 123/3/1 133/3/1
f 135/3/1 130/3/1 129/3/1
f 135/3/1 131/3/1 130/3/1
f 136/3/1 131/3/1 135/3/1
f 139/6/1 138/6/1 137/6/1
f 140/6/1 138/6/1 139/6/1
f 141/3/1 140/3/1 139/3/1
f 142/3/1 140/3/1 141/3/1
f 145/6/1 142/6/1 141/6/1
f 146/6/1 142/6/1 145/6/1
f 149/3/1 146/3/1 145/3/1
f 150/3/1 146/3/1 149/3/1
f 151/3/1 144/3/1 143/3/1
f 152/3/1 144/3/1 151/3/1
f 155/3/1 148/3/1 147/3/1
f 156/3/1 148/3/1 155/3/1
f 157/3/1 153/3/1 152/3/1
f 158/3/1 153/3/1 157/3/1
f 160/3/1 156/3/1 155/3/1
f 160/3/1 155/3/1 154/3/1
f 161/3/1 156/3/1 160/3/1
f 162/3/1 156/3/1 161/3/1
f 164/3/1 160/3/1 159/3/1
f 164/3/1 161/3/1 160/3/1
f 165/3/1 161/3/1 164/3/1
f 168/3/1 164/3/1 163/3/1
f 169/3/1 164/3/1 168/3/1
f 170/3/1 167/3/1 166/3/1
f 171/3/1 167/3/1 170/3/1
f 172/3/1 170/3/1 166/3/1
f 173/3/1 170/3/1 172/3/1
f 178/1/1 175/1/1 174/1/1
f 179/1/1 175/1/1 178/1/1
f 180/6/1 177/6/1 176/6/1
f 181/6/1 177/6/1 180/6/1
f 182/3/1 179/3/1 178/3/1
f 183/3/1 179/3/1 182/3/1
f 184/3/1 181/3/1 180/3/1
f 185/3/1 181/3/1 184/3/1
f 186/1/1 183/1/1 182/1/1
f 187/1/1 183/1/1 186/1/1
f 188/6/1 185/6/1 184/6/1
f 189/6/1 185/6/1 188/6/1
f 191/3/1 189/3/1 188/3/1
f 192/3/1 189/3/1 191/3/1
f 193/3/1 187/3/1 186/3/1
f 194/3/1 187/3/1 193/3/1
f 196/3/1 191/3/1 190/3/1
f 197/3/1 191/3/1 196/3/1
f 199/3/1 196/3/1 195/3/1
f 200/3/1 196/3/1 199/3/1
f 206/3/1 199/3/1 198/3/1
f 207/3/1 199/3/1 206/3/1
f 208/3/1 202/3/1 201/3/1
f 209/3/1 202/3/1 208/3/1
f 210/3/1 204/3/1 203/3/1
f 211/3/1 204/3/1 210/3/1
f 212/3/1 206/3/1 205/3/1
f 213/3/1 206/3/1 212/3/1
f 216/3/1 215/3/1 214/3/1
f 217/3/1 215/3/1 216/3/1
f 220/4/1 219/4/1 218/4/1
f 221/4/1 219/4/1 220/4/1
f 225/3/1 223/3/1 222/3/1
f 226/3/1 223/3/1 225/3/1
f 228/3/1 225/3/1 224/3/1
f 229/3/1 225/3/1 228/3/1
f 231/3/1 228/3/1 227/3/1
f 232/3/1 228/3/1 231/3/1
f 234/3/1 231/3/1 230/3/1
f 235/3/1 231/3/1 234/3/1
f 236/3/1 234/3/1 233/3/1
f 237/3/1 234/3/1 236/3/1
f 240/5/1 239/5/1 238/5/1
f 241/5/1 239/5/1 240/5/1
f 242/4/1 241/4/1 240/4/1
f 243/4/1 241/4/1 242/4/1
f 244/5/1 243/5/1 242/5/1
f 245/5/1 243/5/1 244/5/1
f 249/5/1 247/5/1 246/5/1
f 250/3/1 248/3/1 247/3/1
f 250/5/1 247/5/1 249/5/1
f 251/3/1 248/3/1 250/3/1
f 257/3/1 252/3/1 251/3/1
f 258/3/1 252/3/1 257/3/1
f 260/3/1 254/3/1 253/3/1
f 261/3/1 254/3/1 260/3/1
f 263/3/1 256/3/1 255/3/1
f 264/3/1 256/3/1 263/3/1
f 265/3/1 259/3/1 258/3/1
f 266/3/1 259/3/1 265/3/1
f 268/3/1 263/3/1 262/3/1
f 269/3/1 268/3/1 267/3/1
f 270/3/1 263/3/1 268/3/1
f 270/3/1 268/3/1 269/3/1
f 271/3/1 263/3/1 270/3/1
f 272/3/1 270/3/1 269/3/1
f 273/3/1 270/3/1 272/3/1
f 276/4/1 275/4/1 274/4/1
f 277/4/1 275/4/1 276/4/1
f 283/3/1 279/3/1 278/3/1
f 284/3/1 279/3/1 283/3/1
f 285/3/1 281/3/1 280/3/1
f 286/3/1 281/3/1 285/3/1
f 287/3/1 283/3/1 282/3/1
f 288/3/1 283/3/1 287/3/1
f 292/3/1 290/3/1 289/3/1
f 293/3/1 290/3/1 292/3/1
f 294/3/1 292/3/1 291/3/1
f 295/3/1 292/3/1 294/3/1
f 300/4/1 297/4/1 296/4/1
f 301/4/1 297/4/1 300/4/1
f 302/4/1 299/4/1 298/4/1
f 303/4/1 299/4/1 302/4/1
f 304/5/1 301/5/1 300/5/1
f 305/5/1 301/5/1 304/5/1
f 306/5/1 303/5/1 302/5/1
f 307/5/1 303/5/1 306/5/1
f 310/3/1 309/3/1 308/3/1
f 311/3/1 309/3/1 310/3/1
f 312/1/1 311/1/1 310/1/1
f 313/1/1 311/1/1 312/1/1
f 316/3/1 315/3/1 314/3/1
f 317/3/1 315/3/1 316/3/1
f 318/4/2 319/4/2 322/4/2
f 322/4/2 319/4/2 323/4/2
f 320/4/2 321/4/2 324/4/2
f 324/4/2 321/4/2 325/4/2
f 322/5/2 323/5/2 326/5/2
f 326/5/2 323/5/2 327/5/2
f 324/5/2 325/5/2 328/5/2
f 328/5/2 325/5/2 329/5/2
f 330/3/2 331/3/2 332/3/2
f 332/3/2 331/3/2 333/3/2
f 334/3/2 335/3/2 338/3/2
f 338/3/2 335/3/2 339/3/2
f 336/3/2 337/3/2 340/3/2
f 340/3/2 337/3/2 341/3/2
f 341/3/2 337/3/2 342/3/2
f 342/3/2 343/3/2 344/3/2
f 341/3/2 342/3/2 344/3/2
f 344/3/2 343/3/2 345/3/2
f 341/3/2 344/3/2 346/3/2
f 346/3/2 344/3/2 347/3/2
f 348/4/2 349/4/2 350/4/2
f 350/4/2 349/4/2 351/4/2
f 352/3/2 353/3/2 354/3/2
f 354/3/2 353/3/2 355/3/2
f 356/3/2 357/3/2 358/3/2
f 358/3/2 357/3/2 359/3/2
f 360/3/2 361/3/2 362/3/2
f 362/3/2 361/3/2 363/3/2
f 364/4/2 365/4/2 366/4/2
f 366/4/2 365/4/2 367/4/2
f 366/5/2 367/5/2 368/5/2
f 368/5/2 367/5/2 369/5/2
f 370/3/2 371/3/2 374/3/2
f 374/3/2 371/3/2 375/3/2
f 372/3/2 373/3/2 376/3/2
f 376/3/2 373/3/2 377/3/2
f 377/3/2 378/3/2 379/3/2
f 379/3/2 378/3/2 380/3/2
f 380/3/2 378/3/2 381/3/2
f 381/3/2 378/3/2 382/3/2
f 380/3/2 381/3/2 383/3/2
f 383/3/2 381/3/2 384/3/2
f 385/4/2 386/4/2 389/4/2
f 389/4/2 386/4/2 390/4/2
f 387/4/2 388/4/2 391/4/2
f 391/4/2 388/4/2 392/4/2
f 389/5/2 390/5/2 393/5/2
f 393/5/2 390/5/2 394/5/2
f 391/5/2 392/5/2 395/5/2
f 395/5/2 392/5/2 396/5/2
f 393/4/2 394/4/2 397/4/2
f 397/4/2 394/4/2 398/4/2
f 397/5/2 398/5/2 399/5/2
f 399/5/2 398/5/2 400/5/2
f 399/4/2 400/4/2 403/4/2
f 403/4/2 400/4/2 404/4/2
f 401/3/2 402/3/2 406/3/2
f 405/3/2 406/3/2 412/3/2
f 406/3/2 402/3/2 413/3/2
f 412/3/2 406/3/2 413/3/2
f 413/3/2 402/3/2 414/3/2
f 407/3/2 408/3/2 415/3/2
f 415/3/2 408/3/2 416/3/2
f 409/3/2 410/3/2 417/3/2
f 417/3/2 410/3/2 418/3/2
f 411/3/2 412/3/2 419/3/2
f 412/3/2 413/3/2 419/3/2
f 419/3/2 413/3/2 420/3/2
f 421/3/2 422/3/2 424/3/2
f 424/3/2 422/3/2 425/3/2
f 423/3/2 424/3/2 426/3/2
f 426/3/2 424/3/2 427/3/2
f 423/3/2 426/3/2 431/3/2
f 431/3/2 426/3/2 432/3/2
f 428/3/2 429/3/2 435/3/2
f 435/3/2 429/3/2 436/3/2
f 430/3/2 431/3/2 437/3/2
f 437/3/2 431/3/2 438/3/2
f 438/3/2 431/3/2 439/3/2
f 439/3/2 431/3/2 440/3/2
f 433/3/2 434/3/2 441/3/2
f 441/3/2 434/3/2 442/3/2
f 438/3/2 439/3/2 443/3/2
f 443/3/2 439/3/2 444/3/2
f 445/1/2 446/1/2 447/1/2
f 447/1/2 446/1/2 448/1/2
f 447/3/2 448/3/2 449/3/2
f 449/3/2 448/3/2 450/3/2
f 449/1/2 450/1/2 451/1/2
f 451/1/2 450/1/2 452/1/2
f 451/3/2 452/3/2 459/3/2
f 459/3/2 452/3/2 460/3/2
f 453/3/2 454/3/2 461/3/2
f 461/3/2 454/3/2 462/3/2
f 455/3/2 456/3/2 464/3/2
f 464/3/2 456/3/2 465/3/2
f 457/3/2 458/3/2 466/3/2
f 466/3/2 458/3/2 467/3/2
f 462/3/2 463/3/2 468/3/2
f 460/3/2 461/3/2 468/3/2
f 461/3/2 462/3/2 468/3/2
f 468/3/2 463/3/2 469/3/2
f 470/1/2 471/1/2 475/1/2
f 475/1/2 471/1/2 476/1/2
f 472/3/2 473/3/2 477/3/2
f 477/3/2 473/3/2 478/3/2
f 474/3/2 475/3/2 480/3/2
f 475/3/2 476/3/2 480/3/2
f 480/3/2 476/3/2 481/3/2
f 477/1/2 478/1/2 482/1/2
f 478/6/2 479/6/2 483/6/2
f 482/1/2 478/1/2 483/1/2
f 483/6/2 479/6/2 484/6/2
f 480/1/2 481/1/2 485/1/2
f 485/1/2 481/1/2 486/1/2
f 485/3/2 486/3/2 492/3/2
f 492/3/2 486/3/2 493/3/2
f 482/3/2 483/3/2 494/3/2
f 487/3/2 488/3/2 497/3/2
f 497/3/2 488/3/2 498/3/2
f 489/3/2 490/3/2 500/3/2
f 500/3/2 490/3/2 501/3/2
f 491/3/2 492/3/2 502/3/2
f 502/3/2 492/3/2 503/3/2
f 494/3/2 495/3/2 504/3/2
f 482/3/2 494/3/2 504/3/2
f 504/3/2 495/3/2 505/3/2
f 498/3/2 499/3/2 506/3/2
f 496/3/2 497/3/2 506/3/2
f 497/3/2 498/3/2 506/3/2
f 506/3/2 499/3/2 507/3/2
f 507/3/2 499/3/2 508/3/2
f 508/3/2 499/3/2 509/3/2
f 489/3/2 500/3/2 510/3/2
f 501/3/2 502/3/2 511/3/2
f 511/3/2 502/3/2 512/3/2
f 507/3/2 508/3/2 513/3/2
f 513/3/2 508/3/2 514/3/2
f 509/3/2 510/3/2 515/3/2
f 510/3/2 500/3/2 516/3/2
f 515/3/2 510/3/2 516/3/2
f 517/1/2 518/1/2 521/1/2
f 521/1/2 518/1/2 522/1/2
f 519/6/2 520/6/2 525/6/2
f 525/6/2 520/6/2 526/6/2
f 523/3/2 524/3/2 527/3/2
f 527/3/2 524/3/2 528/3/2
f 525/3/2 526/3/2 530/3/2
f 530/3/2 526/3/2 531/3/2
f 528/6/2 529/6/2 533/6/2
f 527/6/2 528/6/2 533/6/2
f 533/6/2 529/6/2 534/6/2
f 530/6/2 531/6/2 536/6/2
f 536/6/2 531/6/2 537/6/2
f 533/3/2 534/3/2 538/3/2
f 532/3/2 533/3/2 538/3/2
f 538/3/2 534/3/2 539/3/2
f 539/3/2 534/3/2 540/3/2
f 536/3/2 537/3/2 541/3/2
f 535/3/2 536/3/2 541/3/2
f 541/3/2 537/3/2 542/3/2
f 542/3/2 537/3/2 543/3/2
f 543/3/2 537/3/2 544/3/2
f 532/3/2 538/3/2 545/3/2
f 545/3/2 538/3/2 546/3/2
f 541/3/2 542/3/2 547/3/2
f 540/3/2 541/3/2 547/3/2
f 547/3/2 542/3/2 548/3/2
f 548/3/2 542/3/2 549/3/2
f 543/3/2 544/3/2 550/3/2
f 550/3/2 544/3/2 551/3/2
f 552/4/2 553/4/2 556/4/2
f 556/4/2 553/4/2 557/4/2
f 554/4/2 555/4/2 558/4/2
f 558/4/2 555/4/2 559/4/2
f 556/5/2 557/5/2 561/5/2
f 561/5/2 557/5/2 562/5/2
f 562/5/2 557/5/2 563/5/2
f 558/5/2 559/5/2 564/5/2
f 564/5/2 559/5/2 565/5/2
f 565/5/2 559/5/2 566/5/2
f 560/6/2 561/6/2 569/6/2
f 561/6/2 562/6/2 569/6/2
f 569/6/2 562/6/2 570/6/2
f 570/6/2 562/6/2 571/6/2
f 566/6/2 567/6/2 575/6/2
f 567/1/2 568/1/2 576/1/2
f 575/6/2 567/6/2 576/6/2
f 576/1/2 568/1/2 577/1/2
f 569/3/2 570/3/2 578/3/2
f 578/3/2 570/3/2 579/3/2
f 571/3/2 572/3/2 580/3/2
f 580/3/2 572/3/2 581/3/2
f 573/3/2 574/3/2 583/3/2
f 583/3/2 574/3/2 584/3/2
f 576/3/2 577/3/2 585/3/2
f 575/3/2 576/3/2 585/3/2
f 585/3/2 577/3/2 586/3/2
f 586/3/2 577/3/2 587/3/2
f 583/6/2 584/6/2 589/6/2
f 582/6/2 583/6/2 589/6/2
f 589/6/2 584/6/2 590/6/2
f 585/6/2 586/6/2 591/6/2
f 586/1/2 587/1/2 592/1/2
f 591/6/2 586/6/2 592/6/2
f 592/1/2 587/1/2 593/1/2
f 588/3/2 589/3/2 596/3/2
f 596/3/2 589/3/2 597/3/2
f 591/3/2 592/3/2 598/3/2
f 598/3/2 592/3/2 599/3/2
f 594/3/2 595/3/2 600/3/2
f 600/3/2 595/3/2 601/3/2
f 602/3/2 603/3/2 604/3/2
f 604/3/2 603/3/2 605/3/2
f 606/6/2 607/6/2 609/6/2
f 609/6/2 607/6/2 610/6/2
f 610/6/2 607/6/2 611/6/2
f 608/3/2 609/3/2 613/3/2
f 609/3/2 610/3/2 613/3/2
f 613/3/2 610/3/2 614/3/2
f 614/3/2 610/3/2 615/3/2
f 611/3/2 612/3/2 616/3/2
f 616/3/2 612/3/2 617/3/2
f 613/6/2 614/6/2 618/6/2
f 618/6/2 614/6/2 619/6/2
f 616/6/2 617/6/2 620/6/2
f 620/6/2 617/6/2 621/6/2
f 622/2/2 623/2/2 627/2/2
f 623/1/2 624/1/2 628/1/2
f 627/2/2 623/2/2 628/2/2
f 628/1/2 624/1/2 629/1/2
f 629/1/2 624/1/2 630/1/2
f 625/1/2 626/1/2 631/1/2
f 631/1/2 626/1/2 632/1/2
f 627/3/2 628/3/2 633/3/2
f 628/3/2 629/3/2 633/3/2
f 633/3/2 629/3/2 634/3/2
f 640/1/3 636/1/3 635/1/3
f 641/3/3 637/3/3 636/3/3
f 641/1/3 636/1/3 640/1/3
f 642/1/3 638/1/3 637/1/3
f 642/3/3 637/3/3 641/3/3
f 643/3/3 639/3/3 638/3/3
f 643/1/3 638/1/3 642/1/3
f 644/3/3 639/3/3 643/3/3
f 645/5/3 644/5/3 643/5/3
f 647/5/3 645/5/3 643/5/3
f 647/5/3 646/5/3 645/5/3
f 648/5/3 646/5/3 647/5/3
f 649/4/3 641/4/3 640/4/3
f 650/5/3 642/5/3 641/5/3
f 650/4/3 641/4/3 649/4/3
f 651/4/3 643/4/3 642/4/3
f 651/5/3 642/5/3 650/5/3
f 652/5/3 647/5/3 643/5/3
f 652/4/3 643/4/3 651/4/3
f 653/4/3 648/4/3 647/4/3
f 653/5/3 647/5/3 652/5/3
f 654/4/3 648/4/3 653/4/3
f 659/2/3 658/2/3 657/2/3
f 661/2/3 656/2/3 655/2/3
f 662/3/3 657/3/3 656/3/3
f 662/2/3 656/2/3 661/2/3
f 663/2/3 659/2/3 657/2/3
f 663/3/3 657/3/3 662/3/3
f 664/3/3 660/3/3 659/3/3
f 664/2/3 659/2/3 663/2/3
f 665/3/3 660/3/3 664/3/3
f 672/6/3 667/6/3 666/6/3
f 673/3/3 668/3/3 667/3/3
f 673/6/3 667/6/3 672/6/3
f 674/6/3 669/6/3 668/6/3
f 674/3/3 668/3/3 673/3/3
f 675/3/3 670/3/3 669/3/3
f 675/6/3 669/6/3 674/6/3
f 675/3/3 671/3/3 670/3/3
f 676/1/3 673/1/3 672/1/3
f 677/3/3 674/3/3 673/3/3
f 677/1/3 673/1/3 676/1/3
f 678/1/3 675/1/3 674/1/3
f 678/3/3 674/3/3 677/3/3
f 679/3/3 671/3/3 675/3/3
f 679/1/3 675/1/3 678/1/3
f 680/3/3 671/3/3 679/3/3
f 683/2/3 682/2/3 681/2/3
f 687/2/3 683/2/3 681/2/3
f 688/3/3 684/3/3 683/3/3
f 688/2/3 683/2/3 687/2/3
f 689/2/3 685/2/3 684/2/3
f 689/3/3 684/3/3 688/3/3
f 690/3/3 686/3/3 685/3/3
f 690/2/3 685/2/3 689/2/3
f 691/3/3 686/3/3 690/3/3
f 692/3/3 686/3/3 691/3/3
f 694/3/3 693/3/3 692/3/3
f 695/3/3 693/3/3 694/3/3
f 701/3/3 696/3/3 695/3/3
f 702/3/3 696/3/3 701/3/3
f 703/1/3 698/1/3 697/1/3
f 703/3/3 699/3/3 698/3/3
f 704/1/3 700/1/3 699/1/3
f 704/3/3 699/3/3 703/3/3
f 705/3/3 701/3/3 700/3/3
f 705/1/3 700/1/3 704/1/3
f 706/3/3 701/3/3 705/3/3
f 707/1/3 703/1/3 697/1/3
f 708/1/3 703/1/3 707/1/3
f 713/3/3 710/3/3 709/3/3
f 714/6/3 711/6/3 710/6/3
f 714/3/3 710/3/3 713/3/3
f 715/3/3 712/3/3 711/3/3
f 715/6/3 711/6/3 714/6/3
f 716/3/3 712/3/3 715/3/3
f 719/3/3 718/3/3 717/3/3
f 720/3/3 718/3/3 719/3/3
f 721/3/3 718/3/3 720/3/3
f 723/3/3 721/3/3 720/3/3
f 723/3/3 722/3/3 721/3/3
f 724/3/3 722/3/3 723/3/3
f 725/3/3 723/3/3 720/3/3
f 726/3/3 723/3/3 725/3/3
f 728/3/3 727/3/3 726/3/3
f 729/3/3 727/3/3 728/3/3
f 735/3/3 731/3/3 730/3/3
f 736/3/3 733/3/3 732/3/3
f 737/3/3 733/3/3 736/3/3
f 738/6/3 735/6/3 734/6/3
f 739/3/3 731/3/3 735/3/3
f 739/6/3 735/6/3 738/6/3
f 740/3/3 731/3/3 739/3/3
f 748/3/3 742/3/3 741/3/3
f 749/3/3 742/3/3 748/3/3
f 750/3/3 744/3/3 743/3/3
f 751/3/3 744/3/3 750/3/3
f 753/3/3 752/3/3 751/3/3
f 753/3/3 751/3/3 750/3/3
f 753/3/3 750/3/3 749/3/3
f 754/3/3 752/3/3 753/3/3
f 755/4/3 746/4/3 745/4/3
f 756/5/3 747/5/3 746/5/3
f 756/4/3 746/4/3 755/4/3
f 757/5/3 747/5/3 756/5/3
f 758/3/3 752/3/3 754/3/3
f 760/3/3 759/3/3 758/3/3
f 760/3/3 758/3/3 754/3/3
f 761/3/3 759/3/3 760/3/3
f 762/3/3 759/3/3 761/3/3
f 763/3/3 759/3/3 762/3/3
f 766/3/3 765/3/3 764/3/3
f 767/3/3 765/3/3 766/3/3
f 773/6/3 772/6/3 771/6/3
f 774/6/3 772/6/3 773/6/3
f 775/4/3 769/4/3 768/4/3
f 776/5/3 770/5/3 769/5/3
f 776/4/3 769/4/3 775/4/3
f 777/5/3 770/5/3 776/5/3
f 783/6/3 779/6/3 778/6/3
f 784/3/3 780/3/3 779/3/3
f 784/6/3 779/6/3 783/6/3
f 785/6/3 781/6/3 780/6/3
f 785/3/3 780/3/3 784/3/3
f 786/3/3 782/3/3 781/3/3
f 786/6/3 781/6/3 785/6/3
f 787/3/3 782/3/3 786/3/3
f 790/3/3 789/3/3 788/3/3
f 791/3/3 789/3/3 790/3/3
f 796/3/3 793/3/3 792/3/3
f 797/3/3 793/3/3 796/3/3
f 798/3/3 795/3/3 794/3/3
f 799/3/3 795/3/3 798/3/3
f 802/3/3 801/3/3 800/3/3
f 803/3/3 801/3/3 802/3/3
f 809/3/3 805/3/3 804/3/3
f 810/3/3 805/3/3 809/3/3
f 811/3/3 807/3/3 806/3/3
f 812/3/3 807/3/3 811/3/3
f 813/6/3 809/6/3 808/6/3
f 814/6/3 809/6/3 813/6/3
f 816/2/3 814/2/3 813/2/3
f 817/3/3 815/3/3 814/3/3
f 817/2/3 814/2/3 816/2/3
f 818/3/3 815/3/3 817/3/3
f 821/3/3 820/3/3 819/3/3
f 822/3/3 820/3/3 821/3/3
f 825/3/3 824/3/3 823/3/3
f 826/3/3 824/3/3 825/3/3
f 829/2/3 828/2/3 827/2/3
f 830/2/3 828/2/3 829/2/3
f 833/3/3 832/3/3 831/3/3
f 834/3/3 832/3/3 833/3/3
f 839/3/3 836/3/3 835/3/3
f 840/3/3 836/3/3 839/3/3
f 842/6/3 838/6/3 837/6/3
f 843/3/3 839/3/3 838/3/3
f 843/6/3 838/6/3 842/6/3
f 844/3/3 839/3/3 843/3/3
f 845/3/3 842/3/3 841/3/3
f 846/6/3 843/6/3 842/6/3
f 846/3/3 842/3/3 845/3/3
f 847/6/3 843/6/3 846/6/3
f 851/3/3 849/3/3 848/3/3
f 852/3/3 849/3/3 851/3/3
f 853/3/3 851/3/3 850/3/3
f 854/3/3 851/3/3 853/3/3
f 855/3/3 851/3/3 854/3/3
f 859/3/3 857/3/3 856/3/3
f 860/3/3 859/3/3 858/3/3
f 861/3/3 857/3/3 859/3/3
f 861/3/3 859/3/3 860/3/3
f 862/3/3 857/3/3 861/3/3
f 863/3/3 857/3/3 862/3/3
f 867/4/3 865/4/3 864/4/3
f 868/5/3 866/5/3 865/5/3
f 868/4/3 865/4/3 867/4/3
f 869/5/3 866/5/3 868/5/3
f 873/3/3 871/3/3 870/3/3
f 874/3/3 871/3/3 873/3/3
f 875/3/3 873/3/3 872/3/3
f 876/3/3 873/3/3 875/3/3
f 880/4/3 878/4/3 877/4/3
f 881/5/3 879/5/3 878/5/3
f 881/4/3 878/4/3 880/4/3
f 882/5/3 879/5/3 881/5/3
f 887/3/3 884/3/3 883/3/3
f 888/6/3 885/6/3 884/6/3
f 888/3/3 884/3/3 887/3/3
f 889/6/3 885/6/3 888/6/3
f 890/1/3 887/1/3 886/1/3
f 891/1/3 887/1/3 890/1/3
f 894/3/3 893/3/3 892/3/3
f 895/3/3 893/3/3 894/3/3
f 898/3/3 897/3/3 896/3/3
f 899/3/3 897/3/3 898/3/3
f 903/3/3 901/3/3 900/3/3
f 904/3/3 901/3/3 903/3/3
f 905/3/3 903/3/3 902/3/3
f 906/3/3 903/3/3 905/3/3
f 909/3/3 908/3/3 907/3/3
f 910/3/3 908/3/3 909/3/3
f 912/3/3 911/3/3 910/3/3
f 913/3/3 911/3/3 912/3/3
f 919/6/3 915/6/3 914/6/3
f 920/3/3 916/3/3 915/3/3
f 920/6/3 915/6/3 919/6/3
f 921/6/3 917/6/3 916/6/3
f 921/3/3 916/3/3 920/3/3
f 922/3/3 918/3/3 917/3/3
f 922/6/3 917/6/3 921/6/3
f 923/3/3 918/3/3 922/3/3
f 924/3/4 925/3/4 926/3/4
f 926/3/4 925/3/4 927/3/4
f 928/3/4 929/3/4 930/3/4
f 930/3/4 929/3/4 931/3/4
f 932/3/4 933/3/4 934/3/4
f 934/3/4 933/3/4 935/3/4
f 936/3/4 937/3/4 938/3/4
f 938/3/4 937/3/4 939/3/4
f 940/3/4 941/3/4 942/3/4
f 942/3/4 941/3/4 943/3/4
f 944/3/4 945/3/4 949/3/4
f 944/3/4 949/3/4 951/3/4
f 949/3/4 950/3/4 951/3/4
f 951/3/4 950/3/4 952/3/4
f 946/4/4 947/4/4 953/4/4
f 947/5/4 948/5/4 954/5/4
f 953/4/4 947/4/4 954/4/4
f 954/5/4 948/5/4 955/5/4
f 952/3/4 950/3/4 956/3/4
f 956/3/4 957/3/4 958/3/4
f 952/3/4 956/3/4 958/3/4
f 958/3/4 957/3/4 959/3/4
f 959/3/4 957/3/4 960/3/4
f 960/3/4 961/3/4 962/3/4
f 959/3/4 960/3/4 962/3/4
f 962/3/4 961/3/4 963/3/4
f 963/3/4 961/3/4 964/3/4
f 964/3/4 961/3/4 965/3/4
f 966/3/4 967/3/4 968/3/4
f 968/3/4 967/3/4 969/3/4
f 973/3/4 974/3/4 975/3/4
f 970/4/4 971/4/4 976/4/4
f 971/5/4 972/5/4 977/5/4
f 976/4/4 971/4/4 977/4/4
f 977/5/4 972/5/4 978/5/4
f 975/3/4 974/3/4 979/3/4
f 979/3/4 974/3/4 980/3/4
f 981/3/4 982/3/4 983/3/4
f 983/3/4 982/3/4 984/3/4
f 984/3/4 985/3/4 986/3/4
f 986/3/4 985/3/4 987/3/4
f 988/3/4 989/3/4 990/3/4
f 990/3/4 989/3/4 991/3/4
f 992/3/4 993/3/4 994/3/4
f 994/3/4 993/3/4 995/3/4
f 996/2/4 997/2/4 998/2/4
f 998/2/4 997/2/4 999/2/4
f 1000/3/4 1001/3/4 1002/3/4
f 1002/3/4 1001/3/4 1003/3/4
f 1004/3/4 1005/3/4 1006/3/4
f 1006/3/4 1005/3/4 1007/3/4
f 1008/3/4 1009/3/4 1011/3/4
f 1010/3/4 1011/3/4 1012/3/4
f 1011/3/4 1009/3/4 1013/3/4
f 1012/3/4 1011/3/4 1013/3/4
f 1013/3/4 1009/3/4 1014/3/4
f 1015/3/4 1016/3/4 1018/3/4
f 1018/3/4 1016/3/4 1019/3/4
f 1017/6/4 1018/6/4 1022/6/4
f 1022/6/4 1018/6/4 1023/6/4
f 1020/1/4 1021/1/4 1024/1/4
f 1024/1/4 1021/1/4 1025/1/4
f 1026/3/4 1027/3/4 1028/3/4
f 1028/3/4 1027/3/4 1029/3/4
f 1029/3/4 1030/3/4 1031/3/4
f 1031/3/4 1030/3/4 1032/3/4
f 1033/3/4 1034/3/4 1035/3/4
f 1035/3/4 1034/3/4 1036/3/4
f 1036/3/4 1034/3/4 1039/3/4
f 1039/3/4 1034/3/4 1040/3/4
f 1037/3/4 1038/3/4 1041/3/4
f 1041/3/4 1038/3/4 1042/3/4
f 1043/3/4 1044/3/4 1045/3/4
f 1045/3/4 1044/3/4 1046/3/4
f 1046/3/4 1047/3/4 1048/3/4
f 1048/3/4 1047/3/4 1049/3/4
f 1050/3/4 1051/3/4 1053/3/4
f 1052/3/4 1053/3/4 1054/3/4
f 1053/3/4 1051/3/4 1055/3/4
f 1054/3/4 1053/3/4 1055/3/4
f 1056/6/4 1057/6/4 1058/6/4
f 1058/6/4 1057/6/4 1059/6/4
f 1060/4/4 1061/4/4 1063/4/4
f 1061/5/4 1062/5/4 1064/5/4
f 1063/4/4 1061/4/4 1064/4/4
f 1064/5/4 1062/5/4 1065/5/4
f 1066/3/4 1067/3/4 1068/3/4
f 1068/3/4 1067/3/4 1069/3/4
f 1070/3/4 1071/3/4 1072/3/4
f 1072/3/4 1071/3/4 1073/3/4
f 1073/3/4 1074/3/4 1075/3/4
f 1075/3/4 1074/3/4 1076/3/4
f 1076/3/4 1077/3/4 1078/3/4
f 1078/3/4 1077/3/4 1079/3/4
f 1080/6/4 1081/6/4 1084/6/4
f 1084/6/4 1081/6/4 1085/6/4
f 1081/3/4 1082/3/4 1086/3/4
f 1085/6/4 1081/6/4 1086/6/4
f 1082/6/4 1083/6/4 1087/6/4
f 1086/3/4 1082/3/4 1087/3/4
f 1087/6/4 1083/6/4 1088/6/4
f 1085/1/4 1086/1/4 1089/1/4
f 1089/1/4 1086/1/4 1090/1/4
f 1091/2/4 1092/2/4 1094/2/4
f 1092/3/4 1093/3/4 1095/3/4
f 1094/2/4 1092/2/4 1095/2/4
f 1095/3/4 1093/3/4 1096/3/4
f 1097/4/4 1098/4/4 1100/4/4
f 1098/5/4 1099/5/4 1101/5/4
f 1100/4/4 1098/4/4 1101/4/4
f 1101/5/4 1099/5/4 1102/5/4
f 1103/3/4 1104/3/4 1105/3/4
f 1105/3/4 1104/3/4 1106/3/4
f 1106/3/4 1107/3/4 1108/3/4
f 1108/3/4 1107/3/4 1109/3/4
f 1109/3/4 1110/3/4 1111/3/4
f 1111/3/4 1110/3/4 1112/3/4
f 1113/3/4 1114/3/4 1115/3/4
f 1115/3/4 1114/3/4 1116/3/4
f 1117/3/4 1118/3/4 1119/3/4
f 1119/3/4 1118/3/4 1120/3/4
f 1121/3/4 1122/3/4 1127/3/4
f 1127/3/4 1122/3/4 1128/3/4
f 1126/3/4 1127/3/4 1129/3/4
f 1129/3/4 1127/3/4 1130/3/4
f 1123/4/4 1124/4/4 1131/4/4
f 1124/5/4 1125/5/4 1132/5/4
f 1131/4/4 1124/4/4 1132/4/4
f 1132/5/4 1125/5/4 1133/5/4
f 1136/1/4 1137/1/4 1138/1/4
f 1134/1/4 1135/1/4 1140/1/4
f 1135/3/4 1136/3/4 1141/3/4
f 1140/1/4 1135/1/4 1141/1/4
f 1136/1/4 1138/1/4 1142/1/4
f 1141/3/4 1136/3/4 1142/3/4
f 1138/3/4 1139/3/4 1143/3/4
f 1142/1/4 1138/1/4 1143/1/4
f 1143/3/4 1139/3/4 1144/3/4
f 1140/6/4 1141/6/4 1146/6/4
f 1141/3/4 1142/3/4 1147/3/4
f 1146/6/4 1141/6/4 1147/6/4
f 1142/6/4 1143/6/4 1148/6/4
f 1147/3/4 1142/3/4 1148/3/4
f 1144/3/4 1145/3/4 1149/3/4
f 1148/6/4 1143/6/4 1149/6/4
f 1143/3/4 1144/3/4 1149/3/4
f 1149/3/4 1145/3/4 1150/3/4
f 1150/3/4 1145/3/4 1151/3/4
f 1151/3/4 1145/3/4 1152/3/4
f 1152/3/4 1153/3/4 1154/3/4
f 1154/3/4 1153/3/4 1155/3/4
f 1155/3/4 1156/3/4 1157/3/4
f 1157/3/4 1156/3/4 1158/3/4
f 1158/3/4 1159/3/4 1160/3/4
f 1160/3/4 1159/3/4 1161/3/4
f 1161/3/4 1159/3/4 1162/3/4
f 1163/3/4 1164/3/4 1166/3/4
f 1166/3/4 1164/3/4 1167/3/4
f 1165/3/4 1166/3/4 1168/3/4
f 1168/3/4 1166/3/4 1169/3/4
f 1165/3/4 1168/3/4 1173/3/4
f 1173/3/4 1168/3/4 1174/3/4
f 1170/3/4 1171/3/4 1175/3/4
f 1171/6/4 1172/6/4 1176/6/4
f 1175/3/4 1171/3/4 1176/3/4
f 1172/3/4 1173/3/4 1177/3/4
f 1176/6/4 1172/6/4 1177/6/4
f 1177/3/4 1173/3/4 1178/3/4
f 1178/3/4 1173/3/4 1179/3/4
f 1180/6/4 1181/6/4 1185/6/4
f 1181/3/4 1182/3/4 1186/3/4
f 1185/6/4 1181/6/4 1186/6/4
f 1182/6/4 1183/6/4 1187/6/4
f 1186/3/4 1182/3/4 1187/3/4
f 1183/3/4 1184/3/4 1188/3/4
f 1187/6/4 1183/6/4 1188/6/4
f 1188/3/4 1184/3/4 1189/3/4
f 1189/3/4 1190/3/4 1191/3/4
f 1191/3/4 1190/3/4 1192/3/4
f 1192/3/4 1193/3/4 1195/3/4
f 1195/3/4 1193/3/4 1196/3/4
f 1194/3/4 1195/3/4 1198/3/4
f 1196/3/4 1197/3/4 1198/3/4
f 1195/3/4 1196/3/4 1198/3/4
f 1198/3/4 1197/3/4 1199/3/4
f 1194/3/4 1198/3/4 1201/3/4
f 1201/3/4 1198/3/4 1202/3/4
f 1199/3/4 1200/3/4 1204/3/4
f 1204/3/4 1200/3/4 1205/3/4
f 1202/3/4 1203/3/4 1206/3/4
f 1206/3/4 1203/3/4 1207/3/4
f 1208/1/4 1209/1/4 1210/1/4
f 1208/1/4 1210/1/4 1213/1/4
f 1210/3/4 1211/3/4 1214/3/4
f 1213/1/4 1210/1/4 1214/1/4
f 1211/1/4 1212/1/4 1215/1/4
f 1214/3/4 1211/3/4 1215/3/4
f 1215/1/4 1212/1/4 1216/1/4
f 1217/6/4 1218/6/4 1222/6/4
f 1218/3/4 1219/3/4 1223/3/4
f 1222/6/4 1218/6/4 1223/6/4
f 1220/3/4 1221/3/4 1224/3/4
f 1223/3/4 1219/3/4 1227/3/4
f 1219/6/4 1220/6/4 1228/6/4
f 1227/3/4 1219/3/4 1228/3/4
f 1220/3/4 1224/3/4 1229/3/4
f 1228/6/4 1220/6/4 1229/6/4
f 1224/3/4 1225/3/4 1229/3/4
f 1229/3/4 1225/3/4 1230/3/4
f 1230/3/4 1225/3/4 1231/3/4
f 1226/6/4 1227/6/4 1232/6/4
f 1232/6/4 1227/6/4 1233/6/4
f 1234/6/4 1235/6/4 1241/6/4
f 1235/3/4 1236/3/4 1242/3/4
f 1241/6/4 1235/6/4 1242/6/4
f 1242/3/4 1236/3/4 1243/3/4
f 1237/3/4 1238/3/4 1244/3/4
f 1244/3/4 1238/3/4 1245/3/4
f 1239/6/4 1240/6/4 1246/6/4
f 1240/3/4 1241/3/4 1247/3/4
f 1246/6/4 1240/6/4 1247/6/4
f 1241/6/4 1242/6/4 1248/6/4
f 1247/3/4 1241/3/4 1248/3/4
f 1248/6/4 1242/6/4 1249/6/4
f 1243/3/4 1244/3/4 1250/3/4
f 1250/3/4 1244/3/4 1251/3/4
f 1246/2/4 1247/2/4 1252/2/4
f 1247/3/4 1248/3/4 1253/3/4
f 1252/2/4 1247/2/4 1253/2/4
f 1248/2/4 1249/2/4 1254/2/4
f 1253/3/4 1248/3/4 1254/3/4
f 1249/3/4 1250/3/4 1255/3/4
f 1254/2/4 1249/2/4 1255/2/4
f 1252/1/4 1253/1/4 1256/1/4
f 1253/3/4 1254/3/4 1257/3/4
f 1256/1/4 1253/1/4 1257/1/4
f 1254/1/4 1255/1/4 1258/1/4
f 1257/3/4 1254/3/4 1258/3/4
f 1255/3/4 1250/3/4 1259/3/4
f 1258/1/4 1255/1/4 1259/1/4
f 1259/3/4 1250/3/4 1260/3/4
f 1261/4/4 1262/4/4 1263/4/4
f 1263/4/4 1262/4/4 1264/4/4
f 1264/5/4 1265/5/4 1269/5/4
f 1265/4/4 1266/4/4 1270/4/4
f 1269/5/4 1265/5/4 1270/5/4
f 1266/5/4 1267/5/4 1271/5/4
f 1270/4/4 1266/4/4 1271/4/4
f 1271/5/4 1267/5/4 1272/5/4
f 1268/4/4 1269/4/4 1273/4/4
f 1269/5/4 1270/5/4 1274/5/4
f 1273/4/4 1269/4/4 1274/4/4
f 1274/5/4 1270/5/4 1275/5/4
f 1276/3/4 1277/3/4 1278/3/4
f 1278/3/4 1277/3/4 1279/3/4
f 1284/4/5 1281/4/5 1280/4/5
f 1285/4/5 1281/4/5 1284/4/5
f 1286/4/5 1283/4/5 1282/4/5
f 1287/4/5 1283/4/5 1286/4/5
f 1292/4/5 1289/4/5 1288/4/5
f 1293/4/5 1289/4/5 1292/4/5
f 1294/4/5 1289/4/5 1293/4/5
f 1295/4/5 1289/4/5 1294/4/5
f 1296/4/5 1291/4/5 1290/4/5
f 1297/4/5 1291/4/5 1296/4/5
f 1302/1/5 1299/1/5 1298/1/5
f 1303/4/5 1300/4/5 1299/4/5
f 1303/1/5 1299/1/5 1302/1/5
f 1304/4/5 1300/4/5 1303/4/5
f 1308/2/5 1302/2/5 1301/2/5
f 1309/6/5 1303/6/5 1302/6/5
f 1309/6/5 1304/6/5 1303/6/5
f 1309/2/5 1302/2/5 1308/2/5
f 1309/6/5 1305/6/5 1304/6/5
f 1310/1/5 1306/1/5 1305/1/5
f 1312/2/5 1308/2/5 1307/2/5
f 1313/6/5 1309/6/5 1308/6/5
f 1313/2/5 1308/2/5 1312/2/5
f 1314/6/5 1305/6/5 1309/6/5
f 1314/6/5 1309/6/5 1313/6/5
f 1314/1/5 1311/1/5 1310/1/5
f 1314/1/5 1310/1/5 1305/1/5
f 1315/1/5 1311/1/5 1314/1/5
f 1317/6/5 1313/6/5 1312/6/5
f 1317/6/5 1316/6/5 1315/6/5
f 1317/6/5 1315/6/5 1314/6/5
f 1317/6/5 1314/6/5 1313/6/5
f 1318/6/5 1316/6/5 1317/6/5
f 1319/6/5 1316/6/5 1318/6/5
f 1320/6/5 1316/6/5 1319/6/5
f 1322/6/5 1317/6/5 1312/6/5
f 1326/6/5 1322/6/5 1321/6/5
f 1326/6/5 1317/6/5 1322/6/5
f 1327/6/5 1319/6/5 1318/6/5
f 1328/6/5 1319/6/5 1327/6/5
f 1329/6/5 1324/6/5 1323/6/5
f 1330/2/5 1325/2/5 1324/2/5
f 1330/6/5 1324/6/5 1329/6/5
f 1331/2/5 1325/2/5 1330/2/5
f 1333/6/5 1326/6/5 1321/6/5
f 1333/6/5 1329/6/5 1328/6/5
f 1333/6/5 1328/6/5 1327/6/5
f 1333/6/5 1330/6/5 1329/6/5
f 1333/6/5 1327/6/5 1326/6/5
f 1334/2/5 1333/2/5 1332/2/5
f 1335/6/5 1330/6/5 1333/6/5
f 1335/2/5 1333/2/5 1334/2/5
f 1336/1/5 1331/1/5 1330/1/5
f 1336/6/5 1330/6/5 1335/6/5
f 1337/1/5 1331/1/5 1336/1/5
f 1338/6/5 1336/6/5 1335/6/5
f 1339/6/5 1336/6/5 1338/6/5
f 1340/6/5 1336/6/5 1339/6/5
f 1341/6/5 1336/6/5 1340/6/5
f 1342/6/5 1336/6/5 1341/6/5
f 1344/6/5 1338/6/5 1335/6/5
f 1345/6/5 1338/6/5 1344/6/5
f 1346/6/5 1338/6/5 1345/6/5
f 1348/6/5 1342/6/5 1341/6/5
f 1349/1/5 1343/1/5 1342/1/5
f 1349/6/5 1342/6/5 1348/6/5
f 1350/1/5 1343/1/5 1349/1/5
f 1351/2/5 1345/2/5 1344/2/5
f 1352/6/5 1347/6/5 1346/6/5
f 1352/2/5 1345/2/5 1351/2/5
f 1352/6/5 1346/6/5 1345/6/5
f 1353/6/5 1347/6/5 1352/6/5
f 1354/6/5 1340/6/5 1339/6/5
f 1355/6/5 1340/6/5 1354/6/5
f 1357/1/5 1353/1/5 1352/1/5
f 1358/6/5 1356/6/5 1355/6/5
f 1358/1/5 1353/1/5 1357/1/5
f 1358/6/5 1355/6/5 1354/6/5
f 1358/6/5 1354/6/5 1353/6/5
f 1359/6/5 1356/6/5 1358/6/5
f 1360/6/5 1356/6/5 1359/6/5
f 1361/6/5 1356/6/5 1360/6/5
f 1362/6/5 1360/6/5 1359/6/5
f 1363/6/5 1360/6/5 1362/6/5
f 1364/6/5 1360/6/5 1363/6/5
f 1365/1/5 1361/1/5 1360/1/5
f 1365/6/5 1360/6/5 1364/6/5
f 1366/1/5 1361/1/5 1365/1/5
f 1367/1/5 1361/1/5 1366/1/5
f 1368/6/5 1364/6/5 1363/6/5
f 1369/6/5 1364/6/5 1368/6/5
f 1370/6/5 1364/6/5 1369/6/5
f 1371/6/5 1364/6/5 1370/6/5
f 1372/6/5 1364/6/5 1371/6/5
f 1373/2/5 1365/2/5 1364/2/5
f 1373/6/5 1364/6/5 1372/6/5
f 1374/1/5 1366/1/5 1365/1/5
f 1374/2/5 1365/2/5 1373/2/5
f 1375/1/5 1366/1/5 1374/1/5
f 1376/4/5 1370/4/5 1369/4/5
f 1377/4/5 1370/4/5 1376/4/5
f 1378/4/5 1372/4/5 1371/4/5
f 1379/4/5 1372/4/5 1378/4/5
f 1382/5/5 1381/5/5 1380/5/5
f 1383/5/5 1381/5/5 1382/5/5
f 1386/3/5 1385/3/5 1384/3/5
f 1387/3/5 1385/3/5 1386/3/5
f 1390/3/5 1389/3/5 1388/3/5
f 1391/3/5 1389/3/5 1390/3/5
f 1394/3/5 1393/3/5 1392/3/5
f 1395/3/5 1393/3/5 1394/3/5
f 1398/3/5 1397/3/5 1396/3/5
f 1399/3/5 1397/3/5 1398/3/5
f 1402/3/5 1401/3/5 1400/3/5
f 1403/3/5 1401/3/5 1402/3/5
f 1406/3/5 1405/3/5 1404/3/5
f 1407/3/5 1405/3/5 1406/3/5
f 1410/3/5 1409/3/5 1408/3/5
f 1411/3/5 1409/3/5 1410/3/5
f 1412/5/6 1413/5/6 1414/5/6
f 1414/5/6 1413/5/6 1415/5/6
f 1416/2/6 1417/2/6 1420/2/6
f 1420/2/6 1417/2/6 1421/2/6
f 1418/1/6 1419/1/6 1422/1/6
f 1422/1/6 1419/1/6 1423/1/6
f 1424/6/6 1425/6/6 1426/6/6
f 1426/6/6 1425/6/6 1427/6/6
f 1427/6/6 1428/6/6 1431/6/6
f 1431/6/6 1428/6/6 1432/6/6
f 1429/2/6 1430/2/6 1434/2/6
f 1434/2/6 1430/2/6 1435/2/6
f 1432/1/6 1433/1/6 1436/1/6
f 1436/1/6 1433/1/6 1437/1/6
f 1438/6/6 1439/6/6 1440/6/6
f 1440/6/6 1439/6/6 1441/6/6
f 1441/1/6 1442/1/6 1443/1/6
f 1443/1/6 1442/1/6 1444/1/6
f 1445/1/6 1446/1/6 1447/1/6
f 1447/1/6 1446/1/6 1448/1/6
f 1449/4/6 1450/4/6 1451/4/6
f 1451/4/6 1450/4/6 1452/4/6
f 1453/3/6 1454/3/6 1455/3/6
f 1455/3/6 1454/3/6 1456/3/6
f 1456/3/6 1454/3/6 1457/3/6
f 1458/3/6 1459/3/6 1462/3/6
f 1462/3/6 1459/3/6 1463/3/6
f 1460/3/6 1461/3/6 1464/3/6
f 1464/3/6 1461/3/6 1465/3/6
f 1466/3/6 1467/3/6 1468/3/6
f 1468/3/6 1467/3/6 1469/3/6
f 1470/3/6 1471/3/6 1472/3/6
f 1472/3/6 1471/3/6 1473/3/6
f 1474/5/6 1475/5/6 1476/5/6
f 1476/5/6 1475/5/6 1477/5/6
f 1478/2/6 1479/2/6 1480/2/6
f 1480/2/6 1479/2/6 1481/2/6
f 1482/6/6 1483/6/6 1487/6/6
f 1487/6/6 1483/6/6 1488/6/6
f 1484/6/6 1485/6/6 1489/6/6
f 1486/6/6 1487/6/6 1491/6/6
f 1489/6/6 1490/6/6 1493/6/6
f 1484/6/6 1489/6/6 1493/6/6
f 1493/6/6 1490/6/6 1494/6/6
f 1491/6/6 1492/6/6 1495/6/6
f 1486/6/6 1491/6/6 1495/6/6
f 1495/6/6 1492/6/6 1496/6/6
f 1494/6/6 1490/6/6 1497/6/6
f 1497/6/6 1490/6/6 1498/6/6
f 1498/6/6 1490/6/6 1499/6/6
f 1497/1/6 1498/1/6 1500/1/6
f 1500/1/6 1498/1/6 1501/1/6
f 1502/1/6 1503/1/6 1504/1/6
f 1504/1/6 1503/1/6 1505/1/6
f 1506/3/6 1507/3/6 1508/3/6
f 1508/3/6 1507/3/6 1509/3/6
f 1510/3/6 1511/3/6 1512/3/6
f 1512/3/6 1511/3/6 1513/3/6
f 1514/3/6 1515/3/6 1518/3/6
f 1518/3/6 1515/3/6 1519/3/6
f 1516/3/6 1517/3/6 1521/3/6
f 1521/3/6 1517/3/6 1522/3/6
f 1519/3/6 1520/3/6 1523/3/6
f 1523/3/6 1520/3/6 1524/3/6
f 1525/3/6 1526/3/6 1529/3/6
f 1529/3/6 1526/3/6 1530/3/6
f 1527/3/6 1528/3/6 1532/3/6
f 1532/3/6 1528/3/6 1533/3/6
f 1531/3/6 1532/3/6 1537/3/6
f 1537/3/6 1532/3/6 1538/3/6
f 1534/3/6 1535/3/6 1542/3/6
f 1535/3/6 1536/3/6 1542/3/6
f 1542/3/6 1536/3/6 1543/3/6
f 1539/3/6 1540/3/6 1544/3/6
f 1544/3/6 1540/3/6 1545/3/6
f 1545/3/6 1546/3/6 1549/3/6
f 1549/3/6 1546/3/6 1550/3/6
f 1547/3/6 1548/3/6 1551/3/6
f 1551/3/6 1548/3/6 1552/3/6
f 1552/3/6 1548/3/6 1553/3/6
f 1541/3/6 1542/3/6 1554/3/6
f 1554/3/6 1542/3/6 1555/3/6
f 1551/5/6 1552/5/6 1556/5/6
f 1556/5/6 1552/5/6 1557/5/6
f 1553/3/6 1554/3/6 1558/3/6
f 1558/3/6 1554/3/6 1559/3/6
f 1560/3/6 1561/3/6 1564/3/6
f 1561/5/6 1562/5/6 1565/5/6
f 1564/3/6 1561/3/6 1565/3/6
f 1565/5/6 1562/5/6 1566/5/6
f 1563/3/6 1564/3/6 1568/3/6
f 1564/3/6 1565/3/6 1568/3/6
f 1565/3/6 1566/3/6 1568/3/6
f 1568/3/6 1566/3/6 1569/3/6
f 1567/3/6 1568/3/6 1570/3/6
f 1570/3/6 1568/3/6 1571/3/6
f 1567/3/6 1570/3/6 1575/3/6
f 1575/3/6 1570/3/6 1576/3/6
f 1572/3/6 1573/3/6 1578/3/6
f 1574/3/6 1575/3/6 1579/3/6
f 1579/3/6 1575/3/6 1580/3/6
f 1577/3/6 1578/3/6 1581/3/6
f 1578/3/6 1573/3/6 1582/3/6
f 1581/3/6 1578/3/6 1582/3/6
f 1582/3/6 1573/3/6 1583/3/6
f 1583/3/6 1584/3/6 1587/3/6
f 1582/3/6 1583/3/6 1587/3/6
f 1587/3/6 1584/3/6 1588/3/6
f 1585/3/6 1586/3/6 1589/3/6
f 1589/3/6 1586/3/6 1590/3/6
f 1590/3/6 1591/3/6 1594/3/6
f 1592/3/6 1593/3/6 1596/3/6
f 1596/3/6 1593/3/6 1597/3/6
f 1594/3/6 1595/3/6 1598/3/6
f 1590/3/6 1594/3/6 1598/3/6
f 1598/3/6 1595/3/6 1599/3/6
f 1599/3/6 1600/3/6 1603/3/6
f 1603/3/6 1600/3/6 1604/3/6
f 1601/3/6 1602/3/6 1605/3/6
f 1605/3/6 1602/3/6 1606/3/6
f 1606/3/6 1607/3/6 1612/3/6
f 1612/3/6 1607/3/6 1613/3/6
f 1609/3/6 1610/3/6 1614/3/6
f 1608/3/6 1609/3/6 1614/3/6
f 1614/3/6 1610/3/6 1615/3/6
f 1611/3/6 1612/3/6 1617/3/6
f 1617/3/6 1612/3/6 1618/3/6
f 1615/3/6 1616/3/6 1619/3/6
f 1619/3/6 1616/3/6 1620/3/6
f 1620/3/6 1621/3/6 1624/3/6
f 1624/3/6 1621/3/6 1625/3/6
f 1622/3/6 1623/3/6 1626/3/6
f 1626/3/6 1623/3/6 1627/3/6
f 1628/5/6 1629/5/6 1631/5/6
f 1629/4/6 1630/4/6 1632/4/6
f 1631/5/6 1629/5/6 1632/5/6
f 1632/4/6 1630/4/6 1633/4/6
f 1631/3/6 1632/3/6 1636/3/6
f 1633/3/6 1634/3/6 1636/3/6
f 1632/3/6 1633/3/6 1636/3/6
f 1636/3/6 1634/3/6 1637/3/6
f 1635/3/6 1636/3/6 1639/3/6
f 1639/3/6 1636/3/6 1640/3/6
f 1637/3/6 1638/3/6 1641/3/6
f 1641/3/6 1638/3/6 1642/3/6
f 1643/3/6 1644/3/6 1647/3/6
f 1647/3/6 1644/3/6 1648/3/6
f 1645/3/6 1646/3/6 1649/3/6
f 1649/3/6 1646/3/6 1650/3/6
f 1650/3/6 1646/3/6 1653/3/6
f 1653/3/6 1646/3/6 1654/3/6
f 1651/3/6 1652/3/6 1657/3/6
f 1657/3/6 1652/3/6 1658/3/6
f 1655/3/6 1656/3/6 1662/3/6
f 1662/3/6 1656/3/6 1663/3/6
f 1658/3/6 1659/3/6 1664/3/6
f 1664/3/6 1659/3/6 1665/3/6
f 1660/3/6 1661/3/6 1666/3/6
f 1666/3/6 1661/3/6 1667/3/6
f 1668/3/6 1669/3/6 1672/3/6
f 1670/3/6 1671/3/6 1674/3/6
f 1674/3/6 1671/3/6 1675/3/6
f 1672/3/6 1673/3/6 1677/3/6
f 1668/3/6 1672/3/6 1677/3/6
f 1677/3/6 1673/3/6 1678/3/6
f 1675/3/6 1676/3/6 1679/3/6
f 1679/3/6 1676/3/6 1680/3/6
f 1668/3/6 1677/3/6 1683/3/6
f 1683/3/6 1677/3/6 1684/3/6
f 1680/3/6 1681/3/6 1685/3/6
f 1685/3/6 1681/3/6 1686/3/6
f 1682/3/6 1683/3/6 1687/3/6
f 1687/3/6 1683/3/6 1688/3/6
f 1689/3/6 1690/3/6 1694/3/6
f 1694/3/6 1690/3/6 1695/3/6
f 1691/3/6 1692/3/6 1698/3/6
f 1698/3/6 1692/3/6 1699/3/6
f 1693/3/6 1694/3/6 1700/3/6
f 1695/3/6 1690/3/6 1701/3/6
f 1701/3/6 1690/3/6 1702/3/6
f 1693/3/6 1700/3/6 1703/3/6
f 1700/3/6 1701/3/6 1703/3/6
f 1703/3/6 1701/3/6 1704/3/6
f 1702/3/6 1690/3/6 1706/3/6
f 1696/3/6 1697/3/6 1707/3/6
f 1707/3/6 1697/3/6 1708/3/6
f 1704/3/6 1701/3/6 1711/3/6
f 1705/3/6 1706/3/6 1712/3/6
f 1706/3/6 1690/3/6 1713/3/6
f 1712/3/6 1706/3/6 1713/3/6
f 1709/3/6 1710/3/6 1715/3/6
f 1715/3/6 1710/3/6 1716/3/6
f 1713/3/6 1714/3/6 1717/3/6
f 1711/3/6 1712/3/6 1717/3/6
f 1712/3/6 1713/3/6 1717/3/6
f 1717/3/6 1714/3/6 1718/3/6
f 1704/3/6 1711/3/6 1721/3/6
f 1711/3/6 1717/3/6 1721/3/6
f 1721/3/6 1717/3/6 1722/3/6
f 1709/3/6 1715/3/6 1724/3/6
f 1724/3/6 1715/3/6 1725/3/6
f 1719/3/6 1720/3/6 1726/3/6
f 1726/3/6 1720/3/6 1727/3/6
f 1722/3/6 1723/3/6 1728/3/6
f 1721/3/6 1722/3/6 1728/3/6
f 1728/3/6 1723/3/6 1729/3/6
f 1729/3/6 1723/3/6 1730/3/6
f 1730/3/6 1723/3/6 1731/3/6
f 1731/3/6 1723/3/6 1732/3/6
f 1732/3/6 1723/3/6 1733/3/6
f 1725/3/6 1726/3/6 1734/3/6
f 1734/3/6 1726/3/6 1735/3/6
f 1731/3/6 1732/3/6 1737/3/6
f 1737/3/6 1732/3/6 1738/3/6
f 1735/3/6 1736/3/6 1739/3/6
f 1739/3/6 1736/3/6 1740/3/6
f 1740/3/6 1741/3/6 1744/3/6
f 1744/3/6 1741/3/6 1745/3/6
f 1742/3/6 1743/3/6 1747/3/6
f 1747/3/6 1743/3/6 1748/3/6
f 1745/3/6 1746/3/6 1749/3/6
f 1749/3/6 1746/3/6 1750/3/6
f 1750/3/6 1751/3/6 1752/3/6
f 1752/3/6 1751/3/6 1753/3/6
f 1754/3/6 1755/3/6 1760/3/6
f 1760/3/6 1755/3/6 1761/3/6
f 1756/3/6 1757/3/6 1762/3/6
f 1762/3/6 1757/3/6 1763/3/6
f 1763/3/6 1764/3/6 1767/3/6
f 1767/3/6 1764/3/6 1768/3/6
f 1758/3/6 1759/3/6 1769/3/6
f 1769/3/6 1759/3/6 1770/3/6
f 1765/3/6 1766/3/6 1772/3/6
f 1763/3/6 1767/3/6 1773/3/6
f 1773/3/6 1767/3/6 1774/3/6
f 1771/3/6 1772/3/6 1776/3/6
f 1776/3/6 1772/3/6 1777/3/6
f 1775/3/6 1776/3/6 1777/3/6
f 1772/3/6 1766/3/6 1778/3/6
f 1777/3/6 1772/3/6 1778/3/6
f 1775/3/6 1777/3/6 1779/3/6
f 1779/3/6 1777/3/6 1780/3/6
f 1780/3/6 1781/3/6 1782/3/6
f 1782/3/6 1781/3/6 1783/3/6
f 1780/3/6 1782/3/6 1785/3/6
f 1785/3/6 1782/3/6 1786/3/6
f 1783/3/6 1784/3/6 1788/3/6
f 1786/3/6 1787/3/6 1790/3/6
f 1790/3/6 1787/3/6 1791/3/6
f 1783/3/6 1788/3/6 1792/3/6
f 1788/3/6 1789/3/6 1792/3/6
f 1792/3/6 1789/3/6 1793/3/6
f 1783/3/6 1792/3/6 1794/3/6
f 1794/3/6 1792/3/6 1795/3/6
f 1795/3/6 1792/3/6 1796/3/6
f 1797/3/6 1798/3/6 1799/3/6
f 1799/3/6 1798/3/6 1800/3/6
f 1801/3/6 1802/3/6 1803/3/6
f 1803/3/6 1802/3/6 1804/3/6
f 1804/3/6 1802/3/6 1805/3/6
f 1806/3/6 1807/3/6 1808/3/6
f 1808/3/6 1807/3/6 1809/3/6
f 1810/3/6 1811/3/6 1812/3/6
f 1812/3/6 1811/3/6 1813/3/6
f 1813/3/6 1811/3/6 1814/3/6
f 1814/3/6 1815/3/6 1816/3/6
f 1813/3/6 1814/3/6 1816/3/6
f 1816/3/6 1815/3/6 1817/3/6
f 1818/3/6 1819/3/6 1820/3/6
f 1820/3/6 1819/3/6 1821/3/6
