# MagicaVoxel @ Ephtracy

# group
o 

# material
mtllib trans_1_1.mtl
usemtl palette

# normals
vn -1 0 0
vn 1 0 0
vn 0 0 1
vn 0 0 -1
vn 0 -1 0
vn 0 1 0

# texcoords
vt 0.919922 0.5
vt 0.923828 0.5
vt 0.927734 0.5
vt 0.962891 0.5
vt 0.966797 0.5
vt 0.994141 0.5

# verts
v -1 0.3 0.4
v -1 0.3 0.1
v -1 0.3 -0.2
v -1 0.4 0.4
v -1 0.4 0.1
v -1 0.4 -0.2
v -1 0.5 0.4
v -1 0.5 0.1
v -1 0.5 -0.2
v -1 0.6 0.4
v -1 0.6 0.1
v -1 0.6 -0.2
v -1 2.2 0.4
v -1 2.2 0.1
v -1 2.2 -0.2
v -1 2.3 0.4
v -1 2.3 0.1
v -1 2.3 -0.2
v -1 2.4 0.4
v -1 2.4 0.1
v -1 2.4 -0.1
v -1 2.4 -0.2
v -1 2.5 0.4
v -1 2.5 0.1
v -1 2.5 -0.1
v -0.9 0.3 0.6
v -0.9 0.3 0.4
v -0.9 0.3 -0.2
v -0.9 0.3 -0.3
v -0.9 0.3 -0.4
v -0.9 0.4 0.6
v -0.9 0.4 0.4
v -0.9 0.4 -0.2
v -0.9 0.4 -0.3
v -0.9 0.4 -0.4
v -0.9 0.5 0.6
v -0.9 0.5 0.4
v -0.9 0.5 -0.2
v -0.9 0.5 -0.3
v -0.9 0.5 -0.4
v -0.9 0.6 0.6
v -0.9 0.6 0.4
v -0.9 0.6 -0.2
v -0.9 0.6 -0.3
v -0.9 0.6 -0.4
v -0.9 2.2 0.6
v -0.9 2.2 0.4
v -0.9 2.2 -0.2
v -0.9 2.2 -0.3
v -0.9 2.2 -0.4
v -0.9 2.3 0.6
v -0.9 2.3 0.4
v -0.9 2.3 -0.2
v -0.9 2.3 -0.3
v -0.9 2.3 -0.4
v -0.9 2.4 0.6
v -0.9 2.4 0.4
v -0.9 2.4 -0.1
v -0.9 2.4 -0.2
v -0.9 2.4 -0.3
v -0.9 2.4 -0.4
v -0.9 2.5 0.6
v -0.9 2.5 0.4
v -0.9 2.5 -0.1
v -0.9 2.5 -0.2
v -0.9 2.5 -0.3
v -0.9 2.5 -0.4
v -0.8 0.3 0.7
v -0.8 0.3 0.6
v -0.8 0.3 -0.4
v -0.8 0.3 -0.5
v -0.8 0.4 0.7
v -0.8 0.4 0.6
v -0.8 0.4 -0.4
v -0.8 0.4 -0.5
v -0.8 0.5 0.7
v -0.8 0.5 0.6
v -0.8 0.5 -0.4
v -0.8 0.5 -0.5
v -0.8 0.6 0.7
v -0.8 0.6 0.6
v -0.8 0.6 -0.4
v -0.8 0.6 -0.5
v -0.8 2.2 0.7
v -0.8 2.2 0.6
v -0.8 2.2 -0.4
v -0.8 2.2 -0.5
v -0.8 2.3 0.7
v -0.8 2.3 0.6
v -0.8 2.3 -0.4
v -0.8 2.3 -0.5
v -0.8 2.4 0.7
v -0.8 2.4 0.6
v -0.8 2.4 -0.4
v -0.8 2.4 -0.5
v -0.8 2.5 0.7
v -0.8 2.5 0.6
v -0.8 2.5 -0.4
v -0.8 2.5 -0.5
v -0.7 0 0.5
v -0.7 0 0.3
v -0.7 0 -0.1
v -0.7 0 -0.3
v -0.7 0.1 0.5
v -0.7 0.1 0.3
v -0.7 0.1 -0.1
v -0.7 0.1 -0.3
v -0.7 0.3 0.5
v -0.7 0.3 0.3
v -0.7 0.3 -0.1
v -0.7 0.3 -0.3
v -0.7 2.4 0.2
v -0.7 2.4 0.1
v -0.7 2.4 0
v -0.7 2.4 -0.1
v -0.7 2.5 0.2
v -0.7 2.5 0.1
v -0.7 2.5 0
v -0.7 2.5 -0.1
v -0.6 0.3 0.8
v -0.6 0.3 0.7
v -0.6 0.3 -0.5
v -0.6 0.3 -0.6
v -0.6 0.4 0.8
v -0.6 0.4 0.7
v -0.6 0.4 -0.5
v -0.6 0.4 -0.6
v -0.6 0.5 0.8
v -0.6 0.5 0.7
v -0.6 0.5 -0.5
v -0.6 0.5 -0.6
v -0.6 0.6 0.8
v -0.6 0.6 0.7
v -0.6 0.6 -0.5
v -0.6 0.6 -0.6
v -0.6 2.2 0.8
v -0.6 2.2 0.7
v -0.6 2.2 -0.5
v -0.6 2.2 -0.6
v -0.6 2.3 0.8
v -0.6 2.3 0.7
v -0.6 2.3 -0.5
v -0.6 2.3 -0.6
v -0.6 2.4 0.8
v -0.6 2.4 0.7
v -0.6 2.4 0.6
v -0.6 2.4 0.2
v -0.6 2.4 -0.1
v -0.6 2.4 -0.2
v -0.6 2.4 -0.5
v -0.6 2.4 -0.6
v -0.6 2.5 0.6
v -0.6 2.5 0.2
v -0.6 2.5 -0.1
v -0.6 2.5 -0.2
v -0.6 2.5 -0.5
v -0.6 2.5 -0.6
v -0.5 2.4 0.7
v -0.5 2.4 0.6
v -0.5 2.4 0.1
v -0.5 2.4 0
v -0.5 2.5 0.7
v -0.5 2.5 0.6
v -0.5 2.5 0.1
v -0.5 2.5 0
v -0.4 0.3 0.9
v -0.4 0.3 0.8
v -0.4 0.3 -0.6
v -0.4 0.3 -0.7
v -0.4 0.4 0.9
v -0.4 0.4 0.8
v -0.4 0.4 -0.6
v -0.4 0.4 -0.7
v -0.4 0.5 0.9
v -0.4 0.5 0.8
v -0.4 0.5 -0.6
v -0.4 0.5 -0.7
v -0.4 0.6 0.9
v -0.4 0.6 0.8
v -0.4 0.6 -0.6
v -0.4 0.6 -0.7
v -0.4 1.9 -0.6
v -0.4 1.9 -0.7
v -0.4 2.1 -0.6
v -0.4 2.1 -0.7
v -0.4 2.2 0.9
v -0.4 2.2 0.8
v -0.4 2.2 -0.6
v -0.4 2.2 -0.7
v -0.4 2.3 0.9
v -0.4 2.3 0.8
v -0.4 2.3 -0.6
v -0.4 2.3 -0.7
v -0.4 2.4 0.9
v -0.4 2.4 0.8
v -0.3 2.4 0.7
v -0.3 2.4 0.6
v -0.3 2.5 0.7
v -0.3 2.5 0.6
v -0.2 2.4 0.8
v -0.2 2.4 0.7
v -0.2 2.4 0.6
v -0.2 2.4 0.3
v -0.2 2.5 0.8
v -0.2 2.5 0.7
v -0.2 2.5 0.6
v -0.2 2.5 0.3
v -0.1 2.4 0.3
v -0.1 2.4 0.2
v -0.1 2.4 -0.4
v -0.1 2.4 -0.6
v -0.1 2.5 0.3
v -0.1 2.5 0.2
v -0.1 2.5 -0.4
v -0.1 2.5 -0.6
v 0.1 2.4 0.2
v 0.1 2.4 0.1
v 0.1 2.4 -0.2
v 0.1 2.4 -0.3
v 0.1 2.5 0.2
v 0.1 2.5 0.1
v 0.1 2.5 -0.2
v 0.1 2.5 -0.3
v 0.2 1.9 -0.5
v 0.2 1.9 -0.6
v 0.2 2 -0.5
v 0.2 2 -0.6
v 0.2 2.4 0
v 0.2 2.4 -0.2
v 0.2 2.5 0
v 0.2 2.5 -0.2
v 0.3 0 0.5
v 0.3 0 0.3
v 0.3 0 -0.1
v 0.3 0 -0.3
v 0.3 0.1 0.5
v 0.3 0.1 0.3
v 0.3 0.1 -0.1
v 0.3 0.1 -0.3
v 0.3 0.3 0.5
v 0.3 0.3 0.3
v 0.3 0.3 -0.1
v 0.3 0.3 -0.3
v 0.4 2 0.7
v 0.4 2 0.6
v 0.4 2 -0.4
v 0.4 2 -0.5
v 0.4 2.1 0.7
v 0.4 2.1 0.6
v 0.4 2.1 -0.4
v 0.4 2.1 -0.5
v -0.9 2.4 0
v -0.9 2.4 -0.1
v -0.9 2.5 0
v -0.9 2.5 -0.1
v -0.8 2.4 0.2
v -0.8 2.4 0
v -0.8 2.5 0.2
v -0.8 2.5 0
v -0.7 2.4 0.6
v -0.7 2.4 0.2
v -0.7 2.4 -0.1
v -0.7 2.4 -0.2
v -0.7 2.5 0.6
v -0.7 2.5 0.2
v -0.7 2.5 -0.1
v -0.7 2.5 -0.2
v -0.6 2.4 0.7
v -0.6 2.4 0.6
v -0.6 2.4 -0.2
v -0.6 2.4 -0.3
v -0.6 2.5 0.7
v -0.6 2.5 0.6
v -0.6 2.5 -0.2
v -0.6 2.5 -0.3
v -0.5 0 0.5
v -0.5 0 0.3
v -0.5 0 -0.1
v -0.5 0 -0.3
v -0.5 0.1 0.5
v -0.5 0.1 0.3
v -0.5 0.1 -0.1
v -0.5 0.1 -0.3
v -0.5 0.3 0.5
v -0.5 0.3 0.3
v -0.5 0.3 -0.1
v -0.5 0.3 -0.3
v -0.5 2.4 0.2
v -0.5 2.4 0.1
v -0.5 2.5 0.2
v -0.5 2.5 0.1
v -0.4 2.4 0.7
v -0.4 2.4 0.6
v -0.4 2.5 0.7
v -0.4 2.5 0.6
v -0.3 1.6 0.9
v -0.3 1.6 0.8
v -0.3 1.7 0.9
v -0.3 1.7 0.8
v -0.3 2.4 0.6
v -0.3 2.4 0.3
v -0.3 2.4 -0.5
v -0.3 2.4 -0.6
v -0.3 2.5 0.6
v -0.3 2.5 0.3
v -0.3 2.5 -0.5
v -0.3 2.5 -0.6
v -0.2 2.3 0.9
v -0.2 2.3 0.8
v -0.2 2.4 0.9
v -0.2 2.4 0.8
v -0.2 2.4 0.3
v -0.2 2.4 0.2
v -0.2 2.4 -0.4
v -0.2 2.4 -0.5
v -0.2 2.5 0.3
v -0.2 2.5 0.2
v -0.2 2.5 -0.4
v -0.2 2.5 -0.5
v -0.1 1.7 0.9
v -0.1 1.7 0.8
v -0.1 1.8 0.9
v -0.1 1.8 0.8
v -0.1 2.2 0.9
v -0.1 2.2 0.8
v -0.1 2.3 0.9
v -0.1 2.3 0.8
v -0.1 2.4 -0.3
v -0.1 2.4 -0.4
v -0.1 2.5 -0.3
v -0.1 2.5 -0.4
v 0 1.9 0.9
v 0 1.9 0.8
v 0 2 0.9
v 0 2 0.8
v 0 2.4 0.1
v 0 2.4 0
v 0 2.4 -0.1
v 0 2.4 -0.2
v 0 2.5 0.1
v 0 2.5 0
v 0 2.5 -0.1
v 0 2.5 -0.2
v 0.1 0.3 0.9
v 0.1 0.3 0.8
v 0.1 0.3 -0.6
v 0.1 0.3 -0.7
v 0.1 0.4 0.9
v 0.1 0.4 0.8
v 0.1 0.4 -0.6
v 0.1 0.4 -0.7
v 0.1 0.5 0.9
v 0.1 0.5 0.8
v 0.1 0.5 -0.6
v 0.1 0.5 -0.7
v 0.1 0.6 0.9
v 0.1 0.6 0.8
v 0.1 0.6 -0.6
v 0.1 0.6 -0.7
v 0.1 1.6 0.9
v 0.1 1.6 0.8
v 0.1 1.6 0.7
v 0.1 1.8 0.9
v 0.1 1.8 0.8
v 0.1 1.8 0.7
v 0.1 1.9 0.9
v 0.1 1.9 0.8
v 0.1 1.9 0.7
v 0.1 1.9 -0.5
v 0.1 1.9 -0.6
v 0.1 1.9 -0.7
v 0.1 2 0.9
v 0.1 2 0.8
v 0.1 2.1 0.8
v 0.1 2.1 0.7
v 0.1 2.1 -0.5
v 0.1 2.1 -0.6
v 0.1 2.1 -0.7
v 0.1 2.2 0.9
v 0.1 2.2 0.8
v 0.1 2.2 0.7
v 0.1 2.2 -0.6
v 0.1 2.2 -0.7
v 0.1 2.3 0.8
v 0.1 2.3 0.7
v 0.1 2.3 -0.5
v 0.1 2.3 -0.6
v 0.1 2.3 -0.7
v 0.1 2.4 0.8
v 0.1 2.4 0.7
v 0.1 2.4 0.4
v 0.1 2.4 0
v 0.1 2.4 -0.1
v 0.1 2.4 -0.5
v 0.1 2.4 -0.6
v 0.1 2.5 0.8
v 0.1 2.5 0.4
v 0.1 2.5 0
v 0.1 2.5 -0.1
v 0.1 2.5 -0.5
v 0.1 2.5 -0.6
v 0.2 1.8 -0.5
v 0.2 1.8 -0.6
v 0.2 1.9 -0.5
v 0.2 1.9 -0.6
v 0.2 2.1 0.8
v 0.2 2.1 0.7
v 0.2 2.2 0.8
v 0.2 2.2 0.7
v 0.2 2.3 0.7
v 0.2 2.3 0.6
v 0.2 2.4 0.7
v 0.2 2.4 0.6
v 0.2 2.4 0.4
v 0.2 2.4 0.3
v 0.2 2.4 0.2
v 0.2 2.4 0.1
v 0.2 2.4 -0.4
v 0.2 2.4 -0.5
v 0.2 2.5 0.4
v 0.2 2.5 0.3
v 0.2 2.5 0.2
v 0.2 2.5 0.1
v 0.2 2.5 -0.4
v 0.2 2.5 -0.5
v 0.3 0.3 0.8
v 0.3 0.3 0.7
v 0.3 0.3 -0.5
v 0.3 0.3 -0.6
v 0.3 0.4 0.8
v 0.3 0.4 0.7
v 0.3 0.4 -0.5
v 0.3 0.4 -0.6
v 0.3 0.5 0.8
v 0.3 0.5 0.7
v 0.3 0.5 -0.5
v 0.3 0.5 -0.6
v 0.3 0.6 0.8
v 0.3 0.6 0.7
v 0.3 0.6 -0.5
v 0.3 0.6 -0.6
v 0.3 1.6 0.8
v 0.3 1.6 0.7
v 0.3 1.6 0.6
v 0.3 1.8 0.8
v 0.3 1.8 0.7
v 0.3 1.8 0.6
v 0.3 1.8 -0.4
v 0.3 1.8 -0.5
v 0.3 1.8 -0.6
v 0.3 1.9 0.8
v 0.3 1.9 0.7
v 0.3 1.9 0.6
v 0.3 1.9 -0.4
v 0.3 1.9 -0.5
v 0.3 1.9 -0.6
v 0.3 2 -0.2
v 0.3 2 -0.3
v 0.3 2 -0.4
v 0.3 2 -0.5
v 0.3 2 -0.6
v 0.3 2.1 0.1
v 0.3 2.1 0
v 0.3 2.1 -0.2
v 0.3 2.1 -0.3
v 0.3 2.1 -0.5
v 0.3 2.1 -0.6
v 0.3 2.2 0.7
v 0.3 2.2 0.6
v 0.3 2.2 0.5
v 0.3 2.2 0.4
v 0.3 2.2 0.2
v 0.3 2.2 0.1
v 0.3 2.2 0
v 0.3 2.2 -0.4
v 0.3 2.2 -0.5
v 0.3 2.2 -0.6
v 0.3 2.3 0.7
v 0.3 2.3 0.6
v 0.3 2.3 0.5
v 0.3 2.3 0.4
v 0.3 2.3 0.3
v 0.3 2.3 0.2
v 0.3 2.3 0.1
v 0.3 2.3 -0.3
v 0.3 2.3 -0.4
v 0.3 2.3 -0.5
v 0.3 2.3 -0.6
v 0.3 2.4 0.6
v 0.3 2.4 0.4
v 0.3 2.4 0.3
v 0.3 2.4 0.2
v 0.3 2.4 0
v 0.3 2.4 -0.2
v 0.3 2.4 -0.3
v 0.3 2.4 -0.4
v 0.3 2.4 -0.5
v 0.3 2.5 0.3
v 0.3 2.5 0.2
v 0.3 2.5 -0.2
v 0.3 2.5 -0.3
v 0.4 1.8 0.7
v 0.4 1.8 0.6
v 0.4 1.8 0
v 0.4 1.8 -0.1
v 0.4 1.8 -0.2
v 0.4 1.9 0.7
v 0.4 1.9 0.6
v 0.4 1.9 0
v 0.4 1.9 -0.1
v 0.4 1.9 -0.2
v 0.4 1.9 -0.3
v 0.4 2 0.5
v 0.4 2 0.4
v 0.4 2 0.1
v 0.4 2 0
v 0.4 2 -0.2
v 0.4 2 -0.3
v 0.4 2 -0.4
v 0.4 2.1 0.6
v 0.4 2.1 0.5
v 0.4 2.1 0.4
v 0.4 2.1 0.3
v 0.4 2.1 0.2
v 0.4 2.1 0.1
v 0.4 2.1 0
v 0.4 2.1 -0.1
v 0.4 2.1 -0.2
v 0.4 2.1 -0.3
v 0.4 2.1 -0.4
v 0.4 2.2 0.6
v 0.4 2.2 0.5
v 0.4 2.2 0.4
v 0.4 2.2 0.3
v 0.4 2.2 0.2
v 0.4 2.2 0.1
v 0.4 2.2 0
v 0.4 2.2 -0.1
v 0.4 2.2 -0.3
v 0.4 2.2 -0.4
v 0.4 2.2 -0.5
v 0.4 2.3 0.6
v 0.4 2.3 0.5
v 0.4 2.3 0.4
v 0.4 2.3 0.3
v 0.4 2.3 0.1
v 0.4 2.3 -0.3
v 0.4 2.3 -0.4
v 0.4 2.3 -0.5
v 0.4 2.4 0.4
v 0.4 2.4 0.3
v 0.4 2.4 0
v 0.4 2.4 -0.2
v 0.4 2.4 -0.3
v 0.4 2.4 -0.4
v 0.4 2.5 0
v 0.4 2.5 -0.2
v 0.5 0 0.5
v 0.5 0 0.3
v 0.5 0 -0.1
v 0.5 0 -0.3
v 0.5 0.1 0.5
v 0.5 0.1 0.3
v 0.5 0.1 -0.1
v 0.5 0.1 -0.3
v 0.5 0.3 0.7
v 0.5 0.3 0.6
v 0.5 0.3 0.5
v 0.5 0.3 0.4
v 0.5 0.3 0.3
v 0.5 0.3 -0.1
v 0.5 0.3 -0.2
v 0.5 0.3 -0.3
v 0.5 0.3 -0.4
v 0.5 0.3 -0.5
v 0.5 0.4 0.7
v 0.5 0.4 0.6
v 0.5 0.4 -0.4
v 0.5 0.4 -0.5
v 0.5 0.5 0.7
v 0.5 0.5 0.6
v 0.5 0.5 -0.4
v 0.5 0.5 -0.5
v 0.5 0.6 0.7
v 0.5 0.6 0.6
v 0.5 0.6 -0.4
v 0.5 0.6 -0.5
v 0.5 1.5 0.2
v 0.5 1.5 0
v 0.5 1.6 0.7
v 0.5 1.6 0.6
v 0.5 1.6 0.4
v 0.5 1.6 0.2
v 0.5 1.6 0
v 0.5 1.6 -0.1
v 0.5 1.7 0.4
v 0.5 1.7 0
v 0.5 1.7 -0.1
v 0.5 1.8 0.6
v 0.5 1.8 0
v 0.5 1.8 -0.1
v 0.5 1.8 -0.2
v 0.5 1.8 -0.4
v 0.5 1.8 -0.5
v 0.5 1.9 0.6
v 0.5 1.9 0
v 0.5 1.9 -0.1
v 0.5 1.9 -0.2
v 0.5 1.9 -0.3
v 0.5 1.9 -0.4
v 0.5 1.9 -0.5
v 0.5 2 0.7
v 0.5 2 0.6
v 0.5 2 0.5
v 0.5 2 0.4
v 0.5 2 0.1
v 0.5 2 0
v 0.5 2 -0.1
v 0.5 2 -0.2
v 0.5 2 -0.3
v 0.5 2 -0.4
v 0.5 2.1 0.7
v 0.5 2.1 0.5
v 0.5 2.1 0.4
v 0.5 2.1 0.3
v 0.5 2.1 0.2
v 0.5 2.1 0.1
v 0.5 2.1 -0.1
v 0.5 2.1 -0.2
v 0.5 2.1 -0.4
v 0.5 2.1 -0.5
v 0.5 2.2 0.3
v 0.5 2.2 0.2
v 0.5 2.2 0
v 0.5 2.2 -0.1
v 0.5 2.2 -0.3
v 0.5 2.2 -0.4
v 0.5 2.3 0.3
v 0.5 2.3 0.2
v 0.5 2.3 -0.3
v 0.5 2.3 -0.4
v 0.6 0.3 0.6
v 0.6 0.3 0.4
v 0.6 0.3 -0.2
v 0.6 0.3 -0.4
v 0.6 0.4 0.6
v 0.6 0.4 0.4
v 0.6 0.4 -0.2
v 0.6 0.4 -0.4
v 0.6 0.5 0.6
v 0.6 0.5 0.4
v 0.6 0.5 -0.2
v 0.6 0.5 -0.4
v 0.6 0.6 0.6
v 0.6 0.6 0.4
v 0.6 0.6 -0.2
v 0.6 0.6 -0.4
v 0.6 1.2 0.3
v 0.6 1.2 0.2
v 0.6 1.4 0.2
v 0.6 1.4 -0.2
v 0.6 1.5 0.2
v 0.6 1.5 0
v 0.6 1.6 0.6
v 0.6 1.6 0.4
v 0.6 1.6 0.3
v 0.6 1.6 0.2
v 0.6 1.6 0
v 0.6 1.6 -0.1
v 0.6 1.7 0.4
v 0.6 1.7 0
v 0.6 1.7 -0.1
v 0.6 1.8 0
v 0.6 1.8 -0.4
v 0.6 1.9 -0.1
v 0.6 1.9 -0.2
v 0.6 2 -0.1
v 0.6 2 -0.2
v 0.7 0.3 0.4
v 0.7 0.3 0.3
v 0.7 0.3 -0.2
v 0.7 0.4 0.4
v 0.7 0.4 0.3
v 0.7 0.4 -0.2
v 0.7 0.5 0.4
v 0.7 0.5 0.3
v 0.7 0.5 -0.2
v 0.7 0.6 0.4
v 0.7 0.6 0.3
v 0.7 0.6 -0.2
v 0.7 1.2 0.3
v 0.7 1.2 0.2
v 0.7 1.4 0.2
v 0.7 1.4 -0.2
v 0.7 1.6 0.4
v 0.7 1.6 0.3
v -0.4 0.3 0.9
v -0.4 0.4 0.9
v -0.4 0.5 0.9
v -0.4 0.6 0.9
v -0.4 2.2 0.9
v -0.4 2.3 0.9
v -0.4 2.4 0.9
v -0.3 0.3 0.9
v -0.3 0.4 0.9
v -0.3 0.5 0.9
v -0.3 0.6 0.9
v -0.3 0.9 0.9
v -0.3 1.3 0.9
v -0.3 1.6 0.9
v -0.3 1.7 0.9
v -0.3 2 0.9
v -0.3 2.2 0.9
v -0.3 2.3 0.9
v -0.3 2.4 0.9
v -0.2 0.9 0.9
v -0.2 1.3 0.9
v -0.2 1.4 0.9
v -0.2 1.6 0.9
v -0.2 1.7 0.9
v -0.2 2 0.9
v -0.2 2.3 0.9
v -0.2 2.4 0.9
v -0.1 0.8 0.9
v -0.1 1.2 0.9
v -0.1 1.3 0.9
v -0.1 1.4 0.9
v -0.1 1.7 0.9
v -0.1 1.8 0.9
v -0.1 2 0.9
v -0.1 2.2 0.9
v -0.1 2.3 0.9
v 0 0.3 0.9
v 0 0.4 0.9
v 0 0.5 0.9
v 0 0.6 0.9
v 0 0.8 0.9
v 0 1.2 0.9
v 0 1.3 0.9
v 0 1.6 0.9
v 0 1.8 0.9
v 0 1.9 0.9
v 0 2 0.9
v 0 2.2 0.9
v 0.1 0.3 0.9
v 0.1 0.4 0.9
v 0.1 0.5 0.9
v 0.1 0.6 0.9
v 0.1 1.6 0.9
v 0.1 1.8 0.9
v 0.1 1.9 0.9
v 0.1 2 0.9
v 0.1 2.2 0.9
v -0.6 0.3 0.8
v -0.6 0.4 0.8
v -0.6 0.5 0.8
v -0.6 0.6 0.8
v -0.6 2.2 0.8
v -0.6 2.3 0.8
v -0.6 2.4 0.8
v -0.4 0.3 0.8
v -0.4 0.4 0.8
v -0.4 0.5 0.8
v -0.4 0.6 0.8
v -0.4 2.2 0.8
v -0.4 2.3 0.8
v -0.4 2.4 0.8
v -0.3 1.6 0.8
v -0.3 1.7 0.8
v -0.2 1.6 0.8
v -0.2 1.7 0.8
v -0.2 2.3 0.8
v -0.2 2.4 0.8
v -0.2 2.5 0.8
v -0.1 1.7 0.8
v -0.1 1.8 0.8
v -0.1 2.2 0.8
v -0.1 2.3 0.8
v 0 1.6 0.8
v 0 1.8 0.8
v 0 1.9 0.8
v 0 2 0.8
v 0 2.2 0.8
v 0.1 0.3 0.8
v 0.1 0.4 0.8
v 0.1 0.5 0.8
v 0.1 0.6 0.8
v 0.1 1.6 0.8
v 0.1 1.8 0.8
v 0.1 1.9 0.8
v 0.1 2 0.8
v 0.1 2.1 0.8
v 0.1 2.2 0.8
v 0.1 2.3 0.8
v 0.1 2.4 0.8
v 0.1 2.5 0.8
v 0.2 2.1 0.8
v 0.2 2.2 0.8
v 0.3 0.3 0.8
v 0.3 0.4 0.8
v 0.3 0.5 0.8
v 0.3 0.6 0.8
v 0.3 1.6 0.8
v 0.3 1.8 0.8
v 0.3 1.9 0.8
v -0.8 0.3 0.7
v -0.8 0.4 0.7
v -0.8 0.5 0.7
v -0.8 0.6 0.7
v -0.8 2.2 0.7
v -0.8 2.3 0.7
v -0.8 2.4 0.7
v -0.8 2.5 0.7
v -0.6 0.3 0.7
v -0.6 0.4 0.7
v -0.6 0.5 0.7
v -0.6 0.6 0.7
v -0.6 2.2 0.7
v -0.6 2.3 0.7
v -0.6 2.4 0.7
v -0.6 2.5 0.7
v -0.5 2.4 0.7
v -0.5 2.5 0.7
v -0.4 2.4 0.7
v -0.4 2.5 0.7
v -0.3 2.4 0.7
v -0.3 2.5 0.7
v -0.2 2.4 0.7
v -0.2 2.5 0.7
v 0.1 1.6 0.7
v 0.1 1.8 0.7
v 0.1 1.9 0.7
v 0.1 2.1 0.7
v 0.1 2.2 0.7
v 0.1 2.3 0.7
v 0.1 2.4 0.7
v 0.2 2.1 0.7
v 0.2 2.2 0.7
v 0.2 2.3 0.7
v 0.2 2.4 0.7
v 0.3 0.3 0.7
v 0.3 0.4 0.7
v 0.3 0.5 0.7
v 0.3 0.6 0.7
v 0.3 1.6 0.7
v 0.3 1.8 0.7
v 0.3 1.9 0.7
v 0.3 2.2 0.7
v 0.3 2.3 0.7
v 0.4 1.8 0.7
v 0.4 1.9 0.7
v 0.4 2 0.7
v 0.4 2.1 0.7
v 0.5 0.3 0.7
v 0.5 0.4 0.7
v 0.5 0.5 0.7
v 0.5 0.6 0.7
v 0.5 1.6 0.7
v 0.5 2 0.7
v 0.5 2.1 0.7
v -0.9 0.3 0.6
v -0.9 0.4 0.6
v -0.9 0.5 0.6
v -0.9 0.6 0.6
v -0.9 2.2 0.6
v -0.9 2.3 0.6
v -0.9 2.4 0.6
v -0.9 2.5 0.6
v -0.8 0.3 0.6
v -0.8 0.4 0.6
v -0.8 0.5 0.6
v -0.8 0.6 0.6
v -0.8 2.2 0.6
v -0.8 2.3 0.6
v -0.8 2.4 0.6
v -0.8 2.5 0.6
v -0.6 2.4 0.6
v -0.6 2.5 0.6
v -0.5 2.4 0.6
v -0.5 2.5 0.6
v -0.4 2.4 0.6
v -0.4 2.5 0.6
v -0.3 2.4 0.6
v -0.3 2.5 0.6
v 0.2 2.3 0.6
v 0.2 2.4 0.6
v 0.3 1.6 0.6
v 0.3 1.8 0.6
v 0.3 1.9 0.6
v 0.3 2.2 0.6
v 0.3 2.3 0.6
v 0.3 2.4 0.6
v 0.4 1.8 0.6
v 0.4 1.9 0.6
v 0.4 2 0.6
v 0.4 2.1 0.6
v 0.4 2.2 0.6
v 0.4 2.3 0.6
v 0.5 0.3 0.6
v 0.5 0.4 0.6
v 0.5 0.5 0.6
v 0.5 0.6 0.6
v 0.5 1.6 0.6
v 0.5 1.8 0.6
v 0.5 1.9 0.6
v 0.5 2 0.6
v 0.6 0.3 0.6
v 0.6 0.4 0.6
v 0.6 0.5 0.6
v 0.6 0.6 0.6
v 0.6 1.6 0.6
v -0.7 0 0.5
v -0.7 0.1 0.5
v -0.7 0.3 0.5
v -0.5 0 0.5
v -0.5 0.1 0.5
v -0.5 0.3 0.5
v 0.3 0 0.5
v 0.3 0.1 0.5
v 0.3 0.3 0.5
v 0.5 0 0.5
v 0.5 0.1 0.5
v 0.5 0.3 0.5
v -1 0.3 0.4
v -1 0.4 0.4
v -1 0.5 0.4
v -1 0.6 0.4
v -1 2.2 0.4
v -1 2.3 0.4
v -1 2.4 0.4
v -1 2.5 0.4
v -0.9 0.3 0.4
v -0.9 0.4 0.4
v -0.9 0.5 0.4
v -0.9 0.6 0.4
v -0.9 2.2 0.4
v -0.9 2.3 0.4
v -0.9 2.4 0.4
v -0.9 2.5 0.4
v 0.1 2.4 0.4
v 0.1 2.5 0.4
v 0.2 2.4 0.4
v 0.2 2.5 0.4
v 0.3 2.2 0.4
v 0.3 2.3 0.4
v 0.3 2.4 0.4
v 0.4 2 0.4
v 0.4 2.1 0.4
v 0.4 2.2 0.4
v 0.4 2.3 0.4
v 0.4 2.4 0.4
v 0.5 1.6 0.4
v 0.5 1.7 0.4
v 0.5 2 0.4
v 0.5 2.1 0.4
v 0.6 0.3 0.4
v 0.6 0.4 0.4
v 0.6 0.5 0.4
v 0.6 0.6 0.4
v 0.6 1.6 0.4
v 0.6 1.7 0.4
v 0.7 0.3 0.4
v 0.7 0.4 0.4
v 0.7 0.5 0.4
v 0.7 0.6 0.4
v 0.7 1.6 0.4
v -0.3 2.4 0.3
v -0.3 2.5 0.3
v -0.2 2.4 0.3
v -0.2 2.5 0.3
v 0.2 2.4 0.3
v 0.2 2.5 0.3
v 0.3 2.4 0.3
v 0.3 2.5 0.3
v 0.4 2.1 0.3
v 0.4 2.2 0.3
v 0.4 2.3 0.3
v 0.5 2.1 0.3
v 0.5 2.2 0.3
v 0.5 2.3 0.3
v -0.7 2.4 0.2
v -0.7 2.5 0.2
v -0.6 2.4 0.2
v -0.6 2.5 0.2
v 0.6 1.2 0.2
v 0.6 1.4 0.2
v 0.7 1.2 0.2
v 0.7 1.4 0.2
v -0.5 2.4 0.1
v -0.5 2.5 0.1
v 0 2.4 0.1
v 0 2.5 0.1
v 0.3 2.2 0.1
v 0.3 2.3 0.1
v 0.4 2.2 0.1
v 0.4 2.3 0.1
v -0.7 2.4 0
v -0.7 2.5 0
v -0.5 2.4 0
v -0.5 2.5 0
v 0 2.4 0
v 0 2.5 0
v 0.1 2.4 0
v 0.1 2.5 0
v 0.2 2.4 0
v 0.2 2.5 0
v 0.3 2.1 0
v 0.3 2.2 0
v 0.3 2.4 0
v 0.4 1.8 0
v 0.4 1.9 0
v 0.4 2 0
v 0.4 2.1 0
v 0.4 2.2 0
v 0.4 2.4 0
v 0.4 2.5 0
v 0.5 1.5 0
v 0.5 1.6 0
v 0.5 1.7 0
v 0.5 1.8 0
v 0.5 1.9 0
v 0.5 2 0
v 0.5 2.2 0
v 0.6 1.5 0
v 0.6 1.6 0
v 0.6 1.7 0
v 0.6 1.8 0
v -0.9 2.4 -0.1
v -0.9 2.5 -0.1
v -0.7 0 -0.1
v -0.7 0.1 -0.1
v -0.7 0.3 -0.1
v -0.7 2.4 -0.1
v -0.7 2.5 -0.1
v -0.5 0 -0.1
v -0.5 0.1 -0.1
v -0.5 0.3 -0.1
v 0.3 0 -0.1
v 0.3 0.1 -0.1
v 0.3 0.3 -0.1
v 0.5 0 -0.1
v 0.5 0.1 -0.1
v 0.5 0.3 -0.1
v 0.5 1.6 -0.1
v 0.5 1.7 -0.1
v 0.5 1.9 -0.1
v 0.5 2 -0.1
v 0.6 1.6 -0.1
v 0.6 1.7 -0.1
v 0.6 1.9 -0.1
v 0.6 2 -0.1
v -0.7 2.4 -0.2
v -0.7 2.5 -0.2
v -0.6 2.4 -0.2
v -0.6 2.5 -0.2
v 0.1 2.4 -0.2
v 0.1 2.5 -0.2
v 0.2 2.4 -0.2
v 0.2 2.5 -0.2
v 0.4 1.8 -0.2
v 0.4 1.9 -0.2
v 0.5 1.8 -0.2
v 0.5 1.9 -0.2
v -0.6 2.4 -0.3
v -0.6 2.5 -0.3
v -0.1 2.4 -0.3
v -0.1 2.5 -0.3
v 0.3 2 -0.3
v 0.3 2.1 -0.3
v 0.3 2.3 -0.3
v 0.3 2.4 -0.3
v 0.4 1.9 -0.3
v 0.4 2 -0.3
v 0.4 2.1 -0.3
v 0.4 2.2 -0.3
v 0.4 2.3 -0.3
v 0.4 2.4 -0.3
v 0.5 1.9 -0.3
v 0.5 2 -0.3
v 0.5 2.2 -0.3
v 0.5 2.3 -0.3
v -0.1 2.4 -0.4
v -0.1 2.5 -0.4
v 0.2 2.4 -0.4
v 0.2 2.5 -0.4
v 0.4 2 -0.4
v 0.4 2.1 -0.4
v 0.5 2 -0.4
v 0.5 2.1 -0.4
v -0.7 2.4 0.6
v -0.7 2.5 0.6
v -0.6 2.4 0.6
v -0.6 2.5 0.6
v -0.3 2.4 0.6
v -0.3 2.5 0.6
v -0.2 2.4 0.6
v -0.2 2.5 0.6
v 0.3 2.2 0.5
v 0.3 2.3 0.5
v 0.4 2 0.5
v 0.4 2.1 0.5
v 0.4 2.2 0.5
v 0.4 2.3 0.5
v 0.5 2 0.5
v 0.5 2.1 0.5
v -0.7 0 0.3
v -0.7 0.1 0.3
v -0.7 0.3 0.3
v -0.5 0 0.3
v -0.5 0.1 0.3
v -0.5 0.3 0.3
v -0.2 2.4 0.3
v -0.2 2.5 0.3
v -0.1 2.4 0.3
v -0.1 2.5 0.3
v 0.3 0 0.3
v 0.3 0.1 0.3
v 0.3 0.3 0.3
v 0.3 2.3 0.3
v 0.3 2.4 0.3
v 0.4 2.3 0.3
v 0.4 2.4 0.3
v 0.5 0 0.3
v 0.5 0.1 0.3
v 0.5 0.3 0.3
v 0.6 1.2 0.3
v 0.6 1.6 0.3
v 0.7 1.2 0.3
v 0.7 1.6 0.3
v -0.8 2.4 0.2
v -0.8 2.5 0.2
v -0.7 2.4 0.2
v -0.7 2.5 0.2
v -0.5 2.4 0.2
v -0.5 2.5 0.2
v -0.2 2.4 0.2
v -0.2 2.5 0.2
v -0.1 2.4 0.2
v -0.1 2.5 0.2
v 0.1 2.4 0.2
v 0.1 2.5 0.2
v 0.2 2.4 0.2
v 0.2 2.5 0.2
v 0.3 2.2 0.2
v 0.3 2.3 0.2
v 0.3 2.4 0.2
v 0.3 2.5 0.2
v 0.4 2.1 0.2
v 0.4 2.2 0.2
v 0.5 1.5 0.2
v 0.5 1.6 0.2
v 0.5 2.1 0.2
v 0.5 2.2 0.2
v 0.5 2.3 0.2
v 0.6 1.5 0.2
v 0.6 1.6 0.2
v -0.7 2.4 0.1
v -0.7 2.5 0.1
v -0.5 2.4 0.1
v -0.5 2.5 0.1
v 0.1 2.4 0.1
v 0.1 2.5 0.1
v 0.2 2.4 0.1
v 0.2 2.5 0.1
v 0.3 2.1 0.1
v 0.3 2.2 0.1
v 0.4 2 0.1
v 0.4 2.1 0.1
v 0.4 2.2 0.1
v 0.5 2 0.1
v 0.5 2.1 0.1
v -0.9 2.4 0
v -0.9 2.5 0
v -0.8 2.4 0
v -0.8 2.5 0
v 0.5 1.6 0
v 0.5 1.7 0
v 0.6 1.6 0
v 0.6 1.7 0
v -1 2.4 -0.1
v -1 2.5 -0.1
v -0.9 2.4 -0.1
v -0.9 2.5 -0.1
v -0.7 2.4 -0.1
v -0.7 2.5 -0.1
v -0.6 2.4 -0.1
v -0.6 2.5 -0.1
v 0 2.4 -0.1
v 0 2.5 -0.1
v 0.1 2.4 -0.1
v 0.1 2.5 -0.1
v 0.4 1.8 -0.1
v 0.4 1.9 -0.1
v 0.4 2.1 -0.1
v 0.4 2.2 -0.1
v 0.5 1.8 -0.1
v 0.5 1.9 -0.1
v 0.5 2.1 -0.1
v 0.5 2.2 -0.1
v -1 0.3 -0.2
v -1 0.4 -0.2
v -1 0.5 -0.2
v -1 0.6 -0.2
v -1 2.2 -0.2
v -1 2.3 -0.2
v -1 2.4 -0.2
v -0.9 0.3 -0.2
v -0.9 0.4 -0.2
v -0.9 0.5 -0.2
v -0.9 0.6 -0.2
v -0.9 2.2 -0.2
v -0.9 2.3 -0.2
v -0.9 2.4 -0.2
v -0.6 2.4 -0.2
v -0.6 2.5 -0.2
v 0 2.4 -0.2
v 0 2.5 -0.2
v 0.3 2 -0.2
v 0.3 2.1 -0.2
v 0.3 2.4 -0.2
v 0.3 2.5 -0.2
v 0.4 1.9 -0.2
v 0.4 2 -0.2
v 0.4 2.1 -0.2
v 0.4 2.4 -0.2
v 0.4 2.5 -0.2
v 0.5 1.9 -0.2
v 0.5 2 -0.2
v 0.5 2.1 -0.2
v 0.6 0.3 -0.2
v 0.6 0.4 -0.2
v 0.6 0.5 -0.2
v 0.6 0.6 -0.2
v 0.6 1.4 -0.2
v 0.6 1.9 -0.2
v 0.6 2 -0.2
v 0.7 0.3 -0.2
v 0.7 0.4 -0.2
v 0.7 0.5 -0.2
v 0.7 0.6 -0.2
v 0.7 1.4 -0.2
v -0.7 0 -0.3
v -0.7 0.1 -0.3
v -0.7 0.3 -0.3
v -0.6 0.3 -0.3
v -0.5 0 -0.3
v -0.5 0.1 -0.3
v -0.5 0.3 -0.3
v 0.1 2.4 -0.3
v 0.1 2.5 -0.3
v 0.3 0 -0.3
v 0.3 0.1 -0.3
v 0.3 0.3 -0.3
v 0.3 2.4 -0.3
v 0.3 2.5 -0.3
v 0.5 0 -0.3
v 0.5 0.1 -0.3
v 0.5 0.3 -0.3
v -0.9 0.3 -0.4
v -0.9 0.4 -0.4
v -0.9 0.5 -0.4
v -0.9 0.6 -0.4
v -0.9 2.2 -0.4
v -0.9 2.3 -0.4
v -0.9 2.4 -0.4
v -0.9 2.5 -0.4
v -0.8 0.3 -0.4
v -0.8 0.4 -0.4
v -0.8 0.5 -0.4
v -0.8 0.6 -0.4
v -0.8 2.2 -0.4
v -0.8 2.3 -0.4
v -0.8 2.4 -0.4
v -0.8 2.5 -0.4
v -0.2 2.4 -0.4
v -0.2 2.5 -0.4
v -0.1 2.4 -0.4
v -0.1 2.5 -0.4
v 0.3 1.8 -0.4
v 0.3 1.9 -0.4
v 0.3 2 -0.4
v 0.3 2.2 -0.4
v 0.3 2.3 -0.4
v 0.3 2.4 -0.4
v 0.4 2 -0.4
v 0.4 2.1 -0.4
v 0.4 2.2 -0.4
v 0.4 2.3 -0.4
v 0.4 2.4 -0.4
v 0.5 0.3 -0.4
v 0.5 0.4 -0.4
v 0.5 0.5 -0.4
v 0.5 0.6 -0.4
v 0.5 1.8 -0.4
v 0.5 1.9 -0.4
v 0.5 2.2 -0.4
v 0.5 2.3 -0.4
v 0.6 0.3 -0.4
v 0.6 0.4 -0.4
v 0.6 0.5 -0.4
v 0.6 0.6 -0.4
v 0.6 1.8 -0.4
v -0.8 0.3 -0.5
v -0.8 0.4 -0.5
v -0.8 0.5 -0.5
v -0.8 0.6 -0.5
v -0.8 2.2 -0.5
v -0.8 2.3 -0.5
v -0.8 2.4 -0.5
v -0.8 2.5 -0.5
v -0.6 0.3 -0.5
v -0.6 0.4 -0.5
v -0.6 0.5 -0.5
v -0.6 0.6 -0.5
v -0.6 2.2 -0.5
v -0.6 2.3 -0.5
v -0.6 2.4 -0.5
v -0.6 2.5 -0.5
v -0.3 2.4 -0.5
v -0.3 2.5 -0.5
v -0.2 2.4 -0.5
v -0.2 2.5 -0.5
v 0.1 1.9 -0.5
v 0.1 2.1 -0.5
v 0.1 2.3 -0.5
v 0.1 2.4 -0.5
v 0.1 2.5 -0.5
v 0.2 1.8 -0.5
v 0.2 1.9 -0.5
v 0.2 2 -0.5
v 0.2 2.3 -0.5
v 0.2 2.4 -0.5
v 0.2 2.5 -0.5
v 0.3 0.3 -0.5
v 0.3 0.4 -0.5
v 0.3 0.5 -0.5
v 0.3 0.6 -0.5
v 0.3 1.8 -0.5
v 0.3 1.9 -0.5
v 0.3 2 -0.5
v 0.3 2.1 -0.5
v 0.3 2.2 -0.5
v 0.3 2.3 -0.5
v 0.3 2.4 -0.5
v 0.4 2 -0.5
v 0.4 2.1 -0.5
v 0.4 2.2 -0.5
v 0.4 2.3 -0.5
v 0.5 0.3 -0.5
v 0.5 0.4 -0.5
v 0.5 0.5 -0.5
v 0.5 0.6 -0.5
v 0.5 1.8 -0.5
v 0.5 1.9 -0.5
v 0.5 2.1 -0.5
v -0.6 0.3 -0.6
v -0.6 0.4 -0.6
v -0.6 0.5 -0.6
v -0.6 0.6 -0.6
v -0.6 2.2 -0.6
v -0.6 2.3 -0.6
v -0.6 2.4 -0.6
v -0.6 2.5 -0.6
v -0.4 0.3 -0.6
v -0.4 0.4 -0.6
v -0.4 0.5 -0.6
v -0.4 0.6 -0.6
v -0.4 1.9 -0.6
v -0.4 2.1 -0.6
v -0.4 2.2 -0.6
v -0.4 2.3 -0.6
v -0.4 2.4 -0.6
v -0.4 2.5 -0.6
v -0.3 1.9 -0.6
v -0.3 2.1 -0.6
v -0.3 2.3 -0.6
v -0.3 2.4 -0.6
v -0.3 2.5 -0.6
v -0.2 1.9 -0.6
v -0.1 2.4 -0.6
v -0.1 2.5 -0.6
v 0 1.9 -0.6
v 0 2.1 -0.6
v 0 2.3 -0.6
v 0.1 0.3 -0.6
v 0.1 0.4 -0.6
v 0.1 0.5 -0.6
v 0.1 0.6 -0.6
v 0.1 1.9 -0.6
v 0.1 2.1 -0.6
v 0.1 2.2 -0.6
v 0.1 2.3 -0.6
v 0.1 2.4 -0.6
v 0.1 2.5 -0.6
v 0.2 0.3 -0.6
v 0.2 0.4 -0.6
v 0.2 0.5 -0.6
v 0.2 0.6 -0.6
v 0.2 1.8 -0.6
v 0.2 1.9 -0.6
v 0.2 2 -0.6
v 0.2 2.2 -0.6
v 0.2 2.3 -0.6
v 0.3 0.3 -0.6
v 0.3 0.4 -0.6
v 0.3 0.5 -0.6
v 0.3 0.6 -0.6
v 0.3 1.8 -0.6
v 0.3 1.9 -0.6
v 0.3 2 -0.6
v 0.3 2.1 -0.6
v 0.3 2.2 -0.6
v 0.3 2.3 -0.6
v -0.4 0.3 -0.7
v -0.4 0.4 -0.7
v -0.4 0.5 -0.7
v -0.4 0.6 -0.7
v -0.4 1.9 -0.7
v -0.4 2.1 -0.7
v -0.4 2.2 -0.7
v -0.4 2.3 -0.7
v -0.3 0.3 -0.7
v -0.3 0.4 -0.7
v -0.3 0.5 -0.7
v -0.3 0.6 -0.7
v -0.3 1 -0.7
v -0.3 1.2 -0.7
v -0.3 1.4 -0.7
v -0.3 1.6 -0.7
v -0.3 1.9 -0.7
v -0.3 2.1 -0.7
v -0.3 2.2 -0.7
v -0.3 2.3 -0.7
v -0.2 0.8 -0.7
v -0.2 1 -0.7
v -0.2 1.5 -0.7
v -0.2 1.6 -0.7
v -0.2 1.7 -0.7
v -0.2 1.9 -0.7
v -0.1 0.8 -0.7
v -0.1 0.9 -0.7
v -0.1 1.5 -0.7
v -0.1 1.6 -0.7
v 0 0.3 -0.7
v 0 0.4 -0.7
v 0 0.5 -0.7
v 0 0.6 -0.7
v 0 0.9 -0.7
v 0 1.2 -0.7
v 0 1.4 -0.7
v 0 1.6 -0.7
v 0 1.7 -0.7
v 0 1.9 -0.7
v 0 2.1 -0.7
v 0 2.2 -0.7
v 0 2.3 -0.7
v 0.1 0.3 -0.7
v 0.1 0.4 -0.7
v 0.1 0.5 -0.7
v 0.1 0.6 -0.7
v 0.1 1.9 -0.7
v 0.1 2.1 -0.7
v 0.1 2.2 -0.7
v 0.1 2.3 -0.7
v -0.7 0 0.5
v -0.5 0 0.5
v 0.3 0 0.5
v 0.5 0 0.5
v -0.7 0 0.3
v -0.5 0 0.3
v 0.3 0 0.3
v 0.5 0 0.3
v -0.7 0 -0.1
v -0.5 0 -0.1
v 0.3 0 -0.1
v 0.5 0 -0.1
v -0.7 0 -0.3
v -0.5 0 -0.3
v 0.3 0 -0.3
v 0.5 0 -0.3
v -0.4 0.3 0.9
v -0.3 0.3 0.9
v 0 0.3 0.9
v 0.1 0.3 0.9
v -0.6 0.3 0.8
v -0.4 0.3 0.8
v -0.3 0.3 0.8
v 0 0.3 0.8
v 0.1 0.3 0.8
v 0.3 0.3 0.8
v -0.8 0.3 0.7
v -0.6 0.3 0.7
v -0.4 0.3 0.7
v 0.3 0.3 0.7
v 0.5 0.3 0.7
v -0.9 0.3 0.6
v -0.8 0.3 0.6
v -0.6 0.3 0.6
v 0.1 0.3 0.6
v 0.5 0.3 0.6
v 0.6 0.3 0.6
v -0.7 0.3 0.5
v -0.5 0.3 0.5
v 0.3 0.3 0.5
v 0.5 0.3 0.5
v -1 0.3 0.4
v -0.9 0.3 0.4
v -0.8 0.3 0.4
v 0.5 0.3 0.4
v 0.6 0.3 0.4
v 0.7 0.3 0.4
v -0.7 0.3 0.3
v -0.5 0.3 0.3
v 0.3 0.3 0.3
v 0.5 0.3 0.3
v 0.6 0.3 0.3
v 0.7 0.3 0.3
v -1 0.3 0.1
v -0.9 0.3 0.1
v -0.7 0.3 -0.1
v -0.5 0.3 -0.1
v 0.3 0.3 -0.1
v 0.5 0.3 -0.1
v -1 0.3 -0.2
v -0.9 0.3 -0.2
v -0.8 0.3 -0.2
v 0.5 0.3 -0.2
v 0.6 0.3 -0.2
v 0.7 0.3 -0.2
v -0.9 0.3 -0.3
v -0.8 0.3 -0.3
v -0.7 0.3 -0.3
v -0.6 0.3 -0.3
v -0.5 0.3 -0.3
v 0.3 0.3 -0.3
v 0.5 0.3 -0.3
v -0.9 0.3 -0.4
v -0.8 0.3 -0.4
v 0.2 0.3 -0.4
v 0.5 0.3 -0.4
v 0.6 0.3 -0.4
v -0.8 0.3 -0.5
v -0.6 0.3 -0.5
v -0.4 0.3 -0.5
v 0.1 0.3 -0.5
v 0.2 0.3 -0.5
v 0.3 0.3 -0.5
v 0.5 0.3 -0.5
v -0.6 0.3 -0.6
v -0.4 0.3 -0.6
v -0.3 0.3 -0.6
v 0 0.3 -0.6
v 0.1 0.3 -0.6
v 0.2 0.3 -0.6
v 0.3 0.3 -0.6
v -0.4 0.3 -0.7
v -0.3 0.3 -0.7
v 0 0.3 -0.7
v 0.1 0.3 -0.7
v 0.5 1.6 0.2
v 0.6 1.6 0.2
v 0.5 1.6 0
v 0.6 1.6 0
v -0.3 1.7 0.9
v -0.2 1.7 0.9
v -0.1 1.7 0.9
v -0.3 1.7 0.8
v -0.2 1.7 0.8
v -0.1 1.7 0.8
v 0.5 1.7 0
v 0.6 1.7 0
v 0.5 1.7 -0.1
v 0.6 1.7 -0.1
v -0.1 1.8 0.9
v 0 1.8 0.9
v 0.1 1.8 0.9
v -0.1 1.8 0.8
v 0 1.8 0.8
v 0.1 1.8 0.8
v 0.3 1.8 0.8
v 0.1 1.8 0.7
v 0.3 1.8 0.7
v 0.4 1.8 0.7
v 0.3 1.8 0.6
v 0.4 1.8 0.6
v 0.4 1.9 0.6
v 0.5 1.9 0.6
v 0.4 1.9 0
v 0.5 1.9 0
v 0.4 1.9 -0.1
v 0.5 1.9 -0.1
v 0.6 1.9 -0.1
v 0.4 1.9 -0.2
v 0.5 1.9 -0.2
v 0.6 1.9 -0.2
v 0.3 1.9 -0.4
v 0.5 1.9 -0.4
v 0.2 1.9 -0.5
v 0.3 1.9 -0.5
v 0.5 1.9 -0.5
v 0.2 1.9 -0.6
v 0.3 1.9 -0.6
v 0 2 0.9
v 0.1 2 0.9
v 0 2 0.8
v 0.1 2 0.8
v 0.4 2 0.7
v 0.5 2 0.7
v 0.4 2 0.6
v 0.5 2 0.6
v 0.1 2.1 0.8
v 0.2 2.1 0.8
v 0.1 2.1 0.7
v 0.2 2.1 0.7
v 0.3 2.1 -0.2
v 0.4 2.1 -0.2
v 0.3 2.1 -0.3
v 0.4 2.1 -0.3
v 0.1 2.1 -0.5
v 0.3 2.1 -0.5
v -0.4 2.1 -0.6
v -0.3 2.1 -0.6
v 0 2.1 -0.6
v 0.1 2.1 -0.6
v 0.3 2.1 -0.6
v -0.4 2.1 -0.7
v -0.3 2.1 -0.7
v 0 2.1 -0.7
v 0.1 2.1 -0.7
v 0.3 2.2 0.1
v 0.4 2.2 0.1
v 0.3 2.2 0
v 0.4 2.2 0
v 0.4 2.2 -0.3
v 0.5 2.2 -0.3
v 0.3 2.2 -0.4
v 0.4 2.2 -0.4
v 0.5 2.2 -0.4
v 0.3 2.2 -0.5
v 0.4 2.2 -0.5
v 0.3 2.4 0
v 0.4 2.4 0
v 0.3 2.4 -0.2
v 0.4 2.4 -0.2
v 0.6 1.2 0.3
v 0.7 1.2 0.3
v 0.6 1.2 0.2
v 0.7 1.2 0.2
v 0.6 1.4 0.2
v 0.7 1.4 0.2
v 0.6 1.4 -0.2
v 0.7 1.4 -0.2
v 0.5 1.5 0.2
v 0.6 1.5 0.2
v 0.5 1.5 0
v 0.6 1.5 0
v -0.3 1.6 0.9
v -0.2 1.6 0.9
v 0 1.6 0.9
v 0.1 1.6 0.9
v -0.3 1.6 0.8
v -0.2 1.6 0.8
v 0 1.6 0.8
v 0.1 1.6 0.8
v 0.3 1.6 0.8
v 0.1 1.6 0.7
v 0.3 1.6 0.7
v 0.5 1.6 0.7
v 0.3 1.6 0.6
v 0.5 1.6 0.6
v 0.6 1.6 0.6
v 0.5 1.6 0.4
v 0.6 1.6 0.4
v 0.7 1.6 0.4
v 0.6 1.6 0.3
v 0.7 1.6 0.3
v 0.5 1.6 0
v 0.6 1.6 0
v 0.5 1.6 -0.1
v 0.6 1.6 -0.1
v 0.5 1.7 0.4
v 0.6 1.7 0.4
v 0.5 1.7 0
v 0.6 1.7 0
v 0.4 1.8 0.6
v 0.5 1.8 0.6
v 0.4 1.8 0
v 0.5 1.8 0
v 0.6 1.8 0
v 0.4 1.8 -0.1
v 0.5 1.8 -0.1
v 0.4 1.8 -0.2
v 0.5 1.8 -0.2
v 0.3 1.8 -0.4
v 0.5 1.8 -0.4
v 0.6 1.8 -0.4
v 0.2 1.8 -0.5
v 0.3 1.8 -0.5
v 0.5 1.8 -0.5
v 0.2 1.8 -0.6
v 0.3 1.8 -0.6
v 0 1.9 0.9
v 0.1 1.9 0.9
v 0 1.9 0.8
v 0.1 1.9 0.8
v 0.3 1.9 0.8
v 0.1 1.9 0.7
v 0.3 1.9 0.7
v 0.4 1.9 0.7
v 0.3 1.9 0.6
v 0.4 1.9 0.6
v 0.4 1.9 -0.2
v 0.5 1.9 -0.2
v 0.4 1.9 -0.3
v 0.5 1.9 -0.3
v 0.1 1.9 -0.5
v 0.2 1.9 -0.5
v -0.4 1.9 -0.6
v -0.3 1.9 -0.6
v -0.2 1.9 -0.6
v 0 1.9 -0.6
v 0.1 1.9 -0.6
v 0.2 1.9 -0.6
v -0.4 1.9 -0.7
v -0.3 1.9 -0.7
v -0.2 1.9 -0.7
v 0 1.9 -0.7
v 0.1 1.9 -0.7
v 0.4 2 0.5
v 0.5 2 0.5
v 0.4 2 0.4
v 0.5 2 0.4
v 0.4 2 0.1
v 0.5 2 0.1
v 0.4 2 0
v 0.5 2 0
v 0.5 2 -0.1
v 0.6 2 -0.1
v 0.3 2 -0.2
v 0.4 2 -0.2
v 0.5 2 -0.2
v 0.6 2 -0.2
v 0.3 2 -0.3
v 0.4 2 -0.3
v 0.5 2 -0.3
v 0.3 2 -0.4
v 0.4 2 -0.4
v 0.5 2 -0.4
v 0.2 2 -0.5
v 0.3 2 -0.5
v 0.4 2 -0.5
v 0.2 2 -0.6
v 0.3 2 -0.6
v 0.4 2.1 0.7
v 0.5 2.1 0.7
v 0.4 2.1 0.6
v 0.4 2.1 0.5
v 0.5 2.1 0.5
v 0.4 2.1 0.4
v 0.5 2.1 0.4
v 0.4 2.1 0.3
v 0.5 2.1 0.3
v 0.4 2.1 0.2
v 0.5 2.1 0.2
v 0.3 2.1 0.1
v 0.4 2.1 0.1
v 0.5 2.1 0.1
v 0.3 2.1 0
v 0.4 2.1 0
v 0.4 2.1 -0.1
v 0.5 2.1 -0.1
v 0.4 2.1 -0.2
v 0.5 2.1 -0.2
v 0.4 2.1 -0.4
v 0.5 2.1 -0.4
v 0.4 2.1 -0.5
v 0.5 2.1 -0.5
v -0.1 2.2 0.9
v 0 2.2 0.9
v 0.1 2.2 0.9
v -0.1 2.2 0.8
v 0 2.2 0.8
v 0.1 2.2 0.8
v 0.2 2.2 0.8
v 0.1 2.2 0.7
v 0.2 2.2 0.7
v 0.3 2.2 0.5
v 0.4 2.2 0.5
v 0.3 2.2 0.4
v 0.4 2.2 0.4
v 0.3 2.2 0.2
v 0.4 2.2 0.2
v 0.3 2.2 0.1
v 0.4 2.2 0.1
v 0.4 2.2 0
v 0.5 2.2 0
v 0.4 2.2 -0.1
v 0.5 2.2 -0.1
v -0.2 2.3 0.9
v -0.1 2.3 0.9
v -0.2 2.3 0.8
v -0.1 2.3 0.8
v 0.2 2.3 0.7
v 0.3 2.3 0.7
v 0.2 2.3 0.6
v 0.3 2.3 0.6
v 0.4 2.3 0.6
v 0.3 2.3 0.5
v 0.4 2.3 0.5
v 0.3 2.3 0.3
v 0.4 2.3 0.3
v 0.5 2.3 0.3
v 0.3 2.3 0.2
v 0.5 2.3 0.2
v 0.3 2.3 0.1
v 0.4 2.3 0.1
v 0.3 2.3 -0.3
v 0.4 2.3 -0.3
v 0.5 2.3 -0.3
v 0.3 2.3 -0.4
v 0.4 2.3 -0.4
v 0.5 2.3 -0.4
v 0.1 2.3 -0.5
v 0.2 2.3 -0.5
v 0.3 2.3 -0.5
v 0.4 2.3 -0.5
v -0.4 2.3 -0.6
v -0.3 2.3 -0.6
v 0 2.3 -0.6
v 0.1 2.3 -0.6
v 0.2 2.3 -0.6
v 0.3 2.3 -0.6
v -0.4 2.3 -0.7
v -0.3 2.3 -0.7
v 0 2.3 -0.7
v 0.1 2.3 -0.7
v -0.4 2.4 0.9
v -0.3 2.4 0.9
v -0.2 2.4 0.9
v -0.6 2.4 0.8
v -0.4 2.4 0.8
v -0.3 2.4 0.8
v -0.2 2.4 0.8
v -0.6 2.4 0.7
v -0.5 2.4 0.7
v -0.4 2.4 0.7
v -0.3 2.4 0.7
v -0.2 2.4 0.7
v 0.1 2.4 0.7
v 0.2 2.4 0.7
v -0.7 2.4 0.6
v -0.6 2.4 0.6
v -0.5 2.4 0.6
v -0.4 2.4 0.6
v -0.3 2.4 0.6
v -0.2 2.4 0.6
v 0.2 2.4 0.6
v 0.3 2.4 0.6
v 0.1 2.4 0.4
v 0.2 2.4 0.4
v 0.3 2.4 0.4
v 0.4 2.4 0.4
v -0.3 2.4 0.3
v -0.2 2.4 0.3
v -0.1 2.4 0.3
v 0.2 2.4 0.3
v 0.3 2.4 0.3
v 0.4 2.4 0.3
v -0.8 2.4 0.2
v -0.7 2.4 0.2
v -0.6 2.4 0.2
v -0.5 2.4 0.2
v -0.2 2.4 0.2
v -0.1 2.4 0.2
v 0.1 2.4 0.2
v 0.2 2.4 0.2
v 0.3 2.4 0.2
v -0.7 2.4 0.1
v -0.5 2.4 0.1
v 0 2.4 0.1
v 0.1 2.4 0.1
v 0.2 2.4 0.1
v -0.9 2.4 0
v -0.8 2.4 0
v -0.7 2.4 0
v -0.5 2.4 0
v 0 2.4 0
v 0.1 2.4 0
v 0.2 2.4 0
v 0.3 2.4 0
v -1 2.4 -0.1
v -0.9 2.4 -0.1
v -0.7 2.4 -0.1
v -0.6 2.4 -0.1
v 0 2.4 -0.1
v 0.1 2.4 -0.1
v -1 2.4 -0.2
v -0.9 2.4 -0.2
v -0.7 2.4 -0.2
v -0.6 2.4 -0.2
v 0 2.4 -0.2
v 0.1 2.4 -0.2
v 0.2 2.4 -0.2
v -0.6 2.4 -0.3
v -0.1 2.4 -0.3
v 0.1 2.4 -0.3
v 0.3 2.4 -0.3
v 0.4 2.4 -0.3
v -0.2 2.4 -0.4
v -0.1 2.4 -0.4
v 0.2 2.4 -0.4
v 0.3 2.4 -0.4
v 0.4 2.4 -0.4
v -0.3 2.4 -0.5
v -0.2 2.4 -0.5
v 0.2 2.4 -0.5
v 0.3 2.4 -0.5
v -0.3 2.4 -0.6
v -0.1 2.4 -0.6
v -0.2 2.5 0.8
v 0.1 2.5 0.8
v -0.8 2.5 0.7
v -0.6 2.5 0.7
v -0.5 2.5 0.7
v -0.4 2.5 0.7
v -0.3 2.5 0.7
v -0.2 2.5 0.7
v -0.9 2.5 0.6
v -0.8 2.5 0.6
v -0.7 2.5 0.6
v -0.6 2.5 0.6
v -0.5 2.5 0.6
v -0.4 2.5 0.6
v -0.3 2.5 0.6
v -0.2 2.5 0.6
v -1 2.5 0.4
v -0.9 2.5 0.4
v -0.8 2.5 0.4
v 0.1 2.5 0.4
v 0.2 2.5 0.4
v -0.3 2.5 0.3
v -0.2 2.5 0.3
v -0.1 2.5 0.3
v 0.2 2.5 0.3
v 0.3 2.5 0.3
v -0.8 2.5 0.2
v -0.7 2.5 0.2
v -0.6 2.5 0.2
v -0.5 2.5 0.2
v -0.2 2.5 0.2
v -0.1 2.5 0.2
v 0.1 2.5 0.2
v 0.2 2.5 0.2
v 0.3 2.5 0.2
v -1 2.5 0.1
v -0.9 2.5 0.1
v -0.7 2.5 0.1
v -0.5 2.5 0.1
v 0 2.5 0.1
v 0.1 2.5 0.1
v 0.2 2.5 0.1
v -0.9 2.5 0
v -0.8 2.5 0
v -0.7 2.5 0
v -0.5 2.5 0
v 0 2.5 0
v 0.1 2.5 0
v 0.2 2.5 0
v 0.4 2.5 0
v -1 2.5 -0.1
v -0.9 2.5 -0.1
v -0.7 2.5 -0.1
v -0.6 2.5 -0.1
v 0 2.5 -0.1
v 0.1 2.5 -0.1
v -0.9 2.5 -0.2
v -0.8 2.5 -0.2
v -0.7 2.5 -0.2
v -0.6 2.5 -0.2
v 0 2.5 -0.2
v 0.1 2.5 -0.2
v 0.2 2.5 -0.2
v 0.3 2.5 -0.2
v 0.4 2.5 -0.2
v -0.9 2.5 -0.3
v -0.8 2.5 -0.3
v -0.6 2.5 -0.3
v -0.1 2.5 -0.3
v 0.1 2.5 -0.3
v 0.3 2.5 -0.3
v -0.9 2.5 -0.4
v -0.8 2.5 -0.4
v -0.2 2.5 -0.4
v -0.1 2.5 -0.4
v 0.2 2.5 -0.4
v -0.8 2.5 -0.5
v -0.6 2.5 -0.5
v -0.4 2.5 -0.5
v -0.3 2.5 -0.5
v -0.2 2.5 -0.5
v 0.1 2.5 -0.5
v 0.2 2.5 -0.5
v -0.6 2.5 -0.6
v -0.4 2.5 -0.6
v -0.3 2.5 -0.6
v -0.1 2.5 -0.6
v 0.1 2.5 -0.6

# faces
f 4/2/1 2/2/1 1/2/1
f 5/1/1 3/1/1 2/1/1
f 5/2/1 2/2/1 4/2/1
f 6/1/1 3/1/1 5/1/1
f 7/3/1 5/3/1 4/3/1
f 7/3/1 6/3/1 5/3/1
f 8/3/1 6/3/1 7/3/1
f 9/3/1 6/3/1 8/3/1
f 10/2/1 8/2/1 7/2/1
f 11/1/1 9/1/1 8/1/1
f 11/2/1 8/2/1 10/2/1
f 12/1/1 9/1/1 11/1/1
f 13/3/1 11/3/1 10/3/1
f 13/3/1 12/3/1 11/3/1
f 14/3/1 12/3/1 13/3/1
f 15/3/1 12/3/1 14/3/1
f 16/2/1 14/2/1 13/2/1
f 17/1/1 15/1/1 14/1/1
f 17/2/1 14/2/1 16/2/1
f 18/1/1 15/1/1 17/1/1
f 19/3/1 17/3/1 16/3/1
f 19/3/1 18/3/1 17/3/1
f 20/3/1 18/3/1 19/3/1
f 21/3/1 18/3/1 20/3/1
f 22/3/1 18/3/1 21/3/1
f 23/2/1 20/2/1 19/2/1
f 24/1/1 21/1/1 20/1/1
f 24/2/1 20/2/1 23/2/1
f 25/1/1 21/1/1 24/1/1
f 31/2/1 27/2/1 26/2/1
f 32/2/1 27/2/1 31/2/1
f 33/2/1 29/2/1 28/2/1
f 34/1/1 30/1/1 29/1/1
f 34/2/1 29/2/1 33/2/1
f 35/1/1 30/1/1 34/1/1
f 36/3/1 32/3/1 31/3/1
f 37/3/1 32/3/1 36/3/1
f 38/3/1 34/3/1 33/3/1
f 38/3/1 35/3/1 34/3/1
f 39/3/1 35/3/1 38/3/1
f 40/3/1 35/3/1 39/3/1
f 41/2/1 37/2/1 36/2/1
f 42/2/1 37/2/1 41/2/1
f 43/2/1 39/2/1 38/2/1
f 44/1/1 40/1/1 39/1/1
f 44/2/1 39/2/1 43/2/1
f 45/1/1 40/1/1 44/1/1
f 46/3/1 42/3/1 41/3/1
f 47/3/1 42/3/1 46/3/1
f 48/3/1 44/3/1 43/3/1
f 48/3/1 45/3/1 44/3/1
f 49/3/1 45/3/1 48/3/1
f 50/3/1 45/3/1 49/3/1
f 51/2/1 47/2/1 46/2/1
f 52/2/1 47/2/1 51/2/1
f 53/2/1 49/2/1 48/2/1
f 54/1/1 50/1/1 49/1/1
f 54/2/1 49/2/1 53/2/1
f 55/1/1 50/1/1 54/1/1
f 56/3/1 52/3/1 51/3/1
f 57/3/1 52/3/1 56/3/1
f 59/3/1 54/3/1 53/3/1
f 59/3/1 55/3/1 54/3/1
f 60/3/1 55/3/1 59/3/1
f 61/3/1 55/3/1 60/3/1
f 62/2/1 57/2/1 56/2/1
f 63/2/1 57/2/1 62/2/1
f 64/6/1 59/6/1 58/6/1
f 65/2/1 60/2/1 59/2/1
f 65/6/1 59/6/1 64/6/1
f 66/1/1 61/1/1 60/1/1
f 66/2/1 60/2/1 65/2/1
f 67/1/1 61/1/1 66/1/1
f 72/2/1 69/2/1 68/2/1
f 73/2/1 69/2/1 72/2/1
f 74/1/1 71/1/1 70/1/1
f 75/1/1 71/1/1 74/1/1
f 76/3/1 73/3/1 72/3/1
f 77/3/1 73/3/1 76/3/1
f 78/3/1 75/3/1 74/3/1
f 79/3/1 75/3/1 78/3/1
f 80/2/1 77/2/1 76/2/1
f 81/2/1 77/2/1 80/2/1
f 82/1/1 79/1/1 78/1/1
f 83/1/1 79/1/1 82/1/1
f 84/3/1 81/3/1 80/3/1
f 85/3/1 81/3/1 84/3/1
f 86/3/1 83/3/1 82/3/1
f 87/3/1 83/3/1 86/3/1
f 88/2/1 85/2/1 84/2/1
f 89/2/1 85/2/1 88/2/1
f 90/1/1 87/1/1 86/1/1
f 91/1/1 87/1/1 90/1/1
f 92/3/1 89/3/1 88/3/1
f 93/3/1 89/3/1 92/3/1
f 94/3/1 91/3/1 90/3/1
f 95/3/1 91/3/1 94/3/1
f 96/2/1 93/2/1 92/2/1
f 97/2/1 93/2/1 96/2/1
f 98/1/1 95/1/1 94/1/1
f 99/1/1 95/1/1 98/1/1
f 104/4/1 101/4/1 100/4/1
f 105/4/1 101/4/1 104/4/1
f 106/4/1 103/4/1 102/4/1
f 107/4/1 103/4/1 106/4/1
f 108/5/1 105/5/1 104/5/1
f 109/5/1 105/5/1 108/5/1
f 110/5/1 107/5/1 106/5/1
f 111/5/1 107/5/1 110/5/1
f 116/6/1 113/6/1 112/6/1
f 117/6/1 113/6/1 116/6/1
f 118/6/1 115/6/1 114/6/1
f 119/6/1 115/6/1 118/6/1
f 124/2/1 121/2/1 120/2/1
f 125/2/1 121/2/1 124/2/1
f 126/2/1 123/2/1 122/2/1
f 127/2/1 123/2/1 126/2/1
f 128/3/1 125/3/1 124/3/1
f 129/3/1 125/3/1 128/3/1
f 130/3/1 127/3/1 126/3/1
f 131/3/1 127/3/1 130/3/1
f 132/2/1 129/2/1 128/2/1
f 133/2/1 129/2/1 132/2/1
f 134/2/1 131/2/1 130/2/1
f 135/2/1 131/2/1 134/2/1
f 136/3/1 133/3/1 132/3/1
f 137/3/1 133/3/1 136/3/1
f 138/3/1 135/3/1 134/3/1
f 139/3/1 135/3/1 138/3/1
f 140/2/1 137/2/1 136/2/1
f 141/2/1 137/2/1 140/2/1
f 142/2/1 139/2/1 138/2/1
f 143/2/1 139/2/1 142/2/1
f 144/3/1 141/3/1 140/3/1
f 145/3/1 141/3/1 144/3/1
f 150/3/1 143/3/1 142/3/1
f 151/3/1 143/3/1 150/3/1
f 152/6/1 147/6/1 146/6/1
f 153/6/1 147/6/1 152/6/1
f 154/6/1 149/6/1 148/6/1
f 155/6/1 149/6/1 154/6/1
f 156/2/1 151/2/1 150/2/1
f 157/2/1 151/2/1 156/2/1
f 162/6/1 159/6/1 158/6/1
f 163/6/1 159/6/1 162/6/1
f 164/6/1 161/6/1 160/6/1
f 165/6/1 161/6/1 164/6/1
f 170/1/1 167/1/1 166/1/1
f 171/1/1 167/1/1 170/1/1
f 172/1/1 169/1/1 168/1/1
f 173/1/1 169/1/1 172/1/1
f 174/3/1 171/3/1 170/3/1
f 175/3/1 171/3/1 174/3/1
f 176/3/1 173/3/1 172/3/1
f 177/3/1 173/3/1 176/3/1
f 178/1/1 175/1/1 174/1/1
f 179/1/1 175/1/1 178/1/1
f 180/1/1 177/1/1 176/1/1
f 181/1/1 177/1/1 180/1/1
f 182/3/1 181/3/1 180/3/1
f 183/3/1 181/3/1 182/3/1
f 186/3/1 179/3/1 178/3/1
f 187/3/1 179/3/1 186/3/1
f 188/3/1 185/3/1 184/3/1
f 189/3/1 185/3/1 188/3/1
f 190/1/1 187/1/1 186/1/1
f 191/1/1 187/1/1 190/1/1
f 192/1/1 189/1/1 188/1/1
f 193/1/1 189/1/1 192/1/1
f 194/3/1 191/3/1 190/3/1
f 195/3/1 191/3/1 194/3/1
f 198/6/1 197/6/1 196/6/1
f 199/6/1 197/6/1 198/6/1
f 204/6/1 201/6/1 200/6/1
f 205/6/1 201/6/1 204/6/1
f 206/6/1 203/6/1 202/6/1
f 207/6/1 203/6/1 206/6/1
f 212/6/1 209/6/1 208/6/1
f 213/6/1 209/6/1 212/6/1
f 214/6/1 211/6/1 210/6/1
f 215/6/1 211/6/1 214/6/1
f 220/6/1 217/6/1 216/6/1
f 221/6/1 217/6/1 220/6/1
f 222/6/1 219/6/1 218/6/1
f 223/6/1 219/6/1 222/6/1
f 226/3/1 225/3/1 224/3/1
f 227/3/1 225/3/1 226/3/1
f 230/6/1 229/6/1 228/6/1
f 231/6/1 229/6/1 230/6/1
f 236/4/1 233/4/1 232/4/1
f 237/4/1 233/4/1 236/4/1
f 238/4/1 235/4/1 234/4/1
f 239/4/1 235/4/1 238/4/1
f 240/5/1 237/5/1 236/5/1
f 241/5/1 237/5/1 240/5/1
f 242/5/1 239/5/1 238/5/1
f 243/5/1 239/5/1 242/5/1
f 248/3/1 245/3/1 244/3/1
f 249/3/1 245/3/1 248/3/1
f 250/3/1 247/3/1 246/3/1
f 251/3/1 247/3/1 250/3/1
f 252/1/2 253/1/2 254/1/2
f 254/1/2 253/1/2 255/1/2
f 256/6/2 257/6/2 258/6/2
f 258/6/2 257/6/2 259/6/2
f 260/6/2 261/6/2 264/6/2
f 264/6/2 261/6/2 265/6/2
f 262/6/2 263/6/2 266/6/2
f 266/6/2 263/6/2 267/6/2
f 268/2/2 269/2/2 272/2/2
f 272/2/2 269/2/2 273/2/2
f 270/6/2 271/6/2 274/6/2
f 274/6/2 271/6/2 275/6/2
f 276/4/2 277/4/2 280/4/2
f 280/4/2 277/4/2 281/4/2
f 278/4/2 279/4/2 282/4/2
f 282/4/2 279/4/2 283/4/2
f 280/5/2 281/5/2 284/5/2
f 284/5/2 281/5/2 285/5/2
f 282/5/2 283/5/2 286/5/2
f 286/5/2 283/5/2 287/5/2
f 288/6/2 289/6/2 290/6/2
f 290/6/2 289/6/2 291/6/2
f 292/6/2 293/6/2 294/6/2
f 294/6/2 293/6/2 295/6/2
f 296/3/2 297/3/2 298/3/2
f 298/3/2 297/3/2 299/3/2
f 300/6/2 301/6/2 304/6/2
f 304/6/2 301/6/2 305/6/2
f 302/6/2 303/6/2 306/6/2
f 306/6/2 303/6/2 307/6/2
f 308/5/2 309/5/2 310/5/2
f 310/5/2 309/5/2 311/5/2
f 312/6/2 313/6/2 316/6/2
f 316/6/2 313/6/2 317/6/2
f 314/6/2 315/6/2 318/6/2
f 318/6/2 315/6/2 319/6/2
f 320/5/2 321/5/2 322/5/2
f 322/5/2 321/5/2 323/5/2
f 324/4/2 325/4/2 326/4/2
f 326/4/2 325/4/2 327/4/2
f 328/6/2 329/6/2 330/6/2
f 330/6/2 329/6/2 331/6/2
f 332/4/2 333/4/2 334/4/2
f 334/4/2 333/4/2 335/4/2
f 336/6/2 337/6/2 340/6/2
f 340/6/2 337/6/2 341/6/2
f 338/6/2 339/6/2 342/6/2
f 342/6/2 339/6/2 343/6/2
f 344/2/2 345/2/2 348/2/2
f 348/2/2 345/2/2 349/2/2
f 346/2/2 347/2/2 350/2/2
f 350/2/2 347/2/2 351/2/2
f 348/3/2 349/3/2 352/3/2
f 352/3/2 349/3/2 353/3/2
f 350/3/2 351/3/2 354/3/2
f 354/3/2 351/3/2 355/3/2
f 352/2/2 353/2/2 356/2/2
f 356/2/2 353/2/2 357/2/2
f 354/2/2 355/2/2 358/2/2
f 358/2/2 355/2/2 359/2/2
f 356/3/2 357/3/2 360/3/2
f 360/3/2 357/3/2 361/3/2
f 361/3/2 362/3/2 364/3/2
f 364/3/2 362/3/2 365/3/2
f 363/3/2 364/3/2 366/3/2
f 366/3/2 364/3/2 367/3/2
f 358/3/2 359/3/2 370/3/2
f 370/3/2 359/3/2 371/3/2
f 367/3/2 368/3/2 373/3/2
f 373/3/2 368/3/2 374/3/2
f 372/3/2 373/3/2 374/3/2
f 374/3/2 368/3/2 375/3/2
f 369/3/2 370/3/2 376/3/2
f 376/3/2 370/3/2 377/3/2
f 372/3/2 374/3/2 379/3/2
f 379/3/2 374/3/2 380/3/2
f 377/3/2 378/3/2 382/3/2
f 382/3/2 378/3/2 383/3/2
f 380/6/2 381/6/2 384/6/2
f 384/6/2 381/6/2 385/6/2
f 382/2/2 383/2/2 387/2/2
f 387/2/2 383/2/2 388/2/2
f 384/3/2 385/3/2 389/3/2
f 389/3/2 385/3/2 390/3/2
f 386/3/2 387/3/2 394/3/2
f 394/3/2 387/3/2 395/3/2
f 389/6/2 390/6/2 396/6/2
f 390/6/2 391/6/2 396/6/2
f 396/6/2 391/6/2 397/6/2
f 392/6/2 393/6/2 398/6/2
f 398/6/2 393/6/2 399/6/2
f 394/6/2 395/6/2 400/6/2
f 400/6/2 395/6/2 401/6/2
f 402/3/2 403/3/2 404/3/2
f 404/3/2 403/3/2 405/3/2
f 406/3/2 407/3/2 408/3/2
f 408/3/2 407/3/2 409/3/2
f 410/3/2 411/3/2 412/3/2
f 412/3/2 411/3/2 413/3/2
f 414/6/2 415/6/2 420/6/2
f 420/6/2 415/6/2 421/6/2
f 416/6/2 417/6/2 422/6/2
f 422/6/2 417/6/2 423/6/2
f 418/6/2 419/6/2 424/6/2
f 424/6/2 419/6/2 425/6/2
f 426/1/2 427/1/2 430/1/2
f 430/1/2 427/1/2 431/1/2
f 428/1/2 429/1/2 432/1/2
f 432/1/2 429/1/2 433/1/2
f 430/3/2 431/3/2 434/3/2
f 434/3/2 431/3/2 435/3/2
f 432/3/2 433/3/2 436/3/2
f 436/3/2 433/3/2 437/3/2
f 434/1/2 435/1/2 438/1/2
f 438/1/2 435/1/2 439/1/2
f 436/1/2 437/1/2 440/1/2
f 440/1/2 437/1/2 441/1/2
f 438/3/2 439/3/2 442/3/2
f 442/3/2 439/3/2 443/3/2
f 443/3/2 444/3/2 446/3/2
f 446/3/2 444/3/2 447/3/2
f 440/3/2 441/3/2 449/3/2
f 449/3/2 441/3/2 450/3/2
f 445/3/2 446/3/2 451/3/2
f 451/3/2 446/3/2 452/3/2
f 448/3/2 449/3/2 454/3/2
f 454/3/2 449/3/2 455/3/2
f 455/3/2 456/3/2 460/3/2
f 460/3/2 456/3/2 461/3/2
f 457/3/2 458/3/2 464/3/2
f 464/3/2 458/3/2 465/3/2
f 459/3/2 460/3/2 466/3/2
f 452/3/2 453/3/2 468/3/2
f 468/3/2 453/3/2 469/3/2
f 462/3/2 463/3/2 473/3/2
f 473/3/2 463/3/2 474/3/2
f 466/3/2 467/3/2 475/3/2
f 459/3/2 466/3/2 475/3/2
f 475/3/2 467/3/2 476/3/2
f 476/3/2 467/3/2 477/3/2
f 468/1/2 469/1/2 478/1/2
f 478/1/2 469/1/2 479/1/2
f 470/6/2 471/6/2 480/6/2
f 480/6/2 471/6/2 481/6/2
f 472/6/2 473/6/2 483/6/2
f 483/6/2 473/6/2 484/6/2
f 476/1/2 477/1/2 487/1/2
f 487/1/2 477/1/2 488/1/2
f 480/3/2 481/3/2 489/3/2
f 479/3/2 480/3/2 489/3/2
f 489/3/2 481/3/2 490/3/2
f 484/3/2 485/3/2 491/3/2
f 482/3/2 483/3/2 491/3/2
f 483/3/2 484/3/2 491/3/2
f 491/3/2 485/3/2 492/3/2
f 492/3/2 485/3/2 493/3/2
f 493/3/2 485/3/2 494/3/2
f 494/3/2 485/3/2 495/3/2
f 486/3/2 487/3/2 496/3/2
f 496/3/2 487/3/2 497/3/2
f 491/6/2 492/6/2 498/6/2
f 498/6/2 492/6/2 499/6/2
f 494/6/2 495/6/2 500/6/2
f 500/6/2 495/6/2 501/6/2
f 502/3/2 503/3/2 507/3/2
f 503/3/2 504/3/2 507/3/2
f 507/3/2 504/3/2 508/3/2
f 508/3/2 504/3/2 509/3/2
f 505/3/2 506/3/2 510/3/2
f 510/3/2 506/3/2 511/3/2
f 511/3/2 512/3/2 517/3/2
f 517/3/2 512/3/2 518/3/2
f 513/3/2 514/3/2 521/3/2
f 521/3/2 514/3/2 522/3/2
f 515/3/2 516/3/2 525/3/2
f 525/3/2 516/3/2 526/3/2
f 518/3/2 519/3/2 529/3/2
f 529/3/2 519/3/2 530/3/2
f 522/3/2 523/3/2 531/3/2
f 520/3/2 521/3/2 531/3/2
f 521/3/2 522/3/2 531/3/2
f 531/3/2 523/3/2 532/3/2
f 532/3/2 523/3/2 533/3/2
f 533/3/2 523/3/2 534/3/2
f 524/3/2 525/3/2 535/3/2
f 535/3/2 525/3/2 536/3/2
f 527/3/2 528/3/2 538/3/2
f 529/3/2 530/3/2 538/3/2
f 528/3/2 529/3/2 538/3/2
f 538/3/2 530/3/2 539/3/2
f 539/3/2 530/3/2 540/3/2
f 531/6/2 532/6/2 542/6/2
f 542/6/2 532/6/2 543/6/2
f 533/6/2 534/6/2 544/6/2
f 544/6/2 534/6/2 545/6/2
f 536/6/2 537/6/2 546/6/2
f 538/6/2 539/6/2 546/6/2
f 537/6/2 538/6/2 546/6/2
f 546/6/2 539/6/2 547/6/2
f 540/1/2 541/1/2 548/1/2
f 548/1/2 541/1/2 549/1/2
f 544/3/2 545/3/2 550/3/2
f 550/3/2 545/3/2 551/3/2
f 547/3/2 548/3/2 554/3/2
f 554/3/2 548/3/2 555/3/2
f 552/6/2 553/6/2 556/6/2
f 556/6/2 553/6/2 557/6/2
f 558/4/2 559/4/2 562/4/2
f 562/4/2 559/4/2 563/4/2
f 560/4/2 561/4/2 564/4/2
f 564/4/2 561/4/2 565/4/2
f 562/5/2 563/5/2 568/5/2
f 568/5/2 563/5/2 569/5/2
f 569/5/2 563/5/2 570/5/2
f 564/5/2 565/5/2 571/5/2
f 571/5/2 565/5/2 572/5/2
f 572/5/2 565/5/2 573/5/2
f 566/1/2 567/1/2 576/1/2
f 576/1/2 567/1/2 577/1/2
f 574/1/2 575/1/2 578/1/2
f 578/1/2 575/1/2 579/1/2
f 576/3/2 577/3/2 580/3/2
f 580/3/2 577/3/2 581/3/2
f 578/3/2 579/3/2 582/3/2
f 582/3/2 579/3/2 583/3/2
f 580/1/2 581/1/2 584/1/2
f 584/1/2 581/1/2 585/1/2
f 582/1/2 583/1/2 586/1/2
f 586/1/2 583/1/2 587/1/2
f 584/3/2 585/3/2 590/3/2
f 590/3/2 585/3/2 591/3/2
f 588/3/2 589/3/2 593/3/2
f 593/3/2 589/3/2 594/3/2
f 591/3/2 592/3/2 596/3/2
f 594/3/2 595/3/2 597/3/2
f 597/3/2 595/3/2 598/3/2
f 591/3/2 596/3/2 599/3/2
f 596/3/2 597/3/2 599/3/2
f 599/3/2 597/3/2 600/3/2
f 586/3/2 587/3/2 603/3/2
f 603/3/2 587/3/2 604/3/2
f 600/3/2 601/3/2 606/3/2
f 606/3/2 601/3/2 607/3/2
f 602/3/2 603/3/2 608/3/2
f 608/3/2 603/3/2 609/3/2
f 609/3/2 603/3/2 610/3/2
f 606/3/2 607/3/2 613/3/2
f 605/3/2 606/3/2 613/3/2
f 613/3/2 607/3/2 614/3/2
f 614/3/2 607/3/2 615/3/2
f 615/3/2 607/3/2 616/3/2
f 616/3/2 607/3/2 617/3/2
f 617/3/2 607/3/2 618/3/2
f 609/3/2 610/3/2 620/3/2
f 610/3/2 611/3/2 620/3/2
f 620/3/2 611/3/2 621/3/2
f 612/3/2 613/3/2 622/3/2
f 613/3/2 614/3/2 622/3/2
f 622/3/2 614/3/2 623/3/2
f 615/3/2 616/3/2 624/3/2
f 624/3/2 616/3/2 625/3/2
f 625/3/2 616/3/2 626/3/2
f 626/3/2 616/3/2 627/3/2
f 618/3/2 619/3/2 628/3/2
f 617/3/2 618/3/2 628/3/2
f 628/3/2 619/3/2 629/3/2
f 621/3/2 611/3/2 630/3/2
f 630/3/2 611/3/2 631/3/2
f 625/3/2 626/3/2 632/3/2
f 632/3/2 626/3/2 633/3/2
f 617/3/2 628/3/2 634/3/2
f 634/3/2 628/3/2 635/3/2
f 632/6/2 633/6/2 638/6/2
f 638/6/2 633/6/2 639/6/2
f 636/6/2 637/6/2 640/6/2
f 640/6/2 637/6/2 641/6/2
f 642/2/2 643/2/2 646/2/2
f 646/2/2 643/2/2 647/2/2
f 644/2/2 645/2/2 648/2/2
f 648/2/2 645/2/2 649/2/2
f 646/3/2 647/3/2 650/3/2
f 650/3/2 647/3/2 651/3/2
f 648/3/2 649/3/2 652/3/2
f 652/3/2 649/3/2 653/3/2
f 650/2/2 651/2/2 654/2/2
f 654/2/2 651/2/2 655/2/2
f 652/2/2 653/2/2 656/2/2
f 656/2/2 653/2/2 657/2/2
f 658/3/2 659/3/2 660/3/2
f 656/3/2 657/3/2 661/3/2
f 658/3/2 660/3/2 662/3/2
f 660/3/2 661/3/2 662/3/2
f 662/3/2 661/3/2 663/3/2
f 654/3/2 655/3/2 664/3/2
f 664/3/2 655/3/2 665/3/2
f 658/3/2 662/3/2 666/3/2
f 666/3/2 662/3/2 667/3/2
f 663/3/2 661/3/2 668/3/2
f 668/3/2 661/3/2 669/3/2
f 666/3/2 667/3/2 670/3/2
f 667/3/2 668/3/2 670/3/2
f 665/3/2 666/3/2 670/3/2
f 670/3/2 668/3/2 671/3/2
f 669/3/2 661/3/2 672/3/2
f 671/3/2 672/3/2 673/3/2
f 672/3/2 661/3/2 674/3/2
f 673/3/2 672/3/2 674/3/2
f 661/3/2 657/3/2 674/3/2
f 675/3/2 676/3/2 677/3/2
f 677/3/2 676/3/2 678/3/2
f 679/2/2 680/2/2 682/2/2
f 680/1/2 681/1/2 683/1/2
f 682/2/2 680/2/2 683/2/2
f 683/1/2 681/1/2 684/1/2
f 682/3/2 683/3/2 685/3/2
f 683/3/2 684/3/2 685/3/2
f 685/3/2 684/3/2 686/3/2
f 686/3/2 684/3/2 687/3/2
f 685/2/2 686/2/2 688/2/2
f 686/1/2 687/1/2 689/1/2
f 688/2/2 686/2/2 689/2/2
f 689/1/2 687/1/2 690/1/2
f 688/3/2 689/3/2 691/3/2
f 689/3/2 690/3/2 691/3/2
f 691/3/2 690/3/2 692/3/2
f 692/3/2 690/3/2 693/3/2
f 693/3/2 690/3/2 694/3/2
f 688/3/2 691/3/2 695/3/2
f 695/3/2 691/3/2 696/3/2
f 704/1/3 698/1/3 697/1/3
f 705/3/3 699/3/3 698/3/3
f 705/1/3 698/1/3 704/1/3
f 706/1/3 700/1/3 699/1/3
f 706/3/3 699/3/3 705/3/3
f 707/3/3 701/3/3 700/3/3
f 707/1/3 700/1/3 706/1/3
f 708/3/3 701/3/3 707/3/3
f 709/3/3 701/3/3 708/3/3
f 710/3/3 701/3/3 709/3/3
f 711/3/3 701/3/3 710/3/3
f 712/3/3 701/3/3 711/3/3
f 713/1/3 702/1/3 701/1/3
f 713/3/3 701/3/3 712/3/3
f 714/3/3 703/3/3 702/3/3
f 714/1/3 702/1/3 713/1/3
f 715/3/3 703/3/3 714/3/3
f 716/5/3 708/5/3 707/5/3
f 716/4/3 709/4/3 708/4/3
f 717/5/3 710/5/3 709/5/3
f 717/4/3 709/4/3 716/4/3
f 718/5/3 710/5/3 717/5/3
f 719/5/3 710/5/3 718/5/3
f 720/4/3 712/4/3 711/4/3
f 721/5/3 713/5/3 712/5/3
f 721/4/3 712/4/3 720/4/3
f 722/5/3 715/5/3 714/5/3
f 722/4/3 714/4/3 713/4/3
f 723/5/3 715/5/3 722/5/3
f 724/5/3 716/5/3 707/5/3
f 724/5/3 717/5/3 716/5/3
f 724/5/3 718/5/3 717/5/3
f 725/5/3 718/5/3 724/5/3
f 726/5/3 718/5/3 725/5/3
f 727/4/3 719/4/3 718/4/3
f 727/5/3 718/5/3 726/5/3
f 728/5/3 721/5/3 720/5/3
f 729/5/3 721/5/3 728/5/3
f 730/5/3 713/5/3 721/5/3
f 730/5/3 721/5/3 729/5/3
f 731/4/3 722/4/3 713/4/3
f 731/5/3 713/5/3 730/5/3
f 732/4/3 722/4/3 731/4/3
f 733/4/3 705/4/3 704/4/3
f 734/5/3 706/5/3 705/5/3
f 734/4/3 705/4/3 733/4/3
f 735/4/3 707/4/3 706/4/3
f 735/5/3 706/5/3 734/5/3
f 736/5/3 724/5/3 707/5/3
f 736/4/3 707/4/3 735/4/3
f 737/4/3 725/4/3 724/4/3
f 737/5/3 724/5/3 736/5/3
f 738/5/3 726/5/3 725/5/3
f 738/4/3 725/4/3 737/4/3
f 739/4/3 727/4/3 726/4/3
f 739/5/3 726/5/3 738/5/3
f 740/4/3 719/4/3 727/4/3
f 740/4/3 727/4/3 739/4/3
f 741/4/3 730/4/3 729/4/3
f 742/4/3 730/4/3 741/4/3
f 743/5/3 731/5/3 730/5/3
f 743/4/3 730/4/3 742/4/3
f 744/5/3 731/5/3 743/5/3
f 745/2/3 734/2/3 733/2/3
f 746/3/3 735/3/3 734/3/3
f 746/2/3 734/2/3 745/2/3
f 747/2/3 736/2/3 735/2/3
f 747/3/3 735/3/3 746/3/3
f 748/3/3 737/3/3 736/3/3
f 748/2/3 736/2/3 747/2/3
f 748/3/3 739/3/3 738/3/3
f 748/3/3 740/3/3 739/3/3
f 748/3/3 738/3/3 737/3/3
f 749/3/3 740/3/3 748/3/3
f 750/3/3 742/3/3 741/3/3
f 751/3/3 742/3/3 750/3/3
f 752/3/3 744/3/3 743/3/3
f 753/3/3 744/3/3 752/3/3
f 761/2/3 755/2/3 754/2/3
f 762/3/3 756/3/3 755/3/3
f 762/2/3 755/2/3 761/2/3
f 763/2/3 757/2/3 756/2/3
f 763/3/3 756/3/3 762/3/3
f 764/3/3 758/3/3 757/3/3
f 764/2/3 757/2/3 763/2/3
f 765/2/3 759/2/3 758/2/3
f 765/3/3 758/3/3 764/3/3
f 766/3/3 760/3/3 759/3/3
f 766/2/3 759/2/3 765/2/3
f 767/3/3 760/3/3 766/3/3
f 770/3/3 769/3/3 768/3/3
f 771/3/3 769/3/3 770/3/3
f 775/3/3 771/3/3 770/3/3
f 778/3/3 773/3/3 772/3/3
f 779/3/3 776/3/3 775/3/3
f 779/3/3 775/3/3 770/3/3
f 780/3/3 776/3/3 779/3/3
f 783/6/3 778/6/3 777/6/3
f 788/3/3 780/3/3 779/3/3
f 789/3/3 780/3/3 788/3/3
f 790/3/3 782/3/3 781/3/3
f 791/3/3 782/3/3 790/3/3
f 793/6/3 778/6/3 783/6/3
f 794/3/3 773/3/3 778/3/3
f 794/6/3 778/6/3 793/6/3
f 795/6/3 774/6/3 773/6/3
f 795/3/3 773/3/3 794/3/3
f 796/6/3 774/6/3 795/6/3
f 797/3/3 793/3/3 792/3/3
f 798/3/3 793/3/3 797/3/3
f 799/1/3 785/1/3 784/1/3
f 800/3/3 786/3/3 785/3/3
f 800/1/3 785/1/3 799/1/3
f 801/1/3 787/1/3 786/1/3
f 801/3/3 786/3/3 800/3/3
f 802/3/3 788/3/3 787/3/3
f 802/1/3 787/1/3 801/1/3
f 803/3/3 788/3/3 802/3/3
f 804/3/3 790/3/3 789/3/3
f 805/3/3 790/3/3 804/3/3
f 814/2/3 807/2/3 806/2/3
f 815/3/3 808/3/3 807/3/3
f 815/2/3 807/2/3 814/2/3
f 816/2/3 809/2/3 808/2/3
f 816/3/3 808/3/3 815/3/3
f 817/3/3 810/3/3 809/3/3
f 817/2/3 809/2/3 816/2/3
f 818/2/3 811/2/3 810/2/3
f 818/3/3 810/3/3 817/3/3
f 819/3/3 812/3/3 811/3/3
f 819/2/3 811/2/3 818/2/3
f 820/2/3 813/2/3 812/2/3
f 820/3/3 812/3/3 819/3/3
f 821/2/3 813/2/3 820/2/3
f 824/6/3 823/6/3 822/6/3
f 825/6/3 823/6/3 824/6/3
f 828/6/3 827/6/3 826/6/3
f 829/6/3 827/6/3 828/6/3
f 837/3/3 833/3/3 832/3/3
f 838/1/3 835/1/3 834/1/3
f 839/3/3 836/3/3 835/3/3
f 839/1/3 835/1/3 838/1/3
f 840/3/3 836/3/3 839/3/3
f 845/3/3 831/3/3 830/3/3
f 846/3/3 831/3/3 845/3/3
f 847/3/3 838/3/3 837/3/3
f 847/3/3 837/3/3 832/3/3
f 848/1/3 839/1/3 838/1/3
f 848/3/3 838/3/3 847/3/3
f 849/1/3 839/1/3 848/1/3
f 850/3/3 847/3/3 846/3/3
f 851/3/3 847/3/3 850/3/3
f 854/1/3 842/1/3 841/1/3
f 855/3/3 843/3/3 842/3/3
f 855/1/3 842/1/3 854/1/3
f 856/1/3 844/1/3 843/1/3
f 856/3/3 843/3/3 855/3/3
f 857/3/3 845/3/3 844/3/3
f 857/1/3 844/1/3 856/1/3
f 858/3/3 845/3/3 857/3/3
f 859/3/3 853/3/3 852/3/3
f 860/3/3 853/3/3 859/3/3
f 869/2/3 862/2/3 861/2/3
f 870/3/3 863/3/3 862/3/3
f 870/2/3 862/2/3 869/2/3
f 871/2/3 864/2/3 863/2/3
f 871/3/3 863/3/3 870/3/3
f 872/3/3 865/3/3 864/3/3
f 872/2/3 864/2/3 871/2/3
f 873/2/3 866/2/3 865/2/3
f 873/3/3 865/3/3 872/3/3
f 874/3/3 867/3/3 866/3/3
f 874/2/3 866/2/3 873/2/3
f 875/2/3 868/2/3 867/2/3
f 875/3/3 867/3/3 874/3/3
f 876/2/3 868/2/3 875/2/3
f 879/6/3 878/6/3 877/6/3
f 880/6/3 878/6/3 879/6/3
f 883/6/3 882/6/3 881/6/3
f 884/6/3 882/6/3 883/6/3
f 891/3/3 886/3/3 885/3/3
f 892/3/3 886/3/3 891/3/3
f 893/3/3 888/3/3 887/3/3
f 894/3/3 890/3/3 889/3/3
f 895/3/3 890/3/3 894/3/3
f 896/3/3 890/3/3 895/3/3
f 897/6/3 891/6/3 890/6/3
f 897/3/3 890/3/3 896/3/3
f 898/6/3 891/6/3 897/6/3
f 903/3/3 893/3/3 887/3/3
f 904/3/3 893/3/3 903/3/3
f 905/3/3 895/3/3 894/3/3
f 906/3/3 895/3/3 905/3/3
f 907/2/3 900/2/3 899/2/3
f 908/3/3 901/3/3 900/3/3
f 908/2/3 900/2/3 907/2/3
f 909/2/3 902/2/3 901/2/3
f 909/3/3 901/3/3 908/3/3
f 910/3/3 903/3/3 902/3/3
f 910/2/3 902/2/3 909/2/3
f 911/3/3 903/3/3 910/3/3
f 915/4/3 913/4/3 912/4/3
f 916/5/3 914/5/3 913/5/3
f 916/4/3 913/4/3 915/4/3
f 917/5/3 914/5/3 916/5/3
f 921/4/3 919/4/3 918/4/3
f 922/5/3 920/5/3 919/5/3
f 922/4/3 919/4/3 921/4/3
f 923/5/3 920/5/3 922/5/3
f 932/2/3 925/2/3 924/2/3
f 933/3/3 926/3/3 925/3/3
f 933/2/3 925/2/3 932/2/3
f 934/2/3 927/2/3 926/2/3
f 934/3/3 926/3/3 933/3/3
f 935/3/3 928/3/3 927/3/3
f 935/2/3 927/2/3 934/2/3
f 936/2/3 929/2/3 928/2/3
f 936/3/3 928/3/3 935/3/3
f 937/3/3 930/3/3 929/3/3
f 937/2/3 929/2/3 936/2/3
f 938/2/3 931/2/3 930/2/3
f 938/3/3 930/3/3 937/3/3
f 939/2/3 931/2/3 938/2/3
f 942/6/3 941/6/3 940/6/3
f 943/6/3 941/6/3 942/6/3
f 949/6/3 945/6/3 944/6/3
f 950/3/3 946/3/3 945/3/3
f 950/6/3 945/6/3 949/6/3
f 951/3/3 946/3/3 950/3/3
f 954/3/3 948/3/3 947/3/3
f 955/3/3 948/3/3 954/3/3
f 960/3/3 953/3/3 952/3/3
f 961/3/3 953/3/3 960/3/3
f 962/2/3 957/2/3 956/2/3
f 963/3/3 958/3/3 957/3/3
f 963/2/3 957/2/3 962/2/3
f 964/2/3 959/2/3 958/2/3
f 964/3/3 958/3/3 963/3/3
f 965/3/3 960/3/3 959/3/3
f 965/2/3 959/2/3 964/2/3
f 966/3/3 960/3/3 965/3/3
f 969/6/3 968/6/3 967/6/3
f 970/6/3 968/6/3 969/6/3
f 973/6/3 972/6/3 971/6/3
f 974/6/3 972/6/3 973/6/3
f 978/3/3 976/3/3 975/3/3
f 979/6/3 977/6/3 976/6/3
f 979/3/3 976/3/3 978/3/3
f 980/6/3 977/6/3 979/6/3
f 983/6/3 982/6/3 981/6/3
f 984/6/3 982/6/3 983/6/3
f 987/3/3 986/3/3 985/3/3
f 988/3/3 986/3/3 987/3/3
f 991/6/3 990/6/3 989/6/3
f 992/6/3 990/6/3 991/6/3
f 995/6/3 994/6/3 993/6/3
f 996/6/3 994/6/3 995/6/3
f 999/6/3 998/6/3 997/6/3
f 1000/6/3 998/6/3 999/6/3
f 1003/6/3 1002/6/3 1001/6/3
f 1004/6/3 1002/6/3 1003/6/3
f 1009/6/3 1006/6/3 1005/6/3
f 1013/3/3 1008/3/3 1007/3/3
f 1014/3/3 1008/3/3 1013/3/3
f 1015/6/3 1006/6/3 1009/6/3
f 1016/6/3 1006/6/3 1015/6/3
f 1020/3/3 1011/3/3 1010/3/3
f 1021/3/3 1011/3/3 1020/3/3
f 1022/3/3 1014/3/3 1013/3/3
f 1022/3/3 1013/3/3 1012/3/3
f 1023/3/3 1014/3/3 1022/3/3
f 1024/3/3 1018/3/3 1017/3/3
f 1025/3/3 1018/3/3 1024/3/3
f 1026/3/3 1020/3/3 1019/3/3
f 1027/3/3 1020/3/3 1026/3/3
f 1033/6/3 1029/6/3 1028/6/3
f 1034/6/3 1029/6/3 1033/6/3
f 1035/4/3 1031/4/3 1030/4/3
f 1036/5/3 1032/5/3 1031/5/3
f 1036/4/3 1031/4/3 1035/4/3
f 1037/5/3 1032/5/3 1036/5/3
f 1041/4/3 1039/4/3 1038/4/3
f 1042/5/3 1040/5/3 1039/5/3
f 1042/4/3 1039/4/3 1041/4/3
f 1043/5/3 1040/5/3 1042/5/3
f 1048/3/3 1045/3/3 1044/3/3
f 1049/3/3 1045/3/3 1048/3/3
f 1050/3/3 1047/3/3 1046/3/3
f 1051/3/3 1047/3/3 1050/3/3
f 1054/6/3 1053/6/3 1052/6/3
f 1055/6/3 1053/6/3 1054/6/3
f 1058/6/3 1057/6/3 1056/6/3
f 1059/6/3 1057/6/3 1058/6/3
f 1062/3/3 1061/3/3 1060/3/3
f 1063/3/3 1061/3/3 1062/3/3
f 1066/6/3 1065/6/3 1064/6/3
f 1067/6/3 1065/6/3 1066/6/3
f 1073/3/3 1069/3/3 1068/3/3
f 1074/3/3 1069/3/3 1073/3/3
f 1076/3/3 1071/3/3 1070/3/3
f 1077/3/3 1071/3/3 1076/3/3
f 1078/3/3 1073/3/3 1072/3/3
f 1079/3/3 1073/3/3 1078/3/3
f 1080/6/3 1076/6/3 1075/6/3
f 1081/6/3 1076/6/3 1080/6/3
f 1084/6/3 1083/6/3 1082/6/3
f 1085/6/3 1083/6/3 1084/6/3
f 1088/3/3 1087/3/3 1086/3/3
f 1089/3/3 1087/3/3 1088/3/3
f 1090/2/4 1091/2/4 1092/2/4
f 1092/2/4 1091/2/4 1093/2/4
f 1094/6/4 1095/6/4 1096/6/4
f 1096/6/4 1095/6/4 1097/6/4
f 1098/6/4 1099/6/4 1102/6/4
f 1102/6/4 1099/6/4 1103/6/4
f 1100/3/4 1101/3/4 1104/3/4
f 1104/3/4 1101/3/4 1105/3/4
f 1106/4/4 1107/4/4 1109/4/4
f 1107/5/4 1108/5/4 1110/5/4
f 1109/4/4 1107/4/4 1110/4/4
f 1110/5/4 1108/5/4 1111/5/4
f 1112/6/4 1113/6/4 1114/6/4
f 1114/6/4 1113/6/4 1115/6/4
f 1119/3/4 1120/3/4 1121/3/4
f 1121/3/4 1120/3/4 1122/3/4
f 1116/4/4 1117/4/4 1123/4/4
f 1117/5/4 1118/5/4 1124/5/4
f 1123/4/4 1117/4/4 1124/4/4
f 1124/5/4 1118/5/4 1125/5/4
f 1126/3/4 1127/3/4 1128/3/4
f 1128/3/4 1127/3/4 1129/3/4
f 1130/6/4 1131/6/4 1132/6/4
f 1132/6/4 1131/6/4 1133/6/4
f 1134/6/4 1135/6/4 1136/6/4
f 1136/6/4 1135/6/4 1137/6/4
f 1138/6/4 1139/6/4 1140/6/4
f 1140/6/4 1139/6/4 1141/6/4
f 1142/6/4 1143/6/4 1146/6/4
f 1146/6/4 1143/6/4 1147/6/4
f 1144/6/4 1145/6/4 1149/6/4
f 1148/3/4 1149/3/4 1152/3/4
f 1149/6/4 1145/6/4 1153/6/4
f 1152/3/4 1149/3/4 1153/3/4
f 1153/6/4 1145/6/4 1154/6/4
f 1150/3/4 1151/3/4 1155/3/4
f 1155/3/4 1151/3/4 1156/3/4
f 1157/6/4 1158/6/4 1159/6/4
f 1159/6/4 1158/6/4 1160/6/4
f 1161/6/4 1162/6/4 1163/6/4
f 1163/6/4 1162/6/4 1164/6/4
f 1165/3/4 1166/3/4 1168/3/4
f 1168/3/4 1166/3/4 1169/3/4
f 1167/3/4 1168/3/4 1170/3/4
f 1170/3/4 1168/3/4 1171/3/4
f 1172/6/4 1173/6/4 1174/6/4
f 1174/6/4 1173/6/4 1175/6/4
f 1176/3/4 1177/3/4 1178/3/4
f 1178/3/4 1177/3/4 1179/3/4
f 1180/1/4 1181/1/4 1182/1/4
f 1182/1/4 1181/1/4 1183/1/4
f 1184/6/4 1185/6/4 1186/6/4
f 1186/6/4 1185/6/4 1187/6/4
f 1188/6/4 1189/6/4 1190/6/4
f 1190/6/4 1189/6/4 1191/6/4
f 1192/3/4 1193/3/4 1196/3/4
f 1196/3/4 1193/3/4 1197/3/4
f 1194/3/4 1195/3/4 1198/3/4
f 1198/3/4 1195/3/4 1199/3/4
f 1200/1/4 1201/1/4 1207/1/4
f 1201/3/4 1202/3/4 1208/3/4
f 1207/1/4 1201/1/4 1208/1/4
f 1202/1/4 1203/1/4 1209/1/4
f 1208/3/4 1202/3/4 1209/3/4
f 1203/3/4 1204/3/4 1210/3/4
f 1209/1/4 1203/1/4 1210/1/4
f 1204/1/4 1205/1/4 1211/1/4
f 1210/3/4 1204/3/4 1211/3/4
f 1205/3/4 1206/3/4 1212/3/4
f 1211/1/4 1205/1/4 1212/1/4
f 1212/3/4 1206/3/4 1213/3/4
f 1214/6/4 1215/6/4 1216/6/4
f 1216/6/4 1215/6/4 1217/6/4
f 1218/3/4 1219/3/4 1223/3/4
f 1223/3/4 1219/3/4 1224/3/4
f 1220/6/4 1221/6/4 1225/6/4
f 1225/6/4 1221/6/4 1226/6/4
f 1223/3/4 1224/3/4 1227/3/4
f 1222/3/4 1223/3/4 1227/3/4
f 1227/3/4 1224/3/4 1228/3/4
f 1228/3/4 1224/3/4 1229/3/4
f 1227/3/4 1228/3/4 1235/3/4
f 1235/3/4 1228/3/4 1236/3/4
f 1230/1/4 1231/1/4 1237/1/4
f 1231/3/4 1232/3/4 1238/3/4
f 1237/1/4 1231/1/4 1238/1/4
f 1232/1/4 1233/1/4 1239/1/4
f 1238/3/4 1232/3/4 1239/3/4
f 1233/3/4 1234/3/4 1240/3/4
f 1239/1/4 1233/1/4 1240/1/4
f 1240/3/4 1234/3/4 1241/3/4
f 1243/5/4 1244/5/4 1245/5/4
f 1242/4/4 1243/4/4 1246/4/4
f 1243/5/4 1245/5/4 1247/5/4
f 1246/4/4 1243/4/4 1247/4/4
f 1247/5/4 1245/5/4 1248/5/4
f 1249/6/4 1250/6/4 1254/6/4
f 1254/6/4 1250/6/4 1255/6/4
f 1251/4/4 1252/4/4 1256/4/4
f 1252/5/4 1253/5/4 1257/5/4
f 1256/4/4 1252/4/4 1257/4/4
f 1257/5/4 1253/5/4 1258/5/4
f 1259/1/4 1260/1/4 1267/1/4
f 1260/3/4 1261/3/4 1268/3/4
f 1267/1/4 1260/1/4 1268/1/4
f 1261/1/4 1262/1/4 1269/1/4
f 1268/3/4 1261/3/4 1269/3/4
f 1262/3/4 1263/3/4 1270/3/4
f 1269/1/4 1262/1/4 1270/1/4
f 1263/1/4 1264/1/4 1271/1/4
f 1270/3/4 1263/3/4 1271/3/4
f 1264/3/4 1265/3/4 1272/3/4
f 1271/1/4 1264/1/4 1272/1/4
f 1265/1/4 1266/1/4 1273/1/4
f 1272/3/4 1265/3/4 1273/3/4
f 1273/1/4 1266/1/4 1274/1/4
f 1275/6/4 1276/6/4 1277/6/4
f 1277/6/4 1276/6/4 1278/6/4
f 1281/3/4 1282/3/4 1285/3/4
f 1285/3/4 1282/3/4 1286/3/4
f 1286/3/4 1282/3/4 1287/3/4
f 1283/3/4 1284/3/4 1288/3/4
f 1288/3/4 1284/3/4 1289/3/4
f 1279/3/4 1280/3/4 1294/3/4
f 1294/3/4 1280/3/4 1295/3/4
f 1287/6/4 1288/6/4 1296/6/4
f 1296/6/4 1288/6/4 1297/6/4
f 1290/2/4 1291/2/4 1298/2/4
f 1291/3/4 1292/3/4 1299/3/4
f 1298/2/4 1291/2/4 1299/2/4
f 1292/2/4 1293/2/4 1300/2/4
f 1299/3/4 1292/3/4 1300/3/4
f 1293/3/4 1294/3/4 1301/3/4
f 1300/2/4 1293/2/4 1301/2/4
f 1301/3/4 1294/3/4 1302/3/4
f 1303/1/4 1304/1/4 1311/1/4
f 1304/3/4 1305/3/4 1312/3/4
f 1311/1/4 1304/1/4 1312/1/4
f 1305/1/4 1306/1/4 1313/1/4
f 1312/3/4 1305/3/4 1313/3/4
f 1306/3/4 1307/3/4 1314/3/4
f 1313/1/4 1306/1/4 1314/1/4
f 1307/1/4 1308/1/4 1315/1/4
f 1314/3/4 1307/3/4 1315/3/4
f 1308/3/4 1309/3/4 1316/3/4
f 1315/1/4 1308/1/4 1316/1/4
f 1309/1/4 1310/1/4 1317/1/4
f 1316/3/4 1309/3/4 1317/3/4
f 1317/1/4 1310/1/4 1318/1/4
f 1319/6/4 1320/6/4 1321/6/4
f 1321/6/4 1320/6/4 1322/6/4
f 1323/3/4 1324/3/4 1329/3/4
f 1329/3/4 1324/3/4 1330/3/4
f 1325/3/4 1326/3/4 1331/3/4
f 1326/6/4 1327/6/4 1332/6/4
f 1331/3/4 1326/3/4 1332/3/4
f 1332/6/4 1327/6/4 1333/6/4
f 1328/3/4 1329/3/4 1338/3/4
f 1338/3/4 1329/3/4 1339/3/4
f 1330/3/4 1324/3/4 1340/3/4
f 1340/3/4 1324/3/4 1341/3/4
f 1331/3/4 1332/3/4 1343/3/4
f 1343/3/4 1332/3/4 1344/3/4
f 1339/3/4 1340/3/4 1345/3/4
f 1342/1/4 1343/1/4 1347/1/4
f 1347/1/4 1343/1/4 1348/1/4
f 1334/1/4 1335/1/4 1349/1/4
f 1335/3/4 1336/3/4 1350/3/4
f 1349/1/4 1335/1/4 1350/1/4
f 1336/1/4 1337/1/4 1351/1/4
f 1350/3/4 1336/3/4 1351/3/4
f 1337/3/4 1338/3/4 1352/3/4
f 1351/1/4 1337/1/4 1352/1/4
f 1352/3/4 1338/3/4 1353/3/4
f 1345/3/4 1346/3/4 1354/3/4
f 1339/3/4 1345/3/4 1354/3/4
f 1354/3/4 1346/3/4 1355/3/4
f 1356/2/4 1357/2/4 1364/2/4
f 1357/3/4 1358/3/4 1365/3/4
f 1364/2/4 1357/2/4 1365/2/4
f 1358/2/4 1359/2/4 1366/2/4
f 1365/3/4 1358/3/4 1366/3/4
f 1359/3/4 1360/3/4 1367/3/4
f 1366/2/4 1359/2/4 1367/2/4
f 1367/3/4 1360/3/4 1368/3/4
f 1368/3/4 1360/3/4 1369/3/4
f 1360/2/4 1361/2/4 1370/2/4
f 1369/3/4 1360/3/4 1370/3/4
f 1361/3/4 1362/3/4 1371/3/4
f 1370/2/4 1361/2/4 1371/2/4
f 1362/2/4 1363/2/4 1372/2/4
f 1371/3/4 1362/3/4 1372/3/4
f 1372/2/4 1363/2/4 1373/2/4
f 1368/3/4 1369/3/4 1374/3/4
f 1374/3/4 1369/3/4 1375/3/4
f 1371/3/4 1372/3/4 1376/3/4
f 1372/6/4 1373/6/4 1377/6/4
f 1376/3/4 1372/3/4 1377/3/4
f 1377/6/4 1373/6/4 1378/6/4
f 1374/3/4 1375/3/4 1379/3/4
f 1376/3/4 1377/3/4 1380/3/4
f 1379/3/4 1375/3/4 1382/3/4
f 1382/3/4 1375/3/4 1383/3/4
f 1376/3/4 1380/3/4 1384/3/4
f 1382/3/4 1383/3/4 1389/3/4
f 1389/3/4 1383/3/4 1390/3/4
f 1384/3/4 1380/3/4 1392/3/4
f 1380/6/4 1381/6/4 1393/6/4
f 1392/3/4 1380/3/4 1393/3/4
f 1393/6/4 1381/6/4 1394/6/4
f 1385/2/4 1386/2/4 1395/2/4
f 1386/3/4 1387/3/4 1396/3/4
f 1395/2/4 1386/2/4 1396/2/4
f 1387/2/4 1388/2/4 1397/2/4
f 1396/3/4 1387/3/4 1397/3/4
f 1388/3/4 1389/3/4 1398/3/4
f 1397/2/4 1388/2/4 1398/2/4
f 1398/3/4 1389/3/4 1399/3/4
f 1399/3/4 1389/3/4 1400/3/4
f 1391/2/4 1392/2/4 1402/2/4
f 1390/3/4 1391/3/4 1402/3/4
f 1402/2/4 1392/2/4 1403/2/4
f 1395/1/4 1396/1/4 1404/1/4
f 1396/3/4 1397/3/4 1405/3/4
f 1404/1/4 1396/1/4 1405/1/4
f 1397/1/4 1398/1/4 1406/1/4
f 1405/3/4 1397/3/4 1406/3/4
f 1398/3/4 1399/3/4 1407/3/4
f 1406/1/4 1398/1/4 1407/1/4
f 1407/3/4 1399/3/4 1408/3/4
f 1400/3/4 1401/3/4 1409/3/4
f 1409/3/4 1401/3/4 1410/3/4
f 1390/3/4 1402/3/4 1411/3/4
f 1402/1/4 1403/1/4 1412/1/4
f 1411/3/4 1402/3/4 1412/3/4
f 1412/1/4 1403/1/4 1413/1/4
f 1414/1/4 1415/1/4 1422/1/4
f 1415/3/4 1416/3/4 1423/3/4
f 1422/1/4 1415/1/4 1423/1/4
f 1416/1/4 1417/1/4 1424/1/4
f 1423/3/4 1416/3/4 1424/3/4
f 1417/3/4 1418/3/4 1425/3/4
f 1424/1/4 1417/1/4 1425/1/4
f 1425/3/4 1418/3/4 1426/3/4
f 1426/3/4 1418/3/4 1427/3/4
f 1427/3/4 1418/3/4 1428/3/4
f 1428/3/4 1418/3/4 1429/3/4
f 1429/3/4 1418/3/4 1430/3/4
f 1419/3/4 1420/3/4 1431/3/4
f 1420/1/4 1421/1/4 1432/1/4
f 1431/3/4 1420/3/4 1432/3/4
f 1432/1/4 1421/1/4 1433/1/4
f 1425/5/4 1426/5/4 1434/5/4
f 1426/4/4 1427/4/4 1435/4/4
f 1434/5/4 1426/5/4 1435/5/4
f 1428/4/4 1429/4/4 1436/4/4
f 1429/5/4 1430/5/4 1437/5/4
f 1436/4/4 1429/4/4 1437/4/4
f 1437/5/4 1430/5/4 1438/5/4
f 1438/5/4 1430/5/4 1439/5/4
f 1425/5/4 1434/5/4 1440/5/4
f 1434/4/4 1435/4/4 1440/4/4
f 1440/4/4 1435/4/4 1441/4/4
f 1428/4/4 1436/4/4 1442/4/4
f 1436/5/4 1437/5/4 1442/5/4
f 1437/5/4 1438/5/4 1442/5/4
f 1442/5/4 1438/5/4 1443/5/4
f 1422/4/4 1423/4/4 1444/4/4
f 1423/5/4 1424/5/4 1445/5/4
f 1444/4/4 1423/4/4 1445/4/4
f 1424/4/4 1425/4/4 1446/4/4
f 1445/5/4 1424/5/4 1446/5/4
f 1440/5/4 1441/5/4 1447/5/4
f 1446/4/4 1425/4/4 1447/4/4
f 1425/5/4 1440/5/4 1447/5/4
f 1441/4/4 1435/4/4 1448/4/4
f 1447/5/4 1441/5/4 1448/5/4
f 1427/5/4 1428/5/4 1449/5/4
f 1448/4/4 1435/4/4 1449/4/4
f 1435/4/4 1427/4/4 1449/4/4
f 1428/4/4 1442/4/4 1450/4/4
f 1449/5/4 1428/5/4 1450/5/4
f 1442/4/4 1443/4/4 1450/4/4
f 1443/5/4 1438/5/4 1451/5/4
f 1450/4/4 1443/4/4 1451/4/4
f 1438/4/4 1439/4/4 1452/4/4
f 1451/5/4 1438/5/4 1452/5/4
f 1452/4/4 1439/4/4 1453/4/4
f 1431/5/4 1432/5/4 1454/5/4
f 1432/4/4 1433/4/4 1455/4/4
f 1454/5/4 1432/5/4 1455/5/4
f 1455/4/4 1433/4/4 1456/4/4
f 1444/2/4 1445/2/4 1457/2/4
f 1445/3/4 1446/3/4 1458/3/4
f 1457/2/4 1445/2/4 1458/2/4
f 1446/2/4 1447/2/4 1459/2/4
f 1458/3/4 1446/3/4 1459/3/4
f 1449/3/4 1450/3/4 1460/3/4
f 1459/2/4 1447/2/4 1460/2/4
f 1452/3/4 1453/3/4 1460/3/4
f 1447/3/4 1448/3/4 1460/3/4
f 1448/3/4 1449/3/4 1460/3/4
f 1451/3/4 1452/3/4 1460/3/4
f 1450/3/4 1451/3/4 1460/3/4
f 1460/3/4 1453/3/4 1461/3/4
f 1454/3/4 1455/3/4 1462/3/4
f 1455/2/4 1456/2/4 1463/2/4
f 1462/3/4 1455/3/4 1463/3/4
f 1463/2/4 1456/2/4 1464/2/4
f 1469/4/5 1466/4/5 1465/4/5
f 1470/4/5 1466/4/5 1469/4/5
f 1471/4/5 1468/4/5 1467/4/5
f 1472/4/5 1468/4/5 1471/4/5
f 1477/4/5 1474/4/5 1473/4/5
f 1478/4/5 1474/4/5 1477/4/5
f 1479/4/5 1476/4/5 1475/4/5
f 1480/4/5 1476/4/5 1479/4/5
f 1486/1/5 1482/1/5 1481/1/5
f 1487/4/5 1483/4/5 1482/4/5
f 1487/1/5 1482/1/5 1486/1/5
f 1488/2/5 1484/2/5 1483/2/5
f 1488/4/5 1483/4/5 1487/4/5
f 1489/2/5 1484/2/5 1488/2/5
f 1492/2/5 1486/2/5 1485/2/5
f 1493/6/5 1487/6/5 1486/6/5
f 1493/6/5 1488/6/5 1487/6/5
f 1493/2/5 1486/2/5 1492/2/5
f 1493/6/5 1489/6/5 1488/6/5
f 1494/1/5 1490/1/5 1489/1/5
f 1497/2/5 1492/2/5 1491/2/5
f 1498/6/5 1493/6/5 1492/6/5
f 1498/2/5 1492/2/5 1497/2/5
f 1499/1/5 1495/1/5 1494/1/5
f 1499/6/5 1493/6/5 1498/6/5
f 1499/6/5 1489/6/5 1493/6/5
f 1499/1/5 1494/1/5 1489/1/5
f 1500/1/5 1495/1/5 1499/1/5
f 1502/6/5 1498/6/5 1497/6/5
f 1502/6/5 1499/6/5 1498/6/5
f 1502/6/5 1500/6/5 1499/6/5
f 1503/6/5 1500/6/5 1502/6/5
f 1504/6/5 1500/6/5 1503/6/5
f 1505/2/5 1501/2/5 1500/2/5
f 1505/6/5 1500/6/5 1504/6/5
f 1507/2/5 1497/2/5 1496/2/5
f 1508/6/5 1502/6/5 1497/6/5
f 1508/2/5 1497/2/5 1507/2/5
f 1509/2/5 1501/2/5 1505/2/5
f 1510/2/5 1501/2/5 1509/2/5
f 1512/6/5 1502/6/5 1508/6/5
f 1512/6/5 1508/6/5 1507/6/5
f 1513/6/5 1504/6/5 1503/6/5
f 1514/6/5 1504/6/5 1513/6/5
f 1515/6/5 1510/6/5 1509/6/5
f 1516/2/5 1511/2/5 1510/2/5
f 1516/6/5 1510/6/5 1515/6/5
f 1517/2/5 1511/2/5 1516/2/5
f 1518/2/5 1507/2/5 1506/2/5
f 1519/6/5 1512/6/5 1507/6/5
f 1519/2/5 1507/2/5 1518/2/5
f 1519/6/5 1515/6/5 1514/6/5
f 1519/6/5 1514/6/5 1513/6/5
f 1519/6/5 1516/6/5 1515/6/5
f 1519/6/5 1513/6/5 1512/6/5
f 1520/6/5 1516/6/5 1519/6/5
f 1521/6/5 1516/6/5 1520/6/5
f 1522/6/5 1516/6/5 1521/6/5
f 1523/6/5 1516/6/5 1522/6/5
f 1524/1/5 1519/1/5 1518/1/5
f 1525/6/5 1520/6/5 1519/6/5
f 1525/1/5 1519/1/5 1524/1/5
f 1526/6/5 1520/6/5 1525/6/5
f 1527/6/5 1516/6/5 1523/6/5
f 1528/1/5 1517/1/5 1516/1/5
f 1528/6/5 1516/6/5 1527/6/5
f 1529/1/5 1517/1/5 1528/1/5
f 1530/2/5 1526/2/5 1525/2/5
f 1531/6/5 1520/6/5 1526/6/5
f 1531/2/5 1526/2/5 1530/2/5
f 1532/6/5 1520/6/5 1531/6/5
f 1534/6/5 1522/6/5 1521/6/5
f 1535/6/5 1522/6/5 1534/6/5
f 1536/2/5 1528/2/5 1527/2/5
f 1537/1/5 1533/1/5 1532/1/5
f 1537/1/5 1531/1/5 1530/1/5
f 1537/1/5 1532/1/5 1531/1/5
f 1538/1/5 1533/1/5 1537/1/5
f 1539/6/5 1536/6/5 1535/6/5
f 1539/6/5 1535/6/5 1534/6/5
f 1539/6/5 1534/6/5 1533/6/5
f 1540/2/5 1528/2/5 1536/2/5
f 1540/6/5 1536/6/5 1539/6/5
f 1541/2/5 1528/2/5 1540/2/5
f 1542/1/5 1533/1/5 1538/1/5
f 1543/6/5 1539/6/5 1533/6/5
f 1543/1/5 1533/1/5 1542/1/5
f 1544/6/5 1539/6/5 1543/6/5
f 1545/6/5 1539/6/5 1544/6/5
f 1546/1/5 1540/1/5 1539/1/5
f 1546/6/5 1539/6/5 1545/6/5
f 1547/1/5 1540/1/5 1546/1/5
f 1548/1/5 1540/1/5 1547/1/5
f 1549/2/5 1544/2/5 1543/2/5
f 1550/6/5 1545/6/5 1544/6/5
f 1550/2/5 1544/2/5 1549/2/5
f 1551/6/5 1545/6/5 1550/6/5
f 1552/6/5 1545/6/5 1551/6/5
f 1553/2/5 1546/2/5 1545/2/5
f 1553/6/5 1545/6/5 1552/6/5
f 1554/1/5 1547/1/5 1546/1/5
f 1554/2/5 1546/2/5 1553/2/5
f 1555/1/5 1547/1/5 1554/1/5
f 1556/1/5 1551/1/5 1550/1/5
f 1557/4/5 1552/4/5 1551/4/5
f 1557/1/5 1551/1/5 1556/1/5
f 1558/2/5 1553/2/5 1552/2/5
f 1558/4/5 1552/4/5 1557/4/5
f 1559/2/5 1553/2/5 1558/2/5
f 1562/3/5 1561/3/5 1560/3/5
f 1563/3/5 1561/3/5 1562/3/5
f 1567/4/5 1565/4/5 1564/4/5
f 1568/5/5 1566/5/5 1565/5/5
f 1568/4/5 1565/4/5 1567/4/5
f 1569/5/5 1566/5/5 1568/5/5
f 1572/3/5 1571/3/5 1570/3/5
f 1573/3/5 1571/3/5 1572/3/5
f 1577/4/5 1575/4/5 1574/4/5
f 1578/3/5 1576/3/5 1575/3/5
f 1578/4/5 1575/4/5 1577/4/5
f 1579/3/5 1576/3/5 1578/3/5
f 1581/3/5 1580/3/5 1579/3/5
f 1582/3/5 1580/3/5 1581/3/5
f 1584/3/5 1583/3/5 1582/3/5
f 1585/3/5 1583/3/5 1584/3/5
f 1588/3/5 1587/3/5 1586/3/5
f 1589/3/5 1587/3/5 1588/3/5
f 1593/3/5 1591/3/5 1590/3/5
f 1593/3/5 1592/3/5 1591/3/5
f 1594/3/5 1592/3/5 1593/3/5
f 1595/3/5 1592/3/5 1594/3/5
f 1599/3/5 1597/3/5 1596/3/5
f 1600/3/5 1597/3/5 1599/3/5
f 1601/3/5 1599/3/5 1598/3/5
f 1602/3/5 1599/3/5 1601/3/5
f 1605/3/5 1604/3/5 1603/3/5
f 1606/3/5 1604/3/5 1605/3/5
f 1609/3/5 1608/3/5 1607/3/5
f 1610/3/5 1608/3/5 1609/3/5
f 1613/3/5 1612/3/5 1611/3/5
f 1614/3/5 1612/3/5 1613/3/5
f 1617/3/5 1616/3/5 1615/3/5
f 1618/3/5 1616/3/5 1617/3/5
f 1624/3/5 1620/3/5 1619/3/5
f 1625/3/5 1620/3/5 1624/3/5
f 1626/3/5 1622/3/5 1621/3/5
f 1627/5/5 1623/5/5 1622/5/5
f 1627/3/5 1622/3/5 1626/3/5
f 1628/3/5 1624/3/5 1623/3/5
f 1628/5/5 1623/5/5 1627/5/5
f 1629/3/5 1624/3/5 1628/3/5
f 1632/6/5 1631/6/5 1630/6/5
f 1633/6/5 1631/6/5 1632/6/5
f 1637/6/5 1635/6/5 1634/6/5
f 1638/6/5 1635/6/5 1637/6/5
f 1639/1/5 1637/1/5 1636/1/5
f 1640/1/5 1637/1/5 1639/1/5
f 1643/6/5 1642/6/5 1641/6/5
f 1644/6/5 1642/6/5 1643/6/5
f 1645/3/6 1646/3/6 1647/3/6
f 1647/3/6 1646/3/6 1648/3/6
f 1649/3/6 1650/3/6 1651/3/6
f 1651/3/6 1650/3/6 1652/3/6
f 1653/3/6 1654/3/6 1655/3/6
f 1655/3/6 1654/3/6 1656/3/6
f 1657/5/6 1658/5/6 1661/5/6
f 1658/4/6 1659/4/6 1662/4/6
f 1661/5/6 1658/5/6 1662/5/6
f 1659/3/6 1660/3/6 1663/3/6
f 1662/4/6 1659/4/6 1663/4/6
f 1663/3/6 1660/3/6 1664/3/6
f 1664/3/6 1665/3/6 1666/3/6
f 1666/3/6 1665/3/6 1667/3/6
f 1667/3/6 1668/3/6 1669/3/6
f 1669/3/6 1668/3/6 1670/3/6
f 1670/3/6 1671/3/6 1672/3/6
f 1672/3/6 1671/3/6 1673/3/6
f 1673/3/6 1674/3/6 1675/3/6
f 1675/3/6 1674/3/6 1676/3/6
f 1677/3/6 1678/3/6 1679/3/6
f 1679/3/6 1678/3/6 1680/3/6
f 1681/3/6 1682/3/6 1683/3/6
f 1683/3/6 1682/3/6 1684/3/6
f 1685/3/6 1686/3/6 1687/3/6
f 1687/3/6 1686/3/6 1688/3/6
f 1688/3/6 1689/3/6 1691/3/6
f 1690/3/6 1691/3/6 1692/3/6
f 1691/3/6 1689/3/6 1693/3/6
f 1692/3/6 1691/3/6 1693/3/6
f 1693/3/6 1689/3/6 1695/3/6
f 1695/3/6 1689/3/6 1696/3/6
f 1694/3/6 1695/3/6 1698/3/6
f 1698/3/6 1695/3/6 1699/3/6
f 1697/3/6 1698/3/6 1700/3/6
f 1700/3/6 1698/3/6 1701/3/6
f 1702/3/6 1703/3/6 1704/3/6
f 1704/3/6 1703/3/6 1705/3/6
f 1705/3/6 1706/3/6 1707/3/6
f 1707/3/6 1706/3/6 1708/3/6
f 1708/3/6 1709/3/6 1710/3/6
f 1710/3/6 1709/3/6 1711/3/6
f 1712/3/6 1713/3/6 1714/3/6
f 1714/3/6 1713/3/6 1715/3/6
f 1716/3/6 1717/3/6 1722/3/6
f 1722/3/6 1717/3/6 1723/3/6
f 1718/3/6 1719/3/6 1724/3/6
f 1719/5/6 1720/5/6 1725/5/6
f 1724/3/6 1719/3/6 1725/3/6
f 1720/4/6 1721/4/6 1726/4/6
f 1725/5/6 1720/5/6 1726/5/6
f 1721/3/6 1722/3/6 1727/3/6
f 1726/4/6 1721/4/6 1727/4/6
f 1727/3/6 1722/3/6 1728/3/6
f 1729/3/6 1730/3/6 1731/3/6
f 1731/3/6 1730/3/6 1732/3/6
f 1733/3/6 1734/3/6 1735/3/6
f 1735/3/6 1734/3/6 1736/3/6
f 1737/3/6 1738/3/6 1741/3/6
f 1741/3/6 1738/3/6 1742/3/6
f 1739/3/6 1740/3/6 1743/3/6
f 1743/3/6 1740/3/6 1744/3/6
f 1744/3/6 1745/3/6 1747/3/6
f 1747/3/6 1745/3/6 1748/3/6
f 1746/3/6 1747/3/6 1750/3/6
f 1750/3/6 1747/3/6 1751/3/6
f 1749/3/6 1750/3/6 1752/3/6
f 1752/3/6 1750/3/6 1753/3/6
f 1754/3/6 1755/3/6 1756/3/6
f 1756/3/6 1755/3/6 1757/3/6
f 1757/3/6 1755/3/6 1758/3/6
f 1759/3/6 1760/3/6 1761/3/6
f 1761/3/6 1760/3/6 1762/3/6
f 1763/3/6 1764/3/6 1766/3/6
f 1766/3/6 1764/3/6 1767/3/6
f 1765/3/6 1766/3/6 1768/3/6
f 1768/3/6 1766/3/6 1769/3/6
f 1770/3/6 1771/3/6 1772/3/6
f 1772/3/6 1771/3/6 1773/3/6
f 1774/3/6 1775/3/6 1776/3/6
f 1776/3/6 1775/3/6 1777/3/6
f 1778/5/6 1779/5/6 1781/5/6
f 1779/3/6 1780/3/6 1782/3/6
f 1781/5/6 1779/5/6 1782/5/6
f 1782/3/6 1780/3/6 1783/3/6
f 1783/3/6 1784/3/6 1785/3/6
f 1785/3/6 1784/3/6 1786/3/6
f 1787/3/6 1788/3/6 1789/3/6
f 1789/3/6 1788/3/6 1790/3/6
f 1791/3/6 1792/3/6 1793/3/6
f 1793/3/6 1792/3/6 1794/3/6
f 1795/3/6 1796/3/6 1797/3/6
f 1797/3/6 1796/3/6 1798/3/6
f 1799/4/6 1800/4/6 1801/4/6
f 1801/4/6 1800/4/6 1802/4/6
f 1803/1/6 1804/1/6 1805/1/6
f 1805/1/6 1804/1/6 1806/1/6
f 1806/6/6 1807/6/6 1808/6/6
f 1808/6/6 1807/6/6 1809/6/6
f 1810/6/6 1811/6/6 1813/6/6
f 1811/6/6 1812/6/6 1813/6/6
f 1813/6/6 1812/6/6 1814/6/6
f 1815/6/6 1816/6/6 1817/6/6
f 1817/6/6 1816/6/6 1818/6/6
f 1818/6/6 1819/6/6 1821/6/6
f 1821/6/6 1819/6/6 1822/6/6
f 1820/1/6 1821/1/6 1825/1/6
f 1825/1/6 1821/1/6 1826/1/6
f 1823/2/6 1824/2/6 1830/2/6
f 1824/1/6 1825/1/6 1831/1/6
f 1830/2/6 1824/2/6 1831/2/6
f 1831/1/6 1825/1/6 1832/1/6
f 1827/1/6 1828/1/6 1833/1/6
f 1828/4/6 1829/4/6 1834/4/6
f 1833/1/6 1828/1/6 1834/1/6
f 1829/2/6 1830/2/6 1835/2/6
f 1834/4/6 1829/4/6 1835/4/6
f 1835/2/6 1830/2/6 1836/2/6
f 1837/3/6 1838/3/6 1841/3/6
f 1838/5/6 1839/5/6 1842/5/6
f 1841/3/6 1838/3/6 1842/3/6
f 1842/5/6 1839/5/6 1843/5/6
f 1840/3/6 1841/3/6 1844/3/6
f 1841/3/6 1842/3/6 1844/3/6
f 1842/3/6 1843/3/6 1844/3/6
f 1844/3/6 1843/3/6 1845/3/6
f 1845/3/6 1843/3/6 1846/3/6
f 1846/3/6 1843/3/6 1847/3/6
f 1847/3/6 1843/3/6 1848/3/6
f 1844/3/6 1845/3/6 1852/3/6
f 1852/3/6 1845/3/6 1853/3/6
f 1846/3/6 1847/3/6 1854/3/6
f 1854/3/6 1847/3/6 1855/3/6
f 1849/3/6 1850/3/6 1857/3/6
f 1857/3/6 1858/3/6 1859/3/6
f 1849/3/6 1857/3/6 1859/3/6
f 1859/3/6 1858/3/6 1860/3/6
f 1860/3/6 1858/3/6 1861/3/6
f 1855/3/6 1856/3/6 1863/3/6
f 1863/3/6 1856/3/6 1864/3/6
f 1861/3/6 1862/3/6 1866/3/6
f 1860/3/6 1861/3/6 1866/3/6
f 1866/3/6 1862/3/6 1867/3/6
f 1867/3/6 1862/3/6 1868/3/6
f 1851/3/6 1852/3/6 1870/3/6
f 1870/3/6 1852/3/6 1871/3/6
f 1864/3/6 1865/3/6 1873/3/6
f 1873/3/6 1865/3/6 1874/3/6
f 1869/3/6 1870/3/6 1878/3/6
f 1874/3/6 1875/3/6 1879/3/6
f 1872/3/6 1873/3/6 1879/3/6
f 1873/3/6 1874/3/6 1879/3/6
f 1879/3/6 1875/3/6 1880/3/6
f 1880/3/6 1875/3/6 1881/3/6
f 1876/3/6 1877/3/6 1882/3/6
f 1869/3/6 1878/3/6 1884/3/6
f 1878/3/6 1879/3/6 1884/3/6
f 1884/3/6 1879/3/6 1885/3/6
f 1885/3/6 1879/3/6 1886/3/6
f 1880/3/6 1881/3/6 1887/3/6
f 1881/3/6 1882/3/6 1887/3/6
f 1887/3/6 1882/3/6 1888/3/6
f 1882/3/6 1877/3/6 1889/3/6
f 1888/3/6 1882/3/6 1889/3/6
f 1889/3/6 1877/3/6 1890/3/6
f 1884/3/6 1885/3/6 1892/3/6
f 1883/3/6 1884/3/6 1892/3/6
f 1892/3/6 1885/3/6 1893/3/6
f 1888/3/6 1889/3/6 1896/3/6
f 1891/3/6 1892/3/6 1897/3/6
f 1897/3/6 1892/3/6 1898/3/6
f 1893/3/6 1894/3/6 1899/3/6
f 1899/3/6 1894/3/6 1900/3/6
f 1895/3/6 1896/3/6 1901/3/6
f 1896/3/6 1889/3/6 1902/3/6
f 1901/3/6 1896/3/6 1902/3/6
f 1902/3/6 1889/3/6 1903/3/6
f 1901/3/6 1902/3/6 1904/3/6
f 1900/3/6 1901/3/6 1904/3/6
f 1904/3/6 1902/3/6 1905/3/6
f 1905/3/6 1902/3/6 1906/3/6
f 1906/3/6 1907/3/6 1910/3/6
f 1907/3/6 1908/3/6 1910/3/6
f 1905/3/6 1906/3/6 1910/3/6
f 1910/3/6 1908/3/6 1911/3/6
f 1911/3/6 1908/3/6 1912/3/6
f 1912/3/6 1908/3/6 1913/3/6
f 1909/3/6 1910/3/6 1915/3/6
f 1911/3/6 1912/3/6 1916/3/6
f 1916/3/6 1912/3/6 1917/3/6
f 1914/3/6 1915/3/6 1918/3/6
f 1915/3/6 1910/3/6 1919/3/6
f 1918/3/6 1915/3/6 1919/3/6
f 1920/6/6 1921/6/6 1927/6/6
f 1922/2/6 1923/2/6 1929/2/6
f 1929/2/6 1923/2/6 1930/2/6
f 1930/2/6 1923/2/6 1931/2/6
f 1924/6/6 1925/6/6 1932/6/6
f 1932/6/6 1925/6/6 1933/6/6
f 1926/6/6 1927/6/6 1934/6/6
f 1927/6/6 1921/6/6 1935/6/6
f 1934/6/6 1927/6/6 1935/6/6
f 1928/2/6 1929/2/6 1937/2/6
f 1929/6/6 1930/6/6 1938/6/6
f 1937/2/6 1929/2/6 1938/2/6
f 1935/6/6 1921/6/6 1939/6/6
f 1932/6/6 1933/6/6 1941/6/6
f 1933/6/6 1934/6/6 1941/6/6
f 1931/6/6 1932/6/6 1941/6/6
f 1939/6/6 1940/6/6 1942/6/6
f 1935/6/6 1939/6/6 1942/6/6
f 1942/6/6 1940/6/6 1943/6/6
f 1943/6/6 1940/6/6 1944/6/6
f 1938/6/6 1930/6/6 1946/6/6
f 1937/6/6 1938/6/6 1946/6/6
f 1946/6/6 1930/6/6 1947/6/6
f 1931/6/6 1941/6/6 1948/6/6
f 1941/6/6 1942/6/6 1948/6/6
f 1948/6/6 1942/6/6 1949/6/6
f 1949/6/6 1942/6/6 1950/6/6
f 1944/6/6 1945/6/6 1951/6/6
f 1943/6/6 1944/6/6 1951/6/6
f 1951/6/6 1945/6/6 1952/6/6
f 1952/6/6 1945/6/6 1953/6/6
f 1953/6/6 1945/6/6 1954/6/6
f 1936/2/6 1937/2/6 1955/2/6
f 1937/6/6 1946/6/6 1956/6/6
f 1955/2/6 1937/2/6 1956/2/6
f 1948/6/6 1949/6/6 1957/6/6
f 1947/6/6 1948/6/6 1957/6/6
f 1957/6/6 1949/6/6 1958/6/6
f 1952/6/6 1953/6/6 1960/6/6
f 1960/6/6 1953/6/6 1961/6/6
f 1956/6/6 1946/6/6 1962/6/6
f 1955/1/6 1956/1/6 1962/1/6
f 1962/6/6 1946/6/6 1963/6/6
f 1958/6/6 1959/6/6 1965/6/6
f 1965/6/6 1959/6/6 1966/6/6
f 1955/1/6 1962/1/6 1970/1/6
f 1970/1/6 1962/1/6 1971/1/6
f 1966/6/6 1967/6/6 1972/6/6
f 1965/6/6 1966/6/6 1972/6/6
f 1964/6/6 1965/6/6 1972/6/6
f 1972/6/6 1967/6/6 1973/6/6
f 1973/6/6 1967/6/6 1974/6/6
f 1974/6/6 1967/6/6 1975/6/6
f 1971/6/6 1972/6/6 1976/6/6
f 1976/6/6 1972/6/6 1977/6/6
f 1977/6/6 1972/6/6 1978/6/6
f 1973/6/6 1974/6/6 1979/6/6
f 1979/6/6 1974/6/6 1980/6/6
f 1968/6/6 1969/6/6 1982/6/6
f 1982/6/6 1969/6/6 1983/6/6
f 1983/6/6 1969/6/6 1984/6/6
f 1976/2/6 1977/2/6 1985/2/6
f 1978/6/6 1979/6/6 1986/6/6
f 1985/2/6 1977/2/6 1986/2/6
f 1977/6/6 1978/6/6 1986/6/6
f 1986/6/6 1979/6/6 1987/6/6
f 1981/6/6 1982/6/6 1989/6/6
f 1982/6/6 1983/6/6 1989/6/6
f 1989/6/6 1983/6/6 1990/6/6
f 1986/1/6 1987/1/6 1991/1/6
f 1985/1/6 1986/1/6 1991/1/6
f 1991/1/6 1987/1/6 1992/1/6
f 1987/6/6 1988/6/6 1993/6/6
f 1993/6/6 1988/6/6 1994/6/6
f 1992/1/6 1987/1/6 1996/1/6
f 1987/6/6 1993/6/6 1997/6/6
f 1996/1/6 1987/1/6 1997/1/6
f 1997/6/6 1993/6/6 1998/6/6
f 1998/6/6 1993/6/6 1999/6/6
f 1999/6/6 1993/6/6 2000/6/6
f 1994/6/6 1995/6/6 2001/6/6
f 2001/6/6 1995/6/6 2002/6/6
f 1997/2/6 1998/2/6 2003/2/6
f 1998/6/6 1999/6/6 2004/6/6
f 2003/2/6 1998/2/6 2004/2/6
f 2004/6/6 1999/6/6 2005/6/6
f 1994/6/6 2001/6/6 2006/6/6
f 2006/6/6 2001/6/6 2007/6/6
