# MagicaVoxel @ Ephtracy

# group
o 

# material
mtllib headplayeron.mtl
usemtl palette

# normals
vn -1 0 0
vn 1 0 0
vn 0 0 1
vn 0 0 -1
vn 0 -1 0
vn 0 1 0

# texcoords
vt 0.0253906 0.5
vt 0.0292969 0.5
vt 0.0410156 0.5
vt 0.0449219 0.5
vt 0.0488281 0.5
vt 0.841797 0.5
vt 0.845703 0.5
vt 0.876953 0.5
vt 0.892578 0.5
vt 0.896484 0.5
vt 0.908203 0.5
vt 0.916016 0.5
vt 0.931641 0.5
vt 0.935547 0.5
vt 0.939453 0.5
vt 0.951172 0.5
vt 0.955078 0.5
vt 0.958984 0.5
vt 0.970703 0.5
vt 0.990234 0.5
vt 0.994141 0.5

# verts
v -1.6 0 0.2
v -1.6 0 0.1
v -1.6 0 -1.4
v -1.6 0 -1.6
v -1.6 0.1 0.1
v -1.6 0.1 -1.4
v -1.6 0.1 -1.5
v -1.6 0.2 0.2
v -1.6 0.2 0.1
v -1.6 0.2 -1.1
v -1.6 0.2 -1.2
v -1.6 0.2 -1.3
v -1.6 0.2 -1.4
v -1.6 0.2 -1.5
v -1.6 0.2 -1.6
v -1.6 0.4 0.2
v -1.6 0.4 0.1
v -1.6 0.5 1.6
v -1.6 0.5 1.4
v -1.6 0.5 0.3
v -1.6 0.5 0.2
v -1.6 0.5 -1.1
v -1.6 0.5 -1.2
v -1.6 0.5 -1.3
v -1.6 0.5 -1.4
v -1.6 0.6 1.5
v -1.6 0.6 1.4
v -1.6 0.6 0.3
v -1.6 0.6 0.1
v -1.6 0.7 1.6
v -1.6 0.7 1.5
v -1.6 0.9 1.4
v -1.6 0.9 -1.4
v -1.6 1.4 1.6
v -1.6 1.4 1.5
v -1.6 2.3 1.6
v -1.6 2.3 1.5
v -1.6 3 1.6
v -1.6 3 1.5
v -1.6 3 1.4
v -1.6 3 -1.4
v -1.6 3 -1.5
v -1.6 3 -1.6
v -1.6 3.1 1.5
v -1.6 3.1 1.4
v -1.6 3.1 -1.4
v -1.6 3.1 -1.5
v -1.6 3.2 1.6
v -1.6 3.2 1.4
v -1.6 3.2 -1.4
v -1.6 3.2 -1.6
v -1.5 0.1 1.3
v -1.5 0.1 1.2
v -1.5 0.1 1.1
v -1.5 0.1 0.9
v -1.5 0.1 0.8
v -1.5 0.1 0.7
v -1.5 0.1 0.5
v -1.5 0.1 0.3
v -1.5 0.2 1
v -1.5 0.2 0.9
v -1.5 0.2 0.7
v -1.5 0.2 0.5
v -1.5 0.2 0.3
v -1.5 0.3 1.3
v -1.5 0.3 1.2
v -1.5 0.3 1.1
v -1.5 0.3 1
v -1.5 0.3 0.7
v -1.5 0.3 0.5
v -1.5 0.3 0.3
v -1.5 0.4 1.3
v -1.5 0.4 1.2
v -1.5 0.4 1.1
v -1.5 0.4 0.8
v -1.5 0.4 0.7
v -1.5 0.4 0.5
v -1.5 0.4 0.3
v -1.5 0.9 1.4
v -1.5 0.9 1.3
v -1.5 0.9 0.7
v -1.5 0.9 0
v -1.5 0.9 -0.7
v -1.5 0.9 -1.4
v -1.5 1 1.4
v -1.5 1 1.3
v -1.5 1 0.7
v -1.5 1 0
v -1.5 1 -0.7
v -1.5 1 -1.3
v -1.5 1 -1.4
v -1.5 1.1 -1.3
v -1.5 1.1 -1.4
v -1.5 1.2 -1.3
v -1.5 1.2 -1.4
v -1.5 1.4 1.4
v -1.5 1.4 1.3
v -1.5 2.9 1.3
v -1.5 2.9 -1.3
v -1.5 3 1.4
v -1.5 3 1.3
v -1.5 3 -1.4
v -1.4 0 1.4
v -1.4 0 0.2
v -1.4 0.1 1.3
v -1.4 0.1 1.2
v -1.4 0.1 1.1
v -1.4 0.1 0.9
v -1.4 0.1 0.8
v -1.4 0.1 0.7
v -1.4 0.1 0.5
v -1.4 0.1 0.3
v -1.4 0.1 0.1
v -1.4 0.1 -0.3
v -1.4 0.2 0.7
v -1.4 0.2 0.5
v -1.4 0.2 0.3
v -1.4 0.3 1.3
v -1.4 0.3 1.2
v -1.4 0.3 1.1
v -1.4 0.3 0.7
v -1.4 0.3 0.5
v -1.4 0.3 0.3
v -1.4 0.3 0.1
v -1.4 0.3 -0.1
v -1.4 0.4 1.3
v -1.4 0.4 1.2
v -1.4 0.4 1.1
v -1.4 0.4 0.8
v -1.4 0.4 0.7
v -1.4 0.4 0.5
v -1.4 0.4 0.3
v -1.4 0.4 -0.1
v -1.4 0.4 -0.3
v -1.4 0.5 1.4
v -1.4 0.5 0.2
v -1.4 0.5 0.1
v -1.4 0.5 -0.2
v -1.4 0.6 1.2
v -1.4 0.6 1.1
v -1.4 0.6 0.8
v -1.4 0.6 0.5
v -1.4 0.6 0.1
v -1.4 0.6 -0.2
v -1.4 0.7 1.2
v -1.4 0.7 1.1
v -1.4 0.7 0.8
v -1.4 0.7 0.5
v -1.1 0 1.6
v -1.1 0 1.5
v -1.1 0 1.4
v -1.1 0.1 1.6
v -1.1 0.1 1.5
v -1.1 0.5 1.6
v -1.1 0.5 1.5
v -1.1 0.5 1.4
v -0.5 0 0.4
v -0.5 0 -0.5
v -0.5 0.1 0.4
v -0.5 0.1 -0.5
v 1.2 2.9 0.6
v 1.2 2.9 0.4
v 1.2 2.9 -0.4
v 1.2 2.9 -0.6
v 1.2 3 0.6
v 1.2 3 0.4
v 1.2 3 0.3
v 1.2 3 -0.3
v 1.2 3 -0.4
v 1.2 3 -0.6
v 1.2 3.1 0.4
v 1.2 3.1 0.3
v 1.2 3.1 -0.3
v 1.2 3.1 -0.4
v 1.3 3 0.5
v 1.3 3 0.4
v 1.3 3 -0.4
v 1.3 3 -0.5
v 1.3 3.1 0.5
v 1.3 3.1 0.4
v 1.3 3.1 -0.4
v 1.3 3.1 -0.5
v -1.5 0.1 0.1
v -1.5 0.1 -0.3
v -1.5 0.3 0.1
v -1.5 0.3 -0.1
v -1.5 0.4 -0.1
v -1.5 0.4 -0.3
v -1.5 0.5 0.1
v -1.5 0.5 -0.2
v -1.5 0.6 1.2
v -1.5 0.6 1.1
v -1.5 0.6 0.8
v -1.5 0.6 0.5
v -1.5 0.6 0.1
v -1.5 0.6 -0.2
v -1.5 0.7 1.2
v -1.5 0.7 1.1
v -1.5 0.7 0.8
v -1.5 0.7 0.5
v -0.9 0 1.6
v -0.9 0 1.4
v -0.9 0 -1.4
v -0.9 0 -1.6
v -0.9 0.1 1.5
v -0.9 0.1 1.4
v -0.9 0.1 -1.4
v -0.9 0.1 -1.5
v -0.9 0.2 1.6
v -0.9 0.2 1.5
v -0.9 0.2 -1.5
v -0.9 0.2 -1.6
v -0.9 1.4 1.6
v -0.9 1.4 1.5
v -0.9 2.3 1.6
v -0.9 2.3 1.5
v -0.9 3 1.6
v -0.9 3 1.5
v -0.9 3 -1.5
v -0.9 3 -1.6
v -0.9 3.1 1.5
v -0.9 3.1 1.4
v -0.9 3.1 -1.4
v -0.9 3.1 -1.5
v -0.9 3.2 1.6
v -0.9 3.2 1.4
v -0.9 3.2 -1.4
v -0.9 3.2 -1.6
v 0 0.1 1.5
v 0 0.1 1.3
v 0 0.1 0.4
v 0 0.1 -0.5
v 0 0.1 -1.3
v 0 0.1 -1.5
v 0 0.2 1.4
v 0 0.2 1.3
v 0 0.2 0.4
v 0 0.2 -0.5
v 0 0.2 -1.3
v 0 0.2 -1.4
v 0 0.3 1.5
v 0 0.3 1.4
v 0 0.3 -1.4
v 0 0.3 -1.5
v 0 1.1 1.4
v 0 1.6 1.4
v 0 2.9 1.5
v 0 2.9 1.4
v 0 2.9 -1.4
v 0 2.9 -1.5
v 0 3 1.4
v 0 3 1.3
v 0 3 0.5
v 0 3 0.4
v 0 3 -0.4
v 0 3 -0.5
v 0 3 -1.3
v 0 3 -1.4
v 0 3.1 1.5
v 0 3.1 1.3
v 0 3.1 0.5
v 0 3.1 0.4
v 0 3.1 -0.4
v 0 3.1 -0.5
v 0 3.1 -1.3
v 0 3.1 -1.5
v 0.3 0 0.4
v 0.3 0 -0.5
v 0.3 0.1 0.3
v 0.3 0.1 -0.4
v 0.3 0.2 0.4
v 0.3 0.2 0.3
v 0.3 0.2 -0.4
v 0.3 0.2 -0.5
v 0.4 0.1 0.3
v 0.4 0.1 -0.4
v 0.4 0.2 0.3
v 0.4 0.2 -0.4
v 0.7 3 0.4
v 0.7 3 0.3
v 0.7 3 -0.3
v 0.7 3 -0.4
v 0.7 3.1 0.4
v 0.7 3.1 0.3
v 0.7 3.1 -0.3
v 0.7 3.1 -0.4
v 0.8 0.2 1.4
v 0.8 0.2 1.2
v 0.8 0.2 -1.2
v 0.8 0.2 -1.4
v 0.8 0.3 1.3
v 0.8 0.3 1.2
v 0.8 0.3 -1.2
v 0.8 0.3 -1.3
v 0.8 0.4 1.4
v 0.8 0.4 1.3
v 0.8 0.4 -1.3
v 0.8 0.4 -1.4
v 0.8 2.8 1.4
v 0.8 2.8 1.3
v 0.8 2.8 -1.3
v 0.8 2.8 -1.4
v 0.8 2.9 1.3
v 0.8 2.9 1.2
v 0.8 2.9 0.5
v 0.8 2.9 0.4
v 0.8 2.9 -0.4
v 0.8 2.9 -0.5
v 0.8 2.9 -1.2
v 0.8 2.9 -1.3
v 0.8 3 1.4
v 0.8 3 1.2
v 0.8 3 0.5
v 0.8 3 0.4
v 0.8 3 -0.4
v 0.8 3 -0.5
v 0.8 3 -1.2
v 0.8 3 -1.4
v 1 0.3 -1.2
v 1 0.3 -1.3
v 1 0.4 -1.2
v 1 0.5 -1.2
v 1 0.5 -1.3
v 1 0.8 -1.2
v 1 0.8 -1.3
v 1 0.9 -1.2
v 1 0.9 -1.3
v 1.1 0.4 1.2
v 1.1 0.4 -0.7
v 1.1 0.5 0.9
v 1.1 0.5 0.8
v 1.1 0.5 0.7
v 1.1 0.5 0.6
v 1.1 0.5 0.5
v 1.1 0.5 0.4
v 1.1 0.5 -0.9
v 1.1 0.5 -1
v 1.1 0.6 0.9
v 1.1 0.6 0.8
v 1.1 0.6 0.7
v 1.1 0.6 0.6
v 1.1 0.6 0.5
v 1.1 0.6 0.4
v 1.1 0.6 -0.8
v 1.1 0.6 -0.9
v 1.1 0.6 -1
v 1.1 0.7 1.1
v 1.1 0.7 0.7
v 1.1 0.7 0.6
v 1.1 0.7 0.5
v 1.1 0.7 0.4
v 1.1 0.7 0.3
v 1.1 0.7 0.2
v 1.1 0.7 0.1
v 1.1 0.7 0
v 1.1 0.7 -0.1
v 1.1 0.7 -0.3
v 1.1 0.7 -0.5
v 1.1 0.7 -0.8
v 1.1 0.7 -0.9
v 1.1 0.8 1.1
v 1.1 0.8 1
v 1.1 0.8 0.8
v 1.1 0.8 0.7
v 1.1 0.8 0.5
v 1.1 0.8 0.4
v 1.1 0.8 0.3
v 1.1 0.8 0.2
v 1.1 0.8 0.1
v 1.1 0.8 0
v 1.1 0.8 -0.2
v 1.1 0.8 -0.3
v 1.1 0.8 -0.5
v 1.1 0.8 -0.6
v 1.1 0.8 -0.7
v 1.1 0.8 -1.1
v 1.1 0.9 1.2
v 1.1 0.9 1.1
v 1.1 0.9 1
v 1.1 0.9 0.8
v 1.1 0.9 0.6
v 1.1 0.9 0.4
v 1.1 0.9 0.3
v 1.1 0.9 0.2
v 1.1 0.9 0.1
v 1.1 0.9 -0.1
v 1.1 0.9 -0.2
v 1.1 0.9 -0.6
v 1.1 0.9 -0.7
v 1.1 0.9 -0.8
v 1.1 0.9 -0.9
v 1.1 0.9 -1
v 1.1 0.9 -1.1
v 1.2 0.4 -0.7
v 1.2 0.4 -1
v 1.2 0.4 -1.1
v 1.2 0.5 0.9
v 1.2 0.5 0.8
v 1.2 0.5 0.7
v 1.2 0.5 0.6
v 1.2 0.5 0.5
v 1.2 0.5 0.4
v 1.2 0.5 -0.9
v 1.2 0.5 -1
v 1.2 0.5 -1.1
v 1.2 0.6 0.9
v 1.2 0.6 0.8
v 1.2 0.6 0.7
v 1.2 0.6 0.6
v 1.2 0.6 0.5
v 1.2 0.6 0.4
v 1.2 0.6 -0.8
v 1.2 0.6 -0.9
v 1.2 0.6 -1
v 1.2 0.7 1.1
v 1.2 0.7 0.7
v 1.2 0.7 0.6
v 1.2 0.7 0.5
v 1.2 0.7 0.4
v 1.2 0.7 0.3
v 1.2 0.7 0.2
v 1.2 0.7 0.1
v 1.2 0.7 0
v 1.2 0.7 -0.1
v 1.2 0.7 -0.3
v 1.2 0.7 -0.5
v 1.2 0.7 -0.8
v 1.2 0.7 -0.9
v 1.2 0.8 1.1
v 1.2 0.8 1
v 1.2 0.8 0.8
v 1.2 0.8 0.7
v 1.2 0.8 0.5
v 1.2 0.8 0.4
v 1.2 0.8 0.3
v 1.2 0.8 0.2
v 1.2 0.8 0.1
v 1.2 0.8 0
v 1.2 0.8 -0.2
v 1.2 0.8 -0.3
v 1.2 0.8 -0.5
v 1.2 0.8 -0.6
v 1.2 0.8 -0.7
v 1.2 0.8 -1.1
v 1.2 0.9 1
v 1.2 0.9 0.9
v 1.2 0.9 0.8
v 1.2 0.9 0.6
v 1.2 0.9 0.5
v 1.2 0.9 0.4
v 1.2 0.9 0.3
v 1.2 0.9 0.2
v 1.2 0.9 0.1
v 1.2 0.9 0
v 1.2 0.9 -0.1
v 1.2 0.9 -0.2
v 1.2 0.9 -0.3
v 1.2 0.9 -0.5
v 1.2 0.9 -0.6
v 1.2 2.8 1.2
v 1.2 2.8 1.1
v 1.2 2.8 1
v 1.2 2.8 0.9
v 1.2 2.8 0.8
v 1.2 2.8 0.7
v 1.2 2.8 -0.7
v 1.2 2.8 -0.8
v 1.2 2.8 -0.9
v 1.2 2.8 -1
v 1.2 2.8 -1.1
v 1.2 2.8 -1.2
v 1.2 2.9 1.2
v 1.2 2.9 1.1
v 1.2 2.9 1
v 1.2 2.9 0.9
v 1.2 2.9 0.8
v 1.2 2.9 0.7
v 1.2 2.9 -0.7
v 1.2 2.9 -0.8
v 1.2 2.9 -0.9
v 1.2 2.9 -1
v 1.2 2.9 -1.1
v 1.2 2.9 -1.2
v 1.3 0.3 1.3
v 1.3 0.3 1.1
v 1.3 0.3 -1
v 1.3 0.3 -1.2
v 1.3 0.4 1.2
v 1.3 0.4 1.1
v 1.3 0.4 -1
v 1.3 0.4 -1.1
v 1.3 0.5 1.3
v 1.3 0.5 1.2
v 1.3 0.5 -1.1
v 1.3 0.5 -1.2
v 1.3 0.8 1.3
v 1.3 0.8 1.2
v 1.3 0.9 1.3
v 1.3 0.9 1.2
v 1.3 0.9 -1.1
v 1.3 0.9 -1.2
v 1.4 0.9 1.2
v 1.4 0.9 1.1
v 1.4 0.9 1
v 1.4 0.9 0.9
v 1.4 0.9 0.8
v 1.4 0.9 0.7
v 1.4 0.9 -0.7
v 1.4 0.9 -0.8
v 1.4 0.9 -0.9
v 1.4 0.9 -1
v 1.4 0.9 -1.1
v 1.4 0.9 -1.2
v 1.4 1 0.2
v 1.4 1 0.1
v 1.4 1 -0.1
v 1.4 1 -0.2
v 1.4 1.1 -1.2
v 1.4 1.2 0.8
v 1.4 1.2 0.7
v 1.4 1.2 0.4
v 1.4 1.2 0.3
v 1.4 1.2 -0.7
v 1.4 1.2 -0.8
v 1.4 1.3 1.2
v 1.4 1.3 1.1
v 1.4 1.3 1
v 1.4 1.3 0.9
v 1.4 1.3 0.2
v 1.4 1.3 0.1
v 1.4 1.3 -0.1
v 1.4 1.3 -0.2
v 1.4 1.3 -0.3
v 1.4 1.3 -0.4
v 1.4 1.3 -0.9
v 1.4 1.3 -1
v 1.4 1.3 -1.1
v 1.4 1.3 -1.2
v 1.4 1.4 0.4
v 1.4 1.4 0.3
v 1.4 1.4 -0.3
v 1.4 1.4 -0.4
v 1.4 1.5 0.6
v 1.4 1.5 0.5
v 1.4 1.5 0.2
v 1.4 1.5 0.1
v 1.4 1.5 -0.1
v 1.4 1.5 -0.2
v 1.4 1.5 -0.5
v 1.4 1.5 -0.6
v 1.4 1.6 1.2
v 1.4 1.6 1.1
v 1.4 1.6 1
v 1.4 1.6 0.9
v 1.4 1.6 0.8
v 1.4 1.6 0.7
v 1.4 1.6 0.6
v 1.4 1.6 0.5
v 1.4 1.6 0.4
v 1.4 1.6 0.3
v 1.4 1.6 -0.3
v 1.4 1.6 -0.4
v 1.4 1.6 -0.5
v 1.4 1.6 -0.6
v 1.4 1.6 -0.7
v 1.4 1.6 -0.8
v 1.4 1.6 -0.9
v 1.4 1.6 -1
v 1.4 1.6 -1.1
v 1.4 1.6 -1.2
v 1.4 1.7 0.6
v 1.4 1.7 0.5
v 1.4 1.7 -0.5
v 1.4 1.7 -0.6
v 1.4 2 1.2
v 1.4 2 1.1
v 1.4 2 1
v 1.4 2 0.9
v 1.4 2 0.8
v 1.4 2 0.7
v 1.4 2 0.6
v 1.4 2 0.5
v 1.4 2 0.4
v 1.4 2 0.3
v 1.4 2 -0.3
v 1.4 2 -0.4
v 1.4 2 -0.5
v 1.4 2 -0.6
v 1.4 2 -0.7
v 1.4 2 -0.8
v 1.4 2 -0.9
v 1.4 2 -1
v 1.4 2 -1.1
v 1.4 2 -1.2
v 1.4 2.1 0.6
v 1.4 2.1 0.5
v 1.4 2.1 0.2
v 1.4 2.1 0.1
v 1.4 2.1 -0.1
v 1.4 2.1 -0.2
v 1.4 2.1 -0.5
v 1.4 2.1 -0.6
v 1.4 2.2 0.6
v 1.4 2.2 0.5
v 1.4 2.2 0.4
v 1.4 2.2 0.3
v 1.4 2.2 -0.3
v 1.4 2.2 -0.4
v 1.4 2.2 -0.5
v 1.4 2.2 -0.6
v 1.4 2.3 1.2
v 1.4 2.3 1.1
v 1.4 2.3 1
v 1.4 2.3 0.9
v 1.4 2.3 0.2
v 1.4 2.3 0.1
v 1.4 2.3 -0.1
v 1.4 2.3 -0.2
v 1.4 2.3 -0.9
v 1.4 2.3 -1
v 1.4 2.3 -1.1
v 1.4 2.3 -1.2
v 1.4 2.4 0.8
v 1.4 2.4 0.7
v 1.4 2.4 -0.7
v 1.4 2.4 -0.8
v 1.4 2.5 0.4
v 1.4 2.5 0.3
v 1.4 2.5 -0.3
v 1.4 2.5 -0.4
v 1.4 2.7 1.2
v 1.4 2.8 1.2
v 1.4 2.8 1.1
v 1.4 2.8 1
v 1.4 2.8 0.9
v 1.4 2.8 0.8
v 1.4 2.8 0.7
v 1.4 2.8 0.2
v 1.4 2.8 0.1
v 1.4 2.8 -0.1
v 1.4 2.8 -0.2
v 1.4 2.8 -0.7
v 1.4 2.8 -0.8
v 1.4 2.8 -0.9
v 1.4 2.8 -1
v 1.4 2.8 -1.1
v 1.4 2.8 -1.2
v 1.5 0.9 1.3
v 1.5 0.9 1.2
v 1.5 0.9 1.1
v 1.5 0.9 1
v 1.5 0.9 0.9
v 1.5 0.9 0.8
v 1.5 0.9 0.7
v 1.5 0.9 -0.7
v 1.5 0.9 -0.8
v 1.5 0.9 -0.9
v 1.5 0.9 -1
v 1.5 0.9 -1.1
v 1.5 0.9 -1.2
v 1.5 0.9 -1.3
v 1.5 1 0.2
v 1.5 1 0.1
v 1.5 1 -0.1
v 1.5 1 -0.2
v 1.5 1.1 -1.2
v 1.5 1.1 -1.3
v 1.5 1.2 0.4
v 1.5 1.2 0.3
v 1.5 1.3 -0.3
v 1.5 1.3 -0.4
v 1.5 1.5 0.6
v 1.5 1.5 0.5
v 1.5 1.5 -0.5
v 1.5 1.5 -0.6
v 1.5 2.2 0.6
v 1.5 2.2 0.5
v 1.5 2.2 -0.5
v 1.5 2.2 -0.6
v 1.5 2.5 0.4
v 1.5 2.5 0.3
v 1.5 2.5 -0.3
v 1.5 2.5 -0.4
v 1.5 2.7 1.3
v 1.5 2.7 1.2
v 1.5 2.8 0.2
v 1.5 2.8 0.1
v 1.5 2.8 -0.1
v 1.5 2.8 -0.2
v 1.5 2.9 1.3
v 1.5 2.9 1.2
v 1.5 2.9 1.1
v 1.5 2.9 1
v 1.5 2.9 0.9
v 1.5 2.9 0.8
v 1.5 2.9 0.7
v 1.5 2.9 0.6
v 1.5 2.9 -0.6
v 1.5 2.9 -0.7
v 1.5 2.9 -0.8
v 1.5 2.9 -0.9
v 1.5 2.9 -1
v 1.5 2.9 -1.1
v 1.5 2.9 -1.2
v 1.5 2.9 -1.3
v 1.5 3 0.6
v 1.5 3 0.5
v 1.5 3 -0.5
v 1.5 3 -0.6
v 1.5 3.1 0.5
v 1.5 3.1 -0.5
v -1.6 0.5 1.6
v -1.6 0.7 1.6
v -1.6 1.4 1.6
v -1.6 2.3 1.6
v -1.6 3 1.6
v -1.6 3.2 1.6
v -1.5 0.6 1.6
v -1.5 0.7 1.6
v -1.5 1.4 1.6
v -1.5 1.6 1.6
v -1.5 1.7 1.6
v -1.5 1.8 1.6
v -1.5 1.9 1.6
v -1.5 2 1.6
v -1.5 2.1 1.6
v -1.5 2.3 1.6
v -1.5 3 1.6
v -1.5 3.1 1.6
v -1.5 3.2 1.6
v -1.4 0.5 1.6
v -1.4 0.6 1.6
v -1.3 1.6 1.6
v -1.3 1.7 1.6
v -1.2 1.6 1.6
v -1.2 1.7 1.6
v -1.2 2 1.6
v -1.2 2.1 1.6
v -1.1 0 1.6
v -1.1 0.1 1.6
v -1.1 0.5 1.6
v -1.1 2 1.6
v -1.1 2.1 1.6
v -1.1 3.1 1.6
v -1.1 3.2 1.6
v -1 0.1 1.6
v -1 0.2 1.6
v -1 0.6 1.6
v -1 1.6 1.6
v -1 1.7 1.6
v -1 1.8 1.6
v -1 1.9 1.6
v -1 2 1.6
v -1 2.1 1.6
v -1 3 1.6
v -1 3.1 1.6
v -0.9 0 1.6
v -0.9 0.2 1.6
v -0.9 1.4 1.6
v -0.9 2.3 1.6
v -0.9 3 1.6
v -0.9 3.2 1.6
v -0.9 0.1 1.5
v -0.9 0.2 1.5
v -0.9 1.4 1.5
v -0.9 2.3 1.5
v -0.9 3 1.5
v -0.9 3.1 1.5
v -0.8 1.4 1.5
v -0.8 1.9 1.5
v -0.7 1.4 1.5
v -0.7 1.9 1.5
v -0.6 2.1 1.5
v -0.6 2.6 1.5
v -0.5 0.8 1.5
v -0.5 1.1 1.5
v -0.5 2.1 1.5
v -0.5 2.6 1.5
v -0.4 0.8 1.5
v -0.4 1.1 1.5
v -0.3 1.4 1.5
v -0.3 1.7 1.5
v -0.2 0.1 1.5
v -0.2 0.2 1.5
v -0.2 1.4 1.5
v -0.2 1.7 1.5
v -0.2 3 1.5
v -0.2 3.1 1.5
v -0.1 0.2 1.5
v -0.1 0.3 1.5
v -0.1 2.9 1.5
v -0.1 3 1.5
v 0 0.1 1.5
v 0 0.3 1.5
v 0 2.9 1.5
v 0 3.1 1.5
v -1.4 0 1.4
v -1.4 0.5 1.4
v -1.1 0 1.4
v -1.1 0.5 1.4
v 0 0.2 1.4
v 0 0.3 1.4
v 0 1.1 1.4
v 0 1.6 1.4
v 0 2.9 1.4
v 0 3 1.4
v 0.1 1.1 1.4
v 0.1 1.6 1.4
v 0.2 1.2 1.4
v 0.2 1.8 1.4
v 0.3 1.2 1.4
v 0.3 1.8 1.4
v 0.4 0.9 1.4
v 0.4 1.3 1.4
v 0.4 2.2 1.4
v 0.4 2.6 1.4
v 0.5 0.9 1.4
v 0.5 1.3 1.4
v 0.5 2.2 1.4
v 0.5 2.6 1.4
v 0.6 0.2 1.4
v 0.6 0.3 1.4
v 0.6 1.4 1.4
v 0.6 1.7 1.4
v 0.6 2.9 1.4
v 0.6 3 1.4
v 0.7 0.3 1.4
v 0.7 0.4 1.4
v 0.7 1.4 1.4
v 0.7 1.7 1.4
v 0.7 2.8 1.4
v 0.7 2.9 1.4
v 0.8 0.2 1.4
v 0.8 0.4 1.4
v 0.8 2.8 1.4
v 0.8 3 1.4
v -1.5 0.1 1.3
v -1.5 0.3 1.3
v -1.5 0.4 1.3
v -1.4 0.1 1.3
v -1.4 0.3 1.3
v -1.4 0.4 1.3
v 0.8 0.3 1.3
v 0.8 0.4 1.3
v 0.8 2.8 1.3
v 0.8 2.9 1.3
v 0.9 1.2 1.3
v 0.9 1.7 1.3
v 1 1.2 1.3
v 1 1.7 1.3
v 1.1 0.3 1.3
v 1.1 0.4 1.3
v 1.2 0.4 1.3
v 1.2 0.5 1.3
v 1.2 0.8 1.3
v 1.2 1 1.3
v 1.2 1.8 1.3
v 1.2 2.3 1.3
v 1.3 0.3 1.3
v 1.3 0.5 1.3
v 1.3 0.8 1.3
v 1.3 0.9 1.3
v 1.3 1.8 1.3
v 1.3 2.3 1.3
v 1.3 2.8 1.3
v 1.3 2.9 1.3
v 1.4 0.9 1.3
v 1.4 1 1.3
v 1.4 2.7 1.3
v 1.4 2.8 1.3
v 1.5 0.9 1.3
v 1.5 2.7 1.3
v 1.5 2.9 1.3
v -1.5 0.1 1.1
v -1.5 0.3 1.1
v -1.5 0.4 1.1
v -1.5 0.6 1.1
v -1.5 0.7 1.1
v -1.4 0.1 1.1
v -1.4 0.3 1.1
v -1.4 0.4 1.1
v -1.4 0.6 1.1
v -1.4 0.7 1.1
v 1.1 0.7 1.1
v 1.1 0.8 1.1
v 1.2 0.7 1.1
v 1.2 0.8 1.1
v 1.2 2.8 1.1
v 1.2 2.9 1.1
v 1.4 0.9 1.1
v 1.4 1.3 1.1
v 1.4 1.6 1.1
v 1.4 2 1.1
v 1.4 2.3 1.1
v 1.4 2.8 1.1
v 1.5 0.9 1.1
v 1.5 2.9 1.1
v 1.1 0.8 1
v 1.1 0.9 1
v 1.2 0.8 1
v 1.2 0.9 1
v 1.1 0.5 0.9
v 1.1 0.6 0.9
v 1.2 0.5 0.9
v 1.2 0.6 0.9
v 1.2 2.8 0.9
v 1.2 2.9 0.9
v 1.4 0.9 0.9
v 1.4 1.3 0.9
v 1.4 1.6 0.9
v 1.4 2 0.9
v 1.4 2.3 0.9
v 1.4 2.8 0.9
v 1.5 0.9 0.9
v 1.5 2.9 0.9
v -1.5 0.1 0.7
v -1.5 0.2 0.7
v -1.5 0.3 0.7
v -1.5 0.4 0.7
v -1.4 0.1 0.7
v -1.4 0.2 0.7
v -1.4 0.3 0.7
v -1.4 0.4 0.7
v 1.1 0.5 0.7
v 1.1 0.6 0.7
v 1.2 0.5 0.7
v 1.2 0.6 0.7
v 1.2 2.8 0.7
v 1.2 2.9 0.7
v 1.4 0.9 0.7
v 1.4 1.2 0.7
v 1.4 1.6 0.7
v 1.4 2 0.7
v 1.4 2.4 0.7
v 1.4 2.8 0.7
v 1.5 0.9 0.7
v 1.5 2.9 0.7
v 1.1 0.7 0.6
v 1.1 0.9 0.6
v 1.2 0.7 0.6
v 1.2 0.9 0.6
v 1.2 2.9 0.6
v 1.2 3 0.6
v 1.5 2.9 0.6
v 1.5 3 0.6
v -1.5 0.6 0.5
v -1.5 0.7 0.5
v -1.4 0.6 0.5
v -1.4 0.7 0.5
v 1.1 0.5 0.5
v 1.1 0.6 0.5
v 1.2 0.5 0.5
v 1.2 0.6 0.5
v 1.3 3 0.5
v 1.3 3.1 0.5
v 1.4 1.5 0.5
v 1.4 1.6 0.5
v 1.4 1.7 0.5
v 1.4 2 0.5
v 1.4 2.1 0.5
v 1.4 2.2 0.5
v 1.5 1.5 0.5
v 1.5 2.2 0.5
v 1.5 3 0.5
v 1.5 3.1 0.5
v -0.5 0 0.4
v -0.5 0.1 0.4
v 0 0.1 0.4
v 0 0.2 0.4
v 0 3 0.4
v 0 3.1 0.4
v 0.1 3 0.4
v 0.1 3.1 0.4
v 0.3 0 0.4
v 0.3 0.2 0.4
v 0.7 3 0.4
v 0.7 3.1 0.4
v 0.8 2.9 0.4
v 0.8 3 0.4
v 0.9 2.9 0.4
v 0.9 3 0.4
v 1.1 0.7 0.4
v 1.1 0.8 0.4
v 1.2 0.7 0.4
v 1.2 0.8 0.4
v 1.2 2.9 0.4
v 1.2 3 0.4
v 1.2 3.1 0.4
v 1.3 3 0.4
v 1.3 3.1 0.4
v 0.3 0.1 0.3
v 0.3 0.2 0.3
v 0.4 0.1 0.3
v 0.4 0.2 0.3
v 0.7 3 0.3
v 0.7 3.1 0.3
v 0.9 3 0.3
v 1.1 0.8 0.3
v 1.1 0.9 0.3
v 1.2 0.8 0.3
v 1.2 0.9 0.3
v 1.2 3 0.3
v 1.2 3.1 0.3
v 1.4 1.2 0.3
v 1.4 1.4 0.3
v 1.4 1.6 0.3
v 1.4 2 0.3
v 1.4 2.2 0.3
v 1.4 2.5 0.3
v 1.5 1.2 0.3
v 1.5 2.5 0.3
v -1.6 0 0.2
v -1.6 0.2 0.2
v -1.6 0.4 0.2
v -1.6 0.5 0.2
v -1.5 0 0.2
v -1.5 0.2 0.2
v -1.5 0.4 0.2
v -1.5 0.5 0.2
v -1.4 0 0.2
v -1.4 0.5 0.2
v 1.1 0.7 0.2
v 1.1 0.8 0.2
v 1.2 0.7 0.2
v 1.2 0.8 0.2
v 1.1 0.8 0.1
v 1.1 0.9 0.1
v 1.2 0.8 0.1
v 1.2 0.9 0.1
v 1.4 1 0.1
v 1.4 1.3 0.1
v 1.4 1.5 0.1
v 1.4 2.1 0.1
v 1.4 2.3 0.1
v 1.4 2.8 0.1
v 1.5 1 0.1
v 1.5 2.8 0.1
v 1.1 0.7 0
v 1.1 0.8 0
v 1.2 0.7 0
v 1.2 0.8 0
v -1.5 0.5 -0.2
v -1.5 0.6 -0.2
v -1.4 0.5 -0.2
v -1.4 0.6 -0.2
v 1.1 0.8 -0.2
v 1.1 0.9 -0.2
v 1.2 0.8 -0.2
v 1.2 0.9 -0.2
v 1.4 1 -0.2
v 1.4 1.3 -0.2
v 1.4 1.5 -0.2
v 1.4 2.1 -0.2
v 1.4 2.3 -0.2
v 1.4 2.8 -0.2
v 1.5 1 -0.2
v 1.5 2.8 -0.2
v -1.5 0.1 -0.3
v -1.5 0.4 -0.3
v -1.4 0.1 -0.3
v -1.4 0.4 -0.3
v 1.1 0.7 -0.3
v 1.1 0.8 -0.3
v 1.2 0.7 -0.3
v 1.2 0.8 -0.3
v 1.4 1.3 -0.4
v 1.4 1.4 -0.4
v 1.4 1.6 -0.4
v 1.4 2 -0.4
v 1.4 2.2 -0.4
v 1.4 2.5 -0.4
v 1.5 1.3 -0.4
v 1.5 2.5 -0.4
v 1.4 1.5 -0.6
v 1.4 1.6 -0.6
v 1.4 1.7 -0.6
v 1.4 2 -0.6
v 1.4 2.1 -0.6
v 1.4 2.2 -0.6
v 1.5 1.5 -0.6
v 1.5 2.2 -0.6
v 1.1 0.4 -0.7
v 1.1 0.8 -0.7
v 1.2 0.4 -0.7
v 1.2 0.8 -0.7
v 1.2 2.8 -0.8
v 1.2 2.9 -0.8
v 1.4 0.9 -0.8
v 1.4 1.2 -0.8
v 1.4 1.6 -0.8
v 1.4 2 -0.8
v 1.4 2.4 -0.8
v 1.4 2.8 -0.8
v 1.5 0.9 -0.8
v 1.5 2.9 -0.8
v 1.1 0.6 -0.9
v 1.1 0.7 -0.9
v 1.2 0.6 -0.9
v 1.2 0.7 -0.9
v 1.1 0.5 -1
v 1.1 0.6 -1
v 1.2 0.5 -1
v 1.2 0.6 -1
v 1.2 2.8 -1
v 1.2 2.9 -1
v 1.4 0.9 -1
v 1.4 1.3 -1
v 1.4 1.6 -1
v 1.4 2 -1
v 1.4 2.3 -1
v 1.4 2.8 -1
v 1.5 0.9 -1
v 1.5 2.9 -1
v 1.1 0.8 -1.1
v 1.1 0.9 -1.1
v 1.2 0.4 -1.1
v 1.2 0.5 -1.1
v 1.2 0.8 -1.1
v 1.3 0.4 -1.1
v 1.3 0.5 -1.1
v 1.3 0.9 -1.1
v 1.2 2.8 -1.2
v 1.2 2.9 -1.2
v 1.4 0.9 -1.2
v 1.4 1.1 -1.2
v 1.4 1.3 -1.2
v 1.4 1.6 -1.2
v 1.4 2 -1.2
v 1.4 2.3 -1.2
v 1.4 2.8 -1.2
v 1.5 0.9 -1.2
v 1.5 1.1 -1.2
v 1.5 2.9 -1.2
v -1.6 0.9 -1.4
v -1.6 3 -1.4
v -1.5 0.9 -1.4
v -1.5 1 -1.4
v -1.5 1.1 -1.4
v -1.5 1.2 -1.4
v -1.5 3 -1.4
v -1.6 0.9 1.4
v -1.6 3 1.4
v -1.5 0.9 1.4
v -1.5 1 1.4
v -1.5 1.4 1.4
v -1.5 3 1.4
v -1.5 0.1 1.2
v -1.5 0.3 1.2
v -1.5 0.4 1.2
v -1.5 0.6 1.2
v -1.5 0.7 1.2
v -1.4 0.1 1.2
v -1.4 0.3 1.2
v -1.4 0.4 1.2
v -1.4 0.6 1.2
v -1.4 0.7 1.2
v 1.1 0.4 1.2
v 1.1 0.9 1.2
v 1.2 0.4 1.2
v 1.2 0.5 1.2
v 1.2 0.8 1.2
v 1.2 0.9 1.2
v 1.2 2.8 1.2
v 1.2 2.9 1.2
v 1.3 0.4 1.2
v 1.3 0.5 1.2
v 1.3 0.8 1.2
v 1.3 0.9 1.2
v 1.3 2.8 1.2
v 1.3 2.9 1.2
v 1.4 0.9 1.2
v 1.4 1.3 1.2
v 1.4 1.6 1.2
v 1.4 2 1.2
v 1.4 2.3 1.2
v 1.4 2.7 1.2
v 1.4 2.8 1.2
v 1.5 0.9 1.2
v 1.5 2.7 1.2
v 1.5 2.9 1.2
v 1.2 2.8 1
v 1.2 2.9 1
v 1.4 0.9 1
v 1.4 1.3 1
v 1.4 1.6 1
v 1.4 2 1
v 1.4 2.3 1
v 1.4 2.8 1
v 1.5 0.9 1
v 1.5 2.9 1
v -1.5 0.1 0.8
v -1.5 0.4 0.8
v -1.5 0.6 0.8
v -1.5 0.7 0.8
v -1.4 0.1 0.8
v -1.4 0.4 0.8
v -1.4 0.6 0.8
v -1.4 0.7 0.8
v 1.1 0.5 0.8
v 1.1 0.6 0.8
v 1.1 0.8 0.8
v 1.1 0.9 0.8
v 1.2 0.5 0.8
v 1.2 0.6 0.8
v 1.2 0.8 0.8
v 1.2 0.9 0.8
v 1.2 2.8 0.8
v 1.2 2.9 0.8
v 1.4 0.9 0.8
v 1.4 1.2 0.8
v 1.4 1.6 0.8
v 1.4 2 0.8
v 1.4 2.4 0.8
v 1.4 2.8 0.8
v 1.5 0.9 0.8
v 1.5 2.9 0.8
v 1.1 0.7 0.7
v 1.1 0.8 0.7
v 1.2 0.7 0.7
v 1.2 0.8 0.7
v 1.1 0.5 0.6
v 1.1 0.6 0.6
v 1.2 0.5 0.6
v 1.2 0.6 0.6
v 1.4 1.5 0.6
v 1.4 1.6 0.6
v 1.4 1.7 0.6
v 1.4 2 0.6
v 1.4 2.1 0.6
v 1.4 2.2 0.6
v 1.5 1.5 0.6
v 1.5 2.2 0.6
v 1.1 0.7 0.5
v 1.1 0.8 0.5
v 1.2 0.7 0.5
v 1.2 0.8 0.5
v 1.1 0.5 0.4
v 1.1 0.6 0.4
v 1.1 0.8 0.4
v 1.1 0.9 0.4
v 1.2 0.5 0.4
v 1.2 0.6 0.4
v 1.2 0.8 0.4
v 1.2 0.9 0.4
v 1.4 1.2 0.4
v 1.4 1.4 0.4
v 1.4 1.6 0.4
v 1.4 2 0.4
v 1.4 2.2 0.4
v 1.4 2.5 0.4
v 1.5 1.2 0.4
v 1.5 2.5 0.4
v -1.5 0.1 0.3
v -1.5 0.2 0.3
v -1.5 0.3 0.3
v -1.5 0.4 0.3
v -1.4 0.1 0.3
v -1.4 0.2 0.3
v -1.4 0.3 0.3
v -1.4 0.4 0.3
v 1.1 0.7 0.3
v 1.1 0.8 0.3
v 1.2 0.7 0.3
v 1.2 0.8 0.3
v 1.1 0.8 0.2
v 1.1 0.9 0.2
v 1.2 0.8 0.2
v 1.2 0.9 0.2
v 1.4 1 0.2
v 1.4 1.3 0.2
v 1.4 1.5 0.2
v 1.4 2.1 0.2
v 1.4 2.3 0.2
v 1.4 2.8 0.2
v 1.5 1 0.2
v 1.5 2.8 0.2
v -1.5 0.1 0.1
v -1.5 0.3 0.1
v -1.5 0.5 0.1
v -1.5 0.6 0.1
v -1.4 0.1 0.1
v -1.4 0.3 0.1
v -1.4 0.5 0.1
v -1.4 0.6 0.1
v 1.1 0.7 0.1
v 1.1 0.8 0.1
v 1.2 0.7 0.1
v 1.2 0.8 0.1
v -1.5 0.3 -0.1
v -1.5 0.4 -0.1
v -1.4 0.3 -0.1
v -1.4 0.4 -0.1
v 1.1 0.7 -0.1
v 1.1 0.9 -0.1
v 1.2 0.7 -0.1
v 1.2 0.9 -0.1
v 1.4 1 -0.1
v 1.4 1.3 -0.1
v 1.4 1.5 -0.1
v 1.4 2.1 -0.1
v 1.4 2.3 -0.1
v 1.4 2.8 -0.1
v 1.5 1 -0.1
v 1.5 2.8 -0.1
v 0.7 3 -0.3
v 0.7 3.1 -0.3
v 0.9 3 -0.3
v 1.2 3 -0.3
v 1.2 3.1 -0.3
v 1.4 1.3 -0.3
v 1.4 1.4 -0.3
v 1.4 1.6 -0.3
v 1.4 2 -0.3
v 1.4 2.2 -0.3
v 1.4 2.5 -0.3
v 1.5 1.3 -0.3
v 1.5 2.5 -0.3
v 0 3 -0.4
v 0 3.1 -0.4
v 0.1 3 -0.4
v 0.1 3.1 -0.4
v 0.3 0.1 -0.4
v 0.3 0.2 -0.4
v 0.4 0.1 -0.4
v 0.4 0.2 -0.4
v 0.7 3 -0.4
v 0.7 3.1 -0.4
v 0.8 2.9 -0.4
v 0.8 3 -0.4
v 0.9 2.9 -0.4
v 0.9 3 -0.4
v 1.2 2.9 -0.4
v 1.2 3 -0.4
v 1.2 3.1 -0.4
v 1.3 3 -0.4
v 1.3 3.1 -0.4
v -0.5 0 -0.5
v -0.5 0.1 -0.5
v 0 0.1 -0.5
v 0 0.2 -0.5
v 0.3 0 -0.5
v 0.3 0.2 -0.5
v 1.1 0.7 -0.5
v 1.1 0.8 -0.5
v 1.2 0.7 -0.5
v 1.2 0.8 -0.5
v 1.3 3 -0.5
v 1.3 3.1 -0.5
v 1.4 1.5 -0.5
v 1.4 1.6 -0.5
v 1.4 1.7 -0.5
v 1.4 2 -0.5
v 1.4 2.1 -0.5
v 1.4 2.2 -0.5
v 1.5 1.5 -0.5
v 1.5 2.2 -0.5
v 1.5 3 -0.5
v 1.5 3.1 -0.5
v 1.1 0.8 -0.6
v 1.1 0.9 -0.6
v 1.2 0.8 -0.6
v 1.2 0.9 -0.6
v 1.2 2.9 -0.6
v 1.2 3 -0.6
v 1.5 2.9 -0.6
v 1.5 3 -0.6
v 1.2 2.8 -0.7
v 1.2 2.9 -0.7
v 1.4 0.9 -0.7
v 1.4 1.2 -0.7
v 1.4 1.6 -0.7
v 1.4 2 -0.7
v 1.4 2.4 -0.7
v 1.4 2.8 -0.7
v 1.5 0.9 -0.7
v 1.5 2.9 -0.7
v 1.1 0.6 -0.8
v 1.1 0.7 -0.8
v 1.2 0.6 -0.8
v 1.2 0.7 -0.8
v 1.1 0.5 -0.9
v 1.1 0.6 -0.9
v 1.2 0.5 -0.9
v 1.2 0.6 -0.9
v 1.2 2.8 -0.9
v 1.2 2.9 -0.9
v 1.4 0.9 -0.9
v 1.4 1.3 -0.9
v 1.4 1.6 -0.9
v 1.4 2 -0.9
v 1.4 2.3 -0.9
v 1.4 2.8 -0.9
v 1.5 0.9 -0.9
v 1.5 2.9 -0.9
v 1.2 2.8 -1.1
v 1.2 2.9 -1.1
v 1.4 0.9 -1.1
v 1.4 1.3 -1.1
v 1.4 1.6 -1.1
v 1.4 2 -1.1
v 1.4 2.3 -1.1
v 1.4 2.8 -1.1
v 1.5 0.9 -1.1
v 1.5 2.9 -1.1
v 1 0.3 -1.2
v 1 0.4 -1.2
v 1 0.5 -1.2
v 1 0.8 -1.2
v 1 0.9 -1.2
v 1.1 0.9 -1.2
v 1.2 0.4 -1.2
v 1.2 0.5 -1.2
v 1.3 0.3 -1.2
v 1.3 0.5 -1.2
v 1.3 0.9 -1.2
v 0.8 0.3 -1.3
v 0.8 0.4 -1.3
v 0.8 2.8 -1.3
v 0.8 2.9 -1.3
v 0.9 0.4 -1.3
v 0.9 0.5 -1.3
v 0.9 0.8 -1.3
v 0.9 1 -1.3
v 1 0.3 -1.3
v 1 0.5 -1.3
v 1 0.8 -1.3
v 1 0.9 -1.3
v 1 1.3 -1.3
v 1 1.8 -1.3
v 1 2.4 -1.3
v 1 2.7 -1.3
v 1.1 0.9 -1.3
v 1.1 1 -1.3
v 1.1 1.3 -1.3
v 1.1 1.8 -1.3
v 1.1 2.4 -1.3
v 1.1 2.7 -1.3
v 1.3 0.9 -1.3
v 1.3 1 -1.3
v 1.3 1.8 -1.3
v 1.3 2.4 -1.3
v 1.4 1 -1.3
v 1.4 1.1 -1.3
v 1.4 1.8 -1.3
v 1.4 2.4 -1.3
v 1.4 2.8 -1.3
v 1.5 0.9 -1.3
v 1.5 1.1 -1.3
v 1.5 2.9 -1.3
v 0 0.2 -1.4
v 0 0.3 -1.4
v 0 2.9 -1.4
v 0 3 -1.4
v 0.2 1.9 -1.4
v 0.2 2.4 -1.4
v 0.3 0.7 -1.4
v 0.3 1.1 -1.4
v 0.3 1.9 -1.4
v 0.3 2.4 -1.4
v 0.4 0.7 -1.4
v 0.4 1.1 -1.4
v 0.5 1.3 -1.4
v 0.5 1.7 -1.4
v 0.5 2.5 -1.4
v 0.5 2.8 -1.4
v 0.6 0.2 -1.4
v 0.6 0.3 -1.4
v 0.6 1.3 -1.4
v 0.6 1.7 -1.4
v 0.6 2.5 -1.4
v 0.6 2.8 -1.4
v 0.6 2.9 -1.4
v 0.6 3 -1.4
v 0.7 0.3 -1.4
v 0.7 0.4 -1.4
v 0.7 2.8 -1.4
v 0.7 2.9 -1.4
v 0.8 0.2 -1.4
v 0.8 0.4 -1.4
v 0.8 2.8 -1.4
v 0.8 3 -1.4
v -0.9 0.1 -1.5
v -0.9 0.2 -1.5
v -0.9 3 -1.5
v -0.9 3.1 -1.5
v -0.7 0.6 -1.5
v -0.7 1 -1.5
v -0.7 1.9 -1.5
v -0.7 2.4 -1.5
v -0.6 0.6 -1.5
v -0.6 1 -1.5
v -0.6 1.9 -1.5
v -0.6 2.4 -1.5
v -0.4 1.1 -1.5
v -0.4 1.7 -1.5
v -0.3 1.1 -1.5
v -0.3 1.7 -1.5
v -0.2 0.1 -1.5
v -0.2 0.2 -1.5
v -0.2 3 -1.5
v -0.2 3.1 -1.5
v -0.1 0.2 -1.5
v -0.1 0.3 -1.5
v -0.1 2.9 -1.5
v -0.1 3 -1.5
v 0 0.1 -1.5
v 0 0.3 -1.5
v 0 2.9 -1.5
v 0 3.1 -1.5
v -1.6 0 -1.6
v -1.6 0.2 -1.6
v -1.6 3 -1.6
v -1.6 3.2 -1.6
v -1.5 0.1 -1.6
v -1.5 0.2 -1.6
v -1.5 3 -1.6
v -1.5 3.1 -1.6
v -1.4 0 -1.6
v -1.4 0.1 -1.6
v -1.4 0.9 -1.6
v -1.4 1.2 -1.6
v -1.4 3.1 -1.6
v -1.4 3.2 -1.6
v -1.3 0.9 -1.6
v -1.3 1.2 -1.6
v -1.3 1.6 -1.6
v -1.3 2.1 -1.6
v -1.2 0.5 -1.6
v -1.2 0.8 -1.6
v -1.2 1.6 -1.6
v -1.2 2.1 -1.6
v -1.2 2.4 -1.6
v -1.2 2.8 -1.6
v -1.1 0 -1.6
v -1.1 0.1 -1.6
v -1.1 0.5 -1.6
v -1.1 0.8 -1.6
v -1.1 2.4 -1.6
v -1.1 2.8 -1.6
v -1.1 3.1 -1.6
v -1.1 3.2 -1.6
v -1 0.1 -1.6
v -1 0.2 -1.6
v -1 3 -1.6
v -1 3.1 -1.6
v -0.9 0 -1.6
v -0.9 0.2 -1.6
v -0.9 3 -1.6
v -0.9 3.2 -1.6
v -1.1 0 1.6
v -0.9 0 1.6
v -1.1 0 1.5
v -1 0 1.5
v -1.4 0 1.4
v -1.1 0 1.4
v -1 0 1.4
v -0.9 0 1.4
v -1.3 0 1.3
v -1 0 1.3
v -0.5 0 0.4
v 0.3 0 0.4
v -1.6 0 0.2
v -1.5 0 0.2
v -1.4 0 0.2
v -1.6 0 0.1
v -1.5 0 0.1
v -1.3 0 0.1
v -0.5 0 -0.5
v 0.3 0 -0.5
v -1.6 0 -1.4
v -1.5 0 -1.4
v -1 0 -1.4
v -0.9 0 -1.4
v -1.5 0 -1.5
v -1.4 0 -1.5
v -1.1 0 -1.5
v -1 0 -1.5
v -1.6 0 -1.6
v -1.4 0 -1.6
v -1.1 0 -1.6
v -0.9 0 -1.6
v -0.9 0.1 1.5
v -0.2 0.1 1.5
v 0 0.1 1.5
v -0.9 0.1 1.4
v -0.2 0.1 1.4
v -0.1 0.1 1.4
v -1.5 0.1 1.3
v -1.4 0.1 1.3
v -0.1 0.1 1.3
v 0 0.1 1.3
v -1.5 0.1 1.2
v -1.4 0.1 1.2
v -1.5 0.1 1.1
v -1.4 0.1 1.1
v -1.5 0.1 0.9
v -1.4 0.1 0.9
v -1.5 0.1 0.8
v -1.4 0.1 0.8
v -1.5 0.1 0.7
v -1.4 0.1 0.7
v -1.5 0.1 0.5
v -1.4 0.1 0.5
v -0.5 0.1 0.4
v 0 0.1 0.4
v -1.5 0.1 0.3
v -1.4 0.1 0.3
v 0.3 0.1 0.3
v 0.4 0.1 0.3
v 0.3 0.1 -0.4
v 0.4 0.1 -0.4
v -0.5 0.1 -0.5
v 0 0.1 -0.5
v -0.1 0.1 -1.3
v 0 0.1 -1.3
v -0.9 0.1 -1.4
v -0.2 0.1 -1.4
v -0.1 0.1 -1.4
v -0.9 0.1 -1.5
v -0.2 0.1 -1.5
v 0 0.1 -1.5
v 0 0.2 1.4
v 0.6 0.2 1.4
v 0.8 0.2 1.4
v 0 0.2 1.3
v 0.6 0.2 1.3
v 0.7 0.2 1.3
v 0.7 0.2 1.2
v 0.8 0.2 1.2
v 0 0.2 0.4
v 0.3 0.2 0.4
v 0.3 0.2 0.3
v 0.4 0.2 0.3
v 0.3 0.2 -0.4
v 0.4 0.2 -0.4
v 0 0.2 -0.5
v 0.3 0.2 -0.5
v 0.7 0.2 -1.2
v 0.8 0.2 -1.2
v 0 0.2 -1.3
v 0.6 0.2 -1.3
v 0.7 0.2 -1.3
v 0 0.2 -1.4
v 0.6 0.2 -1.4
v 0.8 0.2 -1.4
v 0.8 0.3 1.3
v 1.1 0.3 1.3
v 1.3 0.3 1.3
v 0.8 0.3 1.2
v 1.1 0.3 1.2
v 1.2 0.3 1.2
v 1.2 0.3 1.1
v 1.3 0.3 1.1
v -1.5 0.3 0.7
v -1.4 0.3 0.7
v -1.5 0.3 0.5
v -1.4 0.3 0.5
v -1.5 0.3 0.3
v -1.4 0.3 0.3
v -1.5 0.3 0.1
v -1.4 0.3 0.1
v -1.5 0.3 -0.1
v -1.4 0.3 -0.1
v 1.2 0.3 -1
v 1.3 0.3 -1
v 1 0.3 -1.1
v 1.2 0.3 -1.1
v 0.8 0.3 -1.2
v 1 0.3 -1.2
v 1.3 0.3 -1.2
v 0.8 0.3 -1.3
v 1 0.3 -1.3
v -1.5 0.4 -0.1
v -1.4 0.4 -0.1
v -1.5 0.4 -0.3
v -1.4 0.4 -0.3
v -1.6 0.5 1.6
v -1.4 0.5 1.6
v -1.1 0.5 1.6
v -1.5 0.5 1.5
v -1.4 0.5 1.5
v -1.1 0.5 1.5
v -1.6 0.5 1.4
v -1.5 0.5 1.4
v -1.4 0.5 1.4
v -1.1 0.5 1.4
v 1.1 0.5 0.9
v 1.2 0.5 0.9
v 1.1 0.5 0.8
v 1.2 0.5 0.8
v 1.1 0.5 0.7
v 1.2 0.5 0.7
v 1.1 0.5 0.6
v 1.2 0.5 0.6
v 1.1 0.5 0.5
v 1.2 0.5 0.5
v 1.1 0.5 0.4
v 1.2 0.5 0.4
v -1.6 0.5 0.3
v -1.5 0.5 0.3
v -1.6 0.5 0.2
v -1.5 0.5 0.2
v -1.4 0.5 0.2
v -1.5 0.6 0.1
v -1.4 0.6 0.1
v -1.5 0.6 -0.2
v -1.4 0.6 -0.2
v 1.1 0.6 -0.9
v 1.2 0.6 -0.9
v 1.1 0.6 -1
v 1.2 0.6 -1
v -1.5 0.7 1.2
v -1.4 0.7 1.2
v -1.5 0.7 1.1
v -1.4 0.7 1.1
v 1.1 0.7 1.1
v 1.2 0.7 1.1
v -1.5 0.7 0.8
v -1.4 0.7 0.8
v 1.1 0.7 0.7
v 1.2 0.7 0.7
v 1.1 0.7 0.6
v 1.2 0.7 0.6
v -1.5 0.7 0.5
v -1.4 0.7 0.5
v 1.1 0.7 0.5
v 1.2 0.7 0.5
v 1.1 0.7 0.4
v 1.2 0.7 0.4
v 1.1 0.7 0.3
v 1.2 0.7 0.3
v 1.1 0.7 0.2
v 1.2 0.7 0.2
v 1.1 0.7 0.1
v 1.2 0.7 0.1
v 1.1 0.7 0
v 1.2 0.7 0
v 1.1 0.7 -0.1
v 1.2 0.7 -0.1
v 1.1 0.7 -0.3
v 1.2 0.7 -0.3
v 1.1 0.7 -0.5
v 1.2 0.7 -0.5
v 1.1 0.7 -0.8
v 1.2 0.7 -0.8
v 1.1 0.7 -0.9
v 1.2 0.7 -0.9
v 1.1 0.8 0.5
v 1.2 0.8 0.5
v 1.1 0.8 0.4
v 1.2 0.8 0.4
v 1.1 0.8 0.3
v 1.2 0.8 0.3
v 1.1 0.8 0.2
v 1.2 0.8 0.2
v 1.1 0.8 0.1
v 1.2 0.8 0.1
v 1.1 0.8 0
v 1.2 0.8 0
v 1.1 0.8 -0.2
v 1.2 0.8 -0.2
v 1.1 0.8 -0.3
v 1.2 0.8 -0.3
v 1.1 0.8 -0.5
v 1.2 0.8 -0.5
v 1.1 0.8 -0.6
v 1.2 0.8 -0.6
v 1.3 0.9 1.3
v 1.4 0.9 1.3
v 1.5 0.9 1.3
v 1.1 0.9 1.2
v 1.2 0.9 1.2
v 1.3 0.9 1.2
v 1.4 0.9 1.2
v 1.5 0.9 1.2
v 1.1 0.9 1.1
v 1.4 0.9 1.1
v 1.5 0.9 1.1
v 1.1 0.9 1
v 1.2 0.9 1
v 1.4 0.9 1
v 1.5 0.9 1
v 1.2 0.9 0.9
v 1.4 0.9 0.9
v 1.5 0.9 0.9
v 1.1 0.9 0.8
v 1.2 0.9 0.8
v 1.4 0.9 0.8
v 1.5 0.9 0.8
v 1.2 0.9 0.7
v 1.4 0.9 0.7
v 1.5 0.9 0.7
v 1.1 0.9 0.6
v 1.2 0.9 0.6
v 1.2 0.9 0.5
v 1.1 0.9 0.4
v 1.2 0.9 0.4
v 1.1 0.9 0.3
v 1.2 0.9 0.3
v 1.1 0.9 0.2
v 1.2 0.9 0.2
v 1.1 0.9 0.1
v 1.2 0.9 0.1
v 1.2 0.9 0
v 1.1 0.9 -0.1
v 1.2 0.9 -0.1
v 1.1 0.9 -0.2
v 1.2 0.9 -0.2
v 1.2 0.9 -0.3
v 1.2 0.9 -0.5
v 1.1 0.9 -0.6
v 1.2 0.9 -0.6
v 1.1 0.9 -0.7
v 1.4 0.9 -0.7
v 1.5 0.9 -0.7
v 1.1 0.9 -0.8
v 1.4 0.9 -0.8
v 1.5 0.9 -0.8
v 1.1 0.9 -0.9
v 1.4 0.9 -0.9
v 1.5 0.9 -0.9
v 1.1 0.9 -1
v 1.4 0.9 -1
v 1.5 0.9 -1
v 1.1 0.9 -1.1
v 1.3 0.9 -1.1
v 1.4 0.9 -1.1
v 1.5 0.9 -1.1
v 1 0.9 -1.2
v 1.1 0.9 -1.2
v 1.3 0.9 -1.2
v 1.4 0.9 -1.2
v 1.5 0.9 -1.2
v 1 0.9 -1.3
v 1.1 0.9 -1.3
v 1.3 0.9 -1.3
v 1.5 0.9 -1.3
v 1.4 2.2 0.6
v 1.5 2.2 0.6
v 1.4 2.2 0.5
v 1.5 2.2 0.5
v 1.4 2.2 -0.5
v 1.5 2.2 -0.5
v 1.4 2.2 -0.6
v 1.5 2.2 -0.6
v 1.4 2.5 0.4
v 1.5 2.5 0.4
v 1.4 2.5 0.3
v 1.5 2.5 0.3
v 1.4 2.5 -0.3
v 1.5 2.5 -0.3
v 1.4 2.5 -0.4
v 1.5 2.5 -0.4
v 1.4 2.8 0.2
v 1.5 2.8 0.2
v 1.4 2.8 0.1
v 1.5 2.8 0.1
v 1.4 2.8 -0.1
v 1.5 2.8 -0.1
v 1.4 2.8 -0.2
v 1.5 2.8 -0.2
v -1.6 3 1.4
v -1.5 3 1.4
v -1.5 3 1.3
v -1.6 3 -1.4
v -1.5 3 -1.4
v -1.5 0.1 0.1
v -1.4 0.1 0.1
v -1.5 0.1 -0.3
v -1.4 0.1 -0.3
v -1.5 0.2 0.7
v -1.4 0.2 0.7
v -1.5 0.2 0.5
v -1.4 0.2 0.5
v -1.5 0.2 0.3
v -1.4 0.2 0.3
v -1.5 0.4 1.3
v -1.4 0.4 1.3
v -1.5 0.4 1.2
v -1.4 0.4 1.2
v 1.1 0.4 1.2
v 1.2 0.4 1.2
v 1.3 0.4 1.2
v -1.5 0.4 1.1
v -1.4 0.4 1.1
v 1.2 0.4 1.1
v 1.3 0.4 1.1
v -1.5 0.4 0.8
v -1.4 0.4 0.8
v -1.5 0.4 0.7
v -1.4 0.4 0.7
v -1.5 0.4 0.5
v -1.4 0.4 0.5
v -1.5 0.4 0.3
v -1.4 0.4 0.3
v 1.1 0.4 -0.7
v 1.2 0.4 -0.7
v 1.2 0.4 -1
v 1.3 0.4 -1
v 1.2 0.4 -1.1
v 1.3 0.4 -1.1
v -1.5 0.5 0.1
v -1.4 0.5 0.1
v -1.5 0.5 -0.2
v -1.4 0.5 -0.2
v 1.1 0.5 -0.9
v 1.2 0.5 -0.9
v 1.1 0.5 -1
v 1.2 0.5 -1
v -1.5 0.6 1.2
v -1.4 0.6 1.2
v -1.5 0.6 1.1
v -1.4 0.6 1.1
v 1.1 0.6 0.9
v 1.2 0.6 0.9
v -1.5 0.6 0.8
v -1.4 0.6 0.8
v 1.1 0.6 0.8
v 1.2 0.6 0.8
v 1.1 0.6 0.7
v 1.2 0.6 0.7
v 1.1 0.6 0.6
v 1.2 0.6 0.6
v -1.5 0.6 0.5
v -1.4 0.6 0.5
v 1.1 0.6 0.5
v 1.2 0.6 0.5
v 1.1 0.6 0.4
v 1.2 0.6 0.4
v 1.1 0.6 -0.8
v 1.2 0.6 -0.8
v 1.1 0.6 -0.9
v 1.2 0.6 -0.9
v 1.1 0.8 1.1
v 1.2 0.8 1.1
v 1.1 0.8 1
v 1.2 0.8 1
v 1.1 0.8 0.8
v 1.2 0.8 0.8
v 1.1 0.8 0.7
v 1.2 0.8 0.7
v 1.1 0.8 0.4
v 1.2 0.8 0.4
v 1.1 0.8 0.3
v 1.2 0.8 0.3
v 1.1 0.8 0.2
v 1.2 0.8 0.2
v 1.1 0.8 0.1
v 1.2 0.8 0.1
v 1.1 0.8 -0.7
v 1.2 0.8 -0.7
v 1.1 0.8 -1.1
v 1.2 0.8 -1.1
v -1.6 0.9 1.4
v -1.5 0.9 1.4
v -1.5 0.9 1.3
v -1.5 0.9 0.7
v -1.5 0.9 0
v -1.5 0.9 -0.7
v -1.6 0.9 -1.4
v -1.5 0.9 -1.4
v 1.4 1 0.2
v 1.5 1 0.2
v 1.4 1 0.1
v 1.5 1 0.1
v 1.4 1 -0.1
v 1.5 1 -0.1
v 1.4 1 -0.2
v 1.5 1 -0.2
v 1.4 1.2 0.4
v 1.5 1.2 0.4
v 1.4 1.2 0.3
v 1.5 1.2 0.3
v 1.4 1.3 -0.3
v 1.5 1.3 -0.3
v 1.4 1.3 -0.4
v 1.5 1.3 -0.4
v 1.4 1.5 0.6
v 1.5 1.5 0.6
v 1.4 1.5 0.5
v 1.5 1.5 0.5
v 1.4 1.5 -0.5
v 1.5 1.5 -0.5
v 1.4 1.5 -0.6
v 1.5 1.5 -0.6
v 1.2 2.8 1.2
v 1.3 2.8 1.2
v 1.4 2.8 1.2
v 1.2 2.8 1.1
v 1.4 2.8 1.1
v 1.2 2.8 1
v 1.4 2.8 1
v 1.2 2.8 0.9
v 1.4 2.8 0.9
v 1.2 2.8 0.8
v 1.4 2.8 0.8
v 1.2 2.8 0.7
v 1.4 2.8 0.7
v 1.2 2.8 -0.7
v 1.4 2.8 -0.7
v 1.2 2.8 -0.8
v 1.4 2.8 -0.8
v 1.2 2.8 -0.9
v 1.4 2.8 -0.9
v 1.2 2.8 -1
v 1.4 2.8 -1
v 1.2 2.8 -1.1
v 1.4 2.8 -1.1
v 1.2 2.8 -1.2
v 1.4 2.8 -1.2
v 0.8 2.9 1.3
v 1.3 2.9 1.3
v 1.5 2.9 1.3
v 0.8 2.9 1.2
v 1.2 2.9 1.2
v 1.3 2.9 1.2
v 1.5 2.9 1.2
v 1.2 2.9 1.1
v 1.5 2.9 1.1
v 1.2 2.9 1
v 1.5 2.9 1
v 1.2 2.9 0.9
v 1.5 2.9 0.9
v 1.2 2.9 0.8
v 1.5 2.9 0.8
v 1.2 2.9 0.7
v 1.5 2.9 0.7
v 1.2 2.9 0.6
v 1.5 2.9 0.6
v 0.8 2.9 0.5
v 0.8 2.9 0.4
v 0.9 2.9 0.4
v 1.2 2.9 0.4
v 0.8 2.9 -0.4
v 0.9 2.9 -0.4
v 1.2 2.9 -0.4
v 0.8 2.9 -0.5
v 1.2 2.9 -0.6
v 1.5 2.9 -0.6
v 1.1 2.9 -0.7
v 1.2 2.9 -0.7
v 1.5 2.9 -0.7
v 1.1 2.9 -0.8
v 1.2 2.9 -0.8
v 1.5 2.9 -0.8
v 1.1 2.9 -0.9
v 1.2 2.9 -0.9
v 1.5 2.9 -0.9
v 1.1 2.9 -1
v 1.2 2.9 -1
v 1.5 2.9 -1
v 1.1 2.9 -1.1
v 1.2 2.9 -1.1
v 1.5 2.9 -1.1
v 0.8 2.9 -1.2
v 1.1 2.9 -1.2
v 1.2 2.9 -1.2
v 1.5 2.9 -1.2
v 0.8 2.9 -1.3
v 1.5 2.9 -1.3
v 0 3 1.4
v 0.6 3 1.4
v 0.8 3 1.4
v 0 3 1.3
v 0.6 3 1.3
v 0.7 3 1.3
v 0.7 3 1.2
v 0.8 3 1.2
v 1.2 3 0.6
v 1.5 3 0.6
v 0 3 0.5
v 0.7 3 0.5
v 0.8 3 0.5
v 1.3 3 0.5
v 1.5 3 0.5
v 0 3 0.4
v 0.1 3 0.4
v 0.7 3 0.4
v 0.8 3 0.4
v 0.9 3 0.4
v 1.2 3 0.4
v 1.3 3 0.4
v 0.7 3 0.3
v 0.9 3 0.3
v 1.2 3 0.3
v 0.7 3 -0.3
v 0.9 3 -0.3
v 1.2 3 -0.3
v 0 3 -0.4
v 0.1 3 -0.4
v 0.7 3 -0.4
v 0.8 3 -0.4
v 0.9 3 -0.4
v 1.2 3 -0.4
v 1.3 3 -0.4
v 0 3 -0.5
v 0.7 3 -0.5
v 0.8 3 -0.5
v 1.3 3 -0.5
v 1.5 3 -0.5
v 1.2 3 -0.6
v 1.5 3 -0.6
v 0.7 3 -1.2
v 0.8 3 -1.2
v 0 3 -1.3
v 0.6 3 -1.3
v 0.7 3 -1.3
v 0 3 -1.4
v 0.6 3 -1.4
v 0.8 3 -1.4
v -0.9 3.1 1.5
v -0.2 3.1 1.5
v 0 3.1 1.5
v -0.9 3.1 1.4
v -0.2 3.1 1.4
v -0.1 3.1 1.4
v -0.1 3.1 1.3
v 0 3.1 1.3
v -0.1 3.1 0.5
v 0 3.1 0.5
v 1.3 3.1 0.5
v 1.5 3.1 0.5
v 0 3.1 0.4
v 0.1 3.1 0.4
v 0.7 3.1 0.4
v 1.2 3.1 0.4
v 1.3 3.1 0.4
v -0.1 3.1 0.3
v 0.1 3.1 0.3
v 0.7 3.1 0.3
v 1.2 3.1 0.3
v -0.1 3.1 -0.3
v 0.1 3.1 -0.3
v 0.7 3.1 -0.3
v 1.2 3.1 -0.3
v 0 3.1 -0.4
v 0.1 3.1 -0.4
v 0.7 3.1 -0.4
v 1.2 3.1 -0.4
v 1.3 3.1 -0.4
v -0.1 3.1 -0.5
v 0 3.1 -0.5
v 1.3 3.1 -0.5
v 1.5 3.1 -0.5
v -0.1 3.1 -1.3
v 0 3.1 -1.3
v -0.9 3.1 -1.4
v -0.2 3.1 -1.4
v -0.1 3.1 -1.4
v -0.9 3.1 -1.5
v -0.2 3.1 -1.5
v 0 3.1 -1.5
v -1.6 3.2 1.6
v -1.5 3.2 1.6
v -1.1 3.2 1.6
v -0.9 3.2 1.6
v -1.5 3.2 1.5
v -1.1 3.2 1.5
v -1 3.2 1.5
v -1.6 3.2 1.4
v -1.5 3.2 1.4
v -1 3.2 1.4
v -0.9 3.2 1.4
v -1.6 3.2 -1.4
v -1.5 3.2 -1.4
v -1 3.2 -1.4
v -0.9 3.2 -1.4
v -1.5 3.2 -1.5
v -1.4 3.2 -1.5
v -1.1 3.2 -1.5
v -1 3.2 -1.5
v -1.6 3.2 -1.6
v -1.4 3.2 -1.6
v -1.1 3.2 -1.6
v -0.9 3.2 -1.6

# faces
f 5/15/1 2/15/1 1/15/1
f 5/21/1 3/21/1 2/21/1
f 6/15/1 4/15/1 3/15/1
f 6/21/1 3/21/1 5/21/1
f 7/15/1 4/15/1 6/15/1
f 8/15/1 5/15/1 1/15/1
f 9/19/1 6/19/1 5/19/1
f 9/15/1 5/15/1 8/15/1
f 9/19/1 7/19/1 6/19/1
f 10/19/1 7/19/1 9/19/1
f 11/19/1 7/19/1 10/19/1
f 12/19/1 7/19/1 11/19/1
f 13/19/1 7/19/1 12/19/1
f 14/15/1 4/15/1 7/15/1
f 14/19/1 7/19/1 13/19/1
f 15/15/1 4/15/1 14/15/1
f 16/21/1 9/21/1 8/21/1
f 17/19/1 10/19/1 9/19/1
f 17/21/1 9/21/1 16/21/1
f 21/15/1 17/15/1 16/15/1
f 22/4/1 11/4/1 10/4/1
f 22/19/1 10/19/1 17/19/1
f 23/9/1 12/9/1 11/9/1
f 23/4/1 11/4/1 22/4/1
f 24/14/1 13/14/1 12/14/1
f 24/9/1 12/9/1 23/9/1
f 25/19/1 14/19/1 13/19/1
f 25/14/1 13/14/1 24/14/1
f 26/15/1 19/15/1 18/15/1
f 27/21/1 20/21/1 19/21/1
f 27/15/1 19/15/1 26/15/1
f 28/15/1 21/15/1 20/15/1
f 28/21/1 20/21/1 27/21/1
f 29/19/1 23/19/1 22/19/1
f 29/15/1 21/15/1 28/15/1
f 29/19/1 22/19/1 17/19/1
f 29/19/1 25/19/1 24/19/1
f 29/19/1 24/19/1 23/19/1
f 29/15/1 17/15/1 21/15/1
f 30/15/1 26/15/1 18/15/1
f 31/19/1 28/19/1 27/19/1
f 31/15/1 26/15/1 30/15/1
f 31/19/1 27/19/1 26/19/1
f 31/19/1 29/19/1 28/19/1
f 32/19/1 29/19/1 31/19/1
f 33/19/1 25/19/1 29/19/1
f 33/19/1 29/19/1 32/19/1
f 33/19/1 14/19/1 25/19/1
f 34/21/1 31/21/1 30/21/1
f 35/19/1 32/19/1 31/19/1
f 35/21/1 31/21/1 34/21/1
f 36/4/1 35/4/1 34/4/1
f 37/19/1 32/19/1 35/19/1
f 37/4/1 35/4/1 36/4/1
f 38/21/1 37/21/1 36/21/1
f 39/19/1 32/19/1 37/19/1
f 39/21/1 37/21/1 38/21/1
f 40/19/1 32/19/1 39/19/1
f 41/19/1 14/19/1 33/19/1
f 42/21/1 15/21/1 14/21/1
f 42/19/1 14/19/1 41/19/1
f 43/21/1 15/21/1 42/21/1
f 44/19/1 40/19/1 39/19/1
f 44/19/1 41/19/1 40/19/1
f 44/15/1 39/15/1 38/15/1
f 44/19/1 42/19/1 41/19/1
f 45/19/1 42/19/1 44/19/1
f 46/19/1 42/19/1 45/19/1
f 47/15/1 43/15/1 42/15/1
f 47/19/1 42/19/1 46/19/1
f 48/15/1 44/15/1 38/15/1
f 48/15/1 45/15/1 44/15/1
f 49/21/1 46/21/1 45/21/1
f 49/15/1 45/15/1 48/15/1
f 50/15/1 47/15/1 46/15/1
f 50/21/1 46/21/1 49/21/1
f 51/15/1 43/15/1 47/15/1
f 51/15/1 47/15/1 50/15/1
f 60/19/1 55/19/1 54/19/1
f 61/15/1 56/15/1 55/15/1
f 61/19/1 55/19/1 60/19/1
f 62/19/1 58/19/1 57/19/1
f 63/15/1 59/15/1 58/15/1
f 63/19/1 58/19/1 62/19/1
f 64/15/1 59/15/1 63/15/1
f 65/19/1 53/19/1 52/19/1
f 66/19/1 53/19/1 65/19/1
f 67/19/1 60/19/1 54/19/1
f 68/15/1 61/15/1 60/15/1
f 68/19/1 60/19/1 67/19/1
f 72/15/1 66/15/1 65/15/1
f 73/15/1 66/15/1 72/15/1
f 74/15/1 68/15/1 67/15/1
f 75/15/1 56/15/1 61/15/1
f 75/15/1 68/15/1 74/15/1
f 75/15/1 61/15/1 68/15/1
f 76/19/1 70/19/1 69/19/1
f 77/15/1 71/15/1 70/15/1
f 77/19/1 70/19/1 76/19/1
f 78/15/1 71/15/1 77/15/1
f 85/17/1 80/17/1 79/17/1
f 86/16/1 81/16/1 80/16/1
f 86/17/1 80/17/1 85/17/1
f 87/17/1 82/17/1 81/17/1
f 87/16/1 81/16/1 86/16/1
f 88/16/1 83/16/1 82/16/1
f 88/17/1 82/17/1 87/17/1
f 89/17/1 84/17/1 83/17/1
f 89/16/1 83/16/1 88/16/1
f 90/17/1 84/17/1 89/17/1
f 91/17/1 84/17/1 90/17/1
f 92/20/1 88/20/1 87/20/1
f 92/20/1 87/20/1 86/20/1
f 92/18/1 91/18/1 90/18/1
f 92/20/1 90/20/1 89/20/1
f 92/20/1 89/20/1 88/20/1
f 93/18/1 91/18/1 92/18/1
f 94/20/1 92/20/1 86/20/1
f 94/17/1 93/17/1 92/17/1
f 95/17/1 93/17/1 94/17/1
f 96/18/1 86/18/1 85/18/1
f 97/20/1 94/20/1 86/20/1
f 97/18/1 86/18/1 96/18/1
f 98/17/1 97/17/1 96/17/1
f 98/20/1 94/20/1 97/20/1
f 99/18/1 95/18/1 94/18/1
f 99/20/1 94/20/1 98/20/1
f 100/17/1 98/17/1 96/17/1
f 101/18/1 99/18/1 98/18/1
f 101/17/1 98/17/1 100/17/1
f 102/18/1 95/18/1 99/18/1
f 102/18/1 99/18/1 101/18/1
f 105/11/1 104/11/1 103/11/1
f 106/11/1 104/11/1 105/11/1
f 107/11/1 104/11/1 106/11/1
f 108/11/1 104/11/1 107/11/1
f 109/11/1 104/11/1 108/11/1
f 110/11/1 104/11/1 109/11/1
f 111/11/1 104/11/1 110/11/1
f 112/11/1 104/11/1 111/11/1
f 115/11/1 110/11/1 109/11/1
f 117/11/1 104/11/1 112/11/1
f 118/11/1 105/11/1 103/11/1
f 119/11/1 107/11/1 106/11/1
f 120/11/1 107/11/1 119/11/1
f 121/11/1 117/11/1 116/11/1
f 121/11/1 116/11/1 115/11/1
f 121/11/1 115/11/1 109/11/1
f 122/11/1 117/11/1 121/11/1
f 123/11/1 104/11/1 117/11/1
f 123/11/1 117/11/1 122/11/1
f 124/11/1 114/11/1 113/11/1
f 125/11/1 114/11/1 124/11/1
f 126/11/1 118/11/1 103/11/1
f 127/11/1 120/11/1 119/11/1
f 128/11/1 120/11/1 127/11/1
f 129/11/1 121/11/1 109/11/1
f 130/11/1 121/11/1 129/11/1
f 132/11/1 104/11/1 123/11/1
f 133/11/1 114/11/1 125/11/1
f 134/11/1 114/11/1 133/11/1
f 135/11/1 126/11/1 103/11/1
f 135/11/1 131/11/1 130/11/1
f 135/11/1 132/11/1 131/11/1
f 135/11/1 128/11/1 127/11/1
f 135/11/1 127/11/1 126/11/1
f 135/11/1 130/11/1 129/11/1
f 135/11/1 129/11/1 128/11/1
f 136/11/1 104/11/1 132/11/1
f 136/11/1 132/11/1 135/11/1
f 143/8/1 138/8/1 137/8/1
f 144/8/1 138/8/1 143/8/1
f 145/11/1 140/11/1 139/11/1
f 146/11/1 140/11/1 145/11/1
f 147/11/1 142/11/1 141/11/1
f 148/11/1 142/11/1 147/11/1
f 152/15/1 150/15/1 149/15/1
f 153/11/1 151/11/1 150/11/1
f 153/15/1 150/15/1 152/15/1
f 154/21/1 153/21/1 152/21/1
f 155/11/1 151/11/1 153/11/1
f 155/21/1 153/21/1 154/21/1
f 156/11/1 151/11/1 155/11/1
f 159/11/1 158/11/1 157/11/1
f 160/11/1 158/11/1 159/11/1
f 165/19/1 162/19/1 161/19/1
f 166/19/1 162/19/1 165/19/1
f 169/19/1 164/19/1 163/19/1
f 170/19/1 164/19/1 169/19/1
f 171/19/1 167/19/1 166/19/1
f 172/19/1 167/19/1 171/19/1
f 173/19/1 169/19/1 168/19/1
f 174/19/1 169/19/1 173/19/1
f 179/19/1 176/19/1 175/19/1
f 180/19/1 176/19/1 179/19/1
f 181/19/1 178/19/1 177/19/1
f 182/19/1 178/19/1 181/19/1
f 183/19/2 184/19/2 185/19/2
f 185/19/2 184/19/2 186/19/2
f 186/19/2 184/19/2 187/19/2
f 187/19/2 184/19/2 188/19/2
f 189/19/2 190/19/2 195/19/2
f 195/19/2 190/19/2 196/19/2
f 191/19/2 192/19/2 197/19/2
f 197/19/2 192/19/2 198/19/2
f 193/19/2 194/19/2 199/19/2
f 199/19/2 194/19/2 200/19/2
f 201/15/2 202/15/2 205/15/2
f 202/19/2 203/19/2 206/19/2
f 205/15/2 202/15/2 206/15/2
f 203/15/2 204/15/2 207/15/2
f 206/19/2 203/19/2 207/19/2
f 207/15/2 204/15/2 208/15/2
f 201/15/2 205/15/2 209/15/2
f 209/15/2 205/15/2 210/15/2
f 208/15/2 204/15/2 211/15/2
f 211/15/2 204/15/2 212/15/2
f 209/19/2 210/19/2 213/19/2
f 213/19/2 210/19/2 214/19/2
f 213/4/2 214/4/2 215/4/2
f 215/4/2 214/4/2 216/4/2
f 215/19/2 216/19/2 217/19/2
f 217/19/2 216/19/2 218/19/2
f 211/19/2 212/19/2 219/19/2
f 219/19/2 212/19/2 220/19/2
f 217/15/2 218/15/2 221/15/2
f 219/15/2 220/15/2 224/15/2
f 217/15/2 221/15/2 225/15/2
f 221/15/2 222/15/2 225/15/2
f 222/19/2 223/19/2 226/19/2
f 225/15/2 222/15/2 226/15/2
f 223/15/2 224/15/2 227/15/2
f 226/19/2 223/19/2 227/19/2
f 224/15/2 220/15/2 228/15/2
f 227/15/2 224/15/2 228/15/2
f 229/15/2 230/15/2 235/15/2
f 230/19/2 231/19/2 236/19/2
f 235/15/2 230/15/2 236/15/2
f 236/19/2 231/19/2 237/19/2
f 232/19/2 233/19/2 238/19/2
f 233/15/2 234/15/2 239/15/2
f 238/19/2 233/19/2 239/19/2
f 239/15/2 234/15/2 240/15/2
f 229/15/2 235/15/2 241/15/2
f 241/15/2 235/15/2 242/15/2
f 240/15/2 234/15/2 243/15/2
f 243/15/2 234/15/2 244/15/2
f 241/19/2 242/19/2 245/19/2
f 241/19/2 245/19/2 246/19/2
f 241/19/2 246/19/2 247/19/2
f 247/19/2 246/19/2 248/19/2
f 243/19/2 244/19/2 249/19/2
f 249/19/2 244/19/2 250/19/2
f 247/15/2 248/15/2 251/15/2
f 249/15/2 250/15/2 258/15/2
f 247/15/2 251/15/2 259/15/2
f 251/15/2 252/15/2 259/15/2
f 252/19/2 253/19/2 260/19/2
f 259/15/2 252/15/2 260/15/2
f 253/15/2 254/15/2 261/15/2
f 260/19/2 253/19/2 261/19/2
f 261/15/2 254/15/2 262/15/2
f 255/15/2 256/15/2 263/15/2
f 256/19/2 257/19/2 264/19/2
f 263/15/2 256/15/2 264/15/2
f 257/15/2 258/15/2 265/15/2
f 264/19/2 257/19/2 265/19/2
f 258/15/2 250/15/2 266/15/2
f 265/15/2 258/15/2 266/15/2
f 267/11/2 268/11/2 269/11/2
f 269/11/2 268/11/2 270/11/2
f 267/11/2 269/11/2 271/11/2
f 271/11/2 269/11/2 272/11/2
f 270/11/2 268/11/2 273/11/2
f 273/11/2 268/11/2 274/11/2
f 275/11/2 276/11/2 277/11/2
f 277/11/2 276/11/2 278/11/2
f 279/19/2 280/19/2 283/19/2
f 283/19/2 280/19/2 284/19/2
f 281/19/2 282/19/2 285/19/2
f 285/19/2 282/19/2 286/19/2
f 287/15/2 288/15/2 291/15/2
f 288/19/2 289/19/2 292/19/2
f 291/15/2 288/15/2 292/15/2
f 289/15/2 290/15/2 293/15/2
f 292/19/2 289/19/2 293/19/2
f 293/15/2 290/15/2 294/15/2
f 287/15/2 291/15/2 295/15/2
f 295/15/2 291/15/2 296/15/2
f 294/15/2 290/15/2 297/15/2
f 297/15/2 290/15/2 298/15/2
f 295/19/2 296/19/2 299/19/2
f 299/19/2 296/19/2 300/19/2
f 297/19/2 298/19/2 301/19/2
f 301/19/2 298/19/2 302/19/2
f 299/15/2 300/15/2 303/15/2
f 301/15/2 302/15/2 310/15/2
f 299/15/2 303/15/2 311/15/2
f 303/15/2 304/15/2 311/15/2
f 304/19/2 305/19/2 312/19/2
f 311/15/2 304/15/2 312/15/2
f 305/15/2 306/15/2 313/15/2
f 312/19/2 305/19/2 313/19/2
f 313/15/2 306/15/2 314/15/2
f 307/15/2 308/15/2 315/15/2
f 308/19/2 309/19/2 316/19/2
f 315/15/2 308/15/2 316/15/2
f 309/15/2 310/15/2 317/15/2
f 316/19/2 309/19/2 317/19/2
f 310/15/2 302/15/2 318/15/2
f 317/15/2 310/15/2 318/15/2
f 319/15/2 320/15/2 321/15/2
f 321/15/2 320/15/2 322/15/2
f 322/15/2 320/15/2 323/15/2
f 322/21/2 323/21/2 324/21/2
f 324/21/2 323/21/2 325/21/2
f 324/15/2 325/15/2 326/15/2
f 326/15/2 325/15/2 327/15/2
f 328/11/2 329/11/2 330/11/2
f 330/11/2 329/11/2 331/11/2
f 331/11/2 329/11/2 332/11/2
f 332/11/2 329/11/2 333/11/2
f 333/11/2 329/11/2 334/11/2
f 334/11/2 329/11/2 335/11/2
f 328/11/2 330/11/2 338/11/2
f 331/11/2 332/11/2 339/11/2
f 339/11/2 332/11/2 340/11/2
f 333/11/2 334/11/2 341/11/2
f 341/11/2 334/11/2 342/11/2
f 335/11/2 329/11/2 343/11/2
f 336/11/2 337/11/2 345/11/2
f 345/11/2 337/11/2 346/11/2
f 342/11/2 343/11/2 347/11/2
f 341/11/2 342/11/2 347/11/2
f 328/11/2 338/11/2 347/11/2
f 339/11/2 340/11/2 347/11/2
f 338/11/2 339/11/2 347/11/2
f 340/11/2 341/11/2 347/11/2
f 347/11/2 343/11/2 348/11/2
f 348/11/2 343/11/2 349/11/2
f 349/11/2 343/11/2 350/11/2
f 343/11/2 329/11/2 351/11/2
f 350/11/2 343/11/2 351/11/2
f 351/11/2 329/11/2 352/11/2
f 352/11/2 329/11/2 353/11/2
f 353/11/2 329/11/2 354/11/2
f 354/11/2 329/11/2 355/11/2
f 355/11/2 329/11/2 356/11/2
f 356/11/2 329/11/2 357/11/2
f 357/11/2 329/11/2 358/11/2
f 344/11/2 345/11/2 359/11/2
f 359/11/2 345/11/2 360/11/2
f 328/11/2 347/11/2 361/11/2
f 348/11/2 349/11/2 364/11/2
f 350/11/2 351/11/2 365/11/2
f 365/11/2 351/11/2 366/11/2
f 352/11/2 353/11/2 367/11/2
f 367/11/2 353/11/2 368/11/2
f 354/11/2 355/11/2 369/11/2
f 369/11/2 355/11/2 370/11/2
f 356/11/2 357/11/2 371/11/2
f 371/11/2 357/11/2 372/11/2
f 358/11/2 329/11/2 373/11/2
f 373/11/2 329/11/2 374/11/2
f 374/11/2 329/11/2 375/11/2
f 361/11/2 362/11/2 377/11/2
f 328/11/2 361/11/2 377/11/2
f 377/11/2 362/11/2 378/11/2
f 378/11/2 362/11/2 379/11/2
f 363/11/2 364/11/2 380/11/2
f 364/11/2 349/11/2 381/11/2
f 380/11/2 364/11/2 381/11/2
f 366/11/2 367/11/2 382/11/2
f 382/11/2 367/11/2 383/11/2
f 368/11/2 369/11/2 384/11/2
f 384/11/2 369/11/2 385/11/2
f 356/11/2 371/11/2 386/11/2
f 386/11/2 371/11/2 387/11/2
f 374/11/2 375/11/2 388/11/2
f 375/11/2 376/11/2 388/11/2
f 388/11/2 376/11/2 389/11/2
f 389/11/2 376/11/2 390/11/2
f 390/11/2 376/11/2 391/11/2
f 391/11/2 376/11/2 392/11/2
f 392/11/2 376/11/2 393/11/2
f 394/12/2 395/12/2 403/12/2
f 395/12/2 396/12/2 403/12/2
f 403/12/2 396/12/2 404/12/2
f 404/12/2 396/12/2 405/12/2
f 397/6/2 398/6/2 406/6/2
f 406/6/2 398/6/2 407/6/2
f 399/13/2 400/13/2 408/13/2
f 408/13/2 400/13/2 409/13/2
f 401/10/2 402/10/2 410/10/2
f 410/10/2 402/10/2 411/10/2
f 394/12/2 403/12/2 412/12/2
f 412/12/2 403/12/2 413/12/2
f 404/12/2 405/12/2 414/12/2
f 394/12/2 412/12/2 427/12/2
f 413/12/2 414/12/2 428/12/2
f 415/16/2 416/16/2 429/16/2
f 429/16/2 416/16/2 430/16/2
f 430/16/2 416/16/2 431/16/2
f 431/16/2 416/16/2 432/16/2
f 417/4/2 418/4/2 433/4/2
f 419/4/2 420/4/2 434/4/2
f 434/4/2 420/4/2 435/4/2
f 421/4/2 422/4/2 436/4/2
f 436/4/2 422/4/2 437/4/2
f 423/4/2 424/4/2 438/4/2
f 425/2/2 426/2/2 440/2/2
f 440/2/2 426/2/2 441/2/2
f 394/12/2 427/12/2 443/12/2
f 427/12/2 428/12/2 443/12/2
f 414/12/2 405/12/2 444/12/2
f 443/12/2 428/12/2 444/12/2
f 428/12/2 414/12/2 444/12/2
f 430/17/2 431/17/2 445/17/2
f 445/17/2 431/17/2 446/17/2
f 446/17/2 431/17/2 447/17/2
f 417/4/2 433/4/2 448/4/2
f 433/3/2 434/3/2 449/3/2
f 448/4/2 433/4/2 449/4/2
f 449/3/2 434/3/2 450/3/2
f 435/3/2 436/3/2 451/3/2
f 451/3/2 436/3/2 452/3/2
f 437/3/2 438/3/2 453/3/2
f 438/4/2 424/4/2 454/4/2
f 453/3/2 438/3/2 454/3/2
f 454/4/2 424/4/2 455/4/2
f 439/2/2 440/2/2 456/2/2
f 440/1/2 441/1/2 457/1/2
f 456/2/2 440/2/2 457/2/2
f 441/2/2 442/2/2 458/2/2
f 457/1/2 441/1/2 458/1/2
f 458/2/2 442/2/2 459/2/2
f 460/19/2 461/19/2 472/19/2
f 472/19/2 461/19/2 473/19/2
f 462/19/2 463/19/2 474/19/2
f 474/19/2 463/19/2 475/19/2
f 464/19/2 465/19/2 476/19/2
f 476/19/2 465/19/2 477/19/2
f 466/11/2 467/11/2 478/11/2
f 478/11/2 467/11/2 479/11/2
f 468/11/2 469/11/2 480/11/2
f 480/11/2 469/11/2 481/11/2
f 470/11/2 471/11/2 482/11/2
f 482/11/2 471/11/2 483/11/2
f 484/15/2 485/15/2 488/15/2
f 485/19/2 486/19/2 489/19/2
f 488/15/2 485/15/2 489/15/2
f 486/15/2 487/15/2 490/15/2
f 489/19/2 486/19/2 490/19/2
f 490/15/2 487/15/2 491/15/2
f 484/15/2 488/15/2 492/15/2
f 492/15/2 488/15/2 493/15/2
f 491/15/2 487/15/2 494/15/2
f 494/15/2 487/15/2 495/15/2
f 492/21/2 493/21/2 496/21/2
f 496/21/2 493/21/2 497/21/2
f 496/15/2 497/15/2 498/15/2
f 498/15/2 497/15/2 499/15/2
f 494/19/2 495/19/2 500/19/2
f 500/19/2 495/19/2 501/19/2
f 512/11/2 513/11/2 518/11/2
f 506/11/2 507/11/2 519/11/2
f 519/11/2 507/11/2 520/11/2
f 508/11/2 509/11/2 523/11/2
f 523/11/2 509/11/2 524/11/2
f 502/11/2 503/11/2 525/11/2
f 525/11/2 503/11/2 526/11/2
f 504/11/2 505/11/2 527/11/2
f 527/11/2 505/11/2 528/11/2
f 514/11/2 515/11/2 529/11/2
f 529/11/2 515/11/2 530/11/2
f 516/11/2 517/11/2 531/11/2
f 531/11/2 517/11/2 532/11/2
f 510/11/2 511/11/2 535/11/2
f 535/11/2 511/11/2 536/11/2
f 512/11/2 518/11/2 537/11/2
f 537/11/2 518/11/2 538/11/2
f 521/11/2 522/11/2 539/11/2
f 539/11/2 522/11/2 540/11/2
f 533/11/2 534/11/2 541/11/2
f 541/11/2 534/11/2 542/11/2
f 529/7/2 530/7/2 545/7/2
f 545/7/2 530/7/2 546/7/2
f 531/7/2 532/7/2 547/7/2
f 547/7/2 532/7/2 548/7/2
f 525/7/2 526/7/2 551/7/2
f 551/7/2 526/7/2 552/7/2
f 527/7/2 528/7/2 553/7/2
f 553/7/2 528/7/2 554/7/2
f 519/7/2 520/7/2 555/7/2
f 555/7/2 520/7/2 556/7/2
f 543/11/2 544/11/2 557/11/2
f 557/11/2 544/11/2 558/11/2
f 539/7/2 540/7/2 559/7/2
f 559/7/2 540/7/2 560/7/2
f 541/7/2 542/7/2 561/7/2
f 561/7/2 542/7/2 562/7/2
f 549/11/2 550/11/2 563/11/2
f 563/11/2 550/11/2 564/11/2
f 523/7/2 524/7/2 565/7/2
f 565/7/2 524/7/2 566/7/2
f 535/7/2 536/7/2 567/7/2
f 567/7/2 536/7/2 568/7/2
f 537/7/2 538/7/2 569/7/2
f 569/7/2 538/7/2 570/7/2
f 557/7/2 558/7/2 571/7/2
f 571/7/2 558/7/2 572/7/2
f 563/7/2 564/7/2 573/7/2
f 573/7/2 564/7/2 574/7/2
f 551/8/2 552/8/2 575/8/2
f 575/8/2 552/8/2 576/8/2
f 553/8/2 554/8/2 577/8/2
f 577/8/2 554/8/2 578/8/2
f 555/8/2 556/8/2 579/8/2
f 579/8/2 556/8/2 580/8/2
f 571/8/2 572/8/2 581/8/2
f 581/8/2 572/8/2 582/8/2
f 559/8/2 560/8/2 583/8/2
f 583/8/2 560/8/2 584/8/2
f 561/8/2 562/8/2 585/8/2
f 585/8/2 562/8/2 586/8/2
f 573/8/2 574/8/2 587/8/2
f 587/8/2 574/8/2 588/8/2
f 565/8/2 566/8/2 589/8/2
f 589/8/2 566/8/2 590/8/2
f 567/8/2 568/8/2 591/8/2
f 591/8/2 568/8/2 592/8/2
f 569/8/2 570/8/2 593/8/2
f 593/8/2 570/8/2 594/8/2
f 581/7/2 582/7/2 595/7/2
f 595/7/2 582/7/2 596/7/2
f 545/8/2 546/8/2 597/8/2
f 597/8/2 546/8/2 598/8/2
f 547/8/2 548/8/2 599/8/2
f 599/8/2 548/8/2 600/8/2
f 587/7/2 588/7/2 601/7/2
f 601/7/2 588/7/2 602/7/2
f 595/11/2 596/11/2 603/11/2
f 603/11/2 596/11/2 604/11/2
f 583/7/2 584/7/2 605/7/2
f 605/7/2 584/7/2 606/7/2
f 585/7/2 586/7/2 607/7/2
f 607/7/2 586/7/2 608/7/2
f 601/11/2 602/11/2 609/11/2
f 609/11/2 602/11/2 610/11/2
f 575/7/2 576/7/2 611/7/2
f 611/7/2 576/7/2 612/7/2
f 577/7/2 578/7/2 613/7/2
f 613/7/2 578/7/2 614/7/2
f 597/7/2 598/7/2 615/7/2
f 615/7/2 598/7/2 616/7/2
f 599/7/2 600/7/2 617/7/2
f 617/7/2 600/7/2 618/7/2
f 591/7/2 592/7/2 619/7/2
f 619/7/2 592/7/2 620/7/2
f 593/7/2 594/7/2 621/7/2
f 621/7/2 594/7/2 622/7/2
f 579/7/2 580/7/2 623/7/2
f 623/7/2 580/7/2 624/7/2
f 589/7/2 590/7/2 625/7/2
f 625/7/2 590/7/2 626/7/2
f 605/11/2 606/11/2 627/11/2
f 627/11/2 606/11/2 628/11/2
f 607/11/2 608/11/2 629/11/2
f 629/11/2 608/11/2 630/11/2
f 611/11/2 612/11/2 631/11/2
f 631/11/2 612/11/2 632/11/2
f 632/11/2 612/11/2 633/11/2
f 613/11/2 614/11/2 634/11/2
f 634/11/2 614/11/2 635/11/2
f 623/11/2 624/11/2 636/11/2
f 636/11/2 624/11/2 637/11/2
f 615/11/2 616/11/2 638/11/2
f 638/11/2 616/11/2 639/11/2
f 617/11/2 618/11/2 640/11/2
f 640/11/2 618/11/2 641/11/2
f 625/11/2 626/11/2 642/11/2
f 642/11/2 626/11/2 643/11/2
f 619/11/2 620/11/2 644/11/2
f 644/11/2 620/11/2 645/11/2
f 621/11/2 622/11/2 646/11/2
f 646/11/2 622/11/2 647/11/2
f 654/19/2 655/19/2 662/19/2
f 662/19/2 655/19/2 663/19/2
f 663/19/2 655/19/2 664/19/2
f 664/19/2 655/19/2 665/19/2
f 660/15/2 661/15/2 666/15/2
f 666/15/2 661/15/2 667/15/2
f 654/19/2 662/19/2 668/19/2
f 668/19/2 662/19/2 669/19/2
f 665/19/2 655/19/2 670/19/2
f 670/19/2 655/19/2 671/19/2
f 654/19/2 668/19/2 672/19/2
f 672/19/2 668/19/2 673/19/2
f 671/19/2 655/19/2 674/19/2
f 674/19/2 655/19/2 675/19/2
f 654/19/2 672/19/2 676/19/2
f 673/19/2 668/19/2 677/19/2
f 671/19/2 674/19/2 678/19/2
f 675/19/2 655/19/2 679/19/2
f 676/19/2 677/19/2 680/19/2
f 677/19/2 668/19/2 680/19/2
f 669/19/2 662/19/2 681/19/2
f 665/19/2 670/19/2 682/19/2
f 671/19/2 678/19/2 683/19/2
f 678/19/2 679/19/2 683/19/2
f 648/21/2 649/21/2 684/21/2
f 684/21/2 649/21/2 685/21/2
f 680/19/2 681/19/2 686/19/2
f 681/19/2 662/19/2 686/19/2
f 663/19/2 664/19/2 687/19/2
f 687/19/2 664/19/2 688/19/2
f 682/19/2 683/19/2 689/19/2
f 665/19/2 682/19/2 689/19/2
f 684/15/2 685/15/2 690/15/2
f 690/15/2 685/15/2 691/15/2
f 650/19/2 651/19/2 692/19/2
f 692/19/2 651/19/2 693/19/2
f 652/19/2 653/19/2 694/19/2
f 694/19/2 653/19/2 695/19/2
f 687/19/2 688/19/2 696/19/2
f 676/19/2 680/19/2 696/19/2
f 680/19/2 686/19/2 696/19/2
f 654/19/2 676/19/2 696/19/2
f 688/19/2 689/19/2 696/19/2
f 686/19/2 687/19/2 696/19/2
f 696/19/2 689/19/2 697/19/2
f 689/19/2 683/19/2 698/19/2
f 697/19/2 689/19/2 698/19/2
f 679/19/2 655/19/2 698/19/2
f 683/19/2 679/19/2 698/19/2
f 698/19/2 655/19/2 699/19/2
f 656/19/2 657/19/2 700/19/2
f 700/19/2 657/19/2 701/19/2
f 658/19/2 659/19/2 702/19/2
f 702/19/2 659/19/2 703/19/2
f 666/21/2 667/21/2 704/21/2
f 704/21/2 667/21/2 705/21/2
f 697/19/2 698/19/2 706/19/2
f 706/19/2 698/19/2 707/19/2
f 707/19/2 698/19/2 708/19/2
f 708/19/2 698/19/2 709/19/2
f 707/19/2 708/19/2 710/19/2
f 710/19/2 708/19/2 711/19/2
f 718/15/3 713/15/3 712/15/3
f 719/21/3 714/21/3 713/21/3
f 719/15/3 713/15/3 718/15/3
f 720/4/3 715/4/3 714/4/3
f 720/21/3 714/21/3 719/21/3
f 721/4/3 715/4/3 720/4/3
f 722/4/3 715/4/3 721/4/3
f 723/4/3 715/4/3 722/4/3
f 724/4/3 715/4/3 723/4/3
f 725/4/3 715/4/3 724/4/3
f 726/4/3 715/4/3 725/4/3
f 727/21/3 716/21/3 715/21/3
f 727/4/3 715/4/3 726/4/3
f 728/15/3 717/15/3 716/15/3
f 728/21/3 716/21/3 727/21/3
f 729/15/3 717/15/3 728/15/3
f 730/15/3 717/15/3 729/15/3
f 731/15/3 718/15/3 712/15/3
f 732/19/3 719/19/3 718/19/3
f 732/15/3 718/15/3 731/15/3
f 732/19/3 720/19/3 719/19/3
f 733/4/3 721/4/3 720/4/3
f 733/5/3 722/5/3 721/5/3
f 734/4/3 723/4/3 722/4/3
f 734/5/3 722/5/3 733/5/3
f 735/4/3 733/4/3 720/4/3
f 735/4/3 734/4/3 733/4/3
f 736/4/3 723/4/3 734/4/3
f 736/4/3 734/4/3 735/4/3
f 737/5/3 726/5/3 725/5/3
f 737/4/3 725/4/3 724/4/3
f 738/4/3 727/4/3 726/4/3
f 738/5/3 726/5/3 737/5/3
f 741/21/3 732/21/3 731/21/3
f 742/4/3 737/4/3 724/4/3
f 742/4/3 738/4/3 737/4/3
f 743/4/3 727/4/3 738/4/3
f 743/4/3 738/4/3 742/4/3
f 744/21/3 730/21/3 729/21/3
f 744/19/3 728/19/3 727/19/3
f 744/19/3 729/19/3 728/19/3
f 745/21/3 730/21/3 744/21/3
f 746/21/3 741/21/3 740/21/3
f 746/15/3 740/15/3 739/15/3
f 747/21/3 741/21/3 746/21/3
f 748/19/3 720/19/3 732/19/3
f 748/21/3 741/21/3 747/21/3
f 748/21/3 732/21/3 741/21/3
f 749/4/3 735/4/3 720/4/3
f 749/5/3 736/5/3 735/5/3
f 750/4/3 723/4/3 736/4/3
f 750/5/3 736/5/3 749/5/3
f 751/5/3 724/5/3 723/5/3
f 751/4/3 723/4/3 750/4/3
f 752/4/3 742/4/3 724/4/3
f 752/5/3 724/5/3 751/5/3
f 753/5/3 743/5/3 742/5/3
f 753/4/3 742/4/3 752/4/3
f 754/4/3 727/4/3 743/4/3
f 754/5/3 743/5/3 753/5/3
f 755/19/3 744/19/3 727/19/3
f 756/15/3 745/15/3 744/15/3
f 756/19/3 744/19/3 755/19/3
f 757/15/3 747/15/3 746/15/3
f 757/15/3 746/15/3 739/15/3
f 758/19/3 748/19/3 747/19/3
f 758/15/3 747/15/3 757/15/3
f 759/4/3 749/4/3 720/4/3
f 759/19/3 748/19/3 758/19/3
f 759/4/3 753/4/3 752/4/3
f 759/4/3 754/4/3 753/4/3
f 759/19/3 720/19/3 748/19/3
f 759/4/3 751/4/3 750/4/3
f 759/4/3 750/4/3 749/4/3
f 759/4/3 752/4/3 751/4/3
f 760/4/3 727/4/3 754/4/3
f 760/4/3 754/4/3 759/4/3
f 760/19/3 755/19/3 727/19/3
f 761/15/3 756/15/3 755/15/3
f 761/19/3 755/19/3 760/19/3
f 762/15/3 745/15/3 756/15/3
f 762/15/3 756/15/3 761/15/3
f 769/19/3 765/19/3 764/19/3
f 769/19/3 766/19/3 765/19/3
f 769/19/3 767/19/3 766/19/3
f 770/19/3 767/19/3 769/19/3
f 771/19/3 769/19/3 764/19/3
f 771/15/3 770/15/3 769/15/3
f 772/19/3 767/19/3 770/19/3
f 772/15/3 770/15/3 771/15/3
f 773/19/3 772/19/3 771/19/3
f 773/19/3 767/19/3 772/19/3
f 774/19/3 767/19/3 773/19/3
f 775/19/3 771/19/3 764/19/3
f 775/19/3 773/19/3 771/19/3
f 776/19/3 773/19/3 775/19/3
f 777/15/3 774/15/3 773/15/3
f 777/19/3 773/19/3 776/19/3
f 778/19/3 767/19/3 774/19/3
f 778/15/3 774/15/3 777/15/3
f 779/15/3 776/15/3 775/15/3
f 779/19/3 775/19/3 764/19/3
f 780/19/3 777/19/3 776/19/3
f 780/15/3 776/15/3 779/15/3
f 780/19/3 778/19/3 777/19/3
f 781/19/3 780/19/3 779/19/3
f 781/19/3 778/19/3 780/19/3
f 782/19/3 778/19/3 781/19/3
f 783/21/3 764/21/3 763/21/3
f 784/19/3 779/19/3 764/19/3
f 784/21/3 764/21/3 783/21/3
f 784/19/3 781/19/3 779/19/3
f 785/15/3 782/15/3 781/15/3
f 785/19/3 781/19/3 784/19/3
f 786/19/3 778/19/3 782/19/3
f 786/15/3 782/15/3 785/15/3
f 787/21/3 768/21/3 767/21/3
f 787/19/3 778/19/3 786/19/3
f 787/19/3 767/19/3 778/19/3
f 788/21/3 768/21/3 787/21/3
f 789/19/3 785/19/3 784/19/3
f 789/19/3 786/19/3 785/19/3
f 789/15/3 784/15/3 783/15/3
f 789/19/3 787/19/3 786/19/3
f 790/19/3 787/19/3 789/19/3
f 791/19/3 787/19/3 790/19/3
f 792/15/3 788/15/3 787/15/3
f 792/19/3 787/19/3 791/19/3
f 793/15/3 789/15/3 783/15/3
f 793/15/3 790/15/3 789/15/3
f 794/19/3 791/19/3 790/19/3
f 794/15/3 790/15/3 793/15/3
f 795/15/3 792/15/3 791/15/3
f 795/19/3 791/19/3 794/19/3
f 796/15/3 788/15/3 792/15/3
f 796/15/3 792/15/3 795/15/3
f 799/11/3 798/11/3 797/11/3
f 800/11/3 798/11/3 799/11/3
f 807/19/3 803/19/3 802/19/3
f 807/15/3 804/15/3 803/15/3
f 808/19/3 805/19/3 804/19/3
f 808/15/3 804/15/3 807/15/3
f 809/19/3 808/19/3 807/19/3
f 810/19/3 805/19/3 808/19/3
f 810/19/3 808/19/3 809/19/3
f 811/19/3 809/19/3 807/19/3
f 811/15/3 810/15/3 809/15/3
f 812/19/3 805/19/3 810/19/3
f 812/15/3 810/15/3 811/15/3
f 813/19/3 807/19/3 802/19/3
f 813/19/3 811/19/3 807/19/3
f 813/19/3 812/19/3 811/19/3
f 814/19/3 812/19/3 813/19/3
f 815/19/3 805/19/3 812/19/3
f 815/19/3 812/19/3 814/19/3
f 816/19/3 805/19/3 815/19/3
f 817/15/3 814/15/3 813/15/3
f 817/19/3 813/19/3 802/19/3
f 818/19/3 815/19/3 814/19/3
f 818/15/3 814/15/3 817/15/3
f 819/15/3 816/15/3 815/15/3
f 819/19/3 815/19/3 818/19/3
f 820/19/3 805/19/3 816/19/3
f 820/15/3 816/15/3 819/15/3
f 821/21/3 802/21/3 801/21/3
f 822/19/3 819/19/3 818/19/3
f 822/21/3 802/21/3 821/21/3
f 822/19/3 818/19/3 817/19/3
f 822/19/3 820/19/3 819/19/3
f 822/19/3 817/19/3 802/19/3
f 823/19/3 820/19/3 822/19/3
f 824/19/3 820/19/3 823/19/3
f 825/19/3 805/19/3 820/19/3
f 825/19/3 820/19/3 824/19/3
f 825/21/3 806/21/3 805/21/3
f 826/21/3 806/21/3 825/21/3
f 827/19/3 823/19/3 822/19/3
f 827/15/3 822/15/3 821/15/3
f 828/19/3 823/19/3 827/19/3
f 829/15/3 824/15/3 823/15/3
f 829/19/3 823/19/3 828/19/3
f 830/19/3 825/19/3 824/19/3
f 830/15/3 824/15/3 829/15/3
f 831/19/3 825/19/3 830/19/3
f 832/15/3 826/15/3 825/15/3
f 832/19/3 825/19/3 831/19/3
f 833/15/3 828/15/3 827/15/3
f 833/15/3 827/15/3 821/15/3
f 834/19/3 831/19/3 830/19/3
f 834/15/3 828/15/3 833/15/3
f 834/19/3 829/19/3 828/19/3
f 834/19/3 830/19/3 829/19/3
f 835/15/3 832/15/3 831/15/3
f 835/19/3 831/19/3 834/19/3
f 836/15/3 826/15/3 832/15/3
f 836/15/3 832/15/3 835/15/3
f 840/19/3 838/19/3 837/19/3
f 841/15/3 839/15/3 838/15/3
f 841/19/3 838/19/3 840/19/3
f 842/15/3 839/15/3 841/15/3
f 847/19/3 845/19/3 844/19/3
f 848/19/3 845/19/3 847/19/3
f 849/19/3 847/19/3 844/19/3
f 849/15/3 848/15/3 847/15/3
f 850/19/3 845/19/3 848/19/3
f 850/15/3 848/15/3 849/15/3
f 851/21/3 844/21/3 843/21/3
f 852/19/3 849/19/3 844/19/3
f 852/21/3 844/21/3 851/21/3
f 852/19/3 850/19/3 849/19/3
f 853/15/3 852/15/3 851/15/3
f 853/19/3 850/19/3 852/19/3
f 854/19/3 850/19/3 853/19/3
f 855/19/3 850/19/3 854/19/3
f 856/19/3 850/19/3 855/19/3
f 857/19/3 845/19/3 850/19/3
f 857/19/3 850/19/3 856/19/3
f 858/19/3 845/19/3 857/19/3
f 859/15/3 853/15/3 851/15/3
f 859/15/3 854/15/3 853/15/3
f 860/21/3 855/21/3 854/21/3
f 860/15/3 854/15/3 859/15/3
f 861/15/3 856/15/3 855/15/3
f 861/21/3 855/21/3 860/21/3
f 862/15/3 856/15/3 861/15/3
f 863/15/3 858/15/3 857/15/3
f 863/19/3 857/19/3 856/19/3
f 864/19/3 845/19/3 858/19/3
f 864/15/3 858/15/3 863/15/3
f 865/21/3 846/21/3 845/21/3
f 865/19/3 845/19/3 864/19/3
f 866/21/3 846/21/3 865/21/3
f 867/15/3 856/15/3 862/15/3
f 868/19/3 864/19/3 863/19/3
f 868/15/3 856/15/3 867/15/3
f 868/19/3 863/19/3 856/19/3
f 868/19/3 865/19/3 864/19/3
f 869/19/3 865/19/3 868/19/3
f 870/15/3 866/15/3 865/15/3
f 870/19/3 865/19/3 869/19/3
f 871/21/3 869/21/3 868/21/3
f 871/21/3 868/21/3 867/21/3
f 872/15/3 870/15/3 869/15/3
f 872/21/3 869/21/3 871/21/3
f 873/15/3 866/15/3 870/15/3
f 873/15/3 870/15/3 872/15/3
f 879/19/3 875/19/3 874/19/3
f 880/15/3 876/15/3 875/15/3
f 880/19/3 875/19/3 879/19/3
f 881/15/3 876/15/3 880/15/3
f 882/19/3 878/19/3 877/19/3
f 883/19/3 878/19/3 882/19/3
f 886/16/3 885/16/3 884/16/3
f 887/16/3 885/16/3 886/16/3
f 895/19/3 889/19/3 888/19/3
f 896/19/3 894/19/3 893/19/3
f 896/19/3 895/19/3 894/19/3
f 896/19/3 891/19/3 890/19/3
f 896/19/3 892/19/3 891/19/3
f 896/19/3 893/19/3 892/19/3
f 897/19/3 889/19/3 895/19/3
f 897/19/3 895/19/3 896/19/3
f 900/17/3 899/17/3 898/17/3
f 901/17/3 899/17/3 900/17/3
f 904/6/3 903/6/3 902/6/3
f 905/6/3 903/6/3 904/6/3
f 913/19/3 907/19/3 906/19/3
f 914/19/3 912/19/3 911/19/3
f 914/19/3 913/19/3 912/19/3
f 914/19/3 909/19/3 908/19/3
f 914/19/3 910/19/3 909/19/3
f 914/19/3 911/19/3 910/19/3
f 915/19/3 907/19/3 913/19/3
f 915/19/3 913/19/3 914/19/3
f 920/19/3 917/19/3 916/19/3
f 921/19/3 917/19/3 920/19/3
f 922/19/3 919/19/3 918/19/3
f 923/19/3 919/19/3 922/19/3
f 926/13/3 925/13/3 924/13/3
f 927/13/3 925/13/3 926/13/3
f 935/19/3 929/19/3 928/19/3
f 936/19/3 934/19/3 933/19/3
f 936/19/3 935/19/3 934/19/3
f 936/19/3 931/19/3 930/19/3
f 936/19/3 932/19/3 931/19/3
f 936/19/3 933/19/3 932/19/3
f 937/19/3 929/19/3 935/19/3
f 937/19/3 935/19/3 936/19/3
f 940/4/3 939/4/3 938/4/3
f 941/4/3 939/4/3 940/4/3
f 944/19/3 943/19/3 942/19/3
f 945/19/3 943/19/3 944/19/3
f 948/19/3 947/19/3 946/19/3
f 949/19/3 947/19/3 948/19/3
f 952/10/3 951/10/3 950/10/3
f 953/10/3 951/10/3 952/10/3
f 962/19/3 957/19/3 956/19/3
f 962/19/3 961/19/3 960/19/3
f 962/19/3 960/19/3 959/19/3
f 962/19/3 959/19/3 958/19/3
f 962/19/3 958/19/3 957/19/3
f 963/19/3 961/19/3 962/19/3
f 964/19/3 955/19/3 954/19/3
f 965/19/3 955/19/3 964/19/3
f 968/11/3 967/11/3 966/11/3
f 972/15/3 971/15/3 970/15/3
f 973/15/3 971/15/3 972/15/3
f 974/11/3 968/11/3 966/11/3
f 974/11/3 969/11/3 968/11/3
f 975/11/3 969/11/3 974/11/3
f 976/19/3 973/19/3 972/19/3
f 977/19/3 973/19/3 976/19/3
f 980/15/3 979/15/3 978/15/3
f 981/15/3 979/15/3 980/15/3
f 984/4/3 983/4/3 982/4/3
f 985/4/3 983/4/3 984/4/3
f 986/19/3 981/19/3 980/19/3
f 987/19/3 981/19/3 986/19/3
f 989/19/3 988/19/3 987/19/3
f 990/19/3 988/19/3 989/19/3
f 993/11/3 992/11/3 991/11/3
f 994/11/3 992/11/3 993/11/3
f 997/19/3 996/19/3 995/19/3
f 1000/3/3 999/3/3 998/3/3
f 1001/3/3 999/3/3 1000/3/3
f 1002/19/3 996/19/3 997/19/3
f 1003/19/3 996/19/3 1002/19/3
f 1010/19/3 1005/19/3 1004/19/3
f 1010/19/3 1009/19/3 1008/19/3
f 1010/19/3 1008/19/3 1007/19/3
f 1010/19/3 1007/19/3 1006/19/3
f 1010/19/3 1006/19/3 1005/19/3
f 1011/19/3 1009/19/3 1010/19/3
f 1016/15/3 1013/15/3 1012/15/3
f 1017/21/3 1014/21/3 1013/21/3
f 1017/15/3 1013/15/3 1016/15/3
f 1018/15/3 1015/15/3 1014/15/3
f 1018/21/3 1014/21/3 1017/21/3
f 1019/15/3 1015/15/3 1018/15/3
f 1020/11/3 1017/11/3 1016/11/3
f 1020/11/3 1018/11/3 1017/11/3
f 1020/11/3 1019/11/3 1018/11/3
f 1021/11/3 1019/11/3 1020/11/3
f 1024/4/3 1023/4/3 1022/4/3
f 1025/4/3 1023/4/3 1024/4/3
f 1028/3/3 1027/3/3 1026/3/3
f 1029/3/3 1027/3/3 1028/3/3
f 1036/19/3 1031/19/3 1030/19/3
f 1036/19/3 1035/19/3 1034/19/3
f 1036/19/3 1034/19/3 1033/19/3
f 1036/19/3 1033/19/3 1032/19/3
f 1036/19/3 1032/19/3 1031/19/3
f 1037/19/3 1035/19/3 1036/19/3
f 1040/4/3 1039/4/3 1038/4/3
f 1041/4/3 1039/4/3 1040/4/3
f 1044/19/3 1043/19/3 1042/19/3
f 1045/19/3 1043/19/3 1044/19/3
f 1048/2/3 1047/2/3 1046/2/3
f 1049/2/3 1047/2/3 1048/2/3
f 1056/19/3 1051/19/3 1050/19/3
f 1056/19/3 1055/19/3 1054/19/3
f 1056/19/3 1054/19/3 1053/19/3
f 1056/19/3 1053/19/3 1052/19/3
f 1056/19/3 1052/19/3 1051/19/3
f 1057/19/3 1055/19/3 1056/19/3
f 1060/19/3 1059/19/3 1058/19/3
f 1061/19/3 1059/19/3 1060/19/3
f 1064/2/3 1063/2/3 1062/2/3
f 1065/2/3 1063/2/3 1064/2/3
f 1072/19/3 1067/19/3 1066/19/3
f 1072/19/3 1071/19/3 1070/19/3
f 1072/19/3 1070/19/3 1069/19/3
f 1072/19/3 1069/19/3 1068/19/3
f 1072/19/3 1068/19/3 1067/19/3
f 1073/19/3 1071/19/3 1072/19/3
f 1080/19/3 1075/19/3 1074/19/3
f 1080/19/3 1079/19/3 1078/19/3
f 1080/19/3 1078/19/3 1077/19/3
f 1080/19/3 1077/19/3 1076/19/3
f 1080/19/3 1076/19/3 1075/19/3
f 1081/19/3 1079/19/3 1080/19/3
f 1084/12/3 1083/12/3 1082/12/3
f 1085/12/3 1083/12/3 1084/12/3
f 1093/19/3 1087/19/3 1086/19/3
f 1094/19/3 1092/19/3 1091/19/3
f 1094/19/3 1093/19/3 1092/19/3
f 1094/19/3 1089/19/3 1088/19/3
f 1094/19/3 1090/19/3 1089/19/3
f 1094/19/3 1091/19/3 1090/19/3
f 1095/19/3 1087/19/3 1093/19/3
f 1095/19/3 1093/19/3 1094/19/3
f 1098/12/3 1097/12/3 1096/12/3
f 1099/12/3 1097/12/3 1098/12/3
f 1102/12/3 1101/12/3 1100/12/3
f 1103/12/3 1101/12/3 1102/12/3
f 1111/19/3 1105/19/3 1104/19/3
f 1112/19/3 1110/19/3 1109/19/3
f 1112/19/3 1111/19/3 1110/19/3
f 1112/19/3 1107/19/3 1106/19/3
f 1112/19/3 1108/19/3 1107/19/3
f 1112/19/3 1109/19/3 1108/19/3
f 1113/19/3 1105/19/3 1111/19/3
f 1113/19/3 1111/19/3 1112/19/3
f 1118/19/3 1115/19/3 1114/19/3
f 1119/15/3 1117/15/3 1116/15/3
f 1120/19/3 1118/19/3 1117/19/3
f 1120/15/3 1117/15/3 1119/15/3
f 1121/19/3 1115/19/3 1118/19/3
f 1121/19/3 1118/19/3 1120/19/3
f 1130/21/3 1123/21/3 1122/21/3
f 1131/15/3 1125/15/3 1124/15/3
f 1132/21/3 1129/21/3 1128/21/3
f 1132/15/3 1125/15/3 1131/15/3
f 1132/21/3 1130/21/3 1129/21/3
f 1132/21/3 1126/21/3 1125/21/3
f 1132/21/3 1127/21/3 1126/21/3
f 1132/21/3 1128/21/3 1127/21/3
f 1133/21/3 1123/21/3 1130/21/3
f 1133/21/3 1130/21/3 1132/21/3
f 1136/19/3 1135/19/3 1134/19/3
f 1137/19/3 1135/19/3 1136/19/3
f 1138/19/3 1135/19/3 1137/19/3
f 1139/19/3 1135/19/3 1138/19/3
f 1140/19/3 1135/19/3 1139/19/3
f 1141/19/4 1142/19/4 1143/19/4
f 1143/19/4 1142/19/4 1144/19/4
f 1144/19/4 1142/19/4 1145/19/4
f 1145/19/4 1142/19/4 1146/19/4
f 1147/19/4 1148/19/4 1152/19/4
f 1148/15/4 1149/15/4 1153/15/4
f 1152/19/4 1148/19/4 1153/19/4
f 1153/15/4 1149/15/4 1154/15/4
f 1150/19/4 1151/19/4 1155/19/4
f 1155/19/4 1151/19/4 1156/19/4
f 1157/19/4 1158/19/4 1159/19/4
f 1159/19/4 1158/19/4 1160/19/4
f 1160/19/4 1158/19/4 1161/19/4
f 1161/19/4 1158/19/4 1162/19/4
f 1159/15/4 1160/15/4 1165/15/4
f 1160/21/4 1161/21/4 1166/21/4
f 1165/15/4 1160/15/4 1166/15/4
f 1161/15/4 1162/15/4 1167/15/4
f 1166/21/4 1161/21/4 1167/21/4
f 1167/15/4 1162/15/4 1168/15/4
f 1163/21/4 1164/21/4 1169/21/4
f 1169/21/4 1164/21/4 1170/21/4
f 1169/15/4 1170/15/4 1177/15/4
f 1175/21/4 1176/21/4 1178/21/4
f 1171/21/4 1172/21/4 1178/21/4
f 1172/21/4 1173/21/4 1178/21/4
f 1173/21/4 1174/21/4 1178/21/4
f 1174/21/4 1175/21/4 1178/21/4
f 1176/15/4 1177/15/4 1179/15/4
f 1178/21/4 1176/21/4 1179/21/4
f 1177/15/4 1170/15/4 1180/15/4
f 1179/15/4 1177/15/4 1180/15/4
f 1181/19/4 1182/19/4 1188/19/4
f 1186/19/4 1187/19/4 1189/19/4
f 1187/19/4 1188/19/4 1189/19/4
f 1183/19/4 1184/19/4 1189/19/4
f 1184/19/4 1185/19/4 1189/19/4
f 1185/19/4 1186/19/4 1189/19/4
f 1188/19/4 1182/19/4 1190/19/4
f 1189/19/4 1188/19/4 1190/19/4
f 1191/15/4 1192/15/4 1195/15/4
f 1195/15/4 1192/15/4 1196/15/4
f 1193/19/4 1194/19/4 1197/19/4
f 1197/19/4 1194/19/4 1198/19/4
f 1199/6/4 1200/6/4 1203/6/4
f 1203/6/4 1200/6/4 1204/6/4
f 1201/17/4 1202/17/4 1205/17/4
f 1205/17/4 1202/17/4 1206/17/4
f 1207/19/4 1208/19/4 1214/19/4
f 1212/19/4 1213/19/4 1215/19/4
f 1213/19/4 1214/19/4 1215/19/4
f 1209/19/4 1210/19/4 1215/19/4
f 1210/19/4 1211/19/4 1215/19/4
f 1211/19/4 1212/19/4 1215/19/4
f 1214/19/4 1208/19/4 1216/19/4
f 1215/19/4 1214/19/4 1216/19/4
f 1217/16/4 1218/16/4 1219/16/4
f 1219/16/4 1218/16/4 1220/16/4
f 1221/13/4 1222/13/4 1223/13/4
f 1223/13/4 1222/13/4 1224/13/4
f 1225/19/4 1226/19/4 1231/19/4
f 1229/19/4 1230/19/4 1231/19/4
f 1228/19/4 1229/19/4 1231/19/4
f 1227/19/4 1228/19/4 1231/19/4
f 1226/19/4 1227/19/4 1231/19/4
f 1231/19/4 1230/19/4 1232/19/4
f 1233/4/4 1234/4/4 1235/4/4
f 1235/4/4 1234/4/4 1236/4/4
f 1237/10/4 1238/10/4 1241/10/4
f 1241/10/4 1238/10/4 1242/10/4
f 1239/3/4 1240/3/4 1243/3/4
f 1243/3/4 1240/3/4 1244/3/4
f 1245/19/4 1246/19/4 1251/19/4
f 1249/19/4 1250/19/4 1251/19/4
f 1248/19/4 1249/19/4 1251/19/4
f 1247/19/4 1248/19/4 1251/19/4
f 1246/19/4 1247/19/4 1251/19/4
f 1251/19/4 1250/19/4 1252/19/4
f 1253/15/4 1254/15/4 1257/15/4
f 1257/15/4 1254/15/4 1258/15/4
f 1255/15/4 1256/15/4 1259/15/4
f 1259/15/4 1256/15/4 1260/15/4
f 1261/4/4 1262/4/4 1263/4/4
f 1263/4/4 1262/4/4 1264/4/4
f 1265/3/4 1266/3/4 1267/3/4
f 1267/3/4 1266/3/4 1268/3/4
f 1269/19/4 1270/19/4 1275/19/4
f 1273/19/4 1274/19/4 1275/19/4
f 1272/19/4 1273/19/4 1275/19/4
f 1271/19/4 1272/19/4 1275/19/4
f 1270/19/4 1271/19/4 1275/19/4
f 1275/19/4 1274/19/4 1276/19/4
f 1277/11/4 1278/11/4 1281/11/4
f 1281/11/4 1278/11/4 1282/11/4
f 1279/19/4 1280/19/4 1283/19/4
f 1283/19/4 1280/19/4 1284/19/4
f 1285/4/4 1286/4/4 1287/4/4
f 1287/4/4 1286/4/4 1288/4/4
f 1289/19/4 1290/19/4 1291/19/4
f 1291/19/4 1290/19/4 1292/19/4
f 1293/4/4 1294/4/4 1295/4/4
f 1295/4/4 1294/4/4 1296/4/4
f 1297/19/4 1298/19/4 1303/19/4
f 1301/19/4 1302/19/4 1303/19/4
f 1300/19/4 1301/19/4 1303/19/4
f 1299/19/4 1300/19/4 1303/19/4
f 1298/19/4 1299/19/4 1303/19/4
f 1303/19/4 1302/19/4 1304/19/4
f 1305/19/4 1306/19/4 1307/19/4
f 1307/19/4 1306/19/4 1308/19/4
f 1308/19/4 1306/19/4 1309/19/4
f 1310/19/4 1311/19/4 1316/19/4
f 1314/19/4 1315/19/4 1316/19/4
f 1313/19/4 1314/19/4 1316/19/4
f 1312/19/4 1313/19/4 1316/19/4
f 1311/19/4 1312/19/4 1316/19/4
f 1316/19/4 1315/19/4 1317/19/4
f 1318/15/4 1319/15/4 1320/15/4
f 1320/15/4 1319/15/4 1321/15/4
f 1322/11/4 1323/11/4 1324/11/4
f 1324/11/4 1323/11/4 1325/11/4
f 1320/19/4 1321/19/4 1326/19/4
f 1326/19/4 1321/19/4 1327/19/4
f 1328/15/4 1329/15/4 1330/15/4
f 1330/15/4 1329/15/4 1331/15/4
f 1330/19/4 1331/19/4 1332/19/4
f 1332/19/4 1331/19/4 1333/19/4
f 1333/19/4 1334/19/4 1335/19/4
f 1335/19/4 1334/19/4 1336/19/4
f 1337/11/4 1338/11/4 1339/11/4
f 1337/11/4 1339/11/4 1341/11/4
f 1339/11/4 1340/11/4 1341/11/4
f 1341/11/4 1340/11/4 1342/11/4
f 1343/2/4 1344/2/4 1345/2/4
f 1345/2/4 1344/2/4 1346/2/4
f 1349/19/4 1350/19/4 1355/19/4
f 1353/19/4 1354/19/4 1355/19/4
f 1352/19/4 1353/19/4 1355/19/4
f 1351/19/4 1352/19/4 1355/19/4
f 1350/19/4 1351/19/4 1355/19/4
f 1355/19/4 1354/19/4 1356/19/4
f 1347/19/4 1348/19/4 1357/19/4
f 1357/19/4 1348/19/4 1358/19/4
f 1359/2/4 1360/2/4 1361/2/4
f 1361/2/4 1360/2/4 1362/2/4
f 1363/19/4 1364/19/4 1365/19/4
f 1365/19/4 1364/19/4 1366/19/4
f 1367/19/4 1368/19/4 1374/19/4
f 1372/19/4 1373/19/4 1375/19/4
f 1373/19/4 1374/19/4 1375/19/4
f 1369/19/4 1370/19/4 1375/19/4
f 1370/19/4 1371/19/4 1375/19/4
f 1371/19/4 1372/19/4 1375/19/4
f 1374/19/4 1368/19/4 1376/19/4
f 1375/19/4 1374/19/4 1376/19/4
f 1377/12/4 1378/12/4 1379/12/4
f 1379/12/4 1378/12/4 1380/12/4
f 1381/12/4 1382/12/4 1383/12/4
f 1383/12/4 1382/12/4 1384/12/4
f 1385/19/4 1386/19/4 1392/19/4
f 1390/19/4 1391/19/4 1393/19/4
f 1391/19/4 1392/19/4 1393/19/4
f 1387/19/4 1388/19/4 1393/19/4
f 1388/19/4 1389/19/4 1393/19/4
f 1389/19/4 1390/19/4 1393/19/4
f 1392/19/4 1386/19/4 1394/19/4
f 1393/19/4 1392/19/4 1394/19/4
f 1395/19/4 1396/19/4 1402/19/4
f 1400/19/4 1401/19/4 1403/19/4
f 1401/19/4 1402/19/4 1403/19/4
f 1397/19/4 1398/19/4 1403/19/4
f 1398/19/4 1399/19/4 1403/19/4
f 1399/19/4 1400/19/4 1403/19/4
f 1402/19/4 1396/19/4 1404/19/4
f 1403/19/4 1402/19/4 1404/19/4
f 1406/19/4 1407/19/4 1410/19/4
f 1408/19/4 1409/19/4 1410/19/4
f 1407/19/4 1408/19/4 1410/19/4
f 1405/15/4 1406/15/4 1411/15/4
f 1406/19/4 1410/19/4 1411/19/4
f 1411/19/4 1410/19/4 1412/19/4
f 1405/15/4 1411/15/4 1413/15/4
f 1411/15/4 1412/15/4 1413/15/4
f 1412/19/4 1410/19/4 1414/19/4
f 1413/15/4 1412/15/4 1414/15/4
f 1414/19/4 1410/19/4 1415/19/4
f 1416/15/4 1417/15/4 1420/15/4
f 1417/19/4 1418/19/4 1420/19/4
f 1420/19/4 1418/19/4 1421/19/4
f 1421/19/4 1418/19/4 1422/19/4
f 1422/19/4 1418/19/4 1423/19/4
f 1416/15/4 1420/15/4 1424/15/4
f 1420/15/4 1421/15/4 1424/15/4
f 1421/21/4 1422/21/4 1425/21/4
f 1424/15/4 1421/15/4 1425/15/4
f 1422/15/4 1423/15/4 1426/15/4
f 1425/21/4 1422/21/4 1426/21/4
f 1426/15/4 1423/15/4 1427/15/4
f 1423/19/4 1418/19/4 1428/19/4
f 1428/19/4 1418/19/4 1429/19/4
f 1429/19/4 1418/19/4 1430/19/4
f 1430/19/4 1418/19/4 1431/19/4
f 1427/15/4 1423/15/4 1432/15/4
f 1423/19/4 1428/19/4 1433/19/4
f 1432/15/4 1423/15/4 1433/15/4
f 1428/15/4 1429/15/4 1434/15/4
f 1433/19/4 1428/19/4 1434/19/4
f 1429/19/4 1430/19/4 1435/19/4
f 1434/15/4 1429/15/4 1435/15/4
f 1430/15/4 1431/15/4 1436/15/4
f 1435/19/4 1430/19/4 1436/19/4
f 1431/19/4 1418/19/4 1437/19/4
f 1436/15/4 1431/15/4 1437/15/4
f 1432/21/4 1433/21/4 1438/21/4
f 1435/19/4 1436/19/4 1439/19/4
f 1438/21/4 1433/21/4 1439/21/4
f 1434/19/4 1435/19/4 1439/19/4
f 1436/19/4 1437/19/4 1439/19/4
f 1433/19/4 1434/19/4 1439/19/4
f 1439/19/4 1437/19/4 1440/19/4
f 1440/19/4 1437/19/4 1441/19/4
f 1438/15/4 1439/15/4 1442/15/4
f 1439/19/4 1440/19/4 1442/19/4
f 1442/19/4 1440/19/4 1443/19/4
f 1440/15/4 1441/15/4 1444/15/4
f 1443/19/4 1440/19/4 1444/19/4
f 1441/19/4 1437/19/4 1445/19/4
f 1444/15/4 1441/15/4 1445/15/4
f 1418/21/4 1419/21/4 1446/21/4
f 1445/19/4 1437/19/4 1446/19/4
f 1437/19/4 1418/19/4 1446/19/4
f 1438/15/4 1442/15/4 1447/15/4
f 1442/15/4 1443/15/4 1447/15/4
f 1444/21/4 1445/21/4 1448/21/4
f 1447/15/4 1443/15/4 1448/15/4
f 1443/21/4 1444/21/4 1448/21/4
f 1445/21/4 1446/21/4 1448/21/4
f 1446/21/4 1419/21/4 1449/21/4
f 1448/21/4 1446/21/4 1449/21/4
f 1451/19/4 1452/19/4 1454/19/4
f 1454/19/4 1452/19/4 1455/19/4
f 1451/19/4 1454/19/4 1456/19/4
f 1456/19/4 1454/19/4 1457/19/4
f 1454/15/4 1455/15/4 1458/15/4
f 1457/19/4 1454/19/4 1458/19/4
f 1455/19/4 1452/19/4 1459/19/4
f 1458/15/4 1455/15/4 1459/15/4
f 1456/15/4 1457/15/4 1460/15/4
f 1451/19/4 1456/19/4 1460/19/4
f 1457/19/4 1458/19/4 1461/19/4
f 1460/15/4 1457/15/4 1461/15/4
f 1458/19/4 1459/19/4 1461/19/4
f 1460/19/4 1461/19/4 1462/19/4
f 1461/19/4 1459/19/4 1462/19/4
f 1462/19/4 1459/19/4 1463/19/4
f 1459/19/4 1452/19/4 1464/19/4
f 1463/19/4 1459/19/4 1464/19/4
f 1464/19/4 1452/19/4 1465/19/4
f 1450/21/4 1451/21/4 1466/21/4
f 1451/19/4 1460/19/4 1467/19/4
f 1466/21/4 1451/21/4 1467/21/4
f 1460/19/4 1462/19/4 1467/19/4
f 1462/15/4 1463/15/4 1468/15/4
f 1467/19/4 1462/19/4 1468/19/4
f 1463/19/4 1464/19/4 1469/19/4
f 1468/15/4 1463/15/4 1469/15/4
f 1464/15/4 1465/15/4 1470/15/4
f 1469/19/4 1464/19/4 1470/19/4
f 1465/19/4 1452/19/4 1471/19/4
f 1470/15/4 1465/15/4 1471/15/4
f 1452/21/4 1453/21/4 1472/21/4
f 1471/19/4 1452/19/4 1472/19/4
f 1472/21/4 1453/21/4 1473/21/4
f 1469/19/4 1470/19/4 1474/19/4
f 1470/19/4 1471/19/4 1474/19/4
f 1466/15/4 1467/15/4 1474/15/4
f 1471/19/4 1472/19/4 1474/19/4
f 1467/19/4 1468/19/4 1474/19/4
f 1468/19/4 1469/19/4 1474/19/4
f 1474/19/4 1472/19/4 1475/19/4
f 1475/19/4 1472/19/4 1476/19/4
f 1472/15/4 1473/15/4 1477/15/4
f 1476/19/4 1472/19/4 1477/19/4
f 1466/15/4 1474/15/4 1478/15/4
f 1474/15/4 1475/15/4 1478/15/4
f 1475/19/4 1476/19/4 1479/19/4
f 1478/15/4 1475/15/4 1479/15/4
f 1476/15/4 1477/15/4 1480/15/4
f 1479/19/4 1476/19/4 1480/19/4
f 1477/15/4 1473/15/4 1481/15/4
f 1480/15/4 1477/15/4 1481/15/4
f 1483/19/4 1484/19/4 1486/19/4
f 1486/19/4 1484/19/4 1487/19/4
f 1487/19/4 1484/19/4 1488/19/4
f 1488/19/4 1484/19/4 1489/19/4
f 1483/19/4 1486/19/4 1490/19/4
f 1486/15/4 1487/15/4 1490/15/4
f 1487/19/4 1488/19/4 1491/19/4
f 1490/15/4 1487/15/4 1491/15/4
f 1488/15/4 1489/15/4 1492/15/4
f 1491/19/4 1488/19/4 1492/19/4
f 1489/19/4 1484/19/4 1493/19/4
f 1492/15/4 1489/15/4 1493/15/4
f 1491/19/4 1492/19/4 1494/19/4
f 1490/19/4 1491/19/4 1494/19/4
f 1492/19/4 1493/19/4 1494/19/4
f 1494/19/4 1493/19/4 1495/19/4
f 1490/19/4 1494/19/4 1496/19/4
f 1494/15/4 1495/15/4 1496/15/4
f 1495/19/4 1493/19/4 1497/19/4
f 1496/15/4 1495/15/4 1497/15/4
f 1482/21/4 1483/21/4 1498/21/4
f 1483/19/4 1490/19/4 1499/19/4
f 1498/21/4 1483/21/4 1499/21/4
f 1490/19/4 1496/19/4 1499/19/4
f 1496/19/4 1497/19/4 1499/19/4
f 1497/19/4 1493/19/4 1500/19/4
f 1499/19/4 1497/19/4 1500/19/4
f 1484/21/4 1485/21/4 1500/21/4
f 1493/19/4 1484/19/4 1500/19/4
f 1500/21/4 1485/21/4 1501/21/4
f 1498/15/4 1499/15/4 1502/15/4
f 1499/19/4 1500/19/4 1502/19/4
f 1502/19/4 1500/19/4 1503/19/4
f 1503/19/4 1500/19/4 1504/19/4
f 1500/15/4 1501/15/4 1505/15/4
f 1504/19/4 1500/19/4 1505/19/4
f 1498/15/4 1502/15/4 1506/15/4
f 1502/15/4 1503/15/4 1506/15/4
f 1503/19/4 1504/19/4 1507/19/4
f 1506/15/4 1503/15/4 1507/15/4
f 1504/15/4 1505/15/4 1508/15/4
f 1507/19/4 1504/19/4 1508/19/4
f 1505/15/4 1501/15/4 1509/15/4
f 1508/15/4 1505/15/4 1509/15/4
f 1510/15/4 1511/15/4 1514/15/4
f 1511/21/4 1512/21/4 1515/21/4
f 1514/15/4 1511/15/4 1515/15/4
f 1512/15/4 1513/15/4 1516/15/4
f 1515/21/4 1512/21/4 1516/21/4
f 1516/15/4 1513/15/4 1517/15/4
f 1510/15/4 1514/15/4 1518/15/4
f 1514/19/4 1515/19/4 1519/19/4
f 1518/15/4 1514/15/4 1519/15/4
f 1515/19/4 1516/19/4 1519/19/4
f 1516/19/4 1517/19/4 1519/19/4
f 1519/19/4 1517/19/4 1520/19/4
f 1520/19/4 1517/19/4 1521/19/4
f 1517/15/4 1513/15/4 1522/15/4
f 1521/19/4 1517/19/4 1522/19/4
f 1522/15/4 1513/15/4 1523/15/4
f 1520/15/4 1521/15/4 1524/15/4
f 1519/19/4 1520/19/4 1524/19/4
f 1521/19/4 1522/19/4 1525/19/4
f 1524/15/4 1521/15/4 1525/15/4
f 1525/19/4 1522/19/4 1526/19/4
f 1526/19/4 1522/19/4 1527/19/4
f 1519/19/4 1524/19/4 1528/19/4
f 1524/19/4 1525/19/4 1528/19/4
f 1525/19/4 1526/19/4 1528/19/4
f 1528/19/4 1526/19/4 1529/19/4
f 1526/15/4 1527/15/4 1530/15/4
f 1529/19/4 1526/19/4 1530/19/4
f 1527/19/4 1522/19/4 1531/19/4
f 1530/15/4 1527/15/4 1531/15/4
f 1531/19/4 1522/19/4 1532/19/4
f 1532/19/4 1522/19/4 1533/19/4
f 1518/21/4 1519/21/4 1534/21/4
f 1519/19/4 1528/19/4 1535/19/4
f 1534/21/4 1519/21/4 1535/21/4
f 1528/15/4 1529/15/4 1536/15/4
f 1535/19/4 1528/19/4 1536/19/4
f 1529/19/4 1530/19/4 1537/19/4
f 1536/15/4 1529/15/4 1537/15/4
f 1530/19/4 1531/19/4 1537/19/4
f 1531/19/4 1532/19/4 1537/19/4
f 1532/15/4 1533/15/4 1538/15/4
f 1537/19/4 1532/19/4 1538/19/4
f 1533/19/4 1522/19/4 1539/19/4
f 1538/15/4 1533/15/4 1539/15/4
f 1522/21/4 1523/21/4 1540/21/4
f 1539/19/4 1522/19/4 1540/19/4
f 1540/21/4 1523/21/4 1541/21/4
f 1537/19/4 1538/19/4 1542/19/4
f 1538/19/4 1539/19/4 1542/19/4
f 1535/19/4 1536/19/4 1542/19/4
f 1539/19/4 1540/19/4 1542/19/4
f 1536/19/4 1537/19/4 1542/19/4
f 1534/15/4 1535/15/4 1542/15/4
f 1542/19/4 1540/19/4 1543/19/4
f 1543/19/4 1540/19/4 1544/19/4
f 1540/15/4 1541/15/4 1545/15/4
f 1544/19/4 1540/19/4 1545/19/4
f 1534/15/4 1542/15/4 1546/15/4
f 1542/15/4 1543/15/4 1546/15/4
f 1543/19/4 1544/19/4 1547/19/4
f 1546/15/4 1543/15/4 1547/15/4
f 1544/15/4 1545/15/4 1548/15/4
f 1547/19/4 1544/19/4 1548/19/4
f 1545/15/4 1541/15/4 1549/15/4
f 1548/15/4 1545/15/4 1549/15/4
f 1552/15/5 1551/15/5 1550/15/5
f 1553/15/5 1551/15/5 1552/15/5
f 1555/11/5 1553/11/5 1552/11/5
f 1556/15/5 1551/15/5 1553/15/5
f 1556/11/5 1553/11/5 1555/11/5
f 1557/15/5 1551/15/5 1556/15/5
f 1558/11/5 1555/11/5 1554/11/5
f 1558/11/5 1556/11/5 1555/11/5
f 1559/19/5 1557/19/5 1556/19/5
f 1559/11/5 1556/11/5 1558/11/5
f 1564/11/5 1558/11/5 1554/11/5
f 1565/15/5 1563/15/5 1562/15/5
f 1566/11/5 1564/11/5 1563/11/5
f 1566/15/5 1563/15/5 1565/15/5
f 1567/19/5 1559/19/5 1558/19/5
f 1567/11/5 1564/11/5 1566/11/5
f 1567/11/5 1558/11/5 1564/11/5
f 1568/11/5 1561/11/5 1560/11/5
f 1569/11/5 1561/11/5 1568/11/5
f 1570/21/5 1566/21/5 1565/21/5
f 1571/19/5 1567/19/5 1566/19/5
f 1571/21/5 1566/21/5 1570/21/5
f 1572/19/5 1557/19/5 1559/19/5
f 1572/19/5 1567/19/5 1571/19/5
f 1572/19/5 1559/19/5 1567/19/5
f 1573/19/5 1557/19/5 1572/19/5
f 1574/15/5 1571/15/5 1570/15/5
f 1574/19/5 1572/19/5 1571/19/5
f 1575/19/5 1572/19/5 1574/19/5
f 1576/19/5 1572/19/5 1575/19/5
f 1577/15/5 1573/15/5 1572/15/5
f 1577/19/5 1572/19/5 1576/19/5
f 1578/15/5 1574/15/5 1570/15/5
f 1578/15/5 1575/15/5 1574/15/5
f 1579/21/5 1576/21/5 1575/21/5
f 1579/15/5 1575/15/5 1578/15/5
f 1580/15/5 1577/15/5 1576/15/5
f 1580/21/5 1576/21/5 1579/21/5
f 1581/15/5 1573/15/5 1577/15/5
f 1581/15/5 1577/15/5 1580/15/5
f 1585/21/5 1583/21/5 1582/21/5
f 1586/15/5 1584/15/5 1583/15/5
f 1586/21/5 1583/21/5 1585/21/5
f 1587/15/5 1584/15/5 1586/15/5
f 1590/19/5 1586/19/5 1585/19/5
f 1590/19/5 1587/19/5 1586/19/5
f 1590/15/5 1584/15/5 1587/15/5
f 1591/15/5 1584/15/5 1590/15/5
f 1592/19/5 1589/19/5 1588/19/5
f 1593/19/5 1589/19/5 1592/19/5
f 1596/19/5 1595/19/5 1594/19/5
f 1597/19/5 1595/19/5 1596/19/5
f 1598/15/5 1597/15/5 1596/15/5
f 1599/15/5 1597/15/5 1598/15/5
f 1602/19/5 1601/19/5 1600/19/5
f 1603/19/5 1601/19/5 1602/19/5
f 1604/19/5 1590/19/5 1585/19/5
f 1604/19/5 1591/19/5 1590/19/5
f 1605/19/5 1591/19/5 1604/19/5
f 1606/15/5 1603/15/5 1602/15/5
f 1607/15/5 1603/15/5 1606/15/5
f 1610/11/5 1609/11/5 1608/11/5
f 1611/11/5 1609/11/5 1610/11/5
f 1612/19/5 1604/19/5 1585/19/5
f 1614/19/5 1613/19/5 1612/19/5
f 1615/19/5 1613/19/5 1614/19/5
f 1616/19/5 1612/19/5 1585/19/5
f 1616/19/5 1614/19/5 1612/19/5
f 1617/19/5 1614/19/5 1616/19/5
f 1618/15/5 1615/15/5 1614/15/5
f 1618/19/5 1614/19/5 1617/19/5
f 1619/21/5 1617/21/5 1616/21/5
f 1620/15/5 1618/15/5 1617/15/5
f 1620/21/5 1617/21/5 1619/21/5
f 1621/15/5 1615/15/5 1618/15/5
f 1621/15/5 1618/15/5 1620/15/5
f 1625/21/5 1623/21/5 1622/21/5
f 1626/15/5 1624/15/5 1623/15/5
f 1626/21/5 1623/21/5 1625/21/5
f 1627/15/5 1624/15/5 1626/15/5
f 1628/19/5 1626/19/5 1625/19/5
f 1628/15/5 1624/15/5 1627/15/5
f 1628/19/5 1627/19/5 1626/19/5
f 1629/15/5 1624/15/5 1628/15/5
f 1630/19/5 1628/19/5 1625/19/5
f 1630/19/5 1629/19/5 1628/19/5
f 1631/19/5 1629/19/5 1630/19/5
f 1632/19/5 1629/19/5 1631/19/5
f 1633/19/5 1629/19/5 1632/19/5
f 1635/19/5 1629/19/5 1633/19/5
f 1637/19/5 1635/19/5 1634/19/5
f 1638/19/5 1629/19/5 1635/19/5
f 1638/19/5 1637/19/5 1636/19/5
f 1638/19/5 1635/19/5 1637/19/5
f 1639/19/5 1629/19/5 1638/19/5
f 1640/19/5 1638/19/5 1636/19/5
f 1641/19/5 1638/19/5 1640/19/5
f 1642/15/5 1639/15/5 1638/15/5
f 1642/19/5 1638/19/5 1641/19/5
f 1643/21/5 1641/21/5 1640/21/5
f 1644/15/5 1642/15/5 1641/15/5
f 1644/21/5 1641/21/5 1643/21/5
f 1645/15/5 1639/15/5 1642/15/5
f 1645/15/5 1642/15/5 1644/15/5
f 1649/21/5 1647/21/5 1646/21/5
f 1650/15/5 1648/15/5 1647/15/5
f 1650/21/5 1647/21/5 1649/21/5
f 1651/15/5 1648/15/5 1650/15/5
f 1652/19/5 1650/19/5 1649/19/5
f 1652/15/5 1648/15/5 1651/15/5
f 1652/19/5 1651/19/5 1650/19/5
f 1653/15/5 1648/15/5 1652/15/5
f 1656/19/5 1655/19/5 1654/19/5
f 1657/19/5 1655/19/5 1656/19/5
f 1658/15/5 1657/15/5 1656/15/5
f 1659/15/5 1657/15/5 1658/15/5
f 1662/19/5 1661/19/5 1660/19/5
f 1663/19/5 1661/19/5 1662/19/5
f 1664/19/5 1652/19/5 1649/19/5
f 1664/19/5 1653/19/5 1652/19/5
f 1665/19/5 1653/19/5 1664/19/5
f 1666/19/5 1664/19/5 1649/19/5
f 1667/15/5 1665/15/5 1664/15/5
f 1667/19/5 1664/19/5 1666/19/5
f 1668/19/5 1666/19/5 1649/19/5
f 1669/15/5 1667/15/5 1666/15/5
f 1669/19/5 1666/19/5 1668/19/5
f 1670/15/5 1665/15/5 1667/15/5
f 1670/15/5 1667/15/5 1669/15/5
f 1671/15/5 1669/15/5 1668/15/5
f 1672/15/5 1669/15/5 1671/15/5
f 1675/19/5 1674/19/5 1673/19/5
f 1676/19/5 1674/19/5 1675/19/5
f 1680/15/5 1678/15/5 1677/15/5
f 1681/21/5 1679/21/5 1678/21/5
f 1681/15/5 1678/15/5 1680/15/5
f 1682/21/5 1679/21/5 1681/21/5
f 1683/15/5 1680/15/5 1677/15/5
f 1684/11/5 1681/11/5 1680/11/5
f 1684/15/5 1680/15/5 1683/15/5
f 1684/11/5 1682/11/5 1681/11/5
f 1685/11/5 1682/11/5 1684/11/5
f 1686/11/5 1682/11/5 1685/11/5
f 1689/6/5 1688/6/5 1687/6/5
f 1690/6/5 1688/6/5 1689/6/5
f 1693/13/5 1692/13/5 1691/13/5
f 1694/13/5 1692/13/5 1693/13/5
f 1697/10/5 1696/10/5 1695/10/5
f 1698/10/5 1696/10/5 1697/10/5
f 1699/21/5 1684/21/5 1683/21/5
f 1700/11/5 1685/11/5 1684/11/5
f 1700/21/5 1684/21/5 1699/21/5
f 1701/15/5 1700/15/5 1699/15/5
f 1702/11/5 1685/11/5 1700/11/5
f 1702/15/5 1700/15/5 1701/15/5
f 1703/11/5 1685/11/5 1702/11/5
f 1706/19/5 1705/19/5 1704/19/5
f 1707/19/5 1705/19/5 1706/19/5
f 1710/12/5 1709/12/5 1708/12/5
f 1711/12/5 1709/12/5 1710/12/5
f 1714/19/5 1713/19/5 1712/19/5
f 1715/19/5 1713/19/5 1714/19/5
f 1720/16/5 1717/16/5 1716/16/5
f 1721/16/5 1717/16/5 1720/16/5
f 1724/19/5 1719/19/5 1718/19/5
f 1725/19/5 1719/19/5 1724/19/5
f 1726/4/5 1723/4/5 1722/4/5
f 1727/4/5 1723/4/5 1726/4/5
f 1730/4/5 1729/4/5 1728/4/5
f 1731/4/5 1729/4/5 1730/4/5
f 1734/4/5 1733/4/5 1732/4/5
f 1735/4/5 1733/4/5 1734/4/5
f 1738/4/5 1737/4/5 1736/4/5
f 1739/4/5 1737/4/5 1738/4/5
f 1742/2/5 1741/2/5 1740/2/5
f 1743/2/5 1741/2/5 1742/2/5
f 1746/12/5 1745/12/5 1744/12/5
f 1747/12/5 1745/12/5 1746/12/5
f 1750/3/5 1749/3/5 1748/3/5
f 1751/3/5 1749/3/5 1750/3/5
f 1754/3/5 1753/3/5 1752/3/5
f 1755/3/5 1753/3/5 1754/3/5
f 1758/3/5 1757/3/5 1756/3/5
f 1759/3/5 1757/3/5 1758/3/5
f 1762/2/5 1761/2/5 1760/2/5
f 1763/2/5 1761/2/5 1762/2/5
f 1766/2/5 1765/2/5 1764/2/5
f 1767/2/5 1765/2/5 1766/2/5
f 1773/15/5 1769/15/5 1768/15/5
f 1774/21/5 1770/21/5 1769/21/5
f 1774/15/5 1769/15/5 1773/15/5
f 1775/21/5 1770/21/5 1774/21/5
f 1776/11/5 1772/11/5 1771/11/5
f 1776/11/5 1773/11/5 1772/11/5
f 1776/11/5 1774/11/5 1773/11/5
f 1777/11/5 1774/11/5 1776/11/5
f 1779/19/5 1777/19/5 1776/19/5
f 1779/19/5 1778/19/5 1777/19/5
f 1780/19/5 1778/19/5 1779/19/5
f 1781/19/5 1778/19/5 1780/19/5
f 1782/19/5 1778/19/5 1781/19/5
f 1783/11/5 1781/11/5 1780/11/5
f 1784/11/5 1781/11/5 1783/11/5
f 1787/19/5 1784/19/5 1783/19/5
f 1787/19/5 1785/19/5 1784/19/5
f 1788/19/5 1785/19/5 1787/19/5
f 1789/19/5 1785/19/5 1788/19/5
f 1790/19/5 1787/19/5 1786/19/5
f 1790/11/5 1788/11/5 1787/11/5
f 1791/11/5 1788/11/5 1790/11/5
f 1793/19/5 1790/19/5 1786/19/5
f 1793/19/5 1792/19/5 1791/19/5
f 1793/19/5 1791/19/5 1790/19/5
f 1794/19/5 1792/19/5 1793/19/5
f 1795/19/5 1792/19/5 1794/19/5
f 1797/19/5 1792/19/5 1795/19/5
f 1798/19/5 1797/19/5 1796/19/5
f 1799/19/5 1792/19/5 1797/19/5
f 1799/19/5 1797/19/5 1798/19/5
f 1801/19/5 1792/19/5 1799/19/5
f 1802/19/5 1801/19/5 1800/19/5
f 1803/19/5 1792/19/5 1801/19/5
f 1803/19/5 1801/19/5 1802/19/5
f 1804/19/5 1792/19/5 1803/19/5
f 1806/19/5 1792/19/5 1804/19/5
f 1807/19/5 1806/19/5 1805/19/5
f 1808/19/5 1792/19/5 1806/19/5
f 1808/19/5 1806/19/5 1807/19/5
f 1809/19/5 1792/19/5 1808/19/5
f 1810/19/5 1792/19/5 1809/19/5
f 1812/19/5 1792/19/5 1810/19/5
f 1813/19/5 1812/19/5 1811/19/5
f 1814/19/5 1792/19/5 1812/19/5
f 1814/19/5 1812/19/5 1813/19/5
f 1815/19/5 1792/19/5 1814/19/5
f 1816/11/5 1814/11/5 1813/11/5
f 1817/11/5 1814/11/5 1816/11/5
f 1819/19/5 1817/19/5 1816/19/5
f 1819/19/5 1818/19/5 1817/19/5
f 1820/19/5 1818/19/5 1819/19/5
f 1821/19/5 1818/19/5 1820/19/5
f 1822/11/5 1820/11/5 1819/11/5
f 1823/11/5 1820/11/5 1822/11/5
f 1825/19/5 1823/19/5 1822/19/5
f 1825/19/5 1824/19/5 1823/19/5
f 1826/19/5 1824/19/5 1825/19/5
f 1827/19/5 1824/19/5 1826/19/5
f 1828/19/5 1824/19/5 1827/19/5
f 1831/11/5 1827/11/5 1826/11/5
f 1832/11/5 1827/11/5 1831/11/5
f 1834/15/5 1830/15/5 1829/15/5
f 1835/21/5 1831/21/5 1830/21/5
f 1835/15/5 1830/15/5 1834/15/5
f 1836/15/5 1833/15/5 1832/15/5
f 1836/21/5 1831/21/5 1835/21/5
f 1836/15/5 1832/15/5 1831/15/5
f 1837/15/5 1833/15/5 1836/15/5
f 1840/19/5 1839/19/5 1838/19/5
f 1841/19/5 1839/19/5 1840/19/5
f 1844/19/5 1843/19/5 1842/19/5
f 1845/19/5 1843/19/5 1844/19/5
f 1848/19/5 1847/19/5 1846/19/5
f 1849/19/5 1847/19/5 1848/19/5
f 1852/19/5 1851/19/5 1850/19/5
f 1853/19/5 1851/19/5 1852/19/5
f 1856/19/5 1855/19/5 1854/19/5
f 1857/19/5 1855/19/5 1856/19/5
f 1860/19/5 1859/19/5 1858/19/5
f 1861/19/5 1859/19/5 1860/19/5
f 1864/19/5 1863/19/5 1862/19/5
f 1865/19/5 1864/19/5 1862/19/5
f 1866/19/5 1864/19/5 1865/19/5
f 1867/19/6 1868/19/6 1869/19/6
f 1869/19/6 1868/19/6 1870/19/6
f 1871/19/6 1872/19/6 1873/19/6
f 1873/19/6 1872/19/6 1874/19/6
f 1873/15/6 1874/15/6 1875/15/6
f 1875/15/6 1874/15/6 1876/15/6
f 1877/15/6 1878/15/6 1879/15/6
f 1879/15/6 1878/15/6 1880/15/6
f 1882/15/6 1883/15/6 1886/15/6
f 1881/19/6 1882/19/6 1886/19/6
f 1886/15/6 1883/15/6 1887/15/6
f 1884/15/6 1885/15/6 1888/15/6
f 1888/15/6 1885/15/6 1889/15/6
f 1890/19/6 1891/19/6 1892/19/6
f 1892/19/6 1891/19/6 1893/19/6
f 1892/15/6 1893/15/6 1894/15/6
f 1894/15/6 1893/15/6 1895/15/6
f 1881/19/6 1886/19/6 1896/19/6
f 1886/19/6 1887/19/6 1896/19/6
f 1896/19/6 1887/19/6 1897/19/6
f 1897/19/6 1887/19/6 1898/19/6
f 1898/19/6 1887/19/6 1899/19/6
f 1898/15/6 1899/15/6 1900/15/6
f 1900/15/6 1899/15/6 1901/15/6
f 1902/19/6 1903/19/6 1904/19/6
f 1904/19/6 1903/19/6 1905/19/6
f 1906/12/6 1907/12/6 1908/12/6
f 1908/12/6 1907/12/6 1909/12/6
f 1910/11/6 1911/11/6 1912/11/6
f 1912/11/6 1911/11/6 1913/11/6
f 1914/6/6 1915/6/6 1918/6/6
f 1918/6/6 1915/6/6 1919/6/6
f 1920/13/6 1921/13/6 1922/13/6
f 1922/13/6 1921/13/6 1923/13/6
f 1916/11/6 1917/11/6 1924/11/6
f 1924/11/6 1917/11/6 1925/11/6
f 1926/10/6 1927/10/6 1928/10/6
f 1928/10/6 1927/10/6 1929/10/6
f 1930/12/6 1931/12/6 1932/12/6
f 1932/12/6 1931/12/6 1933/12/6
f 1934/16/6 1935/16/6 1936/16/6
f 1936/16/6 1935/16/6 1937/16/6
f 1938/16/6 1939/16/6 1940/16/6
f 1940/16/6 1939/16/6 1941/16/6
f 1942/4/6 1943/4/6 1944/4/6
f 1944/4/6 1943/4/6 1945/4/6
f 1946/4/6 1947/4/6 1948/4/6
f 1948/4/6 1947/4/6 1949/4/6
f 1950/12/6 1951/12/6 1952/12/6
f 1952/12/6 1951/12/6 1953/12/6
f 1954/19/6 1955/19/6 1956/19/6
f 1954/19/6 1956/19/6 1957/19/6
f 1954/19/6 1957/19/6 1958/19/6
f 1954/19/6 1958/19/6 1959/19/6
f 1954/19/6 1959/19/6 1960/19/6
f 1960/19/6 1959/19/6 1961/19/6
f 1962/19/6 1963/19/6 1964/19/6
f 1964/19/6 1963/19/6 1965/19/6
f 1966/19/6 1967/19/6 1968/19/6
f 1968/19/6 1967/19/6 1969/19/6
f 1970/19/6 1971/19/6 1972/19/6
f 1972/19/6 1971/19/6 1973/19/6
f 1974/19/6 1975/19/6 1976/19/6
f 1976/19/6 1975/19/6 1977/19/6
f 1978/19/6 1979/19/6 1980/19/6
f 1980/19/6 1979/19/6 1981/19/6
f 1982/19/6 1983/19/6 1984/19/6
f 1984/19/6 1983/19/6 1985/19/6
f 1986/11/6 1987/11/6 1989/11/6
f 1987/11/6 1988/11/6 1989/11/6
f 1989/11/6 1988/11/6 1990/11/6
f 1991/11/6 1992/11/6 1993/11/6
f 1993/11/6 1992/11/6 1994/11/6
f 1995/11/6 1996/11/6 1997/11/6
f 1997/11/6 1996/11/6 1998/11/6
f 1999/11/6 2000/11/6 2001/11/6
f 2001/11/6 2000/11/6 2002/11/6
f 2003/11/6 2004/11/6 2005/11/6
f 2005/11/6 2004/11/6 2006/11/6
f 2007/11/6 2008/11/6 2009/11/6
f 2009/11/6 2008/11/6 2010/11/6
f 2011/21/6 2012/21/6 2014/21/6
f 2014/21/6 2012/21/6 2015/21/6
f 2012/15/6 2013/15/6 2016/15/6
f 2015/21/6 2012/21/6 2016/21/6
f 2016/15/6 2013/15/6 2017/15/6
f 2014/19/6 2015/19/6 2018/19/6
f 2014/19/6 2018/19/6 2020/19/6
f 2018/19/6 2019/19/6 2020/19/6
f 2020/19/6 2019/19/6 2021/19/6
f 2014/19/6 2020/19/6 2022/19/6
f 2014/19/6 2022/19/6 2024/19/6
f 2022/19/6 2023/19/6 2024/19/6
f 2024/19/6 2023/19/6 2025/19/6
f 2014/19/6 2024/19/6 2026/19/6
f 2014/19/6 2026/19/6 2028/19/6
f 2026/19/6 2027/19/6 2028/19/6
f 2028/19/6 2027/19/6 2029/19/6
f 2014/19/6 2028/19/6 2030/19/6
f 2030/19/6 2028/19/6 2031/19/6
f 2031/19/6 2028/19/6 2032/19/6
f 2032/19/6 2028/19/6 2033/19/6
f 2034/19/6 2035/19/6 2037/19/6
f 2035/19/6 2036/19/6 2037/19/6
f 2037/19/6 2036/19/6 2038/19/6
f 2037/19/6 2038/19/6 2040/19/6
f 2038/19/6 2039/19/6 2040/19/6
f 2040/19/6 2039/19/6 2041/19/6
f 2041/19/6 2039/19/6 2042/19/6
f 2037/19/6 2040/19/6 2043/19/6
f 2040/11/6 2041/11/6 2043/11/6
f 2043/11/6 2041/11/6 2044/11/6
f 2037/19/6 2043/19/6 2046/19/6
f 2044/19/6 2045/19/6 2046/19/6
f 2043/19/6 2044/19/6 2046/19/6
f 2046/19/6 2045/19/6 2047/19/6
f 2047/19/6 2045/19/6 2048/19/6
f 2037/19/6 2046/19/6 2049/19/6
f 2046/11/6 2047/11/6 2049/11/6
f 2049/11/6 2047/11/6 2050/11/6
f 2037/19/6 2049/19/6 2052/19/6
f 2050/19/6 2051/19/6 2052/19/6
f 2049/19/6 2050/19/6 2052/19/6
f 2052/19/6 2051/19/6 2053/19/6
f 2053/19/6 2051/19/6 2054/19/6
f 2037/19/6 2052/19/6 2055/19/6
f 2052/11/6 2053/11/6 2056/11/6
f 2055/19/6 2052/19/6 2056/19/6
f 2056/11/6 2053/11/6 2057/11/6
f 2055/21/6 2056/21/6 2059/21/6
f 2057/21/6 2058/21/6 2059/21/6
f 2056/21/6 2057/21/6 2059/21/6
f 2059/21/6 2058/21/6 2060/21/6
f 2061/21/6 2062/21/6 2064/21/6
f 2062/15/6 2063/15/6 2065/15/6
f 2064/21/6 2062/21/6 2065/21/6
f 2065/15/6 2063/15/6 2066/15/6
f 2064/19/6 2065/19/6 2067/19/6
f 2066/15/6 2063/15/6 2067/15/6
f 2065/19/6 2066/19/6 2067/19/6
f 2067/15/6 2063/15/6 2068/15/6
f 2064/19/6 2067/19/6 2071/19/6
f 2067/19/6 2068/19/6 2071/19/6
f 2071/19/6 2068/19/6 2072/19/6
f 2072/19/6 2068/19/6 2073/19/6
f 2069/19/6 2070/19/6 2074/19/6
f 2074/19/6 2070/19/6 2075/19/6
f 2071/19/6 2072/19/6 2076/19/6
f 2076/19/6 2072/19/6 2077/19/6
f 2072/15/6 2073/15/6 2078/15/6
f 2077/19/6 2072/19/6 2078/19/6
f 2078/15/6 2073/15/6 2079/15/6
f 2069/19/6 2074/19/6 2081/19/6
f 2081/19/6 2074/19/6 2082/19/6
f 2079/15/6 2080/15/6 2083/15/6
f 2078/15/6 2079/15/6 2083/15/6
f 2080/19/6 2081/19/6 2084/19/6
f 2083/15/6 2080/15/6 2084/15/6
f 2084/19/6 2081/19/6 2085/19/6
f 2086/15/6 2087/15/6 2091/15/6
f 2091/15/6 2087/15/6 2092/15/6
f 2087/19/6 2088/19/6 2093/19/6
f 2092/15/6 2087/15/6 2093/15/6
f 2093/19/6 2088/19/6 2094/19/6
f 2089/19/6 2090/19/6 2096/19/6
f 2090/19/6 2091/19/6 2096/19/6
f 2091/15/6 2092/15/6 2097/15/6
f 2096/19/6 2091/19/6 2097/19/6
f 2097/15/6 2092/15/6 2098/15/6
f 2094/19/6 2095/19/6 2099/19/6
f 2094/19/6 2099/19/6 2101/19/6
f 2099/19/6 2100/19/6 2101/19/6
f 2101/19/6 2100/19/6 2102/19/6
f 2096/19/6 2097/19/6 2103/19/6
f 2097/19/6 2098/19/6 2103/19/6
f 2103/19/6 2098/19/6 2104/19/6
f 2096/19/6 2103/19/6 2105/19/6
f 2105/19/6 2103/19/6 2106/19/6
f 2103/15/6 2104/15/6 2107/15/6
f 2106/19/6 2103/19/6 2107/19/6
f 2105/21/6 2106/21/6 2108/21/6
f 2106/15/6 2107/15/6 2109/15/6
f 2108/21/6 2106/21/6 2109/21/6
f 2107/15/6 2104/15/6 2110/15/6
f 2109/15/6 2107/15/6 2110/15/6
f 2111/21/6 2112/21/6 2114/21/6
f 2112/15/6 2113/15/6 2115/15/6
f 2114/21/6 2112/21/6 2115/21/6
f 2115/15/6 2113/15/6 2116/15/6
f 2114/19/6 2115/19/6 2117/19/6
f 2116/15/6 2113/15/6 2117/15/6
f 2115/19/6 2116/19/6 2117/19/6
f 2117/15/6 2113/15/6 2118/15/6
f 2114/19/6 2117/19/6 2119/19/6
f 2117/19/6 2118/19/6 2119/19/6
f 2119/19/6 2118/19/6 2120/19/6
f 2119/15/6 2120/15/6 2123/15/6
f 2121/19/6 2122/19/6 2127/19/6
f 2114/19/6 2119/19/6 2128/19/6
f 2119/15/6 2123/15/6 2128/15/6
f 2123/15/6 2124/15/6 2128/15/6
f 2124/19/6 2125/19/6 2129/19/6
f 2128/15/6 2124/15/6 2129/15/6
f 2129/19/6 2125/19/6 2130/19/6
f 2126/19/6 2127/19/6 2131/19/6
f 2114/19/6 2128/19/6 2132/19/6
f 2130/19/6 2131/19/6 2132/19/6
f 2129/19/6 2130/19/6 2132/19/6
f 2128/19/6 2129/19/6 2132/19/6
f 2132/19/6 2131/19/6 2133/19/6
f 2133/19/6 2131/19/6 2134/19/6
f 2131/19/6 2127/19/6 2135/19/6
f 2134/19/6 2131/19/6 2135/19/6
f 2132/15/6 2133/15/6 2136/15/6
f 2133/19/6 2134/19/6 2137/19/6
f 2136/15/6 2133/15/6 2137/15/6
f 2137/19/6 2134/19/6 2138/19/6
f 2135/19/6 2127/19/6 2139/19/6
f 2127/19/6 2122/19/6 2140/19/6
f 2139/19/6 2127/19/6 2140/19/6
f 2132/15/6 2136/15/6 2141/15/6
f 2114/19/6 2132/19/6 2141/19/6
f 2141/15/6 2136/15/6 2142/15/6
f 2140/19/6 2122/19/6 2143/19/6
f 2143/19/6 2122/19/6 2144/19/6
f 2141/19/6 2142/19/6 2145/19/6
f 2114/19/6 2141/19/6 2145/19/6
f 2145/19/6 2142/19/6 2146/19/6
f 2114/19/6 2145/19/6 2147/19/6
f 2147/19/6 2145/19/6 2148/19/6
f 2145/15/6 2146/15/6 2149/15/6
f 2148/19/6 2145/19/6 2149/19/6
f 2147/21/6 2148/21/6 2150/21/6
f 2148/15/6 2149/15/6 2151/15/6
f 2150/21/6 2148/21/6 2151/21/6
f 2149/15/6 2146/15/6 2152/15/6
f 2151/15/6 2149/15/6 2152/15/6
f 2153/15/6 2154/15/6 2157/15/6
f 2154/21/6 2155/21/6 2157/21/6
f 2155/15/6 2156/15/6 2158/15/6
f 2157/21/6 2155/21/6 2158/21/6
f 2158/15/6 2156/15/6 2159/15/6
f 2153/15/6 2157/15/6 2160/15/6
f 2157/19/6 2158/19/6 2161/19/6
f 2160/15/6 2157/15/6 2161/15/6
f 2158/19/6 2159/19/6 2161/19/6
f 2159/15/6 2156/15/6 2162/15/6
f 2161/19/6 2159/19/6 2162/19/6
f 2162/15/6 2156/15/6 2163/15/6
f 2160/21/6 2161/21/6 2164/21/6
f 2161/19/6 2162/19/6 2165/19/6
f 2164/21/6 2161/21/6 2165/21/6
f 2162/19/6 2163/19/6 2165/19/6
f 2165/19/6 2163/19/6 2166/19/6
f 2166/19/6 2163/19/6 2167/19/6
f 2164/15/6 2165/15/6 2168/15/6
f 2165/19/6 2166/19/6 2168/19/6
f 2168/19/6 2166/19/6 2169/19/6
f 2169/19/6 2166/19/6 2170/19/6
f 2166/15/6 2167/15/6 2171/15/6
f 2170/19/6 2166/19/6 2171/19/6
f 2164/15/6 2168/15/6 2172/15/6
f 2168/15/6 2169/15/6 2172/15/6
f 2169/21/6 2170/21/6 2173/21/6
f 2172/15/6 2169/15/6 2173/15/6
f 2170/15/6 2171/15/6 2174/15/6
f 2173/21/6 2170/21/6 2174/21/6
f 2171/15/6 2167/15/6 2175/15/6
f 2174/15/6 2171/15/6 2175/15/6
