# MagicaVoxel @ Ephtracy

# group
o 

# material
mtllib trans_9_4.mtl
usemtl palette

# normals
vn -1 0 0
vn 1 0 0
vn 0 0 1
vn 0 0 -1
vn 0 -1 0
vn 0 1 0

# texcoords
vt 0.0644531 0.5
vt 0.0683594 0.5
vt 0.0722656 0.5
vt 0.0761719 0.5
vt 0.0800781 0.5
vt 0.994141 0.5

# verts
v -0.8 0.3 -0.6
v -0.8 0.3 -0.7
v -0.8 0.4 -0.6
v -0.8 0.4 -0.7
v -0.7 0 -0.3
v -0.7 0 -0.7
v -0.7 0.1 -0.3
v -0.7 0.1 -0.4
v -0.7 0.1 -0.7
v -0.7 0.1 -0.8
v -0.7 0.2 -0.5
v -0.7 0.2 -0.7
v -0.7 0.2 -0.8
v -0.7 0.3 -0.4
v -0.7 0.3 -0.5
v -0.7 0.3 -0.6
v -0.7 0.3 -0.7
v -0.7 0.3 -0.8
v -0.7 0.4 -0.5
v -0.7 0.4 -0.6
v -0.7 0.4 -0.7
v -0.7 0.4 -0.8
v -0.7 0.5 -0.6
v -0.7 0.5 -0.7
v -0.7 0.6 -0.6
v -0.7 0.6 -0.7
v -0.6 0 -0.1
v -0.6 0 -0.3
v -0.6 0 -0.7
v -0.6 0 -0.8
v -0.6 0.1 -0.1
v -0.6 0.1 -0.2
v -0.6 0.1 -0.3
v -0.6 0.1 -0.4
v -0.6 0.1 -0.7
v -0.6 0.1 -0.8
v -0.6 0.1 -0.9
v -0.6 0.2 -0.7
v -0.6 0.2 -0.8
v -0.6 0.2 -0.9
v -0.6 0.3 -0.2
v -0.6 0.3 -0.3
v -0.6 0.3 -0.4
v -0.6 0.3 -0.5
v -0.6 0.3 -0.7
v -0.6 0.3 -0.8
v -0.6 0.3 -0.9
v -0.6 0.4 -0.3
v -0.6 0.4 -0.5
v -0.6 0.4 -0.6
v -0.6 0.4 -0.7
v -0.6 0.4 -0.8
v -0.6 0.4 -0.9
v -0.6 0.5 -0.6
v -0.6 0.5 -0.7
v -0.6 0.5 -0.8
v -0.6 0.6 -0.6
v -0.6 0.6 -0.7
v -0.6 0.7 -0.6
v -0.6 0.7 -0.8
v -0.6 0.9 -0.7
v -0.6 0.9 -0.8
v -0.6 1 -0.7
v -0.6 1 -0.8
v -0.5 0 -0.8
v -0.5 0 -0.9
v -0.5 0 -1
v -0.5 0.1 -0.1
v -0.5 0.1 -0.2
v -0.5 0.1 -0.8
v -0.5 0.1 -0.9
v -0.5 0.1 -1
v -0.5 0.2 -0.8
v -0.5 0.2 -0.9
v -0.5 0.2 -1
v -0.5 0.3 -0.1
v -0.5 0.3 -0.2
v -0.5 0.3 -0.3
v -0.5 0.3 -0.8
v -0.5 0.3 -0.9
v -0.5 0.4 -0.2
v -0.5 0.4 -0.3
v -0.5 0.4 -0.5
v -0.5 0.4 -0.6
v -0.5 0.4 -0.8
v -0.5 0.4 -0.9
v -0.5 0.4 -1
v -0.5 0.5 -0.5
v -0.5 0.5 -0.6
v -0.5 0.5 -0.7
v -0.5 0.5 -0.8
v -0.5 0.5 -0.9
v -0.5 0.6 -0.3
v -0.5 0.6 -0.6
v -0.5 0.6 -0.7
v -0.5 0.6 -0.8
v -0.5 0.6 -0.9
v -0.5 0.7 -0.3
v -0.5 0.7 -0.4
v -0.5 0.7 -0.6
v -0.5 0.7 -0.8
v -0.5 0.8 -0.4
v -0.5 0.8 -0.7
v -0.5 0.8 -0.8
v -0.5 0.8 -0.9
v -0.5 0.9 -0.7
v -0.5 0.9 -0.8
v -0.5 1 -0.8
v -0.5 1 -0.9
v -0.4 0 2.98023e-08
v -0.4 0 -0.1
v -0.4 0 -1
v -0.4 0 -1.1
v -0.4 0.1 2.98023e-08
v -0.4 0.1 -0.1
v -0.4 0.1 -0.9
v -0.4 0.1 -1
v -0.4 0.1 -1.1
v -0.4 0.2 -0.9
v -0.4 0.2 -1
v -0.4 0.2 -1.1
v -0.4 0.3 -0.1
v -0.4 0.3 -0.2
v -0.4 0.3 -1
v -0.4 0.3 -1.1
v -0.4 0.4 2.98023e-08
v -0.4 0.4 -0.1
v -0.4 0.4 -0.2
v -0.4 0.4 -0.4
v -0.4 0.4 -0.5
v -0.4 0.4 -0.9
v -0.4 0.4 -1
v -0.4 0.5 2.98023e-08
v -0.4 0.5 -0.1
v -0.4 0.5 -0.3
v -0.4 0.5 -0.4
v -0.4 0.5 -0.5
v -0.4 0.5 -0.6
v -0.4 0.5 -0.9
v -0.4 0.5 -1
v -0.4 0.6 -0.1
v -0.4 0.6 -0.2
v -0.4 0.6 -0.3
v -0.4 0.6 -0.6
v -0.4 0.6 -0.9
v -0.4 0.6 -1
v -0.4 0.7 -0.9
v -0.4 0.7 -1
v -0.4 0.8 -0.4
v -0.4 0.8 -0.7
v -0.4 0.8 -0.9
v -0.4 0.9 -0.4
v -0.4 0.9 -0.5
v -0.4 1 -0.5
v -0.4 1 -0.7
v -0.4 1 -0.9
v -0.4 1.1 -0.9
v -0.4 1.1 -1
v -0.3 0.1 2.98023e-08
v -0.3 0.1 -0.2
v -0.3 0.2 -0.1
v -0.3 0.2 -0.2
v -0.3 0.3 0.3
v -0.3 0.3 0.2
v -0.3 0.3 2.98023e-08
v -0.3 0.3 -0.1
v -0.3 0.4 0.3
v -0.3 0.4 0.2
v -0.3 0.4 -0.2
v -0.3 0.4 -0.4
v -0.3 0.4 -1
v -0.3 0.4 -1.1
v -0.3 0.5 2.98023e-08
v -0.3 0.5 -0.1
v -0.3 0.5 -0.3
v -0.3 0.5 -0.4
v -0.3 0.5 -1
v -0.3 0.5 -1.1
v -0.3 0.6 2.98023e-08
v -0.3 0.6 -0.1
v -0.3 0.6 -0.2
v -0.3 0.7 -0.1
v -0.3 0.7 -0.3
v -0.3 0.7 -0.4
v -0.3 0.7 -1
v -0.3 0.7 -1.1
v -0.3 0.8 -0.3
v -0.3 0.8 -0.4
v -0.3 0.8 -1
v -0.3 0.8 -1.1
v -0.2 0 -1.1
v -0.2 0 -1.2
v -0.2 0 -1.4
v -0.2 0.1 0.1
v -0.2 0.1 2.98023e-08
v -0.2 0.1 -1
v -0.2 0.1 -1.1
v -0.2 0.1 -1.2
v -0.2 0.2 0.1
v -0.2 0.2 2.98023e-08
v -0.2 0.2 -1
v -0.2 0.2 -1.1
v -0.2 0.2 -1.2
v -0.2 0.3 -1
v -0.2 0.3 -1.1
v -0.2 0.3 -1.2
v -0.2 0.4 -1
v -0.2 0.4 -1.1
v -0.2 0.4 -1.2
v -0.2 0.5 -1
v -0.2 0.5 -1.1
v -0.2 0.5 -1.2
v -0.2 0.5 -1.3
v -0.2 0.5 -1.4
v -0.2 0.6 2.98023e-08
v -0.2 0.6 -0.1
v -0.2 0.6 -1
v -0.2 0.6 -1.1
v -0.2 0.7 -0.1
v -0.2 0.7 -0.3
v -0.2 0.7 -1
v -0.2 0.7 -1.1
v -0.2 0.7 -1.2
v -0.2 0.8 2.98023e-08
v -0.2 0.8 -0.3
v -0.2 0.8 -1.1
v -0.2 0.8 -1.2
v -0.2 0.8 -1.3
v -0.1 0 -1.4
v -0.1 0 -1.5
v -0.1 0.3 -1.4
v -0.1 0.3 -1.5
v -0.1 0.5 -1.3
v -0.1 0.5 -1.4
v -0.1 0.7 -1.4
v -0.1 0.7 -1.5
v -0.1 0.8 2.98023e-08
v -0.1 0.8 -0.1
v -0.1 0.8 -1.2
v -0.1 0.8 -1.3
v -0.1 0.8 -1.5
v -0.1 0.9 2.98023e-08
v -0.1 0.9 -0.1
v -0.1 0.9 -0.6
v -0.1 0.9 -0.7
v -0.1 0.9 -1.2
v -0.1 0.9 -1.3
v -0.1 1 -0.6
v -0.1 1 -0.7
v 0 0.1 -1.1
v 0 0.1 -1.2
v 0 0.2 -1.1
v 0 0.2 -1.2
v 0 0.3 2.98023e-08
v 0 0.3 -0.1
v 0 0.6 -0.3
v 0 0.6 -0.4
v 0 0.6 -1.1
v 0 0.6 -1.2
v 0 0.7 2.98023e-08
v 0 0.7 -0.1
v 0 0.7 -0.3
v 0 0.7 -0.4
v 0 0.7 -1
v 0 0.7 -1.1
v 0 0.7 -1.2
v 0 0.8 -1
v 0 0.8 -1.1
v 0 0.9 -1.2
v 0 0.9 -1.3
v 0 1 -1.2
v 0 1 -1.3
v 0.1 0.3 -1.1
v 0.1 0.3 -1.2
v 0.1 0.3 -1.4
v 0.1 0.3 -1.5
v 0.1 0.4 -1.1
v 0.1 0.4 -1.2
v 0.1 0.5 -1.3
v 0.1 0.5 -1.4
v 0.1 0.5 -1.5
v 0.1 0.6 -1.3
v 0.1 0.6 -1.4
v 0.1 0.7 -0.8
v 0.1 0.7 -1
v 0.1 0.8 -0.8
v 0.1 0.8 -1
v 0.1 0.8 -1.1
v 0.1 0.9 -1
v 0.1 0.9 -1.1
v 0.1 0.9 -1.3
v 0.1 0.9 -1.4
v 0.1 1 -1.3
v 0.1 1 -1.4
v 0.2 0 -0.1
v 0.2 0 -0.2
v 0.2 0.1 -0.1
v 0.2 0.1 -0.2
v 0.2 0.8 -1.1
v 0.2 0.8 -1.2
v 0.2 0.9 -1.1
v 0.2 0.9 -1.2
v 0.3 0.5 -1.1
v 0.3 0.5 -1.2
v 0.3 0.6 -0.4
v 0.3 0.6 -0.5
v 0.3 0.6 -1.1
v 0.3 0.6 -1.2
v 0.3 0.7 -0.4
v 0.3 0.7 -0.5
v 0.3 0.8 -1.3
v 0.3 0.8 -1.4
v 0.3 0.9 -1.3
v 0.3 0.9 -1.4
v 0.4 0.3 -0.2
v 0.4 0.3 -0.3
v 0.4 0.4 -0.2
v 0.4 0.4 -0.3
v 0.4 0.7 -0.4
v 0.4 0.7 -0.5
v 0.4 0.8 -0.4
v 0.4 0.8 -0.5
v 0.5 0.2 -1
v 0.5 0.2 -1.1
v 0.5 0.3 -1
v 0.5 0.3 -1.1
v 0.5 0.4 -0.2
v 0.5 0.4 -0.3
v 0.5 0.5 -0.2
v 0.5 0.5 -0.3
v 0.6 0.6 -0.6
v 0.6 0.6 -0.7
v 0.6 0.7 -0.6
v 0.6 0.7 -0.7
v 0.7 0.1 -0.1
v 0.7 0.1 -0.2
v 0.7 0.2 -0.1
v 0.7 0.2 -0.2
v 0.7 0.2 -0.3
v 0.7 0.3 -0.2
v 0.7 0.3 -0.3
v 0.7 0.4 -0.3
v 0.7 0.4 -0.5
v 0.7 0.5 -0.3
v 0.7 0.5 -0.5
v -0.6 0.5 -0.6
v -0.6 0.5 -0.7
v -0.6 0.6 -0.6
v -0.6 0.6 -0.7
v -0.4 0.1 -0.1
v -0.4 0.1 -0.2
v -0.4 0.2 -0.1
v -0.4 0.2 -0.2
v -0.3 0.9 -0.5
v -0.3 0.9 -0.7
v -0.3 0.9 -0.8
v -0.3 0.9 -1
v -0.3 1 -0.5
v -0.3 1 -0.7
v -0.3 1 -0.8
v -0.3 1 -0.9
v -0.3 1.1 -0.9
v -0.3 1.1 -1
v -0.2 0.3 0.3
v -0.2 0.3 0.2
v -0.2 0.4 0.3
v -0.2 0.4 0.2
v -0.2 0.4 2.98023e-08
v -0.2 0.4 -0.1
v -0.2 0.6 2.98023e-08
v -0.2 0.6 -0.1
v -0.2 0.7 -0.3
v -0.2 0.7 -0.4
v -0.2 0.8 -0.3
v -0.2 0.8 -0.4
v -0.2 0.8 -0.8
v -0.2 0.8 -1
v -0.2 0.9 -0.7
v -0.2 0.9 -0.8
v -0.2 0.9 -1
v -0.2 1 -0.7
v -0.2 1 -0.8
v -0.1 0.1 0.1
v -0.1 0.1 2.98023e-08
v -0.1 0.2 0.1
v -0.1 0.2 2.98023e-08
v -0.1 0.6 2.98023e-08
v -0.1 0.6 -0.1
v -0.1 0.6 -0.3
v -0.1 0.6 -0.4
v -0.1 0.7 2.98023e-08
v -0.1 0.7 -0.1
v -0.1 0.7 -0.2
v -0.1 0.7 -0.3
v -0.1 0.7 -0.4
v -0.1 0.7 -0.8
v -0.1 0.7 -0.9
v -0.1 0.7 -1
v -0.1 0.7 -1.1
v -0.1 0.8 -0.2
v -0.1 0.8 -0.3
v -0.1 0.8 -0.7
v -0.1 0.8 -0.8
v -0.1 0.8 -0.9
v -0.1 0.8 -1
v -0.1 0.8 -1.1
v -0.1 0.9 -0.7
v -0.1 0.9 -0.8
v 0 0 2.98023e-08
v 0 0 -0.1
v 0 0.1 2.98023e-08
v 0 0.1 -0.1
v 0 0.2 -1.1
v 0 0.2 -1.2
v 0 0.3 -1.1
v 0 0.3 -1.2
v 0 0.5 -0.2
v 0 0.5 -0.3
v 0 0.5 -1.3
v 0 0.5 -1.4
v 0 0.6 -1.3
v 0 0.6 -1.4
v 0 0.7 -0.2
v 0 0.7 -0.3
v 0 0.7 -0.4
v 0 0.7 -0.5
v 0 0.7 -0.9
v 0 0.7 -1
v 0 0.7 -1.1
v 0 0.7 -1.2
v 0 0.8 2.98023e-08
v 0 0.8 -0.1
v 0 0.8 -0.5
v 0 0.8 -0.6
v 0 0.8 -0.9
v 0 0.8 -1
v 0 0.8 -1.1
v 0 0.8 -1.2
v 0 0.9 2.98023e-08
v 0 0.9 -0.1
v 0 0.9 -0.4
v 0 0.9 -0.6
v 0.1 0 -0.1
v 0.1 0 -0.2
v 0.1 0.1 2.98023e-08
v 0.1 0.1 -0.1
v 0.1 0.1 -0.2
v 0.1 0.2 2.98023e-08
v 0.1 0.2 -0.1
v 0.1 0.4 -0.2
v 0.1 0.4 -0.3
v 0.1 0.4 -1.1
v 0.1 0.4 -1.2
v 0.1 0.5 -0.2
v 0.1 0.5 -0.3
v 0.1 0.5 -1.1
v 0.1 0.5 -1.2
v 0.1 0.6 2.98023e-08
v 0.1 0.6 -0.1
v 0.1 0.7 -1.4
v 0.1 0.7 -1.5
v 0.1 0.8 2.98023e-08
v 0.1 0.8 -0.1
v 0.1 0.8 -1.4
v 0.1 0.8 -1.5
v 0.1 0.9 -0.6
v 0.1 0.9 -0.7
v 0.1 1 -0.6
v 0.1 1 -0.7
v 0.2 0 -1.1
v 0.2 0 -1.2
v 0.2 0.1 -1.1
v 0.2 0.1 -1.2
v 0.2 0.2 2.98023e-08
v 0.2 0.2 -0.1
v 0.2 0.3 2.98023e-08
v 0.2 0.3 -0.1
v 0.2 0.3 -0.3
v 0.2 0.3 -1.4
v 0.2 0.3 -1.5
v 0.2 0.4 2.98023e-08
v 0.2 0.4 -0.1
v 0.2 0.4 -0.2
v 0.2 0.4 -0.3
v 0.2 0.5 -0.1
v 0.2 0.5 -0.2
v 0.2 0.5 -1.4
v 0.2 0.5 -1.5
v 0.2 0.6 2.98023e-08
v 0.2 0.6 -0.1
v 0.2 0.6 -0.3
v 0.2 0.6 -0.5
v 0.2 0.6 -0.9
v 0.2 0.6 -1
v 0.2 0.7 -0.1
v 0.2 0.7 -0.2
v 0.2 0.7 -0.3
v 0.2 0.7 -0.5
v 0.2 0.7 -0.9
v 0.2 0.7 -1
v 0.2 0.7 -1.3
v 0.2 0.7 -1.4
v 0.2 0.8 -0.1
v 0.2 0.8 -0.2
v 0.2 0.8 -0.6
v 0.2 0.8 -0.7
v 0.2 0.8 -1.3
v 0.2 0.8 -1.4
v 0.2 0.9 -0.6
v 0.2 0.9 -0.7
v 0.2 0.9 -1.3
v 0.2 0.9 -1.4
v 0.2 1 -1.3
v 0.2 1 -1.4
v 0.3 0 -1.4
v 0.3 0 -1.5
v 0.3 0.1 -0.1
v 0.3 0.1 -0.2
v 0.3 0.3 2.98023e-08
v 0.3 0.3 -0.1
v 0.3 0.3 -0.2
v 0.3 0.3 -1.4
v 0.3 0.3 -1.5
v 0.3 0.4 2.98023e-08
v 0.3 0.4 -0.1
v 0.3 0.5 -0.1
v 0.3 0.5 -0.2
v 0.3 0.5 -0.3
v 0.3 0.5 -0.4
v 0.3 0.5 -0.9
v 0.3 0.5 -1
v 0.3 0.6 -0.3
v 0.3 0.6 -0.4
v 0.3 0.6 -0.9
v 0.3 0.6 -1
v 0.3 0.6 -1.1
v 0.3 0.6 -1.2
v 0.3 0.7 -0.1
v 0.3 0.7 -0.2
v 0.3 0.7 -0.5
v 0.3 0.7 -0.8
v 0.3 0.7 -0.9
v 0.3 0.7 -1
v 0.3 0.7 -1.1
v 0.3 0.7 -1.2
v 0.3 0.8 -0.5
v 0.3 0.8 -0.8
v 0.3 0.8 -0.9
v 0.3 0.8 -1
v 0.3 0.8 -1.1
v 0.3 0.8 -1.2
v 0.3 0.8 -1.3
v 0.3 0.9 -1
v 0.3 0.9 -1.1
v 0.3 0.9 -1.2
v 0.3 0.9 -1.3
v 0.3 1 -1.2
v 0.3 1 -1.3
v 0.4 0 -1.2
v 0.4 0 -1.4
v 0.4 0.1 -1.1
v 0.4 0.1 -1.2
v 0.4 0.2 -1
v 0.4 0.2 -1.1
v 0.4 0.2 -1.2
v 0.4 0.3 -1
v 0.4 0.3 -1.1
v 0.4 0.3 -1.2
v 0.4 0.4 -1
v 0.4 0.4 -1.1
v 0.4 0.4 -1.2
v 0.4 0.5 -0.4
v 0.4 0.5 -0.5
v 0.4 0.5 -1
v 0.4 0.5 -1.1
v 0.4 0.5 -1.2
v 0.4 0.6 -0.4
v 0.4 0.6 -0.5
v 0.4 0.6 -0.7
v 0.4 0.6 -0.8
v 0.4 0.6 -0.9
v 0.4 0.6 -1
v 0.4 0.6 -1.1
v 0.4 0.6 -1.2
v 0.4 0.7 -0.5
v 0.4 0.7 -0.7
v 0.4 0.7 -0.8
v 0.4 0.7 -1.3
v 0.4 0.7 -1.4
v 0.4 0.8 -0.8
v 0.4 0.8 -0.9
v 0.4 0.8 -1.2
v 0.4 0.8 -1.3
v 0.4 0.8 -1.4
v 0.4 0.9 -1.3
v 0.4 0.9 -1.4
v 0.5 0.1 -1
v 0.5 0.1 -1.1
v 0.5 0.2 -1
v 0.5 0.2 -1.1
v 0.5 0.3 -1
v 0.5 0.3 -1.1
v 0.5 0.4 -0.4
v 0.5 0.4 -0.5
v 0.5 0.4 -1
v 0.5 0.4 -1.1
v 0.5 0.5 -0.4
v 0.5 0.5 -0.5
v 0.5 0.5 -0.6
v 0.5 0.5 -0.8
v 0.5 0.5 -0.9
v 0.5 0.5 -1.1
v 0.5 0.5 -1.2
v 0.5 0.6 -0.4
v 0.5 0.6 -0.5
v 0.5 0.6 -0.6
v 0.5 0.6 -0.8
v 0.5 0.6 -0.9
v 0.5 0.6 -1.1
v 0.5 0.6 -1.2
v 0.5 0.8 -0.4
v 0.5 0.8 -0.5
v 0.6 0 -1
v 0.6 0 -1.1
v 0.6 0.1 -0.9
v 0.6 0.1 -1
v 0.6 0.1 -1.1
v 0.6 0.2 -0.2
v 0.6 0.2 -0.3
v 0.6 0.2 -0.9
v 0.6 0.2 -1
v 0.6 0.2 -1.1
v 0.6 0.3 -0.9
v 0.6 0.3 -1
v 0.6 0.3 -1.1
v 0.6 0.4 -0.2
v 0.6 0.4 -0.3
v 0.6 0.4 -0.4
v 0.6 0.5 -0.3
v 0.6 0.5 -0.4
v 0.6 0.5 -0.9
v 0.6 0.5 -1
v 0.6 0.6 -0.7
v 0.6 0.6 -0.8
v 0.6 0.7 -0.7
v 0.6 0.7 -0.8
v 0.7 0 -0.1
v 0.7 0 -0.2
v 0.7 0 -0.8
v 0.7 0 -0.9
v 0.7 0 -1
v 0.7 0.1 -0.1
v 0.7 0.1 -0.2
v 0.7 0.1 -0.8
v 0.7 0.1 -0.9
v 0.7 0.1 -1
v 0.7 0.2 -0.9
v 0.7 0.2 -1
v 0.7 0.3 -0.8
v 0.7 0.3 -0.9
v 0.7 0.3 -1
v 0.7 0.4 -0.2
v 0.7 0.4 -0.3
v 0.7 0.4 -0.5
v 0.7 0.4 -0.6
v 0.7 0.4 -0.8
v 0.7 0.4 -0.9
v 0.7 0.5 -0.2
v 0.7 0.5 -0.3
v 0.7 0.5 -0.5
v 0.7 0.5 -0.6
v 0.7 0.5 -0.8
v 0.7 0.6 -0.7
v 0.7 0.6 -0.8
v 0.7 0.7 -0.6
v 0.7 0.7 -0.7
v 0.8 0 -0.2
v 0.8 0 -0.3
v 0.8 0 -0.7
v 0.8 0 -0.8
v 0.8 0.1 -0.1
v 0.8 0.1 -0.2
v 0.8 0.1 -0.6
v 0.8 0.1 -0.7
v 0.8 0.1 -0.8
v 0.8 0.1 -0.9
v 0.8 0.2 -0.1
v 0.8 0.2 -0.2
v 0.8 0.2 -0.8
v 0.8 0.2 -0.9
v 0.8 0.3 -0.2
v 0.8 0.3 -0.3
v 0.8 0.3 -0.6
v 0.8 0.3 -0.7
v 0.8 0.3 -0.8
v 0.8 0.3 -0.9
v 0.8 0.4 -0.3
v 0.8 0.4 -0.5
v 0.8 0.4 -0.7
v 0.8 0.4 -0.8
v 0.8 0.4 -0.9
v 0.8 0.5 -0.3
v 0.8 0.5 -0.5
v 0.8 0.5 -0.8
v 0.8 0.5 -0.9
v 0.9 0 -0.3
v 0.9 0 -0.7
v 0.9 0.1 -0.6
v 0.9 0.1 -0.7
v 0.9 0.3 -0.6
v 0.9 0.3 -0.7
v 0.9 0.4 -0.3
v 0.9 0.4 -0.6
v 0.9 0.4 -0.7
v 0.9 0.4 -0.8
v 0.9 0.5 -0.6
v 0.9 0.5 -0.7
v 0.9 0.5 -0.8
v -0.3 0.3 0.3
v -0.3 0.4 0.3
v -0.2 0.3 0.3
v -0.2 0.4 0.3
v -0.2 0.1 0.1
v -0.2 0.2 0.1
v -0.1 0.1 0.1
v -0.1 0.2 0.1
v -0.4 0 2.98023e-08
v -0.4 0.1 2.98023e-08
v -0.4 0.4 2.98023e-08
v -0.4 0.5 2.98023e-08
v -0.3 0.1 2.98023e-08
v -0.3 0.3 2.98023e-08
v -0.3 0.5 2.98023e-08
v -0.3 0.6 2.98023e-08
v -0.2 0.1 2.98023e-08
v -0.2 0.2 2.98023e-08
v -0.2 0.4 2.98023e-08
v -0.2 0.6 2.98023e-08
v -0.2 0.8 2.98023e-08
v -0.1 0.1 2.98023e-08
v -0.1 0.2 2.98023e-08
v -0.1 0.6 2.98023e-08
v -0.1 0.7 2.98023e-08
v -0.1 0.8 2.98023e-08
v -0.1 0.9 2.98023e-08
v 0 0 2.98023e-08
v 0 0.1 2.98023e-08
v 0 0.3 2.98023e-08
v 0 0.7 2.98023e-08
v 0 0.8 2.98023e-08
v 0 0.9 2.98023e-08
v 0.1 0.1 2.98023e-08
v 0.1 0.2 2.98023e-08
v 0.1 0.6 2.98023e-08
v 0.1 0.8 2.98023e-08
v 0.2 0.2 2.98023e-08
v 0.2 0.3 2.98023e-08
v 0.2 0.4 2.98023e-08
v 0.2 0.6 2.98023e-08
v 0.3 0.3 2.98023e-08
v 0.3 0.4 2.98023e-08
v -0.6 0 -0.1
v -0.6 0.1 -0.1
v -0.5 0.1 -0.1
v -0.5 0.3 -0.1
v -0.4 0 -0.1
v -0.4 0.1 -0.1
v -0.4 0.2 -0.1
v -0.4 0.3 -0.1
v -0.4 0.4 -0.1
v -0.4 0.5 -0.1
v -0.4 0.6 -0.1
v -0.3 0.2 -0.1
v -0.3 0.3 -0.1
v -0.3 0.5 -0.1
v -0.3 0.6 -0.1
v -0.3 0.7 -0.1
v -0.2 0.4 -0.1
v -0.2 0.6 -0.1
v -0.2 0.7 -0.1
v -0.1 0.6 -0.1
v -0.1 0.7 -0.1
v 0 0 -0.1
v 0 0.1 -0.1
v 0 0.3 -0.1
v 0 0.7 -0.1
v 0.1 0 -0.1
v 0.1 0.1 -0.1
v 0.1 0.2 -0.1
v 0.1 0.6 -0.1
v 0.1 0.8 -0.1
v 0.2 0 -0.1
v 0.2 0.1 -0.1
v 0.2 0.2 -0.1
v 0.2 0.3 -0.1
v 0.2 0.5 -0.1
v 0.2 0.6 -0.1
v 0.2 0.7 -0.1
v 0.2 0.8 -0.1
v 0.3 0.1 -0.1
v 0.3 0.3 -0.1
v 0.3 0.5 -0.1
v 0.3 0.7 -0.1
v 0.7 0 -0.1
v 0.7 0.1 -0.1
v 0.7 0.2 -0.1
v 0.8 0.1 -0.1
v 0.8 0.2 -0.1
v -0.6 0.1 -0.2
v -0.6 0.3 -0.2
v -0.5 0.1 -0.2
v -0.5 0.3 -0.2
v -0.5 0.4 -0.2
v -0.4 0.1 -0.2
v -0.4 0.2 -0.2
v -0.4 0.3 -0.2
v -0.4 0.4 -0.2
v -0.3 0.1 -0.2
v -0.3 0.2 -0.2
v 0.1 0 -0.2
v 0.1 0.1 -0.2
v 0.2 0 -0.2
v 0.2 0.1 -0.2
v 0.3 0.1 -0.2
v 0.3 0.3 -0.2
v 0.4 0.3 -0.2
v 0.4 0.4 -0.2
v 0.5 0.4 -0.2
v 0.5 0.5 -0.2
v 0.6 0.2 -0.2
v 0.6 0.4 -0.2
v 0.7 0 -0.2
v 0.7 0.1 -0.2
v 0.7 0.2 -0.2
v 0.7 0.3 -0.2
v 0.7 0.4 -0.2
v 0.7 0.5 -0.2
v 0.8 0 -0.2
v 0.8 0.1 -0.2
v 0.8 0.2 -0.2
v 0.8 0.3 -0.2
v -0.7 0 -0.3
v -0.7 0.1 -0.3
v -0.6 0 -0.3
v -0.6 0.1 -0.3
v -0.6 0.3 -0.3
v -0.6 0.4 -0.3
v -0.5 0.3 -0.3
v -0.5 0.4 -0.3
v -0.5 0.6 -0.3
v -0.5 0.7 -0.3
v -0.4 0.5 -0.3
v -0.4 0.6 -0.3
v -0.3 0.5 -0.3
v -0.3 0.7 -0.3
v -0.3 0.8 -0.3
v -0.2 0.7 -0.3
v -0.2 0.8 -0.3
v 0 0.5 -0.3
v 0 0.7 -0.3
v 0.1 0.4 -0.3
v 0.1 0.5 -0.3
v 0.2 0.3 -0.3
v 0.2 0.4 -0.3
v 0.2 0.6 -0.3
v 0.2 0.7 -0.3
v 0.3 0.5 -0.3
v 0.3 0.6 -0.3
v 0.4 0.3 -0.3
v 0.4 0.4 -0.3
v 0.5 0.4 -0.3
v 0.5 0.5 -0.3
v 0.6 0.2 -0.3
v 0.6 0.4 -0.3
v 0.7 0.2 -0.3
v 0.7 0.3 -0.3
v 0.7 0.4 -0.3
v 0.7 0.5 -0.3
v 0.8 0 -0.3
v 0.8 0.3 -0.3
v 0.8 0.4 -0.3
v 0.8 0.5 -0.3
v 0.9 0 -0.3
v 0.9 0.4 -0.3
v -0.7 0.1 -0.4
v -0.7 0.3 -0.4
v -0.6 0.1 -0.4
v -0.6 0.3 -0.4
v -0.5 0.7 -0.4
v -0.5 0.8 -0.4
v -0.4 0.4 -0.4
v -0.4 0.5 -0.4
v -0.4 0.8 -0.4
v -0.4 0.9 -0.4
v -0.3 0.4 -0.4
v -0.3 0.5 -0.4
v -0.3 0.7 -0.4
v -0.3 0.8 -0.4
v -0.2 0.7 -0.4
v -0.2 0.8 -0.4
v -0.1 0.6 -0.4
v -0.1 0.7 -0.4
v 0 0.6 -0.4
v 0 0.7 -0.4
v 0 0.9 -0.4
v 0.3 0.5 -0.4
v 0.3 0.6 -0.4
v 0.3 0.7 -0.4
v 0.4 0.5 -0.4
v 0.4 0.6 -0.4
v 0.4 0.7 -0.4
v 0.4 0.8 -0.4
v 0.5 0.6 -0.4
v 0.5 0.8 -0.4
v -0.7 0.3 -0.5
v -0.7 0.4 -0.5
v -0.6 0.3 -0.5
v -0.6 0.4 -0.5
v -0.5 0.4 -0.5
v -0.5 0.5 -0.5
v -0.4 0.4 -0.5
v -0.4 0.5 -0.5
v -0.4 0.9 -0.5
v -0.4 1 -0.5
v -0.3 0.9 -0.5
v -0.3 1 -0.5
v 0 0.7 -0.5
v 0 0.8 -0.5
v 0.2 0.6 -0.5
v 0.2 0.7 -0.5
v 0.3 0.6 -0.5
v 0.3 0.7 -0.5
v 0.3 0.8 -0.5
v 0.4 0.5 -0.5
v 0.4 0.6 -0.5
v 0.5 0.4 -0.5
v 0.5 0.5 -0.5
v 0.5 0.6 -0.5
v 0.7 0.4 -0.5
v 0.7 0.5 -0.5
v -0.8 0.3 -0.6
v -0.8 0.4 -0.6
v -0.7 0.3 -0.6
v -0.7 0.4 -0.6
v -0.7 0.5 -0.6
v -0.7 0.6 -0.6
v -0.6 0.4 -0.6
v -0.6 0.5 -0.6
v -0.6 0.6 -0.6
v -0.6 0.7 -0.6
v -0.5 0.4 -0.6
v -0.5 0.5 -0.6
v -0.5 0.6 -0.6
v -0.5 0.7 -0.6
v -0.4 0.5 -0.6
v -0.4 0.6 -0.6
v -0.1 0.9 -0.6
v -0.1 1 -0.6
v 0 0.8 -0.6
v 0 0.9 -0.6
v 0.1 0.9 -0.6
v 0.1 1 -0.6
v 0.2 0.8 -0.6
v 0.2 0.9 -0.6
v 0.5 0.5 -0.6
v 0.5 0.6 -0.6
v 0.6 0.6 -0.6
v 0.6 0.7 -0.6
v 0.7 0.4 -0.6
v 0.7 0.5 -0.6
v 0.7 0.7 -0.6
v 0.9 0.4 -0.6
v 0.9 0.5 -0.6
v -0.6 0.5 -0.7
v -0.6 0.6 -0.7
v -0.6 0.9 -0.7
v -0.6 1 -0.7
v -0.5 0.5 -0.7
v -0.5 0.6 -0.7
v -0.5 0.8 -0.7
v -0.5 0.9 -0.7
v -0.5 1 -0.7
v -0.4 0.8 -0.7
v -0.4 1 -0.7
v -0.3 0.9 -0.7
v -0.3 1 -0.7
v -0.2 0.9 -0.7
v -0.2 1 -0.7
v 0.4 0.6 -0.7
v 0.4 0.7 -0.7
v 0.6 0.6 -0.7
v 0.6 0.7 -0.7
v 0.3 0.7 -0.8
v 0.3 0.8 -0.8
v 0.4 0.7 -0.8
v 0.4 0.8 -0.8
v -0.4 1 -0.9
v -0.4 1.1 -0.9
v -0.3 1 -0.9
v -0.3 1.1 -0.9
v -0.1 0.7 -0.9
v -0.1 0.8 -0.9
v 0 0.7 -0.9
v 0 0.8 -0.9
v 0 0.7 -1
v 0 0.8 -1
v 0.1 0.7 -1
v 0.1 0.8 -1
v 0.1 0.9 -1
v 0.2 0.6 -1
v 0.2 0.7 -1
v 0.3 0.5 -1
v 0.3 0.6 -1
v 0.3 0.7 -1
v 0.3 0.8 -1
v 0.3 0.9 -1
v 0.4 0.5 -1
v 0.4 0.6 -1
v -0.1 0.7 -1.1
v -0.1 0.8 -1.1
v 0 0.7 -1.1
v 0 0.8 -1.1
v 0.4 0.5 -1.1
v 0.4 0.6 -1.1
v 0.5 0.5 -1.1
v 0.5 0.6 -1.1
v -0.2 0.1 -1.2
v -0.2 0.2 -1.2
v -0.2 0.3 -1.2
v -0.2 0.4 -1.2
v -0.2 0.5 -1.2
v -0.2 0.7 -1.2
v -0.1 0.1 -1.2
v -0.1 0.2 -1.2
v -0.1 0.3 -1.2
v -0.1 0.8 -1.2
v -0.1 0.9 -1.2
v 0 0.1 -1.2
v 0 0.2 -1.2
v 0 0.3 -1.2
v 0 0.4 -1.2
v 0 0.5 -1.2
v 0 0.6 -1.2
v 0 0.7 -1.2
v 0 0.8 -1.2
v 0 0.9 -1.2
v 0 1 -1.2
v 0.1 0.3 -1.2
v 0.1 0.4 -1.2
v 0.1 0.5 -1.2
v 0.2 0 -1.2
v 0.2 0.1 -1.2
v 0.2 0.3 -1.2
v 0.2 0.4 -1.2
v 0.2 0.6 -1.2
v 0.2 0.7 -1.2
v 0.2 0.8 -1.2
v 0.2 0.9 -1.2
v 0.3 0.5 -1.2
v 0.3 0.6 -1.2
v 0.3 0.7 -1.2
v 0.3 0.8 -1.2
v 0.3 0.9 -1.2
v 0.3 1 -1.2
v 0.4 0 -1.2
v 0.4 0.1 -1.2
v 0.4 0.2 -1.2
v 0.4 0.3 -1.2
v 0.4 0.4 -1.2
v 0.4 0.5 -1.2
v 0.4 0.6 -1.2
v 0.4 0.8 -1.2
v 0.3 0.8 -1.3
v 0.3 0.9 -1.3
v 0.4 0.8 -1.3
v 0.4 0.9 -1.3
v -0.3 0.3 0.2
v -0.3 0.4 0.2
v -0.2 0.3 0.2
v -0.2 0.4 0.2
v -0.1 0.8 -0.1
v -0.1 0.9 -0.1
v 0 0.8 -0.1
v 0 0.9 -0.1
v 0.2 0.3 -0.1
v 0.2 0.4 -0.1
v 0.3 0.3 -0.1
v 0.3 0.4 -0.1
v -0.4 0.4 -0.2
v -0.4 0.6 -0.2
v -0.3 0.4 -0.2
v -0.3 0.6 -0.2
v -0.1 0.7 -0.2
v -0.1 0.8 -0.2
v 0 0.5 -0.2
v 0 0.7 -0.2
v 0.1 0.4 -0.2
v 0.1 0.5 -0.2
v 0.2 0.4 -0.2
v 0.2 0.5 -0.2
v 0.2 0.7 -0.2
v 0.2 0.8 -0.2
v 0.3 0.5 -0.2
v 0.3 0.7 -0.2
v -0.2 0.7 -0.3
v -0.2 0.8 -0.3
v -0.1 0.6 -0.3
v -0.1 0.7 -0.3
v -0.1 0.8 -0.3
v 0 0.6 -0.3
v 0 0.7 -0.3
v 0.6 0.4 -0.3
v 0.6 0.5 -0.3
v 0.7 0.4 -0.3
v 0.7 0.5 -0.3
v 0.5 0.4 -0.4
v 0.5 0.5 -0.4
v 0.6 0.4 -0.4
v 0.6 0.5 -0.4
v 0.4 0.6 -0.5
v 0.4 0.7 -0.5
v 0.4 0.8 -0.5
v 0.5 0.6 -0.5
v 0.5 0.8 -0.5
v 0.7 0.4 -0.5
v 0.7 0.5 -0.5
v 0.8 0.4 -0.5
v 0.8 0.5 -0.5
v 0.8 0.1 -0.6
v 0.8 0.3 -0.6
v 0.9 0.1 -0.6
v 0.9 0.3 -0.6
v -0.8 0.3 -0.7
v -0.8 0.4 -0.7
v -0.7 0 -0.7
v -0.7 0.1 -0.7
v -0.7 0.2 -0.7
v -0.7 0.3 -0.7
v -0.7 0.4 -0.7
v -0.7 0.5 -0.7
v -0.7 0.6 -0.7
v -0.6 0 -0.7
v -0.6 0.1 -0.7
v -0.6 0.2 -0.7
v -0.6 0.3 -0.7
v -0.6 0.5 -0.7
v -0.6 0.6 -0.7
v -0.1 0.8 -0.7
v -0.1 0.9 -0.7
v -0.1 1 -0.7
v 0.1 0.9 -0.7
v 0.1 1 -0.7
v 0.2 0.8 -0.7
v 0.2 0.9 -0.7
v 0.6 0.6 -0.7
v 0.6 0.7 -0.7
v 0.7 0.6 -0.7
v 0.7 0.7 -0.7
v 0.8 0 -0.7
v 0.8 0.1 -0.7
v 0.8 0.3 -0.7
v 0.8 0.4 -0.7
v 0.9 0 -0.7
v 0.9 0.1 -0.7
v 0.9 0.3 -0.7
v 0.9 0.4 -0.7
v -0.7 0.1 -0.8
v -0.7 0.2 -0.8
v -0.7 0.3 -0.8
v -0.7 0.4 -0.8
v -0.6 0 -0.8
v -0.6 0.1 -0.8
v -0.6 0.2 -0.8
v -0.6 0.3 -0.8
v -0.6 0.4 -0.8
v -0.6 0.5 -0.8
v -0.6 0.7 -0.8
v -0.6 0.9 -0.8
v -0.6 1 -0.8
v -0.5 0 -0.8
v -0.5 0.1 -0.8
v -0.5 0.2 -0.8
v -0.5 0.3 -0.8
v -0.5 0.4 -0.8
v -0.5 0.5 -0.8
v -0.5 0.6 -0.8
v -0.5 0.7 -0.8
v -0.5 0.9 -0.8
v -0.5 1 -0.8
v -0.3 0.9 -0.8
v -0.3 1 -0.8
v -0.2 0.8 -0.8
v -0.2 0.9 -0.8
v -0.2 1 -0.8
v -0.1 0.7 -0.8
v -0.1 0.8 -0.8
v -0.1 0.9 -0.8
v 0.1 0.7 -0.8
v 0.1 0.8 -0.8
v 0.4 0.6 -0.8
v 0.4 0.7 -0.8
v 0.5 0.5 -0.8
v 0.5 0.6 -0.8
v 0.6 0.6 -0.8
v 0.6 0.7 -0.8
v 0.7 0 -0.8
v 0.7 0.1 -0.8
v 0.7 0.3 -0.8
v 0.7 0.4 -0.8
v 0.7 0.5 -0.8
v 0.7 0.6 -0.8
v 0.8 0 -0.8
v 0.8 0.1 -0.8
v 0.8 0.3 -0.8
v 0.8 0.4 -0.8
v 0.8 0.5 -0.8
v 0.9 0.4 -0.8
v 0.9 0.5 -0.8
v -0.6 0.1 -0.9
v -0.6 0.2 -0.9
v -0.6 0.3 -0.9
v -0.6 0.4 -0.9
v -0.5 0.1 -0.9
v -0.5 0.2 -0.9
v -0.5 0.3 -0.9
v -0.5 0.4 -0.9
v -0.5 0.5 -0.9
v -0.5 0.6 -0.9
v -0.5 0.8 -0.9
v -0.5 1 -0.9
v -0.4 0.1 -0.9
v -0.4 0.2 -0.9
v -0.4 0.4 -0.9
v -0.4 0.5 -0.9
v -0.4 0.6 -0.9
v -0.4 0.7 -0.9
v -0.4 0.8 -0.9
v -0.4 1 -0.9
v 0.2 0.6 -0.9
v 0.2 0.7 -0.9
v 0.3 0.5 -0.9
v 0.3 0.6 -0.9
v 0.3 0.7 -0.9
v 0.3 0.8 -0.9
v 0.4 0.6 -0.9
v 0.4 0.8 -0.9
v 0.5 0.5 -0.9
v 0.5 0.6 -0.9
v 0.6 0.1 -0.9
v 0.6 0.2 -0.9
v 0.6 0.3 -0.9
v 0.6 0.5 -0.9
v 0.7 0.1 -0.9
v 0.7 0.2 -0.9
v 0.7 0.3 -0.9
v 0.7 0.4 -0.9
v 0.7 0.5 -0.9
v 0.8 0.1 -0.9
v 0.8 0.2 -0.9
v 0.8 0.3 -0.9
v 0.8 0.4 -0.9
v 0.8 0.5 -0.9
v -0.5 0 -1
v -0.5 0.1 -1
v -0.5 0.2 -1
v -0.5 0.4 -1
v -0.4 0 -1
v -0.4 0.1 -1
v -0.4 0.2 -1
v -0.4 0.3 -1
v -0.4 0.4 -1
v -0.4 0.5 -1
v -0.4 0.6 -1
v -0.4 0.7 -1
v -0.4 1.1 -1
v -0.3 0.1 -1
v -0.3 0.2 -1
v -0.3 0.3 -1
v -0.3 0.4 -1
v -0.3 0.5 -1
v -0.3 0.6 -1
v -0.3 0.7 -1
v -0.3 0.8 -1
v -0.3 0.9 -1
v -0.3 1.1 -1
v -0.2 0.1 -1
v -0.2 0.2 -1
v -0.2 0.3 -1
v -0.2 0.4 -1
v -0.2 0.5 -1
v -0.2 0.6 -1
v -0.2 0.7 -1
v -0.2 0.8 -1
v -0.2 0.9 -1
v -0.1 0.7 -1
v -0.1 0.8 -1
v 0 0.7 -1
v 0 0.8 -1
v 0.4 0.2 -1
v 0.4 0.3 -1
v 0.4 0.4 -1
v 0.4 0.5 -1
v 0.5 0.1 -1
v 0.5 0.2 -1
v 0.5 0.3 -1
v 0.5 0.4 -1
v 0.6 0 -1
v 0.6 0.1 -1
v 0.6 0.2 -1
v 0.6 0.3 -1
v 0.6 0.5 -1
v 0.7 0 -1
v 0.7 0.1 -1
v 0.7 0.2 -1
v 0.7 0.3 -1
v -0.4 0 -1.1
v -0.4 0.1 -1.1
v -0.4 0.2 -1.1
v -0.4 0.3 -1.1
v -0.3 0 -1.1
v -0.3 0.1 -1.1
v -0.3 0.2 -1.1
v -0.3 0.3 -1.1
v -0.3 0.4 -1.1
v -0.3 0.5 -1.1
v -0.3 0.7 -1.1
v -0.3 0.8 -1.1
v -0.2 0 -1.1
v -0.2 0.1 -1.1
v -0.2 0.2 -1.1
v -0.2 0.3 -1.1
v -0.2 0.4 -1.1
v -0.2 0.5 -1.1
v -0.2 0.6 -1.1
v -0.2 0.7 -1.1
v -0.2 0.8 -1.1
v -0.1 0.1 -1.1
v -0.1 0.2 -1.1
v -0.1 0.3 -1.1
v -0.1 0.4 -1.1
v -0.1 0.5 -1.1
v -0.1 0.6 -1.1
v 0 0.1 -1.1
v 0 0.2 -1.1
v 0 0.3 -1.1
v 0 0.4 -1.1
v 0 0.5 -1.1
v 0 0.6 -1.1
v 0 0.7 -1.1
v 0 0.8 -1.1
v 0.1 0.3 -1.1
v 0.1 0.4 -1.1
v 0.1 0.5 -1.1
v 0.1 0.8 -1.1
v 0.1 0.9 -1.1
v 0.2 0 -1.1
v 0.2 0.1 -1.1
v 0.2 0.3 -1.1
v 0.2 0.4 -1.1
v 0.2 0.6 -1.1
v 0.2 0.7 -1.1
v 0.2 0.8 -1.1
v 0.2 0.9 -1.1
v 0.3 0.5 -1.1
v 0.3 0.6 -1.1
v 0.3 0.7 -1.1
v 0.3 0.8 -1.1
v 0.4 0 -1.1
v 0.4 0.1 -1.1
v 0.4 0.2 -1.1
v 0.4 0.3 -1.1
v 0.4 0.4 -1.1
v 0.4 0.5 -1.1
v 0.5 0.1 -1.1
v 0.5 0.2 -1.1
v 0.5 0.3 -1.1
v 0.5 0.4 -1.1
v 0.6 0 -1.1
v 0.6 0.1 -1.1
v 0.6 0.2 -1.1
v 0.6 0.3 -1.1
v 0.4 0.5 -1.2
v 0.4 0.6 -1.2
v 0.5 0.5 -1.2
v 0.5 0.6 -1.2
v -0.2 0.5 -1.3
v -0.2 0.8 -1.3
v -0.1 0.5 -1.3
v -0.1 0.8 -1.3
v -0.1 0.9 -1.3
v 0 0.5 -1.3
v 0 0.6 -1.3
v 0 0.9 -1.3
v 0 1 -1.3
v 0.1 0.5 -1.3
v 0.1 0.6 -1.3
v 0.1 0.9 -1.3
v 0.1 1 -1.3
v 0.2 0.7 -1.3
v 0.2 0.8 -1.3
v 0.2 0.9 -1.3
v 0.2 1 -1.3
v 0.3 0.8 -1.3
v 0.3 0.9 -1.3
v 0.3 1 -1.3
v 0.4 0.7 -1.3
v 0.4 0.8 -1.3
v -0.2 0 -1.4
v -0.2 0.5 -1.4
v -0.1 0 -1.4
v -0.1 0.3 -1.4
v -0.1 0.5 -1.4
v -0.1 0.7 -1.4
v 0 0.5 -1.4
v 0 0.6 -1.4
v 0.1 0.3 -1.4
v 0.1 0.5 -1.4
v 0.1 0.6 -1.4
v 0.1 0.7 -1.4
v 0.1 0.8 -1.4
v 0.1 0.9 -1.4
v 0.1 1 -1.4
v 0.2 0.3 -1.4
v 0.2 0.5 -1.4
v 0.2 0.7 -1.4
v 0.2 0.8 -1.4
v 0.2 0.9 -1.4
v 0.2 1 -1.4
v 0.3 0 -1.4
v 0.3 0.3 -1.4
v 0.3 0.8 -1.4
v 0.3 0.9 -1.4
v 0.4 0 -1.4
v 0.4 0.7 -1.4
v 0.4 0.8 -1.4
v 0.4 0.9 -1.4
v -0.1 0 -1.5
v -0.1 0.3 -1.5
v -0.1 0.7 -1.5
v -0.1 0.8 -1.5
v 0.1 0.3 -1.5
v 0.1 0.5 -1.5
v 0.1 0.7 -1.5
v 0.1 0.8 -1.5
v 0.2 0.3 -1.5
v 0.2 0.5 -1.5
v 0.3 0 -1.5
v 0.3 0.3 -1.5
v -0.4 0 2.98023e-08
v 0 0 2.98023e-08
v -0.6 0 -0.1
v -0.4 0 -0.1
v 0 0 -0.1
v 0.1 0 -0.1
v 0.2 0 -0.1
v 0.7 0 -0.1
v 0.1 0 -0.2
v 0.2 0 -0.2
v 0.7 0 -0.2
v 0.8 0 -0.2
v -0.7 0 -0.3
v -0.6 0 -0.3
v 0.8 0 -0.3
v 0.9 0 -0.3
v -0.7 0 -0.7
v -0.6 0 -0.7
v 0.8 0 -0.7
v 0.9 0 -0.7
v -0.6 0 -0.8
v -0.5 0 -0.8
v 0.7 0 -0.8
v 0.8 0 -0.8
v -0.5 0 -0.9
v -0.4 0 -0.9
v 0.6 0 -0.9
v 0.7 0 -0.9
v -0.5 0 -1
v -0.4 0 -1
v -0.3 0 -1
v -0.2 0 -1
v 0.4 0 -1
v 0.6 0 -1
v 0.7 0 -1
v -0.4 0 -1.1
v -0.3 0 -1.1
v -0.2 0 -1.1
v -0.1 0 -1.1
v 0.2 0 -1.1
v 0.4 0 -1.1
v 0.6 0 -1.1
v -0.2 0 -1.2
v -0.1 0 -1.2
v 0.2 0 -1.2
v 0.4 0 -1.2
v -0.2 0 -1.4
v -0.1 0 -1.4
v 0.3 0 -1.4
v 0.4 0 -1.4
v -0.1 0 -1.5
v 0.3 0 -1.5
v -0.2 0.1 0.1
v -0.1 0.1 0.1
v -0.2 0.1 2.98023e-08
v -0.1 0.1 2.98023e-08
v 0 0.1 2.98023e-08
v 0.1 0.1 2.98023e-08
v 0 0.1 -0.1
v 0.1 0.1 -0.1
v 0.2 0.1 -0.1
v 0.7 0.1 -0.1
v 0.8 0.1 -0.1
v 0.1 0.1 -0.2
v 0.2 0.1 -0.2
v 0.7 0.1 -0.2
v 0.8 0.1 -0.2
v -0.7 0.1 -0.7
v -0.6 0.1 -0.7
v -0.7 0.1 -0.8
v -0.6 0.1 -0.8
v -0.5 0.1 -0.8
v 0.7 0.1 -0.8
v 0.8 0.1 -0.8
v -0.6 0.1 -0.9
v -0.5 0.1 -0.9
v 0.7 0.1 -0.9
v 0.8 0.1 -0.9
v 0.2 0.1 -1.1
v 0.4 0.1 -1.1
v 0.2 0.1 -1.2
v 0.4 0.1 -1.2
v 0.1 0.2 2.98023e-08
v 0.2 0.2 2.98023e-08
v -0.4 0.2 -0.1
v -0.3 0.2 -0.1
v 0.1 0.2 -0.1
v 0.2 0.2 -0.1
v -0.4 0.2 -0.2
v -0.3 0.2 -0.2
v -0.5 0.2 -0.9
v -0.4 0.2 -0.9
v 0.6 0.2 -0.9
v 0.7 0.2 -0.9
v -0.5 0.2 -1
v -0.4 0.2 -1
v -0.3 0.2 -1
v -0.2 0.2 -1
v 0.5 0.2 -1
v 0.6 0.2 -1
v 0.7 0.2 -1
v -0.4 0.2 -1.1
v -0.3 0.2 -1.1
v -0.2 0.2 -1.1
v -0.1 0.2 -1.1
v 0 0.2 -1.1
v 0.5 0.2 -1.1
v 0.6 0.2 -1.1
v -0.2 0.2 -1.2
v -0.1 0.2 -1.2
v 0 0.2 -1.2
v -0.3 0.3 0.3
v -0.2 0.3 0.3
v -0.3 0.3 0.2
v -0.2 0.3 0.2
v 0.2 0.3 2.98023e-08
v 0.3 0.3 2.98023e-08
v 0.2 0.3 -0.1
v 0.3 0.3 -0.1
v -0.8 0.3 -0.6
v -0.7 0.3 -0.6
v 0.8 0.3 -0.6
v 0.9 0.3 -0.6
v -0.8 0.3 -0.7
v -0.7 0.3 -0.7
v -0.6 0.3 -0.7
v 0.8 0.3 -0.7
v 0.9 0.3 -0.7
v -0.7 0.3 -0.8
v -0.6 0.3 -0.8
v -0.5 0.3 -0.8
v -0.6 0.3 -0.9
v -0.5 0.3 -0.9
v 0.4 0.3 -1
v 0.5 0.3 -1
v 0.1 0.3 -1.1
v 0.2 0.3 -1.1
v 0.4 0.3 -1.1
v 0.5 0.3 -1.1
v 0.1 0.3 -1.2
v 0.2 0.3 -1.2
v 0.4 0.3 -1.2
v -0.4 0.4 2.98023e-08
v -0.2 0.4 2.98023e-08
v -0.4 0.4 -0.1
v -0.2 0.4 -0.1
v 0.6 0.4 -0.2
v 0.7 0.4 -0.2
v 0.6 0.4 -0.3
v 0.7 0.4 -0.3
v 0.8 0.4 -0.7
v 0.9 0.4 -0.7
v 0.7 0.4 -0.8
v 0.8 0.4 -0.8
v 0.9 0.4 -0.8
v 0.7 0.4 -0.9
v 0.8 0.4 -0.9
v -0.3 0.4 -1
v -0.2 0.4 -1
v -0.3 0.4 -1.1
v -0.2 0.4 -1.1
v -0.1 0.4 -1.1
v 0 0.4 -1.1
v 0.1 0.4 -1.1
v -0.2 0.4 -1.2
v 0 0.4 -1.2
v 0.1 0.4 -1.2
v 0.2 0.5 -0.1
v 0.3 0.5 -0.1
v 0.2 0.5 -0.2
v 0.3 0.5 -0.2
v -0.4 0.5 -0.3
v -0.3 0.5 -0.3
v -0.4 0.5 -0.4
v -0.3 0.5 -0.4
v -0.7 0.5 -0.6
v -0.6 0.5 -0.6
v -0.7 0.5 -0.7
v -0.6 0.5 -0.7
v 0.3 0.5 -1.1
v 0.4 0.5 -1.1
v 0.5 0.5 -1.1
v 0.3 0.5 -1.2
v 0.4 0.5 -1.2
v 0.5 0.5 -1.2
v -0.2 0.6 2.98023e-08
v -0.1 0.6 2.98023e-08
v -0.2 0.6 -0.1
v -0.1 0.6 -0.1
v -0.5 0.6 -0.3
v -0.4 0.6 -0.3
v 0.4 0.6 -0.4
v 0.5 0.6 -0.4
v 0.4 0.6 -0.5
v 0.5 0.6 -0.5
v -0.6 0.6 -0.6
v -0.5 0.6 -0.6
v -0.4 0.6 -0.6
v -0.6 0.6 -0.7
v -0.5 0.6 -0.7
v 0 0.6 -1.1
v 0.2 0.6 -1.1
v 0.3 0.6 -1.1
v 0 0.6 -1.2
v 0.2 0.6 -1.2
v 0.3 0.6 -1.2
v 0 0.6 -1.3
v 0.1 0.6 -1.3
v 0 0.6 -1.4
v 0.1 0.6 -1.4
v -0.1 0.7 2.98023e-08
v 0 0.7 2.98023e-08
v -0.1 0.7 -0.1
v 0 0.7 -0.1
v 0.2 0.7 -0.9
v 0.3 0.7 -0.9
v -0.3 0.7 -1
v -0.2 0.7 -1
v 0.2 0.7 -1
v 0.3 0.7 -1
v -0.3 0.7 -1.1
v -0.2 0.7 -1.1
v 0 0.7 -1.1
v -0.2 0.7 -1.2
v 0 0.7 -1.2
v -0.1 0.7 -1.4
v 0.1 0.7 -1.4
v -0.1 0.7 -1.5
v 0.1 0.7 -1.5
v 0.2 0.8 -1.1
v 0.3 0.8 -1.1
v 0.2 0.8 -1.2
v 0.3 0.8 -1.2
v 0.3 0.8 -1.3
v 0.4 0.8 -1.3
v 0.3 0.8 -1.4
v 0.4 0.8 -1.4
v -0.6 0.9 -0.7
v -0.5 0.9 -0.7
v -0.6 0.9 -0.8
v -0.5 0.9 -0.8
v 0.1 0.9 -1.3
v 0.2 0.9 -1.3
v 0.1 0.9 -1.4
v 0.2 0.9 -1.4
v -0.4 0.1 2.98023e-08
v -0.3 0.1 2.98023e-08
v -0.6 0.1 -0.1
v -0.5 0.1 -0.1
v -0.4 0.1 -0.1
v 0.3 0.1 -0.1
v 0.7 0.1 -0.1
v -0.6 0.1 -0.2
v -0.5 0.1 -0.2
v -0.4 0.1 -0.2
v -0.3 0.1 -0.2
v 0.3 0.1 -0.2
v 0.7 0.1 -0.2
v -0.7 0.1 -0.3
v -0.6 0.1 -0.3
v -0.7 0.1 -0.4
v -0.6 0.1 -0.4
v 0.8 0.1 -0.6
v 0.9 0.1 -0.6
v 0.8 0.1 -0.7
v 0.9 0.1 -0.7
v -0.5 0.1 -0.9
v -0.4 0.1 -0.9
v 0.6 0.1 -0.9
v 0.7 0.1 -0.9
v -0.5 0.1 -1
v -0.4 0.1 -1
v -0.3 0.1 -1
v -0.2 0.1 -1
v 0.5 0.1 -1
v 0.6 0.1 -1
v 0.7 0.1 -1
v -0.4 0.1 -1.1
v -0.3 0.1 -1.1
v -0.2 0.1 -1.1
v -0.1 0.1 -1.1
v 0 0.1 -1.1
v 0.5 0.1 -1.1
v 0.6 0.1 -1.1
v -0.2 0.1 -1.2
v -0.1 0.1 -1.2
v 0 0.1 -1.2
v -0.2 0.2 0.1
v -0.1 0.2 0.1
v -0.2 0.2 2.98023e-08
v -0.1 0.2 2.98023e-08
v 0.7 0.2 -0.1
v 0.8 0.2 -0.1
v 0.6 0.2 -0.2
v 0.7 0.2 -0.2
v 0.8 0.2 -0.2
v 0.6 0.2 -0.3
v 0.7 0.2 -0.3
v -0.7 0.2 -0.7
v -0.6 0.2 -0.7
v -0.7 0.2 -0.8
v -0.6 0.2 -0.8
v -0.5 0.2 -0.8
v -0.6 0.2 -0.9
v -0.5 0.2 -0.9
v 0.4 0.2 -1
v 0.5 0.2 -1
v 0 0.2 -1.1
v 0.4 0.2 -1.1
v 0.5 0.2 -1.1
v 0 0.2 -1.2
v 0.4 0.2 -1.2
v -0.3 0.3 2.98023e-08
v 0 0.3 2.98023e-08
v -0.5 0.3 -0.1
v -0.4 0.3 -0.1
v -0.3 0.3 -0.1
v 0 0.3 -0.1
v 0.2 0.3 -0.1
v 0.3 0.3 -0.1
v -0.6 0.3 -0.2
v -0.5 0.3 -0.2
v -0.4 0.3 -0.2
v 0.3 0.3 -0.2
v 0.4 0.3 -0.2
v 0.7 0.3 -0.2
v 0.8 0.3 -0.2
v -0.6 0.3 -0.3
v -0.5 0.3 -0.3
v 0.2 0.3 -0.3
v 0.4 0.3 -0.3
v 0.7 0.3 -0.3
v 0.8 0.3 -0.3
v -0.7 0.3 -0.4
v -0.6 0.3 -0.4
v -0.7 0.3 -0.5
v -0.6 0.3 -0.5
v 0.7 0.3 -0.8
v 0.8 0.3 -0.8
v 0.6 0.3 -0.9
v 0.7 0.3 -0.9
v 0.8 0.3 -0.9
v -0.4 0.3 -1
v -0.3 0.3 -1
v -0.2 0.3 -1
v 0.5 0.3 -1
v 0.6 0.3 -1
v 0.7 0.3 -1
v -0.4 0.3 -1.1
v -0.3 0.3 -1.1
v -0.2 0.3 -1.1
v -0.1 0.3 -1.1
v 0 0.3 -1.1
v 0.5 0.3 -1.1
v 0.6 0.3 -1.1
v -0.2 0.3 -1.2
v -0.1 0.3 -1.2
v 0 0.3 -1.2
v -0.1 0.3 -1.4
v 0.1 0.3 -1.4
v 0.2 0.3 -1.4
v 0.3 0.3 -1.4
v -0.1 0.3 -1.5
v 0.1 0.3 -1.5
v 0.2 0.3 -1.5
v 0.3 0.3 -1.5
v -0.3 0.4 0.3
v -0.2 0.4 0.3
v -0.3 0.4 0.2
v -0.2 0.4 0.2
v 0.2 0.4 2.98023e-08
v 0.3 0.4 2.98023e-08
v 0.2 0.4 -0.1
v 0.3 0.4 -0.1
v -0.5 0.4 -0.2
v -0.4 0.4 -0.2
v -0.3 0.4 -0.2
v 0.1 0.4 -0.2
v 0.2 0.4 -0.2
v 0.4 0.4 -0.2
v 0.5 0.4 -0.2
v -0.6 0.4 -0.3
v -0.5 0.4 -0.3
v 0.1 0.4 -0.3
v 0.2 0.4 -0.3
v 0.4 0.4 -0.3
v 0.5 0.4 -0.3
v 0.6 0.4 -0.3
v 0.7 0.4 -0.3
v 0.8 0.4 -0.3
v 0.9 0.4 -0.3
v -0.4 0.4 -0.4
v -0.3 0.4 -0.4
v 0.5 0.4 -0.4
v 0.6 0.4 -0.4
v -0.7 0.4 -0.5
v -0.6 0.4 -0.5
v -0.5 0.4 -0.5
v -0.4 0.4 -0.5
v 0.5 0.4 -0.5
v 0.7 0.4 -0.5
v 0.8 0.4 -0.5
v -0.8 0.4 -0.6
v -0.7 0.4 -0.6
v -0.6 0.4 -0.6
v -0.5 0.4 -0.6
v 0.7 0.4 -0.6
v 0.9 0.4 -0.6
v -0.8 0.4 -0.7
v -0.7 0.4 -0.7
v -0.6 0.4 -0.7
v -0.7 0.4 -0.8
v -0.6 0.4 -0.8
v -0.5 0.4 -0.8
v -0.6 0.4 -0.9
v -0.5 0.4 -0.9
v -0.4 0.4 -0.9
v -0.5 0.4 -1
v -0.4 0.4 -1
v 0.4 0.4 -1
v 0.5 0.4 -1
v 0.1 0.4 -1.1
v 0.2 0.4 -1.1
v 0.4 0.4 -1.1
v 0.5 0.4 -1.1
v 0.1 0.4 -1.2
v 0.2 0.4 -1.2
v 0.4 0.4 -1.2
v -0.4 0.5 2.98023e-08
v -0.3 0.5 2.98023e-08
v -0.4 0.5 -0.1
v -0.3 0.5 -0.1
v 0 0.5 -0.2
v 0.1 0.5 -0.2
v 0.5 0.5 -0.2
v 0.7 0.5 -0.2
v 0 0.5 -0.3
v 0.1 0.5 -0.3
v 0.3 0.5 -0.3
v 0.5 0.5 -0.3
v 0.6 0.5 -0.3
v 0.7 0.5 -0.3
v 0.8 0.5 -0.3
v 0.3 0.5 -0.4
v 0.4 0.5 -0.4
v 0.5 0.5 -0.4
v 0.6 0.5 -0.4
v -0.5 0.5 -0.5
v -0.4 0.5 -0.5
v 0.4 0.5 -0.5
v 0.5 0.5 -0.5
v 0.7 0.5 -0.5
v 0.8 0.5 -0.5
v -0.6 0.5 -0.6
v -0.5 0.5 -0.6
v -0.4 0.5 -0.6
v 0.5 0.5 -0.6
v 0.7 0.5 -0.6
v 0.9 0.5 -0.6
v -0.6 0.5 -0.7
v -0.5 0.5 -0.7
v 0.8 0.5 -0.7
v 0.9 0.5 -0.7
v 0.5 0.5 -0.8
v 0.7 0.5 -0.8
v 0.8 0.5 -0.8
v 0.9 0.5 -0.8
v 0.3 0.5 -0.9
v 0.5 0.5 -0.9
v 0.6 0.5 -0.9
v 0.7 0.5 -0.9
v 0.8 0.5 -0.9
v -0.3 0.5 -1
v -0.2 0.5 -1
v 0.3 0.5 -1
v 0.4 0.5 -1
v 0.6 0.5 -1
v -0.3 0.5 -1.1
v -0.2 0.5 -1.1
v -0.1 0.5 -1.1
v 0 0.5 -1.1
v 0.1 0.5 -1.1
v -0.2 0.5 -1.2
v 0 0.5 -1.2
v 0.1 0.5 -1.2
v -0.2 0.5 -1.3
v -0.1 0.5 -1.3
v 0 0.5 -1.3
v 0.1 0.5 -1.3
v -0.2 0.5 -1.4
v -0.1 0.5 -1.4
v 0 0.5 -1.4
v 0.1 0.5 -1.4
v 0.2 0.5 -1.4
v 0.1 0.5 -1.5
v 0.2 0.5 -1.5
v -0.3 0.6 2.98023e-08
v -0.2 0.6 2.98023e-08
v 0.1 0.6 2.98023e-08
v 0.2 0.6 2.98023e-08
v -0.4 0.6 -0.1
v -0.3 0.6 -0.1
v -0.2 0.6 -0.1
v 0.1 0.6 -0.1
v 0.2 0.6 -0.1
v -0.4 0.6 -0.2
v -0.3 0.6 -0.2
v -0.1 0.6 -0.3
v 0 0.6 -0.3
v 0.2 0.6 -0.3
v 0.3 0.6 -0.3
v -0.1 0.6 -0.4
v 0 0.6 -0.4
v 0.3 0.6 -0.4
v 0.2 0.6 -0.5
v 0.3 0.6 -0.5
v 0.4 0.6 -0.5
v 0.5 0.6 -0.5
v -0.7 0.6 -0.6
v -0.6 0.6 -0.6
v 0.5 0.6 -0.6
v 0.6 0.6 -0.6
v -0.7 0.6 -0.7
v -0.6 0.6 -0.7
v 0.4 0.6 -0.7
v 0.6 0.6 -0.7
v 0.7 0.6 -0.7
v 0.4 0.6 -0.8
v 0.5 0.6 -0.8
v 0.6 0.6 -0.8
v 0.7 0.6 -0.8
v 0.2 0.6 -0.9
v 0.3 0.6 -0.9
v 0.4 0.6 -0.9
v 0.5 0.6 -0.9
v 0.2 0.6 -1
v 0.3 0.6 -1
v 0.4 0.6 -1
v 0.3 0.6 -1.1
v 0.4 0.6 -1.1
v 0.5 0.6 -1.1
v 0.3 0.6 -1.2
v 0.4 0.6 -1.2
v 0.5 0.6 -1.2
v -0.3 0.7 -0.1
v -0.2 0.7 -0.1
v 0.2 0.7 -0.1
v 0.3 0.7 -0.1
v -0.1 0.7 -0.2
v 0 0.7 -0.2
v 0.2 0.7 -0.2
v 0.3 0.7 -0.2
v -0.5 0.7 -0.3
v -0.3 0.7 -0.3
v -0.2 0.7 -0.3
v -0.1 0.7 -0.3
v 0 0.7 -0.3
v 0.2 0.7 -0.3
v -0.5 0.7 -0.4
v -0.3 0.7 -0.4
v -0.2 0.7 -0.4
v -0.1 0.7 -0.4
v 0 0.7 -0.4
v 0.3 0.7 -0.4
v 0.4 0.7 -0.4
v 0 0.7 -0.5
v 0.2 0.7 -0.5
v 0.3 0.7 -0.5
v 0.4 0.7 -0.5
v -0.6 0.7 -0.6
v -0.5 0.7 -0.6
v 0.6 0.7 -0.6
v 0.7 0.7 -0.6
v 0.4 0.7 -0.7
v 0.6 0.7 -0.7
v 0.7 0.7 -0.7
v -0.6 0.7 -0.8
v -0.5 0.7 -0.8
v -0.1 0.7 -0.8
v 0.1 0.7 -0.8
v 0.3 0.7 -0.8
v 0.4 0.7 -0.8
v 0.6 0.7 -0.8
v -0.1 0.7 -0.9
v 0 0.7 -0.9
v -0.1 0.7 -1
v 0 0.7 -1
v 0.1 0.7 -1
v -0.1 0.7 -1.1
v 0 0.7 -1.1
v 0.2 0.7 -1.1
v 0.3 0.7 -1.1
v 0 0.7 -1.2
v 0.2 0.7 -1.2
v 0.3 0.7 -1.2
v 0.2 0.7 -1.3
v 0.4 0.7 -1.3
v 0.2 0.7 -1.4
v 0.4 0.7 -1.4
v -0.2 0.8 2.98023e-08
v -0.1 0.8 2.98023e-08
v 0 0.8 2.98023e-08
v 0.1 0.8 2.98023e-08
v -0.1 0.8 -0.1
v 0 0.8 -0.1
v 0.1 0.8 -0.1
v 0.2 0.8 -0.1
v -0.1 0.8 -0.2
v 0.2 0.8 -0.2
v -0.3 0.8 -0.3
v -0.2 0.8 -0.3
v -0.1 0.8 -0.3
v -0.5 0.8 -0.4
v -0.4 0.8 -0.4
v -0.3 0.8 -0.4
v -0.2 0.8 -0.4
v 0.4 0.8 -0.4
v 0.5 0.8 -0.4
v 0 0.8 -0.5
v 0.3 0.8 -0.5
v 0.4 0.8 -0.5
v 0.5 0.8 -0.5
v 0 0.8 -0.6
v 0.2 0.8 -0.6
v -0.5 0.8 -0.7
v -0.4 0.8 -0.7
v -0.1 0.8 -0.7
v 0.2 0.8 -0.7
v -0.2 0.8 -0.8
v -0.1 0.8 -0.8
v 0.1 0.8 -0.8
v 0.3 0.8 -0.8
v 0.4 0.8 -0.8
v -0.1 0.8 -0.9
v 0 0.8 -0.9
v 0.3 0.8 -0.9
v 0.4 0.8 -0.9
v -0.3 0.8 -1
v -0.2 0.8 -1
v -0.1 0.8 -1
v 0 0.8 -1
v 0.1 0.8 -1
v 0.3 0.8 -1
v -0.3 0.8 -1.1
v -0.2 0.8 -1.1
v -0.1 0.8 -1.1
v 0 0.8 -1.1
v 0.1 0.8 -1.1
v -0.2 0.8 -1.2
v -0.1 0.8 -1.2
v 0 0.8 -1.2
v 0.3 0.8 -1.2
v 0.4 0.8 -1.2
v -0.2 0.8 -1.3
v -0.1 0.8 -1.3
v 0.2 0.8 -1.3
v 0.3 0.8 -1.3
v 0.4 0.8 -1.3
v 0.1 0.8 -1.4
v 0.2 0.8 -1.4
v -0.1 0.8 -1.5
v 0.1 0.8 -1.5
v -0.1 0.9 2.98023e-08
v 0 0.9 2.98023e-08
v -0.1 0.9 -0.1
v 0 0.9 -0.1
v -0.4 0.9 -0.4
v 0 0.9 -0.4
v -0.4 0.9 -0.5
v -0.3 0.9 -0.5
v -0.1 0.9 -0.6
v 0 0.9 -0.6
v 0.1 0.9 -0.6
v 0.2 0.9 -0.6
v -0.3 0.9 -0.7
v -0.2 0.9 -0.7
v -0.1 0.9 -0.7
v 0.1 0.9 -0.7
v 0.2 0.9 -0.7
v -0.3 0.9 -0.8
v -0.2 0.9 -0.8
v -0.1 0.9 -0.8
v -0.3 0.9 -1
v -0.2 0.9 -1
v 0.1 0.9 -1
v 0.3 0.9 -1
v 0.1 0.9 -1.1
v 0.2 0.9 -1.1
v 0.3 0.9 -1.1
v -0.1 0.9 -1.2
v 0 0.9 -1.2
v 0.2 0.9 -1.2
v 0.3 0.9 -1.2
v -0.1 0.9 -1.3
v 0 0.9 -1.3
v 0.3 0.9 -1.3
v 0.4 0.9 -1.3
v 0.3 0.9 -1.4
v 0.4 0.9 -1.4
v -0.4 1 -0.5
v -0.3 1 -0.5
v -0.1 1 -0.6
v 0.1 1 -0.6
v -0.6 1 -0.7
v -0.5 1 -0.7
v -0.4 1 -0.7
v -0.3 1 -0.7
v -0.2 1 -0.7
v -0.1 1 -0.7
v 0.1 1 -0.7
v -0.6 1 -0.8
v -0.5 1 -0.8
v -0.3 1 -0.8
v -0.2 1 -0.8
v -0.5 1 -0.9
v -0.4 1 -0.9
v -0.3 1 -0.9
v 0 1 -1.2
v 0.3 1 -1.2
v 0 1 -1.3
v 0.1 1 -1.3
v 0.2 1 -1.3
v 0.3 1 -1.3
v 0.1 1 -1.4
v 0.2 1 -1.4
v -0.4 1.1 -0.9
v -0.3 1.1 -0.9
v -0.4 1.1 -1
v -0.3 1.1 -1

# faces
f 3/2/1 2/2/1 1/2/1
f 4/2/1 2/2/1 3/2/1
f 7/4/1 6/4/1 5/4/1
f 8/4/1 6/4/1 7/4/1
f 9/4/1 6/4/1 8/4/1
f 11/4/1 9/4/1 8/4/1
f 12/2/1 10/2/1 9/2/1
f 12/4/1 9/4/1 11/4/1
f 13/2/1 10/2/1 12/2/1
f 14/4/1 11/4/1 8/4/1
f 15/5/1 12/5/1 11/5/1
f 15/4/1 11/4/1 14/4/1
f 16/5/1 12/5/1 15/5/1
f 17/5/1 12/5/1 16/5/1
f 19/4/1 16/4/1 15/4/1
f 20/4/1 16/4/1 19/4/1
f 21/2/1 18/2/1 17/2/1
f 22/2/1 18/2/1 21/2/1
f 25/4/1 24/4/1 23/4/1
f 26/4/1 24/4/1 25/4/1
f 31/4/1 28/4/1 27/4/1
f 32/4/1 28/4/1 31/4/1
f 33/4/1 28/4/1 32/4/1
f 35/4/1 30/4/1 29/4/1
f 36/4/1 30/4/1 35/4/1
f 39/2/1 37/2/1 36/2/1
f 40/2/1 37/2/1 39/2/1
f 41/4/1 34/4/1 33/4/1
f 41/4/1 33/4/1 32/4/1
f 42/4/1 34/4/1 41/4/1
f 43/4/1 34/4/1 42/4/1
f 45/5/1 39/5/1 38/5/1
f 46/5/1 39/5/1 45/5/1
f 48/4/1 44/4/1 43/4/1
f 48/4/1 43/4/1 42/4/1
f 49/4/1 44/4/1 48/4/1
f 52/3/1 47/3/1 46/3/1
f 53/3/1 47/3/1 52/3/1
f 54/4/1 51/4/1 50/4/1
f 55/5/1 52/5/1 51/5/1
f 55/4/1 51/4/1 54/4/1
f 56/5/1 52/5/1 55/5/1
f 58/4/1 56/4/1 55/4/1
f 59/4/1 58/4/1 57/4/1
f 60/4/1 56/4/1 58/4/1
f 60/4/1 58/4/1 59/4/1
f 63/5/1 62/5/1 61/5/1
f 64/5/1 62/5/1 63/5/1
f 70/4/1 66/4/1 65/4/1
f 71/1/1 67/1/1 66/1/1
f 71/4/1 66/4/1 70/4/1
f 72/1/1 67/1/1 71/1/1
f 76/4/1 69/4/1 68/4/1
f 77/4/1 69/4/1 76/4/1
f 79/4/1 74/4/1 73/4/1
f 80/3/1 75/3/1 74/3/1
f 80/4/1 74/4/1 79/4/1
f 81/4/1 78/4/1 77/4/1
f 82/4/1 78/4/1 81/4/1
f 86/3/1 75/3/1 80/3/1
f 87/3/1 75/3/1 86/3/1
f 88/4/1 84/4/1 83/4/1
f 89/4/1 84/4/1 88/4/1
f 91/5/1 86/5/1 85/5/1
f 92/5/1 86/5/1 91/5/1
f 94/4/1 90/4/1 89/4/1
f 95/4/1 90/4/1 94/4/1
f 96/4/1 92/4/1 91/4/1
f 97/4/1 92/4/1 96/4/1
f 98/4/1 94/4/1 93/4/1
f 99/4/1 94/4/1 98/4/1
f 100/4/1 94/4/1 99/4/1
f 101/5/1 97/5/1 96/5/1
f 102/4/1 100/4/1 99/4/1
f 102/4/1 101/4/1 100/4/1
f 103/4/1 101/4/1 102/4/1
f 104/5/1 97/5/1 101/5/1
f 104/4/1 101/4/1 103/4/1
f 105/5/1 97/5/1 104/5/1
f 106/4/1 104/4/1 103/4/1
f 106/4/1 105/4/1 104/4/1
f 107/4/1 105/4/1 106/4/1
f 108/4/1 105/4/1 107/4/1
f 109/4/1 105/4/1 108/4/1
f 114/4/1 111/4/1 110/4/1
f 115/4/1 111/4/1 114/4/1
f 117/1/1 113/1/1 112/1/1
f 118/1/1 113/1/1 117/1/1
f 119/4/1 117/4/1 116/4/1
f 120/4/1 117/4/1 119/4/1
f 124/3/1 121/3/1 120/3/1
f 125/3/1 121/3/1 124/3/1
f 127/4/1 123/4/1 122/4/1
f 128/4/1 123/4/1 127/4/1
f 133/4/1 127/4/1 126/4/1
f 133/4/1 128/4/1 127/4/1
f 134/4/1 128/4/1 133/4/1
f 136/4/1 130/4/1 129/4/1
f 137/4/1 130/4/1 136/4/1
f 139/5/1 132/5/1 131/5/1
f 140/5/1 132/5/1 139/5/1
f 141/4/1 128/4/1 134/4/1
f 142/4/1 128/4/1 141/4/1
f 143/4/1 138/4/1 137/4/1
f 143/4/1 136/4/1 135/4/1
f 143/4/1 137/4/1 136/4/1
f 144/4/1 138/4/1 143/4/1
f 145/4/1 140/4/1 139/4/1
f 146/4/1 140/4/1 145/4/1
f 147/5/1 146/5/1 145/5/1
f 148/5/1 146/5/1 147/5/1
f 151/4/1 148/4/1 147/4/1
f 152/4/1 150/4/1 149/4/1
f 153/4/1 150/4/1 152/4/1
f 154/4/1 150/4/1 153/4/1
f 155/4/1 150/4/1 154/4/1
f 156/4/1 148/4/1 151/4/1
f 157/4/1 148/4/1 156/4/1
f 158/4/1 148/4/1 157/4/1
f 161/4/1 160/4/1 159/4/1
f 162/4/1 160/4/1 161/4/1
f 165/4/1 161/4/1 159/4/1
f 166/4/1 161/4/1 165/4/1
f 167/4/1 164/4/1 163/4/1
f 168/4/1 164/4/1 167/4/1
f 175/4/1 170/4/1 169/4/1
f 176/4/1 170/4/1 175/4/1
f 177/3/1 172/3/1 171/3/1
f 178/3/1 172/3/1 177/3/1
f 179/4/1 174/4/1 173/4/1
f 180/4/1 174/4/1 179/4/1
f 181/4/1 175/4/1 169/4/1
f 182/4/1 181/4/1 180/4/1
f 183/4/1 175/4/1 181/4/1
f 183/4/1 181/4/1 182/4/1
f 187/4/1 184/4/1 183/4/1
f 188/4/1 184/4/1 187/4/1
f 189/2/1 186/2/1 185/2/1
f 190/2/1 186/2/1 189/2/1
f 197/3/1 192/3/1 191/3/1
f 198/6/1 193/6/1 192/6/1
f 198/3/1 192/3/1 197/3/1
f 199/4/1 195/4/1 194/4/1
f 200/4/1 195/4/1 199/4/1
f 201/4/1 197/4/1 196/4/1
f 202/4/1 197/4/1 201/4/1
f 203/6/1 193/6/1 198/6/1
f 205/2/1 203/2/1 202/2/1
f 206/6/1 193/6/1 203/6/1
f 206/2/1 203/2/1 205/2/1
f 207/5/1 205/5/1 204/5/1
f 208/5/1 205/5/1 207/5/1
f 209/6/1 193/6/1 206/6/1
f 211/2/1 209/2/1 208/2/1
f 212/6/1 193/6/1 209/6/1
f 212/2/1 209/2/1 211/2/1
f 213/6/1 193/6/1 212/6/1
f 214/6/1 193/6/1 213/6/1
f 217/5/1 211/5/1 210/5/1
f 218/5/1 211/5/1 217/5/1
f 219/4/1 216/4/1 215/4/1
f 221/4/1 218/4/1 217/4/1
f 222/4/1 218/4/1 221/4/1
f 223/6/1 213/6/1 212/6/1
f 224/4/1 220/4/1 219/4/1
f 224/4/1 219/4/1 215/4/1
f 225/4/1 220/4/1 224/4/1
f 226/2/1 223/2/1 222/2/1
f 227/6/1 213/6/1 223/6/1
f 227/2/1 223/2/1 226/2/1
f 228/6/1 213/6/1 227/6/1
f 231/6/1 230/6/1 229/6/1
f 232/6/1 230/6/1 231/6/1
f 235/6/1 234/6/1 233/6/1
f 240/6/1 235/6/1 233/6/1
f 240/6/1 236/6/1 235/6/1
f 241/6/1 236/6/1 240/6/1
f 242/4/1 238/4/1 237/4/1
f 243/4/1 238/4/1 242/4/1
f 246/6/1 240/6/1 239/6/1
f 247/6/1 240/6/1 246/6/1
f 248/4/1 245/4/1 244/4/1
f 249/4/1 245/4/1 248/4/1
f 252/3/1 251/3/1 250/3/1
f 253/3/1 251/3/1 252/3/1
f 260/4/1 255/4/1 254/4/1
f 261/4/1 255/4/1 260/4/1
f 262/4/1 257/4/1 256/4/1
f 263/4/1 257/4/1 262/4/1
f 265/2/1 259/2/1 258/2/1
f 266/2/1 259/2/1 265/2/1
f 267/4/1 265/4/1 264/4/1
f 268/4/1 265/4/1 267/4/1
f 271/6/1 270/6/1 269/6/1
f 272/6/1 270/6/1 271/6/1
f 277/3/1 274/3/1 273/3/1
f 278/3/1 274/3/1 277/3/1
f 280/6/1 276/6/1 275/6/1
f 281/6/1 276/6/1 280/6/1
f 282/6/1 280/6/1 279/6/1
f 283/6/1 280/6/1 282/6/1
f 286/4/1 285/4/1 284/4/1
f 287/4/1 285/4/1 286/4/1
f 289/4/1 288/4/1 287/4/1
f 290/4/1 288/4/1 289/4/1
f 293/6/1 292/6/1 291/6/1
f 294/6/1 292/6/1 293/6/1
f 297/4/1 296/4/1 295/4/1
f 298/4/1 296/4/1 297/4/1
f 301/3/1 300/3/1 299/3/1
f 302/3/1 300/3/1 301/3/1
f 307/1/1 304/1/1 303/1/1
f 308/1/1 304/1/1 307/1/1
f 309/4/1 306/4/1 305/4/1
f 310/4/1 306/4/1 309/4/1
f 313/6/1 312/6/1 311/6/1
f 314/6/1 312/6/1 313/6/1
f 317/4/1 316/4/1 315/4/1
f 318/4/1 316/4/1 317/4/1
f 321/4/1 320/4/1 319/4/1
f 322/4/1 320/4/1 321/4/1
f 325/3/1 324/3/1 323/3/1
f 326/3/1 324/3/1 325/3/1
f 329/4/1 328/4/1 327/4/1
f 330/4/1 328/4/1 329/4/1
f 333/4/1 332/4/1 331/4/1
f 334/4/1 332/4/1 333/4/1
f 337/4/1 336/4/1 335/4/1
f 338/4/1 336/4/1 337/4/1
f 340/4/1 339/4/1 338/4/1
f 341/4/1 339/4/1 340/4/1
f 344/4/1 343/4/1 342/4/1
f 345/4/1 343/4/1 344/4/1
f 346/4/2 347/4/2 348/4/2
f 348/4/2 347/4/2 349/4/2
f 350/4/2 351/4/2 352/4/2
f 352/4/2 351/4/2 353/4/2
f 354/4/2 355/4/2 358/4/2
f 358/4/2 355/4/2 359/4/2
f 356/4/2 357/4/2 360/4/2
f 360/4/2 357/4/2 361/4/2
f 361/4/2 357/4/2 362/4/2
f 362/4/2 357/4/2 363/4/2
f 364/4/2 365/4/2 366/4/2
f 366/4/2 365/4/2 367/4/2
f 368/4/2 369/4/2 370/4/2
f 370/4/2 369/4/2 371/4/2
f 372/4/2 373/4/2 374/4/2
f 374/4/2 373/4/2 375/4/2
f 376/4/2 377/4/2 379/4/2
f 379/4/2 377/4/2 380/4/2
f 378/4/2 379/4/2 381/4/2
f 381/4/2 379/4/2 382/4/2
f 383/4/2 384/4/2 385/4/2
f 385/4/2 384/4/2 386/4/2
f 387/4/2 388/4/2 391/4/2
f 391/4/2 388/4/2 392/4/2
f 389/4/2 390/4/2 394/4/2
f 394/4/2 390/4/2 395/4/2
f 393/4/2 394/4/2 400/4/2
f 400/4/2 394/4/2 401/4/2
f 396/4/2 397/4/2 403/4/2
f 403/4/2 397/4/2 404/4/2
f 398/4/2 399/4/2 405/4/2
f 405/4/2 399/4/2 406/4/2
f 402/4/2 403/4/2 407/4/2
f 407/4/2 403/4/2 408/4/2
f 409/4/2 410/4/2 411/4/2
f 411/4/2 410/4/2 412/4/2
f 413/3/2 414/3/2 415/3/2
f 415/3/2 414/3/2 416/3/2
f 419/6/2 420/6/2 421/6/2
f 421/6/2 420/6/2 422/6/2
f 417/4/2 418/4/2 423/4/2
f 423/4/2 418/4/2 424/4/2
f 425/4/2 426/4/2 433/4/2
f 427/4/2 428/4/2 435/4/2
f 435/4/2 428/4/2 436/4/2
f 429/2/2 430/2/2 437/2/2
f 437/2/2 430/2/2 438/2/2
f 431/4/2 432/4/2 439/4/2
f 439/4/2 432/4/2 440/4/2
f 433/4/2 434/4/2 441/4/2
f 425/4/2 433/4/2 441/4/2
f 441/4/2 434/4/2 442/4/2
f 443/4/2 444/4/2 446/4/2
f 446/4/2 444/4/2 447/4/2
f 445/4/2 446/4/2 448/4/2
f 448/4/2 446/4/2 449/4/2
f 450/4/2 451/4/2 454/4/2
f 454/4/2 451/4/2 455/4/2
f 452/3/2 453/3/2 456/3/2
f 456/3/2 453/3/2 457/3/2
f 458/4/2 459/4/2 462/4/2
f 462/4/2 459/4/2 463/4/2
f 460/6/2 461/6/2 464/6/2
f 464/6/2 461/6/2 465/6/2
f 466/4/2 467/4/2 468/4/2
f 468/4/2 467/4/2 469/4/2
f 470/2/2 471/2/2 472/2/2
f 472/2/2 471/2/2 473/2/2
f 474/4/2 475/4/2 476/4/2
f 476/4/2 475/4/2 477/4/2
f 477/4/2 478/4/2 482/4/2
f 482/4/2 478/4/2 483/4/2
f 483/4/2 478/4/2 484/4/2
f 481/4/2 482/4/2 485/4/2
f 482/4/2 483/4/2 485/4/2
f 485/4/2 483/4/2 486/4/2
f 479/6/2 480/6/2 487/6/2
f 487/6/2 480/6/2 488/6/2
f 481/4/2 485/4/2 489/4/2
f 489/4/2 485/4/2 490/4/2
f 491/4/2 492/4/2 497/4/2
f 497/4/2 492/4/2 498/4/2
f 493/4/2 494/4/2 499/4/2
f 499/4/2 494/4/2 500/4/2
f 495/4/2 496/4/2 503/4/2
f 503/4/2 496/4/2 504/4/2
f 501/6/2 502/6/2 507/6/2
f 507/6/2 502/6/2 508/6/2
f 505/4/2 506/4/2 509/4/2
f 509/4/2 506/4/2 510/4/2
f 511/6/2 512/6/2 513/6/2
f 513/6/2 512/6/2 514/6/2
f 517/4/2 518/4/2 520/4/2
f 520/4/2 518/4/2 521/4/2
f 515/6/2 516/6/2 522/6/2
f 522/6/2 516/6/2 523/6/2
f 519/4/2 520/4/2 524/4/2
f 524/4/2 520/4/2 525/4/2
f 528/4/2 529/4/2 532/4/2
f 532/4/2 529/4/2 533/4/2
f 530/4/2 531/4/2 534/4/2
f 534/4/2 531/4/2 535/4/2
f 526/4/2 527/4/2 538/4/2
f 538/4/2 527/4/2 539/4/2
f 535/4/2 536/4/2 543/4/2
f 536/1/2 537/1/2 544/1/2
f 543/4/2 536/4/2 544/4/2
f 544/1/2 537/1/2 545/1/2
f 540/4/2 541/4/2 546/4/2
f 546/4/2 541/4/2 547/4/2
f 542/4/2 543/4/2 548/4/2
f 543/4/2 544/4/2 548/4/2
f 548/4/2 544/4/2 549/4/2
f 549/4/2 544/4/2 550/4/2
f 549/4/2 550/4/2 553/4/2
f 550/3/2 551/3/2 554/3/2
f 553/4/2 550/4/2 554/4/2
f 551/6/2 552/6/2 555/6/2
f 554/3/2 551/3/2 555/3/2
f 555/6/2 552/6/2 556/6/2
f 555/6/2 556/6/2 557/6/2
f 557/6/2 556/6/2 558/6/2
f 559/6/2 560/6/2 562/6/2
f 561/3/2 562/3/2 564/3/2
f 562/6/2 560/6/2 565/6/2
f 564/3/2 562/3/2 565/3/2
f 563/4/2 564/4/2 566/4/2
f 566/4/2 564/4/2 567/4/2
f 565/6/2 560/6/2 568/6/2
f 567/2/2 568/2/2 570/2/2
f 568/6/2 560/6/2 571/6/2
f 570/2/2 568/2/2 571/2/2
f 569/4/2 570/4/2 574/4/2
f 574/4/2 570/4/2 575/4/2
f 571/6/2 560/6/2 576/6/2
f 572/4/2 573/4/2 577/4/2
f 577/4/2 573/4/2 578/4/2
f 574/4/2 575/4/2 582/4/2
f 582/4/2 575/4/2 583/4/2
f 576/6/2 560/6/2 584/6/2
f 578/4/2 579/4/2 585/4/2
f 585/4/2 579/4/2 586/4/2
f 580/4/2 581/4/2 587/4/2
f 584/6/2 560/6/2 588/6/2
f 588/6/2 560/6/2 589/6/2
f 587/4/2 581/4/2 590/4/2
f 590/4/2 581/4/2 591/4/2
f 584/6/2 588/6/2 592/6/2
f 592/6/2 588/6/2 593/6/2
f 593/6/2 594/6/2 595/6/2
f 595/6/2 594/6/2 596/6/2
f 597/3/2 598/3/2 599/3/2
f 599/3/2 598/3/2 600/3/2
f 601/2/2 602/2/2 605/2/2
f 605/2/2 602/2/2 606/2/2
f 603/4/2 604/4/2 607/4/2
f 607/4/2 604/4/2 608/4/2
f 608/4/2 609/4/2 615/4/2
f 615/4/2 609/4/2 616/4/2
f 610/4/2 611/4/2 617/4/2
f 617/4/2 611/4/2 618/4/2
f 612/1/2 613/1/2 619/1/2
f 619/1/2 613/1/2 620/1/2
f 614/4/2 615/4/2 621/4/2
f 621/4/2 615/4/2 622/4/2
f 623/3/2 624/3/2 626/3/2
f 626/3/2 624/3/2 627/3/2
f 625/4/2 626/4/2 630/4/2
f 630/4/2 626/4/2 631/4/2
f 631/3/2 632/3/2 634/3/2
f 634/3/2 632/3/2 635/3/2
f 628/4/2 629/4/2 636/4/2
f 636/4/2 629/4/2 637/4/2
f 637/4/2 638/4/2 639/4/2
f 639/4/2 638/4/2 640/4/2
f 633/4/2 634/4/2 641/4/2
f 641/4/2 634/4/2 642/4/2
f 643/4/2 644/4/2 645/4/2
f 645/4/2 644/4/2 646/4/2
f 647/4/2 648/4/2 652/4/2
f 652/4/2 648/4/2 653/4/2
f 649/4/2 650/4/2 654/4/2
f 650/3/2 651/3/2 655/3/2
f 654/4/2 650/4/2 655/4/2
f 655/3/2 651/3/2 656/3/2
f 657/2/2 658/2/2 660/2/2
f 660/2/2 658/2/2 661/2/2
f 659/4/2 660/4/2 666/4/2
f 666/4/2 660/4/2 667/4/2
f 662/4/2 663/4/2 668/4/2
f 668/4/2 663/4/2 669/4/2
f 664/4/2 665/4/2 670/4/2
f 670/4/2 665/4/2 671/4/2
f 671/4/2 672/4/2 673/4/2
f 673/4/2 672/4/2 674/4/2
f 671/4/2 673/4/2 675/4/2
f 675/4/2 673/4/2 676/4/2
f 677/4/2 678/4/2 682/4/2
f 679/4/2 680/4/2 684/4/2
f 684/4/2 680/4/2 685/4/2
f 681/4/2 682/4/2 687/4/2
f 682/4/2 678/4/2 688/4/2
f 687/4/2 682/4/2 688/4/2
f 685/1/2 686/1/2 689/1/2
f 683/4/2 684/4/2 689/4/2
f 684/4/2 685/4/2 689/4/2
f 689/1/2 686/1/2 690/1/2
f 688/4/2 678/4/2 691/4/2
f 691/4/2 678/4/2 692/4/2
f 683/4/2 689/4/2 693/4/2
f 693/4/2 689/4/2 694/4/2
f 689/2/2 690/2/2 695/2/2
f 694/4/2 689/4/2 695/4/2
f 695/2/2 690/2/2 696/2/2
f 694/4/2 695/4/2 699/4/2
f 699/4/2 695/4/2 700/4/2
f 697/4/2 698/4/2 702/4/2
f 702/4/2 698/4/2 703/4/2
f 700/2/2 701/2/2 704/2/2
f 704/2/2 701/2/2 705/2/2
f 706/4/2 707/4/2 708/4/2
f 708/4/2 707/4/2 709/4/2
f 706/4/2 708/4/2 710/4/2
f 706/4/2 710/4/2 712/4/2
f 710/4/2 711/4/2 712/4/2
f 712/4/2 711/4/2 713/4/2
f 713/4/2 711/4/2 714/4/2
f 713/4/2 714/4/2 716/4/2
f 714/2/2 715/2/2 717/2/2
f 716/4/2 714/4/2 717/4/2
f 717/2/2 715/2/2 718/2/2
f 721/4/3 720/4/3 719/4/3
f 722/4/3 720/4/3 721/4/3
f 725/4/3 724/4/3 723/4/3
f 726/4/3 724/4/3 725/4/3
f 731/4/3 728/4/3 727/4/3
f 733/4/3 730/4/3 729/4/3
f 735/4/3 732/4/3 731/4/3
f 735/4/3 731/4/3 727/4/3
f 736/4/3 732/4/3 735/4/3
f 737/4/3 734/4/3 733/4/3
f 737/4/3 733/4/3 729/4/3
f 738/4/3 734/4/3 737/4/3
f 740/4/3 735/4/3 727/4/3
f 741/4/3 732/4/3 736/4/3
f 742/4/3 739/4/3 738/4/3
f 743/4/3 739/4/3 742/4/3
f 744/4/3 739/4/3 743/4/3
f 746/4/3 740/4/3 727/4/3
f 746/4/3 741/4/3 740/4/3
f 747/4/3 741/4/3 746/4/3
f 748/4/3 732/4/3 741/4/3
f 748/4/3 741/4/3 747/4/3
f 749/4/3 745/4/3 744/4/3
f 749/4/3 744/4/3 743/4/3
f 750/4/3 745/4/3 749/4/3
f 751/4/3 745/4/3 750/4/3
f 752/4/3 748/4/3 747/4/3
f 752/4/3 750/4/3 749/4/3
f 752/4/3 749/4/3 748/4/3
f 753/4/3 750/4/3 752/4/3
f 754/4/3 750/4/3 753/4/3
f 755/4/3 750/4/3 754/4/3
f 756/4/3 754/4/3 753/4/3
f 757/4/3 754/4/3 756/4/3
f 758/4/3 754/4/3 757/4/3
f 759/4/3 754/4/3 758/4/3
f 760/4/3 758/4/3 757/4/3
f 761/4/3 758/4/3 760/4/3
f 764/4/3 763/4/3 762/4/3
f 766/4/3 764/4/3 762/4/3
f 766/4/3 765/4/3 764/4/3
f 767/4/3 765/4/3 766/4/3
f 768/4/3 765/4/3 767/4/3
f 769/4/3 765/4/3 768/4/3
f 773/4/3 770/4/3 769/4/3
f 773/4/3 769/4/3 768/4/3
f 774/4/3 770/4/3 773/4/3
f 775/4/3 772/4/3 771/4/3
f 776/4/3 772/4/3 775/4/3
f 778/4/3 770/4/3 774/4/3
f 779/4/3 777/4/3 776/4/3
f 780/4/3 777/4/3 779/4/3
f 781/4/3 779/4/3 778/4/3
f 785/4/3 778/4/3 774/4/3
f 785/4/3 781/4/3 778/4/3
f 785/4/3 782/4/3 781/4/3
f 786/4/3 782/4/3 785/4/3
f 787/4/3 784/4/3 783/4/3
f 788/4/3 784/4/3 787/4/3
f 793/4/3 789/4/3 788/4/3
f 794/4/3 789/4/3 793/4/3
f 797/4/3 791/4/3 790/4/3
f 798/4/3 791/4/3 797/4/3
f 799/4/3 791/4/3 798/4/3
f 800/4/3 795/4/3 794/4/3
f 800/4/3 793/4/3 792/4/3
f 800/4/3 794/4/3 793/4/3
f 801/4/3 795/4/3 800/4/3
f 802/4/3 798/4/3 797/4/3
f 802/4/3 797/4/3 796/4/3
f 803/4/3 798/4/3 802/4/3
f 804/4/3 800/4/3 792/4/3
f 805/4/3 800/4/3 804/4/3
f 807/4/3 806/4/3 805/4/3
f 808/4/3 806/4/3 807/4/3
f 811/4/3 810/4/3 809/4/3
f 812/4/3 810/4/3 811/4/3
f 816/4/3 813/4/3 812/4/3
f 817/4/3 813/4/3 816/4/3
f 818/4/3 815/4/3 814/4/3
f 819/4/3 815/4/3 818/4/3
f 822/4/3 821/4/3 820/4/3
f 823/4/3 821/4/3 822/4/3
f 826/4/3 825/4/3 824/4/3
f 828/4/3 827/4/3 826/4/3
f 830/4/3 828/4/3 826/4/3
f 830/4/3 829/4/3 828/4/3
f 830/4/3 826/4/3 824/4/3
f 831/4/3 829/4/3 830/4/3
f 833/4/3 830/4/3 824/4/3
f 834/4/3 830/4/3 833/4/3
f 836/4/3 829/4/3 831/4/3
f 837/4/3 829/4/3 836/4/3
f 838/4/3 833/4/3 832/4/3
f 839/4/3 833/4/3 838/4/3
f 840/4/3 835/4/3 834/4/3
f 841/4/3 835/4/3 840/4/3
f 844/4/3 843/4/3 842/4/3
f 845/4/3 843/4/3 844/4/3
f 848/4/3 847/4/3 846/4/3
f 849/4/3 847/4/3 848/4/3
f 853/4/3 851/4/3 850/4/3
f 854/4/3 853/4/3 852/4/3
f 855/4/3 851/4/3 853/4/3
f 855/4/3 853/4/3 854/4/3
f 857/4/3 856/4/3 855/4/3
f 858/4/3 856/4/3 857/4/3
f 862/4/3 860/4/3 859/4/3
f 864/4/3 862/4/3 861/4/3
f 865/4/3 860/4/3 862/4/3
f 865/4/3 862/4/3 864/4/3
f 866/4/3 860/4/3 865/4/3
f 867/4/3 864/4/3 863/4/3
f 867/4/3 865/4/3 864/4/3
f 868/4/3 865/4/3 867/4/3
f 869/4/3 867/4/3 863/4/3
f 870/4/3 867/4/3 869/4/3
f 871/4/3 867/4/3 870/4/3
f 872/4/3 867/4/3 871/4/3
f 875/4/3 874/4/3 873/4/3
f 876/4/3 874/4/3 875/4/3
f 877/4/3 874/4/3 876/4/3
f 880/4/3 878/4/3 877/4/3
f 880/4/3 877/4/3 876/4/3
f 881/4/3 878/4/3 880/4/3
f 882/4/3 878/4/3 881/4/3
f 883/4/3 880/4/3 879/4/3
f 883/4/3 881/4/3 880/4/3
f 884/4/3 881/4/3 883/4/3
f 887/4/3 886/4/3 885/4/3
f 888/4/3 886/4/3 887/4/3
f 893/4/3 890/4/3 889/4/3
f 895/4/3 892/4/3 891/4/3
f 896/4/3 892/4/3 895/4/3
f 897/4/3 894/4/3 893/4/3
f 897/4/3 893/4/3 889/4/3
f 898/4/3 894/4/3 897/4/3
f 900/4/3 894/4/3 898/4/3
f 902/4/3 900/4/3 899/4/3
f 903/4/3 902/4/3 901/4/3
f 904/4/3 900/4/3 902/4/3
f 904/4/3 902/4/3 903/4/3
f 905/4/3 894/4/3 900/4/3
f 905/4/3 900/4/3 904/4/3
f 909/4/3 907/4/3 906/4/3
f 909/4/3 908/4/3 907/4/3
f 910/4/3 908/4/3 909/4/3
f 911/4/3 908/4/3 910/4/3
f 913/4/3 912/4/3 911/4/3
f 913/4/3 911/4/3 910/4/3
f 914/4/3 912/4/3 913/4/3
f 917/4/3 916/4/3 915/4/3
f 918/4/3 916/4/3 917/4/3
f 921/4/3 920/4/3 919/4/3
f 922/4/3 920/4/3 921/4/3
f 925/4/3 924/4/3 923/4/3
f 926/4/3 924/4/3 925/4/3
f 930/4/3 928/4/3 927/4/3
f 931/4/3 930/4/3 929/4/3
f 932/4/3 928/4/3 930/4/3
f 932/4/3 930/4/3 931/4/3
f 933/4/3 928/4/3 932/4/3
f 937/4/3 935/4/3 934/4/3
f 938/4/3 935/4/3 937/4/3
f 939/4/3 937/4/3 936/4/3
f 940/4/3 937/4/3 939/4/3
f 943/2/3 942/2/3 941/2/3
f 944/2/3 942/2/3 943/2/3
f 948/4/3 946/4/3 945/4/3
f 949/4/3 946/4/3 948/4/3
f 951/4/3 948/4/3 947/4/3
f 952/4/3 948/4/3 951/4/3
f 953/4/3 950/4/3 949/4/3
f 954/4/3 950/4/3 953/4/3
f 955/4/3 953/4/3 952/4/3
f 956/4/3 953/4/3 955/4/3
f 960/4/3 958/4/3 957/4/3
f 961/4/3 958/4/3 960/4/3
f 961/4/3 960/4/3 959/4/3
f 962/4/3 958/4/3 961/4/3
f 963/4/3 961/4/3 959/4/3
f 964/4/3 961/4/3 963/4/3
f 967/4/3 966/4/3 965/4/3
f 970/4/3 967/4/3 965/4/3
f 970/4/3 968/4/3 967/4/3
f 971/4/3 968/4/3 970/4/3
f 972/4/3 970/4/3 969/4/3
f 973/4/3 970/4/3 972/4/3
f 978/4/3 975/4/3 974/4/3
f 979/4/3 975/4/3 978/4/3
f 981/5/3 977/5/3 976/5/3
f 982/5/3 977/5/3 981/5/3
f 983/4/3 981/4/3 980/4/3
f 983/4/3 982/4/3 981/4/3
f 984/4/3 982/4/3 983/4/3
f 987/4/3 986/4/3 985/4/3
f 988/4/3 986/4/3 987/4/3
f 991/4/3 990/4/3 989/4/3
f 992/4/3 990/4/3 991/4/3
f 995/4/3 994/4/3 993/4/3
f 996/4/3 994/4/3 995/4/3
f 999/4/3 998/4/3 997/4/3
f 1000/4/3 998/4/3 999/4/3
f 1003/4/3 1002/4/3 1001/4/3
f 1004/4/3 1002/4/3 1003/4/3
f 1007/4/3 1006/4/3 1005/4/3
f 1008/4/3 1006/4/3 1007/4/3
f 1013/4/3 1011/4/3 1010/4/3
f 1014/4/3 1011/4/3 1013/4/3
f 1015/4/3 1009/4/3 1008/4/3
f 1016/4/3 1009/4/3 1015/4/3
f 1017/4/3 1013/4/3 1012/4/3
f 1018/4/3 1013/4/3 1017/4/3
f 1021/2/3 1020/2/3 1019/2/3
f 1022/2/3 1020/2/3 1021/2/3
f 1025/1/3 1024/1/3 1023/1/3
f 1026/1/3 1024/1/3 1025/1/3
f 1033/6/3 1028/6/3 1027/6/3
f 1034/6/3 1028/6/3 1033/6/3
f 1035/6/3 1030/6/3 1029/6/3
f 1038/6/3 1034/6/3 1033/6/3
f 1039/6/3 1034/6/3 1038/6/3
f 1040/6/3 1030/6/3 1035/6/3
f 1041/6/3 1030/6/3 1040/6/3
f 1042/6/3 1032/6/3 1031/6/3
f 1043/6/3 1032/6/3 1042/6/3
f 1044/6/3 1032/6/3 1043/6/3
f 1045/6/3 1037/6/3 1036/6/3
f 1046/6/3 1037/6/3 1045/6/3
f 1048/6/3 1041/6/3 1040/6/3
f 1048/6/3 1040/6/3 1039/6/3
f 1049/6/3 1041/6/3 1048/6/3
f 1050/6/3 1043/6/3 1042/6/3
f 1053/6/3 1048/6/3 1039/6/3
f 1054/6/3 1050/6/3 1049/6/3
f 1055/6/3 1043/6/3 1050/6/3
f 1055/6/3 1050/6/3 1054/6/3
f 1056/6/3 1047/6/3 1046/6/3
f 1056/6/3 1046/6/3 1045/6/3
f 1056/6/3 1045/6/3 1044/6/3
f 1057/6/3 1047/6/3 1056/6/3
f 1058/6/3 1047/6/3 1057/6/3
f 1059/6/3 1055/6/3 1054/6/3
f 1060/6/3 1055/6/3 1059/6/3
f 1061/6/3 1057/6/3 1056/6/3
f 1062/6/3 1057/6/3 1061/6/3
f 1063/6/3 1047/6/3 1058/6/3
f 1064/6/3 1047/6/3 1063/6/3
f 1065/6/3 1052/6/3 1051/6/3
f 1066/6/3 1052/6/3 1065/6/3
f 1067/6/3 1053/6/3 1039/6/3
f 1068/6/3 1053/6/3 1067/6/3
f 1069/6/3 1059/6/3 1054/6/3
f 1070/6/3 1059/6/3 1069/6/3
f 1071/6/3 1062/6/3 1061/6/3
f 1071/6/3 1061/6/3 1060/6/3
f 1072/6/3 1062/6/3 1071/6/3
f 1075/6/3 1074/6/3 1073/6/3
f 1076/6/3 1074/6/3 1075/6/3
f 1077/4/4 1078/4/4 1079/4/4
f 1079/4/4 1078/4/4 1080/4/4
f 1081/4/4 1082/4/4 1083/4/4
f 1083/4/4 1082/4/4 1084/4/4
f 1085/4/4 1086/4/4 1087/4/4
f 1087/4/4 1086/4/4 1088/4/4
f 1089/4/4 1090/4/4 1091/4/4
f 1091/4/4 1090/4/4 1092/4/4
f 1093/4/4 1094/4/4 1096/4/4
f 1095/4/4 1096/4/4 1098/4/4
f 1097/4/4 1098/4/4 1099/4/4
f 1098/4/4 1096/4/4 1100/4/4
f 1099/4/4 1098/4/4 1100/4/4
f 1096/4/4 1094/4/4 1101/4/4
f 1100/4/4 1096/4/4 1101/4/4
f 1101/4/4 1094/4/4 1102/4/4
f 1100/4/4 1101/4/4 1103/4/4
f 1103/4/4 1101/4/4 1104/4/4
f 1105/4/4 1106/4/4 1108/4/4
f 1108/4/4 1106/4/4 1109/4/4
f 1107/4/4 1108/4/4 1110/4/4
f 1110/4/4 1108/4/4 1111/4/4
f 1112/4/4 1113/4/4 1114/4/4
f 1114/4/4 1113/4/4 1115/4/4
f 1116/4/4 1117/4/4 1118/4/4
f 1118/4/4 1117/4/4 1119/4/4
f 1120/4/4 1121/4/4 1123/4/4
f 1121/4/4 1122/4/4 1123/4/4
f 1123/4/4 1122/4/4 1124/4/4
f 1125/4/4 1126/4/4 1127/4/4
f 1127/4/4 1126/4/4 1128/4/4
f 1129/4/4 1130/4/4 1131/4/4
f 1131/4/4 1130/4/4 1132/4/4
f 1133/2/4 1134/2/4 1138/2/4
f 1138/2/4 1134/2/4 1139/2/4
f 1135/4/4 1136/4/4 1142/4/4
f 1142/4/4 1136/4/4 1143/4/4
f 1137/5/4 1138/5/4 1144/5/4
f 1144/5/4 1138/5/4 1145/5/4
f 1140/4/4 1141/4/4 1146/4/4
f 1146/4/4 1141/4/4 1147/4/4
f 1148/4/4 1149/4/4 1151/4/4
f 1149/4/4 1150/4/4 1151/4/4
f 1151/4/4 1150/4/4 1152/4/4
f 1148/4/4 1151/4/4 1153/4/4
f 1153/4/4 1151/4/4 1154/4/4
f 1155/4/4 1156/4/4 1157/4/4
f 1157/4/4 1156/4/4 1158/4/4
f 1159/4/4 1160/4/4 1163/4/4
f 1163/4/4 1160/4/4 1164/4/4
f 1161/4/4 1162/4/4 1165/4/4
f 1165/4/4 1162/4/4 1166/4/4
f 1167/2/4 1168/2/4 1172/2/4
f 1172/2/4 1168/2/4 1173/2/4
f 1169/2/4 1170/2/4 1174/2/4
f 1174/2/4 1170/2/4 1175/2/4
f 1171/4/4 1172/4/4 1180/4/4
f 1180/4/4 1172/4/4 1181/4/4
f 1173/5/4 1174/5/4 1182/5/4
f 1182/5/4 1174/5/4 1183/5/4
f 1175/5/4 1176/5/4 1184/5/4
f 1176/4/4 1177/4/4 1185/4/4
f 1184/5/4 1176/5/4 1185/5/4
f 1185/4/4 1177/4/4 1186/4/4
f 1186/4/4 1177/4/4 1187/4/4
f 1178/5/4 1179/5/4 1188/5/4
f 1188/5/4 1179/5/4 1189/5/4
f 1190/4/4 1191/4/4 1193/4/4
f 1193/4/4 1191/4/4 1194/4/4
f 1192/4/4 1193/4/4 1196/4/4
f 1196/4/4 1193/4/4 1197/4/4
f 1195/4/4 1196/4/4 1198/4/4
f 1198/4/4 1196/4/4 1199/4/4
f 1200/4/4 1201/4/4 1203/4/4
f 1203/4/4 1201/4/4 1204/4/4
f 1202/4/4 1203/4/4 1204/4/4
f 1204/4/4 1201/4/4 1205/4/4
f 1202/4/4 1204/4/4 1210/4/4
f 1210/4/4 1204/4/4 1211/4/4
f 1206/4/4 1207/4/4 1212/4/4
f 1212/4/4 1207/4/4 1213/4/4
f 1208/4/4 1209/4/4 1214/4/4
f 1214/4/4 1209/4/4 1215/4/4
f 1215/2/4 1216/2/4 1217/2/4
f 1217/2/4 1216/2/4 1218/2/4
f 1219/2/4 1220/2/4 1223/2/4
f 1223/2/4 1220/2/4 1224/2/4
f 1221/3/4 1222/3/4 1225/3/4
f 1225/3/4 1222/3/4 1226/3/4
f 1223/4/4 1224/4/4 1231/4/4
f 1231/4/4 1224/4/4 1232/4/4
f 1226/5/4 1227/5/4 1233/5/4
f 1227/4/4 1228/4/4 1234/4/4
f 1233/5/4 1227/5/4 1234/5/4
f 1228/5/4 1229/5/4 1235/5/4
f 1234/4/4 1228/4/4 1235/4/4
f 1235/5/4 1229/5/4 1236/5/4
f 1229/4/4 1230/4/4 1237/4/4
f 1236/5/4 1229/5/4 1237/5/4
f 1237/4/4 1230/4/4 1238/4/4
f 1239/4/4 1240/4/4 1242/4/4
f 1242/4/4 1240/4/4 1243/4/4
f 1241/4/4 1242/4/4 1245/4/4
f 1243/4/4 1244/4/4 1245/4/4
f 1242/4/4 1243/4/4 1245/4/4
f 1245/4/4 1244/4/4 1246/4/4
f 1241/4/4 1245/4/4 1247/4/4
f 1247/4/4 1245/4/4 1248/4/4
f 1249/4/4 1250/4/4 1253/4/4
f 1253/4/4 1250/4/4 1254/4/4
f 1251/4/4 1252/4/4 1255/4/4
f 1255/4/4 1252/4/4 1256/4/4
f 1256/4/4 1252/4/4 1257/4/4
f 1253/1/4 1254/1/4 1258/1/4
f 1254/2/4 1255/2/4 1259/2/4
f 1258/1/4 1254/1/4 1259/1/4
f 1259/2/4 1255/2/4 1260/2/4
f 1256/2/4 1257/2/4 1261/2/4
f 1261/2/4 1257/2/4 1262/2/4
f 1263/1/4 1264/1/4 1267/1/4
f 1267/1/4 1264/1/4 1268/1/4
f 1265/3/4 1266/3/4 1269/3/4
f 1269/3/4 1266/3/4 1270/3/4
f 1270/3/4 1266/3/4 1271/3/4
f 1268/4/4 1269/4/4 1276/4/4
f 1276/4/4 1269/4/4 1277/4/4
f 1270/4/4 1271/4/4 1278/4/4
f 1271/5/4 1272/5/4 1279/5/4
f 1278/4/4 1271/4/4 1279/4/4
f 1272/4/4 1273/4/4 1280/4/4
f 1279/5/4 1272/5/4 1280/5/4
f 1273/5/4 1274/5/4 1281/5/4
f 1280/4/4 1273/4/4 1281/4/4
f 1274/4/4 1275/4/4 1282/4/4
f 1281/5/4 1274/5/4 1282/5/4
f 1282/4/4 1275/4/4 1283/4/4
f 1283/4/4 1275/4/4 1284/4/4
f 1284/4/4 1275/4/4 1285/4/4
f 1276/4/4 1277/4/4 1286/4/4
f 1286/4/4 1277/4/4 1287/4/4
f 1278/5/4 1279/5/4 1288/5/4
f 1288/5/4 1279/5/4 1289/5/4
f 1280/4/4 1281/4/4 1290/4/4
f 1281/4/4 1282/4/4 1290/4/4
f 1290/4/4 1282/4/4 1291/4/4
f 1291/4/4 1282/4/4 1292/4/4
f 1283/4/4 1284/4/4 1293/4/4
f 1293/4/4 1284/4/4 1294/4/4
f 1295/4/4 1296/4/4 1297/4/4
f 1297/4/4 1296/4/4 1298/4/4
f 1299/4/4 1300/4/4 1304/4/4
f 1304/4/4 1300/4/4 1305/4/4
f 1301/4/4 1302/4/4 1306/4/4
f 1303/4/4 1304/4/4 1308/4/4
f 1308/4/4 1304/4/4 1309/4/4
f 1305/4/4 1306/4/4 1310/4/4
f 1306/4/4 1302/4/4 1311/4/4
f 1310/4/4 1306/4/4 1311/4/4
f 1307/3/4 1308/3/4 1312/3/4
f 1312/3/4 1308/3/4 1313/3/4
f 1309/2/4 1310/2/4 1314/2/4
f 1314/2/4 1310/2/4 1315/2/4
f 1316/1/4 1317/1/4 1320/1/4
f 1320/1/4 1317/1/4 1321/1/4
f 1318/3/4 1319/3/4 1322/3/4
f 1322/3/4 1319/3/4 1323/3/4
f 1320/3/4 1321/3/4 1328/3/4
f 1328/3/4 1321/3/4 1329/3/4
f 1322/2/4 1323/2/4 1330/2/4
f 1330/2/4 1323/2/4 1331/2/4
f 1324/3/4 1325/3/4 1332/3/4
f 1332/3/4 1325/3/4 1333/3/4
f 1326/2/4 1327/2/4 1335/2/4
f 1335/2/4 1327/2/4 1336/2/4
f 1329/4/4 1330/4/4 1337/4/4
f 1337/4/4 1330/4/4 1338/4/4
f 1331/5/4 1332/5/4 1339/5/4
f 1339/5/4 1332/5/4 1340/5/4
f 1333/5/4 1334/5/4 1341/5/4
f 1334/4/4 1335/4/4 1342/4/4
f 1341/5/4 1334/5/4 1342/5/4
f 1337/4/4 1338/4/4 1343/4/4
f 1343/4/4 1338/4/4 1344/4/4
f 1339/4/4 1340/4/4 1345/4/4
f 1345/4/4 1340/4/4 1346/4/4
f 1341/4/4 1342/4/4 1347/4/4
f 1342/4/4 1335/4/4 1348/4/4
f 1347/4/4 1342/4/4 1348/4/4
f 1348/4/4 1335/4/4 1349/4/4
f 1345/4/4 1346/4/4 1351/4/4
f 1344/4/4 1345/4/4 1351/4/4
f 1351/4/4 1346/4/4 1352/4/4
f 1347/4/4 1348/4/4 1353/4/4
f 1349/4/4 1350/4/4 1354/4/4
f 1344/4/4 1351/4/4 1358/4/4
f 1352/4/4 1353/4/4 1359/4/4
f 1353/4/4 1348/4/4 1360/4/4
f 1359/4/4 1353/4/4 1360/4/4
f 1349/4/4 1354/4/4 1361/4/4
f 1354/4/4 1355/4/4 1361/4/4
f 1361/4/4 1355/4/4 1362/4/4
f 1362/4/4 1355/4/4 1363/4/4
f 1359/4/4 1360/4/4 1364/4/4
f 1364/4/4 1360/4/4 1365/4/4
f 1361/4/4 1362/4/4 1366/4/4
f 1366/4/4 1362/4/4 1367/4/4
f 1356/4/4 1357/4/4 1368/4/4
f 1368/4/4 1357/4/4 1369/4/4
f 1344/4/4 1358/4/4 1370/4/4
f 1370/4/4 1358/4/4 1371/4/4
f 1359/4/4 1364/4/4 1372/4/4
f 1372/4/4 1364/4/4 1373/4/4
f 1368/3/4 1369/3/4 1374/3/4
f 1369/3/4 1370/3/4 1374/3/4
f 1374/3/4 1370/3/4 1375/3/4
f 1371/2/4 1372/2/4 1376/2/4
f 1376/2/4 1372/2/4 1377/2/4
f 1368/3/4 1374/3/4 1378/3/4
f 1378/3/4 1374/3/4 1379/3/4
f 1375/3/4 1376/3/4 1380/3/4
f 1380/3/4 1376/3/4 1381/3/4
f 1382/1/4 1383/1/4 1384/1/4
f 1384/1/4 1383/1/4 1385/1/4
f 1386/6/4 1387/6/4 1388/6/4
f 1388/6/4 1387/6/4 1389/6/4
f 1389/6/4 1390/6/4 1393/6/4
f 1391/6/4 1392/6/4 1395/6/4
f 1395/6/4 1392/6/4 1396/6/4
f 1393/6/4 1394/6/4 1397/6/4
f 1389/6/4 1393/6/4 1397/6/4
f 1397/6/4 1394/6/4 1398/6/4
f 1389/6/4 1397/6/4 1400/6/4
f 1400/6/4 1397/6/4 1401/6/4
f 1399/6/4 1400/6/4 1403/6/4
f 1401/6/4 1402/6/4 1403/6/4
f 1400/6/4 1401/6/4 1403/6/4
f 1403/6/4 1402/6/4 1404/6/4
f 1404/6/4 1402/6/4 1405/6/4
f 1399/6/4 1403/6/4 1406/6/4
f 1406/6/4 1403/6/4 1407/6/4
f 1408/6/4 1409/6/4 1410/6/4
f 1410/6/4 1409/6/4 1411/6/4
f 1411/6/4 1409/6/4 1412/6/4
f 1412/6/4 1413/6/4 1414/6/4
f 1411/6/4 1412/6/4 1414/6/4
f 1414/6/4 1413/6/4 1415/6/4
f 1411/6/4 1414/6/4 1416/6/4
f 1416/6/4 1414/6/4 1417/6/4
f 1415/6/4 1413/6/4 1418/6/4
f 1418/6/4 1413/6/4 1419/6/4
f 1417/6/4 1418/6/4 1424/6/4
f 1419/6/4 1420/6/4 1424/6/4
f 1418/6/4 1419/6/4 1424/6/4
f 1424/6/4 1420/6/4 1425/6/4
f 1425/6/4 1420/6/4 1426/6/4
f 1421/6/4 1422/6/4 1427/6/4
f 1427/6/4 1422/6/4 1428/6/4
f 1423/6/4 1424/6/4 1430/6/4
f 1424/6/4 1425/6/4 1430/6/4
f 1429/6/4 1430/6/4 1433/6/4
f 1430/6/4 1425/6/4 1434/6/4
f 1433/6/4 1430/6/4 1434/6/4
f 1431/6/4 1432/6/4 1435/6/4
f 1435/6/4 1432/6/4 1436/6/4
f 1437/6/4 1438/6/4 1441/6/4
f 1439/6/4 1440/6/4 1443/6/4
f 1443/6/4 1440/6/4 1444/6/4
f 1441/6/4 1442/6/4 1445/6/4
f 1437/6/4 1441/6/4 1445/6/4
f 1445/6/4 1442/6/4 1446/6/4
f 1437/6/4 1445/6/4 1447/6/4
f 1447/6/4 1445/6/4 1448/6/4
f 1452/4/5 1450/4/5 1449/4/5
f 1453/4/5 1450/4/5 1452/4/5
f 1457/4/5 1452/4/5 1451/4/5
f 1457/4/5 1453/4/5 1452/4/5
f 1457/4/5 1454/4/5 1453/4/5
f 1458/4/5 1456/4/5 1455/4/5
f 1459/4/5 1456/4/5 1458/4/5
f 1462/4/5 1457/4/5 1451/4/5
f 1462/4/5 1460/4/5 1459/4/5
f 1462/4/5 1459/4/5 1458/4/5
f 1462/4/5 1458/4/5 1457/4/5
f 1463/4/5 1460/4/5 1462/4/5
f 1465/4/5 1462/4/5 1461/4/5
f 1465/4/5 1464/4/5 1463/4/5
f 1465/4/5 1463/4/5 1462/4/5
f 1466/4/5 1464/4/5 1465/4/5
f 1467/4/5 1464/4/5 1466/4/5
f 1468/4/5 1464/4/5 1467/4/5
f 1469/4/5 1467/4/5 1466/4/5
f 1470/4/5 1467/4/5 1469/4/5
f 1471/4/5 1467/4/5 1470/4/5
f 1472/4/5 1467/4/5 1471/4/5
f 1473/4/5 1471/4/5 1470/4/5
f 1474/4/5 1471/4/5 1473/4/5
f 1475/4/5 1471/4/5 1474/4/5
f 1476/4/5 1471/4/5 1475/4/5
f 1477/1/5 1474/1/5 1473/1/5
f 1478/4/5 1475/4/5 1474/4/5
f 1478/1/5 1474/1/5 1477/1/5
f 1479/4/5 1475/4/5 1478/4/5
f 1480/4/5 1475/4/5 1479/4/5
f 1481/4/5 1475/4/5 1480/4/5
f 1482/3/5 1476/3/5 1475/3/5
f 1482/4/5 1475/4/5 1481/4/5
f 1483/3/5 1476/3/5 1482/3/5
f 1484/1/5 1479/1/5 1478/1/5
f 1485/3/5 1480/3/5 1479/3/5
f 1485/1/5 1479/1/5 1484/1/5
f 1486/4/5 1481/4/5 1480/4/5
f 1486/3/5 1480/3/5 1485/3/5
f 1487/4/5 1481/4/5 1486/4/5
f 1488/4/5 1481/4/5 1487/4/5
f 1489/3/5 1482/3/5 1481/3/5
f 1489/4/5 1481/4/5 1488/4/5
f 1490/3/5 1482/3/5 1489/3/5
f 1491/3/5 1487/3/5 1486/3/5
f 1492/2/5 1488/2/5 1487/2/5
f 1492/3/5 1487/3/5 1491/3/5
f 1493/2/5 1488/2/5 1492/2/5
f 1495/6/5 1492/6/5 1491/6/5
f 1495/6/5 1494/6/5 1493/6/5
f 1495/6/5 1493/6/5 1492/6/5
f 1496/6/5 1494/6/5 1495/6/5
f 1497/6/5 1494/6/5 1496/6/5
f 1498/6/5 1494/6/5 1497/6/5
f 1499/6/5 1497/6/5 1496/6/5
f 1500/6/5 1497/6/5 1499/6/5
f 1503/4/5 1502/4/5 1501/4/5
f 1504/4/5 1502/4/5 1503/4/5
f 1507/4/5 1506/4/5 1505/4/5
f 1508/4/5 1506/4/5 1507/4/5
f 1512/4/5 1509/4/5 1508/4/5
f 1513/4/5 1509/4/5 1512/4/5
f 1514/4/5 1511/4/5 1510/4/5
f 1515/4/5 1511/4/5 1514/4/5
f 1518/2/5 1517/2/5 1516/2/5
f 1519/2/5 1517/2/5 1518/2/5
f 1523/2/5 1520/2/5 1519/2/5
f 1524/2/5 1520/2/5 1523/2/5
f 1525/1/5 1522/1/5 1521/1/5
f 1526/1/5 1522/1/5 1525/1/5
f 1529/3/5 1528/3/5 1527/3/5
f 1530/3/5 1528/3/5 1529/3/5
f 1535/4/5 1532/4/5 1531/4/5
f 1536/4/5 1532/4/5 1535/4/5
f 1537/4/5 1534/4/5 1533/4/5
f 1538/4/5 1534/4/5 1537/4/5
f 1543/3/5 1540/3/5 1539/3/5
f 1544/3/5 1540/3/5 1543/3/5
f 1548/2/5 1542/2/5 1541/2/5
f 1549/2/5 1542/2/5 1548/2/5
f 1550/3/5 1545/3/5 1544/3/5
f 1551/2/5 1546/2/5 1545/2/5
f 1551/3/5 1545/3/5 1550/3/5
f 1552/2/5 1546/2/5 1551/2/5
f 1555/3/5 1548/3/5 1547/3/5
f 1556/3/5 1548/3/5 1555/3/5
f 1557/2/5 1553/2/5 1552/2/5
f 1558/3/5 1554/3/5 1553/3/5
f 1558/2/5 1553/2/5 1557/2/5
f 1559/3/5 1554/3/5 1558/3/5
f 1562/4/5 1561/4/5 1560/4/5
f 1563/4/5 1561/4/5 1562/4/5
f 1566/4/5 1565/4/5 1564/4/5
f 1567/4/5 1565/4/5 1566/4/5
f 1572/2/5 1569/2/5 1568/2/5
f 1573/2/5 1569/2/5 1572/2/5
f 1575/4/5 1571/4/5 1570/4/5
f 1576/4/5 1571/4/5 1575/4/5
f 1577/2/5 1574/2/5 1573/2/5
f 1578/2/5 1574/2/5 1577/2/5
f 1580/3/5 1579/3/5 1578/3/5
f 1581/3/5 1579/3/5 1580/3/5
f 1586/2/5 1583/2/5 1582/2/5
f 1587/2/5 1583/2/5 1586/2/5
f 1588/3/5 1585/3/5 1584/3/5
f 1589/2/5 1586/2/5 1585/2/5
f 1589/3/5 1585/3/5 1588/3/5
f 1590/2/5 1586/2/5 1589/2/5
f 1593/4/5 1592/4/5 1591/4/5
f 1594/4/5 1592/4/5 1593/4/5
f 1597/4/5 1596/4/5 1595/4/5
f 1598/4/5 1596/4/5 1597/4/5
f 1602/2/5 1600/2/5 1599/2/5
f 1603/2/5 1600/2/5 1602/2/5
f 1604/2/5 1602/2/5 1601/2/5
f 1605/2/5 1602/2/5 1604/2/5
f 1608/3/5 1607/3/5 1606/3/5
f 1609/3/5 1607/3/5 1608/3/5
f 1613/2/5 1610/2/5 1609/2/5
f 1613/2/5 1611/2/5 1610/2/5
f 1614/3/5 1612/3/5 1611/3/5
f 1614/2/5 1611/2/5 1613/2/5
f 1615/3/5 1612/3/5 1614/3/5
f 1618/4/5 1617/4/5 1616/4/5
f 1619/4/5 1617/4/5 1618/4/5
f 1622/4/5 1621/4/5 1620/4/5
f 1623/4/5 1621/4/5 1622/4/5
f 1626/4/5 1625/4/5 1624/4/5
f 1627/4/5 1625/4/5 1626/4/5
f 1631/1/5 1629/1/5 1628/1/5
f 1631/1/5 1630/1/5 1629/1/5
f 1632/1/5 1630/1/5 1631/1/5
f 1633/1/5 1630/1/5 1632/1/5
f 1636/4/5 1635/4/5 1634/4/5
f 1637/4/5 1635/4/5 1636/4/5
f 1642/4/5 1641/4/5 1640/4/5
f 1643/4/5 1641/4/5 1642/4/5
f 1645/4/5 1639/4/5 1638/4/5
f 1646/4/5 1639/4/5 1645/4/5
f 1647/4/5 1645/4/5 1644/4/5
f 1648/4/5 1645/4/5 1647/4/5
f 1652/2/5 1650/2/5 1649/2/5
f 1653/1/5 1651/1/5 1650/1/5
f 1653/2/5 1650/2/5 1652/2/5
f 1654/1/5 1651/1/5 1653/1/5
f 1657/6/5 1656/6/5 1655/6/5
f 1658/6/5 1656/6/5 1657/6/5
f 1661/4/5 1660/4/5 1659/4/5
f 1662/4/5 1660/4/5 1661/4/5
f 1667/4/5 1664/4/5 1663/4/5
f 1668/4/5 1664/4/5 1667/4/5
f 1669/2/5 1666/2/5 1665/2/5
f 1670/2/5 1666/2/5 1669/2/5
f 1672/2/5 1671/2/5 1670/2/5
f 1673/2/5 1671/2/5 1672/2/5
f 1676/6/5 1675/6/5 1674/6/5
f 1677/6/5 1675/6/5 1676/6/5
f 1680/3/5 1679/3/5 1678/3/5
f 1681/3/5 1679/3/5 1680/3/5
f 1684/6/5 1683/6/5 1682/6/5
f 1685/6/5 1683/6/5 1684/6/5
f 1688/5/5 1687/5/5 1686/5/5
f 1689/5/5 1687/5/5 1688/5/5
f 1692/6/5 1691/6/5 1690/6/5
f 1693/6/5 1691/6/5 1692/6/5
f 1694/4/6 1695/4/6 1698/4/6
f 1696/4/6 1697/4/6 1701/4/6
f 1701/4/6 1697/4/6 1702/4/6
f 1698/4/6 1695/4/6 1703/4/6
f 1703/4/6 1695/4/6 1704/4/6
f 1699/4/6 1700/4/6 1705/4/6
f 1705/4/6 1700/4/6 1706/4/6
f 1707/4/6 1708/4/6 1709/4/6
f 1709/4/6 1708/4/6 1710/4/6
f 1711/4/6 1712/4/6 1713/4/6
f 1713/4/6 1712/4/6 1714/4/6
f 1715/1/6 1716/1/6 1719/1/6
f 1719/1/6 1716/1/6 1720/1/6
f 1717/3/6 1718/3/6 1724/3/6
f 1724/3/6 1718/3/6 1725/3/6
f 1720/1/6 1721/1/6 1726/1/6
f 1721/3/6 1722/3/6 1727/3/6
f 1726/1/6 1721/1/6 1727/1/6
f 1727/3/6 1722/3/6 1728/3/6
f 1723/3/6 1724/3/6 1731/3/6
f 1731/3/6 1724/3/6 1732/3/6
f 1728/3/6 1729/3/6 1733/3/6
f 1729/2/6 1730/2/6 1734/2/6
f 1733/3/6 1729/3/6 1734/3/6
f 1734/2/6 1730/2/6 1735/2/6
f 1736/4/6 1737/4/6 1738/4/6
f 1738/4/6 1737/4/6 1739/4/6
f 1740/4/6 1741/4/6 1743/4/6
f 1743/4/6 1741/4/6 1744/4/6
f 1742/4/6 1743/4/6 1745/4/6
f 1745/4/6 1743/4/6 1746/4/6
f 1747/2/6 1748/2/6 1749/2/6
f 1749/2/6 1748/2/6 1750/2/6
f 1750/2/6 1751/2/6 1752/2/6
f 1752/2/6 1751/2/6 1753/2/6
f 1754/3/6 1755/3/6 1757/3/6
f 1757/3/6 1755/3/6 1758/3/6
f 1756/3/6 1757/3/6 1759/3/6
f 1759/3/6 1757/3/6 1760/3/6
f 1761/4/6 1762/4/6 1765/4/6
f 1765/4/6 1762/4/6 1766/4/6
f 1763/4/6 1764/4/6 1770/4/6
f 1770/4/6 1764/4/6 1771/4/6
f 1767/4/6 1768/4/6 1772/4/6
f 1769/4/6 1770/4/6 1776/4/6
f 1776/4/6 1770/4/6 1777/4/6
f 1772/4/6 1773/4/6 1778/4/6
f 1767/4/6 1772/4/6 1778/4/6
f 1778/4/6 1773/4/6 1779/4/6
f 1774/4/6 1775/4/6 1780/4/6
f 1780/4/6 1775/4/6 1781/4/6
f 1782/4/6 1783/4/6 1784/4/6
f 1784/4/6 1783/4/6 1785/4/6
f 1786/2/6 1787/2/6 1789/2/6
f 1789/2/6 1787/2/6 1790/2/6
f 1788/2/6 1789/2/6 1795/2/6
f 1795/2/6 1789/2/6 1796/2/6
f 1791/3/6 1792/3/6 1797/3/6
f 1792/2/6 1793/2/6 1798/2/6
f 1797/3/6 1792/3/6 1798/3/6
f 1798/2/6 1793/2/6 1799/2/6
f 1794/3/6 1795/3/6 1802/3/6
f 1802/3/6 1795/3/6 1803/3/6
f 1799/2/6 1800/2/6 1804/2/6
f 1800/3/6 1801/3/6 1805/3/6
f 1804/2/6 1800/2/6 1805/2/6
f 1805/3/6 1801/3/6 1806/3/6
f 1807/6/6 1808/6/6 1811/6/6
f 1811/6/6 1808/6/6 1812/6/6
f 1809/6/6 1810/6/6 1813/6/6
f 1813/6/6 1810/6/6 1814/6/6
f 1815/4/6 1816/4/6 1817/4/6
f 1817/4/6 1816/4/6 1818/4/6
f 1819/4/6 1820/4/6 1821/4/6
f 1821/4/6 1820/4/6 1822/4/6
f 1823/4/6 1824/4/6 1831/4/6
f 1824/4/6 1825/4/6 1831/4/6
f 1826/4/6 1827/4/6 1832/4/6
f 1832/4/6 1827/4/6 1833/4/6
f 1828/4/6 1829/4/6 1834/4/6
f 1834/4/6 1829/4/6 1835/4/6
f 1830/4/6 1831/4/6 1840/4/6
f 1831/4/6 1825/4/6 1840/4/6
f 1840/4/6 1825/4/6 1841/4/6
f 1836/4/6 1837/4/6 1843/4/6
f 1830/4/6 1840/4/6 1845/4/6
f 1845/4/6 1840/4/6 1846/4/6
f 1846/4/6 1840/4/6 1847/4/6
f 1842/4/6 1843/4/6 1848/4/6
f 1843/4/6 1837/4/6 1849/4/6
f 1848/4/6 1843/4/6 1849/4/6
f 1838/4/6 1839/4/6 1850/4/6
f 1844/4/6 1845/4/6 1852/4/6
f 1845/4/6 1846/4/6 1852/4/6
f 1852/4/6 1846/4/6 1853/4/6
f 1853/4/6 1846/4/6 1854/4/6
f 1849/4/6 1850/4/6 1855/4/6
f 1850/4/6 1839/4/6 1856/4/6
f 1855/4/6 1850/4/6 1856/4/6
f 1851/2/6 1852/2/6 1857/2/6
f 1852/4/6 1853/4/6 1858/4/6
f 1857/2/6 1852/2/6 1858/2/6
f 1858/4/6 1853/4/6 1859/4/6
f 1858/2/6 1859/2/6 1860/2/6
f 1860/2/6 1859/2/6 1861/2/6
f 1861/3/6 1862/3/6 1863/3/6
f 1863/3/6 1862/3/6 1864/3/6
f 1864/3/6 1865/3/6 1866/3/6
f 1866/3/6 1865/3/6 1867/3/6
f 1868/2/6 1869/2/6 1872/2/6
f 1872/2/6 1869/2/6 1873/2/6
f 1870/3/6 1871/3/6 1874/3/6
f 1871/2/6 1872/2/6 1875/2/6
f 1874/3/6 1871/3/6 1875/3/6
f 1875/2/6 1872/2/6 1876/2/6
f 1877/4/6 1878/4/6 1879/4/6
f 1879/4/6 1878/4/6 1880/4/6
f 1881/4/6 1882/4/6 1885/4/6
f 1885/4/6 1882/4/6 1886/4/6
f 1883/4/6 1884/4/6 1888/4/6
f 1888/4/6 1884/4/6 1889/4/6
f 1889/4/6 1884/4/6 1890/4/6
f 1887/4/6 1888/4/6 1892/4/6
f 1888/4/6 1889/4/6 1892/4/6
f 1892/4/6 1889/4/6 1893/4/6
f 1893/4/6 1889/4/6 1894/4/6
f 1894/4/6 1889/4/6 1895/4/6
f 1893/4/6 1894/4/6 1898/4/6
f 1898/4/6 1894/4/6 1899/4/6
f 1890/4/6 1891/4/6 1900/4/6
f 1900/4/6 1891/4/6 1901/4/6
f 1896/4/6 1897/4/6 1903/4/6
f 1903/4/6 1897/4/6 1904/4/6
f 1899/4/6 1900/4/6 1905/4/6
f 1905/4/6 1900/4/6 1906/4/6
f 1902/4/6 1903/4/6 1908/4/6
f 1908/4/6 1903/4/6 1909/4/6
f 1906/4/6 1907/4/6 1910/4/6
f 1910/4/6 1907/4/6 1911/4/6
f 1906/4/6 1910/4/6 1913/4/6
f 1910/2/6 1911/2/6 1914/2/6
f 1913/4/6 1910/4/6 1914/4/6
f 1914/2/6 1911/2/6 1915/2/6
f 1912/4/6 1913/4/6 1917/4/6
f 1917/4/6 1913/4/6 1918/4/6
f 1913/2/6 1914/2/6 1919/2/6
f 1918/4/6 1913/4/6 1919/4/6
f 1919/2/6 1914/2/6 1920/2/6
f 1917/4/6 1918/4/6 1923/4/6
f 1916/4/6 1917/4/6 1923/4/6
f 1923/4/6 1918/4/6 1924/4/6
f 1924/4/6 1918/4/6 1925/4/6
f 1921/3/6 1922/3/6 1926/3/6
f 1926/3/6 1922/3/6 1927/3/6
f 1927/2/6 1928/2/6 1931/2/6
f 1928/2/6 1929/2/6 1931/2/6
f 1929/3/6 1930/3/6 1932/3/6
f 1931/2/6 1929/2/6 1932/2/6
f 1932/3/6 1930/3/6 1933/3/6
f 1934/6/6 1935/6/6 1938/6/6
f 1938/6/6 1935/6/6 1939/6/6
f 1936/6/6 1937/6/6 1940/6/6
f 1940/6/6 1937/6/6 1941/6/6
f 1941/6/6 1942/6/6 1943/6/6
f 1943/6/6 1942/6/6 1944/6/6
f 1945/4/6 1946/4/6 1950/4/6
f 1950/4/6 1946/4/6 1951/4/6
f 1947/4/6 1948/4/6 1952/4/6
f 1952/4/6 1948/4/6 1953/4/6
f 1949/4/6 1950/4/6 1954/4/6
f 1954/4/6 1950/4/6 1955/4/6
f 1956/4/6 1957/4/6 1960/4/6
f 1960/4/6 1957/4/6 1961/4/6
f 1958/4/6 1959/4/6 1962/4/6
f 1958/4/6 1962/4/6 1963/4/6
f 1963/4/6 1962/4/6 1964/4/6
f 1965/4/6 1966/4/6 1969/4/6
f 1967/4/6 1968/4/6 1971/4/6
f 1971/4/6 1968/4/6 1972/4/6
f 1969/4/6 1970/4/6 1973/4/6
f 1965/4/6 1969/4/6 1973/4/6
f 1973/4/6 1970/4/6 1974/4/6
f 1974/4/6 1975/4/6 1978/4/6
f 1978/4/6 1975/4/6 1979/4/6
f 1976/4/6 1977/4/6 1982/4/6
f 1982/4/6 1977/4/6 1983/4/6
f 1980/4/6 1981/4/6 1984/4/6
f 1984/4/6 1981/4/6 1985/4/6
f 1985/4/6 1986/4/6 1987/4/6
f 1987/4/6 1986/4/6 1988/4/6
f 1987/1/6 1988/1/6 1990/1/6
f 1988/1/6 1989/1/6 1990/1/6
f 1990/1/6 1989/1/6 1991/1/6
f 1991/1/6 1989/1/6 1992/1/6
f 1995/4/6 1996/4/6 1999/4/6
f 1999/4/6 1996/4/6 2000/4/6
f 1993/4/6 1994/4/6 2002/4/6
f 2002/4/6 1994/4/6 2003/4/6
f 1997/4/6 1998/4/6 2004/4/6
f 2004/4/6 1998/4/6 2005/4/6
f 2001/4/6 2002/4/6 2007/4/6
f 2007/4/6 2002/4/6 2008/4/6
f 2003/4/6 2004/4/6 2009/4/6
f 2009/4/6 2004/4/6 2010/4/6
f 2005/4/6 2006/4/6 2011/4/6
f 2011/4/6 2006/4/6 2014/4/6
f 2014/4/6 2006/4/6 2015/4/6
f 2012/4/6 2013/4/6 2016/4/6
f 2016/4/6 2013/4/6 2017/4/6
f 2016/4/6 2017/4/6 2022/4/6
f 2020/4/6 2021/4/6 2023/4/6
f 2023/4/6 2021/4/6 2024/4/6
f 2018/4/6 2019/4/6 2025/4/6
f 2025/4/6 2019/4/6 2026/4/6
f 2016/4/6 2022/4/6 2029/4/6
f 2022/4/6 2023/4/6 2029/4/6
f 2029/4/6 2023/4/6 2030/4/6
f 2030/4/6 2023/4/6 2031/4/6
f 2027/4/6 2028/4/6 2032/4/6
f 2032/4/6 2028/4/6 2033/4/6
f 2033/4/6 2028/4/6 2035/4/6
f 2035/4/6 2028/4/6 2036/4/6
f 2034/4/6 2035/4/6 2037/4/6
f 2037/4/6 2035/4/6 2038/4/6
f 2038/2/6 2039/2/6 2041/2/6
f 2039/1/6 2040/1/6 2042/1/6
f 2041/2/6 2039/2/6 2042/2/6
f 2042/1/6 2040/1/6 2043/1/6
f 2044/6/6 2045/6/6 2046/6/6
f 2046/6/6 2045/6/6 2047/6/6
f 2048/4/6 2049/4/6 2052/4/6
f 2050/4/6 2051/4/6 2053/4/6
f 2053/4/6 2051/4/6 2054/4/6
f 2048/4/6 2052/4/6 2056/4/6
f 2054/4/6 2055/4/6 2056/4/6
f 2053/4/6 2054/4/6 2056/4/6
f 2052/4/6 2053/4/6 2056/4/6
f 2056/4/6 2055/4/6 2057/4/6
f 2048/4/6 2056/4/6 2059/4/6
f 2059/4/6 2056/4/6 2060/4/6
f 2058/4/6 2059/4/6 2063/4/6
f 2063/4/6 2059/4/6 2064/4/6
f 2065/4/6 2066/4/6 2069/4/6
f 2069/4/6 2066/4/6 2070/4/6
f 2067/4/6 2068/4/6 2071/4/6
f 2071/4/6 2068/4/6 2072/4/6
f 2061/4/6 2062/4/6 2073/4/6
f 2073/4/6 2062/4/6 2074/4/6
f 2072/4/6 2068/4/6 2076/4/6
f 2075/4/6 2076/4/6 2078/4/6
f 2078/4/6 2076/4/6 2079/4/6
f 2076/4/6 2068/4/6 2080/4/6
f 2079/4/6 2076/4/6 2080/4/6
f 2077/4/6 2078/4/6 2082/4/6
f 2080/4/6 2081/4/6 2084/4/6
f 2079/4/6 2080/4/6 2084/4/6
f 2084/4/6 2081/4/6 2085/4/6
f 2082/4/6 2083/4/6 2087/4/6
f 2077/4/6 2082/4/6 2087/4/6
f 2087/4/6 2083/4/6 2088/4/6
f 2088/4/6 2083/4/6 2089/4/6
f 2079/4/6 2084/4/6 2090/4/6
f 2090/4/6 2084/4/6 2091/4/6
f 2086/2/6 2087/2/6 2092/2/6
f 2087/4/6 2088/4/6 2093/4/6
f 2092/2/6 2087/2/6 2093/2/6
f 2093/4/6 2088/4/6 2094/4/6
f 2089/4/6 2090/4/6 2095/4/6
f 2095/4/6 2090/4/6 2096/4/6
f 2093/2/6 2094/2/6 2097/2/6
f 2094/2/6 2095/2/6 2097/2/6
f 2097/2/6 2095/2/6 2098/2/6
f 2098/2/6 2095/2/6 2099/2/6
f 2097/6/6 2098/6/6 2102/6/6
f 2102/6/6 2098/6/6 2103/6/6
f 2100/6/6 2101/6/6 2105/6/6
f 2105/6/6 2101/6/6 2106/6/6
f 2103/6/6 2104/6/6 2107/6/6
f 2107/6/6 2104/6/6 2108/6/6
f 2103/6/6 2107/6/6 2109/6/6
f 2109/6/6 2107/6/6 2110/6/6
f 2111/4/6 2112/4/6 2113/4/6
f 2113/4/6 2112/4/6 2114/4/6
f 2115/4/6 2116/4/6 2117/4/6
f 2117/4/6 2116/4/6 2118/4/6
f 2118/4/6 2116/4/6 2119/4/6
f 2119/4/6 2116/4/6 2120/4/6
f 2118/4/6 2119/4/6 2123/4/6
f 2123/4/6 2119/4/6 2124/4/6
f 2124/4/6 2119/4/6 2125/4/6
f 2121/4/6 2122/4/6 2126/4/6
f 2126/4/6 2122/4/6 2127/4/6
f 2124/4/6 2125/4/6 2129/4/6
f 2129/4/6 2125/4/6 2130/4/6
f 2128/4/6 2129/4/6 2131/4/6
f 2131/4/6 2129/4/6 2132/4/6
f 2133/4/6 2134/4/6 2135/4/6
f 2135/4/6 2134/4/6 2136/4/6
f 2136/4/6 2134/4/6 2137/4/6
f 2136/3/6 2137/3/6 2140/3/6
f 2140/3/6 2137/3/6 2141/3/6
f 2138/6/6 2139/6/6 2142/6/6
f 2142/6/6 2139/6/6 2143/6/6
f 2144/6/6 2145/6/6 2146/6/6
f 2146/6/6 2145/6/6 2147/6/6
f 2148/4/6 2149/4/6 2154/4/6
f 2154/4/6 2149/4/6 2155/4/6
f 2150/4/6 2151/4/6 2157/4/6
f 2157/4/6 2151/4/6 2158/4/6
f 2152/5/6 2153/5/6 2159/5/6
f 2155/4/6 2156/4/6 2160/4/6
f 2159/5/6 2153/5/6 2160/5/6
f 2153/4/6 2154/4/6 2160/4/6
f 2154/4/6 2155/4/6 2160/4/6
f 2160/4/6 2156/4/6 2161/4/6
f 2161/4/6 2156/4/6 2162/4/6
f 2160/4/6 2161/4/6 2163/4/6
f 2163/4/6 2161/4/6 2164/4/6
f 2164/4/6 2161/4/6 2165/4/6
f 2166/6/6 2167/6/6 2168/6/6
f 2168/6/6 2167/6/6 2169/6/6
f 2169/6/6 2167/6/6 2170/6/6
f 2170/6/6 2167/6/6 2171/6/6
f 2169/6/6 2170/6/6 2172/6/6
f 2172/6/6 2170/6/6 2173/6/6
f 2174/4/6 2175/4/6 2176/4/6
f 2176/4/6 2175/4/6 2177/4/6
