# MagicaVoxel @ Ephtracy

# group
o 

# material
mtllib terminal.mtl
usemtl palette

# normals
vn -1 0 0
vn 1 0 0
vn 0 0 1
vn 0 0 -1
vn 0 -1 0
vn 0 1 0

# texcoords
vt 0.751953 0.5
vt 0.783203 0.5
vt 0.787109 0.5
vt 0.814453 0.5
vt 0.818359 0.5
vt 0.822266 0.5
vt 0.853516 0.5
vt 0.857422 0.5
vt 0.861328 0.5
vt 0.865234 0.5
vt 0.869141 0.5
vt 0.876953 0.5
vt 0.880859 0.5
vt 0.908203 0.5
vt 0.970703 0.5

# verts
v -1.6 0 0
v -1.6 0 -0.0999999
v -1.6 0 -0.8
v -1.6 0 -0.9
v -1.6 0 -1.8
v -1.6 0.9 0
v -1.6 0.9 -0.0999999
v -1.6 0.9 -0.8
v -1.6 1 0
v -1.6 1 -0.9
v -1.6 1.9 1.6
v -1.6 1.9 0
v -1.6 2 1.7
v -1.6 2 1.6
v -1.6 2 1.5
v -1.6 2 1.4
v -1.6 2 -0.0999999
v -1.6 2 -0.2
v -1.6 2 -0.7
v -1.6 2 -0.8
v -1.6 2.1 1.5
v -1.6 2.1 1.4
v -1.6 2.1 -0.0999999
v -1.6 2.1 -0.2
v -1.6 2.1 -0.7
v -1.6 2.1 -0.8
v -1.6 2.4 -1.1
v -1.6 2.4 -1.4
v -1.6 2.4 -1.7
v -1.6 2.5 1.5
v -1.6 2.5 1.4
v -1.6 2.5 -0.0999999
v -1.6 2.5 -0.2
v -1.6 2.5 -0.7
v -1.6 2.5 -0.8
v -1.6 2.5 -1.1
v -1.6 2.5 -1.4
v -1.6 2.5 -1.7
v -1.6 2.6 1.7
v -1.6 2.6 1.6
v -1.6 2.6 1.5
v -1.6 2.6 1.4
v -1.6 2.6 -0.0999999
v -1.6 2.6 -0.2
v -1.6 2.6 -0.7
v -1.6 2.6 -0.8
v -1.6 2.7 1.6
v -1.6 2.7 0
v -1.6 2.7 -1.1
v -1.6 2.7 -1.4
v -1.6 2.7 -1.7
v -1.6 2.8 -1.1
v -1.6 2.8 -1.4
v -1.6 2.8 -1.7
v -1.6 3 -1.1
v -1.6 3 -1.4
v -1.6 3 -1.7
v -1.6 3.1 -1.1
v -1.6 3.1 -1.4
v -1.6 3.1 -1.7
v -1.6 3.3 -1.1
v -1.6 3.3 -1.4
v -1.6 3.3 -1.7
v -1.6 3.4 -1.1
v -1.6 3.4 -1.4
v -1.6 3.4 -1.7
v -1.6 3.6 -1.1
v -1.6 3.6 -1.4
v -1.6 3.6 -1.7
v -1.6 3.7 -1.1
v -1.6 3.7 -1.4
v -1.6 3.7 -1.7
v -1.6 4.2 -0.0999999
v -1.6 4.2 -0.2
v -1.6 4.2 -0.9
v -1.6 4.2 -1.8
v -1.6 4.3 -0.0999999
v -1.6 4.3 -0.2
v -1.6 4.8 -0.0999999
v -1.6 4.8 -0.2
v -1.6 4.9 -0.0999999
v -1.6 4.9 -0.2
v -1.6 5.1 -0.0999999
v -1.6 5.1 -0.2
v -1.6 5.2 -0.0999999
v -1.6 5.2 -0.2
v -1.6 5.3 0
v -1.6 5.3 -0.9
v -1.5 0 -0.8
v -1.5 0 -0.9
v -1.5 0 -1.8
v -1.5 0 -2.2
v -1.5 0 -2.5
v -1.5 0.1 -1.8
v -1.5 0.1 -2.2
v -1.5 0.1 -2.4
v -1.5 0.1 -2.5
v -1.5 0.2 -2.2
v -1.5 0.2 -2.3
v -1.5 0.3 -2.2
v -1.5 0.3 -2.3
v -1.5 0.6 -1.9
v -1.5 0.6 -2.3
v -1.5 0.7 -1.9
v -1.5 0.7 -2.3
v -1.5 0.9 -0.8
v -1.5 0.9 -0.9
v -1.5 0.9 -1.9
v -1.5 0.9 -2.3
v -1.5 1 -1.9
v -1.5 1 -2.3
v -1.5 1.2 -1.9
v -1.5 1.2 -2.3
v -1.5 1.3 -1.9
v -1.5 1.3 -2.3
v -1.5 1.4 -2.4
v -1.5 1.4 -2.5
v -1.5 2.2 -2.4
v -1.5 2.2 -2.5
v -1.5 2.6 -2.4
v -1.5 2.6 -2.5
v -1.5 3.4 -2.4
v -1.5 3.4 -2.5
v -1.5 3.9 -2.2
v -1.5 3.9 -2.3
v -1.5 4 -2.2
v -1.5 4 -2.3
v -1.5 4.2 -0.9
v -1.5 4.2 -1.2
v -1.5 4.2 -1.8
v -1.5 4.2 -2.4
v -1.5 4.3 -0.9
v -1.5 4.3 -1.2
v -1.5 4.3 -1.8
v -1.5 4.3 -2.4
v -1.5 4.3 -2.5
v -1.2 2.6 0.9
v -1.2 2.6 0.6
v -1.2 2.7 0.9
v -1.2 2.7 0.6
v -1.1 2.2 1.5
v -1.1 2.2 1.4
v -1.1 2.4 1.5
v -1.1 2.4 1.4
v -1.1 2.6 1
v -1.1 2.6 0.9
v -1.1 2.6 0.6
v -1.1 2.6 0.5
v -1.1 2.7 1
v -1.1 2.7 0.9
v -1.1 2.7 0.6
v -1.1 2.7 0.5
v -1.1 3.1 0.8
v -1.1 3.1 0.7
v -1.1 3.3 0.8
v -1.1 3.3 0.7
v -1 2.7 0.8
v -1 2.7 0.7
v -1 3.1 0.9
v -1 3.1 0.8
v -1 3.1 0.7
v -1 3.1 0.6
v -1 3.3 0.9
v -1 3.3 0.8
v -1 3.3 0.7
v -1 3.3 0.6
v -0.7 0.1 0
v -0.7 0.1 -0.0999999
v -0.7 0.2 -0.0999999
v -0.7 0.3 -0.0999999
v -0.7 0.8 0
v -0.7 0.8 -0.0999999
v -0.6 0.2 0.1
v -0.6 0.2 0
v -0.6 0.4 0.1
v -0.6 0.4 0
v -0.6 0.5 0.1
v -0.6 0.5 0
v -0.6 0.7 0.1
v -0.6 0.7 0
v -0.3 0.2 -0.0999999
v -0.3 0.2 -0.2
v -0.3 0.3 -0.0999999
v -0.3 0.3 -0.2
v -0.2 0.2 -0.3
v -0.2 0.2 -0.4
v -0.2 0.3 0
v -0.2 0.3 -0.0999999
v -0.2 0.3 -0.3
v -0.2 0.4 0
v -0.2 0.4 -0.0999999
v -0.2 0.5 -0.3
v -0.2 0.5 -0.4
v -0.2 2.6 1
v -0.2 2.6 0.6
v -0.2 2.7 1
v -0.2 2.7 0.6
v 0.1 0.2 0
v 0.1 0.2 -0.0999999
v 0.1 0.3 0
v 0.1 0.3 -0.0999999
v 0.1 0.4 0
v 0.1 0.4 -0.0999999
v 0.1 0.7 0
v 0.1 0.7 -0.0999999
v 0.3 2.6 1
v 0.3 2.6 0.6
v 0.3 2.7 1
v 0.3 2.7 0.6
v 0.8 0 0
v 0.8 0 -0.0999999
v 0.8 0.2 -0.0999999
v 0.8 0.2 -0.2
v 0.8 0.3 -0.0999999
v 0.8 0.3 -0.2
v 0.8 0.9 0
v 0.8 0.9 -0.0999999
v 0.8 1 0
v 0.8 1 -0.0999999
v 0.8 1.9 1.6
v 0.8 1.9 0
v 0.8 2 1.7
v 0.8 2 1.6
v 0.8 2 1.5
v 0.8 2 -0.0999999
v 0.8 2.1 1.6
v 0.8 2.1 1.5
v 0.8 2.5 1.6
v 0.8 2.5 1.5
v 0.8 2.6 1.7
v 0.8 2.6 1.6
v 0.8 2.6 1.5
v 0.8 2.6 1.1
v 0.8 2.6 0.4
v 0.8 2.6 -0.0999999
v 0.8 2.7 1.6
v 0.8 2.7 0
v 0.8 4.5 0
v 0.8 4.5 -0.0999999
v 0.8 4.6 -0.3
v 0.8 4.6 -0.9
v 0.8 5.3 -0.3
v 0.8 5.3 -0.9
v -1.3 0 0
v -1.3 0 -0.0999999
v -1.3 0.2 -0.0999999
v -1.3 0.2 -0.2
v -1.3 0.3 -0.0999999
v -1.3 0.3 -0.2
v -1.3 0.9 0
v -1.3 0.9 -0.0999999
v -1.3 1 0
v -1.3 1 -0.0999999
v -1.3 1.9 1.6
v -1.3 1.9 0
v -1.3 2 1.7
v -1.3 2 1.6
v -1.3 2 1.5
v -1.3 2 -0.0999999
v -1.3 2.1 1.6
v -1.3 2.1 1.5
v -1.3 2.5 1.6
v -1.3 2.5 1.5
v -1.3 2.6 1.7
v -1.3 2.6 1.6
v -1.3 2.6 1.5
v -1.3 2.6 1.1
v -1.3 2.6 0.4
v -1.3 2.6 -0.0999999
v -1.3 2.7 1.6
v -1.3 2.7 0
v -1.3 4.5 0
v -1.3 4.5 -0.0999999
v -1.3 4.6 -0.3
v -1.3 4.6 -0.9
v -1.3 5.3 -0.3
v -1.3 5.3 -0.9
v -1.2 2.2 1.5
v -1.2 2.2 1.4
v -1.2 2.4 1.5
v -1.2 2.4 1.4
v -0.9 2.7 0.8
v -0.9 2.7 0.7
v -0.9 3.1 0.9
v -0.9 3.1 0.8
v -0.9 3.1 0.7
v -0.9 3.1 0.6
v -0.9 3.3 0.9
v -0.9 3.3 0.8
v -0.9 3.3 0.7
v -0.9 3.3 0.6
v -0.8 2.6 1
v -0.8 2.6 0.9
v -0.8 2.6 0.6
v -0.8 2.6 0.5
v -0.8 2.7 1
v -0.8 2.7 0.9
v -0.8 2.7 0.6
v -0.8 2.7 0.5
v -0.8 3.1 0.8
v -0.8 3.1 0.7
v -0.8 3.3 0.8
v -0.8 3.3 0.7
v -0.7 2.6 0.9
v -0.7 2.6 0.6
v -0.7 2.7 0.9
v -0.7 2.7 0.6
v -0.4 0.2 0.1
v -0.4 0.2 0
v -0.4 0.3 0.1
v -0.4 0.3 0
v -0.4 0.4 0.1
v -0.4 0.4 0
v -0.4 0.5 0.1
v -0.4 0.5 0
v -0.4 0.6 0.1
v -0.4 0.6 0
v -0.4 0.7 0.1
v -0.4 0.7 0
v -0.3 0.2 0
v -0.3 0.2 -0.0999999
v -0.3 0.2 -0.3
v -0.3 0.2 -0.4
v -0.3 0.3 -0.3
v -0.3 0.5 0
v -0.3 0.5 -0.0999999
v -0.3 0.5 -0.3
v -0.3 0.5 -0.4
v -0.3 0.6 0
v -0.3 0.6 -0.0999999
v -0.3 0.7 0
v -0.3 0.7 -0.0999999
v 0 0.5 0
v 0 0.5 -0.0999999
v 0 0.6 0
v 0 0.6 -0.0999999
v 0.1 0.2 -0.0999999
v 0.1 0.2 -0.2
v 0.1 0.3 -0.0999999
v 0.1 0.3 -0.2
v 0.2 0.1 0
v 0.2 0.1 -0.0999999
v 0.2 0.2 -0.0999999
v 0.2 0.3 -0.0999999
v 0.2 0.8 0
v 0.2 0.8 -0.0999999
v 0.2 2.6 1
v 0.2 2.6 0.7
v 0.2 2.6 0.6
v 0.2 2.7 1
v 0.2 2.7 0.7
v 0.2 2.7 0.6
v 0.7 2.6 1
v 0.7 2.6 0.7
v 0.7 2.6 0.6
v 0.7 2.7 1
v 0.7 2.7 0.7
v 0.7 2.7 0.6
v 1 0 -0.8
v 1 0 -0.9
v 1 0 -1.8
v 1 0 -2
v 1 0 -2.3
v 1 0 -2.5
v 1 0.1 -1.8
v 1 0.1 -2
v 1 0.1 -2.3
v 1 0.1 -2.4
v 1 0.2 -2.2
v 1 0.2 -2.3
v 1 0.3 -2.2
v 1 0.3 -2.3
v 1 0.5 -2.4
v 1 0.5 -2.5
v 1 0.6 -1.9
v 1 0.6 -2.3
v 1 0.7 -1.9
v 1 0.7 -2.3
v 1 0.8 -2.4
v 1 0.8 -2.5
v 1 0.9 -0.8
v 1 0.9 -0.9
v 1 0.9 -1.9
v 1 0.9 -2.3
v 1 1 -1.9
v 1 1 -2.3
v 1 1.2 -1.9
v 1 1.2 -2.3
v 1 1.3 -1.9
v 1 1.3 -2.3
v 1 1.4 -2.4
v 1 1.4 -2.5
v 1 2 -2.4
v 1 2 -2.5
v 1 2.9 -2.4
v 1 2.9 -2.5
v 1 3.2 -2.4
v 1 3.2 -2.5
v 1 3.9 -2.4
v 1 3.9 -2.5
v 1 4 -2.2
v 1 4 -2.3
v 1 4.1 -2.2
v 1 4.1 -2.3
v 1 4.2 -0.9
v 1 4.2 -1.7
v 1 4.2 -1.8
v 1 4.2 -2.4
v 1 4.3 -0.9
v 1 4.3 -1.7
v 1 4.3 -2.4
v 1 4.3 -2.5
v 1.1 0 0
v 1.1 0 -0.0999999
v 1.1 0 -0.8
v 1.1 0 -0.9
v 1.1 0 -1.8
v 1.1 0.9 0
v 1.1 0.9 -0.0999999
v 1.1 0.9 -0.8
v 1.1 1 0
v 1.1 1 -0.9
v 1.1 1.9 1.6
v 1.1 1.9 0
v 1.1 2 1.7
v 1.1 2 1.6
v 1.1 2 1.5
v 1.1 2 1.4
v 1.1 2 -0.0999999
v 1.1 2 -0.2
v 1.1 2 -0.7
v 1.1 2 -0.8
v 1.1 2.1 1.5
v 1.1 2.1 1.4
v 1.1 2.1 -0.0999999
v 1.1 2.1 -0.2
v 1.1 2.1 -0.7
v 1.1 2.1 -0.8
v 1.1 2.4 -1
v 1.1 2.4 -1.3
v 1.1 2.4 -1.6
v 1.1 2.5 1.5
v 1.1 2.5 1.4
v 1.1 2.5 -0.0999999
v 1.1 2.5 -0.2
v 1.1 2.5 -0.7
v 1.1 2.5 -0.8
v 1.1 2.5 -1
v 1.1 2.5 -1.3
v 1.1 2.5 -1.6
v 1.1 2.6 1.7
v 1.1 2.6 1.6
v 1.1 2.6 1.5
v 1.1 2.6 1.4
v 1.1 2.6 -0.0999999
v 1.1 2.6 -0.2
v 1.1 2.6 -0.7
v 1.1 2.6 -0.8
v 1.1 2.7 1.6
v 1.1 2.7 0
v 1.1 2.7 -1
v 1.1 2.7 -1.3
v 1.1 2.7 -1.6
v 1.1 2.8 -1
v 1.1 2.8 -1.3
v 1.1 2.8 -1.6
v 1.1 3 -1
v 1.1 3 -1.3
v 1.1 3 -1.6
v 1.1 3.1 -1
v 1.1 3.1 -1.3
v 1.1 3.1 -1.6
v 1.1 3.3 -1
v 1.1 3.3 -1.3
v 1.1 3.3 -1.6
v 1.1 3.4 -1
v 1.1 3.4 -1.3
v 1.1 3.4 -1.6
v 1.1 3.6 -1
v 1.1 3.6 -1.3
v 1.1 3.6 -1.6
v 1.1 3.7 -1
v 1.1 3.7 -1.3
v 1.1 3.7 -1.6
v 1.1 4.2 -0.0999999
v 1.1 4.2 -0.2
v 1.1 4.2 -0.9
v 1.1 4.2 -1.8
v 1.1 4.3 -0.0999999
v 1.1 4.3 -0.2
v 1.1 4.8 -0.0999999
v 1.1 4.8 -0.2
v 1.1 4.9 -0.0999999
v 1.1 4.9 -0.2
v 1.1 5.1 -0.0999999
v 1.1 5.1 -0.2
v 1.1 5.2 -0.0999999
v 1.1 5.2 -0.2
v 1.1 5.3 0
v 1.1 5.3 -0.9
v -1.6 2 1.7
v -1.6 2.6 1.7
v -1.5 2 1.7
v -1.5 2.4 1.7
v -1.5 2.6 1.7
v -1.4 2 1.7
v -1.4 2.4 1.7
v -1.4 2.6 1.7
v -1.3 2 1.7
v -1.3 2.6 1.7
v 0.8 2 1.7
v 0.8 2.6 1.7
v 0.9 2 1.7
v 0.9 2.3 1.7
v 0.9 2.5 1.7
v 0.9 2.6 1.7
v 1 2 1.7
v 1 2.3 1.7
v 1 2.5 1.7
v 1 2.6 1.7
v 1.1 2 1.7
v 1.1 2.6 1.7
v -1.6 1.9 1.6
v -1.6 2 1.6
v -1.6 2.6 1.6
v -1.6 2.7 1.6
v -1.5 1.9 1.6
v -1.5 2 1.6
v -1.5 2.6 1.6
v -1.5 2.7 1.6
v -1.4 1.9 1.6
v -1.4 2 1.6
v -1.4 2.6 1.6
v -1.4 2.7 1.6
v -1.3 1.9 1.6
v -1.3 2 1.6
v -1.3 2.1 1.6
v -1.3 2.5 1.6
v -1.3 2.6 1.6
v -1.3 2.7 1.6
v 0.8 1.9 1.6
v 0.8 2 1.6
v 0.8 2.1 1.6
v 0.8 2.5 1.6
v 0.8 2.6 1.6
v 0.8 2.7 1.6
v 0.9 1.9 1.6
v 0.9 2 1.6
v 0.9 2.6 1.6
v 0.9 2.7 1.6
v 1 1.9 1.6
v 1 2 1.6
v 1 2.6 1.6
v 1 2.7 1.6
v 1.1 1.9 1.6
v 1.1 2 1.6
v 1.1 2.6 1.6
v 1.1 2.7 1.6
v -1.3 2 1.5
v -1.3 2.1 1.5
v -1.3 2.5 1.5
v -1.3 2.6 1.5
v 0.8 2 1.5
v 0.8 2.1 1.5
v 0.8 2.5 1.5
v 0.8 2.6 1.5
v -1.2 2.2 1.4
v -1.2 2.4 1.4
v -1.1 2.2 1.4
v -1.1 2.4 1.4
v -1.1 2.6 1
v -1.1 2.7 1
v -0.8 2.6 1
v -0.8 2.7 1
v -0.2 2.6 1
v -0.2 2.7 1
v -0.1 2.6 1
v -0.1 2.7 1
v 0.2 2.6 1
v 0.2 2.7 1
v 0.3 2.6 1
v 0.3 2.7 1
v 0.4 2.6 1
v 0.4 2.7 1
v 0.7 2.6 1
v 0.7 2.7 1
v -1.2 2.6 0.9
v -1.2 2.7 0.9
v -1.1 2.6 0.9
v -1.1 2.7 0.9
v -1 3.1 0.9
v -1 3.3 0.9
v -0.9 3.1 0.9
v -0.9 3.3 0.9
v -0.8 2.6 0.9
v -0.8 2.7 0.9
v -0.7 2.6 0.9
v -0.7 2.7 0.9
v -1.1 3.1 0.8
v -1.1 3.3 0.8
v -1 2.7 0.8
v -1 3.1 0.8
v -1 3.3 0.8
v -0.9 2.7 0.8
v -0.9 3.1 0.8
v -0.9 3.3 0.8
v -0.8 3.1 0.8
v -0.8 3.3 0.8
v -0.6 0.2 0.1
v -0.6 0.4 0.1
v -0.6 0.5 0.1
v -0.6 0.7 0.1
v -0.5 0.2 0.1
v -0.5 0.3 0.1
v -0.5 0.5 0.1
v -0.5 0.6 0.1
v -0.4 0.2 0.1
v -0.4 0.3 0.1
v -0.4 0.4 0.1
v -0.4 0.5 0.1
v -0.4 0.6 0.1
v -0.4 0.7 0.1
v -1.6 0 0
v -1.6 0.9 0
v -1.6 1 0
v -1.6 1.9 0
v -1.6 2.7 0
v -1.6 5.3 0
v -1.5 0 0
v -1.5 0.2 0
v -1.5 0.6 0
v -1.5 0.9 0
v -1.5 1 0
v -1.5 1.6 0
v -1.5 1.9 0
v -1.5 2.7 0
v -1.5 3.1 0
v -1.5 3.8 0
v -1.5 4.3 0
v -1.5 5.2 0
v -1.5 5.3 0
v -1.4 0 0
v -1.4 0.2 0
v -1.4 0.6 0
v -1.4 0.9 0
v -1.4 1 0
v -1.4 1.6 0
v -1.4 1.9 0
v -1.4 2.7 0
v -1.4 3.1 0
v -1.4 3.8 0
v -1.4 4.3 0
v -1.4 5.2 0
v -1.4 5.3 0
v -1.3 0 0
v -1.3 0.9 0
v -1.3 1 0
v -1.3 1.9 0
v -1.3 2.7 0
v -1.3 4.5 0
v -1.3 4.6 0
v -1.3 5.2 0
v -1.3 5.3 0
v -1.2 4.7 0
v -1.2 5.1 0
v -0.7 0.1 0
v -0.7 0.8 0
v -0.6 0.2 0
v -0.6 0.4 0
v -0.6 0.5 0
v -0.6 0.7 0
v -0.5 0.2 0
v -0.5 0.5 0
v -0.4 0.2 0
v -0.4 0.3 0
v -0.4 0.4 0
v -0.4 0.5 0
v -0.4 0.6 0
v -0.4 0.7 0
v -0.3 0.2 0
v -0.3 0.5 0
v -0.3 0.6 0
v -0.3 0.7 0
v -0.2 0.3 0
v -0.2 0.4 0
v 0 0.5 0
v 0 0.6 0
v 0.1 0.2 0
v 0.1 0.3 0
v 0.1 0.4 0
v 0.1 0.7 0
v 0.2 0.1 0
v 0.2 0.8 0
v 0.7 4.7 0
v 0.7 5.1 0
v 0.8 0 0
v 0.8 0.9 0
v 0.8 1 0
v 0.8 1.9 0
v 0.8 2.7 0
v 0.8 4.5 0
v 0.8 4.6 0
v 0.8 5.2 0
v 0.8 5.3 0
v 0.9 0 0
v 0.9 0.7 0
v 0.9 0.9 0
v 0.9 1 0
v 0.9 1.9 0
v 0.9 2.7 0
v 0.9 3.2 0
v 0.9 4.2 0
v 0.9 4.7 0
v 0.9 5.3 0
v 1 0 0
v 1 0.7 0
v 1 0.9 0
v 1 1 0
v 1 1.9 0
v 1 2.7 0
v 1 3.2 0
v 1 4.2 0
v 1 4.7 0
v 1 5.3 0
v 1.1 0 0
v 1.1 0.9 0
v 1.1 1 0
v 1.1 1.9 0
v 1.1 2.7 0
v 1.1 5.3 0
v -1.3 0 -0.0999999
v -1.3 0.2 -0.0999999
v -1.3 0.3 -0.0999999
v -1.3 0.9 -0.0999999
v -1.3 1 -0.0999999
v -1.3 2 -0.0999999
v -1.3 2.6 -0.0999999
v -1.3 4.5 -0.0999999
v -1.2 0.1 -0.0999999
v -1.2 0.2 -0.0999999
v -1.2 0.3 -0.0999999
v -1.2 0.4 -0.0999999
v -1.2 0.8 -0.0999999
v -1.2 0.9 -0.0999999
v -1.2 1 -0.0999999
v -1.2 1.1 -0.0999999
v -1.1 0.1 -0.0999999
v -1.1 0.2 -0.0999999
v -1.1 0.3 -0.0999999
v -1.1 0.4 -0.0999999
v -1.1 0.8 -0.0999999
v -1.1 0.9 -0.0999999
v -1.1 1 -0.0999999
v -1.1 1.1 -0.0999999
v -1.1 2.8 -0.0999999
v -1.1 4.3 -0.0999999
v -1 2.9 -0.0999999
v -1 4.2 -0.0999999
v -0.8 3.1 -0.0999999
v -0.8 4 -0.0999999
v -0.7 0.1 -0.0999999
v -0.7 0.2 -0.0999999
v -0.7 0.3 -0.0999999
v -0.7 0.8 -0.0999999
v -0.3 0.2 -0.0999999
v -0.3 0.5 -0.0999999
v -0.3 0.6 -0.0999999
v -0.3 0.7 -0.0999999
v -0.2 0.3 -0.0999999
v -0.2 0.4 -0.0999999
v 0 0.5 -0.0999999
v 0 0.6 -0.0999999
v 0.1 0.2 -0.0999999
v 0.1 0.3 -0.0999999
v 0.1 0.4 -0.0999999
v 0.1 0.7 -0.0999999
v 0.2 0.1 -0.0999999
v 0.2 0.2 -0.0999999
v 0.2 0.3 -0.0999999
v 0.2 0.8 -0.0999999
v 0.3 3.1 -0.0999999
v 0.3 4 -0.0999999
v 0.5 2.9 -0.0999999
v 0.5 4.2 -0.0999999
v 0.6 0.1 -0.0999999
v 0.6 0.2 -0.0999999
v 0.6 0.3 -0.0999999
v 0.6 0.4 -0.0999999
v 0.6 0.8 -0.0999999
v 0.6 0.9 -0.0999999
v 0.6 1 -0.0999999
v 0.6 1.1 -0.0999999
v 0.6 2.8 -0.0999999
v 0.6 4.3 -0.0999999
v 0.7 0.1 -0.0999999
v 0.7 0.2 -0.0999999
v 0.7 0.3 -0.0999999
v 0.7 0.4 -0.0999999
v 0.7 0.8 -0.0999999
v 0.7 0.9 -0.0999999
v 0.7 1 -0.0999999
v 0.7 1.1 -0.0999999
v 0.8 0 -0.0999999
v 0.8 0.2 -0.0999999
v 0.8 0.3 -0.0999999
v 0.8 0.9 -0.0999999
v 0.8 1 -0.0999999
v 0.8 2 -0.0999999
v 0.8 2.6 -0.0999999
v 0.8 4.5 -0.0999999
v -1.3 0.2 -0.2
v -1.3 0.3 -0.2
v -1.2 0.2 -0.2
v -1.2 0.3 -0.2
v -1.1 0.2 -0.2
v -1.1 0.3 -0.2
v -0.3 0.2 -0.2
v -0.3 0.3 -0.2
v 0.1 0.2 -0.2
v 0.1 0.3 -0.2
v 0.6 0.2 -0.2
v 0.6 0.3 -0.2
v 0.7 0.2 -0.2
v 0.7 0.3 -0.2
v 0.8 0.2 -0.2
v 0.8 0.3 -0.2
v -0.3 0.2 -0.4
v -0.3 0.5 -0.4
v -0.2 0.2 -0.4
v -0.2 0.5 -0.4
v -1.6 0 -0.9
v -1.6 1 -0.9
v -1.5 0 -0.9
v -1.5 0.9 -0.9
v -1.5 1 -0.9
v -1.4 0.9 -0.9
v 0.7 0.9 -0.9
v 0.9 0.9 -0.9
v 0.9 1 -0.9
v 1 0 -0.9
v 1 0.9 -0.9
v 1.1 0 -0.9
v 1.1 1 -0.9
v -1.2 2.2 1.5
v -1.2 2.4 1.5
v -1.1 2.2 1.5
v -1.1 2.4 1.5
v -1.1 3.1 0.7
v -1.1 3.3 0.7
v -1 2.7 0.7
v -1 3.1 0.7
v -1 3.3 0.7
v -0.9 2.7 0.7
v -0.9 3.1 0.7
v -0.9 3.3 0.7
v -0.8 3.1 0.7
v -0.8 3.3 0.7
v -1.2 2.6 0.6
v -1.2 2.7 0.6
v -1.1 2.6 0.6
v -1.1 2.7 0.6
v -1 3.1 0.6
v -1 3.3 0.6
v -0.9 3.1 0.6
v -0.9 3.3 0.6
v -0.8 2.6 0.6
v -0.8 2.7 0.6
v -0.7 2.6 0.6
v -0.7 2.7 0.6
v -0.2 2.6 0.6
v -0.2 2.7 0.6
v 0.2 2.6 0.6
v 0.2 2.7 0.6
v 0.3 2.6 0.6
v 0.3 2.7 0.6
v 0.7 2.6 0.6
v 0.7 2.7 0.6
v -1.1 2.6 0.5
v -1.1 2.7 0.5
v -0.8 2.6 0.5
v -0.8 2.7 0.5
v -0.7 0.2 -0.0999999
v -0.7 0.3 -0.0999999
v -0.3 0.2 -0.0999999
v -0.3 0.3 -0.0999999
v 0.1 0.2 -0.0999999
v 0.1 0.3 -0.0999999
v 0.2 0.2 -0.0999999
v 0.2 0.3 -0.0999999
v -1.3 4.6 -0.3
v -1.3 5.3 -0.3
v -0.3 0.2 -0.3
v -0.3 0.3 -0.3
v -0.3 0.5 -0.3
v -0.2 0.2 -0.3
v -0.2 0.3 -0.3
v -0.2 0.5 -0.3
v 0.8 4.6 -0.3
v 0.8 5.3 -0.3
v -1.6 0 -0.8
v -1.6 0.9 -0.8
v -1.5 0 -0.8
v -1.5 0.9 -0.8
v 1 0 -0.8
v 1 0.9 -0.8
v 1.1 0 -0.8
v 1.1 0.9 -0.8
v -1.6 4.2 -0.9
v -1.6 5.3 -0.9
v -1.5 4.2 -0.9
v -1.5 4.3 -0.9
v -1.5 4.8 -0.9
v -1.5 5.3 -0.9
v -1.4 4.3 -0.9
v -1.4 4.8 -0.9
v -1.4 5.3 -0.9
v -1.3 4.6 -0.9
v -1.3 5.3 -0.9
v 0.8 4.6 -0.9
v 0.8 5.3 -0.9
v 0.9 4.3 -0.9
v 0.9 5.1 -0.9
v 0.9 5.3 -0.9
v 1 4.2 -0.9
v 1 4.3 -0.9
v 1 5.1 -0.9
v 1 5.3 -0.9
v 1.1 4.2 -0.9
v 1.1 5.3 -0.9
v -1.6 0 -1.8
v -1.6 4.2 -1.8
v -1.5 0 -1.8
v -1.5 0.1 -1.8
v -1.5 4.2 -1.8
v 1 0 -1.8
v 1 0.1 -1.8
v 1 4.2 -1.8
v 1.1 0 -1.8
v 1.1 4.2 -1.8
v -1.5 0 -2.5
v -1.5 0.1 -2.5
v -1.5 1.4 -2.5
v -1.5 2.2 -2.5
v -1.5 2.6 -2.5
v -1.5 3.4 -2.5
v -1.5 4.3 -2.5
v -1.4 0 -2.5
v -1.4 0.1 -2.5
v -1.4 1.4 -2.5
v -1.4 2.2 -2.5
v -1.4 2.6 -2.5
v -1.4 3.4 -2.5
v -1.4 4.3 -2.5
v -1.2 0.3 -2.5
v -1.2 0.4 -2.5
v -1.2 0.7 -2.5
v -1.2 0.8 -2.5
v -1.1 0.5 -2.5
v -1.1 0.6 -2.5
v 0.6 0.5 -2.5
v 0.6 0.6 -2.5
v 0.7 0.3 -2.5
v 0.7 0.4 -2.5
v 0.7 0.7 -2.5
v 0.7 0.8 -2.5
v 0.9 0 -2.5
v 0.9 0.5 -2.5
v 0.9 0.8 -2.5
v 0.9 1.4 -2.5
v 0.9 2 -2.5
v 0.9 2.9 -2.5
v 0.9 3.2 -2.5
v 0.9 3.9 -2.5
v 0.9 4.3 -2.5
v 1 0 -2.5
v 1 0.5 -2.5
v 1 0.8 -2.5
v 1 1.4 -2.5
v 1 2 -2.5
v 1 2.9 -2.5
v 1 3.2 -2.5
v 1 3.9 -2.5
v 1 4.3 -2.5
v -1.6 0 0
v -1.5 0 0
v -1.4 0 0
v -1.3 0 0
v 0.8 0 0
v 0.9 0 0
v 1 0 0
v 1.1 0 0
v -1.6 0 -0.0999999
v -1.5 0 -0.0999999
v -1.4 0 -0.0999999
v -1.3 0 -0.0999999
v 0.8 0 -0.0999999
v 0.9 0 -0.0999999
v 1 0 -0.0999999
v 1.1 0 -0.0999999
v -1.5 0 -0.5
v -1.4 0 -0.5
v -1.6 0 -0.8
v -1.5 0 -0.8
v -1.4 0 -0.8
v 0.9 0 -0.8
v 1 0 -0.8
v 1.1 0 -0.8
v -1.6 0 -0.9
v -1.5 0 -0.9
v -1.4 0 -0.9
v 0.9 0 -0.9
v 1 0 -0.9
v 1.1 0 -0.9
v 0.9 0 -1.1
v 1 0 -1.1
v -1.5 0 -1.2
v -1.4 0 -1.2
v -1.6 0 -1.8
v -1.5 0 -1.8
v -1.4 0 -1.8
v 0.9 0 -1.8
v 1 0 -1.8
v 1.1 0 -1.8
v 0.9 0 -2
v 1 0 -2
v -1.5 0 -2.2
v -1.4 0 -2.2
v 0.9 0 -2.3
v 1 0 -2.3
v -1.5 0 -2.5
v -1.4 0 -2.5
v 0.9 0 -2.5
v 1 0 -2.5
v -0.7 0.1 0
v 0.2 0.1 0
v -0.7 0.1 -0.0999999
v 0.2 0.1 -0.0999999
v -0.6 0.2 0.1
v -0.5 0.2 0.1
v -0.4 0.2 0.1
v -0.6 0.2 0
v -0.5 0.2 0
v -0.4 0.2 0
v -0.2 0.3 0
v 0.1 0.3 0
v -1.3 0.3 -0.0999999
v -1.2 0.3 -0.0999999
v -1.1 0.3 -0.0999999
v -0.7 0.3 -0.0999999
v -0.3 0.3 -0.0999999
v -0.2 0.3 -0.0999999
v 0.1 0.3 -0.0999999
v 0.2 0.3 -0.0999999
v 0.6 0.3 -0.0999999
v 0.7 0.3 -0.0999999
v 0.8 0.3 -0.0999999
v -1.3 0.3 -0.2
v -1.2 0.3 -0.2
v -1.1 0.3 -0.2
v -0.3 0.3 -0.2
v 0.1 0.3 -0.2
v 0.6 0.3 -0.2
v 0.7 0.3 -0.2
v 0.8 0.3 -0.2
v -0.6 0.5 0.1
v -0.5 0.5 0.1
v -0.4 0.5 0.1
v -0.6 0.5 0
v -0.5 0.5 0
v -0.4 0.5 0
v -0.3 0.5 0
v 0 0.5 0
v -0.3 0.5 -0.0999999
v 0 0.5 -0.0999999
v -0.3 0.5 -0.3
v -0.2 0.5 -0.3
v -0.3 0.5 -0.4
v -0.2 0.5 -0.4
v -0.3 0.7 0
v 0.1 0.7 0
v -0.3 0.7 -0.0999999
v 0.1 0.7 -0.0999999
v -1.6 1 0
v -1.5 1 0
v -1.4 1 0
v -1.3 1 0
v 0.8 1 0
v 0.9 1 0
v 1 1 0
v 1.1 1 0
v -1.5 1 -0.0999999
v -1.4 1 -0.0999999
v -1.3 1 -0.0999999
v -1.2 1 -0.0999999
v -1.1 1 -0.0999999
v 0.6 1 -0.0999999
v 0.7 1 -0.0999999
v 0.8 1 -0.0999999
v 0.9 1 -0.0999999
v 1 1 -0.0999999
v -1.2 1 -0.2
v -1.1 1 -0.2
v 0.6 1 -0.2
v 0.7 1 -0.2
v -1.6 1 -0.9
v -1.5 1 -0.9
v 0.9 1 -0.9
v 1.1 1 -0.9
v -1.6 1.9 1.6
v -1.5 1.9 1.6
v -1.4 1.9 1.6
v -1.3 1.9 1.6
v 0.8 1.9 1.6
v 0.9 1.9 1.6
v 1 1.9 1.6
v 1.1 1.9 1.6
v -1.5 1.9 1.5
v -1.4 1.9 1.5
v 0.9 1.9 1.3
v 1 1.9 1.3
v 0.9 1.9 0.9
v 1 1.9 0.9
v -1.5 1.9 0.5
v -1.4 1.9 0.5
v -1.5 1.9 0.1
v -1.4 1.9 0.1
v 0.9 1.9 0.1
v 1 1.9 0.1
v -1.6 1.9 0
v -1.5 1.9 0
v -1.4 1.9 0
v -1.3 1.9 0
v 0.8 1.9 0
v 0.9 1.9 0
v 1 1.9 0
v 1.1 1.9 0
v -1.6 2 1.7
v -1.5 2 1.7
v -1.4 2 1.7
v -1.3 2 1.7
v 0.8 2 1.7
v 0.9 2 1.7
v 1 2 1.7
v 1.1 2 1.7
v -1.6 2 1.6
v -1.5 2 1.6
v -1.4 2 1.6
v -1.3 2 1.6
v 0.8 2 1.6
v 0.9 2 1.6
v 1 2 1.6
v 1.1 2 1.6
v -1.3 2 1.5
v 0.8 2 1.5
v -1.3 2 -0.0999999
v 0.8 2 -0.0999999
v -1.3 2.1 1.6
v 0.8 2.1 1.6
v -1.3 2.1 1.5
v 0.8 2.1 1.5
v -1.2 2.4 1.5
v -1.1 2.4 1.5
v -1.2 2.4 1.4
v -1.1 2.4 1.4
v -1 3.1 0.9
v -0.9 3.1 0.9
v -1.1 3.1 0.8
v -1 3.1 0.8
v -0.9 3.1 0.8
v -0.8 3.1 0.8
v -1.1 3.1 0.7
v -1 3.1 0.7
v -0.9 3.1 0.7
v -0.8 3.1 0.7
v -1 3.1 0.6
v -0.9 3.1 0.6
v -1.3 4.5 0
v 0.8 4.5 0
v -1.3 4.5 -0.0999999
v 0.8 4.5 -0.0999999
v -0.3 0.2 0
v 0.1 0.2 0
v -1.3 0.2 -0.0999999
v -1.2 0.2 -0.0999999
v -1.1 0.2 -0.0999999
v -0.7 0.2 -0.0999999
v -0.3 0.2 -0.0999999
v 0.1 0.2 -0.0999999
v 0.2 0.2 -0.0999999
v 0.6 0.2 -0.0999999
v 0.7 0.2 -0.0999999
v 0.8 0.2 -0.0999999
v -1.3 0.2 -0.2
v -1.2 0.2 -0.2
v -1.1 0.2 -0.2
v -0.3 0.2 -0.2
v 0.1 0.2 -0.2
v 0.6 0.2 -0.2
v 0.7 0.2 -0.2
v 0.8 0.2 -0.2
v -0.3 0.2 -0.3
v -0.2 0.2 -0.3
v -0.3 0.2 -0.4
v -0.2 0.2 -0.4
v -0.6 0.4 0.1
v -0.4 0.4 0.1
v -0.6 0.4 0
v -0.4 0.4 0
v -0.2 0.4 0
v 0.1 0.4 0
v -0.2 0.4 -0.0999999
v 0.1 0.4 -0.0999999
v -0.3 0.6 0
v 0 0.6 0
v -0.3 0.6 -0.0999999
v 0 0.6 -0.0999999
v -0.6 0.7 0.1
v -0.4 0.7 0.1
v -0.6 0.7 0
v -0.4 0.7 0
v -0.7 0.8 0
v 0.2 0.8 0
v -0.7 0.8 -0.0999999
v 0.2 0.8 -0.0999999
v -1.6 0.9 0
v -1.5 0.9 0
v -1.4 0.9 0
v -1.3 0.9 0
v 0.8 0.9 0
v 0.9 0.9 0
v 1 0.9 0
v 1.1 0.9 0
v -1.6 0.9 -0.0999999
v -1.5 0.9 -0.0999999
v -1.4 0.9 -0.0999999
v -1.3 0.9 -0.0999999
v -1.2 0.9 -0.0999999
v -1.1 0.9 -0.0999999
v 0.6 0.9 -0.0999999
v 0.7 0.9 -0.0999999
v 0.8 0.9 -0.0999999
v 0.9 0.9 -0.0999999
v 1 0.9 -0.0999999
v 1.1 0.9 -0.0999999
v -1.2 0.9 -0.2
v -1.1 0.9 -0.2
v 0.6 0.9 -0.2
v 0.7 0.9 -0.2
v -1.6 0.9 -0.8
v -1.5 0.9 -0.8
v -1.4 0.9 -0.8
v 0.7 0.9 -0.8
v 1 0.9 -0.8
v 1.1 0.9 -0.8
v -1.5 0.9 -0.9
v -1.4 0.9 -0.9
v 0.7 0.9 -0.9
v 0.9 0.9 -0.9
v 1 0.9 -0.9
v -1.2 2.2 1.5
v -1.1 2.2 1.5
v -1.2 2.2 1.4
v -1.1 2.2 1.4
v -1.3 2.5 1.6
v 0.8 2.5 1.6
v -1.3 2.5 1.5
v 0.8 2.5 1.5
v -1.6 2.6 1.7
v -1.5 2.6 1.7
v -1.4 2.6 1.7
v -1.3 2.6 1.7
v 0.8 2.6 1.7
v 0.9 2.6 1.7
v 1 2.6 1.7
v 1.1 2.6 1.7
v -1.6 2.6 1.6
v -1.5 2.6 1.6
v -1.4 2.6 1.6
v -1.3 2.6 1.6
v 0.8 2.6 1.6
v 0.9 2.6 1.6
v 1 2.6 1.6
v 1.1 2.6 1.6
v -1.3 2.6 1.5
v 0.8 2.6 1.5
v -1.3 2.6 1.1
v 0.8 2.6 1.1
v -1.1 2.6 1
v -0.8 2.6 1
v -0.2 2.6 1
v -0.1 2.6 1
v 0.2 2.6 1
v 0.3 2.6 1
v 0.4 2.6 1
v 0.7 2.6 1
v -1.2 2.6 0.9
v -1.1 2.6 0.9
v -0.8 2.6 0.9
v -0.7 2.6 0.9
v 0.2 2.6 0.7
v 0.7 2.6 0.7
v -1.2 2.6 0.6
v -1.1 2.6 0.6
v -0.8 2.6 0.6
v -0.7 2.6 0.6
v -0.2 2.6 0.6
v 0.2 2.6 0.6
v 0.3 2.6 0.6
v 0.7 2.6 0.6
v -1.1 2.6 0.5
v -0.8 2.6 0.5
v -1.3 2.6 0.4
v 0.8 2.6 0.4
v -1.3 2.6 -0.0999999
v 0.8 2.6 -0.0999999
v -1.6 2.7 1.6
v -1.5 2.7 1.6
v -1.4 2.7 1.6
v -1.3 2.7 1.6
v 0.8 2.7 1.6
v 0.9 2.7 1.6
v 1 2.7 1.6
v 1.1 2.7 1.6
v 0.9 2.7 1.5
v 1 2.7 1.5
v -1.1 2.7 1
v -0.8 2.7 1
v -0.2 2.7 1
v -0.1 2.7 1
v 0.2 2.7 1
v 0.3 2.7 1
v 0.4 2.7 1
v 0.7 2.7 1
v 0.9 2.7 1
v 1 2.7 1
v -1.5 2.7 0.9
v -1.4 2.7 0.9
v -1.2 2.7 0.9
v -1.1 2.7 0.9
v -0.8 2.7 0.9
v -0.7 2.7 0.9
v -0.1 2.7 0.9
v 0.1 2.7 0.9
v 0.4 2.7 0.9
v 0.6 2.7 0.9
v -1 2.7 0.8
v -0.9 2.7 0.8
v -1 2.7 0.7
v -0.9 2.7 0.7
v -0.1 2.7 0.7
v 0.1 2.7 0.7
v 0.2 2.7 0.7
v 0.4 2.7 0.7
v 0.6 2.7 0.7
v 0.7 2.7 0.7
v -1.2 2.7 0.6
v -1.1 2.7 0.6
v -0.8 2.7 0.6
v -0.7 2.7 0.6
v -0.2 2.7 0.6
v 0.2 2.7 0.6
v 0.3 2.7 0.6
v 0.7 2.7 0.6
v -1.1 2.7 0.5
v -0.8 2.7 0.5
v -1.6 2.7 0
v -1.5 2.7 0
v -1.4 2.7 0
v -1.3 2.7 0
v 0.8 2.7 0
v 0.9 2.7 0
v 1 2.7 0
v 1.1 2.7 0
v -1 3.3 0.9
v -0.9 3.3 0.9
v -1.1 3.3 0.8
v -1 3.3 0.8
v -0.9 3.3 0.8
v -0.8 3.3 0.8
v -1.1 3.3 0.7
v -1 3.3 0.7
v -0.9 3.3 0.7
v -0.8 3.3 0.7
v -1 3.3 0.6
v -0.9 3.3 0.6
v -1.6 4.2 -0.9
v -1.5 4.2 -0.9
v 1 4.2 -0.9
v 1.1 4.2 -0.9
v -1.5 4.2 -1.2
v 1 4.2 -1.7
v -1.6 4.2 -1.8
v -1.5 4.2 -1.8
v 1 4.2 -1.8
v 1.1 4.2 -1.8
v -1.5 4.3 -0.9
v -1.4 4.3 -0.9
v 0.9 4.3 -0.9
v 1 4.3 -0.9
v -1.5 4.3 -1.2
v -1.4 4.3 -1.2
v 0.9 4.3 -1.7
v 1 4.3 -1.7
v -1.5 4.3 -1.8
v -1.4 4.3 -1.8
v 0.9 4.3 -1.8
v -1.5 4.3 -2.4
v -1.4 4.3 -2.4
v 0.9 4.3 -2.4
v 1 4.3 -2.4
v -1.5 4.3 -2.5
v -1.4 4.3 -2.5
v 0.9 4.3 -2.5
v 1 4.3 -2.5
v -1.3 4.6 -0.3
v 0.8 4.6 -0.3
v -1.3 4.6 -0.9
v 0.8 4.6 -0.9
v -1.6 5.3 0
v -1.5 5.3 0
v -1.4 5.3 0
v -1.3 5.3 0
v 0.8 5.3 0
v 0.9 5.3 0
v 1 5.3 0
v 1.1 5.3 0
v -1.3 5.3 -0.0999999
v 0.8 5.3 -0.0999999
v -1.5 5.3 -0.3
v -1.4 5.3 -0.3
v -1.3 5.3 -0.3
v 0.8 5.3 -0.3
v -1.5 5.3 -0.6
v -1.4 5.3 -0.6
v 0.9 5.3 -0.7
v 1 5.3 -0.7
v -1.6 5.3 -0.9
v -1.5 5.3 -0.9
v -1.4 5.3 -0.9
v -1.3 5.3 -0.9
v 0.8 5.3 -0.9
v 0.9 5.3 -0.9
v 1 5.3 -0.9
v 1.1 5.3 -0.9

# faces
f 6/15/1 2/15/1 1/15/1
f 7/8/1 3/8/1 2/8/1
f 7/15/1 2/15/1 6/15/1
f 8/8/1 3/8/1 7/8/1
f 10/8/1 5/8/1 4/8/1
f 12/15/1 10/15/1 9/15/1
f 14/15/1 12/15/1 11/15/1
f 15/15/1 12/15/1 14/15/1
f 16/15/1 12/15/1 15/15/1
f 17/15/1 10/15/1 12/15/1
f 17/15/1 12/15/1 16/15/1
f 18/15/1 10/15/1 17/15/1
f 19/15/1 10/15/1 18/15/1
f 20/15/1 10/15/1 19/15/1
f 21/11/1 16/11/1 15/11/1
f 21/15/1 14/15/1 13/15/1
f 21/15/1 15/15/1 14/15/1
f 22/15/1 17/15/1 16/15/1
f 22/11/1 16/11/1 21/11/1
f 23/11/1 18/11/1 17/11/1
f 23/15/1 17/15/1 22/15/1
f 24/15/1 19/15/1 18/15/1
f 24/11/1 18/11/1 23/11/1
f 25/11/1 20/11/1 19/11/1
f 25/15/1 19/15/1 24/15/1
f 26/15/1 10/15/1 20/15/1
f 26/11/1 20/11/1 25/11/1
f 27/8/1 5/8/1 10/8/1
f 28/8/1 5/8/1 27/8/1
f 29/8/1 5/8/1 28/8/1
f 30/15/1 25/15/1 24/15/1
f 30/15/1 24/15/1 23/15/1
f 30/15/1 23/15/1 22/15/1
f 30/15/1 21/15/1 13/15/1
f 30/15/1 22/15/1 21/15/1
f 30/15/1 26/15/1 25/15/1
f 31/15/1 26/15/1 30/15/1
f 32/15/1 26/15/1 31/15/1
f 33/15/1 26/15/1 32/15/1
f 34/15/1 26/15/1 33/15/1
f 35/15/1 10/15/1 26/15/1
f 35/15/1 26/15/1 34/15/1
f 36/14/1 28/14/1 27/14/1
f 36/8/1 27/8/1 10/8/1
f 37/12/1 29/12/1 28/12/1
f 37/14/1 28/14/1 36/14/1
f 38/8/1 5/8/1 29/8/1
f 38/12/1 29/12/1 37/12/1
f 39/15/1 30/15/1 13/15/1
f 40/15/1 30/15/1 39/15/1
f 41/11/1 31/11/1 30/11/1
f 41/15/1 30/15/1 40/15/1
f 42/15/1 32/15/1 31/15/1
f 42/11/1 31/11/1 41/11/1
f 43/11/1 33/11/1 32/11/1
f 43/15/1 32/15/1 42/15/1
f 44/15/1 34/15/1 33/15/1
f 44/11/1 33/11/1 43/11/1
f 45/11/1 35/11/1 34/11/1
f 45/15/1 34/15/1 44/15/1
f 46/15/1 10/15/1 35/15/1
f 46/11/1 35/11/1 45/11/1
f 47/15/1 43/15/1 42/15/1
f 47/15/1 45/15/1 44/15/1
f 47/15/1 46/15/1 45/15/1
f 47/15/1 44/15/1 43/15/1
f 47/15/1 42/15/1 41/15/1
f 47/15/1 41/15/1 40/15/1
f 48/15/1 46/15/1 47/15/1
f 49/8/1 37/8/1 36/8/1
f 49/8/1 36/8/1 10/8/1
f 49/8/1 38/8/1 37/8/1
f 50/8/1 38/8/1 49/8/1
f 51/8/1 5/8/1 38/8/1
f 51/8/1 38/8/1 50/8/1
f 52/14/1 50/14/1 49/14/1
f 52/8/1 49/8/1 10/8/1
f 53/12/1 51/12/1 50/12/1
f 53/14/1 50/14/1 52/14/1
f 54/8/1 5/8/1 51/8/1
f 54/12/1 51/12/1 53/12/1
f 55/8/1 53/8/1 52/8/1
f 55/8/1 52/8/1 10/8/1
f 55/8/1 54/8/1 53/8/1
f 56/8/1 54/8/1 55/8/1
f 57/8/1 5/8/1 54/8/1
f 57/8/1 54/8/1 56/8/1
f 58/14/1 56/14/1 55/14/1
f 58/8/1 55/8/1 10/8/1
f 59/12/1 57/12/1 56/12/1
f 59/14/1 56/14/1 58/14/1
f 60/8/1 5/8/1 57/8/1
f 60/12/1 57/12/1 59/12/1
f 61/8/1 59/8/1 58/8/1
f 61/8/1 58/8/1 10/8/1
f 61/8/1 60/8/1 59/8/1
f 62/8/1 60/8/1 61/8/1
f 63/8/1 5/8/1 60/8/1
f 63/8/1 60/8/1 62/8/1
f 64/14/1 62/14/1 61/14/1
f 64/8/1 61/8/1 10/8/1
f 65/12/1 63/12/1 62/12/1
f 65/14/1 62/14/1 64/14/1
f 66/8/1 5/8/1 63/8/1
f 66/12/1 63/12/1 65/12/1
f 67/8/1 65/8/1 64/8/1
f 67/8/1 64/8/1 10/8/1
f 67/8/1 66/8/1 65/8/1
f 68/8/1 66/8/1 67/8/1
f 69/8/1 5/8/1 66/8/1
f 69/8/1 66/8/1 68/8/1
f 70/14/1 68/14/1 67/14/1
f 70/8/1 67/8/1 10/8/1
f 71/12/1 69/12/1 68/12/1
f 71/14/1 68/14/1 70/14/1
f 72/8/1 5/8/1 69/8/1
f 72/12/1 69/12/1 71/12/1
f 73/15/1 46/15/1 48/15/1
f 74/15/1 46/15/1 73/15/1
f 75/15/1 10/15/1 46/15/1
f 75/15/1 46/15/1 74/15/1
f 75/8/1 71/8/1 70/8/1
f 75/8/1 70/8/1 10/8/1
f 75/8/1 72/8/1 71/8/1
f 76/8/1 5/8/1 72/8/1
f 76/8/1 72/8/1 75/8/1
f 77/11/1 74/11/1 73/11/1
f 77/15/1 73/15/1 48/15/1
f 78/15/1 75/15/1 74/15/1
f 78/11/1 74/11/1 77/11/1
f 79/15/1 77/15/1 48/15/1
f 79/15/1 78/15/1 77/15/1
f 80/15/1 75/15/1 78/15/1
f 80/15/1 78/15/1 79/15/1
f 81/15/1 79/15/1 48/15/1
f 81/11/1 80/11/1 79/11/1
f 82/15/1 75/15/1 80/15/1
f 82/11/1 80/11/1 81/11/1
f 83/15/1 81/15/1 48/15/1
f 83/15/1 82/15/1 81/15/1
f 84/15/1 75/15/1 82/15/1
f 84/15/1 82/15/1 83/15/1
f 85/15/1 83/15/1 48/15/1
f 85/11/1 84/11/1 83/11/1
f 86/15/1 75/15/1 84/15/1
f 86/11/1 84/11/1 85/11/1
f 87/15/1 85/15/1 48/15/1
f 87/15/1 86/15/1 85/15/1
f 88/15/1 75/15/1 86/15/1
f 88/15/1 86/15/1 87/15/1
f 94/12/1 92/12/1 91/12/1
f 95/13/1 93/13/1 92/13/1
f 95/12/1 92/12/1 94/12/1
f 96/13/1 93/13/1 95/13/1
f 97/13/1 93/13/1 96/13/1
f 98/15/1 95/15/1 94/15/1
f 98/15/1 96/15/1 95/15/1
f 99/15/1 96/15/1 98/15/1
f 100/15/1 98/15/1 94/15/1
f 100/1/1 99/1/1 98/1/1
f 101/15/1 96/15/1 99/15/1
f 101/1/1 99/1/1 100/1/1
f 102/15/1 100/15/1 94/15/1
f 102/15/1 101/15/1 100/15/1
f 103/15/1 96/15/1 101/15/1
f 103/15/1 101/15/1 102/15/1
f 104/15/1 102/15/1 94/15/1
f 104/10/1 103/10/1 102/10/1
f 105/15/1 96/15/1 103/15/1
f 105/10/1 103/10/1 104/10/1
f 106/10/1 90/10/1 89/10/1
f 107/10/1 90/10/1 106/10/1
f 108/15/1 104/15/1 94/15/1
f 108/15/1 105/15/1 104/15/1
f 109/15/1 96/15/1 105/15/1
f 109/15/1 105/15/1 108/15/1
f 110/15/1 108/15/1 94/15/1
f 110/10/1 109/10/1 108/10/1
f 111/15/1 96/15/1 109/15/1
f 111/10/1 109/10/1 110/10/1
f 112/15/1 110/15/1 94/15/1
f 112/15/1 111/15/1 110/15/1
f 113/15/1 96/15/1 111/15/1
f 113/15/1 111/15/1 112/15/1
f 114/15/1 112/15/1 94/15/1
f 114/10/1 113/10/1 112/10/1
f 115/15/1 96/15/1 113/15/1
f 115/10/1 113/10/1 114/10/1
f 116/12/1 97/12/1 96/12/1
f 116/15/1 96/15/1 115/15/1
f 116/15/1 115/15/1 114/15/1
f 117/12/1 97/12/1 116/12/1
f 118/15/1 116/15/1 114/15/1
f 118/13/1 117/13/1 116/13/1
f 119/13/1 117/13/1 118/13/1
f 120/15/1 118/15/1 114/15/1
f 120/12/1 119/12/1 118/12/1
f 121/12/1 119/12/1 120/12/1
f 122/15/1 120/15/1 114/15/1
f 122/13/1 121/13/1 120/13/1
f 123/13/1 121/13/1 122/13/1
f 124/15/1 122/15/1 114/15/1
f 125/15/1 122/15/1 124/15/1
f 126/15/1 124/15/1 114/15/1
f 126/11/1 125/11/1 124/11/1
f 127/15/1 122/15/1 125/15/1
f 127/11/1 125/11/1 126/11/1
f 130/15/1 114/15/1 94/15/1
f 130/15/1 126/15/1 114/15/1
f 130/15/1 127/15/1 126/15/1
f 131/12/1 123/12/1 122/12/1
f 131/15/1 122/15/1 127/15/1
f 131/15/1 127/15/1 130/15/1
f 132/13/1 129/13/1 128/13/1
f 133/12/1 130/12/1 129/12/1
f 133/13/1 129/13/1 132/13/1
f 134/13/1 131/13/1 130/13/1
f 134/12/1 130/12/1 133/12/1
f 135/12/1 123/12/1 131/12/1
f 135/13/1 131/13/1 134/13/1
f 136/12/1 123/12/1 135/12/1
f 139/2/1 138/2/1 137/2/1
f 140/2/1 138/2/1 139/2/1
f 143/8/1 142/8/1 141/8/1
f 144/8/1 142/8/1 143/8/1
f 149/2/1 146/2/1 145/2/1
f 150/2/1 146/2/1 149/2/1
f 151/2/1 148/2/1 147/2/1
f 152/2/1 148/2/1 151/2/1
f 155/2/1 154/2/1 153/2/1
f 156/2/1 154/2/1 155/2/1
f 160/1/1 158/1/1 157/1/1
f 161/1/1 158/1/1 160/1/1
f 163/2/1 160/2/1 159/2/1
f 164/2/1 160/2/1 163/2/1
f 165/2/1 162/2/1 161/2/1
f 166/2/1 162/2/1 165/2/1
f 169/2/1 168/2/1 167/2/1
f 170/2/1 169/2/1 167/2/1
f 171/2/1 170/2/1 167/2/1
f 172/2/1 170/2/1 171/2/1
f 175/3/1 174/3/1 173/3/1
f 176/3/1 174/3/1 175/3/1
f 179/5/1 178/5/1 177/5/1
f 180/5/1 178/5/1 179/5/1
f 183/1/1 182/1/1 181/1/1
f 184/1/1 182/1/1 183/1/1
f 189/8/1 186/8/1 185/8/1
f 190/2/1 188/2/1 187/2/1
f 191/2/1 188/2/1 190/2/1
f 192/8/1 186/8/1 189/8/1
f 193/8/1 186/8/1 192/8/1
f 196/5/1 195/5/1 194/5/1
f 197/5/1 195/5/1 196/5/1
f 200/2/1 199/2/1 198/2/1
f 201/2/1 199/2/1 200/2/1
f 204/2/1 203/2/1 202/2/1
f 205/2/1 203/2/1 204/2/1
f 208/3/1 207/3/1 206/3/1
f 209/3/1 207/3/1 208/3/1
f 212/15/1 211/15/1 210/15/1
f 214/15/1 212/15/1 210/15/1
f 214/10/1 213/10/1 212/10/1
f 215/10/1 213/10/1 214/10/1
f 216/15/1 214/15/1 210/15/1
f 217/15/1 214/15/1 216/15/1
f 221/15/1 219/15/1 218/15/1
f 223/15/1 221/15/1 220/15/1
f 224/15/1 221/15/1 223/15/1
f 225/15/1 219/15/1 221/15/1
f 225/15/1 221/15/1 224/15/1
f 226/15/1 224/15/1 223/15/1
f 226/15/1 223/15/1 222/15/1
f 227/15/1 224/15/1 226/15/1
f 228/15/1 226/15/1 222/15/1
f 230/15/1 228/15/1 222/15/1
f 230/15/1 229/15/1 228/15/1
f 231/15/1 229/15/1 230/15/1
f 232/15/1 229/15/1 231/15/1
f 236/15/1 232/15/1 231/15/1
f 236/15/1 235/15/1 234/15/1
f 236/15/1 234/15/1 233/15/1
f 236/15/1 233/15/1 232/15/1
f 237/15/1 235/15/1 236/15/1
f 238/15/1 235/15/1 237/15/1
f 239/15/1 235/15/1 238/15/1
f 242/15/1 241/15/1 240/15/1
f 243/15/1 241/15/1 242/15/1
f 244/15/2 245/15/2 246/15/2
f 244/15/2 246/15/2 248/15/2
f 246/10/2 247/10/2 248/10/2
f 248/10/2 247/10/2 249/10/2
f 244/15/2 248/15/2 250/15/2
f 250/15/2 248/15/2 251/15/2
f 252/15/2 253/15/2 255/15/2
f 254/15/2 255/15/2 257/15/2
f 257/15/2 255/15/2 258/15/2
f 255/15/2 253/15/2 259/15/2
f 258/15/2 255/15/2 259/15/2
f 257/15/2 258/15/2 260/15/2
f 256/15/2 257/15/2 260/15/2
f 260/15/2 258/15/2 261/15/2
f 256/15/2 260/15/2 262/15/2
f 256/15/2 262/15/2 264/15/2
f 262/15/2 263/15/2 264/15/2
f 264/15/2 263/15/2 265/15/2
f 265/15/2 263/15/2 266/15/2
f 265/15/2 266/15/2 270/15/2
f 268/15/2 269/15/2 270/15/2
f 267/15/2 268/15/2 270/15/2
f 266/15/2 267/15/2 270/15/2
f 270/15/2 269/15/2 271/15/2
f 271/15/2 269/15/2 272/15/2
f 272/15/2 269/15/2 273/15/2
f 274/15/2 275/15/2 276/15/2
f 276/15/2 275/15/2 277/15/2
f 278/8/2 279/8/2 280/8/2
f 280/8/2 279/8/2 281/8/2
f 282/1/2 283/1/2 285/1/2
f 285/1/2 283/1/2 286/1/2
f 284/2/2 285/2/2 288/2/2
f 288/2/2 285/2/2 289/2/2
f 286/2/2 287/2/2 290/2/2
f 290/2/2 287/2/2 291/2/2
f 292/2/2 293/2/2 296/2/2
f 296/2/2 293/2/2 297/2/2
f 294/2/2 295/2/2 298/2/2
f 298/2/2 295/2/2 299/2/2
f 300/2/2 301/2/2 302/2/2
f 302/2/2 301/2/2 303/2/2
f 304/2/2 305/2/2 306/2/2
f 306/2/2 305/2/2 307/2/2
f 308/1/2 309/1/2 310/1/2
f 310/1/2 309/1/2 311/1/2
f 310/3/2 311/3/2 312/3/2
f 312/3/2 311/3/2 313/3/2
f 314/4/2 315/4/2 316/4/2
f 316/4/2 315/4/2 317/4/2
f 316/5/2 317/5/2 318/5/2
f 318/5/2 317/5/2 319/5/2
f 322/8/2 323/8/2 324/8/2
f 320/2/2 321/2/2 325/2/2
f 325/2/2 321/2/2 326/2/2
f 324/8/2 323/8/2 327/8/2
f 327/8/2 323/8/2 328/8/2
f 329/2/2 330/2/2 331/2/2
f 331/2/2 330/2/2 332/2/2
f 333/2/2 334/2/2 335/2/2
f 335/2/2 334/2/2 336/2/2
f 337/1/2 338/1/2 339/1/2
f 339/1/2 338/1/2 340/1/2
f 341/2/2 342/2/2 343/2/2
f 341/2/2 343/2/2 344/2/2
f 341/2/2 344/2/2 345/2/2
f 345/2/2 344/2/2 346/2/2
f 347/6/2 348/6/2 350/6/2
f 348/5/2 349/5/2 351/5/2
f 350/6/2 348/6/2 351/6/2
f 351/5/2 349/5/2 352/5/2
f 353/1/2 354/1/2 356/1/2
f 354/3/2 355/3/2 357/3/2
f 356/1/2 354/1/2 357/1/2
f 357/3/2 355/3/2 358/3/2
f 361/13/2 362/13/2 365/13/2
f 362/12/2 363/12/2 366/12/2
f 365/13/2 362/13/2 366/13/2
f 363/13/2 364/13/2 367/13/2
f 366/12/2 363/12/2 367/12/2
f 367/13/2 364/13/2 368/13/2
f 365/15/2 366/15/2 369/15/2
f 366/15/2 367/15/2 369/15/2
f 367/15/2 368/15/2 369/15/2
f 369/15/2 368/15/2 370/15/2
f 365/15/2 369/15/2 371/15/2
f 369/1/2 370/1/2 371/1/2
f 370/15/2 368/15/2 372/15/2
f 371/1/2 370/1/2 372/1/2
f 368/13/2 364/13/2 373/13/2
f 372/15/2 368/15/2 373/15/2
f 371/15/2 372/15/2 373/15/2
f 373/13/2 364/13/2 374/13/2
f 365/15/2 371/15/2 375/15/2
f 371/15/2 373/15/2 375/15/2
f 375/15/2 373/15/2 376/15/2
f 365/15/2 375/15/2 377/15/2
f 375/10/2 376/10/2 377/10/2
f 376/15/2 373/15/2 378/15/2
f 377/10/2 376/10/2 378/10/2
f 373/12/2 374/12/2 379/12/2
f 378/15/2 373/15/2 379/15/2
f 377/15/2 378/15/2 379/15/2
f 379/12/2 374/12/2 380/12/2
f 359/10/2 360/10/2 381/10/2
f 381/10/2 360/10/2 382/10/2
f 365/15/2 377/15/2 383/15/2
f 377/15/2 379/15/2 383/15/2
f 383/15/2 379/15/2 384/15/2
f 365/15/2 383/15/2 385/15/2
f 383/10/2 384/10/2 385/10/2
f 384/15/2 379/15/2 386/15/2
f 385/10/2 384/10/2 386/10/2
f 365/15/2 385/15/2 387/15/2
f 385/15/2 386/15/2 387/15/2
f 386/15/2 379/15/2 388/15/2
f 387/15/2 386/15/2 388/15/2
f 365/15/2 387/15/2 389/15/2
f 387/10/2 388/10/2 389/10/2
f 388/15/2 379/15/2 390/15/2
f 389/10/2 388/10/2 390/10/2
f 379/13/2 380/13/2 391/13/2
f 390/15/2 379/15/2 391/15/2
f 389/15/2 390/15/2 391/15/2
f 391/13/2 380/13/2 392/13/2
f 389/15/2 391/15/2 393/15/2
f 391/12/2 392/12/2 393/12/2
f 393/12/2 392/12/2 394/12/2
f 389/15/2 393/15/2 395/15/2
f 393/13/2 394/13/2 395/13/2
f 395/13/2 394/13/2 396/13/2
f 389/15/2 395/15/2 397/15/2
f 395/12/2 396/12/2 397/12/2
f 397/12/2 396/12/2 398/12/2
f 389/15/2 397/15/2 399/15/2
f 397/13/2 398/13/2 399/13/2
f 399/13/2 398/13/2 400/13/2
f 389/15/2 399/15/2 401/15/2
f 401/15/2 399/15/2 402/15/2
f 389/15/2 401/15/2 403/15/2
f 401/11/2 402/11/2 403/11/2
f 402/15/2 399/15/2 404/15/2
f 403/11/2 402/11/2 404/11/2
f 365/15/2 389/15/2 407/15/2
f 389/15/2 403/15/2 407/15/2
f 403/15/2 404/15/2 407/15/2
f 399/12/2 400/12/2 408/12/2
f 404/15/2 399/15/2 408/15/2
f 407/15/2 404/15/2 408/15/2
f 405/12/2 406/12/2 409/12/2
f 406/13/2 407/13/2 410/13/2
f 409/12/2 406/12/2 410/12/2
f 407/13/2 408/13/2 410/13/2
f 408/12/2 400/12/2 411/12/2
f 410/13/2 408/13/2 411/13/2
f 411/12/2 400/12/2 412/12/2
f 413/15/2 414/15/2 418/15/2
f 414/8/2 415/8/2 419/8/2
f 418/15/2 414/15/2 419/15/2
f 419/8/2 415/8/2 420/8/2
f 416/8/2 417/8/2 422/8/2
f 421/15/2 422/15/2 424/15/2
f 423/15/2 424/15/2 426/15/2
f 426/15/2 424/15/2 427/15/2
f 427/15/2 424/15/2 428/15/2
f 424/15/2 422/15/2 429/15/2
f 428/15/2 424/15/2 429/15/2
f 429/15/2 422/15/2 430/15/2
f 430/15/2 422/15/2 431/15/2
f 431/15/2 422/15/2 432/15/2
f 427/11/2 428/11/2 433/11/2
f 425/15/2 426/15/2 433/15/2
f 426/15/2 427/15/2 433/15/2
f 428/15/2 429/15/2 434/15/2
f 433/11/2 428/11/2 434/11/2
f 429/11/2 430/11/2 435/11/2
f 434/15/2 429/15/2 435/15/2
f 430/15/2 431/15/2 436/15/2
f 435/11/2 430/11/2 436/11/2
f 431/11/2 432/11/2 437/11/2
f 436/15/2 431/15/2 437/15/2
f 432/15/2 422/15/2 438/15/2
f 437/11/2 432/11/2 438/11/2
f 422/8/2 417/8/2 439/8/2
f 439/8/2 417/8/2 440/8/2
f 440/8/2 417/8/2 441/8/2
f 436/15/2 437/15/2 442/15/2
f 435/15/2 436/15/2 442/15/2
f 434/15/2 435/15/2 442/15/2
f 425/15/2 433/15/2 442/15/2
f 433/15/2 434/15/2 442/15/2
f 437/15/2 438/15/2 442/15/2
f 442/15/2 438/15/2 443/15/2
f 443/15/2 438/15/2 444/15/2
f 444/15/2 438/15/2 445/15/2
f 445/15/2 438/15/2 446/15/2
f 438/15/2 422/15/2 447/15/2
f 446/15/2 438/15/2 447/15/2
f 439/12/2 440/12/2 448/12/2
f 422/8/2 439/8/2 448/8/2
f 440/14/2 441/14/2 449/14/2
f 448/12/2 440/12/2 449/12/2
f 441/8/2 417/8/2 450/8/2
f 449/14/2 441/14/2 450/14/2
f 425/15/2 442/15/2 451/15/2
f 451/15/2 442/15/2 452/15/2
f 442/11/2 443/11/2 453/11/2
f 452/15/2 442/15/2 453/15/2
f 443/15/2 444/15/2 454/15/2
f 453/11/2 443/11/2 454/11/2
f 444/11/2 445/11/2 455/11/2
f 454/15/2 444/15/2 455/15/2
f 445/15/2 446/15/2 456/15/2
f 455/11/2 445/11/2 456/11/2
f 446/11/2 447/11/2 457/11/2
f 456/15/2 446/15/2 457/15/2
f 447/15/2 422/15/2 458/15/2
f 457/11/2 447/11/2 458/11/2
f 454/15/2 455/15/2 459/15/2
f 456/15/2 457/15/2 459/15/2
f 457/15/2 458/15/2 459/15/2
f 455/15/2 456/15/2 459/15/2
f 453/15/2 454/15/2 459/15/2
f 452/15/2 453/15/2 459/15/2
f 459/15/2 458/15/2 460/15/2
f 448/8/2 449/8/2 461/8/2
f 422/8/2 448/8/2 461/8/2
f 449/8/2 450/8/2 461/8/2
f 461/8/2 450/8/2 462/8/2
f 450/8/2 417/8/2 463/8/2
f 462/8/2 450/8/2 463/8/2
f 461/12/2 462/12/2 464/12/2
f 422/8/2 461/8/2 464/8/2
f 462/14/2 463/14/2 465/14/2
f 464/12/2 462/12/2 465/12/2
f 463/8/2 417/8/2 466/8/2
f 465/14/2 463/14/2 466/14/2
f 464/8/2 465/8/2 467/8/2
f 422/8/2 464/8/2 467/8/2
f 465/8/2 466/8/2 467/8/2
f 467/8/2 466/8/2 468/8/2
f 466/8/2 417/8/2 469/8/2
f 468/8/2 466/8/2 469/8/2
f 467/12/2 468/12/2 470/12/2
f 422/8/2 467/8/2 470/8/2
f 468/14/2 469/14/2 471/14/2
f 470/12/2 468/12/2 471/12/2
f 469/8/2 417/8/2 472/8/2
f 471/14/2 469/14/2 472/14/2
f 470/8/2 471/8/2 473/8/2
f 422/8/2 470/8/2 473/8/2
f 471/8/2 472/8/2 473/8/2
f 473/8/2 472/8/2 474/8/2
f 472/8/2 417/8/2 475/8/2
f 474/8/2 472/8/2 475/8/2
f 473/12/2 474/12/2 476/12/2
f 422/8/2 473/8/2 476/8/2
f 474/14/2 475/14/2 477/14/2
f 476/12/2 474/12/2 477/12/2
f 475/8/2 417/8/2 478/8/2
f 477/14/2 475/14/2 478/14/2
f 476/8/2 477/8/2 479/8/2
f 422/8/2 476/8/2 479/8/2
f 477/8/2 478/8/2 479/8/2
f 479/8/2 478/8/2 480/8/2
f 478/8/2 417/8/2 481/8/2
f 480/8/2 478/8/2 481/8/2
f 479/12/2 480/12/2 482/12/2
f 422/8/2 479/8/2 482/8/2
f 480/14/2 481/14/2 483/14/2
f 482/12/2 480/12/2 483/12/2
f 481/8/2 417/8/2 484/8/2
f 483/14/2 481/14/2 484/14/2
f 460/15/2 458/15/2 485/15/2
f 485/15/2 458/15/2 486/15/2
f 458/15/2 422/15/2 487/15/2
f 486/15/2 458/15/2 487/15/2
f 482/8/2 483/8/2 487/8/2
f 422/8/2 482/8/2 487/8/2
f 483/8/2 484/8/2 487/8/2
f 484/8/2 417/8/2 488/8/2
f 487/8/2 484/8/2 488/8/2
f 485/11/2 486/11/2 489/11/2
f 460/15/2 485/15/2 489/15/2
f 486/15/2 487/15/2 490/15/2
f 489/11/2 486/11/2 490/11/2
f 460/15/2 489/15/2 491/15/2
f 489/15/2 490/15/2 491/15/2
f 490/15/2 487/15/2 492/15/2
f 491/15/2 490/15/2 492/15/2
f 460/15/2 491/15/2 493/15/2
f 491/11/2 492/11/2 493/11/2
f 492/15/2 487/15/2 494/15/2
f 493/11/2 492/11/2 494/11/2
f 460/15/2 493/15/2 495/15/2
f 493/15/2 494/15/2 495/15/2
f 494/15/2 487/15/2 496/15/2
f 495/15/2 494/15/2 496/15/2
f 460/15/2 495/15/2 497/15/2
f 495/11/2 496/11/2 497/11/2
f 496/15/2 487/15/2 498/15/2
f 497/11/2 496/11/2 498/11/2
f 460/15/2 497/15/2 499/15/2
f 497/15/2 498/15/2 499/15/2
f 498/15/2 487/15/2 500/15/2
f 499/15/2 498/15/2 500/15/2
f 503/15/3 502/15/3 501/15/3
f 504/15/3 502/15/3 503/15/3
f 505/15/3 502/15/3 504/15/3
f 506/13/3 504/13/3 503/13/3
f 507/12/3 505/12/3 504/12/3
f 507/13/3 504/13/3 506/13/3
f 508/12/3 505/12/3 507/12/3
f 509/15/3 507/15/3 506/15/3
f 509/15/3 508/15/3 507/15/3
f 510/15/3 508/15/3 509/15/3
f 513/15/3 512/15/3 511/15/3
f 514/15/3 512/15/3 513/15/3
f 515/15/3 512/15/3 514/15/3
f 516/15/3 512/15/3 515/15/3
f 517/13/3 514/13/3 513/13/3
f 518/12/3 515/12/3 514/12/3
f 518/13/3 514/13/3 517/13/3
f 519/13/3 516/13/3 515/13/3
f 519/12/3 515/12/3 518/12/3
f 520/13/3 516/13/3 519/13/3
f 521/15/3 518/15/3 517/15/3
f 521/15/3 519/15/3 518/15/3
f 521/15/3 520/15/3 519/15/3
f 522/15/3 520/15/3 521/15/3
f 527/15/3 524/15/3 523/15/3
f 528/15/3 524/15/3 527/15/3
f 529/15/3 526/15/3 525/15/3
f 530/15/3 526/15/3 529/15/3
f 531/13/3 528/13/3 527/13/3
f 532/13/3 528/13/3 531/13/3
f 533/13/3 530/13/3 529/13/3
f 534/13/3 530/13/3 533/13/3
f 535/15/3 532/15/3 531/15/3
f 536/15/3 532/15/3 535/15/3
f 539/15/3 534/15/3 533/15/3
f 540/15/3 534/15/3 539/15/3
f 543/9/3 538/9/3 537/9/3
f 544/9/3 538/9/3 543/9/3
f 547/15/3 542/15/3 541/15/3
f 548/15/3 542/15/3 547/15/3
f 549/15/3 546/15/3 545/15/3
f 550/15/3 546/15/3 549/15/3
f 551/13/3 548/13/3 547/13/3
f 552/13/3 548/13/3 551/13/3
f 553/13/3 550/13/3 549/13/3
f 554/13/3 550/13/3 553/13/3
f 555/15/3 552/15/3 551/15/3
f 556/15/3 552/15/3 555/15/3
f 557/15/3 554/15/3 553/15/3
f 558/15/3 554/15/3 557/15/3
f 563/8/3 560/8/3 559/8/3
f 564/8/3 560/8/3 563/8/3
f 565/8/3 562/8/3 561/8/3
f 566/8/3 562/8/3 565/8/3
f 569/8/3 568/8/3 567/8/3
f 570/8/3 568/8/3 569/8/3
f 573/2/3 572/2/3 571/2/3
f 574/2/3 572/2/3 573/2/3
f 577/5/3 576/5/3 575/5/3
f 578/5/3 576/5/3 577/5/3
f 579/6/3 578/6/3 577/6/3
f 580/6/3 578/6/3 579/6/3
f 583/3/3 582/3/3 581/3/3
f 584/3/3 582/3/3 583/3/3
f 585/1/3 584/1/3 583/1/3
f 586/1/3 584/1/3 585/1/3
f 589/2/3 588/2/3 587/2/3
f 590/2/3 588/2/3 589/2/3
f 593/2/3 592/2/3 591/2/3
f 594/2/3 592/2/3 593/2/3
f 597/2/3 596/2/3 595/2/3
f 598/2/3 596/2/3 597/2/3
f 602/2/3 600/2/3 599/2/3
f 603/2/3 600/2/3 602/2/3
f 604/1/3 602/1/3 601/1/3
f 605/1/3 602/1/3 604/1/3
f 607/2/3 606/2/3 605/2/3
f 608/2/3 606/2/3 607/2/3
f 613/3/3 610/3/3 609/3/3
f 614/3/3 610/3/3 613/3/3
f 615/5/3 612/5/3 611/5/3
f 616/5/3 612/5/3 615/5/3
f 617/1/3 614/1/3 613/1/3
f 618/3/3 610/3/3 614/3/3
f 618/1/3 614/1/3 617/1/3
f 619/3/3 610/3/3 618/3/3
f 620/4/3 616/4/3 615/4/3
f 621/5/3 612/5/3 616/5/3
f 621/4/3 616/4/3 620/4/3
f 622/5/3 612/5/3 621/5/3
f 629/15/3 624/15/3 623/15/3
f 630/15/3 624/15/3 629/15/3
f 631/15/3 624/15/3 630/15/3
f 632/15/3 624/15/3 631/15/3
f 633/15/3 626/15/3 625/15/3
f 634/15/3 626/15/3 633/15/3
f 635/15/3 626/15/3 634/15/3
f 636/15/3 628/15/3 627/15/3
f 637/15/3 628/15/3 636/15/3
f 638/15/3 628/15/3 637/15/3
f 639/15/3 628/15/3 638/15/3
f 640/15/3 628/15/3 639/15/3
f 641/15/3 628/15/3 640/15/3
f 642/12/3 630/12/3 629/12/3
f 643/13/3 631/13/3 630/13/3
f 643/12/3 630/12/3 642/12/3
f 644/12/3 632/12/3 631/12/3
f 644/13/3 631/13/3 643/13/3
f 645/12/3 632/12/3 644/12/3
f 646/13/3 634/13/3 633/13/3
f 647/12/3 635/12/3 634/12/3
f 647/13/3 634/13/3 646/13/3
f 648/12/3 635/12/3 647/12/3
f 649/12/3 637/12/3 636/12/3
f 650/13/3 638/13/3 637/13/3
f 650/12/3 637/12/3 649/12/3
f 651/12/3 639/12/3 638/12/3
f 651/13/3 638/13/3 650/13/3
f 652/13/3 640/13/3 639/13/3
f 652/12/3 639/12/3 651/12/3
f 653/12/3 641/12/3 640/12/3
f 653/13/3 640/13/3 652/13/3
f 654/12/3 641/12/3 653/12/3
f 655/15/3 643/15/3 642/15/3
f 655/15/3 645/15/3 644/15/3
f 655/15/3 644/15/3 643/15/3
f 656/15/3 645/15/3 655/15/3
f 657/15/3 648/15/3 647/15/3
f 657/15/3 647/15/3 646/15/3
f 658/15/3 648/15/3 657/15/3
f 659/15/3 654/15/3 653/15/3
f 659/15/3 650/15/3 649/15/3
f 659/15/3 651/15/3 650/15/3
f 659/15/3 652/15/3 651/15/3
f 659/15/3 653/15/3 652/15/3
f 660/15/3 654/15/3 659/15/3
f 661/15/3 654/15/3 660/15/3
f 662/15/3 654/15/3 661/15/3
f 663/15/3 654/15/3 662/15/3
f 664/12/3 662/12/3 661/12/3
f 665/12/3 662/12/3 664/12/3
f 668/2/3 667/2/3 666/2/3
f 669/2/3 667/2/3 668/2/3
f 670/2/3 667/2/3 669/2/3
f 671/2/3 667/2/3 670/2/3
f 672/2/3 668/2/3 666/2/3
f 673/2/3 670/2/3 669/2/3
f 674/2/3 672/2/3 666/2/3
f 676/2/3 673/2/3 669/2/3
f 677/2/3 673/2/3 676/2/3
f 679/2/3 667/2/3 671/2/3
f 680/2/3 678/2/3 677/2/3
f 680/2/3 679/2/3 678/2/3
f 680/2/3 677/2/3 676/2/3
f 680/2/3 675/2/3 674/2/3
f 680/2/3 676/2/3 675/2/3
f 680/2/3 674/2/3 666/2/3
f 681/2/3 679/2/3 680/2/3
f 682/2/3 679/2/3 681/2/3
f 683/2/3 667/2/3 679/2/3
f 683/2/3 679/2/3 682/2/3
f 686/2/3 682/2/3 681/2/3
f 687/2/3 682/2/3 686/2/3
f 688/2/3 680/2/3 666/2/3
f 689/2/3 685/2/3 684/2/3
f 690/2/3 685/2/3 689/2/3
f 691/2/3 667/2/3 683/2/3
f 692/2/3 688/2/3 666/2/3
f 692/2/3 691/2/3 690/2/3
f 692/2/3 690/2/3 689/2/3
f 692/2/3 689/2/3 688/2/3
f 693/2/3 667/2/3 691/2/3
f 693/2/3 691/2/3 692/2/3
f 694/12/3 664/12/3 661/12/3
f 694/13/3 665/13/3 664/13/3
f 695/12/3 662/12/3 665/12/3
f 695/13/3 665/13/3 694/13/3
f 701/9/3 661/9/3 660/9/3
f 702/12/3 694/12/3 661/12/3
f 702/12/3 695/12/3 694/12/3
f 702/9/3 661/9/3 701/9/3
f 703/9/3 663/9/3 662/9/3
f 703/12/3 695/12/3 702/12/3
f 703/12/3 662/12/3 695/12/3
f 704/9/3 663/9/3 703/9/3
f 705/15/3 697/15/3 696/15/3
f 706/15/3 697/15/3 705/15/3
f 707/15/3 697/15/3 706/15/3
f 708/15/3 699/15/3 698/15/3
f 709/15/3 699/15/3 708/15/3
f 710/15/3 702/15/3 701/15/3
f 710/15/3 701/15/3 700/15/3
f 710/15/3 703/15/3 702/15/3
f 710/15/3 704/15/3 703/15/3
f 711/15/3 704/15/3 710/15/3
f 712/15/3 704/15/3 711/15/3
f 713/15/3 704/15/3 712/15/3
f 714/15/3 704/15/3 713/15/3
f 715/13/3 706/13/3 705/13/3
f 716/12/3 707/12/3 706/12/3
f 716/13/3 706/13/3 715/13/3
f 717/12/3 707/12/3 716/12/3
f 718/13/3 709/13/3 708/13/3
f 719/13/3 709/13/3 718/13/3
f 720/12/3 711/12/3 710/12/3
f 721/13/3 712/13/3 711/13/3
f 721/12/3 711/12/3 720/12/3
f 722/12/3 713/12/3 712/12/3
f 722/13/3 712/13/3 721/13/3
f 723/13/3 714/13/3 713/13/3
f 723/12/3 713/12/3 722/12/3
f 724/13/3 714/13/3 723/13/3
f 725/15/3 717/15/3 716/15/3
f 725/15/3 716/15/3 715/15/3
f 726/15/3 717/15/3 725/15/3
f 727/15/3 719/15/3 718/15/3
f 728/15/3 719/15/3 727/15/3
f 729/15/3 721/15/3 720/15/3
f 729/15/3 722/15/3 721/15/3
f 729/15/3 724/15/3 723/15/3
f 729/15/3 723/15/3 722/15/3
f 730/15/3 724/15/3 729/15/3
f 739/8/3 732/8/3 731/8/3
f 740/8/3 732/8/3 739/8/3
f 741/8/3 734/8/3 733/8/3
f 742/8/3 734/8/3 741/8/3
f 743/8/3 734/8/3 742/8/3
f 744/8/3 734/8/3 743/8/3
f 745/15/3 736/15/3 735/15/3
f 746/15/3 736/15/3 745/15/3
f 747/2/3 740/2/3 739/2/3
f 747/8/3 739/8/3 731/8/3
f 748/2/3 740/2/3 747/2/3
f 749/2/3 742/2/3 741/2/3
f 750/8/3 743/8/3 742/8/3
f 750/2/3 742/2/3 749/2/3
f 751/2/3 744/2/3 743/2/3
f 751/8/3 743/8/3 750/8/3
f 752/2/3 744/2/3 751/2/3
f 753/2/3 746/2/3 745/2/3
f 754/15/3 736/15/3 746/15/3
f 754/2/3 746/2/3 753/2/3
f 755/8/3 738/8/3 737/8/3
f 756/8/3 738/8/3 755/8/3
f 757/7/3 756/7/3 755/7/3
f 758/7/3 756/7/3 757/7/3
f 759/9/3 758/9/3 757/9/3
f 760/9/3 758/9/3 759/9/3
f 761/8/3 748/8/3 747/8/3
f 761/8/3 747/8/3 731/8/3
f 762/8/3 748/8/3 761/8/3
f 763/8/3 750/8/3 749/8/3
f 763/8/3 752/8/3 751/8/3
f 763/8/3 751/8/3 750/8/3
f 764/8/3 752/8/3 763/8/3
f 769/1/3 766/1/3 765/1/3
f 770/1/3 766/1/3 769/1/3
f 771/1/3 766/1/3 770/1/3
f 772/1/3 768/1/3 767/1/3
f 773/1/3 769/1/3 765/1/3
f 774/1/3 769/1/3 773/1/3
f 775/1/3 771/1/3 770/1/3
f 775/1/3 772/1/3 771/1/3
f 776/1/3 768/1/3 772/1/3
f 776/1/3 772/1/3 775/1/3
f 777/8/3 761/8/3 731/8/3
f 780/8/3 752/8/3 764/8/3
f 781/10/3 760/10/3 759/10/3
f 781/9/3 759/9/3 757/9/3
f 782/9/3 758/9/3 760/9/3
f 782/10/3 760/10/3 781/10/3
f 783/9/3 781/9/3 757/9/3
f 783/7/3 757/7/3 755/7/3
f 783/9/3 782/9/3 781/9/3
f 784/9/3 758/9/3 782/9/3
f 784/9/3 782/9/3 783/9/3
f 784/7/3 756/7/3 758/7/3
f 785/8/3 778/8/3 777/8/3
f 785/8/3 777/8/3 731/8/3
f 786/8/3 778/8/3 785/8/3
f 787/8/3 780/8/3 779/8/3
f 788/8/3 780/8/3 787/8/3
f 789/8/3 752/8/3 780/8/3
f 789/8/3 780/8/3 788/8/3
f 790/8/3 752/8/3 789/8/3
f 791/15/3 754/15/3 753/15/3
f 792/15/3 736/15/3 754/15/3
f 792/15/3 754/15/3 791/15/3
f 793/7/3 784/7/3 783/7/3
f 793/7/3 783/7/3 755/7/3
f 793/8/3 755/8/3 737/8/3
f 794/7/3 756/7/3 784/7/3
f 794/7/3 784/7/3 793/7/3
f 794/8/3 738/8/3 756/8/3
f 795/2/3 786/2/3 785/2/3
f 795/8/3 785/8/3 731/8/3
f 796/2/3 786/2/3 795/2/3
f 797/2/3 788/2/3 787/2/3
f 798/8/3 789/8/3 788/8/3
f 798/2/3 788/2/3 797/2/3
f 799/2/3 790/2/3 789/2/3
f 799/8/3 789/8/3 798/8/3
f 800/2/3 790/2/3 799/2/3
f 801/2/3 792/2/3 791/2/3
f 802/15/3 736/15/3 792/15/3
f 802/2/3 792/2/3 801/2/3
f 803/8/3 796/8/3 795/8/3
f 803/8/3 795/8/3 731/8/3
f 804/8/3 796/8/3 803/8/3
f 805/8/3 800/8/3 799/8/3
f 805/8/3 798/8/3 797/8/3
f 805/8/3 799/8/3 798/8/3
f 806/8/3 800/8/3 805/8/3
f 807/15/3 802/15/3 801/15/3
f 808/15/3 736/15/3 802/15/3
f 808/15/3 802/15/3 807/15/3
f 809/8/3 793/8/3 737/8/3
f 809/8/3 794/8/3 793/8/3
f 810/8/3 738/8/3 794/8/3
f 810/8/3 794/8/3 809/8/3
f 813/10/3 812/10/3 811/10/3
f 814/10/3 812/10/3 813/10/3
f 815/10/3 814/10/3 813/10/3
f 816/10/3 814/10/3 815/10/3
f 817/10/3 816/10/3 815/10/3
f 818/10/3 816/10/3 817/10/3
f 821/10/3 820/10/3 819/10/3
f 822/10/3 820/10/3 821/10/3
f 823/10/3 822/10/3 821/10/3
f 824/10/3 822/10/3 823/10/3
f 825/10/3 824/10/3 823/10/3
f 826/10/3 824/10/3 825/10/3
f 829/8/3 828/8/3 827/8/3
f 830/8/3 828/8/3 829/8/3
f 833/8/3 832/8/3 831/8/3
f 834/8/3 832/8/3 833/8/3
f 835/8/3 832/8/3 834/8/3
f 836/10/3 835/10/3 834/10/3
f 837/10/3 835/10/3 836/10/3
f 838/10/3 835/10/3 837/10/3
f 839/10/3 835/10/3 838/10/3
f 841/8/3 839/8/3 838/8/3
f 842/8/3 841/8/3 840/8/3
f 843/8/3 839/8/3 841/8/3
f 843/8/3 841/8/3 842/8/3
f 844/9/4 845/9/4 846/9/4
f 846/9/4 845/9/4 847/9/4
f 848/2/4 849/2/4 851/2/4
f 851/2/4 849/2/4 852/2/4
f 850/1/4 851/1/4 853/1/4
f 853/1/4 851/1/4 854/1/4
f 854/2/4 855/2/4 856/2/4
f 856/2/4 855/2/4 857/2/4
f 858/2/4 859/2/4 860/2/4
f 860/2/4 859/2/4 861/2/4
f 862/2/4 863/2/4 864/2/4
f 864/2/4 863/2/4 865/2/4
f 866/2/4 867/2/4 868/2/4
f 868/2/4 867/2/4 869/2/4
f 870/5/4 871/5/4 872/5/4
f 872/5/4 871/5/4 873/5/4
f 874/3/4 875/3/4 876/3/4
f 876/3/4 875/3/4 877/3/4
f 878/2/4 879/2/4 880/2/4
f 880/2/4 879/2/4 881/2/4
f 882/2/4 883/2/4 884/2/4
f 884/2/4 883/2/4 885/2/4
f 886/2/4 887/2/4 888/2/4
f 888/2/4 887/2/4 889/2/4
f 892/10/4 893/10/4 895/10/4
f 893/2/4 894/2/4 896/2/4
f 895/10/4 893/10/4 896/10/4
f 896/2/4 894/2/4 897/2/4
f 890/15/4 891/15/4 898/15/4
f 898/15/4 891/15/4 899/15/4
f 900/8/4 901/8/4 902/8/4
f 902/8/4 901/8/4 903/8/4
f 904/8/4 905/8/4 906/8/4
f 906/8/4 905/8/4 907/8/4
f 908/15/4 909/15/4 910/15/4
f 910/15/4 909/15/4 911/15/4
f 911/15/4 909/15/4 912/15/4
f 912/15/4 909/15/4 913/15/4
f 911/13/4 912/13/4 914/13/4
f 912/12/4 913/12/4 915/12/4
f 914/13/4 912/13/4 915/13/4
f 915/12/4 913/12/4 916/12/4
f 914/15/4 915/15/4 917/15/4
f 915/15/4 916/15/4 917/15/4
f 917/15/4 916/15/4 918/15/4
f 914/15/4 917/15/4 919/15/4
f 914/15/4 919/15/4 921/15/4
f 919/15/4 920/15/4 921/15/4
f 921/15/4 920/15/4 922/15/4
f 922/15/4 920/15/4 923/15/4
f 921/13/4 922/13/4 925/13/4
f 922/12/4 923/12/4 926/12/4
f 925/13/4 922/13/4 926/13/4
f 926/12/4 923/12/4 927/12/4
f 924/15/4 925/15/4 928/15/4
f 925/15/4 926/15/4 928/15/4
f 926/15/4 927/15/4 928/15/4
f 928/15/4 927/15/4 929/15/4
f 930/8/4 931/8/4 932/8/4
f 932/8/4 931/8/4 933/8/4
f 933/8/4 931/8/4 934/8/4
f 935/8/4 936/8/4 938/8/4
f 936/8/4 937/8/4 938/8/4
f 938/8/4 937/8/4 939/8/4
f 940/13/4 941/13/4 947/13/4
f 941/12/4 942/12/4 948/12/4
f 947/13/4 941/13/4 948/13/4
f 942/13/4 943/13/4 949/13/4
f 948/12/4 942/12/4 949/12/4
f 943/12/4 944/12/4 950/12/4
f 949/13/4 943/13/4 950/13/4
f 944/13/4 945/13/4 951/13/4
f 950/12/4 944/12/4 951/12/4
f 945/12/4 946/12/4 952/12/4
f 951/13/4 945/13/4 952/13/4
f 952/12/4 946/12/4 953/12/4
f 950/15/4 951/15/4 954/15/4
f 947/15/4 948/15/4 954/15/4
f 952/15/4 953/15/4 954/15/4
f 951/15/4 952/15/4 954/15/4
f 949/15/4 950/15/4 954/15/4
f 948/15/4 949/15/4 954/15/4
f 954/15/4 953/15/4 955/15/4
f 955/15/4 953/15/4 956/15/4
f 956/15/4 953/15/4 957/15/4
f 955/15/4 956/15/4 958/15/4
f 958/15/4 956/15/4 959/15/4
f 955/15/4 958/15/4 960/15/4
f 958/10/4 959/10/4 960/10/4
f 959/15/4 956/15/4 961/15/4
f 960/10/4 959/10/4 961/10/4
f 947/15/4 954/15/4 962/15/4
f 954/10/4 955/10/4 962/10/4
f 960/15/4 961/15/4 963/15/4
f 962/10/4 955/10/4 963/10/4
f 955/15/4 960/15/4 963/15/4
f 961/15/4 956/15/4 964/15/4
f 963/15/4 961/15/4 964/15/4
f 956/10/4 957/10/4 964/10/4
f 957/15/4 953/15/4 965/15/4
f 964/10/4 957/10/4 965/10/4
f 962/15/4 963/15/4 966/15/4
f 947/15/4 962/15/4 966/15/4
f 964/15/4 965/15/4 966/15/4
f 963/15/4 964/15/4 966/15/4
f 966/15/4 965/15/4 967/15/4
f 965/15/4 953/15/4 968/15/4
f 967/15/4 965/15/4 968/15/4
f 968/15/4 953/15/4 969/15/4
f 969/15/4 953/15/4 970/15/4
f 970/15/4 953/15/4 971/15/4
f 971/15/4 953/15/4 972/15/4
f 972/15/4 953/15/4 973/15/4
f 973/15/4 953/15/4 974/15/4
f 966/13/4 967/13/4 975/13/4
f 967/12/4 968/12/4 976/12/4
f 975/13/4 967/13/4 976/13/4
f 968/13/4 969/13/4 977/13/4
f 976/12/4 968/12/4 977/12/4
f 969/12/4 970/12/4 978/12/4
f 977/13/4 969/13/4 978/13/4
f 970/13/4 971/13/4 979/13/4
f 978/12/4 970/12/4 979/12/4
f 971/12/4 972/12/4 980/12/4
f 979/13/4 971/13/4 980/13/4
f 972/13/4 973/13/4 981/13/4
f 980/12/4 972/12/4 981/12/4
f 973/12/4 974/12/4 982/12/4
f 981/13/4 973/13/4 982/13/4
f 982/12/4 974/12/4 983/12/4
f 992/15/5 985/15/5 984/15/5
f 993/12/5 986/12/5 985/12/5
f 993/15/5 985/15/5 992/15/5
f 994/15/5 987/15/5 986/15/5
f 994/12/5 986/12/5 993/12/5
f 995/15/5 987/15/5 994/15/5
f 996/15/5 989/15/5 988/15/5
f 997/13/5 990/13/5 989/13/5
f 997/15/5 989/15/5 996/15/5
f 998/15/5 991/15/5 990/15/5
f 998/13/5 990/13/5 997/13/5
f 999/15/5 991/15/5 998/15/5
f 1000/8/5 993/8/5 992/8/5
f 1000/12/5 994/12/5 993/12/5
f 1001/8/5 997/8/5 996/8/5
f 1001/12/5 994/12/5 1000/12/5
f 1001/8/5 995/8/5 994/8/5
f 1001/8/5 996/8/5 995/8/5
f 1002/8/5 1000/8/5 992/8/5
f 1003/13/5 1001/13/5 1000/13/5
f 1003/8/5 1000/8/5 1002/8/5
f 1004/8/5 997/8/5 1001/8/5
f 1004/13/5 1001/13/5 1003/13/5
f 1005/12/5 998/12/5 997/12/5
f 1005/8/5 997/8/5 1004/8/5
f 1006/8/5 999/8/5 998/8/5
f 1006/12/5 998/12/5 1005/12/5
f 1007/8/5 999/8/5 1006/8/5
f 1009/10/5 1004/10/5 1003/10/5
f 1009/10/5 1006/10/5 1005/10/5
f 1009/10/5 1005/10/5 1004/10/5
f 1010/10/5 1006/10/5 1009/10/5
f 1011/10/5 1006/10/5 1010/10/5
f 1012/10/5 1006/10/5 1011/10/5
f 1014/8/5 1011/8/5 1010/8/5
f 1014/12/5 1012/12/5 1011/12/5
f 1015/8/5 1013/8/5 1012/8/5
f 1015/12/5 1012/12/5 1014/12/5
f 1016/8/5 1009/8/5 1008/8/5
f 1016/13/5 1010/13/5 1009/13/5
f 1017/8/5 1014/8/5 1010/8/5
f 1017/13/5 1010/13/5 1016/13/5
f 1018/8/5 1016/8/5 1008/8/5
f 1019/12/5 1017/12/5 1016/12/5
f 1019/8/5 1016/8/5 1018/8/5
f 1020/8/5 1014/8/5 1017/8/5
f 1020/12/5 1017/12/5 1019/12/5
f 1021/13/5 1015/13/5 1014/13/5
f 1021/8/5 1014/8/5 1020/8/5
f 1022/8/5 1013/8/5 1015/8/5
f 1022/13/5 1015/13/5 1021/13/5
f 1023/8/5 1013/8/5 1022/8/5
f 1024/15/5 1021/15/5 1020/15/5
f 1024/13/5 1022/13/5 1021/13/5
f 1025/13/5 1022/13/5 1024/13/5
f 1026/12/5 1020/12/5 1019/12/5
f 1027/15/5 1024/15/5 1020/15/5
f 1027/12/5 1020/12/5 1026/12/5
f 1028/12/5 1025/12/5 1024/12/5
f 1028/15/5 1024/15/5 1027/15/5
f 1029/12/5 1025/12/5 1028/12/5
f 1030/13/5 1027/13/5 1026/13/5
f 1031/15/5 1028/15/5 1027/15/5
f 1031/13/5 1027/13/5 1030/13/5
f 1032/13/5 1029/13/5 1028/13/5
f 1032/15/5 1028/15/5 1031/15/5
f 1033/13/5 1029/13/5 1032/13/5
f 1036/2/5 1035/2/5 1034/2/5
f 1037/2/5 1035/2/5 1036/2/5
f 1041/3/5 1039/3/5 1038/3/5
f 1042/1/5 1040/1/5 1039/1/5
f 1042/3/5 1039/3/5 1041/3/5
f 1043/1/5 1040/1/5 1042/1/5
f 1051/2/5 1045/2/5 1044/2/5
f 1052/2/5 1045/2/5 1051/2/5
f 1057/8/5 1047/8/5 1046/8/5
f 1058/2/5 1048/2/5 1047/2/5
f 1058/8/5 1047/8/5 1057/8/5
f 1059/8/5 1050/8/5 1049/8/5
f 1059/2/5 1048/2/5 1058/2/5
f 1059/8/5 1049/8/5 1048/8/5
f 1060/8/5 1050/8/5 1059/8/5
f 1061/8/5 1054/8/5 1053/8/5
f 1061/8/5 1053/8/5 1052/8/5
f 1062/2/5 1055/2/5 1054/2/5
f 1062/8/5 1054/8/5 1061/8/5
f 1063/8/5 1056/8/5 1055/8/5
f 1063/2/5 1055/2/5 1062/2/5
f 1064/8/5 1056/8/5 1063/8/5
f 1068/5/5 1066/5/5 1065/5/5
f 1069/4/5 1067/4/5 1066/4/5
f 1069/5/5 1066/5/5 1068/5/5
f 1070/4/5 1067/4/5 1069/4/5
f 1073/2/5 1072/2/5 1071/2/5
f 1074/2/5 1072/2/5 1073/2/5
f 1077/8/5 1076/8/5 1075/8/5
f 1078/8/5 1076/8/5 1077/8/5
f 1081/2/5 1080/2/5 1079/2/5
f 1082/2/5 1080/2/5 1081/2/5
f 1091/15/5 1084/15/5 1083/15/5
f 1091/13/5 1085/13/5 1084/13/5
f 1092/15/5 1086/15/5 1085/15/5
f 1092/13/5 1085/13/5 1091/13/5
f 1093/15/5 1086/15/5 1092/15/5
f 1098/15/5 1088/15/5 1087/15/5
f 1099/13/5 1089/13/5 1088/13/5
f 1099/15/5 1088/15/5 1098/15/5
f 1100/15/5 1090/15/5 1089/15/5
f 1100/13/5 1089/13/5 1099/13/5
f 1101/15/5 1092/15/5 1091/15/5
f 1101/15/5 1093/15/5 1092/15/5
f 1101/15/5 1094/15/5 1093/15/5
f 1101/2/5 1095/2/5 1094/2/5
f 1102/15/5 1096/15/5 1095/15/5
f 1102/2/5 1095/2/5 1101/2/5
f 1103/2/5 1097/2/5 1096/2/5
f 1103/15/5 1096/15/5 1102/15/5
f 1104/15/5 1099/15/5 1098/15/5
f 1104/2/5 1097/2/5 1103/2/5
f 1104/15/5 1098/15/5 1097/15/5
f 1104/15/5 1100/15/5 1099/15/5
f 1105/15/5 1103/15/5 1102/15/5
f 1105/15/5 1101/15/5 1091/15/5
f 1105/15/5 1104/15/5 1103/15/5
f 1105/15/5 1091/15/5 1083/15/5
f 1105/15/5 1102/15/5 1101/15/5
f 1106/15/5 1104/15/5 1105/15/5
f 1107/15/5 1100/15/5 1104/15/5
f 1107/15/5 1104/15/5 1106/15/5
f 1108/15/5 1090/15/5 1100/15/5
f 1108/15/5 1100/15/5 1107/15/5
f 1117/15/5 1110/15/5 1109/15/5
f 1117/13/5 1111/13/5 1110/13/5
f 1118/15/5 1112/15/5 1111/15/5
f 1118/13/5 1111/13/5 1117/13/5
f 1119/13/5 1115/13/5 1114/13/5
f 1119/15/5 1114/15/5 1113/15/5
f 1120/15/5 1116/15/5 1115/15/5
f 1120/13/5 1115/13/5 1119/13/5
f 1121/15/5 1119/15/5 1113/15/5
f 1121/12/5 1120/12/5 1119/12/5
f 1122/15/5 1116/15/5 1120/15/5
f 1122/12/5 1120/12/5 1121/12/5
f 1123/15/5 1117/15/5 1109/15/5
f 1123/12/5 1118/12/5 1117/12/5
f 1124/15/5 1112/15/5 1118/15/5
f 1124/12/5 1118/12/5 1123/12/5
f 1125/15/5 1123/15/5 1109/15/5
f 1125/13/5 1124/13/5 1123/13/5
f 1126/15/5 1112/15/5 1124/15/5
f 1126/13/5 1124/13/5 1125/13/5
f 1127/15/5 1121/15/5 1113/15/5
f 1127/13/5 1122/13/5 1121/13/5
f 1128/15/5 1116/15/5 1122/15/5
f 1128/13/5 1122/13/5 1127/13/5
f 1129/15/5 1125/15/5 1109/15/5
f 1130/12/5 1126/12/5 1125/12/5
f 1130/15/5 1125/15/5 1129/15/5
f 1131/15/5 1112/15/5 1126/15/5
f 1131/12/5 1126/12/5 1130/12/5
f 1132/15/5 1112/15/5 1131/15/5
f 1133/15/5 1127/15/5 1113/15/5
f 1134/12/5 1128/12/5 1127/12/5
f 1134/15/5 1127/15/5 1133/15/5
f 1135/15/5 1116/15/5 1128/15/5
f 1135/12/5 1128/12/5 1134/12/5
f 1136/15/5 1116/15/5 1135/15/5
f 1145/15/5 1138/15/5 1137/15/5
f 1146/13/5 1139/13/5 1138/13/5
f 1146/15/5 1138/15/5 1145/15/5
f 1147/15/5 1140/15/5 1139/15/5
f 1147/13/5 1139/13/5 1146/13/5
f 1148/15/5 1140/15/5 1147/15/5
f 1149/15/5 1142/15/5 1141/15/5
f 1150/13/5 1143/13/5 1142/13/5
f 1150/15/5 1142/15/5 1149/15/5
f 1151/15/5 1144/15/5 1143/15/5
f 1151/13/5 1143/13/5 1150/13/5
f 1152/15/5 1144/15/5 1151/15/5
f 1155/8/5 1154/8/5 1153/8/5
f 1156/8/5 1154/8/5 1155/8/5
f 1159/9/5 1158/9/5 1157/9/5
f 1160/9/5 1158/9/5 1159/9/5
f 1163/8/5 1162/8/5 1161/8/5
f 1164/8/5 1162/8/5 1163/8/5
f 1168/2/5 1166/2/5 1165/2/5
f 1169/2/5 1166/2/5 1168/2/5
f 1171/2/5 1168/2/5 1167/2/5
f 1172/2/5 1168/2/5 1171/2/5
f 1173/2/5 1170/2/5 1169/2/5
f 1174/2/5 1170/2/5 1173/2/5
f 1175/2/5 1173/2/5 1172/2/5
f 1176/2/5 1173/2/5 1175/2/5
f 1179/9/5 1178/9/5 1177/9/5
f 1180/9/5 1178/9/5 1179/9/5
f 1181/2/6 1182/2/6 1187/2/6
f 1187/2/6 1182/2/6 1188/2/6
f 1183/8/6 1184/8/6 1193/8/6
f 1184/2/6 1185/2/6 1194/2/6
f 1193/8/6 1184/8/6 1194/8/6
f 1185/8/6 1186/8/6 1195/8/6
f 1194/2/6 1185/2/6 1195/2/6
f 1186/8/6 1187/8/6 1195/8/6
f 1195/8/6 1187/8/6 1196/8/6
f 1189/8/6 1190/8/6 1197/8/6
f 1188/8/6 1189/8/6 1197/8/6
f 1190/2/6 1191/2/6 1198/2/6
f 1197/8/6 1190/8/6 1198/8/6
f 1191/8/6 1192/8/6 1199/8/6
f 1198/2/6 1191/2/6 1199/2/6
f 1199/8/6 1192/8/6 1200/8/6
f 1201/8/6 1202/8/6 1203/8/6
f 1203/8/6 1202/8/6 1204/8/6
f 1205/3/6 1206/3/6 1207/3/6
f 1207/3/6 1206/3/6 1208/3/6
f 1209/2/6 1210/2/6 1211/2/6
f 1211/2/6 1210/2/6 1212/2/6
f 1213/2/6 1214/2/6 1215/2/6
f 1215/2/6 1214/2/6 1216/2/6
f 1217/5/6 1218/5/6 1219/5/6
f 1219/5/6 1218/5/6 1220/5/6
f 1221/2/6 1222/2/6 1223/2/6
f 1223/2/6 1222/2/6 1224/2/6
f 1225/15/6 1226/15/6 1233/15/6
f 1226/12/6 1227/12/6 1234/12/6
f 1233/15/6 1226/15/6 1234/15/6
f 1227/15/6 1228/15/6 1235/15/6
f 1234/12/6 1227/12/6 1235/12/6
f 1235/15/6 1228/15/6 1236/15/6
f 1229/15/6 1230/15/6 1241/15/6
f 1230/12/6 1231/12/6 1242/12/6
f 1241/15/6 1230/15/6 1242/15/6
f 1231/15/6 1232/15/6 1243/15/6
f 1242/12/6 1231/12/6 1243/12/6
f 1243/15/6 1232/15/6 1244/15/6
f 1233/8/6 1234/8/6 1245/8/6
f 1234/8/6 1235/8/6 1245/8/6
f 1235/8/6 1236/8/6 1245/8/6
f 1236/8/6 1237/8/6 1245/8/6
f 1237/2/6 1238/2/6 1245/2/6
f 1238/8/6 1239/8/6 1246/8/6
f 1245/2/6 1238/2/6 1246/2/6
f 1239/2/6 1240/2/6 1247/2/6
f 1246/8/6 1239/8/6 1247/8/6
f 1241/8/6 1242/8/6 1248/8/6
f 1247/2/6 1240/2/6 1248/2/6
f 1240/8/6 1241/8/6 1248/8/6
f 1243/8/6 1244/8/6 1248/8/6
f 1242/8/6 1243/8/6 1248/8/6
f 1246/8/6 1247/8/6 1249/8/6
f 1245/8/6 1246/8/6 1249/8/6
f 1247/8/6 1248/8/6 1249/8/6
f 1233/8/6 1245/8/6 1249/8/6
f 1249/8/6 1248/8/6 1250/8/6
f 1250/8/6 1248/8/6 1251/8/6
f 1248/8/6 1244/8/6 1252/8/6
f 1251/8/6 1248/8/6 1252/8/6
f 1252/8/6 1244/8/6 1253/8/6
f 1253/8/6 1244/8/6 1254/8/6
f 1250/10/6 1251/10/6 1255/10/6
f 1251/8/6 1252/8/6 1256/8/6
f 1255/10/6 1251/10/6 1256/10/6
f 1252/10/6 1253/10/6 1257/10/6
f 1256/8/6 1252/8/6 1257/8/6
f 1257/10/6 1253/10/6 1258/10/6
f 1258/10/6 1253/10/6 1259/10/6
f 1260/8/6 1261/8/6 1262/8/6
f 1262/8/6 1261/8/6 1263/8/6
f 1264/9/6 1265/9/6 1266/9/6
f 1266/9/6 1265/9/6 1267/9/6
f 1268/15/6 1269/15/6 1276/15/6
f 1269/12/6 1270/12/6 1277/12/6
f 1276/15/6 1269/15/6 1277/15/6
f 1270/15/6 1271/15/6 1278/15/6
f 1277/12/6 1270/12/6 1278/12/6
f 1278/15/6 1271/15/6 1279/15/6
f 1272/15/6 1273/15/6 1280/15/6
f 1273/13/6 1274/13/6 1281/13/6
f 1280/15/6 1273/15/6 1281/15/6
f 1274/15/6 1275/15/6 1282/15/6
f 1281/13/6 1274/13/6 1282/13/6
f 1282/15/6 1275/15/6 1283/15/6
f 1284/8/6 1285/8/6 1286/8/6
f 1286/8/6 1285/8/6 1287/8/6
f 1286/15/6 1287/15/6 1288/15/6
f 1288/15/6 1287/15/6 1289/15/6
f 1289/15/6 1287/15/6 1290/15/6
f 1290/15/6 1287/15/6 1291/15/6
f 1291/15/6 1287/15/6 1292/15/6
f 1292/15/6 1287/15/6 1293/15/6
f 1293/15/6 1287/15/6 1294/15/6
f 1294/15/6 1287/15/6 1295/15/6
f 1286/15/6 1288/15/6 1296/15/6
f 1296/15/6 1288/15/6 1297/15/6
f 1289/15/6 1290/15/6 1298/15/6
f 1298/15/6 1290/15/6 1299/15/6
f 1292/15/6 1293/15/6 1300/15/6
f 1295/15/6 1287/15/6 1301/15/6
f 1286/15/6 1296/15/6 1302/15/6
f 1299/15/6 1290/15/6 1305/15/6
f 1305/15/6 1290/15/6 1306/15/6
f 1300/15/6 1293/15/6 1307/15/6
f 1307/15/6 1293/15/6 1308/15/6
f 1301/15/6 1287/15/6 1309/15/6
f 1302/15/6 1303/15/6 1310/15/6
f 1305/15/6 1306/15/6 1311/15/6
f 1308/15/6 1309/15/6 1311/15/6
f 1307/15/6 1308/15/6 1311/15/6
f 1304/15/6 1305/15/6 1311/15/6
f 1306/15/6 1307/15/6 1311/15/6
f 1302/15/6 1310/15/6 1312/15/6
f 1310/15/6 1311/15/6 1312/15/6
f 1286/15/6 1302/15/6 1312/15/6
f 1311/15/6 1309/15/6 1313/15/6
f 1312/15/6 1311/15/6 1313/15/6
f 1309/15/6 1287/15/6 1313/15/6
f 1312/8/6 1313/8/6 1314/8/6
f 1314/8/6 1313/8/6 1315/8/6
f 1320/15/6 1321/15/6 1324/15/6
f 1321/13/6 1322/13/6 1324/13/6
f 1322/15/6 1323/15/6 1325/15/6
f 1324/13/6 1322/13/6 1325/13/6
f 1320/15/6 1324/15/6 1334/15/6
f 1324/12/6 1325/12/6 1334/12/6
f 1325/15/6 1323/15/6 1335/15/6
f 1334/12/6 1325/12/6 1335/12/6
f 1316/15/6 1317/15/6 1336/15/6
f 1317/13/6 1318/13/6 1336/13/6
f 1318/15/6 1319/15/6 1337/15/6
f 1336/13/6 1318/13/6 1337/13/6
f 1326/2/6 1327/2/6 1339/2/6
f 1339/2/6 1327/2/6 1340/2/6
f 1328/5/6 1329/5/6 1342/5/6
f 1329/6/6 1330/6/6 1342/6/6
f 1342/6/6 1330/6/6 1343/6/6
f 1332/1/6 1333/1/6 1344/1/6
f 1331/3/6 1332/3/6 1344/3/6
f 1344/1/6 1333/1/6 1345/1/6
f 1340/2/6 1341/2/6 1346/2/6
f 1339/2/6 1340/2/6 1346/2/6
f 1338/2/6 1339/2/6 1346/2/6
f 1346/2/6 1341/2/6 1347/2/6
f 1338/2/6 1346/2/6 1348/2/6
f 1347/2/6 1341/2/6 1349/2/6
f 1342/4/6 1343/4/6 1350/4/6
f 1328/5/6 1342/5/6 1350/5/6
f 1343/6/6 1330/6/6 1351/6/6
f 1350/4/6 1343/4/6 1351/4/6
f 1351/6/6 1330/6/6 1352/6/6
f 1344/2/6 1345/2/6 1353/2/6
f 1331/3/6 1344/3/6 1353/3/6
f 1345/1/6 1333/1/6 1354/1/6
f 1353/2/6 1345/2/6 1354/2/6
f 1354/1/6 1333/1/6 1355/1/6
f 1348/2/6 1349/2/6 1356/2/6
f 1338/2/6 1348/2/6 1356/2/6
f 1356/2/6 1349/2/6 1357/2/6
f 1349/2/6 1341/2/6 1358/2/6
f 1357/2/6 1349/2/6 1358/2/6
f 1358/2/6 1341/2/6 1359/2/6
f 1328/5/6 1350/5/6 1360/5/6
f 1351/5/6 1352/5/6 1360/5/6
f 1350/5/6 1351/5/6 1360/5/6
f 1360/5/6 1352/5/6 1361/5/6
f 1331/3/6 1353/3/6 1362/3/6
f 1354/3/6 1355/3/6 1362/3/6
f 1353/3/6 1354/3/6 1362/3/6
f 1362/3/6 1355/3/6 1363/3/6
f 1357/2/6 1358/2/6 1364/2/6
f 1364/2/6 1358/2/6 1365/2/6
f 1316/15/6 1336/15/6 1366/15/6
f 1336/12/6 1337/12/6 1367/12/6
f 1366/15/6 1336/15/6 1367/15/6
f 1337/15/6 1319/15/6 1368/15/6
f 1367/12/6 1337/12/6 1368/12/6
f 1368/15/6 1319/15/6 1369/15/6
f 1320/15/6 1334/15/6 1370/15/6
f 1334/13/6 1335/13/6 1371/13/6
f 1370/15/6 1334/15/6 1371/15/6
f 1335/15/6 1323/15/6 1372/15/6
f 1371/13/6 1335/13/6 1372/13/6
f 1372/15/6 1323/15/6 1373/15/6
f 1374/2/6 1375/2/6 1377/2/6
f 1377/2/6 1375/2/6 1378/2/6
f 1376/2/6 1377/2/6 1380/2/6
f 1378/2/6 1379/2/6 1380/2/6
f 1377/2/6 1378/2/6 1380/2/6
f 1380/2/6 1379/2/6 1381/2/6
f 1381/2/6 1379/2/6 1382/2/6
f 1382/2/6 1379/2/6 1383/2/6
f 1381/2/6 1382/2/6 1384/2/6
f 1384/2/6 1382/2/6 1385/2/6
f 1386/8/6 1387/8/6 1390/8/6
f 1388/8/6 1389/8/6 1391/8/6
f 1386/8/6 1390/8/6 1392/8/6
f 1392/8/6 1390/8/6 1393/8/6
f 1391/8/6 1389/8/6 1394/8/6
f 1394/8/6 1389/8/6 1395/8/6
f 1396/13/6 1397/13/6 1400/13/6
f 1397/8/6 1398/8/6 1401/8/6
f 1400/13/6 1397/13/6 1401/13/6
f 1398/12/6 1399/12/6 1402/12/6
f 1401/8/6 1398/8/6 1402/8/6
f 1402/12/6 1399/12/6 1403/12/6
f 1400/12/6 1401/12/6 1404/12/6
f 1401/8/6 1402/8/6 1405/8/6
f 1404/12/6 1401/12/6 1405/12/6
f 1402/13/6 1403/13/6 1406/13/6
f 1405/8/6 1402/8/6 1406/8/6
f 1404/13/6 1405/13/6 1407/13/6
f 1405/15/6 1406/15/6 1408/15/6
f 1407/13/6 1405/13/6 1408/13/6
f 1406/13/6 1403/13/6 1409/13/6
f 1408/15/6 1406/15/6 1409/15/6
f 1409/13/6 1403/13/6 1410/13/6
f 1407/12/6 1408/12/6 1411/12/6
f 1408/15/6 1409/15/6 1412/15/6
f 1411/12/6 1408/12/6 1412/12/6
f 1409/12/6 1410/12/6 1413/12/6
f 1412/15/6 1409/15/6 1413/15/6
f 1413/12/6 1410/12/6 1414/12/6
f 1415/15/6 1416/15/6 1417/15/6
f 1417/15/6 1416/15/6 1418/15/6
f 1421/15/6 1422/15/6 1427/15/6
f 1422/9/6 1423/9/6 1427/9/6
f 1423/15/6 1424/15/6 1428/15/6
f 1427/9/6 1423/9/6 1428/9/6
f 1419/15/6 1420/15/6 1429/15/6
f 1420/12/6 1421/12/6 1429/12/6
f 1427/15/6 1428/15/6 1430/15/6
f 1429/12/6 1421/12/6 1430/12/6
f 1421/15/6 1427/15/6 1430/15/6
f 1430/15/6 1428/15/6 1431/15/6
f 1428/15/6 1424/15/6 1432/15/6
f 1431/15/6 1428/15/6 1432/15/6
f 1419/15/6 1429/15/6 1433/15/6
f 1429/13/6 1430/13/6 1433/13/6
f 1430/15/6 1431/15/6 1434/15/6
f 1433/13/6 1430/13/6 1434/13/6
f 1432/15/6 1424/15/6 1435/15/6
f 1424/13/6 1425/13/6 1435/13/6
f 1425/15/6 1426/15/6 1436/15/6
f 1435/13/6 1425/13/6 1436/13/6
f 1419/15/6 1433/15/6 1437/15/6
f 1433/12/6 1434/12/6 1438/12/6
f 1437/15/6 1433/15/6 1438/15/6
f 1434/15/6 1431/15/6 1439/15/6
f 1438/12/6 1434/12/6 1439/12/6
f 1439/15/6 1431/15/6 1440/15/6
f 1432/15/6 1435/15/6 1441/15/6
f 1435/12/6 1436/12/6 1442/12/6
f 1441/15/6 1435/15/6 1442/15/6
f 1436/15/6 1426/15/6 1443/15/6
f 1442/12/6 1436/12/6 1443/12/6
f 1443/15/6 1426/15/6 1444/15/6
