# MagicaVoxel @ Ephtracy

# group
o 

# material
mtllib bodyplayer.mtl
usemtl palette

# normals
vn -1 0 0
vn 1 0 0
vn 0 0 1
vn 0 0 -1
vn 0 -1 0
vn 0 1 0

# texcoords
vt 0.0253906 0.5
vt 0.0292969 0.5
vt 0.0410156 0.5
vt 0.0449219 0.5
vt 0.841797 0.5
vt 0.876953 0.5
vt 0.896484 0.5
vt 0.908203 0.5
vt 0.916016 0.5
vt 0.931641 0.5
vt 0.939453 0.5
vt 0.951172 0.5
vt 0.955078 0.5
vt 0.970703 0.5

# verts
v -1.6 0 1.6
v -1.6 0 1.4
v -1.6 0 -1.4
v -1.6 0 -1.6
v -1.6 0.1 1.5
v -1.6 0.1 1.4
v -1.6 0.1 -1.4
v -1.6 0.1 -1.5
v -1.6 0.2 1.6
v -1.6 0.2 1.5
v -1.6 0.2 -0.0999999
v -1.6 0.2 -0.3
v -1.6 0.2 -0.4
v -1.6 0.2 -0.5
v -1.6 0.2 -0.6
v -1.6 0.2 -0.7
v -1.6 0.2 -0.8
v -1.6 0.2 -0.9
v -1.6 0.2 -1
v -1.6 0.2 -1.1
v -1.6 0.2 -1.2
v -1.6 0.2 -1.3
v -1.6 0.2 -1.4
v -1.6 0.2 -1.5
v -1.6 0.2 -1.6
v -1.6 0.4 0.6
v -1.6 0.4 0.2
v -1.6 0.5 0.6
v -1.6 0.5 0.2
v -1.6 0.7 1.6
v -1.6 0.7 1.5
v -1.6 0.7 -0.0999999
v -1.6 0.7 -0.3
v -1.6 0.7 -0.4
v -1.6 0.7 -0.5
v -1.6 0.7 -0.6
v -1.6 0.7 -0.7
v -1.6 0.7 -0.8
v -1.6 0.7 -0.9
v -1.6 0.7 -1
v -1.6 0.7 -1.1
v -1.6 0.7 -1.2
v -1.6 0.7 -1.3
v -1.6 0.7 -1.4
v -1.6 0.7 -1.5
v -1.6 0.7 -1.6
v -1.6 0.8 1.5
v -1.6 0.8 1.4
v -1.6 0.8 -1.4
v -1.6 0.8 -1.5
v -1.6 0.9 1.6
v -1.6 0.9 1.4
v -1.6 0.9 -1.4
v -1.6 0.9 -1.6
v -1.5 0.2 1.5
v -1.5 0.2 1.2
v -1.5 0.2 -0.3
v -1.5 0.2 -0.4
v -1.5 0.2 -0.5
v -1.5 0.2 -0.6
v -1.5 0.2 -0.7
v -1.5 0.2 -0.8
v -1.5 0.2 -0.9
v -1.5 0.2 -1
v -1.5 0.2 -1.1
v -1.5 0.2 -1.2
v -1.5 0.2 -1.3
v -1.5 0.2 -1.4
v -1.5 0.3 1.5
v -1.5 0.3 1.2
v -1.5 0.3 -0.3
v -1.5 0.3 -0.4
v -1.5 0.3 -0.5
v -1.5 0.3 -0.6
v -1.5 0.3 -0.7
v -1.5 0.3 -0.8
v -1.5 0.3 -0.9
v -1.5 0.3 -1
v -1.5 0.3 -1.1
v -1.5 0.3 -1.2
v -1.5 0.3 -1.3
v -1.5 0.3 -1.4
v -1.5 0.4 1.4
v -1.5 0.4 1.2
v -1.5 0.4 1.1
v -1.5 0.4 0.9
v -1.5 0.4 0.8
v -1.5 0.4 0.6
v -1.5 0.4 0.2
v -1.5 0.4 0
v -1.5 0.5 0.6
v -1.5 0.5 0.2
v -1.5 0.6 -0.3
v -1.5 0.6 -0.4
v -1.5 0.6 -0.5
v -1.5 0.6 -0.6
v -1.5 0.6 -0.7
v -1.5 0.6 -0.8
v -1.5 0.6 -0.9
v -1.5 0.6 -1
v -1.5 0.6 -1.1
v -1.5 0.6 -1.2
v -1.5 0.6 -1.3
v -1.5 0.6 -1.4
v -1.5 0.7 1.4
v -1.5 0.7 1.2
v -1.5 0.7 1.1
v -1.5 0.7 0.9
v -1.5 0.7 0.8
v -1.5 0.7 0
v -1.5 0.7 -0.3
v -1.5 0.7 -0.4
v -1.5 0.7 -0.5
v -1.5 0.7 -0.6
v -1.5 0.7 -0.7
v -1.5 0.7 -0.8
v -1.5 0.7 -0.9
v -1.5 0.7 -1
v -1.5 0.7 -1.1
v -1.5 0.7 -1.2
v -1.5 0.7 -1.3
v -1.5 0.7 -1.4
v -1.4 0.2 1.2
v -1.4 0.2 -0.0999999
v -1.4 0.3 1.5
v -1.4 0.3 1.2
v -1.4 0.4 1.4
v -1.4 0.4 1.2
v -1.4 0.4 1.1
v -1.4 0.4 0.9
v -1.4 0.4 0.8
v -1.4 0.4 0
v -1.4 0.7 1.5
v -1.4 0.7 1.4
v -1.4 0.7 1.2
v -1.4 0.7 1.1
v -1.4 0.7 0.9
v -1.4 0.7 0.8
v -1.4 0.7 0
v -1.4 0.7 -0.0999999
v -0.7 0 1.6
v -0.7 0 1.4
v -0.7 0 -1.4
v -0.7 0 -1.6
v -0.7 0.1 1.6
v -0.7 0.1 1.5
v -0.7 0.1 1.4
v -0.7 0.1 -1.4
v -0.7 0.1 -1.5
v -0.7 0.2 -1.5
v -0.7 0.2 -1.6
v -0.7 0.7 1.6
v -0.7 0.7 1.5
v -0.7 0.7 -1.5
v -0.7 0.7 -1.6
v -0.7 0.8 1.5
v -0.7 0.8 1.4
v -0.7 0.8 -1.4
v -0.7 0.8 -1.5
v -0.7 0.9 1.6
v -0.7 0.9 1.4
v -0.7 0.9 -1.4
v -0.7 0.9 -1.6
v 0.7 0.3 1.7
v 0.7 0.3 1.6
v 0.7 0.3 1.5
v 0.7 0.4 -1.5
v 0.7 0.4 -1.6
v 0.7 0.4 -1.7
v 0.7 0.5 1.7
v 0.7 0.5 1.6
v 0.7 0.5 1.5
v 0.7 0.6 -1.5
v 0.7 0.6 -1.6
v 0.7 0.6 -1.7
v 1 0.2 1.6
v 1 0.2 1.5
v 1 0.3 -1.5
v 1 0.3 -1.6
v 1 0.6 1.6
v 1 0.6 1.5
v 1 0.7 -1.5
v 1 0.7 -1.6
v -0.8 0 1.6
v -0.8 0 1.4
v -0.8 0 -1.4
v -0.8 0 -1.6
v -0.8 0.1 1.5
v -0.8 0.1 1.4
v -0.8 0.1 -1.4
v -0.8 0.1 -1.5
v -0.8 0.2 1.6
v -0.8 0.2 1.5
v -0.8 0.2 -1.5
v -0.8 0.2 -1.6
v -0.8 0.7 1.6
v -0.8 0.7 1.5
v -0.8 0.7 -1.5
v -0.8 0.7 -1.6
v -0.8 0.8 1.5
v -0.8 0.8 1.4
v -0.8 0.8 -1.4
v -0.8 0.8 -1.5
v -0.8 0.9 1.6
v -0.8 0.9 1.4
v -0.8 0.9 -1.4
v -0.8 0.9 -1.6
v 0.6 0.2 1.6
v 0.6 0.2 1.5
v 0.6 0.3 -1.5
v 0.6 0.3 -1.6
v 0.6 0.6 1.6
v 0.6 0.6 1.5
v 0.6 0.7 -1.5
v 0.6 0.7 -1.6
v 0.9 0.3 1.7
v 0.9 0.3 1.6
v 0.9 0.3 1.5
v 0.9 0.4 -1.5
v 0.9 0.4 -1.6
v 0.9 0.4 -1.7
v 0.9 0.5 1.7
v 0.9 0.5 1.6
v 0.9 0.5 1.5
v 0.9 0.6 -1.5
v 0.9 0.6 -1.6
v 0.9 0.6 -1.7
v 1.2 0.2 1.4
v 1.2 0.2 1.3
v 1.2 0.2 0.9
v 1.2 0.2 0.6
v 1.2 0.2 0.5
v 1.2 0.2 0.4
v 1.2 0.2 0.3
v 1.2 0.2 0.2
v 1.2 0.2 0.1
v 1.2 0.2 0
v 1.2 0.2 -0.0999999
v 1.2 0.2 -0.3
v 1.2 0.2 -0.4
v 1.2 0.2 -0.5
v 1.2 0.2 -0.6
v 1.2 0.2 -0.7
v 1.2 0.2 -0.8
v 1.2 0.2 -1
v 1.2 0.3 1.3
v 1.2 0.3 1.2
v 1.2 0.3 1
v 1.2 0.3 0.9
v 1.2 0.3 0.6
v 1.2 0.3 0.5
v 1.2 0.3 0.4
v 1.2 0.3 0.3
v 1.2 0.3 0.2
v 1.2 0.3 0.1
v 1.2 0.3 0
v 1.2 0.3 -0.0999999
v 1.2 0.3 -0.3
v 1.2 0.3 -0.4
v 1.2 0.3 -0.5
v 1.2 0.3 -0.6
v 1.2 0.3 -0.7
v 1.2 0.3 -0.8
v 1.2 0.3 -1.2
v 1.2 0.3 -1.3
v 1.2 0.4 1.2
v 1.2 0.4 1
v 1.2 0.4 0.5
v 1.2 0.4 0.4
v 1.2 0.4 0.1
v 1.2 0.4 0
v 1.2 0.4 -0.4
v 1.2 0.4 -0.7
v 1.2 0.4 -1.1
v 1.2 0.4 -1.2
v 1.2 0.4 -1.3
v 1.2 0.5 1.1
v 1.2 0.5 1
v 1.2 0.5 0.9
v 1.2 0.5 0.8
v 1.2 0.5 0.7
v 1.2 0.5 0.6
v 1.2 0.5 0.4
v 1.2 0.5 0.3
v 1.2 0.5 0.2
v 1.2 0.5 0.1
v 1.2 0.5 0
v 1.2 0.5 -0.0999999
v 1.2 0.5 -0.2
v 1.2 0.5 -0.3
v 1.2 0.5 -0.5
v 1.2 0.5 -0.7
v 1.2 0.5 -1.1
v 1.2 0.5 -1.2
v 1.2 0.6 1.1
v 1.2 0.6 1
v 1.2 0.6 0.9
v 1.2 0.6 0.8
v 1.2 0.6 0.7
v 1.2 0.6 0.6
v 1.2 0.6 0.3
v 1.2 0.6 0.2
v 1.2 0.6 0.1
v 1.2 0.6 0
v 1.2 0.6 -0.0999999
v 1.2 0.6 -0.2
v 1.2 0.6 -0.4
v 1.2 0.6 -0.5
v 1.2 0.6 -0.7
v 1.2 0.6 -0.8
v 1.2 0.6 -1
v 1.2 0.6 -1.4
v 1.2 0.7 1.4
v 1.2 0.7 0.4
v 1.2 0.7 0.2
v 1.2 0.7 0.1
v 1.2 0.7 0
v 1.2 0.7 -0.0999999
v 1.2 0.7 -0.3
v 1.2 0.7 -0.4
v 1.2 0.7 -0.8
v 1.2 0.7 -1.4
v 1.3 0 1.6
v 1.3 0 1.4
v 1.3 0 -1.4
v 1.3 0 -1.6
v 1.3 0.1 1.5
v 1.3 0.1 1.4
v 1.3 0.1 -1.4
v 1.3 0.1 -1.5
v 1.3 0.2 1.6
v 1.3 0.2 1.5
v 1.3 0.2 1.4
v 1.3 0.2 1.3
v 1.3 0.2 0.9
v 1.3 0.2 0.6
v 1.3 0.2 0.5
v 1.3 0.2 0.4
v 1.3 0.2 0.3
v 1.3 0.2 0.2
v 1.3 0.2 0.1
v 1.3 0.2 0
v 1.3 0.2 -0.0999999
v 1.3 0.2 -0.3
v 1.3 0.2 -0.4
v 1.3 0.2 -0.5
v 1.3 0.2 -0.6
v 1.3 0.2 -0.7
v 1.3 0.2 -0.8
v 1.3 0.2 -1
v 1.3 0.2 -1.4
v 1.3 0.2 -1.5
v 1.3 0.2 -1.6
v 1.3 0.3 1.3
v 1.3 0.3 1.2
v 1.3 0.3 1
v 1.3 0.3 0.9
v 1.3 0.3 0.6
v 1.3 0.3 0.5
v 1.3 0.3 0.4
v 1.3 0.3 0.3
v 1.3 0.3 0.2
v 1.3 0.3 0.1
v 1.3 0.3 0
v 1.3 0.3 -0.0999999
v 1.3 0.3 -0.3
v 1.3 0.3 -0.4
v 1.3 0.3 -0.5
v 1.3 0.3 -0.6
v 1.3 0.3 -0.7
v 1.3 0.3 -0.8
v 1.3 0.3 -1.2
v 1.3 0.3 -1.3
v 1.3 0.4 1.2
v 1.3 0.4 1
v 1.3 0.4 0.5
v 1.3 0.4 0.4
v 1.3 0.4 0.1
v 1.3 0.4 0
v 1.3 0.4 -0.4
v 1.3 0.4 -0.7
v 1.3 0.4 -1.1
v 1.3 0.4 -1.2
v 1.3 0.4 -1.3
v 1.3 0.5 1.1
v 1.3 0.5 1
v 1.3 0.5 0.9
v 1.3 0.5 0.8
v 1.3 0.5 0.7
v 1.3 0.5 0.6
v 1.3 0.5 0.4
v 1.3 0.5 0.3
v 1.3 0.5 0.2
v 1.3 0.5 0.1
v 1.3 0.5 0
v 1.3 0.5 -0.0999999
v 1.3 0.5 -0.2
v 1.3 0.5 -0.3
v 1.3 0.5 -0.5
v 1.3 0.5 -0.7
v 1.3 0.5 -1.1
v 1.3 0.5 -1.2
v 1.3 0.6 1.1
v 1.3 0.6 1
v 1.3 0.6 0.9
v 1.3 0.6 0.8
v 1.3 0.6 0.7
v 1.3 0.6 0.6
v 1.3 0.6 0.3
v 1.3 0.6 0.2
v 1.3 0.6 0.1
v 1.3 0.6 0
v 1.3 0.6 -0.0999999
v 1.3 0.6 -0.2
v 1.3 0.6 -0.4
v 1.3 0.6 -0.5
v 1.3 0.6 -0.7
v 1.3 0.6 -0.8
v 1.3 0.6 -1
v 1.3 0.6 -1.4
v 1.3 0.7 1.6
v 1.3 0.7 1.5
v 1.3 0.7 1.4
v 1.3 0.7 0.4
v 1.3 0.7 0.3
v 1.3 0.7 0.2
v 1.3 0.7 0.1
v 1.3 0.7 0
v 1.3 0.7 -0.0999999
v 1.3 0.7 -0.2
v 1.3 0.7 -0.3
v 1.3 0.7 -0.4
v 1.3 0.7 -0.5
v 1.3 0.7 -0.7
v 1.3 0.7 -0.8
v 1.3 0.7 -1.4
v 1.3 0.7 -1.5
v 1.3 0.7 -1.6
v 1.3 0.8 1.5
v 1.3 0.8 1.4
v 1.3 0.8 -1.4
v 1.3 0.8 -1.5
v 1.3 0.9 1.6
v 1.3 0.9 1.4
v 1.3 0.9 -1.4
v 1.3 0.9 -1.6
v 0.7 0.3 1.7
v 0.7 0.5 1.7
v 0.9 0.3 1.7
v 0.9 0.5 1.7
v -1.6 0 1.6
v -1.6 0.2 1.6
v -1.6 0.7 1.6
v -1.6 0.9 1.6
v -1.5 0.1 1.6
v -1.5 0.2 1.6
v -1.5 0.7 1.6
v -1.5 0.8 1.6
v -1.4 0 1.6
v -1.4 0.1 1.6
v -1.4 0.4 1.6
v -1.4 0.6 1.6
v -1.4 0.8 1.6
v -1.4 0.9 1.6
v -1.3 0.1 1.6
v -1.3 0.2 1.6
v -1.3 0.4 1.6
v -1.3 0.6 1.6
v -1.2 0.1 1.6
v -1.2 0.2 1.6
v -1.1 0.3 1.6
v -1.1 0.7 1.6
v -1 0 1.6
v -1 0.1 1.6
v -1 0.3 1.6
v -1 0.7 1.6
v -1 0.8 1.6
v -1 0.9 1.6
v -0.9 0.1 1.6
v -0.9 0.2 1.6
v -0.9 0.7 1.6
v -0.9 0.8 1.6
v -0.8 0 1.6
v -0.8 0.2 1.6
v -0.8 0.7 1.6
v -0.8 0.9 1.6
v -0.7 0 1.6
v -0.7 0.1 1.6
v -0.7 0.7 1.6
v -0.7 0.9 1.6
v -0.6 0.7 1.6
v -0.6 0.8 1.6
v -0.5 0 1.6
v -0.5 0.1 1.6
v -0.5 0.8 1.6
v -0.5 0.9 1.6
v -0.3 0.3 1.6
v -0.3 0.7 1.6
v -0.2 0.3 1.6
v -0.2 0.7 1.6
v 0.2 0.1 1.6
v 0.2 0.5 1.6
v 0.3 0.1 1.6
v 0.3 0.5 1.6
v 0.4 0.5 1.6
v 0.4 0.8 1.6
v 0.5 0.5 1.6
v 0.5 0.8 1.6
v 0.6 0.2 1.6
v 0.6 0.6 1.6
v 1 0.2 1.6
v 1 0.6 1.6
v 1.1 0 1.6
v 1.1 0.1 1.6
v 1.1 0.8 1.6
v 1.1 0.9 1.6
v 1.2 0.1 1.6
v 1.2 0.2 1.6
v 1.2 0.7 1.6
v 1.2 0.8 1.6
v 1.3 0 1.6
v 1.3 0.2 1.6
v 1.3 0.7 1.6
v 1.3 0.9 1.6
v -0.8 0.1 1.5
v -0.8 0.2 1.5
v -0.8 0.7 1.5
v -0.8 0.8 1.5
v -0.7 0.1 1.5
v -0.7 0.7 1.5
v -0.7 0.8 1.5
v 0.6 0.2 1.5
v 0.6 0.6 1.5
v 0.7 0.3 1.5
v 0.7 0.5 1.5
v 0.9 0.3 1.5
v 0.9 0.5 1.5
v 1 0.2 1.5
v 1 0.6 1.5
v -1.5 0.4 1.4
v -1.5 0.7 1.4
v -1.4 0.4 1.4
v -1.4 0.7 1.4
v 1.2 0.2 1.3
v 1.2 0.3 1.3
v 1.3 0.2 1.3
v 1.3 0.3 1.3
v 1.2 0.3 1.2
v 1.2 0.4 1.2
v 1.3 0.3 1.2
v 1.3 0.4 1.2
v -1.5 0.4 1.1
v -1.5 0.7 1.1
v -1.4 0.4 1.1
v -1.4 0.7 1.1
v 1.2 0.5 1.1
v 1.2 0.6 1.1
v 1.3 0.5 1.1
v 1.3 0.6 1.1
v 1.2 0.5 0.9
v 1.2 0.6 0.9
v 1.3 0.5 0.9
v 1.3 0.6 0.9
v -1.5 0.4 0.8
v -1.5 0.7 0.8
v -1.4 0.4 0.8
v -1.4 0.7 0.8
v 1.2 0.5 0.7
v 1.2 0.6 0.7
v 1.3 0.5 0.7
v 1.3 0.6 0.7
v -1.6 0.4 0.6
v -1.6 0.5 0.6
v -1.5 0.4 0.6
v -1.5 0.5 0.6
v 1.2 0.2 0.6
v 1.2 0.3 0.6
v 1.3 0.2 0.6
v 1.3 0.3 0.6
v 1.2 0.3 0.5
v 1.2 0.4 0.5
v 1.3 0.3 0.5
v 1.3 0.4 0.5
v 1.2 0.2 0.4
v 1.2 0.3 0.4
v 1.2 0.5 0.4
v 1.2 0.7 0.4
v 1.3 0.2 0.4
v 1.3 0.3 0.4
v 1.3 0.5 0.4
v 1.3 0.7 0.4
v 1.2 0.2 0.2
v 1.2 0.3 0.2
v 1.2 0.5 0.2
v 1.2 0.6 0.2
v 1.3 0.2 0.2
v 1.3 0.3 0.2
v 1.3 0.5 0.2
v 1.3 0.6 0.2
v 1.2 0.3 0.1
v 1.2 0.4 0.1
v 1.2 0.6 0.1
v 1.2 0.7 0.1
v 1.3 0.3 0.1
v 1.3 0.4 0.1
v 1.3 0.6 0.1
v 1.3 0.7 0.1
v 1.2 0.2 0
v 1.2 0.3 0
v 1.2 0.5 0
v 1.2 0.6 0
v 1.3 0.2 0
v 1.3 0.3 0
v 1.3 0.5 0
v 1.3 0.6 0
v -1.6 0.2 -0.0999999
v -1.6 0.7 -0.0999999
v -1.4 0.2 -0.0999999
v -1.4 0.7 -0.0999999
v 1.2 0.6 -0.0999999
v 1.2 0.7 -0.0999999
v 1.3 0.6 -0.0999999
v 1.3 0.7 -0.0999999
v 1.2 0.5 -0.2
v 1.2 0.6 -0.2
v 1.3 0.5 -0.2
v 1.3 0.6 -0.2
v 1.2 0.2 -0.3
v 1.2 0.3 -0.3
v 1.3 0.2 -0.3
v 1.3 0.3 -0.3
v -1.6 0.2 -0.4
v -1.6 0.7 -0.4
v -1.5 0.2 -0.4
v -1.5 0.3 -0.4
v -1.5 0.6 -0.4
v -1.5 0.7 -0.4
v 1.2 0.3 -0.4
v 1.2 0.4 -0.4
v 1.2 0.6 -0.4
v 1.2 0.7 -0.4
v 1.3 0.3 -0.4
v 1.3 0.4 -0.4
v 1.3 0.6 -0.4
v 1.3 0.7 -0.4
v 1.2 0.2 -0.5
v 1.2 0.3 -0.5
v 1.2 0.5 -0.5
v 1.2 0.6 -0.5
v 1.3 0.2 -0.5
v 1.3 0.3 -0.5
v 1.3 0.5 -0.5
v 1.3 0.6 -0.5
v -1.6 0.2 -0.6
v -1.6 0.7 -0.6
v -1.5 0.2 -0.6
v -1.5 0.3 -0.6
v -1.5 0.6 -0.6
v -1.5 0.7 -0.6
v 1.2 0.2 -0.7
v 1.2 0.3 -0.7
v 1.3 0.2 -0.7
v 1.3 0.3 -0.7
v -1.6 0.2 -0.8
v -1.6 0.7 -0.8
v -1.5 0.2 -0.8
v -1.5 0.3 -0.8
v -1.5 0.6 -0.8
v -1.5 0.7 -0.8
v -1.6 0.2 -1
v -1.6 0.7 -1
v -1.5 0.2 -1
v -1.5 0.3 -1
v -1.5 0.6 -1
v -1.5 0.7 -1
v 1.2 0.2 -1
v 1.2 0.6 -1
v 1.3 0.2 -1
v 1.3 0.6 -1
v -1.6 0.2 -1.2
v -1.6 0.7 -1.2
v -1.5 0.2 -1.2
v -1.5 0.3 -1.2
v -1.5 0.6 -1.2
v -1.5 0.7 -1.2
v 1.2 0.4 -1.2
v 1.2 0.5 -1.2
v 1.3 0.4 -1.2
v 1.3 0.5 -1.2
v 1.2 0.3 -1.3
v 1.2 0.4 -1.3
v 1.3 0.3 -1.3
v 1.3 0.4 -1.3
v -1.6 0.2 -1.4
v -1.6 0.7 -1.4
v -1.5 0.2 -1.4
v -1.5 0.3 -1.4
v -1.5 0.6 -1.4
v -1.5 0.7 -1.4
v 1.2 0.6 -1.4
v 1.2 0.7 -1.4
v 1.3 0.6 -1.4
v 1.3 0.7 -1.4
v -1.6 0.2 1.5
v -1.6 0.7 1.5
v -1.5 0.2 1.5
v -1.5 0.3 1.5
v -1.4 0.3 1.5
v -1.4 0.7 1.5
v 1.2 0.2 1.4
v 1.2 0.7 1.4
v 1.3 0.2 1.4
v 1.3 0.7 1.4
v -1.5 0.2 1.2
v -1.5 0.3 1.2
v -1.5 0.4 1.2
v -1.5 0.7 1.2
v -1.4 0.2 1.2
v -1.4 0.3 1.2
v -1.4 0.4 1.2
v -1.4 0.7 1.2
v 1.2 0.3 1
v 1.2 0.4 1
v 1.2 0.5 1
v 1.2 0.6 1
v 1.3 0.3 1
v 1.3 0.4 1
v 1.3 0.5 1
v 1.3 0.6 1
v -1.5 0.4 0.9
v -1.5 0.7 0.9
v -1.4 0.4 0.9
v -1.4 0.7 0.9
v 1.2 0.2 0.9
v 1.2 0.3 0.9
v 1.3 0.2 0.9
v 1.3 0.3 0.9
v 1.2 0.5 0.8
v 1.2 0.6 0.8
v 1.3 0.5 0.8
v 1.3 0.6 0.8
v 1.2 0.5 0.6
v 1.2 0.6 0.6
v 1.3 0.5 0.6
v 1.3 0.6 0.6
v 1.2 0.2 0.5
v 1.2 0.3 0.5
v 1.3 0.2 0.5
v 1.3 0.3 0.5
v 1.2 0.3 0.4
v 1.2 0.4 0.4
v 1.3 0.3 0.4
v 1.3 0.4 0.4
v 1.2 0.2 0.3
v 1.2 0.3 0.3
v 1.2 0.5 0.3
v 1.2 0.6 0.3
v 1.3 0.2 0.3
v 1.3 0.3 0.3
v 1.3 0.5 0.3
v 1.3 0.6 0.3
v -1.6 0.4 0.2
v -1.6 0.5 0.2
v -1.5 0.4 0.2
v -1.5 0.5 0.2
v 1.2 0.6 0.2
v 1.2 0.7 0.2
v 1.3 0.6 0.2
v 1.3 0.7 0.2
v 1.2 0.2 0.1
v 1.2 0.3 0.1
v 1.2 0.5 0.1
v 1.2 0.6 0.1
v 1.3 0.2 0.1
v 1.3 0.3 0.1
v 1.3 0.5 0.1
v 1.3 0.6 0.1
v -1.5 0.4 0
v -1.5 0.7 0
v -1.4 0.4 0
v -1.4 0.7 0
v 1.2 0.3 0
v 1.2 0.4 0
v 1.2 0.6 0
v 1.2 0.7 0
v 1.3 0.3 0
v 1.3 0.4 0
v 1.3 0.6 0
v 1.3 0.7 0
v 1.2 0.2 -0.0999999
v 1.2 0.3 -0.0999999
v 1.2 0.5 -0.0999999
v 1.2 0.6 -0.0999999
v 1.3 0.2 -0.0999999
v 1.3 0.3 -0.0999999
v 1.3 0.5 -0.0999999
v 1.3 0.6 -0.0999999
v -1.6 0.2 -0.3
v -1.6 0.7 -0.3
v -1.5 0.2 -0.3
v -1.5 0.3 -0.3
v -1.5 0.6 -0.3
v -1.5 0.7 -0.3
v 1.2 0.5 -0.3
v 1.2 0.7 -0.3
v 1.3 0.5 -0.3
v 1.3 0.7 -0.3
v 1.2 0.2 -0.4
v 1.2 0.3 -0.4
v 1.3 0.2 -0.4
v 1.3 0.3 -0.4
v -1.6 0.2 -0.5
v -1.6 0.7 -0.5
v -1.5 0.2 -0.5
v -1.5 0.3 -0.5
v -1.5 0.6 -0.5
v -1.5 0.7 -0.5
v 1.2 0.2 -0.6
v 1.2 0.3 -0.6
v 1.3 0.2 -0.6
v 1.3 0.3 -0.6
v -1.6 0.2 -0.7
v -1.6 0.7 -0.7
v -1.5 0.2 -0.7
v -1.5 0.3 -0.7
v -1.5 0.6 -0.7
v -1.5 0.7 -0.7
v 1.2 0.3 -0.7
v 1.2 0.4 -0.7
v 1.2 0.5 -0.7
v 1.2 0.6 -0.7
v 1.3 0.3 -0.7
v 1.3 0.4 -0.7
v 1.3 0.5 -0.7
v 1.3 0.6 -0.7
v 1.2 0.2 -0.8
v 1.2 0.3 -0.8
v 1.2 0.6 -0.8
v 1.2 0.7 -0.8
v 1.3 0.2 -0.8
v 1.3 0.3 -0.8
v 1.3 0.6 -0.8
v 1.3 0.7 -0.8
v -1.6 0.2 -0.9
v -1.6 0.7 -0.9
v -1.5 0.2 -0.9
v -1.5 0.3 -0.9
v -1.5 0.6 -0.9
v -1.5 0.7 -0.9
v -1.6 0.2 -1.1
v -1.6 0.7 -1.1
v -1.5 0.2 -1.1
v -1.5 0.3 -1.1
v -1.5 0.6 -1.1
v -1.5 0.7 -1.1
v 1.2 0.4 -1.1
v 1.2 0.5 -1.1
v 1.3 0.4 -1.1
v 1.3 0.5 -1.1
v 1.2 0.3 -1.2
v 1.2 0.4 -1.2
v 1.3 0.3 -1.2
v 1.3 0.4 -1.2
v -1.6 0.2 -1.3
v -1.6 0.7 -1.3
v -1.5 0.2 -1.3
v -1.5 0.3 -1.3
v -1.5 0.6 -1.3
v -1.5 0.7 -1.3
v -0.8 0.1 -1.5
v -0.8 0.2 -1.5
v -0.8 0.7 -1.5
v -0.8 0.8 -1.5
v -0.7 0.1 -1.5
v -0.7 0.2 -1.5
v -0.7 0.7 -1.5
v -0.7 0.8 -1.5
v 0.6 0.3 -1.5
v 0.6 0.7 -1.5
v 0.7 0.4 -1.5
v 0.7 0.6 -1.5
v 0.9 0.4 -1.5
v 0.9 0.6 -1.5
v 1 0.3 -1.5
v 1 0.7 -1.5
v -1.6 0 -1.6
v -1.6 0.2 -1.6
v -1.6 0.7 -1.6
v -1.6 0.9 -1.6
v -1.5 0.1 -1.6
v -1.5 0.2 -1.6
v -1.5 0.7 -1.6
v -1.5 0.8 -1.6
v -1.4 0 -1.6
v -1.4 0.1 -1.6
v -1.4 0.3 -1.6
v -1.4 0.6 -1.6
v -1.4 0.8 -1.6
v -1.4 0.9 -1.6
v -1.3 0.3 -1.6
v -1.3 0.6 -1.6
v -1.1 0.4 -1.6
v -1.1 0.7 -1.6
v -1 0 -1.6
v -1 0.1 -1.6
v -1 0.4 -1.6
v -1 0.7 -1.6
v -1 0.8 -1.6
v -1 0.9 -1.6
v -0.9 0.1 -1.6
v -0.9 0.2 -1.6
v -0.9 0.7 -1.6
v -0.9 0.8 -1.6
v -0.8 0 -1.6
v -0.8 0.2 -1.6
v -0.8 0.7 -1.6
v -0.8 0.9 -1.6
v -0.7 0 -1.6
v -0.7 0.2 -1.6
v -0.7 0.7 -1.6
v -0.7 0.9 -1.6
v -0.6 0.1 -1.6
v -0.6 0.2 -1.6
v -0.6 0.7 -1.6
v -0.6 0.8 -1.6
v -0.5 0 -1.6
v -0.5 0.1 -1.6
v -0.5 0.8 -1.6
v -0.5 0.9 -1.6
v -0.4 0.4 -1.6
v -0.4 0.7 -1.6
v -0.3 0.4 -1.6
v -0.3 0.7 -1.6
v -0.1 0.5 -1.6
v -0.1 0.7 -1.6
v 0 0.5 -1.6
v 0 0.7 -1.6
v 0.1 0.2 -1.6
v 0.1 0.6 -1.6
v 0.2 0.2 -1.6
v 0.2 0.6 -1.6
v 0.4 0.4 -1.6
v 0.4 0.7 -1.6
v 0.5 0.4 -1.6
v 0.5 0.7 -1.6
v 0.6 0.3 -1.6
v 0.6 0.7 -1.6
v 1 0.3 -1.6
v 1 0.7 -1.6
v 1.1 0 -1.6
v 1.1 0.1 -1.6
v 1.1 0.8 -1.6
v 1.1 0.9 -1.6
v 1.2 0.1 -1.6
v 1.2 0.2 -1.6
v 1.2 0.7 -1.6
v 1.2 0.8 -1.6
v 1.3 0 -1.6
v 1.3 0.2 -1.6
v 1.3 0.7 -1.6
v 1.3 0.9 -1.6
v 0.7 0.4 -1.7
v 0.7 0.6 -1.7
v 0.9 0.4 -1.7
v 0.9 0.6 -1.7
v -1.6 0 1.6
v -1.4 0 1.6
v -1 0 1.6
v -0.8 0 1.6
v -0.7 0 1.6
v -0.5 0 1.6
v 1.1 0 1.6
v 1.3 0 1.6
v -1.5 0 1.5
v -1.4 0 1.5
v -1 0 1.5
v -0.9 0 1.5
v -0.6 0 1.5
v -0.5 0 1.5
v 1.1 0 1.5
v 1.2 0 1.5
v -1.6 0 1.4
v -1.5 0 1.4
v -0.9 0 1.4
v -0.8 0 1.4
v -0.7 0 1.4
v -0.6 0 1.4
v 0.6 0 1.4
v 0.7 0 1.4
v 1.2 0 1.4
v 1.3 0 1.4
v -1.4 0 1.3
v -1.3 0 1.3
v -0.1 0 1.2
v 0 0 1.2
v -1.1 0 1.1
v -1 0 1.1
v 0.6 0 1.1
v 0.7 0 1.1
v -0.5 0 1
v -0.4 0 1
v 0.5 0 1
v 0.6 0 1
v -1.4 0 0.9
v -1.3 0 0.9
v -0.1 0 0.8
v 0 0 0.8
v 0.5 0 0.7
v 0.6 0 0.7
v -1.1 0 0.6
v -1 0 0.6
v -0.5 0 0.5
v -0.4 0 0.5
v 0.2 0 0.4
v 0.3 0 0.4
v -1.3 0 0.3
v -1.2 0 0.3
v 0.8 0 0.2
v 0.9 0 0.2
v -0.3 0 0.1
v -0.2 0 0.1
v 0.2 0 0
v 0.3 0 0
v -1.3 0 -0.0999999
v -1.2 0 -0.0999999
v -0.3 0 -0.3
v -0.2 0 -0.3
v -1.1 0 -0.4
v -1 0 -0.4
v 0.8 0 -0.4
v 0.9 0 -0.4
v 0.2 0 -0.5
v 0.3 0 -0.5
v -0.4 0 -0.7
v -0.3 0 -0.7
v -1.3 0 -0.8
v -1.2 0 -0.8
v -1.1 0 -0.8
v -1 0 -0.8
v 0.2 0 -0.8
v 0.3 0 -0.8
v 0.7 0 -1
v 0.8 0 -1
v 0.1 0 -1.1
v 0.2 0 -1.1
v -1.3 0 -1.2
v -1.2 0 -1.2
v -0.4 0 -1.2
v -0.3 0 -1.2
v 0.1 0 -1.3
v 0.2 0 -1.3
v -1.6 0 -1.4
v -1.5 0 -1.4
v -0.9 0 -1.4
v -0.8 0 -1.4
v -0.7 0 -1.4
v -0.6 0 -1.4
v 0.7 0 -1.4
v 0.8 0 -1.4
v 1.2 0 -1.4
v 1.3 0 -1.4
v -1.5 0 -1.5
v -1.4 0 -1.5
v -1 0 -1.5
v -0.9 0 -1.5
v -0.6 0 -1.5
v -0.5 0 -1.5
v 1.1 0 -1.5
v 1.2 0 -1.5
v -1.6 0 -1.6
v -1.4 0 -1.6
v -1 0 -1.6
v -0.8 0 -1.6
v -0.7 0 -1.6
v -0.5 0 -1.6
v 1.1 0 -1.6
v 1.3 0 -1.6
v -0.8 0.1 1.5
v -0.7 0.1 1.5
v -0.8 0.1 1.4
v -0.7 0.1 1.4
v -0.8 0.1 -1.4
v -0.7 0.1 -1.4
v -0.8 0.1 -1.5
v -0.7 0.1 -1.5
v 0.7 0.3 1.7
v 0.9 0.3 1.7
v 0.7 0.3 1.6
v 0.9 0.3 1.6
v 0.7 0.3 1.5
v 0.9 0.3 1.5
v 1.2 0.3 0.5
v 1.3 0.3 0.5
v 1.2 0.3 0.4
v 1.3 0.3 0.4
v 1.2 0.3 0.1
v 1.3 0.3 0.1
v 1.2 0.3 0
v 1.3 0.3 0
v 1.2 0.3 -0.4
v 1.3 0.3 -0.4
v 1.2 0.3 -0.5
v 1.3 0.3 -0.5
v 1.2 0.3 -0.6
v 1.3 0.3 -0.6
v 1.2 0.3 -0.7
v 1.3 0.3 -0.7
v -1.5 0.4 1.4
v -1.4 0.4 1.4
v -1.5 0.4 1.2
v -1.4 0.4 1.2
v -1.5 0.4 1.1
v -1.4 0.4 1.1
v -1.5 0.4 0.9
v -1.4 0.4 0.9
v -1.5 0.4 0.8
v -1.4 0.4 0.8
v -1.6 0.4 0.6
v -1.5 0.4 0.6
v -1.6 0.4 0.2
v -1.5 0.4 0.2
v -1.5 0.4 0
v -1.4 0.4 0
v 1.2 0.4 -1.2
v 1.3 0.4 -1.2
v 1.2 0.4 -1.3
v 1.3 0.4 -1.3
v 0.7 0.4 -1.5
v 0.9 0.4 -1.5
v 0.7 0.4 -1.6
v 0.9 0.4 -1.6
v 0.7 0.4 -1.7
v 0.9 0.4 -1.7
v 1.2 0.5 1.1
v 1.3 0.5 1.1
v 1.2 0.5 1
v 1.3 0.5 1
v 1.2 0.5 0.9
v 1.3 0.5 0.9
v 1.2 0.5 0.8
v 1.3 0.5 0.8
v 1.2 0.5 0.7
v 1.3 0.5 0.7
v 1.2 0.5 0.6
v 1.3 0.5 0.6
v 1.2 0.5 0.4
v 1.3 0.5 0.4
v 1.2 0.5 0.3
v 1.3 0.5 0.3
v 1.2 0.5 0.2
v 1.3 0.5 0.2
v 1.2 0.5 0.1
v 1.3 0.5 0.1
v 1.2 0.5 0
v 1.3 0.5 0
v 1.2 0.5 -0.0999999
v 1.3 0.5 -0.0999999
v 1.2 0.5 -0.2
v 1.3 0.5 -0.2
v 1.2 0.5 -0.3
v 1.3 0.5 -0.3
v 1.2 0.5 -0.5
v 1.3 0.5 -0.5
v 1.2 0.5 -0.7
v 1.3 0.5 -0.7
v 1.2 0.5 -1.1
v 1.3 0.5 -1.1
v 1.2 0.5 -1.2
v 1.3 0.5 -1.2
v 0.6 0.6 1.6
v 1 0.6 1.6
v 0.6 0.6 1.5
v 1 0.6 1.5
v 1.2 0.6 0.3
v 1.3 0.6 0.3
v 1.2 0.6 0.2
v 1.3 0.6 0.2
v 1.2 0.6 0.1
v 1.3 0.6 0.1
v 1.2 0.6 0
v 1.3 0.6 0
v 1.2 0.6 -0.0999999
v 1.3 0.6 -0.0999999
v 1.2 0.6 -0.2
v 1.3 0.6 -0.2
v 1.2 0.6 -0.4
v 1.3 0.6 -0.4
v 1.2 0.6 -0.5
v 1.3 0.6 -0.5
v 1.2 0.6 -0.7
v 1.3 0.6 -0.7
v 1.2 0.6 -0.8
v 1.3 0.6 -0.8
v -1.6 0.7 1.5
v -1.4 0.7 1.5
v -1.5 0.7 1.4
v -1.4 0.7 1.4
v 1.2 0.7 1.4
v 1.3 0.7 1.4
v -1.5 0.7 1.2
v -1.4 0.7 1.2
v -1.5 0.7 1.1
v -1.4 0.7 1.1
v -1.5 0.7 0.9
v -1.4 0.7 0.9
v -1.5 0.7 0.8
v -1.4 0.7 0.8
v 1.2 0.7 0.4
v 1.3 0.7 0.4
v 1.2 0.7 0.2
v 1.3 0.7 0.2
v 1.2 0.7 0.1
v 1.3 0.7 0.1
v -1.5 0.7 0
v -1.4 0.7 0
v 1.2 0.7 0
v 1.3 0.7 0
v -1.6 0.7 -0.0999999
v -1.4 0.7 -0.0999999
v 1.2 0.7 -0.0999999
v 1.3 0.7 -0.0999999
v -1.6 0.7 -0.3
v -1.5 0.7 -0.3
v 1.2 0.7 -0.3
v 1.3 0.7 -0.3
v -1.6 0.7 -0.4
v -1.5 0.7 -0.4
v 1.2 0.7 -0.4
v 1.3 0.7 -0.4
v -1.6 0.7 -0.5
v -1.5 0.7 -0.5
v -1.6 0.7 -0.6
v -1.5 0.7 -0.6
v -1.6 0.7 -0.7
v -1.5 0.7 -0.7
v -1.6 0.7 -0.8
v -1.5 0.7 -0.8
v 1.2 0.7 -0.8
v 1.3 0.7 -0.8
v -1.6 0.7 -0.9
v -1.5 0.7 -0.9
v -1.6 0.7 -1
v -1.5 0.7 -1
v -1.6 0.7 -1.1
v -1.5 0.7 -1.1
v -1.6 0.7 -1.2
v -1.5 0.7 -1.2
v -1.6 0.7 -1.3
v -1.5 0.7 -1.3
v -1.6 0.7 -1.4
v -1.5 0.7 -1.4
v 1.2 0.7 -1.4
v 1.3 0.7 -1.4
v 0.6 0.7 -1.5
v 1 0.7 -1.5
v 0.6 0.7 -1.6
v 1 0.7 -1.6
v 0.6 0.2 1.6
v 1 0.2 1.6
v -1.6 0.2 1.5
v -1.5 0.2 1.5
v 0.6 0.2 1.5
v 1 0.2 1.5
v 1.2 0.2 1.4
v 1.3 0.2 1.4
v 1.2 0.2 1.3
v 1.3 0.2 1.3
v -1.5 0.2 1.2
v -1.4 0.2 1.2
v 1.2 0.2 0.9
v 1.3 0.2 0.9
v 1.2 0.2 0.6
v 1.3 0.2 0.6
v 1.2 0.2 0.5
v 1.3 0.2 0.5
v 1.2 0.2 0.4
v 1.3 0.2 0.4
v 1.2 0.2 0.3
v 1.3 0.2 0.3
v 1.2 0.2 0.2
v 1.3 0.2 0.2
v 1.2 0.2 0.1
v 1.3 0.2 0.1
v 1.2 0.2 0
v 1.3 0.2 0
v -1.6 0.2 -0.0999999
v -1.4 0.2 -0.0999999
v 1.2 0.2 -0.0999999
v 1.3 0.2 -0.0999999
v -1.6 0.2 -0.3
v -1.5 0.2 -0.3
v 1.2 0.2 -0.3
v 1.3 0.2 -0.3
v -1.6 0.2 -0.4
v -1.5 0.2 -0.4
v 1.2 0.2 -0.4
v 1.3 0.2 -0.4
v -1.6 0.2 -0.5
v -1.5 0.2 -0.5
v 1.2 0.2 -0.5
v 1.3 0.2 -0.5
v -1.6 0.2 -0.6
v -1.5 0.2 -0.6
v 1.2 0.2 -0.6
v 1.3 0.2 -0.6
v -1.6 0.2 -0.7
v -1.5 0.2 -0.7
v 1.2 0.2 -0.7
v 1.3 0.2 -0.7
v -1.6 0.2 -0.8
v -1.5 0.2 -0.8
v 1.2 0.2 -0.8
v 1.3 0.2 -0.8
v -1.6 0.2 -0.9
v -1.5 0.2 -0.9
v -1.6 0.2 -1
v -1.5 0.2 -1
v 1.2 0.2 -1
v 1.3 0.2 -1
v -1.6 0.2 -1.1
v -1.5 0.2 -1.1
v -1.6 0.2 -1.2
v -1.5 0.2 -1.2
v -1.6 0.2 -1.3
v -1.5 0.2 -1.3
v -1.6 0.2 -1.4
v -1.5 0.2 -1.4
v -1.5 0.3 1.5
v -1.4 0.3 1.5
v 1.2 0.3 1.3
v 1.3 0.3 1.3
v -1.5 0.3 1.2
v -1.4 0.3 1.2
v 1.2 0.3 1.2
v 1.3 0.3 1.2
v 1.2 0.3 1
v 1.3 0.3 1
v 1.2 0.3 0.9
v 1.3 0.3 0.9
v 1.2 0.3 0.6
v 1.3 0.3 0.6
v 1.2 0.3 0.5
v 1.3 0.3 0.5
v 1.2 0.3 0.4
v 1.3 0.3 0.4
v 1.2 0.3 0.3
v 1.3 0.3 0.3
v 1.2 0.3 0.2
v 1.3 0.3 0.2
v 1.2 0.3 0.1
v 1.3 0.3 0.1
v 1.2 0.3 0
v 1.3 0.3 0
v 1.2 0.3 -0.0999999
v 1.3 0.3 -0.0999999
v 1.2 0.3 -0.3
v 1.3 0.3 -0.3
v 1.2 0.3 -0.4
v 1.3 0.3 -0.4
v 1.2 0.3 -0.7
v 1.3 0.3 -0.7
v 1.2 0.3 -0.8
v 1.3 0.3 -0.8
v 1.2 0.3 -1.2
v 1.3 0.3 -1.2
v 1.2 0.3 -1.3
v 1.3 0.3 -1.3
v 0.6 0.3 -1.5
v 1 0.3 -1.5
v 0.6 0.3 -1.6
v 1 0.3 -1.6
v 1.2 0.4 1.2
v 1.3 0.4 1.2
v 1.2 0.4 1
v 1.3 0.4 1
v 1.2 0.4 0.5
v 1.3 0.4 0.5
v 1.2 0.4 0.4
v 1.3 0.4 0.4
v 1.2 0.4 0.1
v 1.3 0.4 0.1
v 1.2 0.4 0
v 1.3 0.4 0
v 1.2 0.4 -0.4
v 1.3 0.4 -0.4
v 1.2 0.4 -0.7
v 1.3 0.4 -0.7
v 1.2 0.4 -1.1
v 1.3 0.4 -1.1
v 1.2 0.4 -1.2
v 1.3 0.4 -1.2
v 0.7 0.5 1.7
v 0.9 0.5 1.7
v 0.7 0.5 1.6
v 0.9 0.5 1.6
v 0.7 0.5 1.5
v 0.9 0.5 1.5
v -1.6 0.5 0.6
v -1.5 0.5 0.6
v -1.6 0.5 0.2
v -1.5 0.5 0.2
v 1.2 0.6 1.1
v 1.3 0.6 1.1
v 1.2 0.6 1
v 1.3 0.6 1
v 1.2 0.6 0.9
v 1.3 0.6 0.9
v 1.2 0.6 0.8
v 1.3 0.6 0.8
v 1.2 0.6 0.7
v 1.3 0.6 0.7
v 1.2 0.6 0.6
v 1.3 0.6 0.6
v 1.2 0.6 0.2
v 1.3 0.6 0.2
v 1.2 0.6 0.1
v 1.3 0.6 0.1
v 1.2 0.6 0
v 1.3 0.6 0
v 1.2 0.6 -0.0999999
v 1.3 0.6 -0.0999999
v 1.2 0.6 -1
v 1.3 0.6 -1
v 1.2 0.6 -1.4
v 1.3 0.6 -1.4
v 0.7 0.6 -1.5
v 0.9 0.6 -1.5
v 0.7 0.6 -1.6
v 0.9 0.6 -1.6
v 0.7 0.6 -1.7
v 0.9 0.6 -1.7
v -0.8 0.8 1.5
v -0.7 0.8 1.5
v -0.8 0.8 1.4
v -0.7 0.8 1.4
v -0.8 0.8 -1.4
v -0.7 0.8 -1.4
v -0.8 0.8 -1.5
v -0.7 0.8 -1.5
v -1.6 0.9 1.6
v -1.4 0.9 1.6
v -1 0.9 1.6
v -0.8 0.9 1.6
v -0.7 0.9 1.6
v -0.5 0.9 1.6
v 1.1 0.9 1.6
v 1.3 0.9 1.6
v -1.5 0.9 1.5
v -1.4 0.9 1.5
v -1 0.9 1.5
v -0.9 0.9 1.5
v -0.6 0.9 1.5
v -0.5 0.9 1.5
v 1.1 0.9 1.5
v 1.2 0.9 1.5
v -1.6 0.9 1.4
v -1.5 0.9 1.4
v -0.9 0.9 1.4
v -0.8 0.9 1.4
v -0.7 0.9 1.4
v -0.6 0.9 1.4
v 1.2 0.9 1.4
v 1.3 0.9 1.4
v -1 0.9 1.1
v -0.9 0.9 1.1
v -0.4 0.9 1.1
v -0.3 0.9 1.1
v -0.4 0.9 0.7
v -0.3 0.9 0.7
v 0.3 0.9 0.7
v 0.4 0.9 0.7
v -1 0.9 0.6
v -0.9 0.9 0.6
v -1.3 0.9 0.4
v -1.2 0.9 0.4
v 0.8 0.9 -0.0999999
v 0.9 0.9 -0.0999999
v -1.3 0.9 -0.2
v -1.2 0.9 -0.2
v -0.3 0.9 -0.2
v -0.2 0.9 -0.2
v 0.3 0.9 -0.5
v 0.4 0.9 -0.5
v -1.2 0.9 -0.6
v -1.1 0.9 -0.6
v -0.3 0.9 -0.7
v -0.2 0.9 -0.7
v -1.5 0.9 -1
v -1.4 0.9 -1
v -1.2 0.9 -1
v -1.1 0.9 -1
v 0.8 0.9 -1.1
v 0.9 0.9 -1.1
v -1.5 0.9 -1.3
v -1.4 0.9 -1.3
v -1.6 0.9 -1.4
v -1.5 0.9 -1.4
v -0.9 0.9 -1.4
v -0.8 0.9 -1.4
v -0.7 0.9 -1.4
v -0.6 0.9 -1.4
v 1.2 0.9 -1.4
v 1.3 0.9 -1.4
v -1.5 0.9 -1.5
v -1.4 0.9 -1.5
v -1 0.9 -1.5
v -0.9 0.9 -1.5
v -0.6 0.9 -1.5
v -0.5 0.9 -1.5
v 1.1 0.9 -1.5
v 1.2 0.9 -1.5
v -1.6 0.9 -1.6
v -1.4 0.9 -1.6
v -1 0.9 -1.6
v -0.8 0.9 -1.6
v -0.7 0.9 -1.6
v -0.5 0.9 -1.6
v 1.1 0.9 -1.6
v 1.3 0.9 -1.6

# faces
f 5/11/1 2/11/1 1/11/1
f 6/14/1 3/14/1 2/14/1
f 6/11/1 2/11/1 5/11/1
f 7/11/1 4/11/1 3/11/1
f 7/14/1 3/14/1 6/14/1
f 8/11/1 4/11/1 7/11/1
f 9/11/1 5/11/1 1/11/1
f 10/14/1 6/14/1 5/14/1
f 10/11/1 5/11/1 9/11/1
f 10/14/1 7/14/1 6/14/1
f 10/14/1 8/14/1 7/14/1
f 11/14/1 8/14/1 10/14/1
f 12/14/1 8/14/1 11/14/1
f 13/14/1 8/14/1 12/14/1
f 14/14/1 8/14/1 13/14/1
f 15/14/1 8/14/1 14/14/1
f 16/14/1 8/14/1 15/14/1
f 17/14/1 8/14/1 16/14/1
f 18/14/1 8/14/1 17/14/1
f 19/14/1 8/14/1 18/14/1
f 20/14/1 8/14/1 19/14/1
f 21/14/1 8/14/1 20/14/1
f 22/14/1 8/14/1 21/14/1
f 23/14/1 8/14/1 22/14/1
f 24/11/1 4/11/1 8/11/1
f 24/14/1 8/14/1 23/14/1
f 25/11/1 4/11/1 24/11/1
f 28/14/1 27/14/1 26/14/1
f 29/14/1 27/14/1 28/14/1
f 30/14/1 10/14/1 9/14/1
f 31/14/1 10/14/1 30/14/1
f 32/14/1 12/14/1 11/14/1
f 33/14/1 12/14/1 32/14/1
f 34/14/1 14/14/1 13/14/1
f 35/14/1 14/14/1 34/14/1
f 36/14/1 16/14/1 15/14/1
f 37/14/1 16/14/1 36/14/1
f 38/14/1 18/14/1 17/14/1
f 39/14/1 18/14/1 38/14/1
f 40/14/1 20/14/1 19/14/1
f 41/14/1 20/14/1 40/14/1
f 42/14/1 22/14/1 21/14/1
f 43/14/1 22/14/1 42/14/1
f 44/14/1 25/14/1 24/14/1
f 44/14/1 24/14/1 23/14/1
f 45/14/1 25/14/1 44/14/1
f 46/14/1 25/14/1 45/14/1
f 47/11/1 31/11/1 30/11/1
f 47/14/1 43/14/1 42/14/1
f 47/14/1 42/14/1 41/14/1
f 47/14/1 45/14/1 44/14/1
f 47/14/1 44/14/1 43/14/1
f 47/14/1 33/14/1 32/14/1
f 47/14/1 41/14/1 40/14/1
f 47/14/1 40/14/1 39/14/1
f 47/14/1 35/14/1 34/14/1
f 47/14/1 38/14/1 37/14/1
f 47/14/1 39/14/1 38/14/1
f 47/14/1 36/14/1 35/14/1
f 47/14/1 37/14/1 36/14/1
f 47/14/1 34/14/1 33/14/1
f 47/14/1 32/14/1 31/14/1
f 48/14/1 45/14/1 47/14/1
f 49/14/1 45/14/1 48/14/1
f 50/11/1 46/11/1 45/11/1
f 50/14/1 45/14/1 49/14/1
f 51/11/1 47/11/1 30/11/1
f 51/11/1 48/11/1 47/11/1
f 52/14/1 49/14/1 48/14/1
f 52/11/1 48/11/1 51/11/1
f 53/11/1 50/11/1 49/11/1
f 53/14/1 49/14/1 52/14/1
f 54/11/1 46/11/1 50/11/1
f 54/11/1 50/11/1 53/11/1
f 69/14/1 56/14/1 55/14/1
f 70/14/1 56/14/1 69/14/1
f 71/8/1 58/8/1 57/8/1
f 72/8/1 58/8/1 71/8/1
f 73/8/1 60/8/1 59/8/1
f 74/8/1 60/8/1 73/8/1
f 75/8/1 62/8/1 61/8/1
f 76/8/1 62/8/1 75/8/1
f 77/8/1 64/8/1 63/8/1
f 78/8/1 64/8/1 77/8/1
f 79/8/1 66/8/1 65/8/1
f 80/8/1 66/8/1 79/8/1
f 81/8/1 68/8/1 67/8/1
f 82/8/1 68/8/1 81/8/1
f 91/14/1 88/14/1 87/14/1
f 92/14/1 90/14/1 89/14/1
f 93/6/1 72/6/1 71/6/1
f 94/6/1 72/6/1 93/6/1
f 95/6/1 74/6/1 73/6/1
f 96/6/1 74/6/1 95/6/1
f 97/6/1 76/6/1 75/6/1
f 98/6/1 76/6/1 97/6/1
f 99/6/1 78/6/1 77/6/1
f 100/6/1 78/6/1 99/6/1
f 101/6/1 80/6/1 79/6/1
f 102/6/1 80/6/1 101/6/1
f 103/6/1 82/6/1 81/6/1
f 104/6/1 82/6/1 103/6/1
f 105/14/1 84/14/1 83/14/1
f 106/14/1 84/14/1 105/14/1
f 107/14/1 86/14/1 85/14/1
f 108/14/1 86/14/1 107/14/1
f 109/14/1 92/14/1 91/14/1
f 109/14/1 91/14/1 87/14/1
f 110/14/1 90/14/1 92/14/1
f 110/14/1 92/14/1 109/14/1
f 111/8/1 94/8/1 93/8/1
f 112/8/1 94/8/1 111/8/1
f 113/8/1 96/8/1 95/8/1
f 114/8/1 96/8/1 113/8/1
f 115/8/1 98/8/1 97/8/1
f 116/8/1 98/8/1 115/8/1
f 117/8/1 100/8/1 99/8/1
f 118/8/1 100/8/1 117/8/1
f 119/8/1 102/8/1 101/8/1
f 120/8/1 102/8/1 119/8/1
f 121/8/1 104/8/1 103/8/1
f 122/8/1 104/8/1 121/8/1
f 126/8/1 124/8/1 123/8/1
f 127/8/1 126/8/1 125/8/1
f 128/8/1 124/8/1 126/8/1
f 128/8/1 126/8/1 127/8/1
f 129/8/1 124/8/1 128/8/1
f 130/8/1 124/8/1 129/8/1
f 131/8/1 124/8/1 130/8/1
f 132/8/1 124/8/1 131/8/1
f 133/8/1 127/8/1 125/8/1
f 134/8/1 127/8/1 133/8/1
f 135/8/1 129/8/1 128/8/1
f 136/8/1 129/8/1 135/8/1
f 137/8/1 131/8/1 130/8/1
f 138/8/1 131/8/1 137/8/1
f 139/8/1 124/8/1 132/8/1
f 140/8/1 124/8/1 139/8/1
f 145/11/1 142/11/1 141/11/1
f 146/11/1 142/11/1 145/11/1
f 147/14/1 143/14/1 142/14/1
f 147/11/1 142/11/1 146/11/1
f 148/11/1 144/11/1 143/11/1
f 148/14/1 143/14/1 147/14/1
f 149/11/1 144/11/1 148/11/1
f 150/11/1 144/11/1 149/11/1
f 151/11/1 144/11/1 150/11/1
f 152/14/1 146/14/1 145/14/1
f 153/14/1 146/14/1 152/14/1
f 154/14/1 151/14/1 150/14/1
f 155/14/1 151/14/1 154/14/1
f 156/11/1 153/11/1 152/11/1
f 159/11/1 155/11/1 154/11/1
f 160/11/1 156/11/1 152/11/1
f 160/11/1 157/11/1 156/11/1
f 161/14/1 158/14/1 157/14/1
f 161/11/1 157/11/1 160/11/1
f 162/11/1 159/11/1 158/11/1
f 162/14/1 158/14/1 161/14/1
f 163/11/1 155/11/1 159/11/1
f 163/11/1 159/11/1 162/11/1
f 170/11/1 165/11/1 164/11/1
f 171/14/1 166/14/1 165/14/1
f 171/11/1 165/11/1 170/11/1
f 172/14/1 166/14/1 171/14/1
f 173/14/1 168/14/1 167/14/1
f 174/11/1 169/11/1 168/11/1
f 174/14/1 168/14/1 173/14/1
f 175/11/1 169/11/1 174/11/1
f 180/14/1 177/14/1 176/14/1
f 181/14/1 177/14/1 180/14/1
f 182/14/1 179/14/1 178/14/1
f 183/14/1 179/14/1 182/14/1
f 184/11/2 185/11/2 188/11/2
f 185/14/2 186/14/2 189/14/2
f 188/11/2 185/11/2 189/11/2
f 186/11/2 187/11/2 190/11/2
f 189/14/2 186/14/2 190/14/2
f 190/11/2 187/11/2 191/11/2
f 184/11/2 188/11/2 192/11/2
f 192/11/2 188/11/2 193/11/2
f 191/11/2 187/11/2 194/11/2
f 194/11/2 187/11/2 195/11/2
f 192/14/2 193/14/2 196/14/2
f 196/14/2 193/14/2 197/14/2
f 194/14/2 195/14/2 198/14/2
f 198/14/2 195/14/2 199/14/2
f 196/11/2 197/11/2 200/11/2
f 198/11/2 199/11/2 203/11/2
f 196/11/2 200/11/2 204/11/2
f 200/11/2 201/11/2 204/11/2
f 201/14/2 202/14/2 205/14/2
f 204/11/2 201/11/2 205/11/2
f 202/11/2 203/11/2 206/11/2
f 205/14/2 202/14/2 206/14/2
f 203/11/2 199/11/2 207/11/2
f 206/11/2 203/11/2 207/11/2
f 208/14/2 209/14/2 212/14/2
f 212/14/2 209/14/2 213/14/2
f 210/14/2 211/14/2 214/14/2
f 214/14/2 211/14/2 215/14/2
f 216/11/2 217/11/2 222/11/2
f 217/14/2 218/14/2 223/14/2
f 222/11/2 217/11/2 223/11/2
f 223/14/2 218/14/2 224/14/2
f 219/14/2 220/14/2 225/14/2
f 220/11/2 221/11/2 226/11/2
f 225/14/2 220/14/2 226/14/2
f 226/11/2 221/11/2 227/11/2
f 228/8/2 229/8/2 246/8/2
f 230/8/2 231/8/2 249/8/2
f 249/8/2 231/8/2 250/8/2
f 232/6/2 233/6/2 251/6/2
f 251/6/2 233/6/2 252/6/2
f 234/8/2 235/8/2 253/8/2
f 253/8/2 235/8/2 254/8/2
f 236/6/2 237/6/2 255/6/2
f 255/6/2 237/6/2 256/6/2
f 238/8/2 239/8/2 257/8/2
f 257/8/2 239/8/2 258/8/2
f 240/6/2 241/6/2 259/6/2
f 259/6/2 241/6/2 260/6/2
f 242/6/2 243/6/2 261/6/2
f 261/6/2 243/6/2 262/6/2
f 244/8/2 245/8/2 263/8/2
f 246/8/2 247/8/2 266/8/2
f 249/8/2 250/8/2 267/8/2
f 248/8/2 249/8/2 267/8/2
f 250/8/2 251/8/2 267/8/2
f 267/8/2 251/8/2 268/8/2
f 253/8/2 254/8/2 269/8/2
f 252/8/2 253/8/2 269/8/2
f 254/8/2 255/8/2 269/8/2
f 269/8/2 255/8/2 270/8/2
f 257/8/2 258/8/2 271/8/2
f 258/8/2 259/8/2 271/8/2
f 256/8/2 257/8/2 271/8/2
f 271/8/2 259/8/2 272/8/2
f 262/8/2 263/8/2 273/8/2
f 264/6/2 265/6/2 275/6/2
f 275/6/2 265/6/2 276/6/2
f 272/8/2 273/8/2 277/8/2
f 271/8/2 272/8/2 277/8/2
f 267/8/2 268/8/2 277/8/2
f 269/8/2 270/8/2 277/8/2
f 268/8/2 269/8/2 277/8/2
f 266/8/2 267/8/2 277/8/2
f 270/8/2 271/8/2 277/8/2
f 277/8/2 273/8/2 278/8/2
f 278/8/2 273/8/2 279/8/2
f 279/8/2 273/8/2 280/8/2
f 280/8/2 273/8/2 281/8/2
f 281/8/2 273/8/2 282/8/2
f 282/8/2 273/8/2 283/8/2
f 283/8/2 273/8/2 284/8/2
f 284/8/2 273/8/2 285/8/2
f 285/8/2 273/8/2 286/8/2
f 286/8/2 273/8/2 287/8/2
f 287/8/2 273/8/2 288/8/2
f 288/8/2 273/8/2 289/8/2
f 289/8/2 273/8/2 290/8/2
f 290/8/2 273/8/2 291/8/2
f 273/8/2 263/8/2 292/8/2
f 291/8/2 273/8/2 292/8/2
f 274/6/2 275/6/2 293/6/2
f 293/6/2 275/6/2 294/6/2
f 266/8/2 277/8/2 295/8/2
f 278/8/2 279/8/2 296/8/2
f 296/8/2 279/8/2 297/8/2
f 280/8/2 281/8/2 298/8/2
f 298/8/2 281/8/2 299/8/2
f 282/8/2 283/8/2 300/8/2
f 284/8/2 285/8/2 301/8/2
f 301/8/2 285/8/2 302/8/2
f 286/8/2 287/8/2 303/8/2
f 303/8/2 287/8/2 304/8/2
f 288/8/2 289/8/2 305/8/2
f 305/8/2 289/8/2 306/8/2
f 290/8/2 291/8/2 307/8/2
f 307/8/2 291/8/2 308/8/2
f 292/8/2 263/8/2 309/8/2
f 263/8/2 245/8/2 310/8/2
f 309/8/2 263/8/2 310/8/2
f 310/8/2 245/8/2 311/8/2
f 246/8/2 266/8/2 313/8/2
f 228/8/2 246/8/2 313/8/2
f 266/8/2 295/8/2 313/8/2
f 296/8/2 297/8/2 313/8/2
f 298/8/2 299/8/2 313/8/2
f 297/8/2 298/8/2 313/8/2
f 299/8/2 300/8/2 313/8/2
f 295/8/2 296/8/2 313/8/2
f 300/8/2 283/8/2 314/8/2
f 313/8/2 300/8/2 314/8/2
f 302/8/2 303/8/2 315/8/2
f 315/8/2 303/8/2 316/8/2
f 304/8/2 305/8/2 317/8/2
f 317/8/2 305/8/2 318/8/2
f 290/8/2 307/8/2 319/8/2
f 319/8/2 307/8/2 320/8/2
f 310/8/2 311/8/2 321/8/2
f 311/8/2 312/8/2 321/8/2
f 321/8/2 312/8/2 322/8/2
f 323/11/2 324/11/2 327/11/2
f 324/14/2 325/14/2 328/14/2
f 327/11/2 324/11/2 328/11/2
f 325/11/2 326/11/2 329/11/2
f 328/14/2 325/14/2 329/14/2
f 329/11/2 326/11/2 330/11/2
f 323/11/2 327/11/2 331/11/2
f 327/14/2 328/14/2 332/14/2
f 331/11/2 327/11/2 332/11/2
f 328/14/2 329/14/2 332/14/2
f 329/14/2 330/14/2 332/14/2
f 332/14/2 330/14/2 333/14/2
f 333/14/2 330/14/2 334/14/2
f 334/14/2 330/14/2 335/14/2
f 335/14/2 330/14/2 336/14/2
f 336/14/2 330/14/2 337/14/2
f 337/14/2 330/14/2 338/14/2
f 338/14/2 330/14/2 339/14/2
f 339/14/2 330/14/2 340/14/2
f 340/14/2 330/14/2 341/14/2
f 341/14/2 330/14/2 342/14/2
f 342/14/2 330/14/2 343/14/2
f 343/14/2 330/14/2 344/14/2
f 344/14/2 330/14/2 345/14/2
f 345/14/2 330/14/2 346/14/2
f 346/14/2 330/14/2 347/14/2
f 347/14/2 330/14/2 348/14/2
f 348/14/2 330/14/2 349/14/2
f 349/14/2 330/14/2 350/14/2
f 350/14/2 330/14/2 351/14/2
f 330/11/2 326/11/2 352/11/2
f 351/14/2 330/14/2 352/14/2
f 352/11/2 326/11/2 353/11/2
f 334/12/2 335/12/2 354/12/2
f 354/12/2 335/12/2 355/12/2
f 355/12/2 335/12/2 356/12/2
f 356/12/2 335/12/2 357/12/2
f 336/9/2 337/9/2 358/9/2
f 358/9/2 337/9/2 359/9/2
f 338/9/2 339/9/2 360/9/2
f 360/9/2 339/9/2 361/9/2
f 340/9/2 341/9/2 362/9/2
f 362/9/2 341/9/2 363/9/2
f 342/9/2 343/9/2 364/9/2
f 364/9/2 343/9/2 365/9/2
f 344/9/2 345/9/2 366/9/2
f 366/9/2 345/9/2 367/9/2
f 346/9/2 347/9/2 368/9/2
f 368/9/2 347/9/2 369/9/2
f 348/9/2 349/9/2 370/9/2
f 370/9/2 349/9/2 371/9/2
f 350/9/2 351/9/2 372/9/2
f 372/9/2 351/9/2 373/9/2
f 355/13/2 356/13/2 374/13/2
f 374/13/2 356/13/2 375/13/2
f 359/9/2 360/9/2 376/9/2
f 376/9/2 360/9/2 377/9/2
f 363/9/2 364/9/2 378/9/2
f 378/9/2 364/9/2 379/9/2
f 368/9/2 369/9/2 380/9/2
f 369/9/2 370/9/2 380/9/2
f 367/9/2 368/9/2 380/9/2
f 380/9/2 370/9/2 381/9/2
f 350/9/2 372/9/2 382/9/2
f 382/9/2 372/9/2 383/9/2
f 373/9/2 351/9/2 384/9/2
f 350/9/2 382/9/2 401/9/2
f 383/9/2 384/9/2 402/9/2
f 385/5/2 386/5/2 403/5/2
f 403/5/2 386/5/2 404/5/2
f 387/10/2 388/10/2 405/10/2
f 405/10/2 388/10/2 406/10/2
f 389/7/2 390/7/2 407/7/2
f 407/7/2 390/7/2 408/7/2
f 391/4/2 392/4/2 409/4/2
f 393/4/2 394/4/2 410/4/2
f 410/4/2 394/4/2 411/4/2
f 395/4/2 396/4/2 412/4/2
f 412/4/2 396/4/2 413/4/2
f 397/4/2 398/4/2 414/4/2
f 399/2/2 400/2/2 416/2/2
f 416/2/2 400/2/2 417/2/2
f 350/9/2 401/9/2 419/9/2
f 401/9/2 402/9/2 419/9/2
f 352/14/2 353/14/2 420/14/2
f 419/9/2 402/9/2 420/9/2
f 351/14/2 352/14/2 420/14/2
f 384/9/2 351/9/2 420/9/2
f 402/9/2 384/9/2 420/9/2
f 331/14/2 332/14/2 421/14/2
f 332/14/2 333/14/2 421/14/2
f 421/14/2 333/14/2 422/14/2
f 422/14/2 333/14/2 423/14/2
f 391/4/2 409/4/2 424/4/2
f 409/3/2 410/3/2 425/3/2
f 424/4/2 409/4/2 425/4/2
f 425/3/2 410/3/2 426/3/2
f 411/3/2 412/3/2 427/3/2
f 427/3/2 412/3/2 428/3/2
f 413/3/2 414/3/2 429/3/2
f 414/4/2 398/4/2 430/4/2
f 429/3/2 414/3/2 430/3/2
f 430/4/2 398/4/2 431/4/2
f 415/2/2 416/2/2 432/2/2
f 416/1/2 417/1/2 433/1/2
f 432/2/2 416/2/2 433/2/2
f 417/2/2 418/2/2 434/2/2
f 433/1/2 417/1/2 434/1/2
f 434/2/2 418/2/2 435/2/2
f 420/14/2 353/14/2 436/14/2
f 436/14/2 353/14/2 437/14/2
f 437/14/2 353/14/2 438/14/2
f 432/14/2 433/14/2 439/14/2
f 434/14/2 435/14/2 439/14/2
f 430/14/2 431/14/2 439/14/2
f 436/14/2 437/14/2 439/14/2
f 435/14/2 436/14/2 439/14/2
f 427/14/2 428/14/2 439/14/2
f 433/14/2 434/14/2 439/14/2
f 431/14/2 432/14/2 439/14/2
f 429/14/2 430/14/2 439/14/2
f 425/14/2 426/14/2 439/14/2
f 426/14/2 427/14/2 439/14/2
f 423/14/2 424/14/2 439/14/2
f 424/14/2 425/14/2 439/14/2
f 422/14/2 423/14/2 439/14/2
f 421/11/2 422/11/2 439/11/2
f 428/14/2 429/14/2 439/14/2
f 439/14/2 437/14/2 440/14/2
f 440/14/2 437/14/2 441/14/2
f 437/11/2 438/11/2 442/11/2
f 441/14/2 437/14/2 442/14/2
f 421/11/2 439/11/2 443/11/2
f 439/11/2 440/11/2 443/11/2
f 440/14/2 441/14/2 444/14/2
f 443/11/2 440/11/2 444/11/2
f 441/11/2 442/11/2 445/11/2
f 444/14/2 441/14/2 445/14/2
f 442/11/2 438/11/2 446/11/2
f 445/11/2 442/11/2 446/11/2
f 449/11/3 448/11/3 447/11/3
f 450/11/3 448/11/3 449/11/3
f 455/11/3 452/11/3 451/11/3
f 456/14/3 453/14/3 452/14/3
f 456/11/3 452/11/3 455/11/3
f 457/11/3 454/11/3 453/11/3
f 457/14/3 453/14/3 456/14/3
f 458/11/3 454/11/3 457/11/3
f 459/11/3 455/11/3 451/11/3
f 460/14/3 456/14/3 455/14/3
f 460/11/3 455/11/3 459/11/3
f 460/14/3 457/14/3 456/14/3
f 460/14/3 458/14/3 457/14/3
f 461/14/3 458/14/3 460/14/3
f 462/14/3 458/14/3 461/14/3
f 463/11/3 454/11/3 458/11/3
f 463/14/3 458/14/3 462/14/3
f 464/11/3 454/11/3 463/11/3
f 465/14/3 460/14/3 459/14/3
f 465/14/3 461/14/3 460/14/3
f 466/14/3 461/14/3 465/14/3
f 467/11/3 462/11/3 461/11/3
f 467/14/3 461/14/3 466/14/3
f 468/14/3 464/14/3 463/14/3
f 468/11/3 462/11/3 467/11/3
f 468/14/3 463/14/3 462/14/3
f 469/11/3 466/11/3 465/11/3
f 469/14/3 465/14/3 459/14/3
f 470/14/3 467/14/3 466/14/3
f 470/11/3 466/11/3 469/11/3
f 470/14/3 468/14/3 467/14/3
f 471/14/3 470/14/3 469/14/3
f 471/14/3 468/14/3 470/14/3
f 472/14/3 464/14/3 468/14/3
f 472/14/3 468/14/3 471/14/3
f 473/14/3 471/14/3 469/14/3
f 473/14/3 469/14/3 459/14/3
f 474/14/3 471/14/3 473/14/3
f 475/11/3 472/11/3 471/11/3
f 475/14/3 471/14/3 474/14/3
f 476/14/3 464/14/3 472/14/3
f 476/11/3 472/11/3 475/11/3
f 477/14/3 464/14/3 476/14/3
f 478/14/3 464/14/3 477/14/3
f 479/14/3 475/14/3 474/14/3
f 479/11/3 474/11/3 473/11/3
f 479/14/3 476/14/3 475/14/3
f 479/14/3 477/14/3 476/14/3
f 480/14/3 477/14/3 479/14/3
f 481/14/3 477/14/3 480/14/3
f 482/11/3 478/11/3 477/11/3
f 482/14/3 477/14/3 481/14/3
f 483/11/3 479/11/3 473/11/3
f 483/11/3 480/11/3 479/11/3
f 484/14/3 481/14/3 480/14/3
f 484/11/3 480/11/3 483/11/3
f 485/11/3 482/11/3 481/11/3
f 485/14/3 481/14/3 484/14/3
f 486/11/3 478/11/3 482/11/3
f 486/11/3 482/11/3 485/11/3
f 491/14/3 489/14/3 488/14/3
f 491/11/3 490/11/3 489/11/3
f 492/11/3 490/11/3 491/11/3
f 493/11/3 488/11/3 487/11/3
f 494/14/3 491/14/3 488/14/3
f 494/11/3 488/11/3 493/11/3
f 494/14/3 492/14/3 491/14/3
f 495/11/3 490/11/3 492/11/3
f 495/14/3 492/14/3 494/14/3
f 496/11/3 490/11/3 495/11/3
f 497/14/3 494/14/3 493/14/3
f 497/14/3 495/14/3 494/14/3
f 497/14/3 496/14/3 495/14/3
f 498/14/3 496/14/3 497/14/3
f 499/14/3 497/14/3 493/14/3
f 499/11/3 498/11/3 497/11/3
f 500/14/3 496/14/3 498/14/3
f 500/11/3 498/11/3 499/11/3
f 501/14/3 499/14/3 493/14/3
f 501/14/3 500/14/3 499/14/3
f 502/14/3 500/14/3 501/14/3
f 503/14/3 501/14/3 493/14/3
f 503/11/3 502/11/3 501/11/3
f 504/14/3 500/14/3 502/14/3
f 504/11/3 502/11/3 503/11/3
f 505/14/3 504/14/3 503/14/3
f 505/14/3 500/14/3 504/14/3
f 506/14/3 496/14/3 500/14/3
f 506/14/3 500/14/3 505/14/3
f 507/14/3 505/14/3 503/14/3
f 507/11/3 506/11/3 505/11/3
f 508/14/3 496/14/3 506/14/3
f 508/11/3 506/11/3 507/11/3
f 509/14/3 507/14/3 503/14/3
f 509/14/3 508/14/3 507/14/3
f 510/14/3 508/14/3 509/14/3
f 511/14/3 509/14/3 503/14/3
f 512/14/3 508/14/3 510/14/3
f 513/14/3 503/14/3 493/14/3
f 513/14/3 512/14/3 511/14/3
f 513/14/3 511/14/3 503/14/3
f 514/14/3 512/14/3 513/14/3
f 515/14/3 496/14/3 508/14/3
f 515/14/3 512/14/3 514/14/3
f 515/14/3 508/14/3 512/14/3
f 516/14/3 496/14/3 515/14/3
f 517/11/3 514/11/3 513/11/3
f 517/14/3 515/14/3 514/14/3
f 518/14/3 515/14/3 517/14/3
f 519/14/3 515/14/3 518/14/3
f 520/11/3 516/11/3 515/11/3
f 520/14/3 515/14/3 519/14/3
f 521/11/3 517/11/3 513/11/3
f 521/11/3 518/11/3 517/11/3
f 522/14/3 519/14/3 518/14/3
f 522/11/3 518/11/3 521/11/3
f 523/11/3 520/11/3 519/11/3
f 523/14/3 519/14/3 522/14/3
f 524/11/3 516/11/3 520/11/3
f 524/11/3 520/11/3 523/11/3
f 529/8/3 526/8/3 525/8/3
f 529/8/3 528/8/3 527/8/3
f 529/8/3 527/8/3 526/8/3
f 530/8/3 528/8/3 529/8/3
f 531/8/3 528/8/3 530/8/3
f 534/8/3 533/8/3 532/8/3
f 535/8/3 533/8/3 534/8/3
f 536/8/3 534/8/3 532/8/3
f 537/8/3 533/8/3 535/8/3
f 538/8/3 536/8/3 532/8/3
f 538/8/3 537/8/3 536/8/3
f 539/8/3 533/8/3 537/8/3
f 539/8/3 537/8/3 538/8/3
f 542/14/3 541/14/3 540/14/3
f 543/14/3 541/14/3 542/14/3
f 546/12/3 545/12/3 544/12/3
f 547/12/3 545/12/3 546/12/3
f 550/13/3 549/13/3 548/13/3
f 551/13/3 549/13/3 550/13/3
f 554/14/3 553/14/3 552/14/3
f 555/14/3 553/14/3 554/14/3
f 558/5/3 557/5/3 556/5/3
f 559/5/3 557/5/3 558/5/3
f 562/10/3 561/10/3 560/10/3
f 563/10/3 561/10/3 562/10/3
f 566/14/3 565/14/3 564/14/3
f 567/14/3 565/14/3 566/14/3
f 570/7/3 569/7/3 568/7/3
f 571/7/3 569/7/3 570/7/3
f 574/14/3 573/14/3 572/14/3
f 575/14/3 573/14/3 574/14/3
f 578/9/3 577/9/3 576/9/3
f 579/9/3 577/9/3 578/9/3
f 582/9/3 581/9/3 580/9/3
f 583/9/3 581/9/3 582/9/3
f 588/9/3 585/9/3 584/9/3
f 589/9/3 585/9/3 588/9/3
f 590/4/3 587/4/3 586/4/3
f 591/4/3 587/4/3 590/4/3
f 596/9/3 593/9/3 592/9/3
f 597/9/3 593/9/3 596/9/3
f 598/4/3 595/4/3 594/4/3
f 599/4/3 595/4/3 598/4/3
f 604/9/3 601/9/3 600/9/3
f 605/9/3 601/9/3 604/9/3
f 606/3/3 603/3/3 602/3/3
f 607/3/3 603/3/3 606/3/3
f 612/9/3 609/9/3 608/9/3
f 613/9/3 609/9/3 612/9/3
f 614/4/3 611/4/3 610/4/3
f 615/4/3 611/4/3 614/4/3
f 618/14/3 617/14/3 616/14/3
f 619/14/3 617/14/3 618/14/3
f 622/3/3 621/3/3 620/3/3
f 623/3/3 621/3/3 622/3/3
f 626/4/3 625/4/3 624/4/3
f 627/4/3 625/4/3 626/4/3
f 630/9/3 629/9/3 628/9/3
f 631/9/3 629/9/3 630/9/3
f 634/14/3 633/14/3 632/14/3
f 635/14/3 633/14/3 634/14/3
f 636/14/3 633/14/3 635/14/3
f 637/14/3 633/14/3 636/14/3
f 642/9/3 639/9/3 638/9/3
f 643/9/3 639/9/3 642/9/3
f 644/2/3 641/2/3 640/2/3
f 645/2/3 641/2/3 644/2/3
f 650/9/3 647/9/3 646/9/3
f 651/9/3 647/9/3 650/9/3
f 652/2/3 649/2/3 648/2/3
f 653/2/3 649/2/3 652/2/3
f 656/14/3 655/14/3 654/14/3
f 657/14/3 655/14/3 656/14/3
f 658/14/3 655/14/3 657/14/3
f 659/14/3 655/14/3 658/14/3
f 662/9/3 661/9/3 660/9/3
f 663/9/3 661/9/3 662/9/3
f 666/14/3 665/14/3 664/14/3
f 667/14/3 665/14/3 666/14/3
f 668/14/3 665/14/3 667/14/3
f 669/14/3 665/14/3 668/14/3
f 672/14/3 671/14/3 670/14/3
f 673/14/3 671/14/3 672/14/3
f 674/14/3 671/14/3 673/14/3
f 675/14/3 671/14/3 674/14/3
f 678/9/3 677/9/3 676/9/3
f 679/9/3 677/9/3 678/9/3
f 682/14/3 681/14/3 680/14/3
f 683/14/3 681/14/3 682/14/3
f 684/14/3 681/14/3 683/14/3
f 685/14/3 681/14/3 684/14/3
f 688/9/3 687/9/3 686/9/3
f 689/9/3 687/9/3 688/9/3
f 692/9/3 691/9/3 690/9/3
f 693/9/3 691/9/3 692/9/3
f 696/14/3 695/14/3 694/14/3
f 697/14/3 695/14/3 696/14/3
f 698/14/3 695/14/3 697/14/3
f 699/14/3 695/14/3 698/14/3
f 702/14/3 701/14/3 700/14/3
f 703/14/3 701/14/3 702/14/3
f 704/14/4 705/14/4 706/14/4
f 706/14/4 705/14/4 707/14/4
f 707/14/4 705/14/4 708/14/4
f 708/14/4 705/14/4 709/14/4
f 710/14/4 711/14/4 712/14/4
f 712/14/4 711/14/4 713/14/4
f 714/14/4 715/14/4 718/14/4
f 718/14/4 715/14/4 719/14/4
f 716/14/4 717/14/4 720/14/4
f 720/14/4 717/14/4 721/14/4
f 722/13/4 723/13/4 726/13/4
f 726/13/4 723/13/4 727/13/4
f 724/5/4 725/5/4 728/5/4
f 728/5/4 725/5/4 729/5/4
f 730/14/4 731/14/4 732/14/4
f 732/14/4 731/14/4 733/14/4
f 734/12/4 735/12/4 736/12/4
f 736/12/4 735/12/4 737/12/4
f 738/10/4 739/10/4 740/10/4
f 740/10/4 739/10/4 741/10/4
f 742/7/4 743/7/4 744/7/4
f 744/7/4 743/7/4 745/7/4
f 746/9/4 747/9/4 748/9/4
f 748/9/4 747/9/4 749/9/4
f 750/9/4 751/9/4 752/9/4
f 752/9/4 751/9/4 753/9/4
f 754/9/4 755/9/4 758/9/4
f 758/9/4 755/9/4 759/9/4
f 756/4/4 757/4/4 760/4/4
f 760/4/4 757/4/4 761/4/4
f 762/14/4 763/14/4 764/14/4
f 764/14/4 763/14/4 765/14/4
f 766/3/4 767/3/4 768/3/4
f 768/3/4 767/3/4 769/3/4
f 770/9/4 771/9/4 774/9/4
f 774/9/4 771/9/4 775/9/4
f 772/4/4 773/4/4 776/4/4
f 776/4/4 773/4/4 777/4/4
f 778/14/4 779/14/4 780/14/4
f 780/14/4 779/14/4 781/14/4
f 782/9/4 783/9/4 786/9/4
f 786/9/4 783/9/4 787/9/4
f 784/3/4 785/3/4 788/3/4
f 788/3/4 785/3/4 789/3/4
f 790/9/4 791/9/4 794/9/4
f 794/9/4 791/9/4 795/9/4
f 792/4/4 793/4/4 796/4/4
f 796/4/4 793/4/4 797/4/4
f 798/14/4 799/14/4 800/14/4
f 800/14/4 799/14/4 801/14/4
f 801/14/4 799/14/4 802/14/4
f 802/14/4 799/14/4 803/14/4
f 804/4/4 805/4/4 806/4/4
f 806/4/4 805/4/4 807/4/4
f 808/9/4 809/9/4 810/9/4
f 810/9/4 809/9/4 811/9/4
f 812/14/4 813/14/4 814/14/4
f 814/14/4 813/14/4 815/14/4
f 815/14/4 813/14/4 816/14/4
f 816/14/4 813/14/4 817/14/4
f 818/9/4 819/9/4 820/9/4
f 820/9/4 819/9/4 821/9/4
f 822/14/4 823/14/4 824/14/4
f 824/14/4 823/14/4 825/14/4
f 825/14/4 823/14/4 826/14/4
f 826/14/4 823/14/4 827/14/4
f 828/9/4 829/9/4 832/9/4
f 832/9/4 829/9/4 833/9/4
f 830/2/4 831/2/4 834/2/4
f 834/2/4 831/2/4 835/2/4
f 836/9/4 837/9/4 840/9/4
f 840/9/4 837/9/4 841/9/4
f 838/2/4 839/2/4 842/2/4
f 842/2/4 839/2/4 843/2/4
f 844/14/4 845/14/4 846/14/4
f 846/14/4 845/14/4 847/14/4
f 847/14/4 845/14/4 848/14/4
f 848/14/4 845/14/4 849/14/4
f 850/14/4 851/14/4 852/14/4
f 852/14/4 851/14/4 853/14/4
f 853/14/4 851/14/4 854/14/4
f 854/14/4 851/14/4 855/14/4
f 856/9/4 857/9/4 858/9/4
f 858/9/4 857/9/4 859/9/4
f 860/9/4 861/9/4 862/9/4
f 862/9/4 861/9/4 863/9/4
f 864/14/4 865/14/4 866/14/4
f 866/14/4 865/14/4 867/14/4
f 867/14/4 865/14/4 868/14/4
f 868/14/4 865/14/4 869/14/4
f 870/8/4 871/8/4 874/8/4
f 872/8/4 873/8/4 874/8/4
f 871/8/4 872/8/4 874/8/4
f 874/8/4 873/8/4 875/8/4
f 875/8/4 873/8/4 876/8/4
f 876/8/4 873/8/4 877/8/4
f 878/8/4 879/8/4 880/8/4
f 880/8/4 879/8/4 881/8/4
f 878/8/4 880/8/4 882/8/4
f 881/8/4 879/8/4 883/8/4
f 878/8/4 882/8/4 884/8/4
f 882/8/4 883/8/4 884/8/4
f 883/8/4 879/8/4 885/8/4
f 884/8/4 883/8/4 885/8/4
f 886/11/4 887/11/4 890/11/4
f 887/14/4 888/14/4 891/14/4
f 890/11/4 887/11/4 891/11/4
f 888/11/4 889/11/4 892/11/4
f 891/14/4 888/14/4 892/14/4
f 892/11/4 889/11/4 893/11/4
f 886/11/4 890/11/4 894/11/4
f 890/14/4 891/14/4 895/14/4
f 894/11/4 890/11/4 895/11/4
f 891/14/4 892/14/4 895/14/4
f 892/14/4 893/14/4 895/14/4
f 895/14/4 893/14/4 896/14/4
f 896/14/4 893/14/4 897/14/4
f 893/11/4 889/11/4 898/11/4
f 897/14/4 893/14/4 898/14/4
f 898/11/4 889/11/4 899/11/4
f 896/11/4 897/11/4 900/11/4
f 894/14/4 895/14/4 900/14/4
f 895/14/4 896/14/4 900/14/4
f 898/14/4 899/14/4 901/14/4
f 900/11/4 897/11/4 901/11/4
f 897/14/4 898/14/4 901/14/4
f 900/14/4 901/14/4 902/14/4
f 901/14/4 899/14/4 903/14/4
f 902/14/4 901/14/4 903/14/4
f 894/14/4 900/14/4 904/14/4
f 900/14/4 902/14/4 904/14/4
f 904/14/4 902/14/4 905/14/4
f 902/11/4 903/11/4 906/11/4
f 905/14/4 902/14/4 906/14/4
f 903/14/4 899/14/4 907/14/4
f 906/11/4 903/11/4 907/11/4
f 907/14/4 899/14/4 908/14/4
f 908/14/4 899/14/4 909/14/4
f 905/14/4 906/14/4 910/14/4
f 904/11/4 905/11/4 910/11/4
f 906/14/4 907/14/4 910/14/4
f 907/14/4 908/14/4 910/14/4
f 910/14/4 908/14/4 911/14/4
f 911/14/4 908/14/4 912/14/4
f 908/11/4 909/11/4 913/11/4
f 912/14/4 908/14/4 913/14/4
f 904/11/4 910/11/4 914/11/4
f 910/11/4 911/11/4 914/11/4
f 911/14/4 912/14/4 915/14/4
f 914/11/4 911/11/4 915/11/4
f 912/11/4 913/11/4 916/11/4
f 915/14/4 912/14/4 916/14/4
f 913/11/4 909/11/4 917/11/4
f 916/11/4 913/11/4 917/11/4
f 918/11/4 919/11/4 922/11/4
f 919/14/4 920/14/4 923/14/4
f 922/11/4 919/11/4 923/11/4
f 920/11/4 921/11/4 924/11/4
f 923/14/4 920/14/4 924/14/4
f 924/11/4 921/11/4 925/11/4
f 918/11/4 922/11/4 926/11/4
f 922/14/4 923/14/4 927/14/4
f 926/11/4 922/11/4 927/11/4
f 923/14/4 924/14/4 927/14/4
f 924/14/4 925/14/4 927/14/4
f 925/11/4 921/11/4 928/11/4
f 927/14/4 925/14/4 928/14/4
f 928/11/4 921/11/4 929/11/4
f 926/14/4 927/14/4 930/14/4
f 927/14/4 928/14/4 930/14/4
f 928/14/4 929/14/4 930/14/4
f 930/14/4 929/14/4 931/14/4
f 926/14/4 930/14/4 932/14/4
f 930/11/4 931/11/4 932/11/4
f 931/14/4 929/14/4 933/14/4
f 932/11/4 931/11/4 933/11/4
f 932/14/4 933/14/4 934/14/4
f 933/14/4 929/14/4 935/14/4
f 934/14/4 933/14/4 935/14/4
f 932/14/4 934/14/4 936/14/4
f 934/11/4 935/11/4 936/11/4
f 935/14/4 929/14/4 937/14/4
f 936/11/4 935/11/4 937/11/4
f 926/14/4 932/14/4 938/14/4
f 932/14/4 936/14/4 938/14/4
f 936/14/4 937/14/4 938/14/4
f 938/14/4 937/14/4 939/14/4
f 926/14/4 938/14/4 940/14/4
f 938/11/4 939/11/4 940/11/4
f 939/14/4 937/14/4 941/14/4
f 940/11/4 939/11/4 941/11/4
f 940/14/4 941/14/4 942/14/4
f 937/14/4 929/14/4 943/14/4
f 942/14/4 941/14/4 943/14/4
f 941/14/4 937/14/4 943/14/4
f 940/14/4 942/14/4 944/14/4
f 942/11/4 943/11/4 944/11/4
f 943/14/4 929/14/4 945/14/4
f 944/11/4 943/11/4 945/11/4
f 940/14/4 944/14/4 946/14/4
f 944/14/4 945/14/4 946/14/4
f 945/14/4 929/14/4 947/14/4
f 946/14/4 945/14/4 947/14/4
f 940/14/4 946/14/4 948/14/4
f 947/14/4 929/14/4 949/14/4
f 940/14/4 948/14/4 950/14/4
f 948/14/4 949/14/4 950/14/4
f 926/14/4 940/14/4 950/14/4
f 950/14/4 949/14/4 951/14/4
f 949/14/4 929/14/4 952/14/4
f 951/14/4 949/14/4 952/14/4
f 952/14/4 929/14/4 953/14/4
f 950/11/4 951/11/4 954/11/4
f 951/14/4 952/14/4 954/14/4
f 954/14/4 952/14/4 955/14/4
f 955/14/4 952/14/4 956/14/4
f 952/11/4 953/11/4 957/11/4
f 956/14/4 952/14/4 957/14/4
f 950/11/4 954/11/4 958/11/4
f 954/11/4 955/11/4 958/11/4
f 955/14/4 956/14/4 959/14/4
f 958/11/4 955/11/4 959/11/4
f 956/11/4 957/11/4 960/11/4
f 959/14/4 956/14/4 960/14/4
f 957/11/4 953/11/4 961/11/4
f 960/11/4 957/11/4 961/11/4
f 962/11/4 963/11/4 964/11/4
f 964/11/4 963/11/4 965/11/4
f 974/11/5 967/11/5 966/11/5
f 975/14/5 968/14/5 967/14/5
f 975/11/5 967/11/5 974/11/5
f 976/11/5 969/11/5 968/11/5
f 976/14/5 968/14/5 975/14/5
f 977/11/5 969/11/5 976/11/5
f 978/11/5 971/11/5 970/11/5
f 979/14/5 972/14/5 971/14/5
f 979/11/5 971/11/5 978/11/5
f 980/11/5 973/11/5 972/11/5
f 980/14/5 972/14/5 979/14/5
f 981/11/5 973/11/5 980/11/5
f 982/11/5 974/11/5 966/11/5
f 983/14/5 975/14/5 974/14/5
f 983/11/5 974/11/5 982/11/5
f 983/14/5 976/14/5 975/14/5
f 983/14/5 977/14/5 976/14/5
f 984/11/5 969/11/5 977/11/5
f 984/14/5 977/14/5 983/14/5
f 985/11/5 969/11/5 984/11/5
f 986/11/5 978/11/5 970/11/5
f 987/14/5 979/14/5 978/14/5
f 987/11/5 978/11/5 986/11/5
f 987/14/5 981/14/5 980/14/5
f 987/14/5 980/14/5 979/14/5
f 988/14/5 981/14/5 987/14/5
f 989/14/5 981/14/5 988/14/5
f 990/11/5 973/11/5 981/11/5
f 990/14/5 981/14/5 989/14/5
f 991/11/5 973/11/5 990/11/5
f 992/14/5 983/14/5 982/14/5
f 992/14/5 985/14/5 984/14/5
f 992/14/5 984/14/5 983/14/5
f 993/14/5 985/14/5 992/14/5
f 994/14/5 987/14/5 986/14/5
f 994/14/5 988/14/5 987/14/5
f 995/14/5 988/14/5 994/14/5
f 996/14/5 985/14/5 993/14/5
f 997/14/5 985/14/5 996/14/5
f 998/11/5 989/11/5 988/11/5
f 998/14/5 988/14/5 995/14/5
f 999/14/5 991/14/5 990/14/5
f 999/11/5 989/11/5 998/11/5
f 999/14/5 990/14/5 989/14/5
f 1000/14/5 994/14/5 986/14/5
f 1001/14/5 994/14/5 1000/14/5
f 1002/14/5 998/14/5 995/14/5
f 1002/14/5 999/14/5 998/14/5
f 1003/14/5 999/14/5 1002/14/5
f 1004/11/5 993/11/5 992/11/5
f 1004/14/5 992/14/5 982/14/5
f 1005/14/5 996/14/5 993/14/5
f 1005/11/5 993/11/5 1004/11/5
f 1006/14/5 994/14/5 1001/14/5
f 1006/11/5 995/11/5 994/11/5
f 1007/14/5 1002/14/5 995/14/5
f 1007/11/5 995/11/5 1006/11/5
f 1008/11/5 1003/11/5 1002/11/5
f 1008/14/5 1002/14/5 1007/14/5
f 1008/14/5 1007/14/5 1006/14/5
f 1009/14/5 999/14/5 1003/14/5
f 1009/11/5 1003/11/5 1008/11/5
f 1010/14/5 996/14/5 1005/14/5
f 1010/11/5 997/11/5 996/11/5
f 1010/14/5 1005/14/5 1004/14/5
f 1011/14/5 985/14/5 997/14/5
f 1011/11/5 997/11/5 1010/11/5
f 1012/14/5 1000/14/5 986/14/5
f 1012/11/5 1001/11/5 1000/11/5
f 1013/14/5 1009/14/5 1008/14/5
f 1013/11/5 1001/11/5 1012/11/5
f 1013/14/5 1008/14/5 1006/14/5
f 1013/14/5 1006/14/5 1001/14/5
f 1014/14/5 1013/14/5 1012/14/5
f 1014/14/5 1009/14/5 1013/14/5
f 1015/14/5 1009/14/5 1014/14/5
f 1016/14/5 1010/14/5 1004/14/5
f 1016/14/5 1011/14/5 1010/14/5
f 1017/14/5 1011/14/5 1016/14/5
f 1018/14/5 1009/14/5 1015/14/5
f 1018/14/5 999/14/5 1009/14/5
f 1018/14/5 991/14/5 999/14/5
f 1019/14/5 991/14/5 1018/14/5
f 1020/14/5 1014/14/5 1012/14/5
f 1021/14/5 1014/14/5 1020/14/5
f 1022/11/5 1015/11/5 1014/11/5
f 1022/14/5 1014/14/5 1021/14/5
f 1023/14/5 1018/14/5 1015/14/5
f 1023/11/5 1015/11/5 1022/11/5
f 1024/11/5 1017/11/5 1016/11/5
f 1024/14/5 1016/14/5 1004/14/5
f 1025/14/5 1011/14/5 1017/14/5
f 1025/11/5 1017/11/5 1024/11/5
f 1026/11/5 1021/11/5 1020/11/5
f 1026/14/5 1020/14/5 1012/14/5
f 1027/14/5 1023/14/5 1022/14/5
f 1027/11/5 1021/11/5 1026/11/5
f 1027/14/5 1022/14/5 1021/14/5
f 1028/14/5 1011/14/5 1025/14/5
f 1028/14/5 1025/14/5 1024/14/5
f 1029/14/5 985/14/5 1011/14/5
f 1029/14/5 1011/14/5 1028/14/5
f 1030/14/5 1018/14/5 1023/14/5
f 1030/14/5 1023/14/5 1027/14/5
f 1030/14/5 1027/14/5 1026/14/5
f 1030/11/5 1019/11/5 1018/11/5
f 1031/14/5 991/14/5 1019/14/5
f 1031/11/5 1019/11/5 1030/11/5
f 1032/14/5 1030/14/5 1026/14/5
f 1032/14/5 1031/14/5 1030/14/5
f 1033/14/5 1031/14/5 1032/14/5
f 1034/14/5 1026/14/5 1012/14/5
f 1034/14/5 1032/14/5 1026/14/5
f 1035/14/5 1032/14/5 1034/14/5
f 1036/14/5 1024/14/5 1004/14/5
f 1036/14/5 1028/14/5 1024/14/5
f 1037/14/5 1028/14/5 1036/14/5
f 1038/11/5 1029/11/5 1028/11/5
f 1038/14/5 1028/14/5 1037/14/5
f 1039/14/5 985/14/5 1029/14/5
f 1039/11/5 1029/11/5 1038/11/5
f 1040/14/5 1032/14/5 1035/14/5
f 1040/11/5 1033/11/5 1032/11/5
f 1041/14/5 1031/14/5 1033/14/5
f 1041/11/5 1033/11/5 1040/11/5
f 1042/14/5 1041/14/5 1040/14/5
f 1042/14/5 1031/14/5 1041/14/5
f 1043/14/5 1031/14/5 1042/14/5
f 1044/14/5 1040/14/5 1035/14/5
f 1044/14/5 1042/14/5 1040/14/5
f 1045/14/5 1042/14/5 1044/14/5
f 1046/11/5 1037/11/5 1036/11/5
f 1046/14/5 1036/14/5 1004/14/5
f 1047/14/5 1038/14/5 1037/14/5
f 1047/11/5 1037/11/5 1046/11/5
f 1047/14/5 1039/14/5 1038/14/5
f 1048/11/5 1035/11/5 1034/11/5
f 1048/14/5 1034/14/5 1012/14/5
f 1049/14/5 1044/14/5 1035/14/5
f 1049/11/5 1035/11/5 1048/11/5
f 1050/11/5 1045/11/5 1044/11/5
f 1050/14/5 1044/14/5 1049/14/5
f 1050/14/5 1049/14/5 1048/14/5
f 1051/14/5 1042/14/5 1045/14/5
f 1051/11/5 1045/11/5 1050/11/5
f 1052/14/5 1046/14/5 1004/14/5
f 1052/14/5 1004/14/5 982/14/5
f 1052/14/5 1047/14/5 1046/14/5
f 1053/14/5 1047/14/5 1052/14/5
f 1054/14/5 985/14/5 1039/14/5
f 1054/14/5 1047/14/5 1053/14/5
f 1054/14/5 1039/14/5 1047/14/5
f 1055/14/5 985/14/5 1054/14/5
f 1056/14/5 1051/14/5 1050/14/5
f 1056/14/5 1012/14/5 986/14/5
f 1056/14/5 1050/14/5 1048/14/5
f 1056/14/5 1048/14/5 1012/14/5
f 1057/14/5 1051/14/5 1056/14/5
f 1058/14/5 1042/14/5 1051/14/5
f 1058/14/5 1051/14/5 1057/14/5
f 1058/11/5 1043/11/5 1042/11/5
f 1059/14/5 1031/14/5 1043/14/5
f 1059/11/5 1043/11/5 1058/11/5
f 1060/14/5 991/14/5 1031/14/5
f 1060/14/5 1031/14/5 1059/14/5
f 1061/14/5 991/14/5 1060/14/5
f 1062/11/5 1053/11/5 1052/11/5
f 1062/14/5 1054/14/5 1053/14/5
f 1063/14/5 1054/14/5 1062/14/5
f 1064/14/5 1054/14/5 1063/14/5
f 1065/11/5 1055/11/5 1054/11/5
f 1065/14/5 1054/14/5 1064/14/5
f 1066/11/5 1057/11/5 1056/11/5
f 1066/14/5 1058/14/5 1057/14/5
f 1066/14/5 1059/14/5 1058/14/5
f 1066/14/5 1060/14/5 1059/14/5
f 1067/14/5 1060/14/5 1066/14/5
f 1068/14/5 1060/14/5 1067/14/5
f 1069/11/5 1061/11/5 1060/11/5
f 1069/14/5 1060/14/5 1068/14/5
f 1070/11/5 1063/11/5 1062/11/5
f 1070/11/5 1062/11/5 1052/11/5
f 1071/14/5 1064/14/5 1063/14/5
f 1071/11/5 1063/11/5 1070/11/5
f 1072/11/5 1065/11/5 1064/11/5
f 1072/14/5 1064/14/5 1071/14/5
f 1073/11/5 1055/11/5 1065/11/5
f 1073/11/5 1065/11/5 1072/11/5
f 1074/11/5 1066/11/5 1056/11/5
f 1074/11/5 1067/11/5 1066/11/5
f 1075/14/5 1068/14/5 1067/14/5
f 1075/11/5 1067/11/5 1074/11/5
f 1076/11/5 1069/11/5 1068/11/5
f 1076/14/5 1068/14/5 1075/14/5
f 1077/11/5 1061/11/5 1069/11/5
f 1077/11/5 1069/11/5 1076/11/5
f 1080/8/5 1079/8/5 1078/8/5
f 1081/8/5 1079/8/5 1080/8/5
f 1082/8/5 1081/8/5 1080/8/5
f 1083/8/5 1081/8/5 1082/8/5
f 1084/8/5 1083/8/5 1082/8/5
f 1085/8/5 1083/8/5 1084/8/5
f 1088/11/5 1087/11/5 1086/11/5
f 1089/11/5 1087/11/5 1088/11/5
f 1090/14/5 1089/14/5 1088/14/5
f 1091/14/5 1089/14/5 1090/14/5
f 1094/9/5 1093/9/5 1092/9/5
f 1095/9/5 1093/9/5 1094/9/5
f 1098/9/5 1097/9/5 1096/9/5
f 1099/9/5 1097/9/5 1098/9/5
f 1102/9/5 1101/9/5 1100/9/5
f 1103/9/5 1101/9/5 1102/9/5
f 1106/9/5 1105/9/5 1104/9/5
f 1107/9/5 1105/9/5 1106/9/5
f 1110/14/5 1109/14/5 1108/14/5
f 1111/14/5 1109/14/5 1110/14/5
f 1114/14/5 1113/14/5 1112/14/5
f 1115/14/5 1113/14/5 1114/14/5
f 1119/14/5 1117/14/5 1116/14/5
f 1120/14/5 1119/14/5 1118/14/5
f 1121/14/5 1117/14/5 1119/14/5
f 1121/14/5 1119/14/5 1120/14/5
f 1122/14/5 1117/14/5 1121/14/5
f 1123/14/5 1117/14/5 1122/14/5
f 1126/9/5 1125/9/5 1124/9/5
f 1127/9/5 1125/9/5 1126/9/5
f 1130/14/5 1129/14/5 1128/14/5
f 1131/14/5 1129/14/5 1130/14/5
f 1132/11/5 1131/11/5 1130/11/5
f 1133/11/5 1131/11/5 1132/11/5
f 1136/5/5 1135/5/5 1134/5/5
f 1137/5/5 1135/5/5 1136/5/5
f 1140/10/5 1139/10/5 1138/10/5
f 1141/10/5 1139/10/5 1140/10/5
f 1144/7/5 1143/7/5 1142/7/5
f 1145/7/5 1143/7/5 1144/7/5
f 1148/4/5 1147/4/5 1146/4/5
f 1149/4/5 1147/4/5 1148/4/5
f 1152/4/5 1151/4/5 1150/4/5
f 1153/4/5 1151/4/5 1152/4/5
f 1156/4/5 1155/4/5 1154/4/5
f 1157/4/5 1155/4/5 1156/4/5
f 1160/4/5 1159/4/5 1158/4/5
f 1161/4/5 1159/4/5 1160/4/5
f 1164/2/5 1163/2/5 1162/2/5
f 1165/2/5 1163/2/5 1164/2/5
f 1168/9/5 1167/9/5 1166/9/5
f 1169/9/5 1167/9/5 1168/9/5
f 1172/14/5 1171/14/5 1170/14/5
f 1173/14/5 1171/14/5 1172/14/5
f 1176/3/5 1175/3/5 1174/3/5
f 1177/3/5 1175/3/5 1176/3/5
f 1180/3/5 1179/3/5 1178/3/5
f 1181/3/5 1179/3/5 1180/3/5
f 1184/3/5 1183/3/5 1182/3/5
f 1185/3/5 1183/3/5 1184/3/5
f 1188/2/5 1187/2/5 1186/2/5
f 1189/2/5 1187/2/5 1188/2/5
f 1192/2/5 1191/2/5 1190/2/5
f 1193/2/5 1191/2/5 1192/2/5
f 1196/14/5 1195/14/5 1194/14/5
f 1197/14/5 1195/14/5 1196/14/5
f 1200/14/5 1196/14/5 1194/14/5
f 1202/14/5 1200/14/5 1194/14/5
f 1202/14/5 1201/14/5 1200/14/5
f 1203/14/5 1201/14/5 1202/14/5
f 1204/14/5 1202/14/5 1194/14/5
f 1206/14/5 1204/14/5 1194/14/5
f 1206/14/5 1205/14/5 1204/14/5
f 1207/14/5 1205/14/5 1206/14/5
f 1208/14/5 1199/14/5 1198/14/5
f 1209/14/5 1199/14/5 1208/14/5
f 1212/14/5 1211/14/5 1210/14/5
f 1213/14/5 1211/14/5 1212/14/5
f 1214/14/5 1206/14/5 1194/14/5
f 1218/14/5 1214/14/5 1194/14/5
f 1218/14/5 1215/14/5 1214/14/5
f 1219/14/5 1215/14/5 1218/14/5
f 1220/14/5 1217/14/5 1216/14/5
f 1221/14/5 1217/14/5 1220/14/5
f 1226/14/5 1223/14/5 1222/14/5
f 1227/14/5 1223/14/5 1226/14/5
f 1228/14/5 1225/14/5 1224/14/5
f 1229/14/5 1225/14/5 1228/14/5
f 1232/14/5 1231/14/5 1230/14/5
f 1233/14/5 1231/14/5 1232/14/5
f 1236/14/5 1235/14/5 1234/14/5
f 1237/14/5 1235/14/5 1236/14/5
f 1242/14/5 1241/14/5 1240/14/5
f 1243/14/5 1241/14/5 1242/14/5
f 1246/14/5 1245/14/5 1244/14/5
f 1247/14/5 1245/14/5 1246/14/5
f 1250/14/5 1249/14/5 1248/14/5
f 1251/14/5 1249/14/5 1250/14/5
f 1252/14/5 1239/14/5 1238/14/5
f 1253/14/5 1239/14/5 1252/14/5
f 1256/14/5 1255/14/5 1254/14/5
f 1257/14/5 1255/14/5 1256/14/5
f 1258/14/6 1259/14/6 1262/14/6
f 1262/14/6 1259/14/6 1263/14/6
f 1264/14/6 1265/14/6 1266/14/6
f 1266/14/6 1265/14/6 1267/14/6
f 1260/14/6 1261/14/6 1268/14/6
f 1270/14/6 1271/14/6 1272/14/6
f 1272/14/6 1271/14/6 1273/14/6
f 1274/14/6 1275/14/6 1276/14/6
f 1276/14/6 1275/14/6 1277/14/6
f 1278/14/6 1279/14/6 1280/14/6
f 1280/14/6 1279/14/6 1281/14/6
f 1282/14/6 1283/14/6 1284/14/6
f 1284/14/6 1283/14/6 1285/14/6
f 1260/14/6 1268/14/6 1286/14/6
f 1268/14/6 1269/14/6 1286/14/6
f 1286/14/6 1269/14/6 1287/14/6
f 1288/14/6 1289/14/6 1292/14/6
f 1292/14/6 1289/14/6 1293/14/6
f 1290/14/6 1291/14/6 1294/14/6
f 1294/14/6 1291/14/6 1295/14/6
f 1296/14/6 1297/14/6 1300/14/6
f 1300/14/6 1297/14/6 1301/14/6
f 1298/14/6 1299/14/6 1302/14/6
f 1302/14/6 1299/14/6 1303/14/6
f 1304/14/6 1305/14/6 1308/14/6
f 1308/14/6 1305/14/6 1309/14/6
f 1306/14/6 1307/14/6 1310/14/6
f 1310/14/6 1307/14/6 1311/14/6
f 1314/14/6 1315/14/6 1316/14/6
f 1316/14/6 1315/14/6 1317/14/6
f 1312/14/6 1313/14/6 1318/14/6
f 1318/14/6 1313/14/6 1319/14/6
f 1320/14/6 1321/14/6 1322/14/6
f 1322/14/6 1321/14/6 1323/14/6
f 1324/14/6 1325/14/6 1326/14/6
f 1326/14/6 1325/14/6 1327/14/6
f 1328/14/6 1329/14/6 1332/14/6
f 1332/14/6 1329/14/6 1333/14/6
f 1330/12/6 1331/12/6 1334/12/6
f 1334/12/6 1331/12/6 1335/12/6
f 1336/12/6 1337/12/6 1338/12/6
f 1338/12/6 1337/12/6 1339/12/6
f 1340/9/6 1341/9/6 1342/9/6
f 1342/9/6 1341/9/6 1343/9/6
f 1344/9/6 1345/9/6 1346/9/6
f 1346/9/6 1345/9/6 1347/9/6
f 1348/9/6 1349/9/6 1350/9/6
f 1350/9/6 1349/9/6 1351/9/6
f 1352/9/6 1353/9/6 1354/9/6
f 1354/9/6 1353/9/6 1355/9/6
f 1356/9/6 1357/9/6 1358/9/6
f 1358/9/6 1357/9/6 1359/9/6
f 1360/9/6 1361/9/6 1362/9/6
f 1362/9/6 1361/9/6 1363/9/6
f 1364/9/6 1365/9/6 1366/9/6
f 1366/9/6 1365/9/6 1367/9/6
f 1368/14/6 1369/14/6 1370/14/6
f 1370/14/6 1369/14/6 1371/14/6
f 1372/13/6 1373/13/6 1374/13/6
f 1374/13/6 1373/13/6 1375/13/6
f 1376/9/6 1377/9/6 1378/9/6
f 1378/9/6 1377/9/6 1379/9/6
f 1380/9/6 1381/9/6 1382/9/6
f 1382/9/6 1381/9/6 1383/9/6
f 1384/9/6 1385/9/6 1386/9/6
f 1386/9/6 1385/9/6 1387/9/6
f 1388/9/6 1389/9/6 1390/9/6
f 1390/9/6 1389/9/6 1391/9/6
f 1392/11/6 1393/11/6 1394/11/6
f 1394/11/6 1393/11/6 1395/11/6
f 1394/14/6 1395/14/6 1396/14/6
f 1396/14/6 1395/14/6 1397/14/6
f 1398/14/6 1399/14/6 1400/14/6
f 1400/14/6 1399/14/6 1401/14/6
f 1402/5/6 1403/5/6 1404/5/6
f 1404/5/6 1403/5/6 1405/5/6
f 1406/10/6 1407/10/6 1408/10/6
f 1408/10/6 1407/10/6 1409/10/6
f 1410/7/6 1411/7/6 1412/7/6
f 1412/7/6 1411/7/6 1413/7/6
f 1414/4/6 1415/4/6 1416/4/6
f 1416/4/6 1415/4/6 1417/4/6
f 1418/4/6 1419/4/6 1420/4/6
f 1420/4/6 1419/4/6 1421/4/6
f 1422/9/6 1423/9/6 1424/9/6
f 1424/9/6 1423/9/6 1425/9/6
f 1426/14/6 1427/14/6 1428/14/6
f 1428/14/6 1427/14/6 1429/14/6
f 1428/11/6 1429/11/6 1430/11/6
f 1430/11/6 1429/11/6 1431/11/6
f 1432/8/6 1433/8/6 1434/8/6
f 1434/8/6 1433/8/6 1435/8/6
f 1434/8/6 1435/8/6 1436/8/6
f 1436/8/6 1435/8/6 1437/8/6
f 1436/8/6 1437/8/6 1438/8/6
f 1438/8/6 1437/8/6 1439/8/6
f 1440/11/6 1441/11/6 1448/11/6
f 1441/14/6 1442/14/6 1449/14/6
f 1448/11/6 1441/11/6 1449/11/6
f 1442/11/6 1443/11/6 1450/11/6
f 1449/14/6 1442/14/6 1450/14/6
f 1450/11/6 1443/11/6 1451/11/6
f 1444/11/6 1445/11/6 1452/11/6
f 1445/14/6 1446/14/6 1453/14/6
f 1452/11/6 1445/11/6 1453/11/6
f 1446/11/6 1447/11/6 1454/11/6
f 1453/14/6 1446/14/6 1454/14/6
f 1454/11/6 1447/11/6 1455/11/6
f 1440/11/6 1448/11/6 1456/11/6
f 1448/14/6 1449/14/6 1457/14/6
f 1456/11/6 1448/11/6 1457/11/6
f 1449/14/6 1450/14/6 1457/14/6
f 1450/14/6 1451/14/6 1457/14/6
f 1451/11/6 1443/11/6 1458/11/6
f 1457/14/6 1451/14/6 1458/14/6
f 1458/11/6 1443/11/6 1459/11/6
f 1444/11/6 1452/11/6 1460/11/6
f 1452/14/6 1453/14/6 1461/14/6
f 1460/11/6 1452/11/6 1461/11/6
f 1454/14/6 1455/14/6 1461/14/6
f 1453/14/6 1454/14/6 1461/14/6
f 1455/11/6 1447/11/6 1462/11/6
f 1461/14/6 1455/14/6 1462/14/6
f 1462/11/6 1447/11/6 1463/11/6
f 1456/14/6 1457/14/6 1464/14/6
f 1458/14/6 1459/14/6 1464/14/6
f 1457/14/6 1458/14/6 1464/14/6
f 1464/14/6 1459/14/6 1465/14/6
f 1460/14/6 1461/14/6 1466/14/6
f 1462/14/6 1463/14/6 1466/14/6
f 1461/14/6 1462/14/6 1466/14/6
f 1466/14/6 1463/14/6 1467/14/6
f 1460/14/6 1466/14/6 1468/14/6
f 1466/11/6 1467/11/6 1468/11/6
f 1467/14/6 1463/14/6 1469/14/6
f 1468/11/6 1467/11/6 1469/11/6
f 1469/14/6 1463/14/6 1470/14/6
f 1470/14/6 1463/14/6 1471/14/6
f 1464/11/6 1465/11/6 1472/11/6
f 1456/14/6 1464/14/6 1472/14/6
f 1465/14/6 1459/14/6 1473/14/6
f 1472/11/6 1465/11/6 1473/11/6
f 1456/14/6 1472/14/6 1474/14/6
f 1472/14/6 1473/14/6 1474/14/6
f 1474/14/6 1473/14/6 1475/14/6
f 1471/14/6 1463/14/6 1476/14/6
f 1476/14/6 1463/14/6 1477/14/6
f 1456/14/6 1474/14/6 1478/14/6
f 1474/11/6 1475/11/6 1478/11/6
f 1475/14/6 1473/14/6 1479/14/6
f 1478/11/6 1475/11/6 1479/11/6
f 1468/14/6 1469/14/6 1480/14/6
f 1469/14/6 1470/14/6 1480/14/6
f 1480/14/6 1470/14/6 1481/14/6
f 1470/11/6 1471/11/6 1482/11/6
f 1481/14/6 1470/14/6 1482/14/6
f 1471/14/6 1476/14/6 1483/14/6
f 1482/11/6 1471/11/6 1483/11/6
f 1479/14/6 1473/14/6 1484/14/6
f 1478/14/6 1479/14/6 1484/14/6
f 1484/14/6 1473/14/6 1485/14/6
f 1480/11/6 1481/11/6 1486/11/6
f 1468/14/6 1480/14/6 1486/14/6
f 1482/14/6 1483/14/6 1487/14/6
f 1486/11/6 1481/11/6 1487/11/6
f 1481/14/6 1482/14/6 1487/14/6
f 1456/14/6 1478/14/6 1488/14/6
f 1478/14/6 1484/14/6 1488/14/6
f 1488/14/6 1484/14/6 1489/14/6
f 1484/11/6 1485/11/6 1490/11/6
f 1489/14/6 1484/14/6 1490/14/6
f 1485/14/6 1473/14/6 1491/14/6
f 1490/11/6 1485/11/6 1491/11/6
f 1487/14/6 1483/14/6 1492/14/6
f 1483/14/6 1476/14/6 1492/14/6
f 1476/11/6 1477/11/6 1492/11/6
f 1486/14/6 1487/14/6 1492/14/6
f 1477/14/6 1463/14/6 1493/14/6
f 1492/11/6 1477/11/6 1493/11/6
f 1456/14/6 1488/14/6 1494/14/6
f 1488/11/6 1489/11/6 1494/11/6
f 1489/14/6 1490/14/6 1495/14/6
f 1494/11/6 1489/11/6 1495/11/6
f 1490/14/6 1491/14/6 1495/14/6
f 1456/14/6 1494/14/6 1496/14/6
f 1494/14/6 1495/14/6 1496/14/6
f 1496/14/6 1495/14/6 1497/14/6
f 1473/14/6 1459/14/6 1498/14/6
f 1497/14/6 1495/14/6 1498/14/6
f 1491/14/6 1473/14/6 1498/14/6
f 1495/14/6 1491/14/6 1498/14/6
f 1498/14/6 1459/14/6 1499/14/6
f 1460/14/6 1468/14/6 1500/14/6
f 1492/14/6 1493/14/6 1500/14/6
f 1468/14/6 1486/14/6 1500/14/6
f 1486/14/6 1492/14/6 1500/14/6
f 1500/14/6 1493/14/6 1501/14/6
f 1493/14/6 1463/14/6 1502/14/6
f 1501/14/6 1493/14/6 1502/14/6
f 1502/14/6 1463/14/6 1503/14/6
f 1496/11/6 1497/11/6 1504/11/6
f 1497/14/6 1498/14/6 1504/14/6
f 1504/14/6 1498/14/6 1505/14/6
f 1505/14/6 1498/14/6 1506/14/6
f 1498/11/6 1499/11/6 1507/11/6
f 1506/14/6 1498/14/6 1507/14/6
f 1500/11/6 1501/11/6 1508/11/6
f 1501/14/6 1502/14/6 1508/14/6
f 1508/14/6 1502/14/6 1509/14/6
f 1509/14/6 1502/14/6 1510/14/6
f 1502/11/6 1503/11/6 1511/11/6
f 1510/14/6 1502/14/6 1511/14/6
f 1496/11/6 1504/11/6 1512/11/6
f 1504/11/6 1505/11/6 1512/11/6
f 1505/14/6 1506/14/6 1513/14/6
f 1512/11/6 1505/11/6 1513/11/6
f 1506/11/6 1507/11/6 1514/11/6
f 1513/14/6 1506/14/6 1514/14/6
f 1507/11/6 1499/11/6 1515/11/6
f 1514/11/6 1507/11/6 1515/11/6
f 1500/11/6 1508/11/6 1516/11/6
f 1508/11/6 1509/11/6 1516/11/6
f 1509/14/6 1510/14/6 1517/14/6
f 1516/11/6 1509/11/6 1517/11/6
f 1510/11/6 1511/11/6 1518/11/6
f 1517/14/6 1510/14/6 1518/14/6
f 1511/11/6 1503/11/6 1519/11/6
f 1518/11/6 1511/11/6 1519/11/6
