# MagicaVoxel @ Ephtracy

# group
o 

# material
mtllib trans12_1.mtl
usemtl palette

# normals
vn -1 0 0
vn 1 0 0
vn 0 0 1
vn 0 0 -1
vn 0 -1 0
vn 0 1 0

# texcoords
vt 0.728516 0.5
vt 0.751953 0.5
vt 0.755859 0.5
vt 0.958984 0.5
vt 0.974609 0.5

# verts
v -0.3 0 0.1
v -0.3 0 0
v -0.3 0.2 0.1
v -0.3 0.2 0
v -0.3 0.6 0.2
v -0.3 0.6 0.1
v -0.3 0.6 0
v -0.3 0.6 -0.1
v -0.3 0.7 0.2
v -0.3 0.7 0.1
v -0.3 0.7 -0.1
v -0.3 0.8 0.2
v -0.3 0.8 0.1
v -0.3 0.9 0
v -0.3 0.9 -0.1
v -0.3 1 0.1
v -0.3 1 0
v -0.3 1.1 0.1
v -0.3 1.1 -0.1
v -0.2 0.7 0.1
v -0.2 0.7 -0.1
v -0.2 0.8 0.2
v -0.2 0.8 0.1
v -0.2 0.8 0
v -0.2 0.8 -0.1
v -0.2 0.9 0
v -0.2 0.9 -0.1
v -0.2 1 0.2
v -0.2 1 0.1
v -0.2 1 0
v -0.2 1.1 0.2
v -0.2 1.1 0.1
v 0 0.9 0.2
v 0 0.9 0.1
v 0 1 0.2
v 0 1 0.1
v 0.1 0.5 0.1
v 0.1 0.5 0
v 0.1 0.6 0.1
v 0.1 0.6 0
v 0.1 0.7 0.1
v 0.1 0.7 0
v 0.1 0.8 0.2
v 0.1 0.8 0.1
v 0.1 0.8 0
v 0.1 0.9 0.2
v 0.1 0.9 0.1
v -0.2 0 0.1
v -0.2 0 0
v -0.2 0.2 0.1
v -0.2 0.2 0
v -0.2 0.6 0.1
v -0.2 0.6 0
v -0.1 0.7 0.2
v -0.1 0.7 0
v -0.1 0.8 0.2
v -0.1 0.8 0.1
v -0.1 0.8 0
v -0.1 1 0.2
v -0.1 1 0.1
v 0 0.6 0.2
v 0 0.6 0.1
v 0 0.7 0.2
v 0 0.7 0.1
v 0.2 0.5 0.1
v 0.2 0.5 0
v 0.2 0.6 0.1
v 0.2 0.6 0
v 0.2 0.6 -0.1
v 0.2 0.8 0.2
v 0.2 0.8 0.1
v 0.2 1.1 0.2
v 0.2 1.1 -0.1
v -0.3 0.6 0.2
v -0.3 0.7 0.2
v -0.3 0.8 0.2
v -0.2 0.7 0.2
v -0.2 0.8 0.2
v -0.2 1 0.2
v -0.2 1.1 0.2
v -0.1 0.7 0.2
v -0.1 0.8 0.2
v -0.1 1 0.2
v 0 0.6 0.2
v 0 0.7 0.2
v 0 0.9 0.2
v 0 1 0.2
v 0.1 0.8 0.2
v 0.1 0.9 0.2
v 0.1 1 0.2
v 0.1 1.1 0.2
v 0.2 0.8 0.2
v 0.2 1.1 0.2
v -0.3 0 0.1
v -0.3 0.2 0.1
v -0.3 0.6 0.1
v -0.3 1 0.1
v -0.3 1.1 0.1
v -0.2 0 0.1
v -0.2 0.2 0.1
v -0.2 0.6 0.1
v -0.2 1 0.1
v -0.2 1.1 0.1
v -0.1 0.8 0.1
v -0.1 1 0.1
v 0 0.6 0.1
v 0 0.7 0.1
v 0 0.9 0.1
v 0 1 0.1
v 0.1 0.5 0.1
v 0.1 0.6 0.1
v 0.1 0.7 0.1
v 0.1 0.8 0.1
v 0.1 0.9 0.1
v 0.2 0.5 0.1
v 0.2 0.6 0.1
v 0.2 0.8 0.1
v -0.3 0.9 0
v -0.3 1 0
v -0.2 0.9 0
v -0.2 1 0
v -0.1 0.7 0
v -0.1 0.8 0
v 0 0.7 0
v 0 0.8 0
v 0.1 0.7 0
v 0.1 0.8 0
v -0.3 0.7 0.1
v -0.3 0.8 0.1
v -0.2 0.7 0.1
v -0.2 0.8 0.1
v -0.3 0 0
v -0.3 0.2 0
v -0.3 0.6 0
v -0.2 0 0
v -0.2 0.2 0
v -0.2 0.6 0
v 0.1 0.5 0
v 0.1 0.6 0
v 0.2 0.5 0
v 0.2 0.6 0
v -0.3 0.6 -0.1
v -0.3 0.7 -0.1
v -0.3 0.9 -0.1
v -0.3 1.1 -0.1
v -0.2 0.7 -0.1
v -0.2 0.8 -0.1
v -0.2 0.9 -0.1
v -0.2 1 -0.1
v -0.1 0.8 -0.1
v -0.1 0.9 -0.1
v 0 0.7 -0.1
v 0 0.8 -0.1
v 0 0.9 -0.1
v 0 1 -0.1
v 0.1 0.7 -0.1
v 0.1 0.8 -0.1
v 0.1 1 -0.1
v 0.1 1.1 -0.1
v 0.2 0.6 -0.1
v 0.2 1.1 -0.1
v -0.3 0 0.1
v -0.2 0 0.1
v -0.3 0 0
v -0.2 0 0
v 0.1 0.5 0.1
v 0.2 0.5 0.1
v 0.1 0.5 0
v 0.2 0.5 0
v -0.3 0.6 0.2
v 0 0.6 0.2
v -0.3 0.6 0.1
v -0.2 0.6 0.1
v 0 0.6 0.1
v 0.1 0.6 0.1
v -0.3 0.6 0
v -0.2 0.6 0
v 0.1 0.6 0
v 0.2 0.6 0
v -0.3 0.6 -0.1
v 0.2 0.6 -0.1
v 0.1 0.8 0.2
v 0.2 0.8 0.2
v -0.1 0.8 0.1
v 0.1 0.8 0.1
v 0.2 0.8 0.1
v -0.1 0.8 0
v 0 0.8 0
v 0.1 0.8 0
v 0 0.9 0.2
v 0.1 0.9 0.2
v 0 0.9 0.1
v 0.1 0.9 0.1
v -0.3 0.9 0
v -0.2 0.9 0
v -0.3 0.9 -0.1
v -0.2 0.9 -0.1
v -0.1 1 0.2
v 0 1 0.2
v -0.3 1 0.1
v -0.2 1 0.1
v -0.1 1 0.1
v 0 1 0.1
v -0.3 1 0
v -0.2 1 0
v -0.1 0.7 0.2
v 0 0.7 0.2
v -0.3 0.7 0.1
v -0.2 0.7 0.1
v 0 0.7 0.1
v 0.1 0.7 0.1
v -0.1 0.7 0
v 0 0.7 0
v 0.1 0.7 0
v -0.3 0.7 -0.1
v -0.2 0.7 -0.1
v -0.3 0.8 0.2
v -0.2 0.8 0.2
v -0.3 0.8 0.1
v -0.2 0.8 0.1
v -0.2 1.1 0.2
v 0.1 1.1 0.2
v 0.2 1.1 0.2
v -0.3 1.1 0.1
v -0.2 1.1 0.1
v -0.3 1.1 -0.1
v 0.1 1.1 -0.1
v 0.2 1.1 -0.1

# faces
f 3/5/1 2/5/1 1/5/1
f 4/5/1 2/5/1 3/5/1
f 6/4/1 4/4/1 3/4/1
f 7/4/1 4/4/1 6/4/1
f 9/3/1 7/3/1 6/3/1
f 9/3/1 8/3/1 7/3/1
f 9/3/1 6/3/1 5/3/1
f 10/3/1 8/3/1 9/3/1
f 11/3/1 8/3/1 10/3/1
f 12/1/1 10/1/1 9/1/1
f 13/1/1 10/1/1 12/1/1
f 17/1/1 15/1/1 14/1/1
f 18/1/1 17/1/1 16/1/1
f 19/1/1 15/1/1 17/1/1
f 19/1/1 17/1/1 18/1/1
f 23/2/1 21/2/1 20/2/1
f 24/2/1 21/2/1 23/2/1
f 25/2/1 21/2/1 24/2/1
f 26/2/1 24/2/1 23/2/1
f 26/4/1 25/4/1 24/4/1
f 27/4/1 25/4/1 26/4/1
f 28/4/1 23/4/1 22/4/1
f 29/2/1 26/2/1 23/2/1
f 29/4/1 23/4/1 28/4/1
f 30/2/1 26/2/1 29/2/1
f 31/1/1 29/1/1 28/1/1
f 32/1/1 29/1/1 31/1/1
f 35/2/1 34/2/1 33/2/1
f 36/2/1 34/2/1 35/2/1
f 39/4/1 38/4/1 37/4/1
f 40/4/1 38/4/1 39/4/1
f 44/3/1 42/3/1 41/3/1
f 45/3/1 42/3/1 44/3/1
f 46/3/1 44/3/1 43/3/1
f 47/3/1 44/3/1 46/3/1
f 48/5/2 49/5/2 50/5/2
f 50/5/2 49/5/2 51/5/2
f 50/4/2 51/4/2 52/4/2
f 52/4/2 51/4/2 53/4/2
f 54/2/2 55/2/2 56/2/2
f 56/2/2 55/2/2 57/2/2
f 57/2/2 55/2/2 58/2/2
f 56/4/2 57/4/2 59/4/2
f 59/4/2 57/4/2 60/4/2
f 61/3/2 62/3/2 63/3/2
f 63/3/2 62/3/2 64/3/2
f 65/4/2 66/4/2 67/4/2
f 67/4/2 66/4/2 68/4/2
f 67/3/2 68/3/2 71/3/2
f 68/3/2 69/3/2 71/3/2
f 70/3/2 71/3/2 72/3/2
f 71/3/2 69/3/2 73/3/2
f 72/3/2 71/3/2 73/3/2
f 77/3/3 75/3/3 74/3/3
f 77/1/3 76/1/3 75/1/3
f 78/1/3 76/1/3 77/1/3
f 81/3/3 77/3/3 74/3/3
f 81/2/3 78/2/3 77/2/3
f 82/4/3 79/4/3 78/4/3
f 82/2/3 78/2/3 81/2/3
f 83/1/3 80/1/3 79/1/3
f 83/4/3 79/4/3 82/4/3
f 84/3/3 81/3/3 74/3/3
f 85/3/3 81/3/3 84/3/3
f 87/1/3 80/1/3 83/1/3
f 89/2/3 87/2/3 86/2/3
f 90/1/3 80/1/3 87/1/3
f 90/2/3 87/2/3 89/2/3
f 91/1/3 80/1/3 90/1/3
f 92/3/3 89/3/3 88/3/3
f 92/3/3 90/3/3 89/3/3
f 92/3/3 91/3/3 90/3/3
f 93/3/3 91/3/3 92/3/3
f 99/5/3 95/5/3 94/5/3
f 100/4/3 96/4/3 95/4/3
f 100/5/3 95/5/3 99/5/3
f 101/4/3 96/4/3 100/4/3
f 102/1/3 98/1/3 97/1/3
f 103/1/3 98/1/3 102/1/3
f 108/2/3 105/2/3 104/2/3
f 109/2/3 105/2/3 108/2/3
f 111/3/3 107/3/3 106/3/3
f 112/3/3 107/3/3 111/3/3
f 113/2/3 108/2/3 104/2/3
f 114/2/3 108/2/3 113/2/3
f 115/4/3 111/4/3 110/4/3
f 116/3/3 112/3/3 111/3/3
f 116/4/3 111/4/3 115/4/3
f 116/3/3 113/3/3 112/3/3
f 117/3/3 113/3/3 116/3/3
f 120/1/3 119/1/3 118/1/3
f 121/1/3 119/1/3 120/1/3
f 124/2/3 123/2/3 122/2/3
f 125/2/3 123/2/3 124/2/3
f 126/4/3 125/4/3 124/4/3
f 127/4/3 125/4/3 126/4/3
f 128/1/4 129/1/4 130/1/4
f 130/1/4 129/1/4 131/1/4
f 132/5/4 133/5/4 135/5/4
f 133/4/4 134/4/4 136/4/4
f 135/5/4 133/5/4 136/5/4
f 136/4/4 134/4/4 137/4/4
f 138/4/4 139/4/4 140/4/4
f 140/4/4 139/4/4 141/4/4
f 142/3/4 143/3/4 146/3/4
f 144/1/4 145/1/4 148/1/4
f 148/1/4 145/1/4 149/1/4
f 146/2/4 147/2/4 150/2/4
f 147/4/4 148/4/4 150/4/4
f 148/4/4 149/4/4 150/4/4
f 150/4/4 149/4/4 151/4/4
f 142/3/4 146/3/4 152/3/4
f 146/2/4 150/2/4 152/2/4
f 150/2/4 151/2/4 152/2/4
f 152/2/4 151/2/4 153/2/4
f 151/4/4 149/4/4 154/4/4
f 153/2/4 151/2/4 154/2/4
f 149/1/4 145/1/4 155/1/4
f 154/4/4 149/4/4 155/4/4
f 152/4/4 153/4/4 156/4/4
f 142/3/4 152/3/4 156/3/4
f 153/2/4 154/2/4 157/2/4
f 156/4/4 153/4/4 157/4/4
f 154/2/4 155/2/4 157/2/4
f 155/1/4 145/1/4 158/1/4
f 157/2/4 155/2/4 158/2/4
f 158/1/4 145/1/4 159/1/4
f 142/3/4 156/3/4 160/3/4
f 156/3/4 157/3/4 160/3/4
f 158/3/4 159/3/4 160/3/4
f 157/3/4 158/3/4 160/3/4
f 160/3/4 159/3/4 161/3/4
f 164/5/5 163/5/5 162/5/5
f 165/5/5 163/5/5 164/5/5
f 168/4/5 167/4/5 166/4/5
f 169/4/5 167/4/5 168/4/5
f 172/3/5 171/3/5 170/3/5
f 173/3/5 171/3/5 172/3/5
f 174/3/5 171/3/5 173/3/5
f 177/3/5 175/3/5 174/3/5
f 177/3/5 174/3/5 173/3/5
f 178/3/5 175/3/5 177/3/5
f 180/3/5 177/3/5 176/3/5
f 180/3/5 179/3/5 178/3/5
f 180/3/5 178/3/5 177/3/5
f 181/3/5 179/3/5 180/3/5
f 185/3/5 183/3/5 182/3/5
f 186/3/5 183/3/5 185/3/5
f 187/2/5 185/2/5 184/2/5
f 188/2/5 185/2/5 187/2/5
f 189/2/5 185/2/5 188/2/5
f 192/2/5 191/2/5 190/2/5
f 193/2/5 191/2/5 192/2/5
f 196/1/5 195/1/5 194/1/5
f 197/1/5 195/1/5 196/1/5
f 202/1/5 199/1/5 198/1/5
f 203/1/5 199/1/5 202/1/5
f 204/1/5 201/1/5 200/1/5
f 205/1/5 201/1/5 204/1/5
f 206/3/6 207/3/6 210/3/6
f 206/3/6 210/3/6 212/3/6
f 210/3/6 211/3/6 212/3/6
f 212/3/6 211/3/6 213/3/6
f 213/3/6 211/3/6 214/3/6
f 208/3/6 209/3/6 215/3/6
f 215/3/6 209/3/6 216/3/6
f 217/1/6 218/1/6 219/1/6
f 219/1/6 218/1/6 220/1/6
f 221/1/6 222/1/6 225/1/6
f 224/1/6 225/1/6 226/1/6
f 222/3/6 223/3/6 227/3/6
f 226/1/6 225/1/6 227/1/6
f 225/1/6 222/1/6 227/1/6
f 227/3/6 223/3/6 228/3/6
