# MagicaVoxel @ Ephtracy

# group
o 

# material
mtllib trans12_2.mtl
usemtl palette

# normals
vn -1 0 0
vn 1 0 0
vn 0 0 1
vn 0 0 -1
vn 0 -1 0
vn 0 1 0

# texcoords
vt 0.751953 0.5
vt 0.755859 0.5
vt 0.958984 0.5
vt 0.974609 0.5

# verts
v -0.3 0 0.1
v -0.3 0 0
v -0.3 0.2 0.1
v -0.3 0.2 0
v -0.3 0.6 0.2
v -0.3 0.6 0.1
v -0.3 0.6 0
v -0.3 0.6 -0.1
v -0.3 0.7 0.2
v -0.3 0.7 -0.1
v -0.2 0.7 0.2
v -0.2 0.7 -0.1
v -0.2 0.8 0.2
v -0.2 0.8 0
v -0.2 0.8 -0.1
v -0.2 0.9 0
v -0.2 0.9 -0.1
v -0.2 0 0.1
v -0.2 0 0
v -0.2 0.2 0.1
v -0.2 0.2 0
v -0.2 0.6 0.1
v -0.2 0.6 0
v -0.1 0.7 0.2
v -0.1 0.7 0
v -0.1 0.8 0.2
v -0.1 0.8 0
v -0.1 0.8 -0.1
v -0.1 0.9 0
v -0.1 0.9 -0.1
v 0 0.6 0.2
v 0 0.6 0
v 0 0.7 0.2
v 0 0.7 0
v 0 0.7 -0.1
v 0 0.8 0
v 0 0.8 -0.1
v 0.1 0.6 0
v 0.1 0.6 -0.1
v 0.1 0.7 0
v 0.1 0.7 -0.1
v -0.3 0.6 0.2
v -0.3 0.7 0.2
v -0.2 0.7 0.2
v -0.2 0.8 0.2
v -0.1 0.7 0.2
v -0.1 0.8 0.2
v 0 0.6 0.2
v 0 0.7 0.2
v -0.3 0 0.1
v -0.3 0.2 0.1
v -0.3 0.6 0.1
v -0.2 0 0.1
v -0.2 0.2 0.1
v -0.2 0.6 0.1
v -0.2 0.8 0
v -0.2 0.9 0
v -0.1 0.7 0
v -0.1 0.8 0
v -0.1 0.9 0
v 0 0.6 0
v 0 0.7 0
v 0 0.8 0
v 0.1 0.6 0
v 0.1 0.7 0
v -0.3 0 0
v -0.3 0.2 0
v -0.3 0.6 0
v -0.2 0 0
v -0.2 0.2 0
v -0.2 0.6 0
v -0.3 0.6 -0.1
v -0.3 0.7 -0.1
v -0.2 0.7 -0.1
v -0.2 0.8 -0.1
v -0.2 0.9 -0.1
v -0.1 0.8 -0.1
v -0.1 0.9 -0.1
v 0 0.7 -0.1
v 0 0.8 -0.1
v 0.1 0.6 -0.1
v 0.1 0.7 -0.1
v -0.3 0 0.1
v -0.2 0 0.1
v -0.3 0 0
v -0.2 0 0
v -0.3 0.6 0.2
v 0 0.6 0.2
v -0.3 0.6 0.1
v -0.2 0.6 0.1
v -0.3 0.6 0
v -0.2 0.6 0
v 0 0.6 0
v 0.1 0.6 0
v -0.3 0.6 -0.1
v 0.1 0.6 -0.1
v -0.3 0.7 0.2
v -0.2 0.7 0.2
v -0.1 0.7 0.2
v 0 0.7 0.2
v -0.1 0.7 0
v 0 0.7 0
v 0.1 0.7 0
v -0.3 0.7 -0.1
v -0.2 0.7 -0.1
v 0 0.7 -0.1
v 0.1 0.7 -0.1
v -0.2 0.8 0.2
v -0.1 0.8 0.2
v -0.2 0.8 0
v -0.1 0.8 0
v 0 0.8 0
v -0.1 0.8 -0.1
v 0 0.8 -0.1
v -0.2 0.9 0
v -0.1 0.9 0
v -0.2 0.9 -0.1
v -0.1 0.9 -0.1

# faces
f 3/4/1 2/4/1 1/4/1
f 4/4/1 2/4/1 3/4/1
f 6/3/1 4/3/1 3/3/1
f 7/3/1 4/3/1 6/3/1
f 9/2/1 7/2/1 6/2/1
f 9/2/1 8/2/1 7/2/1
f 9/2/1 6/2/1 5/2/1
f 10/2/1 8/2/1 9/2/1
f 13/1/1 12/1/1 11/1/1
f 14/1/1 12/1/1 13/1/1
f 15/1/1 12/1/1 14/1/1
f 16/3/1 15/3/1 14/3/1
f 17/3/1 15/3/1 16/3/1
f 18/4/2 19/4/2 20/4/2
f 20/4/2 19/4/2 21/4/2
f 20/3/2 21/3/2 22/3/2
f 22/3/2 21/3/2 23/3/2
f 24/1/2 25/1/2 26/1/2
f 26/1/2 25/1/2 27/1/2
f 27/3/2 28/3/2 29/3/2
f 29/3/2 28/3/2 30/3/2
f 31/2/2 32/2/2 33/2/2
f 33/2/2 32/2/2 34/2/2
f 34/1/2 35/1/2 36/1/2
f 36/1/2 35/1/2 37/1/2
f 38/2/2 39/2/2 40/2/2
f 40/2/2 39/2/2 41/2/2
f 44/2/3 43/2/3 42/2/3
f 46/2/3 44/2/3 42/2/3
f 46/1/3 45/1/3 44/1/3
f 47/1/3 45/1/3 46/1/3
f 48/2/3 46/2/3 42/2/3
f 49/2/3 46/2/3 48/2/3
f 53/4/3 51/4/3 50/4/3
f 54/3/3 52/3/3 51/3/3
f 54/4/3 51/4/3 53/4/3
f 55/3/3 52/3/3 54/3/3
f 59/3/3 57/3/3 56/3/3
f 60/3/3 57/3/3 59/3/3
f 62/1/3 59/1/3 58/1/3
f 63/1/3 59/1/3 62/1/3
f 64/2/3 62/2/3 61/2/3
f 65/2/3 62/2/3 64/2/3
f 66/4/4 67/4/4 69/4/4
f 67/3/4 68/3/4 70/3/4
f 69/4/4 67/4/4 70/4/4
f 70/3/4 68/3/4 71/3/4
f 72/2/4 73/2/4 74/2/4
f 74/1/4 75/1/4 77/1/4
f 75/3/4 76/3/4 77/3/4
f 77/3/4 76/3/4 78/3/4
f 72/2/4 74/2/4 79/2/4
f 74/1/4 77/1/4 79/1/4
f 79/1/4 77/1/4 80/1/4
f 72/2/4 79/2/4 81/2/4
f 81/2/4 79/2/4 82/2/4
f 85/4/5 84/4/5 83/4/5
f 86/4/5 84/4/5 85/4/5
f 89/2/5 88/2/5 87/2/5
f 90/2/5 88/2/5 89/2/5
f 92/2/5 88/2/5 90/2/5
f 93/2/5 88/2/5 92/2/5
f 95/2/5 92/2/5 91/2/5
f 95/2/5 94/2/5 93/2/5
f 95/2/5 93/2/5 92/2/5
f 96/2/5 94/2/5 95/2/5
f 99/2/6 100/2/6 101/2/6
f 101/2/6 100/2/6 102/2/6
f 97/2/6 98/2/6 104/2/6
f 104/2/6 98/2/6 105/2/6
f 102/2/6 103/2/6 106/2/6
f 106/2/6 103/2/6 107/2/6
f 108/1/6 109/1/6 110/1/6
f 110/1/6 109/1/6 111/1/6
f 111/1/6 112/1/6 113/1/6
f 113/1/6 112/1/6 114/1/6
f 115/3/6 116/3/6 117/3/6
f 117/3/6 116/3/6 118/3/6
