# MagicaVoxel @ Ephtracy

# group
o 

# material
mtllib trans12.mtl
usemtl palette

# normals
vn -1 0 0
vn 1 0 0
vn 0 0 1
vn 0 0 -1
vn 0 -1 0
vn 0 1 0

# texcoords
vt 0.728516 0.5
vt 0.751953 0.5
vt 0.755859 0.5
vt 0.958984 0.5
vt 0.974609 0.5

# verts
v -0.3 0 0.1
v -0.3 0 0
v -0.3 0.2 0.1
v -0.3 0.2 0
v -0.3 0.6 0.2
v -0.3 0.6 0.1
v -0.3 0.6 0
v -0.3 0.6 -0.1
v -0.3 0.7 0.2
v -0.3 0.7 -0.1
v -0.3 1.1 0.2
v -0.3 1.1 -0.1
v 0.1 0 0.1
v 0.1 0 0
v 0.1 0.2 0.1
v 0.1 0.2 0
v 0.1 0.6 0.1
v 0.1 0.6 0
v -0.2 0 0.1
v -0.2 0 0
v -0.2 0.2 0.1
v -0.2 0.2 0
v -0.2 0.6 0.1
v -0.2 0.6 0
v 0.2 0 0.1
v 0.2 0 0
v 0.2 0.2 0.1
v 0.2 0.2 0
v 0.2 0.6 0.2
v 0.2 0.6 0.1
v 0.2 0.6 0
v 0.2 0.6 -0.1
v 0.2 1.1 0.2
v 0.2 1.1 -0.1
v -0.3 0.6 0.2
v -0.3 0.7 0.2
v -0.3 1.1 0.2
v -0.2 0.7 0.2
v -0.2 0.8 0.2
v -0.2 1 0.2
v -0.1 0.8 0.2
v -0.1 0.9 0.2
v 0 0.7 0.2
v 0 0.8 0.2
v 0 0.9 0.2
v 0 1 0.2
v 0.1 0.7 0.2
v 0.1 0.8 0.2
v 0.1 1 0.2
v 0.1 1.1 0.2
v 0.2 0.6 0.2
v 0.2 1.1 0.2
v -0.3 0 0.1
v -0.3 0.2 0.1
v -0.3 0.6 0.1
v -0.2 0 0.1
v -0.2 0.2 0.1
v -0.2 0.6 0.1
v 0.1 0 0.1
v 0.1 0.2 0.1
v 0.1 0.6 0.1
v 0.2 0 0.1
v 0.2 0.2 0.1
v 0.2 0.6 0.1
v -0.3 0 0
v -0.3 0.2 0
v -0.3 0.6 0
v -0.2 0 0
v -0.2 0.2 0
v -0.2 0.6 0
v 0.1 0 0
v 0.1 0.2 0
v 0.1 0.6 0
v 0.2 0 0
v 0.2 0.2 0
v 0.2 0.6 0
v -0.3 0.6 -0.1
v -0.3 0.7 -0.1
v -0.3 1.1 -0.1
v -0.2 0.7 -0.1
v -0.2 0.8 -0.1
v -0.2 1 -0.1
v -0.1 0.8 -0.1
v -0.1 0.9 -0.1
v 0 0.7 -0.1
v 0 0.8 -0.1
v 0 0.9 -0.1
v 0 1 -0.1
v 0.1 0.7 -0.1
v 0.1 0.8 -0.1
v 0.1 1 -0.1
v 0.1 1.1 -0.1
v 0.2 0.6 -0.1
v 0.2 1.1 -0.1
v -0.3 0 0.1
v -0.2 0 0.1
v 0.1 0 0.1
v 0.2 0 0.1
v -0.3 0 0
v -0.2 0 0
v 0.1 0 0
v 0.2 0 0
v -0.3 0.6 0.2
v 0.2 0.6 0.2
v -0.3 0.6 0.1
v -0.2 0.6 0.1
v 0.1 0.6 0.1
v 0.2 0.6 0.1
v -0.3 0.6 0
v -0.2 0.6 0
v 0.1 0.6 0
v 0.2 0.6 0
v -0.3 0.6 -0.1
v 0.2 0.6 -0.1
v -0.3 1.1 0.2
v 0.1 1.1 0.2
v 0.2 1.1 0.2
v -0.3 1.1 -0.1
v 0.1 1.1 -0.1
v 0.2 1.1 -0.1

# faces
f 3/5/1 2/5/1 1/5/1
f 4/5/1 2/5/1 3/5/1
f 6/4/1 4/4/1 3/4/1
f 7/4/1 4/4/1 6/4/1
f 9/3/1 7/3/1 6/3/1
f 9/3/1 8/3/1 7/3/1
f 9/3/1 6/3/1 5/3/1
f 10/3/1 8/3/1 9/3/1
f 11/1/1 10/1/1 9/1/1
f 12/1/1 10/1/1 11/1/1
f 15/5/1 14/5/1 13/5/1
f 16/5/1 14/5/1 15/5/1
f 17/4/1 16/4/1 15/4/1
f 18/4/1 16/4/1 17/4/1
f 19/5/2 20/5/2 21/5/2
f 21/5/2 20/5/2 22/5/2
f 21/4/2 22/4/2 23/4/2
f 23/4/2 22/4/2 24/4/2
f 25/5/2 26/5/2 27/5/2
f 27/5/2 26/5/2 28/5/2
f 27/4/2 28/4/2 30/4/2
f 30/4/2 28/4/2 31/4/2
f 30/3/2 31/3/2 33/3/2
f 31/3/2 32/3/2 33/3/2
f 29/3/2 30/3/2 33/3/2
f 33/3/2 32/3/2 34/3/2
f 38/3/3 36/3/3 35/3/3
f 38/1/3 37/1/3 36/1/3
f 39/1/3 37/1/3 38/1/3
f 40/1/3 37/1/3 39/1/3
f 41/2/3 39/2/3 38/2/3
f 41/4/3 40/4/3 39/4/3
f 42/4/3 40/4/3 41/4/3
f 43/3/3 38/3/3 35/3/3
f 43/2/3 41/2/3 38/2/3
f 43/2/3 42/2/3 41/2/3
f 44/2/3 42/2/3 43/2/3
f 45/4/3 40/4/3 42/4/3
f 45/2/3 42/2/3 44/2/3
f 46/1/3 37/1/3 40/1/3
f 46/4/3 40/4/3 45/4/3
f 47/4/3 44/4/3 43/4/3
f 47/3/3 43/3/3 35/3/3
f 48/2/3 45/2/3 44/2/3
f 48/4/3 44/4/3 47/4/3
f 48/2/3 46/2/3 45/2/3
f 49/1/3 37/1/3 46/1/3
f 49/2/3 46/2/3 48/2/3
f 50/1/3 37/1/3 49/1/3
f 51/3/3 48/3/3 47/3/3
f 51/3/3 47/3/3 35/3/3
f 51/3/3 50/3/3 49/3/3
f 51/3/3 49/3/3 48/3/3
f 52/3/3 50/3/3 51/3/3
f 56/5/3 54/5/3 53/5/3
f 57/4/3 55/4/3 54/4/3
f 57/5/3 54/5/3 56/5/3
f 58/4/3 55/4/3 57/4/3
f 62/5/3 60/5/3 59/5/3
f 63/4/3 61/4/3 60/4/3
f 63/5/3 60/5/3 62/5/3
f 64/4/3 61/4/3 63/4/3
f 65/5/4 66/5/4 68/5/4
f 66/4/4 67/4/4 69/4/4
f 68/5/4 66/5/4 69/5/4
f 69/4/4 67/4/4 70/4/4
f 71/5/4 72/5/4 74/5/4
f 72/4/4 73/4/4 75/4/4
f 74/5/4 72/5/4 75/5/4
f 75/4/4 73/4/4 76/4/4
f 77/3/4 78/3/4 80/3/4
f 78/1/4 79/1/4 80/1/4
f 80/1/4 79/1/4 81/1/4
f 81/1/4 79/1/4 82/1/4
f 80/2/4 81/2/4 83/2/4
f 81/4/4 82/4/4 83/4/4
f 83/4/4 82/4/4 84/4/4
f 77/3/4 80/3/4 85/3/4
f 80/2/4 83/2/4 85/2/4
f 83/2/4 84/2/4 85/2/4
f 85/2/4 84/2/4 86/2/4
f 84/4/4 82/4/4 87/4/4
f 86/2/4 84/2/4 87/2/4
f 82/1/4 79/1/4 88/1/4
f 87/4/4 82/4/4 88/4/4
f 85/4/4 86/4/4 89/4/4
f 77/3/4 85/3/4 89/3/4
f 86/2/4 87/2/4 90/2/4
f 89/4/4 86/4/4 90/4/4
f 87/2/4 88/2/4 90/2/4
f 88/1/4 79/1/4 91/1/4
f 90/2/4 88/2/4 91/2/4
f 91/1/4 79/1/4 92/1/4
f 89/3/4 90/3/4 93/3/4
f 77/3/4 89/3/4 93/3/4
f 91/3/4 92/3/4 93/3/4
f 90/3/4 91/3/4 93/3/4
f 93/3/4 92/3/4 94/3/4
f 99/5/5 96/5/5 95/5/5
f 100/5/5 96/5/5 99/5/5
f 101/5/5 98/5/5 97/5/5
f 102/5/5 98/5/5 101/5/5
f 105/3/5 104/3/5 103/3/5
f 106/3/5 104/3/5 105/3/5
f 107/3/5 104/3/5 106/3/5
f 108/3/5 104/3/5 107/3/5
f 110/3/5 107/3/5 106/3/5
f 111/3/5 107/3/5 110/3/5
f 113/3/5 110/3/5 109/3/5
f 113/3/5 112/3/5 111/3/5
f 113/3/5 111/3/5 110/3/5
f 114/3/5 112/3/5 113/3/5
f 115/1/6 116/1/6 118/1/6
f 116/3/6 117/3/6 119/3/6
f 118/1/6 116/1/6 119/1/6
f 119/3/6 117/3/6 120/3/6
