# MagicaVoxel @ Ephtracy

# group
o 

# material
mtllib trans_10.mtl
usemtl palette

# normals
vn -1 0 0
vn 1 0 0
vn 0 0 1
vn 0 0 -1
vn 0 -1 0
vn 0 1 0

# texcoords
vt 0.939453 0.5
vt 0.970703 0.5
vt 0.974609 0.5

# verts
v -0.8 0.8 0.4
v -0.8 0.8 0.3
v -0.8 1 0.4
v -0.8 1 0.3
v -0.7 0 0.4
v -0.7 0 0.3
v -0.7 0.1 0.4
v -0.7 0.1 0.3
v -0.7 0.7 0.4
v -0.7 0.7 0.3
v -0.7 0.8 0.5
v -0.7 0.8 0.4
v -0.7 0.8 0.3
v -0.7 0.8 0.2
v -0.7 1 0.5
v -0.7 1 0.4
v -0.7 1 0.3
v -0.7 1 0.2
v -0.7 1.1 0.4
v -0.7 1.1 0.3
v -0.6 0.7 0.5
v -0.6 0.7 0.4
v -0.6 0.7 0.3
v -0.6 0.7 0.2
v -0.6 0.8 0.6
v -0.6 0.8 0.5
v -0.6 0.8 0.4
v -0.6 0.8 0.3
v -0.6 0.8 0.2
v -0.6 0.8 0.1
v -0.6 1 0.6
v -0.6 1 0.5
v -0.6 1 0.4
v -0.6 1 0.3
v -0.6 1 0.2
v -0.6 1 0.1
v -0.6 1.1 0.5
v -0.6 1.1 0.4
v -0.6 1.1 0.3
v -0.6 1.1 0.2
v -0.5 0 0.4
v -0.5 0 0.3
v -0.5 0.1 0.4
v -0.5 0.1 0.3
v -0.5 0.7 0.4
v -0.5 0.7 0.3
v -0.6 0 0.4
v -0.6 0 0.3
v -0.6 0.1 0.4
v -0.6 0.1 0.3
v -0.6 0.7 0.4
v -0.6 0.7 0.3
v -0.5 0.7 0.5
v -0.5 0.7 0.4
v -0.5 0.7 0.3
v -0.5 0.7 0.2
v -0.5 0.8 0.6
v -0.5 0.8 0.5
v -0.5 0.8 0.4
v -0.5 0.8 0.3
v -0.5 0.8 0.2
v -0.5 0.8 0.1
v -0.5 1 0.6
v -0.5 1 0.5
v -0.5 1 0.4
v -0.5 1 0.3
v -0.5 1 0.2
v -0.5 1 0.1
v -0.5 1.1 0.5
v -0.5 1.1 0.4
v -0.5 1.1 0.3
v -0.5 1.1 0.2
v -0.4 0 0.4
v -0.4 0 0.3
v -0.4 0.1 0.4
v -0.4 0.1 0.3
v -0.4 0.7 0.4
v -0.4 0.7 0.3
v -0.4 0.8 0.5
v -0.4 0.8 0.4
v -0.4 0.8 0.3
v -0.4 0.8 0.2
v -0.4 1 0.5
v -0.4 1 0.4
v -0.4 1 0.3
v -0.4 1 0.2
v -0.4 1.1 0.4
v -0.4 1.1 0.3
v -0.3 0.8 0.4
v -0.3 0.8 0.3
v -0.3 1 0.4
v -0.3 1 0.3
v -0.6 0.8 0.6
v -0.6 1 0.6
v -0.5 0.8 0.6
v -0.5 1 0.6
v -0.7 0.8 0.5
v -0.7 1 0.5
v -0.6 0.7 0.5
v -0.6 0.8 0.5
v -0.6 1 0.5
v -0.6 1.1 0.5
v -0.5 0.7 0.5
v -0.5 0.8 0.5
v -0.5 1 0.5
v -0.5 1.1 0.5
v -0.4 0.8 0.5
v -0.4 1 0.5
v -0.8 0.8 0.4
v -0.8 1 0.4
v -0.7 0 0.4
v -0.7 0.1 0.4
v -0.7 0.7 0.4
v -0.7 0.8 0.4
v -0.7 1 0.4
v -0.7 1.1 0.4
v -0.6 0 0.4
v -0.6 0.1 0.4
v -0.6 0.7 0.4
v -0.6 0.8 0.4
v -0.6 1 0.4
v -0.6 1.1 0.4
v -0.5 0 0.4
v -0.5 0.1 0.4
v -0.5 0.7 0.4
v -0.5 0.8 0.4
v -0.5 1 0.4
v -0.5 1.1 0.4
v -0.4 0 0.4
v -0.4 0.1 0.4
v -0.4 0.7 0.4
v -0.4 0.8 0.4
v -0.4 1 0.4
v -0.4 1.1 0.4
v -0.3 0.8 0.4
v -0.3 1 0.4
v -0.8 0.8 0.3
v -0.8 1 0.3
v -0.7 0 0.3
v -0.7 0.1 0.3
v -0.7 0.7 0.3
v -0.7 0.8 0.3
v -0.7 1 0.3
v -0.7 1.1 0.3
v -0.6 0 0.3
v -0.6 0.1 0.3
v -0.6 0.7 0.3
v -0.6 0.8 0.3
v -0.6 1 0.3
v -0.6 1.1 0.3
v -0.5 0 0.3
v -0.5 0.1 0.3
v -0.5 0.7 0.3
v -0.5 0.8 0.3
v -0.5 1 0.3
v -0.5 1.1 0.3
v -0.4 0 0.3
v -0.4 0.1 0.3
v -0.4 0.7 0.3
v -0.4 0.8 0.3
v -0.4 1 0.3
v -0.4 1.1 0.3
v -0.3 0.8 0.3
v -0.3 1 0.3
v -0.7 0.8 0.2
v -0.7 1 0.2
v -0.6 0.7 0.2
v -0.6 0.8 0.2
v -0.6 1 0.2
v -0.6 1.1 0.2
v -0.5 0.7 0.2
v -0.5 0.8 0.2
v -0.5 1 0.2
v -0.5 1.1 0.2
v -0.4 0.8 0.2
v -0.4 1 0.2
v -0.6 0.8 0.1
v -0.6 1 0.1
v -0.5 0.8 0.1
v -0.5 1 0.1
v -0.7 0 0.4
v -0.6 0 0.4
v -0.5 0 0.4
v -0.4 0 0.4
v -0.7 0 0.3
v -0.6 0 0.3
v -0.5 0 0.3
v -0.4 0 0.3
v -0.6 0.7 0.5
v -0.5 0.7 0.5
v -0.6 0.7 0.4
v -0.5 0.7 0.4
v -0.6 0.7 0.3
v -0.5 0.7 0.3
v -0.6 0.7 0.2
v -0.5 0.7 0.2
v -0.6 0.8 0.6
v -0.5 0.8 0.6
v -0.7 0.8 0.5
v -0.6 0.8 0.5
v -0.5 0.8 0.5
v -0.4 0.8 0.5
v -0.8 0.8 0.4
v -0.7 0.8 0.4
v -0.6 0.8 0.4
v -0.5 0.8 0.4
v -0.4 0.8 0.4
v -0.3 0.8 0.4
v -0.8 0.8 0.3
v -0.7 0.8 0.3
v -0.6 0.8 0.3
v -0.5 0.8 0.3
v -0.4 0.8 0.3
v -0.3 0.8 0.3
v -0.7 0.8 0.2
v -0.6 0.8 0.2
v -0.5 0.8 0.2
v -0.4 0.8 0.2
v -0.6 0.8 0.1
v -0.5 0.8 0.1
v -0.6 1 0.6
v -0.5 1 0.6
v -0.7 1 0.5
v -0.6 1 0.5
v -0.5 1 0.5
v -0.4 1 0.5
v -0.8 1 0.4
v -0.7 1 0.4
v -0.6 1 0.4
v -0.5 1 0.4
v -0.4 1 0.4
v -0.3 1 0.4
v -0.8 1 0.3
v -0.7 1 0.3
v -0.6 1 0.3
v -0.5 1 0.3
v -0.4 1 0.3
v -0.3 1 0.3
v -0.7 1 0.2
v -0.6 1 0.2
v -0.5 1 0.2
v -0.4 1 0.2
v -0.6 1 0.1
v -0.5 1 0.1
v -0.6 1.1 0.5
v -0.5 1.1 0.5
v -0.7 1.1 0.4
v -0.6 1.1 0.4
v -0.5 1.1 0.4
v -0.4 1.1 0.4
v -0.7 1.1 0.3
v -0.6 1.1 0.3
v -0.5 1.1 0.3
v -0.4 1.1 0.3
v -0.6 1.1 0.2
v -0.5 1.1 0.2

# faces
f 3/3/1 2/3/1 1/3/1
f 4/3/1 2/3/1 3/3/1
f 7/1/1 6/1/1 5/1/1
f 8/1/1 6/1/1 7/1/1
f 9/2/1 8/2/1 7/2/1
f 10/2/1 8/2/1 9/2/1
f 12/3/1 10/3/1 9/3/1
f 13/3/1 10/3/1 12/3/1
f 15/3/1 12/3/1 11/3/1
f 16/3/1 12/3/1 15/3/1
f 17/3/1 14/3/1 13/3/1
f 18/3/1 14/3/1 17/3/1
f 19/3/1 17/3/1 16/3/1
f 20/3/1 17/3/1 19/3/1
f 26/3/1 22/3/1 21/3/1
f 27/3/1 22/3/1 26/3/1
f 28/3/1 24/3/1 23/3/1
f 29/3/1 24/3/1 28/3/1
f 31/3/1 26/3/1 25/3/1
f 32/3/1 26/3/1 31/3/1
f 35/3/1 30/3/1 29/3/1
f 36/3/1 30/3/1 35/3/1
f 37/3/1 33/3/1 32/3/1
f 38/3/1 33/3/1 37/3/1
f 39/3/1 35/3/1 34/3/1
f 40/3/1 35/3/1 39/3/1
f 43/1/1 42/1/1 41/1/1
f 44/1/1 42/1/1 43/1/1
f 45/2/1 44/2/1 43/2/1
f 46/2/1 44/2/1 45/2/1
f 47/1/2 48/1/2 49/1/2
f 49/1/2 48/1/2 50/1/2
f 49/2/2 50/2/2 51/2/2
f 51/2/2 50/2/2 52/2/2
f 53/3/2 54/3/2 58/3/2
f 58/3/2 54/3/2 59/3/2
f 55/3/2 56/3/2 60/3/2
f 60/3/2 56/3/2 61/3/2
f 57/3/2 58/3/2 63/3/2
f 63/3/2 58/3/2 64/3/2
f 61/3/2 62/3/2 67/3/2
f 67/3/2 62/3/2 68/3/2
f 64/3/2 65/3/2 69/3/2
f 69/3/2 65/3/2 70/3/2
f 66/3/2 67/3/2 71/3/2
f 71/3/2 67/3/2 72/3/2
f 73/1/2 74/1/2 75/1/2
f 75/1/2 74/1/2 76/1/2
f 75/2/2 76/2/2 77/2/2
f 77/2/2 76/2/2 78/2/2
f 77/3/2 78/3/2 80/3/2
f 80/3/2 78/3/2 81/3/2
f 79/3/2 80/3/2 83/3/2
f 83/3/2 80/3/2 84/3/2
f 81/3/2 82/3/2 85/3/2
f 85/3/2 82/3/2 86/3/2
f 84/3/2 85/3/2 87/3/2
f 87/3/2 85/3/2 88/3/2
f 89/3/2 90/3/2 91/3/2
f 91/3/2 90/3/2 92/3/2
f 95/3/3 94/3/3 93/3/3
f 96/3/3 94/3/3 95/3/3
f 100/3/3 98/3/3 97/3/3
f 101/3/3 98/3/3 100/3/3
f 103/3/3 100/3/3 99/3/3
f 104/3/3 100/3/3 103/3/3
f 105/3/3 102/3/3 101/3/3
f 106/3/3 102/3/3 105/3/3
f 107/3/3 105/3/3 104/3/3
f 108/3/3 105/3/3 107/3/3
f 114/3/3 110/3/3 109/3/3
f 115/3/3 110/3/3 114/3/3
f 117/1/3 112/1/3 111/1/3
f 118/2/3 113/2/3 112/2/3
f 118/1/3 112/1/3 117/1/3
f 119/3/3 114/3/3 113/3/3
f 119/2/3 113/2/3 118/2/3
f 120/3/3 114/3/3 119/3/3
f 121/3/3 116/3/3 115/3/3
f 122/3/3 116/3/3 121/3/3
f 129/1/3 124/1/3 123/1/3
f 130/2/3 125/2/3 124/2/3
f 130/1/3 124/1/3 129/1/3
f 131/3/3 126/3/3 125/3/3
f 131/2/3 125/2/3 130/2/3
f 132/3/3 126/3/3 131/3/3
f 133/3/3 128/3/3 127/3/3
f 134/3/3 128/3/3 133/3/3
f 135/3/3 133/3/3 132/3/3
f 136/3/3 133/3/3 135/3/3
f 137/3/4 138/3/4 142/3/4
f 142/3/4 138/3/4 143/3/4
f 139/1/4 140/1/4 145/1/4
f 140/2/4 141/2/4 146/2/4
f 145/1/4 140/1/4 146/1/4
f 141/3/4 142/3/4 147/3/4
f 146/2/4 141/2/4 147/2/4
f 147/3/4 142/3/4 148/3/4
f 143/3/4 144/3/4 149/3/4
f 149/3/4 144/3/4 150/3/4
f 151/1/4 152/1/4 157/1/4
f 152/2/4 153/2/4 158/2/4
f 157/1/4 152/1/4 158/1/4
f 153/3/4 154/3/4 159/3/4
f 158/2/4 153/2/4 159/2/4
f 159/3/4 154/3/4 160/3/4
f 155/3/4 156/3/4 161/3/4
f 161/3/4 156/3/4 162/3/4
f 160/3/4 161/3/4 163/3/4
f 163/3/4 161/3/4 164/3/4
f 165/3/4 166/3/4 168/3/4
f 168/3/4 166/3/4 169/3/4
f 167/3/4 168/3/4 171/3/4
f 171/3/4 168/3/4 172/3/4
f 169/3/4 170/3/4 173/3/4
f 173/3/4 170/3/4 174/3/4
f 172/3/4 173/3/4 175/3/4
f 175/3/4 173/3/4 176/3/4
f 177/3/4 178/3/4 179/3/4
f 179/3/4 178/3/4 180/3/4
f 185/1/5 182/1/5 181/1/5
f 186/1/5 182/1/5 185/1/5
f 187/1/5 184/1/5 183/1/5
f 188/1/5 184/1/5 187/1/5
f 191/3/5 190/3/5 189/3/5
f 192/3/5 190/3/5 191/3/5
f 193/3/5 192/3/5 191/3/5
f 194/3/5 192/3/5 193/3/5
f 195/3/5 194/3/5 193/3/5
f 196/3/5 194/3/5 195/3/5
f 200/3/5 198/3/5 197/3/5
f 201/3/5 198/3/5 200/3/5
f 204/3/5 200/3/5 199/3/5
f 205/3/5 200/3/5 204/3/5
f 206/3/5 202/3/5 201/3/5
f 207/3/5 202/3/5 206/3/5
f 209/3/5 204/3/5 203/3/5
f 210/3/5 204/3/5 209/3/5
f 213/3/5 208/3/5 207/3/5
f 214/3/5 208/3/5 213/3/5
f 215/3/5 211/3/5 210/3/5
f 216/3/5 211/3/5 215/3/5
f 217/3/5 213/3/5 212/3/5
f 218/3/5 213/3/5 217/3/5
f 219/3/5 217/3/5 216/3/5
f 220/3/5 217/3/5 219/3/5
f 221/3/6 222/3/6 224/3/6
f 224/3/6 222/3/6 225/3/6
f 223/3/6 224/3/6 228/3/6
f 228/3/6 224/3/6 229/3/6
f 225/3/6 226/3/6 230/3/6
f 230/3/6 226/3/6 231/3/6
f 227/3/6 228/3/6 233/3/6
f 233/3/6 228/3/6 234/3/6
f 231/3/6 232/3/6 237/3/6
f 237/3/6 232/3/6 238/3/6
f 234/3/6 235/3/6 239/3/6
f 239/3/6 235/3/6 240/3/6
f 236/3/6 237/3/6 241/3/6
f 241/3/6 237/3/6 242/3/6
f 240/3/6 241/3/6 243/3/6
f 243/3/6 241/3/6 244/3/6
f 245/3/6 246/3/6 248/3/6
f 248/3/6 246/3/6 249/3/6
f 247/3/6 248/3/6 251/3/6
f 249/3/6 250/3/6 251/3/6
f 248/3/6 249/3/6 251/3/6
f 251/3/6 250/3/6 252/3/6
f 252/3/6 250/3/6 253/3/6
f 253/3/6 250/3/6 254/3/6
f 252/3/6 253/3/6 255/3/6
f 255/3/6 253/3/6 256/3/6
