# MagicaVoxel @ Ephtracy

# group
o 

# material
mtllib gusenica_8.mtl
usemtl palette

# normals
vn -1 0 0
vn 1 0 0
vn 0 0 1
vn 0 0 -1
vn 0 -1 0
vn 0 1 0

# texcoords
vt 0.0917969 0.5
vt 0.228516 0.5
vt 0.232422 0.5
vt 0.244141 0.5
vt 0.986328 0.5

# verts
v -3.2 3.9 0.2
v -3.2 3.9 -1.3
v -3.2 4.1 0.2
v -3.2 4.1 0.1
v -3.2 4.2 0.2
v -3.2 4.2 0.1
v -3.2 4.2 -1.1
v -3.2 4.2 -1.3
v -3.2 4.3 0.1
v -3.2 4.3 0
v -3.2 4.3 -0.4
v -3.2 4.3 -0.6
v -3.2 4.3 -0.9
v -3.2 4.3 -1.1
v -3.2 4.3 -1.3
v -3.2 4.4 0
v -3.2 4.4 -0.1
v -3.2 4.4 -0.6
v -3.2 4.4 -0.9
v -3.2 4.4 -1
v -3.2 4.4 -1.1
v -3.2 4.5 0.2
v -3.2 4.5 -0.1
v -3.2 4.5 -0.4
v -3.2 4.5 -0.9
v -3.2 4.5 -1
v -3.2 4.5 -1.3
v -3.1 3.7 0.1
v -3.1 3.7 -1.2
v -3.1 3.9 0.1
v -3.1 3.9 -1.2
v -3.1 4.2 -1.1
v -3.1 4.2 -1.2
v -3.1 4.2 -1.3
v -3.1 4.3 -0.4
v -3.1 4.3 -0.6
v -3.1 4.3 -0.9
v -3.1 4.3 -1.1
v -3.1 4.3 -1.2
v -3.1 4.3 -1.3
v -3.1 4.4 -0.4
v -3.1 4.4 -0.6
v -3.1 4.4 -0.9
v -3.1 4.4 -1
v -3.1 4.4 -1.1
v -3.1 4.5 -0.4
v -3.1 4.5 -0.6
v -3.1 4.6 0.2
v -3.1 4.6 0.1
v -3.1 4.6 0
v -3.1 4.6 -0.3
v -3.1 4.7 0.2
v -3.1 4.7 0.1
v -3.1 4.7 0
v -3.1 4.7 -0.1
v -3.1 4.7 -0.3
v -3.1 4.8 0
v -3.1 4.8 -0.1
v -3 4.1 0.2
v -3 4.1 0.1
v -3 4.2 0.2
v -3 4.2 0.1
v -3 4.4 -0.6
v -3 4.4 -0.9
v -3 4.5 0.1
v -3 4.5 -0.5
v -3 4.5 -0.6
v -3 4.5 -0.7
v -3 4.5 -0.9
v -3 4.6 0.1
v -3 4.6 0
v -3 4.6 -0.3
v -3 4.6 -0.4
v -3 4.6 -0.5
v -3 4.6 -0.6
v -3 4.6 -0.7
v -3 4.7 0.1
v -3 4.7 0
v -3 4.7 -0.1
v -3 4.7 -0.3
v -3 4.7 -0.4
v -3 4.8 -0.1
v -3 4.8 -0.3
v -2.9 4.5 -0.5
v -2.9 4.5 -0.6
v -2.9 4.6 -0.5
v -2.9 4.6 -0.6
v -2.9 4.7 0.1
v -2.9 4.7 0
v -2.9 4.8 0.1
v -2.9 4.8 0
v -2.8 4.4 -0.7
v -2.8 4.4 -0.8
v -2.8 4.5 -0.6
v -2.8 4.5 -0.7
v -2.8 4.5 -0.8
v -2.8 4.5 -0.9
v -2.8 4.6 -0.6
v -2.8 4.6 -0.7
v -2.8 4.6 -0.8
v -2.8 4.6 -0.9
v -2.8 4.6 -1
v -2.8 4.7 0.2
v -2.8 4.7 0.1
v -2.8 4.7 -0.2
v -2.8 4.7 -0.4
v -2.8 4.7 -0.6
v -2.8 4.7 -0.7
v -2.8 4.8 0.2
v -2.8 4.8 0.1
v -2.8 4.8 -0.2
v -2.8 4.8 -0.4
v -2.8 4.8 -0.6
v -2.8 4.8 -1
v -2.8 4.9 -0.4
v -2.8 4.9 -0.5
v -2.8 5 -0.5
v -2.8 5 -0.6
v -2.7 4.5 -0.7
v -2.7 4.5 -0.8
v -2.7 4.5 -0.9
v -2.7 4.5 -1
v -2.7 4.6 -0.4
v -2.7 4.6 -0.7
v -2.7 4.6 -0.8
v -2.7 4.6 -0.9
v -2.7 4.6 -1
v -2.7 4.6 -1.1
v -2.7 4.7 -0.6
v -2.7 4.7 -0.7
v -2.7 4.8 -0.1
v -2.7 4.8 -0.2
v -2.7 4.8 -0.3
v -2.7 4.8 -0.4
v -2.7 4.8 -0.6
v -2.7 4.8 -1
v -2.7 4.8 -1.1
v -2.7 4.8 -1.2
v -2.7 4.8 -1.3
v -2.7 4.9 -0.1
v -2.7 4.9 -0.2
v -2.7 4.9 -0.3
v -2.7 4.9 -0.4
v -2.7 4.9 -1.2
v -2.7 4.9 -1.3
v -2.6 4.4 -1
v -2.6 4.4 -1.1
v -2.6 4.6 -1
v -2.6 4.6 -1.1
v -2.6 4.6 -1.2
v -2.6 4.8 -0.2
v -2.6 4.8 -0.3
v -2.6 4.8 -0.6
v -2.6 4.8 -0.7
v -2.6 4.8 -1.1
v -2.6 4.8 -1.2
v -2.6 4.9 -0.2
v -2.6 4.9 -0.3
v -2.6 4.9 -0.6
v -2.6 4.9 -0.7
v -2.6 4.9 -1.2
v -2.6 5 -1.1
v -2.6 5 -1.2
v -2.5 4 -0.5
v -2.5 4 -0.6
v -2.5 4.1 -0.5
v -2.5 4.1 -0.6
v -2.5 4.3 -1.1
v -2.5 4.3 -1.2
v -2.5 4.4 -1.1
v -2.5 4.4 -1.2
v -2.5 4.5 -1.1
v -2.5 4.5 -1.2
v -2.5 4.6 -1.1
v -2.5 4.6 -1.2
v -2.5 4.7 -0.9
v -2.5 4.7 -1
v -2.5 4.8 -0.1
v -2.5 4.8 -0.2
v -2.5 4.8 -0.7
v -2.5 4.8 -0.8
v -2.5 4.8 -0.9
v -2.5 4.8 -1
v -2.5 4.8 -1.1
v -2.5 4.9 -0.1
v -2.5 4.9 -0.2
v -2.5 4.9 -0.7
v -2.5 4.9 -0.8
v -2.5 4.9 -1
v -2.5 4.9 -1.1
v -2.4 4.5 0
v -2.4 4.5 -0.1
v -2.4 4.6 0
v -2.4 4.6 -0.1
v -2.4 4.7 -1.2
v -2.4 4.7 -1.3
v -2.4 4.8 -0.8
v -2.4 4.8 -1
v -2.4 4.8 -1.2
v -2.4 4.8 -1.3
v -2.4 4.9 -0.1
v -2.4 4.9 -0.5
v -2.4 4.9 -0.6
v -2.4 4.9 -0.8
v -2.4 4.9 -1
v -2.4 4.9 -1.1
v -2.4 5 -0.2
v -2.4 5 -0.3
v -2.4 5 -0.4
v -2.4 5 -0.5
v -2.4 5 -0.6
v -2.4 5 -0.8
v -2.4 5 -1
v -2.4 5 -1.1
v -2.4 5.1 -0.1
v -2.4 5.1 -0.2
v -2.4 5.1 -0.3
v -2.4 5.1 -0.4
v -2.3 4.1 0.2
v -2.3 4.1 0.1
v -2.3 4.2 0.2
v -2.3 4.2 0.1
v -2.3 4.2 0
v -2.3 4.3 0.1
v -2.3 4.3 0
v -2.3 4.3 -1.1
v -2.3 4.3 -1.2
v -2.3 4.4 -1.1
v -2.3 4.4 -1.2
v -2.3 4.9 -0.5
v -2.3 4.9 -0.6
v -2.3 4.9 -0.8
v -2.3 4.9 -0.9
v -2.3 5 -0.2
v -2.3 5 -0.3
v -2.3 5 -0.4
v -2.3 5 -0.5
v -2.3 5 -0.6
v -2.3 5 -0.8
v -2.3 5 -0.9
v -2.3 5.1 -0.1
v -2.3 5.1 -0.2
v -2.3 5.1 -0.3
v -2.3 5.1 -0.4
v -2.3 5.1 -0.6
v -2.3 5.1 -0.7
v -2.3 5.1 -0.8
v -2.3 5.2 -0.1
v -2.3 5.2 -0.2
v -2.3 5.2 -0.6
v -2.3 5.2 -0.7
v -2.2 4.9 -0.9
v -2.2 4.9 -1
v -2.2 5 -0.8
v -2.2 5 -0.9
v -2.2 5 -1
v -2.2 5.1 -0.2
v -2.2 5.1 -0.6
v -2.2 5.1 -0.8
v -2.2 5.1 -0.9
v -2.2 5.2 -0.1
v -2.2 5.2 -0.2
v -2.2 5.2 -0.3
v -2.2 5.2 -0.5
v -2.2 5.2 -0.6
v -2.2 5.3 -0.1
v -2.2 5.3 -0.3
v -2.2 5.3 -0.5
v -2.2 5.3 -0.6
v -2.1 4.6 -0.1
v -2.1 4.6 -0.2
v -2.1 4.6 -1.1
v -2.1 4.6 -1.2
v -2.1 4.7 -0.1
v -2.1 4.7 -0.2
v -2.1 4.7 -0.3
v -2.1 4.7 -1.1
v -2.1 4.7 -1.2
v -2.1 4.8 -0.2
v -2.1 4.8 -0.3
v -2.1 5.1 -0.7
v -2.1 5.1 -0.8
v -2.1 5.2 -0.4
v -2.1 5.2 -0.5
v -2.1 5.2 -0.6
v -2.1 5.2 -0.7
v -2.1 5.2 -0.8
v -2.1 5.3 -0.4
v -2.1 5.3 -0.5
v -2.1 5.3 -0.6
v -2.1 5.3 -0.7
v -2 4 -1.2
v -2 4 -1.3
v -2 4.1 -1.1
v -2 4.1 -1.2
v -2 4.2 0.1
v -2 4.2 0
v -2 4.3 0.1
v -2 4.3 0
v -2 4.3 -1
v -2 4.3 -1.1
v -2 4.3 -1.2
v -2 4.3 -1.3
v -2 4.4 -1
v -2 4.4 -1.1
v -2 4.7 -0.1
v -2 4.7 -0.2
v -2 4.8 -0.1
v -2 4.8 -0.2
v -2 4.8 -0.3
v -2 4.9 -0.2
v -2 4.9 -0.3
v -2 5 -0.1
v -2 5 -0.2
v -2 5 -0.9
v -2 5 -1
v -2 5.1 -0.1
v -2 5.1 -0.2
v -2 5.1 -0.8
v -2 5.1 -0.9
v -2 5.1 -1
v -2 5.2 -0.8
v -2 5.2 -0.9
v -1.9 4.2 0.2
v -1.9 4.2 0.1
v -1.9 4.3 0.2
v -1.9 4.3 0.1
v -1.9 4.3 0
v -1.9 4.3 -0.1
v -1.9 4.3 -1.1
v -1.9 4.3 -1.2
v -1.9 4.4 0
v -1.9 4.4 -0.1
v -1.9 4.4 -0.9
v -1.9 4.4 -1
v -1.9 4.4 -1.1
v -1.9 4.4 -1.2
v -1.9 4.5 -1
v -1.9 4.5 -1.1
v -1.9 4.6 -0.9
v -1.9 4.6 -1
v -1.9 4.6 -1.1
v -1.9 4.9 -1
v -1.9 4.9 -1.1
v -1.9 5.1 -1
v -1.9 5.1 -1.1
v -1.8 4.3 -0.1
v -1.8 4.3 -0.2
v -1.8 4.4 -0.1
v -1.8 4.4 -0.2
v -1.8 4.5 -1.1
v -1.8 4.5 -1.2
v -1.8 4.6 -1.1
v -1.8 4.6 -1.2
v -1.8 4.7 0
v -1.8 4.7 -0.1
v -1.8 4.7 -0.9
v -1.8 4.7 -1
v -1.8 4.8 0
v -1.8 4.8 -0.1
v -1.8 4.8 -0.2
v -1.8 4.8 -0.9
v -1.8 4.8 -1
v -1.8 4.8 -1.1
v -1.8 4.9 -0.1
v -1.8 4.9 -0.2
v -1.8 4.9 -1
v -1.8 4.9 -1.1
v -1.8 4.9 -1.2
v -1.8 5 -1.1
v -1.8 5 -1.2
v -1.8 5.1 -0.3
v -1.8 5.1 -0.4
v -1.8 5.1 -0.9
v -1.8 5.1 -1
v -1.8 5.2 -0.3
v -1.8 5.2 -0.4
v -1.8 5.2 -0.8
v -1.8 5.2 -0.9
v -1.8 5.2 -1
v -1.8 5.3 -0.8
v -1.8 5.3 -0.9
v -1.7 3.7 -1.1
v -1.7 3.7 -1.2
v -1.7 3.9 -1.1
v -1.7 3.9 -1.2
v -1.7 4.3 0.2
v -1.7 4.3 0.1
v -1.7 4.3 -0.1
v -1.7 4.3 -1.2
v -1.7 4.3 -1.3
v -1.7 4.4 0.2
v -1.7 4.4 0.1
v -1.7 4.4 -0.1
v -1.7 4.4 -1
v -1.7 4.4 -1.1
v -1.7 4.4 -1.2
v -1.7 4.4 -1.3
v -1.7 4.5 -1
v -1.7 4.5 -1.1
v -1.7 4.7 -1
v -1.7 4.7 -1.1
v -1.7 4.8 -1
v -1.7 4.8 -1.1
v -1.7 4.8 -1.2
v -1.7 4.9 -1.1
v -1.7 4.9 -1.2
v -1.7 5.1 -0.4
v -1.7 5.1 -0.5
v -1.7 5.1 -1
v -1.7 5.1 -1.1
v -1.7 5.2 -0.4
v -1.7 5.2 -0.5
v -1.7 5.2 -0.6
v -1.7 5.2 -0.8
v -1.7 5.2 -1
v -1.7 5.2 -1.1
v -1.7 5.3 -0.6
v -1.7 5.3 -0.8
v -1.5 4.2 -1.2
v -1.5 4.2 -1.3
v -1.5 4.3 -1.2
v -1.5 4.3 -1.3
v -1.5 4.9 -0.6
v -1.5 4.9 -0.7
v -1.5 5 -0.6
v -1.5 5 -0.7
v -1.4 4.3 0.1
v -1.4 4.3 0
v -1.4 4.4 0.1
v -1.4 4.4 0
v -3.1 4.3 -1.2
v -3.1 4.3 -1.3
v -3.1 4.4 -1.2
v -3.1 4.5 -1.2
v -3.1 4.5 -1.3
v -3 4.2 0.2
v -3 4.2 0.1
v -3 4.3 0.2
v -3 4.3 0.1
v -3 4.4 -1.1
v -3 4.4 -1.2
v -3 4.5 -1.1
v -3 4.5 -1.2
v -2.9 4.3 -1.1
v -2.9 4.3 -1.2
v -2.9 4.4 -0.7
v -2.9 4.4 -0.8
v -2.9 4.4 -1
v -2.9 4.4 -1.1
v -2.9 4.4 -1.2
v -2.9 4.5 -0.6
v -2.9 4.5 -0.7
v -2.9 4.5 -0.8
v -2.9 4.5 -1
v -2.9 4.5 -1.1
v -2.9 4.6 -0.6
v -2.9 4.6 -0.7
v -2.9 4.7 -0.2
v -2.9 4.7 -0.3
v -2.9 4.8 -0.2
v -2.9 4.8 -0.3
v -2.7 3.9 0.2
v -2.7 3.9 0.1
v -2.7 3.9 -1.2
v -2.7 3.9 -1.3
v -2.7 4 0.2
v -2.7 4 0.1
v -2.7 4 -1.2
v -2.7 4 -1.3
v -2.7 4.1 0.2
v -2.7 4.1 0.1
v -2.7 4.2 0.2
v -2.7 4.2 0.1
v -2.7 4.7 0.2
v -2.7 4.7 0.1
v -2.7 4.7 -0.9
v -2.7 4.7 -1
v -2.7 4.8 0.2
v -2.7 4.8 0.1
v -2.7 4.8 -0.9
v -2.7 4.8 -1
v -2.7 4.9 -0.5
v -2.7 4.9 -0.6
v -2.7 5 -0.5
v -2.7 5 -0.6
v -2.6 4 -0.5
v -2.6 4 -0.6
v -2.6 4.1 -0.5
v -2.6 4.1 -0.6
v -2.6 4.3 0.2
v -2.6 4.3 0.1
v -2.6 4.4 0.2
v -2.6 4.4 0.1
v -2.6 4.5 0.1
v -2.6 4.5 0
v -2.6 4.6 0.1
v -2.6 4.6 0
v -2.6 4.8 -0.1
v -2.6 4.8 -0.2
v -2.6 4.8 -1.2
v -2.6 4.8 -1.3
v -2.6 4.9 -0.1
v -2.6 4.9 -0.2
v -2.6 4.9 -1.2
v -2.6 4.9 -1.3
v -2.5 4.2 -1.1
v -2.5 4.2 -1.2
v -2.5 4.2 -1.3
v -2.5 4.3 -1.1
v -2.5 4.3 -1.2
v -2.5 4.3 -1.3
v -2.5 4.4 0.2
v -2.5 4.4 0.1
v -2.5 4.5 0.2
v -2.5 4.5 0.1
v -2.5 4.5 0
v -2.5 4.5 -0.1
v -2.5 4.6 0.2
v -2.5 4.6 0.1
v -2.5 4.6 0
v -2.5 4.6 -0.1
v -2.5 4.7 0.2
v -2.5 4.7 0.1
v -2.5 4.7 -0.1
v -2.5 4.8 0.1
v -2.5 4.8 -0.1
v -2.5 4.9 -1.1
v -2.5 4.9 -1.2
v -2.5 5 -1.1
v -2.5 5 -1.2
v -2.4 4.1 -1.2
v -2.4 4.1 -1.3
v -2.4 4.2 0.1
v -2.4 4.2 0
v -2.4 4.2 -1.2
v -2.4 4.2 -1.3
v -2.4 4.3 0
v -2.4 4.3 -0.1
v -2.4 4.3 -1.1
v -2.4 4.3 -1.2
v -2.4 4.4 0.1
v -2.4 4.4 -0.1
v -2.4 4.4 -1.1
v -2.4 4.4 -1.2
v -2.4 4.5 -1.1
v -2.4 4.5 -1.2
v -2.4 4.6 0.1
v -2.4 4.6 0
v -2.4 4.6 -0.2
v -2.4 4.6 -1.1
v -2.4 4.6 -1.2
v -2.4 4.7 0.1
v -2.4 4.7 -0.1
v -2.4 4.7 -0.2
v -2.4 4.8 -1.1
v -2.4 4.8 -1.2
v -2.4 4.9 -1.1
v -2.4 4.9 -1.2
v -2.3 4.5 0
v -2.3 4.5 -0.1
v -2.3 4.6 0
v -2.3 4.6 -0.1
v -2.3 4.7 -0.1
v -2.3 4.7 -0.2
v -2.3 4.7 -1.2
v -2.3 4.7 -1.3
v -2.3 4.8 -1.2
v -2.3 4.8 -1.3
v -2.3 4.9 -0.1
v -2.3 4.9 -0.2
v -2.3 5 -0.1
v -2.3 5 -0.2
v -2.3 5.1 -0.1
v -2.3 5.1 -0.2
v -2.2 4 -1.2
v -2.2 4 -1.3
v -2.2 4.1 -1.1
v -2.2 4.1 -1.2
v -2.2 4.1 -1.3
v -2.2 4.2 -1.1
v -2.2 4.2 -1.2
v -2.2 4.3 -1.1
v -2.2 4.3 -1.2
v -2.2 4.4 0.1
v -2.2 4.4 0
v -2.2 4.4 -1
v -2.2 4.4 -1.1
v -2.2 4.4 -1.2
v -2.2 4.5 0.1
v -2.2 4.5 0
v -2.2 4.6 -1
v -2.2 4.6 -1.1
v -2.2 4.6 -1.2
v -2.2 4.7 -0.2
v -2.2 4.7 -0.3
v -2.2 4.7 -1.1
v -2.2 4.7 -1.2
v -2.2 4.8 -1.1
v -2.2 4.8 -1.2
v -2.2 4.9 -0.2
v -2.2 4.9 -0.3
v -2.2 4.9 -1
v -2.2 4.9 -1.1
v -2.2 5 -1
v -2.2 5 -1.1
v -2.1 4.2 0.1
v -2.1 4.2 0
v -2.1 4.3 0.1
v -2.1 4.3 0
v -2.1 4.3 -1
v -2.1 4.3 -1.1
v -2.1 4.4 -1
v -2.1 4.4 -1.1
v -2.1 4.7 -1
v -2.1 4.7 -1.1
v -2.1 4.8 -1
v -2.1 4.8 -1.1
v -2.1 4.9 -0.1
v -2.1 4.9 -0.2
v -2.1 5 -0.1
v -2.1 5 -0.2
v -2 4.3 -0.1
v -2 4.3 -0.2
v -2 4.4 0
v -2 4.4 -0.1
v -2 4.4 -0.9
v -2 4.4 -1
v -2 4.5 0
v -2 4.5 -0.1
v -2 4.5 -0.2
v -2 4.6 -0.9
v -2 4.6 -1
v -2 4.6 -1.1
v -2 4.6 -1.2
v -2 4.7 -0.9
v -2 4.7 -1
v -2 4.7 -1.1
v -2 4.7 -1.2
v -2 4.8 -0.9
v -2 4.8 -1
v -2 4.8 -1.1
v -2 4.9 -1
v -2 4.9 -1.1
v -2 5.1 -0.1
v -2 5.1 -0.2
v -2 5.2 -0.1
v -2 5.2 -0.2
v -2 5.2 -0.3
v -2 5.2 -0.4
v -2 5.2 -0.5
v -2 5.3 -0.2
v -2 5.3 -0.3
v -2 5.3 -0.4
v -2 5.3 -0.5
v -1.9 3.8 -1.1
v -1.9 3.8 -1.2
v -1.9 3.9 -1.1
v -1.9 3.9 -1.2
v -1.9 4.4 -0.2
v -1.9 4.4 -0.3
v -1.9 4.5 -0.1
v -1.9 4.5 -0.2
v -1.9 4.6 -0.2
v -1.9 4.6 -0.3
v -1.9 4.7 -0.1
v -1.9 4.7 -0.2
v -1.9 4.9 -0.2
v -1.9 4.9 -0.6
v -1.9 5 -0.1
v -1.9 5 -0.2
v -1.9 5 -0.6
v -1.9 5.1 -0.1
v -1.9 5.1 -0.2
v -1.9 5.1 -0.5
v -1.9 5.2 -0.1
v -1.9 5.2 -0.2
v -1.9 5.2 -0.5
v -1.9 5.3 -0.1
v -1.9 5.3 -0.2
v -1.8 3.7 -1.1
v -1.8 3.7 -1.2
v -1.8 3.8 -1.1
v -1.8 3.8 -1.2
v -1.8 4 0.2
v -1.8 4 0.1
v -1.8 4 -1.2
v -1.8 4 -1.3
v -1.8 4.1 0.2
v -1.8 4.1 0.1
v -1.8 4.1 -1.2
v -1.8 4.1 -1.3
v -1.8 4.3 0
v -1.8 4.3 -0.1
v -1.8 4.4 0
v -1.8 4.4 -0.1
v -1.8 4.5 -0.3
v -1.8 4.5 -0.4
v -1.8 4.6 -0.2
v -1.8 4.6 -0.3
v -1.8 4.6 -0.4
v -1.8 4.6 -0.9
v -1.8 4.6 -1
v -1.8 4.7 -0.2
v -1.8 4.7 -0.3
v -1.8 4.7 -0.9
v -1.8 4.7 -1
v -1.8 4.8 -0.3
v -1.8 4.8 -0.5
v -1.8 4.9 -0.3
v -1.8 4.9 -0.5
v -1.8 5 -0.2
v -1.8 5 -0.3
v -1.8 5.1 -0.2
v -1.8 5.1 -0.3
v -1.8 5.2 -0.6
v -1.8 5.2 -0.7
v -1.8 5.3 -0.6
v -1.8 5.3 -0.7
v -1.7 4.2 -1.2
v -1.7 4.2 -1.3
v -1.7 4.3 -1.2
v -1.7 4.3 -1.3
v -1.7 4.5 -1
v -1.7 4.5 -1.1
v -1.7 4.5 -1.2
v -1.7 4.6 -0.3
v -1.7 4.6 -0.4
v -1.7 4.6 -0.7
v -1.7 4.6 -1
v -1.7 4.6 -1.1
v -1.7 4.6 -1.2
v -1.7 4.7 0
v -1.7 4.7 -0.2
v -1.7 4.7 -0.3
v -1.7 4.7 -0.4
v -1.7 4.7 -0.7
v -1.7 4.8 0
v -1.7 4.8 -0.1
v -1.7 4.8 -0.2
v -1.7 4.8 -0.3
v -1.7 4.8 -0.4
v -1.7 4.9 -0.1
v -1.7 4.9 -0.3
v -1.7 4.9 -0.6
v -1.7 4.9 -0.7
v -1.7 5 -0.3
v -1.7 5 -0.6
v -1.7 5 -0.7
v -1.7 5 -0.8
v -1.7 5.1 -0.4
v -1.7 5.1 -0.5
v -1.7 5.1 -0.7
v -1.7 5.1 -0.8
v -1.7 5.2 -0.3
v -1.7 5.2 -0.4
v -1.7 5.2 -0.5
v -1.7 5.2 -0.6
v -1.7 5.2 -0.7
v -1.7 5.2 -0.8
v -1.7 5.2 -0.9
v -1.7 5.3 -0.5
v -1.7 5.3 -0.6
v -1.7 5.3 -0.8
v -1.7 5.3 -0.9
v -1.6 4.3 -1.2
v -1.6 4.3 -1.3
v -1.6 4.4 -0.9
v -1.6 4.4 -1.1
v -1.6 4.4 -1.2
v -1.6 4.4 -1.3
v -1.6 4.5 -0.4
v -1.6 4.5 -0.9
v -1.6 4.5 -1
v -1.6 4.5 -1.1
v -1.6 4.6 -0.4
v -1.6 4.6 -0.7
v -1.6 4.6 -0.9
v -1.6 4.6 -1
v -1.6 4.7 -0.2
v -1.6 4.7 -0.3
v -1.6 4.7 -0.4
v -1.6 4.7 -0.5
v -1.6 4.7 -0.7
v -1.6 4.7 -0.9
v -1.6 4.8 -0.2
v -1.6 4.8 -0.3
v -1.6 4.8 -0.4
v -1.6 4.8 -0.5
v -1.6 4.8 -0.9
v -1.6 4.8 -1.1
v -1.6 4.8 -1.2
v -1.6 4.9 -0.7
v -1.6 4.9 -0.8
v -1.6 4.9 -1
v -1.6 4.9 -1.1
v -1.6 5 -0.7
v -1.6 5 -0.8
v -1.6 5 -0.9
v -1.6 5 -1
v -1.6 5 -1.1
v -1.6 5 -1.2
v -1.6 5.1 -0.4
v -1.6 5.1 -0.5
v -1.6 5.1 -0.7
v -1.6 5.1 -0.8
v -1.6 5.1 -0.9
v -1.6 5.2 -0.4
v -1.6 5.2 -0.5
v -1.6 5.2 -0.6
v -1.6 5.2 -0.7
v -1.6 5.2 -0.8
v -1.6 5.2 -0.9
v -1.6 5.2 -1
v -1.6 5.2 -1.1
v -1.6 5.3 -0.6
v -1.6 5.3 -0.8
v -1.5 4.1 -1.2
v -1.5 4.1 -1.3
v -1.5 4.2 -1.2
v -1.5 4.2 -1.3
v -1.5 4.3 0.1
v -1.5 4.3 0
v -1.5 4.3 -0.7
v -1.5 4.3 -0.8
v -1.5 4.3 -1
v -1.5 4.3 -1.1
v -1.5 4.4 0.1
v -1.5 4.4 0
v -1.5 4.4 -0.4
v -1.5 4.4 -0.7
v -1.5 4.4 -0.8
v -1.5 4.4 -0.9
v -1.5 4.4 -1
v -1.5 4.4 -1.1
v -1.5 4.5 -0.4
v -1.5 4.5 -0.9
v -1.5 4.7 -0.5
v -1.5 4.7 -0.6
v -1.5 4.7 -0.7
v -1.5 4.7 -1.1
v -1.5 4.8 -0.5
v -1.5 4.8 -0.6
v -1.5 4.8 -0.7
v -1.5 4.8 -0.9
v -1.5 4.8 -1.1
v -1.5 4.9 -0.6
v -1.5 4.9 -0.7
v -1.5 4.9 -0.8
v -1.5 4.9 -1
v -1.5 4.9 -1.1
v -1.5 5 -0.8
v -1.5 5 -0.9
v -1.5 5 -1
v -1.5 5 -1.1
v -1.5 5.1 -0.9
v -1.5 5.2 -0.9
v -1.5 5.2 -1
v -1.4 4.3 0.2
v -1.4 4.3 0.1
v -1.4 4.3 -0.8
v -1.4 4.3 -1
v -1.4 4.3 -1.1
v -1.4 4.3 -1.2
v -1.4 4.4 0.2
v -1.4 4.4 0.1
v -1.4 4.4 -0.3
v -1.4 4.4 -0.4
v -1.4 4.4 -0.8
v -1.4 4.4 -1
v -1.4 4.4 -1.1
v -1.4 4.4 -1.2
v -1.4 4.5 -0.3
v -1.4 4.5 -0.4
v -1.4 4.7 -0.6
v -1.4 4.7 -0.7
v -1.4 4.8 -0.5
v -1.4 4.8 -0.6
v -1.4 4.8 -0.7
v -1.4 4.9 -0.5
v -1.4 4.9 -0.6
v -1.4 4.9 -0.7
v -1.4 5 -0.6
v -1.4 5 -0.7
v -1.4 5 -0.8
v -1.4 5 -0.9
v -1.4 5.1 -0.8
v -1.4 5.1 -0.9
v -1.3 3.7 0.1
v -1.3 3.7 -1.2
v -1.3 4.1 0.1
v -1.3 4.1 -0.1
v -1.3 4.1 -1
v -1.3 4.2 0.2
v -1.3 4.2 0.1
v -1.3 4.2 -0.4
v -1.3 4.2 -0.8
v -1.3 4.2 -1
v -1.3 4.2 -1.1
v -1.3 4.2 -1.2
v -1.3 4.2 -1.3
v -1.3 4.3 0.2
v -1.3 4.3 0.1
v -1.3 4.3 -0.1
v -1.3 4.3 -0.4
v -1.3 4.3 -0.7
v -1.3 4.3 -0.8
v -1.3 4.3 -1.1
v -1.3 4.3 -1.2
v -1.3 4.3 -1.3
v -1.3 4.4 0.1
v -1.3 4.4 -0.7
v -1.2 4.1 0.2
v -1.2 4.1 -0.1
v -1.2 4.1 -1
v -1.2 4.2 0.2
v -1.2 4.2 0.1
v -1.2 4.2 -0.4
v -1.2 4.2 -0.8
v -1.2 4.2 -1
v -1.2 4.2 -1.1
v -1.2 4.3 0.1
v -1.2 4.3 -0.1
v -1.2 4.3 -0.4
v -1.2 4.3 -0.8
v -1.2 4.3 -1
v -1.2 4.3 -1.1
v -3.2 3.9 0.2
v -3.2 4.1 0.2
v -3.2 4.2 0.2
v -3.2 4.5 0.2
v -3.1 4.2 0.2
v -3.1 4.3 0.2
v -3.1 4.6 0.2
v -3.1 4.7 0.2
v -3 4.1 0.2
v -3 4.2 0.2
v -3 4.3 0.2
v -2.9 4.3 0.2
v -2.9 4.4 0.2
v -2.8 4.7 0.2
v -2.8 4.8 0.2
v -2.7 3.9 0.2
v -2.7 4 0.2
v -2.7 4.1 0.2
v -2.7 4.2 0.2
v -2.7 4.7 0.2
v -2.7 4.8 0.2
v -2.6 4.3 0.2
v -2.6 4.4 0.2
v -2.6 4.5 0.2
v -2.5 4.4 0.2
v -2.5 4.5 0.2
v -2.5 4.6 0.2
v -2.5 4.7 0.2
v -2.3 4.1 0.2
v -2.3 4.2 0.2
v -1.9 4.2 0.2
v -1.9 4.3 0.2
v -1.8 4 0.2
v -1.8 4.1 0.2
v -1.7 4.3 0.2
v -1.7 4.4 0.2
v -1.6 4.3 0.2
v -1.6 4.4 0.2
v -1.5 4.2 0.2
v -1.5 4.3 0.2
v -1.4 4.1 0.2
v -1.4 4.2 0.2
v -1.4 4.3 0.2
v -1.4 4.4 0.2
v -1.3 4.2 0.2
v -1.3 4.3 0.2
v -1.2 4.1 0.2
v -1.2 4.2 0.2
v -3.2 4.1 0.1
v -3.2 4.2 0.1
v -3.1 3.7 0.1
v -3.1 3.9 0.1
v -3.1 4.1 0.1
v -3.1 4.2 0.1
v -3 4.1 0.1
v -3 4.2 0.1
v -3 4.3 0.1
v -3 4.5 0.1
v -3 4.6 0.1
v -2.9 4.3 0.1
v -2.9 4.7 0.1
v -2.9 4.8 0.1
v -2.8 4.7 0.1
v -2.8 4.8 0.1
v -2.7 3.9 0.1
v -2.7 4 0.1
v -2.7 4.1 0.1
v -2.7 4.2 0.1
v -2.7 4.7 0.1
v -2.7 4.8 0.1
v -2.6 4.1 0.1
v -2.6 4.3 0.1
v -2.6 4.4 0.1
v -2.6 4.5 0.1
v -2.6 4.6 0.1
v -2.6 4.7 0.1
v -2.6 4.8 0.1
v -2.5 4.4 0.1
v -2.5 4.5 0.1
v -2.5 4.6 0.1
v -2.5 4.7 0.1
v -2.5 4.8 0.1
v -2.4 4.2 0.1
v -2.4 4.4 0.1
v -2.4 4.6 0.1
v -2.4 4.7 0.1
v -2.3 4.1 0.1
v -2.3 4.2 0.1
v -2.3 4.3 0.1
v -2.3 4.4 0.1
v -2.3 4.5 0.1
v -2.2 4.4 0.1
v -2.2 4.5 0.1
v -2.1 4.2 0.1
v -2.1 4.3 0.1
v -2 4.2 0.1
v -2 4.3 0.1
v -1.9 4.2 0.1
v -1.9 4.3 0.1
v -1.8 4 0.1
v -1.8 4.1 0.1
v -1.4 4.1 0.1
v -1.4 4.3 0.1
v -1.4 4.4 0.1
v -1.3 3.7 0.1
v -1.3 4.1 0.1
v -1.3 4.2 0.1
v -1.3 4.3 0.1
v -1.3 4.4 0.1
v -1.2 4.2 0.1
v -1.2 4.3 0.1
v -3.1 4.6 0
v -3.1 4.7 0
v -3.1 4.8 0
v -3 4.6 0
v -3 4.7 0
v -3 4.8 0
v -2.9 4.7 0
v -2.9 4.8 0
v -2.6 4.5 0
v -2.6 4.6 0
v -2.5 4.5 0
v -2.5 4.6 0
v -2.4 4.2 0
v -2.4 4.3 0
v -2.4 4.5 0
v -2.4 4.6 0
v -2.3 4.2 0
v -2.3 4.3 0
v -2.3 4.5 0
v -2.3 4.6 0
v -2.2 4.4 0
v -2.2 4.5 0
v -2.1 4.2 0
v -2.1 4.3 0
v -2 4.2 0
v -2 4.3 0
v -2 4.4 0
v -2 4.5 0
v -1.9 4.3 0
v -1.9 4.4 0
v -1.8 4.3 0
v -1.8 4.4 0
v -1.8 4.7 0
v -1.8 4.8 0
v -1.7 4.7 0
v -1.7 4.8 0
v -1.5 4.3 0
v -1.5 4.4 0
v -1.4 4.3 0
v -1.4 4.4 0
v -2.7 4.8 -0.1
v -2.7 4.9 -0.1
v -2.6 4.8 -0.1
v -2.6 4.9 -0.1
v -2.5 4.5 -0.1
v -2.5 4.6 -0.1
v -2.5 4.7 -0.1
v -2.5 4.8 -0.1
v -2.5 4.9 -0.1
v -2.4 4.3 -0.1
v -2.4 4.4 -0.1
v -2.4 4.5 -0.1
v -2.4 4.6 -0.1
v -2.4 4.7 -0.1
v -2.4 4.9 -0.1
v -2.4 5.1 -0.1
v -2.3 4.5 -0.1
v -2.3 4.6 -0.1
v -2.3 4.7 -0.1
v -2.3 4.9 -0.1
v -2.3 5 -0.1
v -2.3 5.1 -0.1
v -2.3 5.2 -0.1
v -2.2 5.2 -0.1
v -2.2 5.3 -0.1
v -2.1 4.6 -0.1
v -2.1 4.7 -0.1
v -2.1 4.9 -0.1
v -2.1 5 -0.1
v -2 4.3 -0.1
v -2 4.4 -0.1
v -2 4.5 -0.1
v -2 4.7 -0.1
v -2 4.8 -0.1
v -2 5 -0.1
v -2 5.1 -0.1
v -2 5.2 -0.1
v -1.9 4.5 -0.1
v -1.9 4.7 -0.1
v -1.9 5 -0.1
v -1.9 5.1 -0.1
v -1.9 5.2 -0.1
v -1.9 5.3 -0.1
v -1.8 4.3 -0.1
v -1.8 4.4 -0.1
v -1.8 4.7 -0.1
v -1.8 4.8 -0.1
v -1.8 4.9 -0.1
v -1.7 4.3 -0.1
v -1.7 4.4 -0.1
v -1.7 4.8 -0.1
v -1.7 4.9 -0.1
v -2.6 4.8 -0.2
v -2.6 4.9 -0.2
v -2.5 4.8 -0.2
v -2.5 4.9 -0.2
v -2.4 4.6 -0.2
v -2.4 4.7 -0.2
v -2.3 4.7 -0.2
v -2.3 4.9 -0.2
v -2.3 5 -0.2
v -2.3 5.1 -0.2
v -2.2 4.7 -0.2
v -2.2 4.9 -0.2
v -2.1 4.6 -0.2
v -2.1 4.7 -0.2
v -2.1 4.8 -0.2
v -2.1 4.9 -0.2
v -2.1 5 -0.2
v -2 4.3 -0.2
v -2 4.5 -0.2
v -2 4.7 -0.2
v -2 4.8 -0.2
v -2 4.9 -0.2
v -2 5 -0.2
v -2 5.1 -0.2
v -2 5.2 -0.2
v -1.9 4.4 -0.2
v -1.9 4.5 -0.2
v -1.9 4.6 -0.2
v -1.9 4.7 -0.2
v -1.9 4.9 -0.2
v -1.9 5 -0.2
v -1.9 5.1 -0.2
v -1.9 5.2 -0.2
v -1.8 4.3 -0.2
v -1.8 4.4 -0.2
v -1.8 4.6 -0.2
v -1.8 4.7 -0.2
v -1.8 4.8 -0.2
v -1.8 4.9 -0.2
v -1.8 5 -0.2
v -1.8 5.1 -0.2
v -1.7 4.7 -0.2
v -1.7 4.8 -0.2
v -1.6 4.7 -0.2
v -1.6 4.8 -0.2
v -2.7 4.8 -0.3
v -2.7 4.9 -0.3
v -2.6 4.8 -0.3
v -2.6 4.9 -0.3
v -2.4 5 -0.3
v -2.4 5.1 -0.3
v -2.3 5 -0.3
v -2.3 5.1 -0.3
v -2.2 4.7 -0.3
v -2.2 4.9 -0.3
v -2.1 4.7 -0.3
v -2.1 4.8 -0.3
v -2 4.8 -0.3
v -2 4.9 -0.3
v -1.9 4.4 -0.3
v -1.9 4.6 -0.3
v -1.8 4.5 -0.3
v -1.8 4.6 -0.3
v -1.8 4.7 -0.3
v -1.8 5 -0.3
v -1.8 5.1 -0.3
v -1.8 5.2 -0.3
v -1.7 4.6 -0.3
v -1.7 4.7 -0.3
v -1.7 5 -0.3
v -1.7 5.2 -0.3
v -1.4 4.4 -0.3
v -1.4 4.5 -0.3
v -2.8 4.8 -0.4
v -2.8 4.9 -0.4
v -2.7 4.8 -0.4
v -2.7 4.9 -0.4
v -2.1 5.2 -0.4
v -2.1 5.3 -0.4
v -2 5.2 -0.4
v -2 5.3 -0.4
v -1.8 4.5 -0.4
v -1.8 4.6 -0.4
v -1.7 4.6 -0.4
v -1.7 4.7 -0.4
v -1.7 4.8 -0.4
v -1.7 5.1 -0.4
v -1.7 5.2 -0.4
v -1.6 4.5 -0.4
v -1.6 4.6 -0.4
v -1.6 4.7 -0.4
v -1.6 4.8 -0.4
v -1.6 5.1 -0.4
v -1.6 5.2 -0.4
v -2.8 4.9 -0.5
v -2.8 5 -0.5
v -2.7 4.9 -0.5
v -2.7 5 -0.5
v -2.2 5.2 -0.5
v -2.2 5.3 -0.5
v -2.1 5.2 -0.5
v -2.1 5.3 -0.5
v -2 5.2 -0.5
v -2 5.3 -0.5
v -1.9 5.1 -0.5
v -1.9 5.2 -0.5
v -1.8 4.8 -0.5
v -1.8 4.9 -0.5
v -1.7 5.1 -0.5
v -1.7 5.2 -0.5
v -1.7 5.3 -0.5
v -1.6 4.7 -0.5
v -1.6 4.8 -0.5
v -1.5 4.7 -0.5
v -1.5 4.8 -0.5
v -1.4 4.8 -0.5
v -1.4 4.9 -0.5
v -3.2 4.3 -0.6
v -3.2 4.4 -0.6
v -3.1 4.3 -0.6
v -3.1 4.4 -0.6
v -3 4.5 -0.6
v -3 4.6 -0.6
v -2.9 4.5 -0.6
v -2.9 4.6 -0.6
v -2.8 4.7 -0.6
v -2.8 4.8 -0.6
v -2.7 4.7 -0.6
v -2.7 4.8 -0.6
v -2.6 4 -0.6
v -2.6 4.1 -0.6
v -2.5 4 -0.6
v -2.5 4.1 -0.6
v -2.4 4.9 -0.6
v -2.4 5 -0.6
v -2.3 4.9 -0.6
v -2.3 5 -0.6
v -2.3 5.1 -0.6
v -2.3 5.2 -0.6
v -2.2 5.1 -0.6
v -2.2 5.2 -0.6
v -1.9 4.9 -0.6
v -1.9 5 -0.6
v -1.7 4.9 -0.6
v -1.7 5 -0.6
v -1.7 5.2 -0.6
v -1.7 5.3 -0.6
v -1.6 5.2 -0.6
v -1.6 5.3 -0.6
v -1.5 4.7 -0.6
v -1.5 4.8 -0.6
v -1.5 4.9 -0.6
v -1.5 5 -0.6
v -1.4 4.7 -0.6
v -1.4 4.8 -0.6
v -1.4 4.9 -0.6
v -1.4 5 -0.6
v -2.8 4.6 -0.7
v -2.8 4.7 -0.7
v -2.7 4.6 -0.7
v -2.7 4.7 -0.7
v -1.7 4.6 -0.7
v -1.7 4.7 -0.7
v -1.7 4.9 -0.7
v -1.7 5 -0.7
v -1.7 5.1 -0.7
v -1.7 5.2 -0.7
v -1.6 4.6 -0.7
v -1.6 4.7 -0.7
v -1.6 4.9 -0.7
v -1.6 5 -0.7
v -1.6 5.1 -0.7
v -1.6 5.2 -0.7
v -2.9 4.4 -0.8
v -2.9 4.5 -0.8
v -2.8 4.4 -0.8
v -2.8 4.5 -0.8
v -2.8 4.6 -0.8
v -2.7 4.5 -0.8
v -2.7 4.6 -0.8
v -1.8 5.2 -0.8
v -1.8 5.3 -0.8
v -1.7 5 -0.8
v -1.7 5.1 -0.8
v -1.7 5.2 -0.8
v -1.7 5.3 -0.8
v -1.6 4.9 -0.8
v -1.6 5 -0.8
v -1.6 5.1 -0.8
v -1.5 4.3 -0.8
v -1.5 4.4 -0.8
v -1.5 4.9 -0.8
v -1.5 5 -0.8
v -1.4 4.3 -0.8
v -1.4 4.4 -0.8
v -1.4 5 -0.8
v -1.4 5.1 -0.8
v -1.3 4.2 -0.8
v -1.3 4.3 -0.8
v -1.2 4.2 -0.8
v -1.2 4.3 -0.8
v -3.2 4.4 -0.9
v -3.2 4.5 -0.9
v -3.1 4.4 -0.9
v -3 4.4 -0.9
v -3 4.5 -0.9
v -1.6 5.1 -0.9
v -1.6 5.2 -0.9
v -1.5 5.1 -0.9
v -1.5 5.2 -0.9
v -2.7 4.7 -1
v -2.7 4.8 -1
v -2.6 4.7 -1
v -2.6 4.8 -1
v -2.5 4.7 -1
v -2.5 4.8 -1
v -2.5 4.9 -1
v -2.4 4.8 -1
v -2.4 4.9 -1
v -2.4 5 -1
v -2.2 4.9 -1
v -2.2 5 -1
v -1.6 4.9 -1
v -1.6 5 -1
v -1.5 4.9 -1
v -1.5 5 -1
v -3.2 4.3 -1.1
v -3.2 4.4 -1.1
v -3.1 4.3 -1.1
v -3.1 4.4 -1.1
v -2.6 4.8 -1.1
v -2.6 5 -1.1
v -2.5 4.8 -1.1
v -2.5 4.9 -1.1
v -2.5 5 -1.1
v -1.5 4.3 -1.1
v -1.5 4.4 -1.1
v -1.4 4.3 -1.1
v -1.4 4.4 -1.1
v -2.7 4.8 -1.2
v -2.7 4.9 -1.2
v -2.6 4.8 -1.2
v -2.6 4.9 -1.2
v -3.1 4.6 0.1
v -3.1 4.7 0.1
v -3 4.6 0.1
v -3 4.7 0.1
v -1.5 4.3 0.1
v -1.5 4.4 0.1
v -1.4 4.3 0.1
v -1.4 4.4 0.1
v -3.1 4.7 -0.1
v -3.1 4.8 -0.1
v -3 4.7 -0.1
v -3 4.8 -0.1
v -1.9 4.3 -0.1
v -1.9 4.4 -0.1
v -1.8 4.3 -0.1
v -1.8 4.4 -0.1
v -2.9 4.7 -0.2
v -2.9 4.8 -0.2
v -2.8 4.7 -0.2
v -2.8 4.8 -0.2
v -2.7 4.8 -0.2
v -2.7 4.9 -0.2
v -2.6 4.8 -0.2
v -2.6 4.9 -0.2
v -2.4 5 -0.2
v -2.4 5.1 -0.2
v -2.3 5 -0.2
v -2.3 5.1 -0.2
v -2.3 5.2 -0.2
v -2.2 5.1 -0.2
v -2.2 5.2 -0.2
v -2 5.2 -0.2
v -2 5.3 -0.2
v -1.9 5.2 -0.2
v -1.9 5.3 -0.2
v -3.1 4.6 -0.3
v -3.1 4.7 -0.3
v -3 4.6 -0.3
v -3 4.7 -0.3
v -3 4.8 -0.3
v -2.9 4.7 -0.3
v -2.9 4.8 -0.3
v -2.2 5.2 -0.3
v -2.2 5.3 -0.3
v -2 5.2 -0.3
v -2 5.3 -0.3
v -1.8 4.8 -0.3
v -1.8 4.9 -0.3
v -1.7 4.7 -0.3
v -1.7 4.8 -0.3
v -1.7 4.9 -0.3
v -1.6 4.7 -0.3
v -1.6 4.8 -0.3
v -3.2 4.3 -0.4
v -3.2 4.5 -0.4
v -3.1 4.3 -0.4
v -3.1 4.4 -0.4
v -3.1 4.5 -0.4
v -3 4.6 -0.4
v -3 4.7 -0.4
v -2.8 4.7 -0.4
v -2.8 4.8 -0.4
v -2.7 4.6 -0.4
v -2.7 4.8 -0.4
v -2.4 5 -0.4
v -2.4 5.1 -0.4
v -2.3 5 -0.4
v -2.3 5.1 -0.4
v -1.8 5.1 -0.4
v -1.8 5.2 -0.4
v -1.7 5.1 -0.4
v -1.7 5.2 -0.4
v -1.5 4.4 -0.4
v -1.5 4.5 -0.4
v -1.4 4.4 -0.4
v -1.4 4.5 -0.4
v -1.3 4.2 -0.4
v -1.3 4.3 -0.4
v -1.2 4.2 -0.4
v -1.2 4.3 -0.4
v -3 4.5 -0.5
v -3 4.6 -0.5
v -2.9 4.5 -0.5
v -2.9 4.6 -0.5
v -2.6 4 -0.5
v -2.6 4.1 -0.5
v -2.5 4 -0.5
v -2.5 4.1 -0.5
v -2.4 4.9 -0.5
v -2.4 5 -0.5
v -2.3 4.9 -0.5
v -2.3 5 -0.5
v -1.7 5.1 -0.5
v -1.7 5.2 -0.5
v -1.6 5.1 -0.5
v -1.6 5.2 -0.5
v -3.1 4.4 -0.6
v -3.1 4.5 -0.6
v -3 4.4 -0.6
v -3 4.5 -0.6
v -2.9 4.5 -0.6
v -2.9 4.6 -0.6
v -2.8 4.5 -0.6
v -2.8 4.6 -0.6
v -2.8 4.8 -0.6
v -2.8 5 -0.6
v -2.7 4.9 -0.6
v -2.7 5 -0.6
v -2.6 4.8 -0.6
v -2.6 4.9 -0.6
v -2.2 5.2 -0.6
v -2.2 5.3 -0.6
v -2.1 5.2 -0.6
v -2.1 5.3 -0.6
v -1.8 5.2 -0.6
v -1.8 5.3 -0.6
v -1.7 5.2 -0.6
v -1.7 5.3 -0.6
v -1.5 4.8 -0.6
v -1.5 4.9 -0.6
v -1.4 4.8 -0.6
v -1.4 4.9 -0.6
v -3 4.5 -0.7
v -3 4.6 -0.7
v -2.9 4.4 -0.7
v -2.9 4.5 -0.7
v -2.9 4.6 -0.7
v -2.8 4.4 -0.7
v -2.8 4.5 -0.7
v -2.8 4.6 -0.7
v -2.7 4.5 -0.7
v -2.7 4.6 -0.7
v -2.6 4.8 -0.7
v -2.6 4.9 -0.7
v -2.5 4.8 -0.7
v -2.5 4.9 -0.7
v -2.3 5.1 -0.7
v -2.3 5.2 -0.7
v -2.1 5.1 -0.7
v -2.1 5.2 -0.7
v -2.1 5.3 -0.7
v -1.8 5.2 -0.7
v -1.8 5.3 -0.7
v -1.5 4.3 -0.7
v -1.5 4.4 -0.7
v -1.5 4.7 -0.7
v -1.5 4.8 -0.7
v -1.5 4.9 -0.7
v -1.5 5 -0.7
v -1.4 4.3 -0.7
v -1.4 4.4 -0.7
v -1.4 4.7 -0.7
v -1.4 4.8 -0.7
v -1.4 4.9 -0.7
v -1.4 5 -0.7
v -1.3 4.3 -0.7
v -1.3 4.4 -0.7
v -2.5 4.8 -0.8
v -2.5 4.9 -0.8
v -2.4 4.8 -0.8
v -2.4 4.9 -0.8
v -2.4 5 -0.8
v -2.3 4.9 -0.8
v -2.3 5 -0.8
v -2.3 5.1 -0.8
v -2.2 5 -0.8
v -2.2 5.1 -0.8
v -2.1 5.1 -0.8
v -2.1 5.2 -0.8
v -2 5.1 -0.8
v -2 5.2 -0.8
v -1.7 5.2 -0.8
v -1.7 5.3 -0.8
v -1.6 5.2 -0.8
v -1.6 5.3 -0.8
v -3.2 4.3 -0.9
v -3.2 4.4 -0.9
v -3.1 4.3 -0.9
v -3.1 4.4 -0.9
v -2.8 4.5 -0.9
v -2.8 4.6 -0.9
v -2.7 4.5 -0.9
v -2.7 4.6 -0.9
v -2.7 4.7 -0.9
v -2.7 4.8 -0.9
v -2.6 4.7 -0.9
v -2.6 4.8 -0.9
v -2.5 4.7 -0.9
v -2.5 4.8 -0.9
v -2.3 4.9 -0.9
v -2.3 5 -0.9
v -2.2 4.9 -0.9
v -2.2 5 -0.9
v -2.2 5.1 -0.9
v -2 4.4 -0.9
v -2 4.6 -0.9
v -2 4.7 -0.9
v -2 4.8 -0.9
v -2 5 -0.9
v -2 5.1 -0.9
v -2 5.2 -0.9
v -1.9 4.4 -0.9
v -1.9 4.6 -0.9
v -1.8 4.6 -0.9
v -1.8 4.7 -0.9
v -1.8 4.8 -0.9
v -1.8 5.1 -0.9
v -1.8 5.2 -0.9
v -1.8 5.3 -0.9
v -1.7 5.2 -0.9
v -1.7 5.3 -0.9
v -1.6 4.4 -0.9
v -1.6 4.5 -0.9
v -1.6 4.6 -0.9
v -1.6 4.7 -0.9
v -1.6 4.8 -0.9
v -1.6 5 -0.9
v -1.5 4.4 -0.9
v -1.5 4.5 -0.9
v -1.5 4.8 -0.9
v -1.5 5 -0.9
v -1.5 5.1 -0.9
v -1.4 5 -0.9
v -1.4 5.1 -0.9
v -2.9 4.4 -1
v -2.9 4.5 -1
v -2.8 4.6 -1
v -2.8 4.8 -1
v -2.7 4.5 -1
v -2.7 4.6 -1
v -2.7 4.8 -1
v -2.6 4.4 -1
v -2.6 4.6 -1
v -2.2 4.4 -1
v -2.2 4.6 -1
v -2.2 4.9 -1
v -2.2 5 -1
v -2.1 4.3 -1
v -2.1 4.4 -1
v -2.1 4.7 -1
v -2.1 4.8 -1
v -2 4.3 -1
v -2 4.4 -1
v -2 4.6 -1
v -2 4.7 -1
v -2 4.8 -1
v -2 4.9 -1
v -2 5 -1
v -2 5.1 -1
v -1.9 4.4 -1
v -1.9 4.5 -1
v -1.9 4.6 -1
v -1.9 4.9 -1
v -1.9 5.1 -1
v -1.8 4.6 -1
v -1.8 4.7 -1
v -1.8 4.8 -1
v -1.8 4.9 -1
v -1.8 5.1 -1
v -1.8 5.2 -1
v -1.7 4.4 -1
v -1.7 4.5 -1
v -1.7 4.6 -1
v -1.7 4.7 -1
v -1.7 4.8 -1
v -1.7 5.1 -1
v -1.7 5.2 -1
v -1.6 4.5 -1
v -1.6 4.6 -1
v -1.6 5 -1
v -1.6 5.2 -1
v -1.5 4.3 -1
v -1.5 4.4 -1
v -1.5 5 -1
v -1.5 5.2 -1
v -1.4 4.3 -1
v -1.4 4.4 -1
v -1.3 4.1 -1
v -1.3 4.2 -1
v -1.2 4.1 -1
v -1.2 4.2 -1
v -3.2 4.2 -1.1
v -3.2 4.3 -1.1
v -3.1 4.2 -1.1
v -3.1 4.3 -1.1
v -3 4.4 -1.1
v -3 4.5 -1.1
v -2.9 4.3 -1.1
v -2.9 4.4 -1.1
v -2.9 4.5 -1.1
v -2.7 4.6 -1.1
v -2.7 4.8 -1.1
v -2.6 4.3 -1.1
v -2.6 4.4 -1.1
v -2.6 4.6 -1.1
v -2.6 4.8 -1.1
v -2.5 4.2 -1.1
v -2.5 4.3 -1.1
v -2.5 4.4 -1.1
v -2.5 4.5 -1.1
v -2.5 4.6 -1.1
v -2.4 4.3 -1.1
v -2.4 4.4 -1.1
v -2.4 4.5 -1.1
v -2.4 4.6 -1.1
v -2.4 4.8 -1.1
v -2.4 4.9 -1.1
v -2.4 5 -1.1
v -2.3 4.3 -1.1
v -2.3 4.4 -1.1
v -2.3 4.6 -1.1
v -2.2 4.1 -1.1
v -2.2 4.2 -1.1
v -2.2 4.3 -1.1
v -2.2 4.4 -1.1
v -2.2 4.6 -1.1
v -2.2 4.7 -1.1
v -2.2 4.8 -1.1
v -2.2 4.9 -1.1
v -2.2 5 -1.1
v -2.1 4.3 -1.1
v -2.1 4.4 -1.1
v -2.1 4.6 -1.1
v -2.1 4.7 -1.1
v -2.1 4.8 -1.1
v -2 4.1 -1.1
v -2 4.3 -1.1
v -2 4.4 -1.1
v -2 4.8 -1.1
v -2 4.9 -1.1
v -1.9 3.8 -1.1
v -1.9 3.9 -1.1
v -1.9 4.3 -1.1
v -1.9 4.4 -1.1
v -1.9 4.5 -1.1
v -1.9 4.6 -1.1
v -1.9 4.9 -1.1
v -1.9 5.1 -1.1
v -1.8 3.7 -1.1
v -1.8 3.8 -1.1
v -1.8 4.5 -1.1
v -1.8 4.6 -1.1
v -1.8 4.8 -1.1
v -1.8 4.9 -1.1
v -1.8 5 -1.1
v -1.7 3.7 -1.1
v -1.7 3.9 -1.1
v -1.7 4.4 -1.1
v -1.7 4.5 -1.1
v -1.7 4.7 -1.1
v -1.7 4.8 -1.1
v -1.7 4.9 -1.1
v -1.7 5.1 -1.1
v -1.7 5.2 -1.1
v -1.6 4.4 -1.1
v -1.6 4.5 -1.1
v -1.6 4.8 -1.1
v -1.6 4.9 -1.1
v -1.6 5 -1.1
v -1.6 5.2 -1.1
v -1.5 4.7 -1.1
v -1.5 4.8 -1.1
v -1.5 4.9 -1.1
v -1.5 5 -1.1
v -1.3 4.2 -1.1
v -1.3 4.3 -1.1
v -1.2 4.2 -1.1
v -1.2 4.3 -1.1
v -3.1 3.7 -1.2
v -3.1 3.9 -1.2
v -3.1 4.3 -1.2
v -3.1 4.4 -1.2
v -3.1 4.5 -1.2
v -3 4.4 -1.2
v -3 4.5 -1.2
v -2.9 4.3 -1.2
v -2.9 4.4 -1.2
v -2.7 3.9 -1.2
v -2.7 4 -1.2
v -2.6 4.6 -1.2
v -2.6 4.8 -1.2
v -2.6 4.9 -1.2
v -2.6 5 -1.2
v -2.5 4.3 -1.2
v -2.5 4.4 -1.2
v -2.5 4.5 -1.2
v -2.5 4.6 -1.2
v -2.5 4.9 -1.2
v -2.5 5 -1.2
v -2.4 4.1 -1.2
v -2.4 4.2 -1.2
v -2.4 4.3 -1.2
v -2.4 4.4 -1.2
v -2.4 4.5 -1.2
v -2.4 4.6 -1.2
v -2.4 4.7 -1.2
v -2.4 4.8 -1.2
v -2.4 4.9 -1.2
v -2.3 4.3 -1.2
v -2.3 4.4 -1.2
v -2.3 4.6 -1.2
v -2.3 4.7 -1.2
v -2.3 4.8 -1.2
v -2.2 4 -1.2
v -2.2 4.1 -1.2
v -2.2 4.2 -1.2
v -2.2 4.3 -1.2
v -2.2 4.4 -1.2
v -2.2 4.6 -1.2
v -2.2 4.7 -1.2
v -2.2 4.8 -1.2
v -2.1 4.6 -1.2
v -2.1 4.7 -1.2
v -2 4 -1.2
v -2 4.1 -1.2
v -2 4.6 -1.2
v -2 4.7 -1.2
v -1.9 3.8 -1.2
v -1.9 3.9 -1.2
v -1.9 4.3 -1.2
v -1.9 4.4 -1.2
v -1.8 3.7 -1.2
v -1.8 3.8 -1.2
v -1.8 4 -1.2
v -1.8 4.1 -1.2
v -1.8 4.5 -1.2
v -1.8 4.6 -1.2
v -1.8 4.9 -1.2
v -1.8 5 -1.2
v -1.7 3.7 -1.2
v -1.7 3.9 -1.2
v -1.7 4.2 -1.2
v -1.7 4.3 -1.2
v -1.7 4.4 -1.2
v -1.7 4.5 -1.2
v -1.7 4.6 -1.2
v -1.7 4.8 -1.2
v -1.7 4.9 -1.2
v -1.6 4.3 -1.2
v -1.6 4.4 -1.2
v -1.6 4.8 -1.2
v -1.6 5 -1.2
v -1.5 4.1 -1.2
v -1.5 4.2 -1.2
v -1.5 4.3 -1.2
v -1.4 4.1 -1.2
v -1.4 4.2 -1.2
v -1.4 4.3 -1.2
v -1.4 4.4 -1.2
v -1.3 3.7 -1.2
v -1.3 4.2 -1.2
v -3.2 3.9 -1.3
v -3.2 4.2 -1.3
v -3.2 4.3 -1.3
v -3.2 4.5 -1.3
v -3.1 4.2 -1.3
v -3.1 4.3 -1.3
v -3.1 4.5 -1.3
v -2.7 3.9 -1.3
v -2.7 4 -1.3
v -2.7 4.8 -1.3
v -2.7 4.9 -1.3
v -2.6 4.8 -1.3
v -2.6 4.9 -1.3
v -2.5 4.2 -1.3
v -2.5 4.3 -1.3
v -2.4 4.1 -1.3
v -2.4 4.2 -1.3
v -2.4 4.7 -1.3
v -2.4 4.8 -1.3
v -2.3 4.7 -1.3
v -2.3 4.8 -1.3
v -2.2 4 -1.3
v -2.2 4.1 -1.3
v -2 4 -1.3
v -2 4.3 -1.3
v -1.8 4 -1.3
v -1.8 4.1 -1.3
v -1.7 4.2 -1.3
v -1.7 4.3 -1.3
v -1.7 4.4 -1.3
v -1.6 4.3 -1.3
v -1.6 4.4 -1.3
v -1.5 4.1 -1.3
v -1.5 4.2 -1.3
v -1.5 4.3 -1.3
v -1.3 4.2 -1.3
v -1.3 4.3 -1.3
v -3.1 3.7 0.1
v -1.3 3.7 0.1
v -2.6 3.7 0
v -1.4 3.7 0
v -2.6 3.7 -1.1
v -1.8 3.7 -1.1
v -1.7 3.7 -1.1
v -1.4 3.7 -1.1
v -3.1 3.7 -1.2
v -1.8 3.7 -1.2
v -1.7 3.7 -1.2
v -1.3 3.7 -1.2
v -3.2 3.9 0.2
v -2.7 3.9 0.2
v -3.1 3.9 0.1
v -2.7 3.9 0.1
v -1.9 3.9 -1.1
v -1.7 3.9 -1.1
v -3.1 3.9 -1.2
v -2.7 3.9 -1.2
v -1.9 3.9 -1.2
v -1.7 3.9 -1.2
v -3.2 3.9 -1.3
v -2.7 3.9 -1.3
v -2.7 4 0.2
v -1.8 4 0.2
v -2.7 4 0.1
v -1.8 4 0.1
v -2.7 4 -1.2
v -2.2 4 -1.2
v -2 4 -1.2
v -1.8 4 -1.2
v -2.7 4 -1.3
v -2.2 4 -1.3
v -2 4 -1.3
v -1.8 4 -1.3
v -1.8 4.1 0.2
v -1.4 4.1 0.2
v -1.2 4.1 0.2
v -1.8 4.1 0.1
v -1.4 4.1 0.1
v -1.3 4.1 0.1
v -1.3 4.1 -0.1
v -1.2 4.1 -0.1
v -2.6 4.1 -0.5
v -2.5 4.1 -0.5
v -2.6 4.1 -0.6
v -2.5 4.1 -0.6
v -1.3 4.1 -1
v -1.2 4.1 -1
v -1.8 4.1 -1.2
v -1.5 4.1 -1.2
v -1.8 4.1 -1.3
v -1.5 4.1 -1.3
v -3.2 4.2 0.2
v -3.1 4.2 0.2
v -3 4.2 0.2
v -3.2 4.2 0.1
v -3.1 4.2 0.1
v -3 4.2 0.1
v -1.3 4.2 -1
v -1.2 4.2 -1
v -1.3 4.2 -1.1
v -1.2 4.2 -1.1
v -1.5 4.2 -1.2
v -1.4 4.2 -1.2
v -1.3 4.2 -1.2
v -1.5 4.2 -1.3
v -1.3 4.2 -1.3
v -3 4.3 0.2
v -2.9 4.3 0.2
v -2.6 4.3 0.2
v -3 4.3 0.1
v -2.9 4.3 0.1
v -2.6 4.3 0.1
v -3.2 4.3 -1.1
v -3.1 4.3 -1.1
v -2.5 4.3 -1.1
v -2.4 4.3 -1.1
v -2.3 4.3 -1.1
v -2.2 4.3 -1.1
v -3.1 4.3 -1.2
v -2.5 4.3 -1.2
v -2.4 4.3 -1.2
v -2.3 4.3 -1.2
v -2.2 4.3 -1.2
v -1.7 4.3 -1.2
v -1.6 4.3 -1.2
v -3.2 4.3 -1.3
v -3.1 4.3 -1.3
v -1.7 4.3 -1.3
v -1.6 4.3 -1.3
v -2.6 4.4 0.2
v -2.5 4.4 0.2
v -2.6 4.4 0.1
v -2.5 4.4 0.1
v -2.4 4.4 0.1
v -2.3 4.4 0.1
v -2.2 4.4 0.1
v -2.3 4.4 0
v -2.2 4.4 0
v -2 4.4 0
v -2.4 4.4 -0.1
v -2 4.4 -0.1
v -3.2 4.4 -0.9
v -3.1 4.4 -0.9
v -3.2 4.4 -1
v -3.1 4.4 -1
v -3.2 4.4 -1.1
v -3.1 4.4 -1.1
v -2 4.5 -0.1
v -1.9 4.5 -0.1
v -2 4.5 -0.2
v -1.9 4.5 -0.2
v -1.9 4.5 -1
v -1.7 4.5 -1
v -2.5 4.5 -1.1
v -2.4 4.5 -1.1
v -1.9 4.5 -1.1
v -1.8 4.5 -1.1
v -1.7 4.5 -1.1
v -2.5 4.5 -1.2
v -2.4 4.5 -1.2
v -1.8 4.5 -1.2
v -1.7 4.5 -1.2
v -3.1 4.6 0.2
v -2.5 4.6 0.2
v -3.1 4.6 0.1
v -3 4.6 0.1
v -2.6 4.6 0.1
v -2.5 4.6 0.1
v -2.4 4.6 0.1
v -3.1 4.6 0
v -3 4.6 0
v -2.6 4.6 0
v -2.5 4.6 0
v -2.4 4.6 0
v -2.5 4.6 -0.1
v -2.4 4.6 -0.1
v -1.9 4.6 -0.2
v -1.8 4.6 -0.2
v -3.1 4.6 -0.3
v -3 4.6 -0.3
v -1.9 4.6 -0.3
v -1.8 4.6 -0.3
v -1.7 4.6 -0.3
v -1.8 4.6 -0.4
v -1.7 4.6 -0.4
v -2.8 4.6 -0.7
v -2.7 4.6 -0.7
v -2.8 4.6 -0.8
v -2.7 4.6 -0.8
v -2.8 4.6 -0.9
v -2.7 4.6 -0.9
v -2 4.6 -0.9
v -1.9 4.6 -0.9
v -2.8 4.6 -1
v -2.7 4.6 -1
v -2.6 4.6 -1
v -2.2 4.6 -1
v -2 4.6 -1
v -1.9 4.6 -1
v -2.7 4.6 -1.1
v -2.6 4.6 -1.1
v -2.5 4.6 -1.1
v -2.4 4.6 -1.1
v -2.3 4.6 -1.1
v -2.2 4.6 -1.1
v -2.1 4.6 -1.1
v -2 4.6 -1.1
v -2.6 4.6 -1.2
v -2.5 4.6 -1.2
v -2.4 4.6 -1.2
v -2.3 4.6 -1.2
v -2.2 4.6 -1.2
v -2.1 4.6 -1.2
v -2 4.6 -1.2
v -1.8 4.7 0
v -1.7 4.7 0
v -2.4 4.7 -0.1
v -2.3 4.7 -0.1
v -1.9 4.7 -0.1
v -1.8 4.7 -0.1
v -2.4 4.7 -0.2
v -2.3 4.7 -0.2
v -1.9 4.7 -0.2
v -1.8 4.7 -0.2
v -1.7 4.7 -0.2
v -1.6 4.7 -0.2
v -1.8 4.7 -0.3
v -1.7 4.7 -0.3
v -1.6 4.7 -0.3
v -1.7 4.7 -0.4
v -1.6 4.7 -0.4
v -1.6 4.7 -0.5
v -1.5 4.7 -0.5
v -2.8 4.7 -0.6
v -2.7 4.7 -0.6
v -1.5 4.7 -0.6
v -1.4 4.7 -0.6
v -2.8 4.7 -0.7
v -2.7 4.7 -0.7
v -1.7 4.7 -0.7
v -1.6 4.7 -0.7
v -1.5 4.7 -0.7
v -1.4 4.7 -0.7
v -1.8 4.7 -0.9
v -1.6 4.7 -0.9
v -1.8 4.7 -1
v -1.7 4.7 -1
v -1.7 4.7 -1.1
v -1.5 4.7 -1.1
v -2.4 4.7 -1.2
v -2.3 4.7 -1.2
v -2.4 4.7 -1.3
v -2.3 4.7 -1.3
v -2.8 4.8 -0.4
v -2.7 4.8 -0.4
v -1.5 4.8 -0.5
v -1.4 4.8 -0.5
v -2.8 4.8 -0.6
v -2.7 4.8 -0.6
v -1.5 4.8 -0.6
v -1.4 4.8 -0.6
v -2 4.8 -0.9
v -1.8 4.8 -0.9
v -2.1 4.8 -1
v -2 4.8 -1
v -1.8 4.8 -1
v -1.7 4.8 -1
v -2.1 4.8 -1.1
v -2 4.8 -1.1
v -1.8 4.8 -1.1
v -1.7 4.8 -1.1
v -1.6 4.8 -1.1
v -2.7 4.8 -1.2
v -2.6 4.8 -1.2
v -1.7 4.8 -1.2
v -1.6 4.8 -1.2
v -2.7 4.8 -1.3
v -2.6 4.8 -1.3
v -2.3 4.9 -0.1
v -2.1 4.9 -0.1
v -2.3 4.9 -0.2
v -2.2 4.9 -0.2
v -2.1 4.9 -0.2
v -2 4.9 -0.2
v -2.2 4.9 -0.3
v -2 4.9 -0.3
v -1.5 4.9 -0.6
v -1.4 4.9 -0.6
v -1.5 4.9 -0.7
v -1.4 4.9 -0.7
v -1.9 4.9 -1
v -1.8 4.9 -1
v -1.6 4.9 -1
v -1.5 4.9 -1
v -1.9 4.9 -1.1
v -1.8 4.9 -1.1
v -1.7 4.9 -1.1
v -1.6 4.9 -1.1
v -1.5 4.9 -1.1
v -1.8 4.9 -1.2
v -1.7 4.9 -1.2
v -2 5 -0.1
v -1.9 5 -0.1
v -2 5 -0.2
v -1.9 5 -0.2
v -1.8 5 -0.2
v -1.8 5 -0.3
v -1.7 5 -0.3
v -1.9 5 -0.6
v -1.7 5 -0.6
v -1.5 5 -0.8
v -1.4 5 -0.8
v -1.6 5 -0.9
v -1.5 5 -0.9
v -1.4 5 -0.9
v -1.6 5 -1
v -1.5 5 -1
v -2.3 5.1 -0.1
v -2 5.1 -0.1
v -2.3 5.1 -0.2
v -2 5.1 -0.2
v -1.7 5.1 -0.4
v -1.6 5.1 -0.4
v -1.7 5.1 -0.5
v -1.6 5.1 -0.5
v -1.7 5.1 -0.7
v -1.6 5.1 -0.7
v -1.7 5.1 -0.8
v -1.6 5.1 -0.8
v -2 5.2 -0.1
v -1.9 5.2 -0.1
v -2 5.2 -0.2
v -1.9 5.2 -0.2
v -1.7 5.2 -0.6
v -1.6 5.2 -0.6
v -1.7 5.2 -0.7
v -1.6 5.2 -0.7
v -1.9 3.8 -1.1
v -1.8 3.8 -1.1
v -1.9 3.8 -1.2
v -1.8 3.8 -1.2
v -2.6 4 -0.5
v -2.5 4 -0.5
v -2.6 4 -0.6
v -2.5 4 -0.6
v -3.2 4.1 0.2
v -3 4.1 0.2
v -2.7 4.1 0.2
v -2.3 4.1 0.2
v -3.2 4.1 0.1
v -3.1 4.1 0.1
v -3 4.1 0.1
v -2.7 4.1 0.1
v -2.6 4.1 0.1
v -2.3 4.1 0.1
v -2.2 4.1 -1.1
v -2 4.1 -1.1
v -2.4 4.1 -1.2
v -2.2 4.1 -1.2
v -2 4.1 -1.2
v -2.4 4.1 -1.3
v -2.2 4.1 -1.3
v -3 4.2 0.2
v -2.7 4.2 0.2
v -2.3 4.2 0.2
v -1.9 4.2 0.2
v -1.3 4.2 0.2
v -1.2 4.2 0.2
v -3 4.2 0.1
v -2.7 4.2 0.1
v -2.4 4.2 0.1
v -2.3 4.2 0.1
v -2.1 4.2 0.1
v -2 4.2 0.1
v -1.9 4.2 0.1
v -1.3 4.2 0.1
v -1.2 4.2 0.1
v -2.4 4.2 0
v -2.3 4.2 0
v -2.1 4.2 0
v -2 4.2 0
v -1.3 4.2 -0.4
v -1.2 4.2 -0.4
v -1.3 4.2 -0.8
v -1.2 4.2 -0.8
v -3.2 4.2 -1.1
v -3.1 4.2 -1.1
v -2.5 4.2 -1.1
v -2.2 4.2 -1.1
v -3.1 4.2 -1.2
v -2.5 4.2 -1.2
v -2.4 4.2 -1.2
v -2.2 4.2 -1.2
v -1.7 4.2 -1.2
v -1.5 4.2 -1.2
v -3.2 4.2 -1.3
v -3.1 4.2 -1.3
v -2.5 4.2 -1.3
v -2.4 4.2 -1.3
v -1.7 4.2 -1.3
v -1.5 4.2 -1.3
v -1.9 4.3 0.2
v -1.7 4.3 0.2
v -1.4 4.3 0.2
v -1.3 4.3 0.2
v -2.3 4.3 0.1
v -2.1 4.3 0.1
v -2 4.3 0.1
v -1.9 4.3 0.1
v -1.7 4.3 0.1
v -1.5 4.3 0.1
v -1.4 4.3 0.1
v -1.3 4.3 0.1
v -1.2 4.3 0.1
v -2.4 4.3 0
v -2.3 4.3 0
v -2.1 4.3 0
v -2 4.3 0
v -1.9 4.3 0
v -1.8 4.3 0
v -1.5 4.3 0
v -1.4 4.3 0
v -2.4 4.3 -0.1
v -2 4.3 -0.1
v -1.9 4.3 -0.1
v -1.8 4.3 -0.1
v -1.7 4.3 -0.1
v -1.3 4.3 -0.1
v -1.2 4.3 -0.1
v -2 4.3 -0.2
v -1.8 4.3 -0.2
v -3.2 4.3 -0.4
v -3.1 4.3 -0.4
v -1.3 4.3 -0.4
v -1.2 4.3 -0.4
v -3.2 4.3 -0.6
v -3.1 4.3 -0.6
v -1.5 4.3 -0.7
v -1.4 4.3 -0.7
v -1.3 4.3 -0.7
v -1.5 4.3 -0.8
v -1.4 4.3 -0.8
v -1.3 4.3 -0.8
v -1.2 4.3 -0.8
v -3.2 4.3 -0.9
v -3.1 4.3 -0.9
v -2.1 4.3 -1
v -2 4.3 -1
v -1.5 4.3 -1
v -1.4 4.3 -1
v -1.3 4.3 -1
v -1.2 4.3 -1
v -3.2 4.3 -1.1
v -3.1 4.3 -1.1
v -2.9 4.3 -1.1
v -2.6 4.3 -1.1
v -2.5 4.3 -1.1
v -2.1 4.3 -1.1
v -2 4.3 -1.1
v -1.9 4.3 -1.1
v -1.5 4.3 -1.1
v -1.4 4.3 -1.1
v -1.3 4.3 -1.1
v -1.2 4.3 -1.1
v -3.1 4.3 -1.2
v -2.9 4.3 -1.2
v -2.6 4.3 -1.2
v -2.5 4.3 -1.2
v -2 4.3 -1.2
v -1.9 4.3 -1.2
v -1.7 4.3 -1.2
v -1.5 4.3 -1.2
v -1.4 4.3 -1.2
v -1.3 4.3 -1.2
v -3.1 4.3 -1.3
v -2.5 4.3 -1.3
v -2 4.3 -1.3
v -1.7 4.3 -1.3
v -1.5 4.3 -1.3
v -1.3 4.3 -1.3
v -1.7 4.4 0.2
v -1.6 4.4 0.2
v -1.4 4.4 0.2
v -1.7 4.4 0.1
v -1.6 4.4 0.1
v -1.5 4.4 0.1
v -1.4 4.4 0.1
v -1.3 4.4 0.1
v -1.9 4.4 0
v -1.8 4.4 0
v -1.5 4.4 0
v -1.4 4.4 0
v -1.9 4.4 -0.1
v -1.8 4.4 -0.1
v -1.7 4.4 -0.1
v -1.9 4.4 -0.2
v -1.8 4.4 -0.2
v -1.9 4.4 -0.3
v -1.4 4.4 -0.3
v -1.5 4.4 -0.4
v -1.4 4.4 -0.4
v -3.2 4.4 -0.6
v -3.1 4.4 -0.6
v -3 4.4 -0.6
v -2.9 4.4 -0.7
v -2.8 4.4 -0.7
v -1.5 4.4 -0.7
v -1.4 4.4 -0.7
v -1.3 4.4 -0.7
v -2.9 4.4 -0.8
v -2.8 4.4 -0.8
v -1.5 4.4 -0.8
v -1.4 4.4 -0.8
v -3.2 4.4 -0.9
v -3.1 4.4 -0.9
v -3 4.4 -0.9
v -2 4.4 -0.9
v -1.9 4.4 -0.9
v -1.6 4.4 -0.9
v -1.5 4.4 -0.9
v -2.9 4.4 -1
v -2.6 4.4 -1
v -2.2 4.4 -1
v -2.1 4.4 -1
v -2 4.4 -1
v -1.9 4.4 -1
v -1.7 4.4 -1
v -1.5 4.4 -1
v -1.4 4.4 -1
v -3 4.4 -1.1
v -2.9 4.4 -1.1
v -2.6 4.4 -1.1
v -2.5 4.4 -1.1
v -2.4 4.4 -1.1
v -2.3 4.4 -1.1
v -2.2 4.4 -1.1
v -2.1 4.4 -1.1
v -2 4.4 -1.1
v -1.9 4.4 -1.1
v -1.7 4.4 -1.1
v -1.6 4.4 -1.1
v -1.5 4.4 -1.1
v -1.4 4.4 -1.1
v -3 4.4 -1.2
v -2.9 4.4 -1.2
v -2.5 4.4 -1.2
v -2.4 4.4 -1.2
v -2.3 4.4 -1.2
v -2.2 4.4 -1.2
v -1.9 4.4 -1.2
v -1.7 4.4 -1.2
v -1.6 4.4 -1.2
v -1.4 4.4 -1.2
v -1.7 4.4 -1.3
v -1.6 4.4 -1.3
v -3.2 4.5 0.2
v -2.6 4.5 0.2
v -2.5 4.5 0.2
v -3.1 4.5 0.1
v -3 4.5 0.1
v -2.6 4.5 0.1
v -2.5 4.5 0.1
v -2.3 4.5 0.1
v -2.2 4.5 0.1
v -2.6 4.5 0
v -2.5 4.5 0
v -2.4 4.5 0
v -2.3 4.5 0
v -2.2 4.5 0
v -2 4.5 0
v -3.2 4.5 -0.1
v -3.1 4.5 -0.1
v -2.5 4.5 -0.1
v -2.4 4.5 -0.1
v -2.3 4.5 -0.1
v -2 4.5 -0.1
v -1.8 4.5 -0.3
v -1.4 4.5 -0.3
v -3.2 4.5 -0.4
v -3.1 4.5 -0.4
v -1.8 4.5 -0.4
v -1.6 4.5 -0.4
v -1.5 4.5 -0.4
v -1.4 4.5 -0.4
v -3 4.5 -0.5
v -2.9 4.5 -0.5
v -3.1 4.5 -0.6
v -3 4.5 -0.6
v -2.9 4.5 -0.6
v -2.8 4.5 -0.6
v -3 4.5 -0.7
v -2.9 4.5 -0.7
v -2.8 4.5 -0.7
v -2.7 4.5 -0.7
v -2.9 4.5 -0.8
v -2.8 4.5 -0.8
v -2.7 4.5 -0.8
v -3.2 4.5 -0.9
v -3 4.5 -0.9
v -2.8 4.5 -0.9
v -2.7 4.5 -0.9
v -1.6 4.5 -0.9
v -1.5 4.5 -0.9
v -3.2 4.5 -1
v -3.1 4.5 -1
v -2.9 4.5 -1
v -2.7 4.5 -1
v -1.7 4.5 -1
v -1.6 4.5 -1
v -3 4.5 -1.1
v -2.9 4.5 -1.1
v -1.7 4.5 -1.1
v -1.6 4.5 -1.1
v -3.1 4.5 -1.2
v -3 4.5 -1.2
v -3.2 4.5 -1.3
v -3.1 4.5 -1.3
v -2.4 4.6 0
v -2.3 4.6 0
v -2.3 4.6 -0.1
v -2.1 4.6 -0.1
v -2.4 4.6 -0.2
v -2.1 4.6 -0.2
v -3 4.6 -0.4
v -2.7 4.6 -0.4
v -1.7 4.6 -0.4
v -1.6 4.6 -0.4
v -3 4.6 -0.5
v -2.9 4.6 -0.5
v -3 4.6 -0.6
v -2.9 4.6 -0.6
v -2.8 4.6 -0.6
v -3 4.6 -0.7
v -2.9 4.6 -0.7
v -2.8 4.6 -0.7
v -2.7 4.6 -0.7
v -1.7 4.6 -0.7
v -1.6 4.6 -0.7
v -1.8 4.6 -0.9
v -1.6 4.6 -0.9
v -1.9 4.6 -1
v -1.8 4.6 -1
v -1.7 4.6 -1
v -1.6 4.6 -1
v -1.9 4.6 -1.1
v -1.8 4.6 -1.1
v -1.7 4.6 -1.1
v -1.8 4.6 -1.2
v -1.7 4.6 -1.2
v -3.1 4.7 0.2
v -2.8 4.7 0.2
v -2.7 4.7 0.2
v -2.5 4.7 0.2
v -3.1 4.7 0.1
v -3 4.7 0.1
v -2.9 4.7 0.1
v -2.8 4.7 0.1
v -2.7 4.7 0.1
v -2.6 4.7 0.1
v -2.5 4.7 0.1
v -2.4 4.7 0.1
v -3 4.7 0
v -2.9 4.7 0
v -3.1 4.7 -0.1
v -3 4.7 -0.1
v -2.5 4.7 -0.1
v -2.4 4.7 -0.1
v -2.1 4.7 -0.1
v -2 4.7 -0.1
v -2.9 4.7 -0.2
v -2.8 4.7 -0.2
v -2.2 4.7 -0.2
v -2.1 4.7 -0.2
v -2 4.7 -0.2
v -3.1 4.7 -0.3
v -3 4.7 -0.3
v -2.9 4.7 -0.3
v -2.2 4.7 -0.3
v -2.1 4.7 -0.3
v -3 4.7 -0.4
v -2.8 4.7 -0.4
v -2.7 4.7 -0.9
v -2.6 4.7 -0.9
v -2.5 4.7 -0.9
v -2 4.7 -0.9
v -1.8 4.7 -0.9
v -2.7 4.7 -1
v -2.6 4.7 -1
v -2.5 4.7 -1
v -2.1 4.7 -1
v -2 4.7 -1
v -1.8 4.7 -1
v -2.1 4.7 -1.1
v -2 4.7 -1.1
v -2.1 4.7 -1.2
v -2 4.7 -1.2
v -2.8 4.8 0.2
v -2.7 4.8 0.2
v -2.9 4.8 0.1
v -2.8 4.8 0.1
v -2.7 4.8 0.1
v -2.6 4.8 0.1
v -2.5 4.8 0.1
v -3.1 4.8 0
v -3 4.8 0
v -2.9 4.8 0
v -1.8 4.8 0
v -1.7 4.8 0
v -3.1 4.8 -0.1
v -3 4.8 -0.1
v -2.7 4.8 -0.1
v -2.6 4.8 -0.1
v -2.5 4.8 -0.1
v -2 4.8 -0.1
v -1.8 4.8 -0.1
v -1.7 4.8 -0.1
v -2.9 4.8 -0.2
v -2.8 4.8 -0.2
v -2.7 4.8 -0.2
v -2.6 4.8 -0.2
v -2.5 4.8 -0.2
v -2.1 4.8 -0.2
v -2 4.8 -0.2
v -1.8 4.8 -0.2
v -1.7 4.8 -0.2
v -1.6 4.8 -0.2
v -3 4.8 -0.3
v -2.9 4.8 -0.3
v -2.7 4.8 -0.3
v -2.6 4.8 -0.3
v -2.1 4.8 -0.3
v -2 4.8 -0.3
v -1.8 4.8 -0.3
v -1.7 4.8 -0.3
v -1.6 4.8 -0.3
v -2.8 4.8 -0.4
v -2.7 4.8 -0.4
v -1.7 4.8 -0.4
v -1.6 4.8 -0.4
v -1.8 4.8 -0.5
v -1.6 4.8 -0.5
v -2.8 4.8 -0.6
v -2.6 4.8 -0.6
v -1.5 4.8 -0.6
v -1.4 4.8 -0.6
v -2.6 4.8 -0.7
v -2.5 4.8 -0.7
v -1.5 4.8 -0.7
v -1.4 4.8 -0.7
v -2.5 4.8 -0.8
v -2.4 4.8 -0.8
v -2.7 4.8 -0.9
v -2.6 4.8 -0.9
v -2.5 4.8 -0.9
v -1.6 4.8 -0.9
v -1.5 4.8 -0.9
v -2.8 4.8 -1
v -2.7 4.8 -1
v -2.6 4.8 -1
v -2.5 4.8 -1
v -2.4 4.8 -1
v -2.7 4.8 -1.1
v -2.6 4.8 -1.1
v -2.5 4.8 -1.1
v -2.4 4.8 -1.1
v -2.2 4.8 -1.1
v -1.6 4.8 -1.1
v -1.5 4.8 -1.1
v -2.4 4.8 -1.2
v -2.3 4.8 -1.2
v -2.2 4.8 -1.2
v -2.4 4.8 -1.3
v -2.3 4.8 -1.3
v -2.7 4.9 -0.1
v -2.6 4.9 -0.1
v -2.5 4.9 -0.1
v -2.4 4.9 -0.1
v -1.8 4.9 -0.1
v -1.7 4.9 -0.1
v -2.7 4.9 -0.2
v -2.6 4.9 -0.2
v -2.5 4.9 -0.2
v -1.9 4.9 -0.2
v -1.8 4.9 -0.2
v -2.7 4.9 -0.3
v -2.6 4.9 -0.3
v -1.8 4.9 -0.3
v -1.7 4.9 -0.3
v -2.8 4.9 -0.4
v -2.7 4.9 -0.4
v -2.8 4.9 -0.5
v -2.7 4.9 -0.5
v -2.4 4.9 -0.5
v -2.3 4.9 -0.5
v -1.8 4.9 -0.5
v -1.4 4.9 -0.5
v -2.7 4.9 -0.6
v -2.6 4.9 -0.6
v -2.4 4.9 -0.6
v -2.3 4.9 -0.6
v -1.9 4.9 -0.6
v -1.7 4.9 -0.6
v -1.5 4.9 -0.6
v -1.4 4.9 -0.6
v -2.6 4.9 -0.7
v -2.5 4.9 -0.7
v -1.7 4.9 -0.7
v -1.6 4.9 -0.7
v -1.5 4.9 -0.7
v -2.5 4.9 -0.8
v -2.4 4.9 -0.8
v -2.3 4.9 -0.8
v -1.6 4.9 -0.8
v -1.5 4.9 -0.8
v -2.3 4.9 -0.9
v -2.2 4.9 -0.9
v -2.5 4.9 -1
v -2.4 4.9 -1
v -2.2 4.9 -1
v -2 4.9 -1
v -2.5 4.9 -1.1
v -2.4 4.9 -1.1
v -2.2 4.9 -1.1
v -2 4.9 -1.1
v -2.7 4.9 -1.2
v -2.6 4.9 -1.2
v -2.5 4.9 -1.2
v -2.4 4.9 -1.2
v -2.7 4.9 -1.3
v -2.6 4.9 -1.3
v -2.3 5 -0.1
v -2.1 5 -0.1
v -2.4 5 -0.2
v -2.3 5 -0.2
v -2.1 5 -0.2
v -2.4 5 -0.3
v -2.3 5 -0.3
v -2.4 5 -0.4
v -2.3 5 -0.4
v -2.8 5 -0.5
v -2.7 5 -0.5
v -2.4 5 -0.5
v -2.3 5 -0.5
v -2.8 5 -0.6
v -2.7 5 -0.6
v -2.4 5 -0.6
v -2.3 5 -0.6
v -1.5 5 -0.6
v -1.4 5 -0.6
v -1.7 5 -0.7
v -1.6 5 -0.7
v -1.5 5 -0.7
v -1.4 5 -0.7
v -2.4 5 -0.8
v -2.3 5 -0.8
v -2.2 5 -0.8
v -1.7 5 -0.8
v -1.6 5 -0.8
v -2.3 5 -0.9
v -2.2 5 -0.9
v -2 5 -0.9
v -2.4 5 -1
v -2.2 5 -1
v -2 5 -1
v -1.6 5 -1
v -1.5 5 -1
v -2.6 5 -1.1
v -2.5 5 -1.1
v -2.4 5 -1.1
v -2.2 5 -1.1
v -1.8 5 -1.1
v -1.6 5 -1.1
v -1.5 5 -1.1
v -2.6 5 -1.2
v -2.5 5 -1.2
v -1.8 5 -1.2
v -1.6 5 -1.2
v -2.4 5.1 -0.1
v -2.3 5.1 -0.1
v -2 5.1 -0.1
v -1.9 5.1 -0.1
v -2.4 5.1 -0.2
v -2.3 5.1 -0.2
v -2.2 5.1 -0.2
v -2 5.1 -0.2
v -1.9 5.1 -0.2
v -1.8 5.1 -0.2
v -2.4 5.1 -0.3
v -2.3 5.1 -0.3
v -1.8 5.1 -0.3
v -2.4 5.1 -0.4
v -2.3 5.1 -0.4
v -1.8 5.1 -0.4
v -1.7 5.1 -0.4
v -1.9 5.1 -0.5
v -1.7 5.1 -0.5
v -2.3 5.1 -0.6
v -2.2 5.1 -0.6
v -2.3 5.1 -0.7
v -2.1 5.1 -0.7
v -2.3 5.1 -0.8
v -2.2 5.1 -0.8
v -2.1 5.1 -0.8
v -2 5.1 -0.8
v -1.6 5.1 -0.8
v -1.4 5.1 -0.8
v -2.2 5.1 -0.9
v -2 5.1 -0.9
v -1.8 5.1 -0.9
v -1.6 5.1 -0.9
v -1.5 5.1 -0.9
v -1.4 5.1 -0.9
v -2 5.1 -1
v -1.9 5.1 -1
v -1.8 5.1 -1
v -1.7 5.1 -1
v -1.9 5.1 -1.1
v -1.7 5.1 -1.1
v -2.3 5.2 -0.1
v -2.2 5.2 -0.1
v -2.3 5.2 -0.2
v -2.2 5.2 -0.2
v -2 5.2 -0.2
v -1.9 5.2 -0.2
v -2.2 5.2 -0.3
v -2 5.2 -0.3
v -1.8 5.2 -0.3
v -1.7 5.2 -0.3
v -2.1 5.2 -0.4
v -2 5.2 -0.4
v -1.8 5.2 -0.4
v -1.7 5.2 -0.4
v -1.6 5.2 -0.4
v -2.2 5.2 -0.5
v -2.1 5.2 -0.5
v -2 5.2 -0.5
v -1.9 5.2 -0.5
v -1.7 5.2 -0.5
v -1.6 5.2 -0.5
v -2.3 5.2 -0.6
v -2.2 5.2 -0.6
v -2.1 5.2 -0.6
v -1.8 5.2 -0.6
v -1.7 5.2 -0.6
v -2.3 5.2 -0.7
v -2.1 5.2 -0.7
v -1.8 5.2 -0.7
v -2.1 5.2 -0.8
v -2 5.2 -0.8
v -1.8 5.2 -0.8
v -1.7 5.2 -0.8
v -1.6 5.2 -0.8
v -2 5.2 -0.9
v -1.8 5.2 -0.9
v -1.7 5.2 -0.9
v -1.6 5.2 -0.9
v -1.5 5.2 -0.9
v -1.8 5.2 -1
v -1.7 5.2 -1
v -1.6 5.2 -1
v -1.5 5.2 -1
v -1.7 5.2 -1.1
v -1.6 5.2 -1.1
v -2.2 5.3 -0.1
v -1.9 5.3 -0.1
v -2 5.3 -0.2
v -1.9 5.3 -0.2
v -2.2 5.3 -0.3
v -2 5.3 -0.3
v -2.1 5.3 -0.4
v -2 5.3 -0.4
v -2.2 5.3 -0.5
v -2.1 5.3 -0.5
v -2 5.3 -0.5
v -1.7 5.3 -0.5
v -2.2 5.3 -0.6
v -2.1 5.3 -0.6
v -1.8 5.3 -0.6
v -1.7 5.3 -0.6
v -1.6 5.3 -0.6
v -2.1 5.3 -0.7
v -1.8 5.3 -0.7
v -1.8 5.3 -0.8
v -1.7 5.3 -0.8
v -1.6 5.3 -0.8
v -1.8 5.3 -0.9
v -1.7 5.3 -0.9

# faces
f 3/3/1 2/3/1 1/3/1
f 4/3/1 2/3/1 3/3/1
f 6/3/1 2/3/1 4/3/1
f 7/3/1 2/3/1 6/3/1
f 8/3/1 2/3/1 7/3/1
f 9/1/1 6/1/1 5/1/1
f 9/3/1 7/3/1 6/3/1
f 10/3/1 7/3/1 9/3/1
f 11/3/1 7/3/1 10/3/1
f 12/3/1 7/3/1 11/3/1
f 13/3/1 7/3/1 12/3/1
f 14/3/1 7/3/1 13/3/1
f 16/1/1 10/1/1 9/1/1
f 16/3/1 11/3/1 10/3/1
f 17/3/1 11/3/1 16/3/1
f 18/3/1 13/3/1 12/3/1
f 19/3/1 13/3/1 18/3/1
f 21/1/1 15/1/1 14/1/1
f 22/1/1 9/1/1 5/1/1
f 22/1/1 16/1/1 9/1/1
f 22/1/1 17/1/1 16/1/1
f 23/3/1 11/3/1 17/3/1
f 23/1/1 17/1/1 22/1/1
f 24/3/1 11/3/1 23/3/1
f 25/3/1 20/3/1 19/3/1
f 26/1/1 21/1/1 20/1/1
f 26/3/1 20/3/1 25/3/1
f 27/1/1 15/1/1 21/1/1
f 27/1/1 21/1/1 26/1/1
f 30/2/1 29/2/1 28/2/1
f 31/2/1 29/2/1 30/2/1
f 38/2/1 33/2/1 32/2/1
f 39/3/1 34/3/1 33/3/1
f 39/2/1 33/2/1 38/2/1
f 40/3/1 34/3/1 39/3/1
f 41/2/1 36/2/1 35/2/1
f 42/2/1 36/2/1 41/2/1
f 43/2/1 38/2/1 37/2/1
f 44/2/1 38/2/1 43/2/1
f 45/2/1 38/2/1 44/2/1
f 46/3/1 42/3/1 41/3/1
f 47/3/1 42/3/1 46/3/1
f 52/3/1 49/3/1 48/3/1
f 53/3/1 49/3/1 52/3/1
f 54/3/1 51/3/1 50/3/1
f 55/3/1 51/3/1 54/3/1
f 56/3/1 51/3/1 55/3/1
f 57/1/1 55/1/1 54/1/1
f 58/1/1 55/1/1 57/1/1
f 61/3/1 60/3/1 59/3/1
f 62/3/1 60/3/1 61/3/1
f 67/2/1 64/2/1 63/2/1
f 68/2/1 64/2/1 67/2/1
f 69/2/1 64/2/1 68/2/1
f 70/2/1 66/2/1 65/2/1
f 71/2/1 66/2/1 70/2/1
f 72/2/1 66/2/1 71/2/1
f 73/2/1 66/2/1 72/2/1
f 74/2/1 66/2/1 73/2/1
f 75/2/1 68/2/1 67/2/1
f 76/2/1 68/2/1 75/2/1
f 77/2/1 71/2/1 70/2/1
f 78/2/1 71/2/1 77/2/1
f 80/2/1 73/2/1 72/2/1
f 81/2/1 73/2/1 80/2/1
f 82/2/1 80/2/1 79/2/1
f 83/2/1 80/2/1 82/2/1
f 86/2/1 85/2/1 84/2/1
f 87/2/1 85/2/1 86/2/1
f 90/2/1 89/2/1 88/2/1
f 91/2/1 89/2/1 90/2/1
f 95/2/1 93/2/1 92/2/1
f 96/2/1 93/2/1 95/2/1
f 98/2/1 95/2/1 94/2/1
f 99/2/1 95/2/1 98/2/1
f 100/2/1 97/2/1 96/2/1
f 101/2/1 97/2/1 100/2/1
f 108/2/1 102/2/1 101/2/1
f 108/2/1 100/2/1 99/2/1
f 108/2/1 101/2/1 100/2/1
f 109/3/1 104/3/1 103/3/1
f 110/3/1 104/3/1 109/3/1
f 111/2/1 106/2/1 105/2/1
f 112/2/1 106/2/1 111/2/1
f 113/2/1 108/2/1 107/2/1
f 114/2/1 102/2/1 108/2/1
f 114/2/1 108/2/1 113/2/1
f 115/2/1 113/2/1 112/2/1
f 116/2/1 113/2/1 115/2/1
f 117/2/1 113/2/1 116/2/1
f 118/2/1 113/2/1 117/2/1
f 124/2/1 120/2/1 119/2/1
f 125/2/1 120/2/1 124/2/1
f 126/2/1 122/2/1 121/2/1
f 127/2/1 122/2/1 126/2/1
f 129/2/1 124/2/1 123/2/1
f 130/2/1 124/2/1 129/2/1
f 134/2/1 129/2/1 123/2/1
f 135/2/1 129/2/1 134/2/1
f 136/2/1 128/2/1 127/2/1
f 137/2/1 128/2/1 136/2/1
f 140/2/1 132/2/1 131/2/1
f 141/2/1 132/2/1 140/2/1
f 142/2/1 134/2/1 133/2/1
f 143/2/1 134/2/1 142/2/1
f 144/3/1 139/3/1 138/3/1
f 145/3/1 139/3/1 144/3/1
f 148/5/1 147/5/1 146/5/1
f 149/5/1 147/5/1 148/5/1
f 155/5/1 150/5/1 149/5/1
f 156/5/1 150/5/1 155/5/1
f 157/5/1 152/5/1 151/5/1
f 158/5/1 152/5/1 157/5/1
f 159/5/1 154/5/1 153/5/1
f 160/5/1 154/5/1 159/5/1
f 161/5/1 156/5/1 155/5/1
f 162/5/1 161/5/1 155/5/1
f 163/5/1 161/5/1 162/5/1
f 166/5/1 165/5/1 164/5/1
f 167/5/1 165/5/1 166/5/1
f 170/5/1 169/5/1 168/5/1
f 171/5/1 169/5/1 170/5/1
f 174/2/1 173/2/1 172/2/1
f 175/2/1 173/2/1 174/2/1
f 182/5/1 177/5/1 176/5/1
f 183/5/1 177/5/1 182/5/1
f 185/5/1 179/5/1 178/5/1
f 186/5/1 179/5/1 185/5/1
f 187/5/1 181/5/1 180/5/1
f 188/5/1 181/5/1 187/5/1
f 189/5/1 184/5/1 183/5/1
f 190/5/1 184/5/1 189/5/1
f 193/5/1 192/5/1 191/5/1
f 194/5/1 192/5/1 193/5/1
f 199/3/1 196/3/1 195/3/1
f 200/3/1 196/3/1 199/3/1
f 204/5/1 198/5/1 197/5/1
f 205/5/1 198/5/1 204/5/1
f 207/5/1 202/5/1 201/5/1
f 208/5/1 202/5/1 207/5/1
f 209/5/1 202/5/1 208/5/1
f 210/5/1 202/5/1 209/5/1
f 211/5/1 204/5/1 203/5/1
f 212/5/1 204/5/1 211/5/1
f 213/5/1 206/5/1 205/5/1
f 214/5/1 206/5/1 213/5/1
f 215/5/1 207/5/1 201/5/1
f 216/5/1 207/5/1 215/5/1
f 217/5/1 209/5/1 208/5/1
f 218/5/1 209/5/1 217/5/1
f 221/3/1 220/3/1 219/3/1
f 222/3/1 220/3/1 221/3/1
f 224/5/1 223/5/1 222/5/1
f 225/5/1 223/5/1 224/5/1
f 228/5/1 227/5/1 226/5/1
f 229/5/1 227/5/1 228/5/1
f 237/5/1 231/5/1 230/5/1
f 238/5/1 231/5/1 237/5/1
f 239/5/1 233/5/1 232/5/1
f 240/5/1 233/5/1 239/5/1
f 242/5/1 235/5/1 234/5/1
f 243/5/1 235/5/1 242/5/1
f 244/5/1 238/5/1 237/5/1
f 244/5/1 237/5/1 236/5/1
f 244/5/1 239/5/1 238/5/1
f 245/5/1 239/5/1 244/5/1
f 246/5/1 239/5/1 245/5/1
f 247/5/1 239/5/1 246/5/1
f 248/5/1 242/5/1 241/5/1
f 249/5/1 242/5/1 248/5/1
f 250/5/1 246/5/1 245/5/1
f 251/5/1 246/5/1 250/5/1
f 255/5/1 253/5/1 252/5/1
f 256/5/1 253/5/1 255/5/1
f 259/5/1 255/5/1 254/5/1
f 260/5/1 255/5/1 259/5/1
f 262/5/1 258/5/1 257/5/1
f 263/5/1 258/5/1 262/5/1
f 264/5/1 258/5/1 263/5/1
f 265/5/1 258/5/1 264/5/1
f 266/5/1 262/5/1 261/5/1
f 266/5/1 263/5/1 262/5/1
f 267/5/1 263/5/1 266/5/1
f 268/5/1 265/5/1 264/5/1
f 269/5/1 265/5/1 268/5/1
f 274/5/1 271/5/1 270/5/1
f 275/5/1 271/5/1 274/5/1
f 277/2/1 273/2/1 272/2/1
f 278/2/1 273/2/1 277/2/1
f 279/5/1 276/5/1 275/5/1
f 280/5/1 276/5/1 279/5/1
f 286/5/1 282/5/1 281/5/1
f 287/5/1 282/5/1 286/5/1
f 288/5/1 284/5/1 283/5/1
f 289/5/1 284/5/1 288/5/1
f 290/5/1 286/5/1 285/5/1
f 291/5/1 286/5/1 290/5/1
f 295/3/1 293/3/1 292/3/1
f 298/5/1 297/5/1 296/5/1
f 299/5/1 297/5/1 298/5/1
f 301/5/1 295/5/1 294/5/1
f 302/3/1 293/3/1 295/3/1
f 302/5/1 295/5/1 301/5/1
f 303/3/1 293/3/1 302/3/1
f 304/5/1 301/5/1 300/5/1
f 305/5/1 301/5/1 304/5/1
f 308/5/1 307/5/1 306/5/1
f 309/5/1 307/5/1 308/5/1
f 311/5/1 310/5/1 309/5/1
f 312/5/1 310/5/1 311/5/1
f 317/5/1 314/5/1 313/5/1
f 318/5/1 314/5/1 317/5/1
f 320/5/1 316/5/1 315/5/1
f 321/5/1 316/5/1 320/5/1
f 322/5/1 320/5/1 319/5/1
f 323/5/1 320/5/1 322/5/1
f 326/3/1 325/3/1 324/3/1
f 327/3/1 325/3/1 326/3/1
f 332/5/1 329/5/1 328/5/1
f 333/5/1 329/5/1 332/5/1
f 336/5/1 331/5/1 330/5/1
f 337/5/1 331/5/1 336/5/1
f 338/5/1 335/5/1 334/5/1
f 340/5/1 338/5/1 334/5/1
f 340/5/1 339/5/1 338/5/1
f 341/5/1 339/5/1 340/5/1
f 342/5/1 339/5/1 341/5/1
f 345/5/1 344/5/1 343/5/1
f 346/5/1 344/5/1 345/5/1
f 349/5/1 348/5/1 347/5/1
f 350/5/1 348/5/1 349/5/1
f 353/2/1 352/2/1 351/2/1
f 354/2/1 352/2/1 353/2/1
f 359/5/1 356/5/1 355/5/1
f 360/5/1 356/5/1 359/5/1
f 362/5/1 358/5/1 357/5/1
f 363/5/1 358/5/1 362/5/1
f 365/5/1 361/5/1 360/5/1
f 366/5/1 361/5/1 365/5/1
f 367/5/1 364/5/1 363/5/1
f 368/5/1 364/5/1 367/5/1
f 370/5/1 369/5/1 368/5/1
f 371/5/1 369/5/1 370/5/1
f 376/5/1 373/5/1 372/5/1
f 377/5/1 373/5/1 376/5/1
f 379/5/1 375/5/1 374/5/1
f 380/5/1 375/5/1 379/5/1
f 381/5/1 379/5/1 378/5/1
f 382/5/1 379/5/1 381/5/1
f 385/2/1 384/2/1 383/2/1
f 386/2/1 384/2/1 385/2/1
f 392/3/1 388/3/1 387/3/1
f 393/5/1 389/5/1 388/5/1
f 393/3/1 388/3/1 392/3/1
f 394/5/1 389/5/1 393/5/1
f 397/3/1 391/3/1 390/3/1
f 398/3/1 391/3/1 397/3/1
f 399/5/1 396/5/1 395/5/1
f 400/5/1 396/5/1 399/5/1
f 403/5/1 402/5/1 401/5/1
f 404/5/1 402/5/1 403/5/1
f 406/5/1 405/5/1 404/5/1
f 407/5/1 405/5/1 406/5/1
f 412/5/1 409/5/1 408/5/1
f 413/5/1 409/5/1 412/5/1
f 416/5/1 411/5/1 410/5/1
f 417/5/1 411/5/1 416/5/1
f 418/5/1 415/5/1 414/5/1
f 419/5/1 415/5/1 418/5/1
f 422/4/1 421/4/1 420/4/1
f 423/4/1 421/4/1 422/4/1
f 426/5/1 425/5/1 424/5/1
f 427/5/1 425/5/1 426/5/1
f 430/2/1 429/2/1 428/2/1
f 431/2/1 429/2/1 430/2/1
f 432/1/2 433/1/2 434/1/2
f 434/1/2 433/1/2 435/1/2
f 435/1/2 433/1/2 436/1/2
f 437/3/2 438/3/2 439/3/2
f 439/3/2 438/3/2 440/3/2
f 441/3/2 442/3/2 443/3/2
f 443/3/2 442/3/2 444/3/2
f 445/2/2 446/2/2 450/2/2
f 450/2/2 446/2/2 451/2/2
f 447/2/2 448/2/2 453/2/2
f 453/2/2 448/2/2 454/2/2
f 449/2/2 450/2/2 455/2/2
f 455/2/2 450/2/2 456/2/2
f 452/2/2 453/2/2 457/2/2
f 457/2/2 453/2/2 458/2/2
f 459/2/2 460/2/2 461/2/2
f 461/2/2 460/2/2 462/2/2
f 463/3/2 464/3/2 467/3/2
f 467/3/2 464/3/2 468/3/2
f 465/3/2 466/3/2 469/3/2
f 469/3/2 466/3/2 470/3/2
f 471/3/2 472/3/2 473/3/2
f 473/3/2 472/3/2 474/3/2
f 475/3/2 476/3/2 479/3/2
f 479/3/2 476/3/2 480/3/2
f 477/2/2 478/2/2 481/2/2
f 481/2/2 478/2/2 482/2/2
f 483/2/2 484/2/2 485/2/2
f 485/2/2 484/2/2 486/2/2
f 487/2/2 488/2/2 489/2/2
f 489/2/2 488/2/2 490/2/2
f 491/3/2 492/3/2 493/3/2
f 493/3/2 492/3/2 494/3/2
f 495/2/2 496/2/2 497/2/2
f 497/2/2 496/2/2 498/2/2
f 499/2/2 500/2/2 503/2/2
f 503/2/2 500/2/2 504/2/2
f 501/3/2 502/3/2 505/3/2
f 505/3/2 502/3/2 506/3/2
f 507/5/2 508/5/2 510/5/2
f 508/3/2 509/3/2 511/3/2
f 510/5/2 508/5/2 511/5/2
f 511/3/2 509/3/2 512/3/2
f 513/3/2 514/3/2 515/3/2
f 515/3/2 514/3/2 516/3/2
f 517/5/2 518/5/2 521/5/2
f 521/5/2 518/5/2 522/5/2
f 519/3/2 520/3/2 523/3/2
f 523/3/2 520/3/2 524/3/2
f 524/5/2 525/5/2 526/5/2
f 526/5/2 525/5/2 527/5/2
f 528/5/2 529/5/2 530/5/2
f 530/5/2 529/5/2 531/5/2
f 532/3/2 533/3/2 536/3/2
f 536/3/2 533/3/2 537/3/2
f 534/5/2 535/5/2 538/5/2
f 534/5/2 538/5/2 542/5/2
f 538/5/2 539/5/2 542/5/2
f 542/5/2 539/5/2 543/5/2
f 540/5/2 541/5/2 544/5/2
f 544/5/2 541/5/2 545/5/2
f 546/2/2 547/2/2 551/2/2
f 551/2/2 547/2/2 552/2/2
f 549/5/2 550/5/2 553/5/2
f 548/5/2 549/5/2 553/5/2
f 553/5/2 550/5/2 554/5/2
f 554/5/2 550/5/2 555/5/2
f 556/5/2 557/5/2 558/5/2
f 558/5/2 557/5/2 559/5/2
f 560/5/2 561/5/2 562/5/2
f 562/5/2 561/5/2 563/5/2
f 566/3/2 567/3/2 568/3/2
f 568/3/2 567/3/2 569/3/2
f 564/5/2 565/5/2 570/5/2
f 570/5/2 565/5/2 571/5/2
f 572/5/2 573/5/2 574/5/2
f 574/5/2 573/5/2 575/5/2
f 576/3/2 577/3/2 579/3/2
f 579/3/2 577/3/2 580/3/2
f 578/5/2 579/5/2 581/5/2
f 581/5/2 579/5/2 582/5/2
f 583/5/2 584/5/2 588/5/2
f 588/5/2 584/5/2 589/5/2
f 585/2/2 586/2/2 590/2/2
f 590/2/2 586/2/2 591/2/2
f 587/5/2 588/5/2 592/5/2
f 592/5/2 588/5/2 593/5/2
f 593/2/2 594/2/2 597/2/2
f 597/2/2 594/2/2 598/2/2
f 597/5/2 598/5/2 599/5/2
f 599/5/2 598/5/2 600/5/2
f 595/5/2 596/5/2 601/5/2
f 601/5/2 596/5/2 602/5/2
f 603/5/2 604/5/2 605/5/2
f 605/5/2 604/5/2 606/5/2
f 607/5/2 608/5/2 609/5/2
f 609/5/2 608/5/2 610/5/2
f 611/5/2 612/5/2 613/5/2
f 613/5/2 612/5/2 614/5/2
f 615/5/2 616/5/2 617/5/2
f 617/5/2 616/5/2 618/5/2
f 619/5/2 620/5/2 621/5/2
f 621/5/2 620/5/2 622/5/2
f 623/5/2 624/5/2 626/5/2
f 625/5/2 626/5/2 629/5/2
f 626/5/2 624/5/2 630/5/2
f 629/5/2 626/5/2 630/5/2
f 630/5/2 624/5/2 631/5/2
f 627/5/2 628/5/2 632/5/2
f 632/5/2 628/5/2 633/5/2
f 633/5/2 634/5/2 637/5/2
f 634/2/2 635/2/2 638/2/2
f 637/5/2 634/5/2 638/5/2
f 638/2/2 635/2/2 639/2/2
f 636/5/2 637/5/2 640/5/2
f 640/5/2 637/5/2 641/5/2
f 641/5/2 642/5/2 643/5/2
f 643/5/2 642/5/2 644/5/2
f 645/5/2 646/5/2 647/5/2
f 647/5/2 646/5/2 648/5/2
f 648/5/2 649/5/2 652/5/2
f 652/5/2 649/5/2 653/5/2
f 650/5/2 651/5/2 654/5/2
f 654/5/2 651/5/2 655/5/2
f 656/2/2 657/2/2 658/2/2
f 658/2/2 657/2/2 659/2/2
f 660/5/2 661/5/2 663/5/2
f 663/5/2 661/5/2 664/5/2
f 662/5/2 663/5/2 664/5/2
f 664/5/2 661/5/2 665/5/2
f 662/5/2 664/5/2 666/5/2
f 666/5/2 664/5/2 667/5/2
f 668/5/2 669/5/2 671/5/2
f 671/5/2 669/5/2 672/5/2
f 670/5/2 671/5/2 673/5/2
f 673/5/2 671/5/2 674/5/2
f 674/5/2 675/5/2 677/5/2
f 677/5/2 675/5/2 678/5/2
f 676/5/2 677/5/2 679/5/2
f 679/5/2 677/5/2 680/5/2
f 681/2/2 682/2/2 683/2/2
f 683/2/2 682/2/2 684/2/2
f 685/3/2 686/3/2 689/3/2
f 689/3/2 686/3/2 690/3/2
f 687/3/2 688/3/2 691/3/2
f 691/3/2 688/3/2 692/3/2
f 693/5/2 694/5/2 695/5/2
f 695/5/2 694/5/2 696/5/2
f 697/5/2 698/5/2 700/5/2
f 700/5/2 698/5/2 701/5/2
f 699/5/2 700/5/2 704/5/2
f 704/5/2 700/5/2 705/5/2
f 702/5/2 703/5/2 706/5/2
f 706/5/2 703/5/2 707/5/2
f 708/5/2 709/5/2 710/5/2
f 710/5/2 709/5/2 711/5/2
f 712/5/2 713/5/2 714/5/2
f 714/5/2 713/5/2 715/5/2
f 716/5/2 717/5/2 718/5/2
f 718/5/2 717/5/2 719/5/2
f 720/3/2 721/3/2 722/3/2
f 722/3/2 721/3/2 723/3/2
f 724/5/2 725/5/2 730/5/2
f 725/2/2 726/2/2 731/2/2
f 730/5/2 725/5/2 731/5/2
f 731/2/2 726/2/2 732/2/2
f 728/5/2 729/5/2 735/5/2
f 727/5/2 728/5/2 735/5/2
f 735/5/2 729/5/2 736/5/2
f 736/5/2 729/5/2 737/5/2
f 733/5/2 734/5/2 738/5/2
f 738/5/2 734/5/2 739/5/2
f 739/5/2 734/5/2 740/5/2
f 735/5/2 736/5/2 741/5/2
f 741/5/2 736/5/2 742/5/2
f 739/5/2 740/5/2 743/5/2
f 740/5/2 741/5/2 743/5/2
f 743/5/2 741/5/2 744/5/2
f 745/5/2 746/5/2 748/5/2
f 748/5/2 746/5/2 749/5/2
f 748/5/2 749/5/2 751/5/2
f 749/5/2 750/5/2 751/5/2
f 747/5/2 748/5/2 751/5/2
f 751/5/2 750/5/2 752/5/2
f 752/5/2 750/5/2 753/5/2
f 753/5/2 750/5/2 754/5/2
f 747/5/2 751/5/2 755/5/2
f 755/5/2 751/5/2 756/5/2
f 752/5/2 753/5/2 757/5/2
f 757/5/2 753/5/2 758/5/2
f 758/5/2 753/5/2 759/5/2
f 757/5/2 758/5/2 762/5/2
f 762/5/2 758/5/2 763/5/2
f 760/5/2 761/5/2 764/5/2
f 764/5/2 761/5/2 765/5/2
f 766/3/2 767/3/2 770/3/2
f 770/3/2 767/3/2 771/3/2
f 768/5/2 769/5/2 773/5/2
f 773/5/2 769/5/2 774/5/2
f 774/5/2 769/5/2 775/5/2
f 772/5/2 773/5/2 776/5/2
f 773/5/2 774/5/2 776/5/2
f 776/5/2 774/5/2 777/5/2
f 777/5/2 774/5/2 778/5/2
f 778/5/2 774/5/2 779/5/2
f 777/5/2 778/5/2 784/5/2
f 784/5/2 778/5/2 785/5/2
f 780/5/2 781/5/2 786/5/2
f 786/5/2 781/5/2 787/5/2
f 782/5/2 783/5/2 788/5/2
f 788/5/2 783/5/2 789/5/2
f 790/5/2 791/5/2 795/5/2
f 791/5/2 792/5/2 795/5/2
f 795/5/2 792/5/2 796/5/2
f 793/5/2 794/5/2 797/5/2
f 797/5/2 794/5/2 798/5/2
f 790/5/2 795/5/2 799/5/2
f 799/5/2 795/5/2 800/5/2
f 796/5/2 792/5/2 801/5/2
f 801/5/2 792/5/2 802/5/2
f 803/5/2 804/5/2 808/5/2
f 808/5/2 804/5/2 809/5/2
f 806/5/2 807/5/2 811/5/2
f 805/5/2 806/5/2 811/5/2
f 811/5/2 807/5/2 812/5/2
f 812/5/2 807/5/2 813/5/2
f 800/5/2 801/5/2 814/5/2
f 814/5/2 801/5/2 815/5/2
f 810/5/2 811/5/2 816/5/2
f 811/5/2 812/5/2 816/5/2
f 816/5/2 812/5/2 817/5/2
f 818/3/2 819/3/2 820/3/2
f 820/3/2 819/3/2 821/3/2
f 822/5/2 823/5/2 828/5/2
f 828/5/2 823/5/2 829/5/2
f 824/5/2 825/5/2 831/5/2
f 831/5/2 825/5/2 832/5/2
f 826/5/2 827/5/2 834/5/2
f 834/5/2 827/5/2 835/5/2
f 832/5/2 833/5/2 836/5/2
f 830/5/2 831/5/2 836/5/2
f 831/5/2 832/5/2 836/5/2
f 836/5/2 833/5/2 837/5/2
f 838/5/2 839/5/2 842/5/2
f 842/5/2 839/5/2 843/5/2
f 840/5/2 841/5/2 844/5/2
f 844/5/2 841/5/2 845/5/2
f 845/5/2 841/5/2 846/5/2
f 843/5/2 844/5/2 847/5/2
f 844/5/2 845/5/2 847/5/2
f 847/5/2 845/5/2 848/5/2
f 848/5/2 845/5/2 849/5/2
f 849/5/2 845/5/2 852/5/2
f 852/5/2 845/5/2 853/5/2
f 850/5/2 851/5/2 854/5/2
f 854/5/2 851/5/2 855/5/2
f 853/5/2 854/5/2 856/5/2
f 856/5/2 854/5/2 857/5/2
f 857/5/2 854/5/2 858/5/2
f 859/4/2 860/4/2 865/4/2
f 865/4/2 860/4/2 866/4/2
f 861/5/2 862/5/2 869/5/2
f 869/5/2 862/5/2 870/5/2
f 863/5/2 864/5/2 871/5/2
f 871/5/2 864/5/2 872/5/2
f 867/5/2 868/5/2 873/5/2
f 873/5/2 868/5/2 874/5/2
f 875/5/2 876/5/2 878/5/2
f 878/5/2 876/5/2 879/5/2
f 877/5/2 878/5/2 880/5/2
f 880/5/2 878/5/2 881/5/2
f 881/5/2 882/5/2 883/5/2
f 883/5/2 882/5/2 884/5/2
f 885/5/2 886/5/2 887/5/2
f 887/5/2 886/5/2 888/5/2
f 889/2/2 890/2/2 891/2/2
f 891/2/2 890/2/2 892/2/2
f 892/2/2 890/2/2 893/2/2
f 893/2/2 890/2/2 898/2/2
f 898/2/2 890/2/2 899/2/2
f 899/2/2 890/2/2 900/2/2
f 894/4/2 895/4/2 902/4/2
f 902/4/2 895/4/2 903/4/2
f 896/2/2 897/2/2 905/2/2
f 905/2/2 897/2/2 906/2/2
f 906/2/2 897/2/2 907/2/2
f 899/2/2 900/2/2 908/2/2
f 900/4/2 901/4/2 909/4/2
f 908/2/2 900/2/2 909/2/2
f 909/4/2 901/4/2 910/4/2
f 903/2/2 904/2/2 911/2/2
f 905/2/2 906/2/2 911/2/2
f 904/2/2 905/2/2 911/2/2
f 911/2/2 906/2/2 912/2/2
f 913/4/2 914/4/2 916/4/2
f 916/4/2 914/4/2 917/4/2
f 914/3/2 915/3/2 918/3/2
f 918/3/2 915/3/2 919/3/2
f 919/3/2 915/3/2 920/3/2
f 917/4/2 914/4/2 922/4/2
f 914/3/2 918/3/2 923/3/2
f 922/4/2 914/4/2 923/4/2
f 923/3/2 918/3/2 924/3/2
f 919/3/2 920/3/2 925/3/2
f 920/4/2 921/4/2 926/4/2
f 925/3/2 920/3/2 926/3/2
f 926/4/2 921/4/2 927/4/2
f 932/1/3 931/1/3 930/1/3
f 933/1/3 931/1/3 932/1/3
f 936/3/3 929/3/3 928/3/3
f 937/3/3 933/3/3 932/3/3
f 938/1/3 931/1/3 933/1/3
f 938/3/3 933/3/3 937/3/3
f 939/1/3 931/1/3 938/1/3
f 940/1/3 931/1/3 939/1/3
f 941/3/3 935/3/3 934/3/3
f 943/3/3 936/3/3 928/3/3
f 943/3/3 937/3/3 936/3/3
f 944/3/3 937/3/3 943/3/3
f 945/3/3 937/3/3 944/3/3
f 946/3/3 937/3/3 945/3/3
f 947/3/3 942/3/3 941/3/3
f 947/3/3 941/3/3 934/3/3
f 948/3/3 942/3/3 947/3/3
f 949/3/3 940/3/3 939/3/3
f 950/1/3 931/1/3 940/1/3
f 950/3/3 940/3/3 949/3/3
f 951/1/3 931/1/3 950/1/3
f 952/3/3 951/3/3 950/3/3
f 953/3/3 951/3/3 952/3/3
f 954/3/3 947/3/3 934/3/3
f 955/3/3 947/3/3 954/3/3
f 956/3/3 945/3/3 944/3/3
f 958/3/3 957/3/3 956/3/3
f 960/3/3 956/3/3 944/3/3
f 960/3/3 959/3/3 958/3/3
f 960/3/3 958/3/3 956/3/3
f 961/3/3 959/3/3 960/3/3
f 962/3/3 959/3/3 961/3/3
f 964/3/3 962/3/3 961/3/3
f 964/3/3 963/3/3 962/3/3
f 965/3/3 963/3/3 964/3/3
f 966/3/3 964/3/3 961/3/3
f 967/4/3 965/4/3 964/4/3
f 967/3/3 964/3/3 966/3/3
f 968/3/3 966/3/3 961/3/3
f 969/4/3 967/4/3 966/4/3
f 969/3/3 966/3/3 968/3/3
f 970/4/3 965/4/3 967/4/3
f 970/4/3 967/4/3 969/4/3
f 971/4/3 965/4/3 970/4/3
f 972/4/3 969/4/3 968/4/3
f 972/4/3 970/4/3 969/4/3
f 973/4/3 970/4/3 972/4/3
f 974/4/3 972/4/3 968/4/3
f 975/4/3 972/4/3 974/4/3
f 980/3/3 977/3/3 976/3/3
f 981/3/3 977/3/3 980/3/3
f 982/2/3 981/2/3 980/2/3
f 983/2/3 981/2/3 982/2/3
f 987/2/3 984/2/3 983/2/3
f 990/2/3 989/2/3 988/2/3
f 991/2/3 989/2/3 990/2/3
f 992/2/3 979/2/3 978/2/3
f 995/2/3 987/2/3 983/2/3
f 998/2/3 995/2/3 994/2/3
f 999/2/3 987/2/3 995/2/3
f 999/2/3 995/2/3 998/2/3
f 1001/2/3 986/2/3 985/2/3
f 1002/2/3 986/2/3 1001/2/3
f 1003/2/3 997/2/3 996/2/3
f 1004/2/3 997/2/3 1003/2/3
f 1005/5/3 1000/5/3 999/5/3
f 1005/5/3 999/5/3 998/5/3
f 1008/5/3 1004/5/3 1003/5/3
f 1009/5/3 1004/5/3 1008/5/3
f 1010/5/3 1006/5/3 1005/5/3
f 1010/5/3 1005/5/3 998/5/3
f 1011/5/3 1006/5/3 1010/5/3
f 1012/5/3 1008/5/3 1007/5/3
f 1013/5/3 1008/5/3 1012/5/3
f 1014/5/3 1010/5/3 998/5/3
f 1015/5/3 1010/5/3 1014/5/3
f 1017/5/3 1006/5/3 1011/5/3
f 1018/5/3 1006/5/3 1017/5/3
f 1019/2/3 1018/2/3 1017/2/3
f 1020/2/3 1018/2/3 1019/2/3
f 1021/5/3 1016/5/3 1015/5/3
f 1022/5/3 1016/5/3 1021/5/3
f 1025/5/3 1024/5/3 1023/5/3
f 1026/5/3 1024/5/3 1025/5/3
f 1027/2/3 993/2/3 992/2/3
f 1029/2/3 1028/2/3 1027/2/3
f 1032/2/3 1029/2/3 1027/2/3
f 1032/2/3 992/2/3 978/2/3
f 1032/2/3 1027/2/3 992/2/3
f 1033/2/3 1029/2/3 1032/2/3
f 1035/2/3 1031/2/3 1030/2/3
f 1036/2/3 1031/2/3 1035/2/3
f 1037/4/3 1035/4/3 1034/4/3
f 1038/4/3 1035/4/3 1037/4/3
f 1042/3/3 1040/3/3 1039/3/3
f 1043/1/3 1041/1/3 1040/1/3
f 1043/3/3 1040/3/3 1042/3/3
f 1044/1/3 1041/1/3 1043/1/3
f 1045/2/3 1044/2/3 1043/2/3
f 1046/2/3 1044/2/3 1045/2/3
f 1049/5/3 1048/5/3 1047/5/3
f 1050/5/3 1048/5/3 1049/5/3
f 1055/5/3 1052/5/3 1051/5/3
f 1056/5/3 1052/5/3 1055/5/3
f 1057/5/3 1054/5/3 1053/5/3
f 1058/5/3 1054/5/3 1057/5/3
f 1063/5/3 1062/5/3 1061/5/3
f 1064/5/3 1062/5/3 1063/5/3
f 1065/5/3 1060/5/3 1059/5/3
f 1066/5/3 1060/5/3 1065/5/3
f 1069/5/3 1068/5/3 1067/5/3
f 1070/5/3 1068/5/3 1069/5/3
f 1073/5/3 1072/5/3 1071/5/3
f 1074/5/3 1072/5/3 1073/5/3
f 1077/5/3 1076/5/3 1075/5/3
f 1078/5/3 1076/5/3 1077/5/3
f 1081/2/3 1080/2/3 1079/2/3
f 1082/2/3 1080/2/3 1081/2/3
f 1090/5/3 1084/5/3 1083/5/3
f 1091/5/3 1084/5/3 1090/5/3
f 1092/5/3 1086/5/3 1085/5/3
f 1092/5/3 1087/5/3 1086/5/3
f 1093/5/3 1087/5/3 1092/5/3
f 1097/5/3 1093/5/3 1092/5/3
f 1097/5/3 1094/5/3 1093/5/3
f 1098/5/3 1094/5/3 1097/5/3
f 1099/5/3 1094/5/3 1098/5/3
f 1100/5/3 1094/5/3 1099/5/3
f 1102/5/3 1101/5/3 1100/5/3
f 1104/5/3 1096/5/3 1095/5/3
f 1106/5/3 1099/5/3 1098/5/3
f 1107/5/3 1099/5/3 1106/5/3
f 1108/5/3 1089/5/3 1088/5/3
f 1109/5/3 1089/5/3 1108/5/3
f 1110/5/3 1105/5/3 1104/5/3
f 1110/5/3 1104/5/3 1095/5/3
f 1111/5/3 1105/5/3 1110/5/3
f 1114/5/3 1103/5/3 1102/5/3
f 1114/5/3 1102/5/3 1100/5/3
f 1115/5/3 1103/5/3 1114/5/3
f 1116/5/3 1112/5/3 1111/5/3
f 1116/5/3 1111/5/3 1110/5/3
f 1117/5/3 1112/5/3 1116/5/3
f 1118/5/3 1114/5/3 1113/5/3
f 1119/5/3 1114/5/3 1118/5/3
f 1120/5/3 1103/5/3 1115/5/3
f 1121/5/3 1103/5/3 1120/5/3
f 1124/5/3 1112/5/3 1117/5/3
f 1125/5/3 1112/5/3 1124/5/3
f 1127/5/3 1123/5/3 1122/5/3
f 1128/5/3 1123/5/3 1127/5/3
f 1129/5/3 1126/5/3 1125/5/3
f 1130/5/3 1126/5/3 1129/5/3
f 1133/5/3 1132/5/3 1131/5/3
f 1134/5/3 1132/5/3 1133/5/3
f 1137/5/3 1136/5/3 1135/5/3
f 1141/5/3 1138/5/3 1137/5/3
f 1141/5/3 1137/5/3 1135/5/3
f 1142/5/3 1138/5/3 1141/5/3
f 1143/5/3 1141/5/3 1135/5/3
f 1144/5/3 1141/5/3 1143/5/3
f 1147/5/3 1140/5/3 1139/5/3
f 1150/5/3 1145/5/3 1144/5/3
f 1151/5/3 1145/5/3 1150/5/3
f 1152/5/3 1147/5/3 1146/5/3
f 1153/5/3 1140/5/3 1147/5/3
f 1153/5/3 1147/5/3 1152/5/3
f 1154/5/3 1140/5/3 1153/5/3
f 1156/5/3 1149/5/3 1148/5/3
f 1157/5/3 1149/5/3 1156/5/3
f 1160/5/3 1153/5/3 1152/5/3
f 1160/5/3 1152/5/3 1151/5/3
f 1161/5/3 1153/5/3 1160/5/3
f 1162/5/3 1155/5/3 1154/5/3
f 1163/5/3 1155/5/3 1162/5/3
f 1164/5/3 1156/5/3 1148/5/3
f 1165/5/3 1156/5/3 1164/5/3
f 1166/5/3 1159/5/3 1158/5/3
f 1167/5/3 1159/5/3 1166/5/3
f 1168/5/3 1160/5/3 1151/5/3
f 1169/5/3 1160/5/3 1168/5/3
f 1170/5/3 1162/5/3 1161/5/3
f 1171/5/3 1162/5/3 1170/5/3
f 1174/5/3 1173/5/3 1172/5/3
f 1175/5/3 1173/5/3 1174/5/3
f 1178/2/3 1177/2/3 1176/2/3
f 1179/2/3 1177/2/3 1178/2/3
f 1182/5/3 1181/5/3 1180/5/3
f 1183/5/3 1181/5/3 1182/5/3
f 1186/5/3 1185/5/3 1184/5/3
f 1187/5/3 1185/5/3 1186/5/3
f 1188/5/3 1185/5/3 1187/5/3
f 1189/5/3 1185/5/3 1188/5/3
f 1192/5/3 1191/5/3 1190/5/3
f 1193/5/3 1191/5/3 1192/5/3
f 1198/5/3 1194/5/3 1193/5/3
f 1199/5/3 1194/5/3 1198/5/3
f 1200/5/3 1196/5/3 1195/5/3
f 1200/5/3 1197/5/3 1196/5/3
f 1201/5/3 1197/5/3 1200/5/3
f 1202/5/3 1192/5/3 1190/5/3
f 1203/5/3 1192/5/3 1202/5/3
f 1206/2/3 1205/2/3 1204/2/3
f 1207/2/3 1205/2/3 1206/2/3
f 1210/5/3 1209/5/3 1208/5/3
f 1211/5/3 1209/5/3 1210/5/3
f 1214/5/3 1213/5/3 1212/5/3
f 1219/5/3 1214/5/3 1212/5/3
f 1220/5/3 1214/5/3 1219/5/3
f 1221/5/3 1216/5/3 1215/5/3
f 1222/5/3 1216/5/3 1221/5/3
f 1223/5/3 1218/5/3 1217/5/3
f 1224/5/3 1218/5/3 1223/5/3
f 1227/2/3 1226/2/3 1225/2/3
f 1228/2/3 1226/2/3 1227/2/3
f 1231/5/3 1230/5/3 1229/5/3
f 1232/5/3 1230/5/3 1231/5/3
f 1236/5/3 1234/5/3 1233/5/3
f 1239/5/3 1236/5/3 1235/5/3
f 1240/5/3 1234/5/3 1236/5/3
f 1240/5/3 1236/5/3 1239/5/3
f 1241/5/3 1234/5/3 1240/5/3
f 1243/5/3 1238/5/3 1237/5/3
f 1244/5/3 1243/5/3 1242/5/3
f 1245/5/3 1238/5/3 1243/5/3
f 1245/5/3 1243/5/3 1244/5/3
f 1246/5/3 1238/5/3 1245/5/3
f 1247/5/3 1238/5/3 1246/5/3
f 1250/3/3 1249/3/3 1248/3/3
f 1251/3/3 1249/3/3 1250/3/3
f 1254/2/3 1253/2/3 1252/2/3
f 1255/2/3 1253/2/3 1254/2/3
f 1258/2/3 1257/2/3 1256/2/3
f 1259/2/3 1257/2/3 1258/2/3
f 1262/5/3 1261/5/3 1260/5/3
f 1263/5/3 1261/5/3 1262/5/3
f 1266/5/3 1265/5/3 1264/5/3
f 1267/5/3 1265/5/3 1266/5/3
f 1270/5/3 1269/5/3 1268/5/3
f 1271/5/3 1269/5/3 1270/5/3
f 1274/5/3 1273/5/3 1272/5/3
f 1275/5/3 1273/5/3 1274/5/3
f 1278/5/3 1277/5/3 1276/5/3
f 1279/5/3 1277/5/3 1278/5/3
f 1284/5/3 1281/5/3 1280/5/3
f 1285/5/3 1281/5/3 1284/5/3
f 1286/5/3 1283/5/3 1282/5/3
f 1287/5/3 1283/5/3 1286/5/3
f 1290/2/3 1289/2/3 1288/2/3
f 1291/2/3 1289/2/3 1290/2/3
f 1298/5/3 1293/5/3 1292/5/3
f 1299/5/3 1293/5/3 1298/5/3
f 1300/5/3 1295/5/3 1294/5/3
f 1301/5/3 1295/5/3 1300/5/3
f 1302/5/3 1297/5/3 1296/5/3
f 1303/5/3 1297/5/3 1302/5/3
f 1306/2/3 1305/2/3 1304/2/3
f 1307/2/3 1305/2/3 1306/2/3
f 1309/2/3 1308/2/3 1307/2/3
f 1310/2/3 1308/2/3 1309/2/3
f 1315/5/3 1312/5/3 1311/5/3
f 1316/5/3 1312/5/3 1315/5/3
f 1318/5/3 1314/5/3 1313/5/3
f 1319/5/3 1314/5/3 1318/5/3
f 1322/5/3 1318/5/3 1317/5/3
f 1322/5/3 1319/5/3 1318/5/3
f 1323/5/3 1319/5/3 1322/5/3
f 1324/5/3 1321/5/3 1320/5/3
f 1325/5/3 1321/5/3 1324/5/3
f 1326/5/3 1319/5/3 1323/5/3
f 1327/5/3 1319/5/3 1326/5/3
f 1330/3/3 1329/3/3 1328/3/3
f 1331/3/3 1329/3/3 1330/3/3
f 1334/3/3 1333/3/3 1332/3/3
f 1335/3/3 1333/3/3 1334/3/3
f 1336/3/3 1333/3/3 1335/3/3
f 1339/5/3 1338/5/3 1337/5/3
f 1340/5/3 1338/5/3 1339/5/3
f 1343/2/3 1342/2/3 1341/2/3
f 1344/2/3 1342/2/3 1343/2/3
f 1345/5/3 1344/5/3 1343/5/3
f 1346/5/3 1344/5/3 1345/5/3
f 1348/5/3 1347/5/3 1346/5/3
f 1349/5/3 1347/5/3 1348/5/3
f 1351/5/3 1350/5/3 1349/5/3
f 1352/5/3 1350/5/3 1351/5/3
f 1355/5/3 1354/5/3 1353/5/3
f 1356/5/3 1354/5/3 1355/5/3
f 1359/1/3 1358/1/3 1357/1/3
f 1360/1/3 1358/1/3 1359/1/3
f 1363/5/3 1362/5/3 1361/5/3
f 1364/5/3 1362/5/3 1363/5/3
f 1365/5/3 1362/5/3 1364/5/3
f 1368/5/3 1367/5/3 1366/5/3
f 1369/5/3 1367/5/3 1368/5/3
f 1372/3/3 1371/3/3 1370/3/3
f 1373/3/3 1371/3/3 1372/3/3
f 1374/3/4 1375/3/4 1376/3/4
f 1376/3/4 1375/3/4 1377/3/4
f 1378/4/4 1379/4/4 1380/4/4
f 1380/4/4 1379/4/4 1381/4/4
f 1382/1/4 1383/1/4 1384/1/4
f 1384/1/4 1383/1/4 1385/1/4
f 1386/5/4 1387/5/4 1388/5/4
f 1388/5/4 1387/5/4 1389/5/4
f 1390/2/4 1391/2/4 1392/2/4
f 1392/2/4 1391/2/4 1393/2/4
f 1394/2/4 1395/2/4 1396/2/4
f 1396/2/4 1395/2/4 1397/2/4
f 1398/5/4 1399/5/4 1400/5/4
f 1400/5/4 1399/5/4 1401/5/4
f 1401/5/4 1402/5/4 1403/5/4
f 1403/5/4 1402/5/4 1404/5/4
f 1405/5/4 1406/5/4 1407/5/4
f 1407/5/4 1406/5/4 1408/5/4
f 1409/3/4 1410/3/4 1411/3/4
f 1411/3/4 1410/3/4 1412/3/4
f 1412/2/4 1413/2/4 1414/2/4
f 1414/2/4 1413/2/4 1415/2/4
f 1416/5/4 1417/5/4 1418/5/4
f 1418/5/4 1417/5/4 1419/5/4
f 1420/5/4 1421/5/4 1423/5/4
f 1423/5/4 1421/5/4 1424/5/4
f 1422/5/4 1423/5/4 1425/5/4
f 1425/5/4 1423/5/4 1426/5/4
f 1427/3/4 1428/3/4 1429/3/4
f 1429/3/4 1428/3/4 1430/3/4
f 1430/3/4 1428/3/4 1431/3/4
f 1432/2/4 1433/2/4 1434/2/4
f 1432/2/4 1434/2/4 1436/2/4
f 1434/2/4 1435/2/4 1436/2/4
f 1436/2/4 1435/2/4 1437/2/4
f 1438/5/4 1439/5/4 1440/5/4
f 1440/5/4 1439/5/4 1441/5/4
f 1442/5/4 1443/5/4 1444/5/4
f 1444/5/4 1443/5/4 1445/5/4
f 1446/5/4 1447/5/4 1448/5/4
f 1448/5/4 1447/5/4 1449/5/4
f 1450/3/4 1451/3/4 1452/3/4
f 1452/3/4 1451/3/4 1453/3/4
f 1454/2/4 1455/2/4 1456/2/4
f 1456/2/4 1455/2/4 1457/2/4
f 1458/5/4 1459/5/4 1460/5/4
f 1460/5/4 1459/5/4 1461/5/4
f 1462/5/4 1463/5/4 1464/5/4
f 1464/5/4 1463/5/4 1465/5/4
f 1466/5/4 1467/5/4 1468/5/4
f 1468/5/4 1467/5/4 1469/5/4
f 1470/3/4 1471/3/4 1472/3/4
f 1472/3/4 1471/3/4 1473/3/4
f 1474/2/4 1475/2/4 1476/2/4
f 1476/2/4 1475/2/4 1477/2/4
f 1478/2/4 1479/2/4 1480/2/4
f 1480/2/4 1479/2/4 1481/2/4
f 1478/2/4 1480/2/4 1482/2/4
f 1482/2/4 1480/2/4 1483/2/4
f 1484/5/4 1485/5/4 1486/5/4
f 1486/5/4 1485/5/4 1487/5/4
f 1488/5/4 1489/5/4 1490/5/4
f 1490/5/4 1489/5/4 1491/5/4
f 1492/5/4 1493/5/4 1494/5/4
f 1494/5/4 1493/5/4 1495/5/4
f 1496/2/4 1497/2/4 1499/2/4
f 1499/2/4 1497/2/4 1500/2/4
f 1498/2/4 1499/2/4 1501/2/4
f 1501/2/4 1499/2/4 1502/2/4
f 1502/2/4 1503/2/4 1504/2/4
f 1504/2/4 1503/2/4 1505/2/4
f 1506/5/4 1507/5/4 1508/5/4
f 1508/5/4 1507/5/4 1509/5/4
f 1510/5/4 1511/5/4 1512/5/4
f 1512/5/4 1511/5/4 1513/5/4
f 1513/5/4 1514/5/4 1515/5/4
f 1515/5/4 1514/5/4 1516/5/4
f 1517/5/4 1518/5/4 1523/5/4
f 1523/5/4 1518/5/4 1524/5/4
f 1519/5/4 1520/5/4 1525/5/4
f 1525/5/4 1520/5/4 1526/5/4
f 1521/5/4 1522/5/4 1527/5/4
f 1527/5/4 1522/5/4 1528/5/4
f 1523/2/4 1524/2/4 1529/2/4
f 1529/2/4 1524/2/4 1530/2/4
f 1531/5/4 1532/5/4 1533/5/4
f 1533/5/4 1532/5/4 1534/5/4
f 1534/5/4 1535/5/4 1536/5/4
f 1536/5/4 1535/5/4 1537/5/4
f 1537/5/4 1538/5/4 1539/5/4
f 1539/5/4 1538/5/4 1540/5/4
f 1541/5/4 1542/5/4 1543/5/4
f 1543/5/4 1542/5/4 1544/5/4
f 1545/5/4 1546/5/4 1547/5/4
f 1547/5/4 1546/5/4 1548/5/4
f 1549/3/4 1550/3/4 1551/3/4
f 1551/3/4 1550/3/4 1552/3/4
f 1553/2/4 1554/2/4 1555/2/4
f 1555/2/4 1554/2/4 1556/2/4
f 1557/2/4 1558/2/4 1559/2/4
f 1559/2/4 1558/2/4 1560/2/4
f 1559/5/4 1560/5/4 1561/5/4
f 1561/5/4 1560/5/4 1562/5/4
f 1563/5/4 1564/5/4 1565/5/4
f 1565/5/4 1564/5/4 1566/5/4
f 1566/5/4 1567/5/4 1572/5/4
f 1572/5/4 1567/5/4 1573/5/4
f 1568/5/4 1569/5/4 1575/5/4
f 1575/5/4 1569/5/4 1576/5/4
f 1570/5/4 1571/5/4 1578/5/4
f 1578/5/4 1571/5/4 1579/5/4
f 1573/5/4 1574/5/4 1580/5/4
f 1580/5/4 1574/5/4 1581/5/4
f 1581/5/4 1582/5/4 1583/5/4
f 1583/5/4 1582/5/4 1584/5/4
f 1577/5/4 1578/5/4 1587/5/4
f 1587/5/4 1578/5/4 1588/5/4
f 1585/5/4 1586/5/4 1591/5/4
f 1591/5/4 1586/5/4 1592/5/4
f 1589/5/4 1590/5/4 1593/5/4
f 1593/5/4 1590/5/4 1594/5/4
f 1594/5/4 1595/5/4 1596/5/4
f 1596/5/4 1595/5/4 1597/5/4
f 1598/2/4 1599/2/4 1602/2/4
f 1600/2/4 1601/2/4 1603/2/4
f 1603/2/4 1601/2/4 1604/2/4
f 1598/2/4 1602/2/4 1605/2/4
f 1602/2/4 1603/2/4 1605/2/4
f 1605/2/4 1603/2/4 1606/2/4
f 1607/5/4 1608/5/4 1612/5/4
f 1611/5/4 1612/5/4 1615/5/4
f 1612/5/4 1608/5/4 1616/5/4
f 1615/5/4 1612/5/4 1616/5/4
f 1616/5/4 1608/5/4 1617/5/4
f 1613/5/4 1614/5/4 1618/5/4
f 1618/5/4 1614/5/4 1619/5/4
f 1609/5/4 1610/5/4 1620/5/4
f 1620/5/4 1610/5/4 1621/5/4
f 1617/5/4 1618/5/4 1625/5/4
f 1621/5/4 1622/5/4 1626/5/4
f 1620/5/4 1621/5/4 1626/5/4
f 1619/5/4 1620/5/4 1626/5/4
f 1626/5/4 1622/5/4 1627/5/4
f 1625/5/4 1618/5/4 1628/5/4
f 1628/5/4 1618/5/4 1629/5/4
f 1619/5/4 1626/5/4 1630/5/4
f 1630/5/4 1626/5/4 1631/5/4
f 1623/5/4 1624/5/4 1634/5/4
f 1634/5/4 1624/5/4 1635/5/4
f 1629/5/4 1630/5/4 1637/5/4
f 1637/5/4 1630/5/4 1638/5/4
f 1632/5/4 1633/5/4 1639/5/4
f 1639/5/4 1633/5/4 1640/5/4
f 1635/5/4 1636/5/4 1641/5/4
f 1641/5/4 1636/5/4 1642/5/4
f 1643/5/4 1644/5/4 1647/5/4
f 1647/5/4 1644/5/4 1648/5/4
f 1645/5/4 1646/5/4 1649/5/4
f 1649/5/4 1646/5/4 1650/5/4
f 1651/3/4 1652/3/4 1653/3/4
f 1653/3/4 1652/3/4 1654/3/4
f 1655/3/4 1656/3/4 1657/3/4
f 1657/3/4 1656/3/4 1658/3/4
f 1659/2/4 1660/2/4 1662/2/4
f 1662/2/4 1660/2/4 1663/2/4
f 1661/2/4 1662/2/4 1666/2/4
f 1666/2/4 1662/2/4 1667/2/4
f 1664/2/4 1665/2/4 1668/2/4
f 1668/2/4 1665/2/4 1669/2/4
f 1666/5/4 1667/5/4 1671/5/4
f 1667/5/4 1668/5/4 1671/5/4
f 1671/5/4 1668/5/4 1672/5/4
f 1672/5/4 1668/5/4 1673/5/4
f 1673/5/4 1668/5/4 1674/5/4
f 1670/5/4 1671/5/4 1675/5/4
f 1672/5/4 1673/5/4 1676/5/4
f 1676/5/4 1673/5/4 1677/5/4
f 1676/5/4 1677/5/4 1682/5/4
f 1677/5/4 1678/5/4 1682/5/4
f 1670/5/4 1675/5/4 1682/5/4
f 1675/5/4 1676/5/4 1682/5/4
f 1682/5/4 1678/5/4 1683/5/4
f 1683/5/4 1678/5/4 1684/5/4
f 1670/5/4 1682/5/4 1686/5/4
f 1686/5/4 1682/5/4 1687/5/4
f 1683/5/4 1684/5/4 1688/5/4
f 1688/5/4 1684/5/4 1689/5/4
f 1680/5/4 1681/5/4 1691/5/4
f 1679/5/4 1680/5/4 1691/5/4
f 1691/5/4 1681/5/4 1692/5/4
f 1692/5/4 1681/5/4 1693/5/4
f 1687/5/4 1688/5/4 1694/5/4
f 1686/5/4 1687/5/4 1694/5/4
f 1685/5/4 1686/5/4 1694/5/4
f 1694/5/4 1688/5/4 1695/5/4
f 1689/5/4 1690/5/4 1696/5/4
f 1691/5/4 1692/5/4 1696/5/4
f 1690/5/4 1691/5/4 1696/5/4
f 1696/5/4 1692/5/4 1697/5/4
f 1697/5/4 1692/5/4 1698/5/4
f 1685/5/4 1694/5/4 1699/5/4
f 1699/5/4 1694/5/4 1700/5/4
f 1698/5/4 1692/5/4 1702/5/4
f 1702/5/4 1692/5/4 1703/5/4
f 1700/5/4 1701/5/4 1706/5/4
f 1706/5/4 1701/5/4 1707/5/4
f 1704/5/4 1705/5/4 1713/5/4
f 1708/5/4 1709/5/4 1714/5/4
f 1714/5/4 1709/5/4 1715/5/4
f 1710/5/4 1711/5/4 1717/5/4
f 1717/5/4 1711/5/4 1718/5/4
f 1712/5/4 1713/5/4 1719/5/4
f 1713/5/4 1705/5/4 1720/5/4
f 1719/5/4 1713/5/4 1720/5/4
f 1716/5/4 1717/5/4 1724/5/4
f 1724/5/4 1717/5/4 1725/5/4
f 1718/5/4 1711/5/4 1726/5/4
f 1721/5/4 1722/5/4 1728/5/4
f 1728/5/4 1722/5/4 1729/5/4
f 1723/5/4 1724/5/4 1730/5/4
f 1726/5/4 1727/5/4 1732/5/4
f 1718/5/4 1726/5/4 1732/5/4
f 1732/5/4 1727/5/4 1733/5/4
f 1723/5/4 1730/5/4 1734/5/4
f 1734/5/4 1730/5/4 1735/5/4
f 1731/5/4 1732/5/4 1736/5/4
f 1736/5/4 1732/5/4 1737/5/4
f 1738/4/4 1739/4/4 1740/4/4
f 1740/4/4 1739/4/4 1741/4/4
f 1744/2/4 1745/2/4 1747/2/4
f 1745/3/4 1746/3/4 1747/3/4
f 1747/3/4 1746/3/4 1748/3/4
f 1744/2/4 1747/2/4 1749/2/4
f 1749/2/4 1747/2/4 1750/2/4
f 1742/2/4 1743/2/4 1751/2/4
f 1753/5/4 1754/5/4 1760/5/4
f 1754/5/4 1755/5/4 1760/5/4
f 1755/5/4 1756/5/4 1760/5/4
f 1760/5/4 1756/5/4 1761/5/4
f 1761/5/4 1756/5/4 1762/5/4
f 1757/5/4 1758/5/4 1765/5/4
f 1765/5/4 1758/5/4 1766/5/4
f 1759/2/4 1760/2/4 1767/2/4
f 1760/5/4 1761/5/4 1768/5/4
f 1767/2/4 1760/2/4 1768/2/4
f 1768/5/4 1761/5/4 1769/5/4
f 1769/5/4 1761/5/4 1770/5/4
f 1770/5/4 1761/5/4 1771/5/4
f 1768/5/4 1769/5/4 1774/5/4
f 1774/5/4 1769/5/4 1775/5/4
f 1751/2/4 1752/2/4 1777/2/4
f 1763/5/4 1764/5/4 1778/5/4
f 1778/5/4 1764/5/4 1779/5/4
f 1772/5/4 1773/5/4 1780/5/4
f 1780/5/4 1773/5/4 1781/5/4
f 1774/2/4 1775/2/4 1782/2/4
f 1775/5/4 1776/5/4 1783/5/4
f 1782/2/4 1775/2/4 1783/2/4
f 1783/5/4 1776/5/4 1784/5/4
f 1751/2/4 1777/2/4 1787/2/4
f 1777/2/4 1778/2/4 1787/2/4
f 1787/2/4 1778/2/4 1788/2/4
f 1785/2/4 1786/2/4 1789/2/4
f 1789/2/4 1786/2/4 1790/2/4
f 1742/2/4 1751/2/4 1791/2/4
f 1751/2/4 1787/2/4 1791/2/4
f 1791/2/4 1787/2/4 1792/2/4
f 1742/2/4 1791/2/4 1795/2/4
f 1795/2/4 1791/2/4 1796/2/4
f 1792/2/4 1787/2/4 1797/2/4
f 1792/2/4 1797/2/4 1804/2/4
f 1797/2/4 1798/2/4 1804/2/4
f 1793/5/4 1794/5/4 1806/5/4
f 1806/5/4 1794/5/4 1807/5/4
f 1799/2/4 1800/2/4 1808/2/4
f 1808/2/4 1800/2/4 1809/2/4
f 1801/5/4 1802/5/4 1811/5/4
f 1805/5/4 1806/5/4 1812/5/4
f 1810/5/4 1811/5/4 1814/5/4
f 1811/5/4 1802/5/4 1815/5/4
f 1814/5/4 1811/5/4 1815/5/4
f 1803/2/4 1804/2/4 1816/2/4
f 1804/2/4 1798/2/4 1816/2/4
f 1812/5/4 1813/5/4 1817/5/4
f 1805/5/4 1812/5/4 1817/5/4
f 1817/5/4 1813/5/4 1818/5/4
f 1803/2/4 1816/2/4 1819/2/4
f 1816/5/4 1817/5/4 1819/5/4
f 1819/5/4 1817/5/4 1820/5/4
f 1818/5/4 1813/5/4 1821/5/4
f 1821/5/4 1813/5/4 1822/5/4
f 1819/2/4 1820/2/4 1823/2/4
f 1803/2/4 1819/2/4 1823/2/4
f 1823/2/4 1820/2/4 1824/2/4
f 1825/3/4 1826/3/4 1829/3/4
f 1827/1/4 1828/1/4 1830/1/4
f 1830/1/4 1828/1/4 1831/1/4
f 1825/3/4 1829/3/4 1832/3/4
f 1829/3/4 1830/3/4 1832/3/4
f 1832/3/4 1830/3/4 1833/3/4
f 1834/3/4 1835/3/4 1836/3/4
f 1836/3/4 1835/3/4 1837/3/4
f 1833/3/4 1830/3/4 1838/3/4
f 1838/3/4 1830/3/4 1839/3/4
f 1833/3/4 1838/3/4 1840/3/4
f 1840/3/4 1838/3/4 1841/3/4
f 1842/3/4 1843/3/4 1844/3/4
f 1844/3/4 1843/3/4 1845/3/4
f 1833/3/4 1840/3/4 1846/3/4
f 1846/3/4 1840/3/4 1847/3/4
f 1848/3/4 1849/3/4 1850/3/4
f 1850/3/4 1849/3/4 1851/3/4
f 1851/3/4 1849/3/4 1852/3/4
f 1852/3/4 1849/3/4 1853/3/4
f 1853/3/4 1854/3/4 1855/3/4
f 1855/3/4 1854/3/4 1856/3/4
f 1851/3/4 1852/3/4 1857/3/4
f 1857/3/4 1852/3/4 1858/3/4
f 1858/4/4 1859/4/4 1860/4/4
f 1860/4/4 1859/4/4 1861/4/4
f 1864/2/5 1863/2/5 1862/2/5
f 1865/2/5 1863/2/5 1864/2/5
f 1866/2/5 1864/2/5 1862/2/5
f 1866/5/5 1865/5/5 1864/5/5
f 1867/5/5 1865/5/5 1866/5/5
f 1868/5/5 1865/5/5 1867/5/5
f 1869/2/5 1863/2/5 1865/2/5
f 1869/5/5 1865/5/5 1868/5/5
f 1870/2/5 1866/2/5 1862/2/5
f 1870/2/5 1867/2/5 1866/2/5
f 1871/2/5 1867/2/5 1870/2/5
f 1872/2/5 1869/2/5 1868/2/5
f 1873/2/5 1863/2/5 1869/2/5
f 1873/2/5 1869/2/5 1872/2/5
f 1876/3/5 1875/3/5 1874/3/5
f 1877/3/5 1875/3/5 1876/3/5
f 1880/3/5 1876/3/5 1874/3/5
f 1882/2/5 1879/2/5 1878/2/5
f 1883/2/5 1879/2/5 1882/2/5
f 1884/3/5 1881/3/5 1880/3/5
f 1884/3/5 1880/3/5 1874/3/5
f 1885/3/5 1881/3/5 1884/3/5
f 1888/3/5 1887/3/5 1886/3/5
f 1889/3/5 1887/3/5 1888/3/5
f 1894/3/5 1891/3/5 1890/3/5
f 1895/3/5 1891/3/5 1894/3/5
f 1896/3/5 1893/3/5 1892/3/5
f 1897/3/5 1893/3/5 1896/3/5
f 1901/3/5 1899/3/5 1898/3/5
f 1902/4/5 1900/4/5 1899/4/5
f 1902/3/5 1899/3/5 1901/3/5
f 1903/4/5 1900/4/5 1902/4/5
f 1904/4/5 1900/4/5 1903/4/5
f 1905/4/5 1900/4/5 1904/4/5
f 1908/5/5 1907/5/5 1906/5/5
f 1909/5/5 1907/5/5 1908/5/5
f 1910/3/5 1905/3/5 1904/3/5
f 1911/3/5 1905/3/5 1910/3/5
f 1914/3/5 1913/3/5 1912/3/5
f 1915/3/5 1913/3/5 1914/3/5
f 1919/1/5 1917/1/5 1916/1/5
f 1920/3/5 1918/3/5 1917/3/5
f 1920/1/5 1917/1/5 1919/1/5
f 1921/3/5 1918/3/5 1920/3/5
f 1924/4/5 1923/4/5 1922/4/5
f 1925/4/5 1923/4/5 1924/4/5
f 1929/4/5 1927/4/5 1926/4/5
f 1929/4/5 1928/4/5 1927/4/5
f 1930/4/5 1928/4/5 1929/4/5
f 1934/1/5 1932/1/5 1931/1/5
f 1935/3/5 1933/3/5 1932/3/5
f 1935/1/5 1932/1/5 1934/1/5
f 1936/3/5 1933/3/5 1935/3/5
f 1943/1/5 1938/1/5 1937/1/5
f 1944/5/5 1940/5/5 1939/5/5
f 1945/5/5 1940/5/5 1944/5/5
f 1946/5/5 1942/5/5 1941/5/5
f 1947/5/5 1942/5/5 1946/5/5
f 1950/1/5 1943/1/5 1937/1/5
f 1951/1/5 1943/1/5 1950/1/5
f 1952/3/5 1949/3/5 1948/3/5
f 1953/3/5 1949/3/5 1952/3/5
f 1956/3/5 1955/3/5 1954/3/5
f 1957/3/5 1955/3/5 1956/3/5
f 1961/2/5 1960/2/5 1959/2/5
f 1961/5/5 1959/5/5 1958/5/5
f 1962/2/5 1960/2/5 1961/2/5
f 1964/5/5 1961/5/5 1958/5/5
f 1964/5/5 1963/5/5 1962/5/5
f 1964/5/5 1962/5/5 1961/5/5
f 1965/5/5 1963/5/5 1964/5/5
f 1968/3/5 1967/3/5 1966/3/5
f 1969/3/5 1967/3/5 1968/3/5
f 1970/1/5 1969/1/5 1968/1/5
f 1971/1/5 1969/1/5 1970/1/5
f 1974/5/5 1973/5/5 1972/5/5
f 1975/5/5 1973/5/5 1974/5/5
f 1980/5/5 1977/5/5 1976/5/5
f 1981/5/5 1977/5/5 1980/5/5
f 1982/5/5 1977/5/5 1981/5/5
f 1983/2/5 1979/2/5 1978/2/5
f 1984/2/5 1979/2/5 1983/2/5
f 1985/2/5 1982/2/5 1981/2/5
f 1986/2/5 1982/2/5 1985/2/5
f 1989/3/5 1988/3/5 1987/3/5
f 1990/3/5 1988/3/5 1989/3/5
f 1991/3/5 1988/3/5 1990/3/5
f 1992/3/5 1988/3/5 1991/3/5
f 1996/5/5 1993/5/5 1992/5/5
f 1996/5/5 1992/5/5 1991/5/5
f 1997/5/5 1993/5/5 1996/5/5
f 1998/5/5 1993/5/5 1997/5/5
f 1999/5/5 1998/5/5 1997/5/5
f 2000/5/5 1998/5/5 1999/5/5
f 2003/3/5 1995/3/5 1994/3/5
f 2004/3/5 1995/3/5 2003/3/5
f 2005/5/5 2002/5/5 2001/5/5
f 2006/5/5 2002/5/5 2005/5/5
f 2008/5/5 2007/5/5 2006/5/5
f 2009/5/5 2007/5/5 2008/5/5
f 2012/2/5 2011/2/5 2010/2/5
f 2013/2/5 2011/2/5 2012/2/5
f 2018/2/5 2015/2/5 2014/2/5
f 2019/2/5 2015/2/5 2018/2/5
f 2022/5/5 2017/5/5 2016/5/5
f 2023/5/5 2017/5/5 2022/5/5
f 2024/2/5 2020/2/5 2019/2/5
f 2025/2/5 2020/2/5 2024/2/5
f 2029/5/5 2022/5/5 2021/5/5
f 2030/5/5 2022/5/5 2029/5/5
f 2031/5/5 2022/5/5 2030/5/5
f 2032/5/5 2026/5/5 2025/5/5
f 2033/5/5 2026/5/5 2032/5/5
f 2034/5/5 2028/5/5 2027/5/5
f 2035/2/5 2029/2/5 2028/2/5
f 2035/5/5 2028/5/5 2034/5/5
f 2036/2/5 2029/2/5 2035/2/5
f 2037/2/5 2031/2/5 2030/2/5
f 2038/2/5 2031/2/5 2037/2/5
f 2044/5/5 2040/5/5 2039/5/5
f 2045/5/5 2042/5/5 2041/5/5
f 2046/5/5 2042/5/5 2045/5/5
f 2047/5/5 2044/5/5 2043/5/5
f 2048/5/5 2040/5/5 2044/5/5
f 2048/5/5 2044/5/5 2047/5/5
f 2049/5/5 2040/5/5 2048/5/5
f 2051/5/5 2050/5/5 2049/5/5
f 2051/5/5 2049/5/5 2048/5/5
f 2052/5/5 2050/5/5 2051/5/5
f 2053/5/5 2050/5/5 2052/5/5
f 2056/5/5 2055/5/5 2054/5/5
f 2060/5/5 2057/5/5 2056/5/5
f 2062/2/5 2059/2/5 2058/2/5
f 2063/2/5 2059/2/5 2062/2/5
f 2064/5/5 2056/5/5 2054/5/5
f 2064/5/5 2061/5/5 2060/5/5
f 2064/5/5 2060/5/5 2056/5/5
f 2065/5/5 2061/5/5 2064/5/5
f 2066/5/5 2061/5/5 2065/5/5
f 2067/5/5 2061/5/5 2066/5/5
f 2069/5/5 2066/5/5 2065/5/5
f 2070/5/5 2069/5/5 2068/5/5
f 2071/5/5 2069/5/5 2070/5/5
f 2072/5/5 2069/5/5 2071/5/5
f 2073/5/5 2066/5/5 2069/5/5
f 2073/5/5 2069/5/5 2072/5/5
f 2076/3/5 2075/3/5 2074/3/5
f 2077/3/5 2075/3/5 2076/3/5
f 2082/2/5 2079/2/5 2078/2/5
f 2083/2/5 2079/2/5 2082/2/5
f 2084/5/5 2081/5/5 2080/5/5
f 2085/5/5 2081/5/5 2084/5/5
f 2089/5/5 2087/5/5 2086/5/5
f 2090/5/5 2087/5/5 2089/5/5
f 2092/5/5 2089/5/5 2088/5/5
f 2093/5/5 2089/5/5 2092/5/5
f 2094/5/5 2091/5/5 2090/5/5
f 2095/5/5 2091/5/5 2094/5/5
f 2099/5/5 2096/5/5 2095/5/5
f 2100/5/5 2096/5/5 2099/5/5
f 2101/3/5 2098/3/5 2097/3/5
f 2102/3/5 2098/3/5 2101/3/5
f 2105/5/5 2104/5/5 2103/5/5
f 2106/5/5 2104/5/5 2105/5/5
f 2107/5/5 2104/5/5 2106/5/5
f 2109/5/5 2108/5/5 2107/5/5
f 2109/5/5 2107/5/5 2106/5/5
f 2110/5/5 2108/5/5 2109/5/5
f 2113/5/5 2112/5/5 2111/5/5
f 2114/5/5 2112/5/5 2113/5/5
f 2119/5/5 2116/5/5 2115/5/5
f 2120/5/5 2116/5/5 2119/5/5
f 2122/5/5 2118/5/5 2117/5/5
f 2123/5/5 2118/5/5 2122/5/5
f 2124/5/5 2121/5/5 2120/5/5
f 2125/5/5 2121/5/5 2124/5/5
f 2128/5/5 2127/5/5 2126/5/5
f 2129/5/5 2127/5/5 2128/5/5
f 2131/5/5 2130/5/5 2129/5/5
f 2133/5/5 2131/5/5 2129/5/5
f 2133/5/5 2132/5/5 2131/5/5
f 2134/5/5 2132/5/5 2133/5/5
f 2138/5/5 2136/5/5 2135/5/5
f 2139/5/5 2136/5/5 2138/5/5
f 2140/5/5 2138/5/5 2137/5/5
f 2141/5/5 2138/5/5 2140/5/5
f 2144/5/5 2143/5/5 2142/5/5
f 2145/5/5 2143/5/5 2144/5/5
f 2148/5/5 2147/5/5 2146/5/5
f 2149/5/5 2147/5/5 2148/5/5
f 2152/5/5 2151/5/5 2150/5/5
f 2153/5/5 2151/5/5 2152/5/5
f 2156/5/5 2155/5/5 2154/5/5
f 2157/5/5 2155/5/5 2156/5/5
f 2160/5/5 2159/5/5 2158/5/5
f 2161/5/5 2159/5/5 2160/5/5
f 2162/2/6 2163/2/6 2164/2/6
f 2164/2/6 2163/2/6 2165/2/6
f 2166/5/6 2167/5/6 2168/5/6
f 2168/5/6 2167/5/6 2169/5/6
f 2170/3/6 2171/3/6 2174/3/6
f 2174/3/6 2171/3/6 2175/3/6
f 2175/3/6 2171/3/6 2176/3/6
f 2172/3/6 2173/3/6 2177/3/6
f 2177/3/6 2173/3/6 2178/3/6
f 2178/3/6 2173/3/6 2179/3/6
f 2180/2/6 2181/2/6 2183/2/6
f 2183/2/6 2181/2/6 2184/2/6
f 2182/3/6 2183/3/6 2185/3/6
f 2185/3/6 2183/3/6 2186/3/6
f 2187/3/6 2188/3/6 2193/3/6
f 2193/3/6 2188/3/6 2194/3/6
f 2189/3/6 2190/3/6 2196/3/6
f 2196/3/6 2190/3/6 2197/3/6
f 2197/3/6 2190/3/6 2198/3/6
f 2198/3/6 2190/3/6 2199/3/6
f 2191/4/6 2192/4/6 2200/4/6
f 2200/4/6 2192/4/6 2201/4/6
f 2195/5/6 2196/5/6 2202/5/6
f 2202/5/6 2196/5/6 2203/5/6
f 2197/5/6 2198/5/6 2204/5/6
f 2204/5/6 2198/5/6 2205/5/6
f 2206/3/6 2207/3/6 2208/3/6
f 2208/3/6 2207/3/6 2209/3/6
f 2210/3/6 2211/3/6 2214/3/6
f 2212/5/6 2213/5/6 2215/5/6
f 2215/5/6 2213/5/6 2216/5/6
f 2216/5/6 2213/5/6 2217/5/6
f 2210/3/6 2214/3/6 2220/3/6
f 2220/3/6 2214/3/6 2221/3/6
f 2215/3/6 2216/3/6 2222/3/6
f 2222/3/6 2216/3/6 2223/3/6
f 2218/3/6 2219/3/6 2224/3/6
f 2224/3/6 2219/3/6 2225/3/6
f 2226/3/6 2227/3/6 2233/3/6
f 2233/3/6 2227/3/6 2234/3/6
f 2228/4/6 2229/4/6 2236/4/6
f 2236/4/6 2229/4/6 2237/4/6
f 2230/5/6 2231/5/6 2240/5/6
f 2240/5/6 2231/5/6 2241/5/6
f 2233/5/6 2234/5/6 2242/5/6
f 2232/5/6 2233/5/6 2242/5/6
f 2242/5/6 2234/5/6 2243/5/6
f 2243/5/6 2234/5/6 2244/5/6
f 2235/5/6 2236/5/6 2245/5/6
f 2245/5/6 2236/5/6 2246/5/6
f 2240/5/6 2241/5/6 2247/5/6
f 2239/5/6 2240/5/6 2247/5/6
f 2241/5/6 2242/5/6 2247/5/6
f 2242/5/6 2243/5/6 2247/5/6
f 2247/5/6 2243/5/6 2248/5/6
f 2248/5/6 2243/5/6 2249/5/6
f 2244/5/6 2234/5/6 2250/5/6
f 2250/5/6 2234/5/6 2251/5/6
f 2237/4/6 2238/4/6 2252/4/6
f 2252/4/6 2238/4/6 2253/4/6
f 2249/5/6 2250/5/6 2254/5/6
f 2248/5/6 2249/5/6 2254/5/6
f 2254/5/6 2250/5/6 2255/5/6
f 2252/3/6 2253/3/6 2258/3/6
f 2258/3/6 2253/3/6 2259/3/6
f 2256/3/6 2257/3/6 2260/3/6
f 2260/3/6 2257/3/6 2261/3/6
f 2262/5/6 2263/5/6 2265/5/6
f 2263/2/6 2264/2/6 2266/2/6
f 2265/5/6 2263/5/6 2266/5/6
f 2266/2/6 2264/2/6 2267/2/6
f 2266/2/6 2267/2/6 2274/2/6
f 2267/3/6 2268/3/6 2275/3/6
f 2274/2/6 2267/2/6 2275/2/6
f 2275/3/6 2268/3/6 2276/3/6
f 2269/3/6 2270/3/6 2277/3/6
f 2277/3/6 2270/3/6 2278/3/6
f 2271/5/6 2272/5/6 2282/5/6
f 2282/5/6 2272/5/6 2283/5/6
f 2273/5/6 2274/5/6 2285/5/6
f 2274/2/6 2275/2/6 2286/2/6
f 2285/5/6 2274/5/6 2286/5/6
f 2275/4/6 2276/4/6 2287/4/6
f 2286/2/6 2275/2/6 2287/2/6
f 2287/4/6 2276/4/6 2288/4/6
f 2279/2/6 2280/2/6 2290/2/6
f 2280/5/6 2281/5/6 2291/5/6
f 2290/2/6 2280/2/6 2291/2/6
f 2291/5/6 2281/5/6 2292/5/6
f 2283/5/6 2284/5/6 2293/5/6
f 2293/5/6 2284/5/6 2294/5/6
f 2286/2/6 2287/2/6 2297/2/6
f 2297/2/6 2287/2/6 2298/2/6
f 2291/3/6 2292/3/6 2299/3/6
f 2289/3/6 2290/3/6 2299/3/6
f 2290/3/6 2291/3/6 2299/3/6
f 2299/3/6 2292/3/6 2300/3/6
f 2294/3/6 2295/3/6 2301/3/6
f 2293/3/6 2294/3/6 2301/3/6
f 2301/3/6 2295/3/6 2302/3/6
f 2297/4/6 2298/4/6 2303/4/6
f 2296/4/6 2297/4/6 2303/4/6
f 2303/4/6 2298/4/6 2304/4/6
f 2305/3/6 2306/3/6 2308/3/6
f 2306/4/6 2307/4/6 2309/4/6
f 2308/3/6 2306/3/6 2309/3/6
f 2309/4/6 2307/4/6 2310/4/6
f 2310/4/6 2307/4/6 2311/4/6
f 2308/5/6 2309/5/6 2315/5/6
f 2309/5/6 2310/5/6 2315/5/6
f 2311/2/6 2312/2/6 2316/2/6
f 2313/5/6 2314/5/6 2317/5/6
f 2317/5/6 2314/5/6 2318/5/6
f 2315/5/6 2316/5/6 2319/5/6
f 2308/5/6 2315/5/6 2319/5/6
f 2318/5/6 2319/5/6 2321/5/6
f 2320/5/6 2321/5/6 2322/5/6
f 2319/5/6 2316/5/6 2323/5/6
f 2322/5/6 2321/5/6 2323/5/6
f 2316/2/6 2312/2/6 2323/2/6
f 2321/5/6 2319/5/6 2323/5/6
f 2323/2/6 2312/2/6 2325/2/6
f 2324/5/6 2325/5/6 2331/5/6
f 2325/2/6 2312/2/6 2332/2/6
f 2331/5/6 2325/5/6 2332/5/6
f 2332/2/6 2312/2/6 2333/2/6
f 2329/2/6 2330/2/6 2334/2/6
f 2334/2/6 2330/2/6 2335/2/6
f 2326/3/6 2327/3/6 2338/3/6
f 2327/2/6 2328/2/6 2339/2/6
f 2338/3/6 2327/3/6 2339/3/6
f 2339/2/6 2328/2/6 2340/2/6
f 2336/5/6 2337/5/6 2344/5/6
f 2341/5/6 2342/5/6 2349/5/6
f 2349/5/6 2342/5/6 2350/5/6
f 2343/5/6 2344/5/6 2352/5/6
f 2344/5/6 2337/5/6 2352/5/6
f 2352/5/6 2337/5/6 2353/5/6
f 2345/2/6 2346/2/6 2355/2/6
f 2355/2/6 2346/2/6 2356/2/6
f 2347/5/6 2348/5/6 2360/5/6
f 2360/5/6 2348/5/6 2361/5/6
f 2350/5/6 2351/5/6 2362/5/6
f 2349/5/6 2350/5/6 2362/5/6
f 2362/5/6 2351/5/6 2363/5/6
f 2363/5/6 2351/5/6 2364/5/6
f 2343/5/6 2352/5/6 2365/5/6
f 2365/5/6 2352/5/6 2366/5/6
f 2354/2/6 2355/2/6 2368/2/6
f 2368/2/6 2355/2/6 2369/2/6
f 2357/5/6 2358/5/6 2370/5/6
f 2370/5/6 2358/5/6 2371/5/6
f 2359/5/6 2360/5/6 2372/5/6
f 2372/5/6 2360/5/6 2373/5/6
f 2366/5/6 2367/5/6 2374/5/6
f 2363/5/6 2364/5/6 2374/5/6
f 2365/5/6 2366/5/6 2374/5/6
f 2364/5/6 2365/5/6 2374/5/6
f 2374/5/6 2367/5/6 2375/5/6
f 2375/5/6 2367/5/6 2376/5/6
f 2376/5/6 2367/5/6 2377/5/6
f 2375/3/6 2376/3/6 2378/3/6
f 2378/3/6 2376/3/6 2379/3/6
f 2380/1/6 2381/1/6 2383/1/6
f 2383/1/6 2381/1/6 2384/1/6
f 2381/3/6 2382/3/6 2385/3/6
f 2384/1/6 2381/1/6 2385/1/6
f 2385/3/6 2382/3/6 2386/3/6
f 2385/5/6 2386/5/6 2389/5/6
f 2386/5/6 2387/5/6 2389/5/6
f 2389/5/6 2387/5/6 2390/5/6
f 2390/5/6 2387/5/6 2391/5/6
f 2387/2/6 2388/2/6 2392/2/6
f 2391/5/6 2387/5/6 2392/5/6
f 2392/2/6 2388/2/6 2393/2/6
f 2380/1/6 2383/1/6 2395/1/6
f 2383/3/6 2384/3/6 2396/3/6
f 2395/1/6 2383/1/6 2396/1/6
f 2390/5/6 2391/5/6 2397/5/6
f 2397/5/6 2391/5/6 2398/5/6
f 2393/5/6 2394/5/6 2399/5/6
f 2392/5/6 2393/5/6 2399/5/6
f 2399/5/6 2394/5/6 2400/5/6
f 2395/3/6 2396/3/6 2403/3/6
f 2396/3/6 2384/3/6 2404/3/6
f 2403/3/6 2396/3/6 2404/3/6
f 2401/5/6 2402/5/6 2405/5/6
f 2405/5/6 2402/5/6 2406/5/6
f 2406/5/6 2402/5/6 2407/5/6
f 2407/5/6 2402/5/6 2408/5/6
f 2404/3/6 2384/3/6 2409/3/6
f 2404/3/6 2409/3/6 2411/3/6
f 2409/2/6 2410/2/6 2412/2/6
f 2411/3/6 2409/3/6 2412/3/6
f 2412/2/6 2410/2/6 2413/2/6
f 2413/2/6 2414/2/6 2416/2/6
f 2416/2/6 2414/2/6 2417/2/6
f 2415/2/6 2416/2/6 2419/2/6
f 2417/2/6 2418/2/6 2420/2/6
f 2420/2/6 2418/2/6 2421/2/6
f 2415/2/6 2419/2/6 2423/2/6
f 2419/2/6 2420/2/6 2423/2/6
f 2423/2/6 2420/2/6 2424/2/6
f 2406/5/6 2407/5/6 2426/5/6
f 2426/5/6 2407/5/6 2427/5/6
f 2422/3/6 2423/3/6 2428/3/6
f 2428/3/6 2423/3/6 2429/3/6
f 2424/2/6 2425/2/6 2430/2/6
f 2423/2/6 2424/2/6 2430/2/6
f 2430/2/6 2425/2/6 2431/2/6
f 2429/3/6 2423/3/6 2434/3/6
f 2423/2/6 2430/2/6 2434/2/6
f 2434/2/6 2430/2/6 2435/2/6
f 2432/5/6 2433/5/6 2436/5/6
f 2436/5/6 2433/5/6 2437/5/6
f 2428/1/6 2429/1/6 2438/1/6
f 2429/3/6 2434/3/6 2438/3/6
f 2438/3/6 2434/3/6 2439/3/6
f 2428/1/6 2438/1/6 2440/1/6
f 2440/1/6 2438/1/6 2441/1/6
f 2442/5/6 2443/5/6 2444/5/6
f 2442/5/6 2444/5/6 2446/5/6
f 2444/5/6 2445/5/6 2446/5/6
f 2446/5/6 2445/5/6 2447/5/6
f 2448/2/6 2449/2/6 2452/2/6
f 2452/2/6 2449/2/6 2453/2/6
f 2453/2/6 2449/2/6 2455/2/6
f 2455/2/6 2449/2/6 2456/2/6
f 2454/2/6 2455/2/6 2457/2/6
f 2457/2/6 2455/2/6 2458/2/6
f 2456/2/6 2449/2/6 2459/2/6
f 2459/2/6 2449/2/6 2460/2/6
f 2450/5/6 2451/5/6 2461/5/6
f 2461/5/6 2451/5/6 2462/5/6
f 2463/5/6 2464/5/6 2466/5/6
f 2466/5/6 2464/5/6 2467/5/6
f 2467/5/6 2464/5/6 2468/5/6
f 2465/5/6 2466/5/6 2469/5/6
f 2466/5/6 2467/5/6 2469/5/6
f 2469/5/6 2467/5/6 2470/5/6
f 2470/5/6 2467/5/6 2471/5/6
f 2470/2/6 2471/2/6 2472/2/6
f 2472/2/6 2471/2/6 2473/2/6
f 2474/3/6 2475/3/6 2478/3/6
f 2478/3/6 2475/3/6 2479/3/6
f 2479/3/6 2475/3/6 2480/3/6
f 2480/3/6 2475/3/6 2481/3/6
f 2476/3/6 2477/3/6 2482/3/6
f 2482/3/6 2477/3/6 2483/3/6
f 2483/3/6 2477/3/6 2484/3/6
f 2479/2/6 2480/2/6 2486/2/6
f 2486/2/6 2480/2/6 2487/2/6
f 2484/5/6 2485/5/6 2490/5/6
f 2490/5/6 2485/5/6 2491/5/6
f 2492/5/6 2493/5/6 2497/5/6
f 2497/5/6 2493/5/6 2498/5/6
f 2488/3/6 2489/3/6 2499/3/6
f 2499/3/6 2489/3/6 2500/3/6
f 2494/2/6 2495/2/6 2501/2/6
f 2496/5/6 2497/5/6 2502/5/6
f 2502/5/6 2497/5/6 2503/5/6
f 2500/2/6 2501/2/6 2504/2/6
f 2501/2/6 2495/2/6 2505/2/6
f 2504/2/6 2501/2/6 2505/2/6
f 2506/2/6 2507/2/6 2511/2/6
f 2507/5/6 2508/5/6 2512/5/6
f 2511/2/6 2507/2/6 2512/2/6
f 2512/5/6 2508/5/6 2513/5/6
f 2509/5/6 2510/5/6 2515/5/6
f 2515/5/6 2510/5/6 2516/5/6
f 2514/5/6 2515/5/6 2517/5/6
f 2517/5/6 2515/5/6 2518/5/6
f 2517/2/6 2518/2/6 2519/2/6
f 2519/2/6 2518/2/6 2520/2/6
f 2521/3/6 2522/3/6 2524/3/6
f 2524/3/6 2522/3/6 2525/3/6
f 2523/2/6 2524/2/6 2530/2/6
f 2524/2/6 2525/2/6 2530/2/6
f 2525/2/6 2526/2/6 2530/2/6
f 2528/1/6 2529/1/6 2533/1/6
f 2529/2/6 2530/2/6 2534/2/6
f 2533/1/6 2529/1/6 2534/1/6
f 2530/2/6 2526/2/6 2535/2/6
f 2534/2/6 2530/2/6 2535/2/6
f 2526/5/6 2527/5/6 2536/5/6
f 2535/2/6 2526/2/6 2536/2/6
f 2536/5/6 2527/5/6 2537/5/6
f 2531/5/6 2532/5/6 2539/5/6
f 2539/5/6 2532/5/6 2540/5/6
f 2534/2/6 2535/2/6 2541/2/6
f 2541/2/6 2535/2/6 2542/2/6
f 2542/2/6 2535/2/6 2543/2/6
f 2536/5/6 2537/5/6 2544/5/6
f 2544/5/6 2537/5/6 2545/5/6
f 2538/5/6 2539/5/6 2547/5/6
f 2547/5/6 2539/5/6 2548/5/6
f 2534/2/6 2541/2/6 2551/2/6
f 2551/2/6 2541/2/6 2552/2/6
f 2542/2/6 2543/2/6 2553/2/6
f 2543/2/6 2544/2/6 2553/2/6
f 2553/2/6 2544/2/6 2554/2/6
f 2546/5/6 2547/5/6 2555/5/6
f 2555/5/6 2547/5/6 2556/5/6
f 2549/5/6 2550/5/6 2558/5/6
f 2558/5/6 2550/5/6 2559/5/6
f 2542/2/6 2553/2/6 2560/2/6
f 2560/2/6 2553/2/6 2561/2/6
f 2557/5/6 2558/5/6 2562/5/6
f 2562/5/6 2563/5/6 2564/5/6
f 2557/5/6 2562/5/6 2564/5/6
f 2564/5/6 2563/5/6 2565/5/6
f 2566/2/6 2567/2/6 2570/2/6
f 2568/5/6 2569/5/6 2572/5/6
f 2572/5/6 2569/5/6 2573/5/6
f 2570/5/6 2571/5/6 2574/5/6
f 2566/2/6 2570/2/6 2576/2/6
f 2574/5/6 2575/5/6 2577/5/6
f 2576/2/6 2570/2/6 2577/2/6
f 2570/5/6 2574/5/6 2577/5/6
f 2577/5/6 2575/5/6 2578/5/6
f 2566/2/6 2576/2/6 2581/2/6
f 2581/2/6 2576/2/6 2582/2/6
f 2578/5/6 2575/5/6 2584/5/6
f 2584/5/6 2575/5/6 2585/5/6
f 2582/2/6 2583/2/6 2586/2/6
f 2583/5/6 2584/5/6 2587/5/6
f 2586/2/6 2583/2/6 2587/2/6
f 2587/5/6 2584/5/6 2588/5/6
f 2579/5/6 2580/5/6 2591/5/6
f 2591/5/6 2580/5/6 2592/5/6
f 2589/5/6 2590/5/6 2593/5/6
f 2593/5/6 2590/5/6 2594/5/6
f 2594/5/6 2590/5/6 2595/5/6
f 2593/3/6 2594/3/6 2596/3/6
f 2596/3/6 2594/3/6 2597/3/6
f 2598/2/6 2599/2/6 2604/2/6
f 2604/2/6 2599/2/6 2605/2/6
f 2600/5/6 2601/5/6 2606/5/6
f 2602/5/6 2603/5/6 2608/5/6
f 2605/5/6 2606/5/6 2610/5/6
f 2608/5/6 2603/5/6 2611/5/6
f 2607/5/6 2608/5/6 2611/5/6
f 2611/5/6 2603/5/6 2612/5/6
f 2609/2/6 2610/2/6 2614/2/6
f 2613/2/6 2614/2/6 2615/2/6
f 2614/2/6 2610/2/6 2616/2/6
f 2615/2/6 2614/2/6 2616/2/6
f 2610/5/6 2606/5/6 2617/5/6
f 2606/5/6 2601/5/6 2617/5/6
f 2607/5/6 2611/5/6 2619/5/6
f 2616/2/6 2610/2/6 2621/2/6
f 2610/5/6 2617/5/6 2622/5/6
f 2621/2/6 2610/2/6 2622/2/6
f 2617/5/6 2618/5/6 2622/5/6
f 2622/5/6 2618/5/6 2623/5/6
f 2623/5/6 2618/5/6 2624/5/6
f 2607/5/6 2619/5/6 2625/5/6
f 2619/5/6 2620/5/6 2625/5/6
f 2625/5/6 2620/5/6 2626/5/6
f 2626/5/6 2620/5/6 2627/5/6
f 2627/5/6 2620/5/6 2628/5/6
f 2622/5/6 2623/5/6 2629/5/6
f 2629/5/6 2623/5/6 2630/5/6
f 2626/5/6 2627/5/6 2631/5/6
f 2631/5/6 2627/5/6 2632/5/6
f 2632/5/6 2627/5/6 2633/5/6
f 2630/5/6 2623/5/6 2634/5/6
f 2634/5/6 2623/5/6 2635/5/6
f 2632/5/6 2633/5/6 2637/5/6
f 2637/5/6 2633/5/6 2638/5/6
f 2635/5/6 2636/5/6 2639/5/6
f 2635/5/6 2639/5/6 2642/5/6
f 2639/5/6 2640/5/6 2642/5/6
f 2642/5/6 2640/5/6 2643/5/6
f 2641/5/6 2642/5/6 2645/5/6
f 2645/5/6 2642/5/6 2646/5/6
f 2643/5/6 2644/5/6 2647/5/6
f 2647/5/6 2644/5/6 2648/5/6
f 2645/5/6 2646/5/6 2651/5/6
f 2651/5/6 2646/5/6 2652/5/6
f 2649/3/6 2650/3/6 2653/3/6
f 2653/3/6 2650/3/6 2654/3/6
f 2655/5/6 2656/5/6 2658/5/6
f 2658/5/6 2656/5/6 2659/5/6
f 2657/5/6 2658/5/6 2660/5/6
f 2660/5/6 2658/5/6 2661/5/6
f 2662/5/6 2663/5/6 2666/5/6
f 2666/5/6 2663/5/6 2667/5/6
f 2664/2/6 2665/2/6 2668/2/6
f 2668/2/6 2665/2/6 2669/2/6
f 2672/5/6 2673/5/6 2676/5/6
f 2676/5/6 2673/5/6 2677/5/6
f 2670/5/6 2671/5/6 2678/5/6
f 2678/5/6 2671/5/6 2679/5/6
f 2674/5/6 2675/5/6 2681/5/6
f 2681/5/6 2675/5/6 2682/5/6
f 2679/5/6 2680/5/6 2683/5/6
f 2683/5/6 2680/5/6 2684/5/6
f 2684/5/6 2685/5/6 2687/5/6
f 2687/5/6 2685/5/6 2688/5/6
f 2686/5/6 2687/5/6 2693/5/6
f 2693/5/6 2687/5/6 2694/5/6
f 2689/5/6 2690/5/6 2696/5/6
f 2696/5/6 2690/5/6 2697/5/6
f 2691/5/6 2692/5/6 2698/5/6
f 2698/5/6 2692/5/6 2699/5/6
f 2695/5/6 2696/5/6 2700/5/6
f 2700/5/6 2696/5/6 2701/5/6
f 2702/5/6 2703/5/6 2706/5/6
f 2706/5/6 2703/5/6 2707/5/6
f 2704/5/6 2705/5/6 2709/5/6
f 2709/5/6 2705/5/6 2710/5/6
f 2707/5/6 2708/5/6 2713/5/6
f 2710/5/6 2711/5/6 2714/5/6
f 2712/5/6 2713/5/6 2715/5/6
f 2713/5/6 2708/5/6 2716/5/6
f 2715/5/6 2713/5/6 2716/5/6
f 2710/5/6 2714/5/6 2717/5/6
f 2710/5/6 2717/5/6 2719/5/6
f 2717/5/6 2718/5/6 2719/5/6
f 2719/5/6 2718/5/6 2720/5/6
f 2716/5/6 2708/5/6 2721/5/6
f 2721/5/6 2708/5/6 2722/5/6
f 2723/5/6 2724/5/6 2725/5/6
f 2725/5/6 2724/5/6 2726/5/6
f 2726/5/6 2724/5/6 2727/5/6
f 2727/5/6 2728/5/6 2731/5/6
f 2726/5/6 2727/5/6 2731/5/6
f 2731/5/6 2728/5/6 2732/5/6
f 2729/5/6 2730/5/6 2734/5/6
f 2734/5/6 2730/5/6 2735/5/6
f 2735/5/6 2730/5/6 2736/5/6
f 2732/5/6 2733/5/6 2737/5/6
f 2737/5/6 2733/5/6 2738/5/6
f 2738/5/6 2733/5/6 2739/5/6
f 2739/5/6 2740/5/6 2741/5/6
f 2738/5/6 2739/5/6 2741/5/6
f 2741/5/6 2740/5/6 2742/5/6
f 2743/5/6 2744/5/6 2745/5/6
f 2745/5/6 2744/5/6 2746/5/6
f 2747/5/6 2748/5/6 2750/5/6
f 2749/5/6 2750/5/6 2753/5/6
f 2750/5/6 2748/5/6 2754/5/6
f 2753/5/6 2750/5/6 2754/5/6
f 2751/5/6 2752/5/6 2755/5/6
f 2755/5/6 2752/5/6 2756/5/6
f 2749/5/6 2753/5/6 2758/5/6
f 2758/5/6 2753/5/6 2759/5/6
f 2754/5/6 2748/5/6 2760/5/6
f 2760/5/6 2748/5/6 2761/5/6
f 2756/5/6 2757/5/6 2762/5/6
f 2762/5/6 2757/5/6 2763/5/6
f 2764/5/6 2765/5/6 2769/5/6
f 2765/5/6 2766/5/6 2769/5/6
f 2769/5/6 2766/5/6 2770/5/6
f 2767/5/6 2768/5/6 2771/5/6
f 2770/5/6 2771/5/6 2772/5/6
f 2772/5/6 2771/5/6 2773/5/6
f 2771/5/6 2768/5/6 2774/5/6
f 2773/5/6 2771/5/6 2774/5/6
f 2774/5/6 2768/5/6 2775/5/6
f 2773/5/6 2774/5/6 2777/5/6
f 2777/5/6 2774/5/6 2778/5/6
f 2775/5/6 2776/5/6 2779/5/6
f 2779/5/6 2776/5/6 2780/5/6
f 2779/5/6 2780/5/6 2782/5/6
f 2780/5/6 2781/5/6 2782/5/6
f 2778/5/6 2779/5/6 2782/5/6
f 2782/5/6 2781/5/6 2783/5/6
f 2783/5/6 2781/5/6 2784/5/6
f 2784/5/6 2781/5/6 2785/5/6
f 2783/5/6 2784/5/6 2786/5/6
f 2786/5/6 2784/5/6 2787/5/6
f 2788/5/6 2789/5/6 2790/5/6
f 2790/5/6 2789/5/6 2791/5/6
f 2788/5/6 2790/5/6 2792/5/6
f 2792/5/6 2790/5/6 2793/5/6
f 2794/5/6 2795/5/6 2797/5/6
f 2797/5/6 2795/5/6 2798/5/6
f 2797/5/6 2798/5/6 2800/5/6
f 2798/5/6 2799/5/6 2800/5/6
f 2796/5/6 2797/5/6 2800/5/6
f 2800/5/6 2799/5/6 2801/5/6
f 2801/5/6 2799/5/6 2802/5/6
f 2802/5/6 2799/5/6 2803/5/6
f 2801/5/6 2802/5/6 2805/5/6
f 2805/5/6 2802/5/6 2806/5/6
f 2803/5/6 2804/5/6 2808/5/6
f 2808/5/6 2804/5/6 2809/5/6
f 2807/5/6 2808/5/6 2810/5/6
f 2810/5/6 2808/5/6 2811/5/6
