# MagicaVoxel @ Ephtracy

# group
o 

# material
mtllib gusenica_9.mtl
usemtl palette

# normals
vn -1 0 0
vn 1 0 0
vn 0 0 1
vn 0 0 -1
vn 0 -1 0
vn 0 1 0

# texcoords
vt 0.228516 0.5
vt 0.232422 0.5
vt 0.986328 0.5

# verts
v -3.2 3.9 0.2
v -3.2 3.9 -0.4
v -3.2 3.9 -1
v -3.2 3.9 -1.1
v -3.2 4 -0.2
v -3.2 4 -0.4
v -3.2 4 -1
v -3.2 4 -1.1
v -3.2 4.1 0.2
v -3.2 4.1 0.1
v -3.2 4.1 0
v -3.2 4.1 -0.2
v -3.2 4.2 0.1
v -3.2 4.2 0
v -3.1 3.7 0.1
v -3.1 3.7 -0.7
v -3.1 3.7 -0.9
v -3.1 3.7 -1
v -3.1 3.8 -0.7
v -3.1 3.8 -0.9
v -3.1 3.8 -1
v -3.1 3.8 -1.2
v -3.1 3.9 0.1
v -3.1 3.9 -0.4
v -3.1 3.9 -0.6
v -3.1 3.9 -0.9
v -3.1 3.9 -1
v -3.1 3.9 -1.1
v -3.1 3.9 -1.2
v -3.1 3.9 -1.3
v -3.1 4 -0.4
v -3.1 4 -0.6
v -3.1 4 -1
v -3.1 4 -1.1
v -3.1 4.1 0
v -3.1 4.1 -0.1
v -3.1 4.1 -1.2
v -3.1 4.1 -1.3
v -3.1 4.2 0.1
v -3.1 4.2 0
v -3.1 4.2 -0.1
v -3.1 4.2 -0.8
v -3.1 4.2 -0.9
v -3.1 4.2 -1.2
v -3.1 4.3 0.1
v -3.1 4.3 0
v -3.1 4.3 -0.8
v -3.1 4.3 -0.9
v -3 3.7 -0.7
v -3 3.7 -0.9
v -3 3.7 -1
v -3 3.7 -1.2
v -3 3.8 -0.7
v -3 3.8 -0.9
v -3 3.8 -1
v -3 3.8 -1.2
v -3 3.9 -0.6
v -3 3.9 -0.9
v -3 3.9 -1
v -3 4 -0.2
v -3 4 -0.5
v -3 4 -0.6
v -3 4 -0.8
v -3 4.1 -0.2
v -3 4.1 -0.5
v -3 4.1 -0.8
v -3 4.1 -0.9
v -3 4.2 -0.7
v -3 4.2 -0.8
v -3 4.2 -0.9
v -3 4.2 -1
v -3 4.3 -0.7
v -3 4.3 -0.8
v -3 4.3 -0.9
v -3 4.3 -1
v -2.9 4 -0.5
v -2.9 4 -0.6
v -2.9 4 -0.7
v -2.9 4 -0.8
v -2.9 4.1 -0.5
v -2.9 4.1 -0.6
v -2.9 4.1 -0.7
v -2.9 4.1 -0.8
v -2.9 4.1 -0.9
v -2.9 4.1 -1.2
v -2.9 4.1 -1.3
v -2.9 4.2 -0.8
v -2.9 4.2 -0.9
v -2.9 4.2 -1.2
v -2.9 4.2 -1.3
v -2.8 4 -0.6
v -2.8 4 -0.7
v -2.8 4.1 -0.4
v -2.8 4.1 -0.5
v -2.8 4.1 -0.6
v -2.8 4.1 -0.7
v -2.8 4.1 -0.8
v -2.8 4.2 -0.4
v -2.8 4.2 -0.5
v -2.8 4.2 -0.7
v -2.8 4.3 -0.5
v -2.8 4.3 -0.8
v -2.7 4.1 0
v -2.7 4.1 -0.1
v -2.7 4.1 -0.2
v -2.7 4.1 -0.3
v -2.7 4.1 -0.4
v -2.7 4.1 -0.5
v -2.7 4.1 -0.7
v -2.7 4.2 0
v -2.7 4.2 -0.2
v -2.7 4.2 -0.3
v -2.7 4.2 -0.4
v -2.7 4.2 -0.5
v -2.7 4.2 -0.7
v -2.7 4.3 -0.4
v -2.7 4.3 -0.5
v -2.6 4 0
v -2.6 4 -0.1
v -2.6 4.1 0
v -2.6 4.1 -0.1
v -2.6 4.1 -0.9
v -2.6 4.1 -1
v -2.6 4.2 -0.8
v -2.6 4.2 -0.9
v -2.6 4.2 -1
v -2.6 4.3 -0.3
v -2.6 4.3 -0.4
v -2.6 4.3 -0.8
v -2.6 4.3 -0.9
v -2.6 4.4 -0.3
v -2.6 4.4 -0.4
v -2.5 4 0.1
v -2.5 4 0
v -2.5 4 -0.5
v -2.5 4 -0.6
v -2.5 4.1 0.1
v -2.5 4.1 0
v -2.5 4.1 -0.2
v -2.5 4.1 -0.3
v -2.5 4.1 -0.5
v -2.5 4.1 -0.6
v -2.5 4.2 -0.2
v -2.5 4.2 -0.3
v -2.5 4.2 -0.4
v -2.5 4.3 -0.2
v -2.5 4.3 -0.3
v -2.5 4.3 -0.4
v -2.5 4.4 -0.2
v -2.5 4.4 -0.3
v -2.4 4.1 -0.1
v -2.4 4.1 -0.2
v -2.4 4.1 -1
v -2.4 4.1 -1.1
v -2.4 4.2 -0.1
v -2.4 4.2 -0.2
v -2.4 4.2 -0.4
v -2.4 4.2 -0.6
v -2.4 4.2 -1
v -2.4 4.2 -1.1
v -2.4 4.3 -0.4
v -2.4 4.3 -0.6
v -2.3 3.9 0.1
v -2.3 3.9 0
v -2.3 3.9 -0.1
v -2.3 4 -0.1
v -2.3 4 -0.2
v -2.3 4.1 0.1
v -2.3 4.1 0
v -2.3 4.1 -0.1
v -2.3 4.1 -0.2
v -2.3 4.2 -0.2
v -2.3 4.2 -0.3
v -2.3 4.3 -0.2
v -2.3 4.3 -0.3
v -2.2 3.8 0.1
v -2.2 3.8 0
v -2.2 3.9 0.1
v -2.2 3.9 0
v -2.2 4 0.2
v -2.2 4 0.1
v -2.2 4.1 0.2
v -2.2 4.1 0.1
v -2.2 4.1 -0.1
v -2.2 4.1 -0.2
v -2.2 4.1 -0.5
v -2.2 4.1 -0.6
v -2.2 4.1 -0.8
v -2.2 4.1 -0.9
v -2.2 4.2 -0.5
v -2.2 4.2 -0.6
v -2.2 4.2 -0.8
v -2.2 4.2 -0.9
v -2.2 4.3 -0.1
v -2.2 4.3 -0.2
v -2.1 3.9 0.1
v -2.1 3.9 0
v -2.1 4 0.1
v -2.1 4 0
v -2.1 4.1 -0.6
v -2.1 4.1 -0.8
v -2.1 4.2 -0.6
v -2.1 4.2 -0.8
v -2 3.7 0.1
v -2 3.7 0
v -2 3.9 0.1
v -2 3.9 0
v -2 4 0.1
v -2 4 0
v -2 4.1 0.1
v -2 4.1 0
v -1.9 4.1 -0.2
v -1.9 4.1 -0.4
v -1.9 4.2 -0.2
v -1.9 4.2 -0.4
v -1.7 3.7 0
v -1.7 3.7 -0.1
v -1.7 3.9 0
v -1.7 3.9 -0.1
v -1.7 4 -0.5
v -1.7 4 -0.6
v -1.7 4.1 -0.5
v -1.7 4.1 -0.6
v -1.5 3.7 -0.1
v -1.5 3.7 -0.2
v -1.5 3.8 -0.1
v -1.5 3.8 -0.2
v -3 4.2 0.1
v -3 4.2 0
v -3 4.3 0.1
v -3 4.3 0
v -2.9 4.1 0.1
v -2.9 4.1 -0.1
v -2.9 4.2 0.1
v -2.9 4.2 -0.1
v -2.9 4.2 -0.7
v -2.9 4.2 -0.8
v -2.9 4.2 -0.9
v -2.9 4.2 -1
v -2.9 4.3 -0.7
v -2.9 4.3 -0.8
v -2.9 4.3 -0.9
v -2.9 4.3 -1
v -2.8 4 0
v -2.8 4 -0.1
v -2.8 4.1 0
v -2.8 4.1 -0.1
v -2.8 4.1 -0.9
v -2.8 4.1 -1
v -2.8 4.2 -0.8
v -2.8 4.2 -0.9
v -2.8 4.2 -1
v -2.8 4.3 -0.8
v -2.8 4.3 -0.9
v -2.7 3.9 0.2
v -2.7 3.9 0.1
v -2.7 3.9 -1.2
v -2.7 3.9 -1.3
v -2.7 4 0.1
v -2.7 4 0
v -2.7 4 -1.2
v -2.7 4 -1.3
v -2.7 4.1 0.2
v -2.7 4.1 0.1
v -2.7 4.1 0
v -2.7 4.1 -1
v -2.7 4.1 -1.2
v -2.7 4.1 -1.3
v -2.7 4.2 -1
v -2.7 4.2 -1.2
v -2.7 4.2 -1.3
v -2.6 3.9 0.1
v -2.6 3.9 0
v -2.6 4 0.1
v -2.6 4 0
v -2.6 4 -0.5
v -2.6 4 -0.6
v -2.6 4.1 -0.5
v -2.6 4.1 -0.6
v -2.5 3.8 0.1
v -2.5 3.8 0
v -2.5 3.9 0.1
v -2.5 3.9 0
v -2.5 4.1 0
v -2.5 4.1 -0.2
v -2.5 4.2 0
v -2.5 4.2 -0.2
v -2.5 4.2 -0.4
v -2.5 4.2 -0.9
v -2.5 4.3 -0.3
v -2.5 4.3 -0.4
v -2.5 4.3 -0.9
v -2.5 4.4 -0.3
v -2.5 4.4 -0.4
v -2.4 3.7 0.1
v -2.4 3.7 0
v -2.4 3.8 0.1
v -2.4 3.8 0
v -2.4 3.9 0
v -2.4 3.9 -0.1
v -2.4 4 0.1
v -2.4 4 0
v -2.4 4 -0.1
v -2.4 4 -0.2
v -2.4 4.1 0.1
v -2.4 4.1 0
v -2.4 4.1 -0.1
v -2.4 4.1 -0.2
v -2.3 4 -1.2
v -2.3 4 -1.3
v -2.3 4.1 -0.1
v -2.3 4.1 -0.2
v -2.3 4.1 -0.5
v -2.3 4.1 -1.1
v -2.3 4.1 -1.2
v -2.3 4.1 -1.3
v -2.3 4.2 -0.1
v -2.3 4.2 -0.2
v -2.3 4.2 -0.4
v -2.3 4.2 -0.5
v -2.3 4.2 -0.6
v -2.3 4.2 -1.1
v -2.3 4.3 -0.2
v -2.3 4.3 -0.3
v -2.3 4.3 -0.4
v -2.3 4.3 -0.6
v -2.3 4.4 -0.2
v -2.3 4.4 -0.3
v -2.2 3.9 0.1
v -2.2 3.9 0
v -2.2 4 0.1
v -2.2 4 -1.1
v -2.2 4 -1.2
v -2.2 4.1 0.1
v -2.2 4.1 0
v -2.2 4.1 -1.1
v -2.2 4.1 -1.2
v -2.2 4.2 -0.3
v -2.2 4.2 -0.4
v -2.2 4.3 -0.3
v -2.2 4.3 -0.4
v -2.1 3.8 0.1
v -2.1 3.8 0
v -2.1 3.9 0.1
v -2.1 3.9 0
v -2.1 4 0.2
v -2.1 4 0.1
v -2.1 4 -1
v -2.1 4 -1.1
v -2.1 4.1 0.2
v -2.1 4.1 0.1
v -2.1 4.1 -0.4
v -2.1 4.1 -0.6
v -2.1 4.1 -1
v -2.1 4.1 -1.1
v -2.1 4.2 -0.1
v -2.1 4.2 -0.3
v -2.1 4.2 -0.4
v -2.1 4.2 -0.6
v -2.1 4.3 -0.1
v -2.1 4.3 -0.3
v -2 3.9 -1.1
v -2 3.9 -1.2
v -2 4 -1.1
v -2 4 -1.2
v -2 4.1 -0.1
v -2 4.1 -0.4
v -2 4.1 -0.6
v -2 4.1 -0.9
v -2 4.2 -0.1
v -2 4.2 -0.4
v -2 4.2 -0.6
v -2 4.2 -0.9
v -1.9 3.7 0.1
v -1.9 3.7 0
v -1.9 3.8 0.1
v -1.9 3.8 0
v -1.9 3.8 -1.1
v -1.9 3.8 -1.2
v -1.9 3.9 -1.1
v -1.9 3.9 -1.2
v -1.9 4 -0.5
v -1.9 4 -1
v -1.9 4.1 -0.5
v -1.9 4.1 -1
v -1.8 3.7 0
v -1.8 3.7 -0.1
v -1.8 3.7 -1.1
v -1.8 3.7 -1.2
v -1.8 3.8 0.1
v -1.8 3.8 0
v -1.8 3.8 -1
v -1.8 3.8 -1.1
v -1.8 3.8 -1.2
v -1.8 3.9 0
v -1.8 3.9 -0.1
v -1.8 3.9 -1
v -1.8 3.9 -1.1
v -1.8 4 -0.1
v -1.8 4 -0.5
v -1.8 4.1 0.1
v -1.8 4.1 0
v -1.8 4.1 -0.1
v -1.8 4.1 -0.2
v -1.8 4.1 -0.4
v -1.8 4.1 -0.5
v -1.8 4.2 -0.2
v -1.8 4.2 -0.4
v -1.7 3.8 -0.7
v -1.7 3.8 -0.9
v -1.7 3.9 -0.9
v -1.7 3.9 -1
v -1.7 3.9 -1.1
v -1.7 4 0
v -1.7 4 -0.1
v -1.7 4 -0.7
v -1.7 4 -1.1
v -1.7 4.1 0
v -1.7 4.1 -0.1
v -1.6 3.7 0
v -1.6 3.7 -0.2
v -1.6 3.7 -0.6
v -1.6 3.7 -0.9
v -1.6 3.8 -0.4
v -1.6 3.8 -0.6
v -1.6 3.8 -0.7
v -1.6 3.8 -0.9
v -1.6 3.8 -1
v -1.6 3.9 -0.1
v -1.6 3.9 -0.2
v -1.6 3.9 -0.9
v -1.6 3.9 -1
v -1.6 4 0
v -1.6 4 -0.1
v -1.6 4 -0.4
v -1.6 4 -0.5
v -1.6 4 -0.6
v -1.6 4 -0.7
v -1.6 4.1 -0.5
v -1.6 4.1 -0.6
v -1.5 3.7 -0.3
v -1.5 3.7 -0.6
v -1.5 3.7 -0.9
v -1.5 3.7 -1.1
v -1.5 3.8 -0.2
v -1.5 3.8 -0.3
v -1.5 3.8 -0.4
v -1.5 3.8 -0.6
v -1.5 3.8 -0.9
v -1.5 3.8 -1.1
v -1.5 3.9 -0.1
v -1.5 3.9 -0.2
v -1.5 4 -0.1
v -1.5 4 -0.4
v -1.4 3.7 -0.1
v -1.4 3.7 -0.3
v -1.4 3.8 -0.1
v -1.4 3.8 -0.3
v -3.2 3.9 0.2
v -3.2 4.1 0.2
v -2.7 3.9 0.2
v -2.7 4.1 0.2
v -2.2 4 0.2
v -2.2 4.1 0.2
v -2.1 4 0.2
v -2.1 4.1 0.2
v -3.2 4.1 0.1
v -3.2 4.2 0.1
v -3.1 3.7 0.1
v -3.1 3.9 0.1
v -3.1 4.1 0.1
v -3.1 4.2 0.1
v -3.1 4.3 0.1
v -3 4.2 0.1
v -3 4.3 0.1
v -2.9 4.1 0.1
v -2.9 4.2 0.1
v -2.7 3.9 0.1
v -2.7 4 0.1
v -2.6 3.9 0.1
v -2.6 4 0.1
v -2.5 3.8 0.1
v -2.5 3.9 0.1
v -2.5 4 0.1
v -2.5 4.1 0.1
v -2.4 3.7 0.1
v -2.4 3.8 0.1
v -2.4 4 0.1
v -2.4 4.1 0.1
v -2.3 3.9 0.1
v -2.3 4.1 0.1
v -2.2 3.8 0.1
v -2.2 3.9 0.1
v -2.2 4 0.1
v -2.2 4.1 0.1
v -2.1 3.8 0.1
v -2.1 3.9 0.1
v -2.1 4 0.1
v -2 3.7 0.1
v -2 3.9 0.1
v -2 4 0.1
v -2 4.1 0.1
v -1.9 3.7 0.1
v -1.9 3.8 0.1
v -1.8 3.8 0.1
v -1.8 4.1 0.1
v -2.7 4.1 0
v -2.7 4.2 0
v -2.6 3.9 0
v -2.6 4 0
v -2.6 4.1 0
v -2.6 4.2 0
v -2.5 3.8 0
v -2.5 3.9 0
v -2.5 4 0
v -2.5 4.1 0
v -2.5 4.2 0
v -2.4 3.7 0
v -2.4 3.8 0
v -2.4 3.9 0
v -2.4 4 0
v -2.3 3.9 0
v -2.2 3.8 0
v -2.2 3.9 0
v -2.2 4.1 0
v -2.1 3.8 0
v -2.1 3.9 0
v -2.1 4 0
v -2 3.7 0
v -2 3.9 0
v -2 4 0
v -2 4.1 0
v -1.9 3.7 0
v -1.9 3.8 0
v -1.8 3.7 0
v -1.8 3.8 0
v -1.8 3.9 0
v -1.8 4.1 0
v -1.7 3.7 0
v -1.7 3.9 0
v -1.7 4 0
v -1.7 4.1 0
v -1.6 3.7 0
v -1.6 4 0
v -2.8 4 -0.1
v -2.8 4.1 -0.1
v -2.7 4.1 -0.1
v -2.6 4 -0.1
v -2.6 4.1 -0.1
v -2.4 3.9 -0.1
v -2.4 4 -0.1
v -2.4 4.1 -0.1
v -2.4 4.2 -0.1
v -2.3 3.9 -0.1
v -2.3 4 -0.1
v -2.3 4.1 -0.1
v -2.3 4.2 -0.1
v -2.2 4.1 -0.1
v -2.2 4.3 -0.1
v -2.1 4.2 -0.1
v -2.1 4.3 -0.1
v -2 4.1 -0.1
v -2 4.2 -0.1
v -1.8 3.7 -0.1
v -1.8 3.9 -0.1
v -1.7 3.7 -0.1
v -1.7 3.9 -0.1
v -1.6 3.9 -0.1
v -1.6 4 -0.1
v -1.5 3.7 -0.1
v -1.5 3.8 -0.1
v -1.5 3.9 -0.1
v -1.5 4 -0.1
v -1.4 3.7 -0.1
v -1.4 3.8 -0.1
v -2.5 4.1 -0.2
v -2.5 4.2 -0.2
v -2.5 4.3 -0.2
v -2.5 4.4 -0.2
v -2.4 4 -0.2
v -2.4 4.1 -0.2
v -2.4 4.2 -0.2
v -2.3 4 -0.2
v -2.3 4.1 -0.2
v -2.3 4.2 -0.2
v -2.3 4.3 -0.2
v -2.3 4.4 -0.2
v -2.2 4.1 -0.2
v -2.2 4.3 -0.2
v -1.9 4.1 -0.2
v -1.9 4.2 -0.2
v -1.8 4.1 -0.2
v -1.8 4.2 -0.2
v -1.6 3.7 -0.2
v -1.6 3.9 -0.2
v -1.5 3.7 -0.2
v -1.5 3.8 -0.2
v -1.5 3.9 -0.2
v -2.7 4.1 -0.3
v -2.7 4.2 -0.3
v -2.6 4.1 -0.3
v -2.6 4.2 -0.3
v -2.6 4.3 -0.3
v -2.6 4.4 -0.3
v -2.5 4.1 -0.3
v -2.5 4.2 -0.3
v -2.5 4.3 -0.3
v -2.5 4.4 -0.3
v -2.3 4.2 -0.3
v -2.3 4.3 -0.3
v -2.8 4.1 -0.4
v -2.8 4.2 -0.4
v -2.7 4.1 -0.4
v -2.7 4.2 -0.4
v -2.7 4.3 -0.4
v -2.6 4.2 -0.4
v -2.6 4.3 -0.4
v -2.5 4.2 -0.4
v -2.5 4.3 -0.4
v -2.8 4.2 -0.5
v -2.8 4.3 -0.5
v -2.7 4.2 -0.5
v -2.7 4.3 -0.5
v -1.7 4 -0.5
v -1.7 4.1 -0.5
v -1.6 4 -0.5
v -1.6 4.1 -0.5
v -2.6 4 -0.6
v -2.6 4.1 -0.6
v -2.5 4 -0.6
v -2.5 4.1 -0.6
v -2.1 4.1 -0.6
v -2.1 4.2 -0.6
v -2 4.1 -0.6
v -2 4.2 -0.6
v -3 4.2 -0.7
v -3 4.3 -0.7
v -2.9 4 -0.7
v -2.9 4.1 -0.7
v -2.9 4.2 -0.7
v -2.9 4.3 -0.7
v -2.8 4 -0.7
v -2.8 4.1 -0.7
v -2.8 4.2 -0.7
v -2.7 4.1 -0.7
v -2.7 4.2 -0.7
v -3.1 4.2 -0.8
v -3.1 4.3 -0.8
v -3 4 -0.8
v -3 4.1 -0.8
v -3 4.2 -0.8
v -3 4.3 -0.8
v -2.9 4 -0.8
v -2.9 4.1 -0.8
v -2.9 4.2 -0.8
v -2.9 4.3 -0.8
v -2.8 4.1 -0.8
v -2.8 4.3 -0.8
v -2.2 4.1 -0.8
v -2.2 4.2 -0.8
v -2.1 4.1 -0.8
v -2.1 4.2 -0.8
v -3.1 3.7 -0.9
v -3.1 3.8 -0.9
v -3.1 3.9 -0.9
v -3.1 4.2 -0.9
v -3 3.7 -0.9
v -3 3.8 -0.9
v -3 3.9 -0.9
v -3 4.1 -0.9
v -2.9 4.1 -0.9
v -2.9 4.2 -0.9
v -1.7 3.8 -0.9
v -1.7 3.9 -0.9
v -1.6 3.7 -0.9
v -1.6 3.8 -0.9
v -1.6 3.9 -0.9
v -1.5 3.7 -0.9
v -1.5 3.8 -0.9
v -3.2 3.9 -1
v -3.2 4 -1
v -3.1 3.8 -1
v -3.1 3.9 -1
v -3.1 4 -1
v -3 3.8 -1
v -3 3.9 -1
v -2.8 4.1 -1
v -2.8 4.2 -1
v -2.7 4.1 -1
v -2.7 4.2 -1
v -2.2 4 0.1
v -2.2 4.1 0.1
v -2.1 4 0.1
v -2.1 4.1 0.1
v -3.2 4.1 0
v -3.2 4.2 0
v -3.1 4.1 0
v -3.1 4.2 0
v -3.1 4.3 0
v -3 4.2 0
v -3 4.3 0
v -2.8 4 0
v -2.8 4.1 0
v -2.7 4 0
v -2.7 4.1 0
v -3.1 4.1 -0.1
v -3.1 4.2 -0.1
v -2.9 4.1 -0.1
v -2.9 4.2 -0.1
v -1.8 4 -0.1
v -1.8 4.1 -0.1
v -1.7 4 -0.1
v -1.7 4.1 -0.1
v -3.2 4 -0.2
v -3.2 4.1 -0.2
v -3.1 4 -0.2
v -3.1 4.1 -0.2
v -3 4 -0.2
v -3 4.1 -0.2
v -2.7 4.1 -0.2
v -2.7 4.2 -0.2
v -2.6 4.1 -0.2
v -2.6 4.2 -0.2
v -2.5 4.1 -0.2
v -2.5 4.2 -0.2
v -2.5 4.3 -0.3
v -2.5 4.4 -0.3
v -2.3 4.3 -0.3
v -2.3 4.4 -0.3
v -2.2 4.2 -0.3
v -2.2 4.3 -0.3
v -2.1 4.2 -0.3
v -2.1 4.3 -0.3
v -1.5 3.7 -0.3
v -1.5 3.8 -0.3
v -1.4 3.7 -0.3
v -1.4 3.8 -0.3
v -3.2 3.9 -0.4
v -3.2 4 -0.4
v -3.1 3.9 -0.4
v -3.1 4 -0.4
v -2.6 4.3 -0.4
v -2.6 4.4 -0.4
v -2.5 4.2 -0.4
v -2.5 4.3 -0.4
v -2.5 4.4 -0.4
v -2.4 4.2 -0.4
v -2.4 4.3 -0.4
v -2.3 4.2 -0.4
v -2.3 4.3 -0.4
v -2.2 4.2 -0.4
v -2.2 4.3 -0.4
v -2.1 4.1 -0.4
v -2.1 4.2 -0.4
v -2 4.1 -0.4
v -2 4.2 -0.4
v -1.9 4.1 -0.4
v -1.9 4.2 -0.4
v -1.8 4.1 -0.4
v -1.8 4.2 -0.4
v -1.6 3.8 -0.4
v -1.6 4 -0.4
v -1.5 3.8 -0.4
v -1.5 4 -0.4
v -3 4 -0.5
v -3 4.1 -0.5
v -2.9 4 -0.5
v -2.9 4.1 -0.5
v -2.8 4.1 -0.5
v -2.8 4.2 -0.5
v -2.7 4.1 -0.5
v -2.7 4.2 -0.5
v -2.6 4 -0.5
v -2.6 4.1 -0.5
v -2.5 4 -0.5
v -2.5 4.1 -0.5
v -2.3 4.1 -0.5
v -2.3 4.2 -0.5
v -2.2 4.1 -0.5
v -2.2 4.2 -0.5
v -1.9 4 -0.5
v -1.9 4.1 -0.5
v -1.8 4 -0.5
v -1.8 4.1 -0.5
v -3.1 3.9 -0.6
v -3.1 4 -0.6
v -3 3.9 -0.6
v -3 4 -0.6
v -2.9 4 -0.6
v -2.9 4.1 -0.6
v -2.8 4 -0.6
v -2.8 4.1 -0.6
v -2.4 4.2 -0.6
v -2.4 4.3 -0.6
v -2.3 4.2 -0.6
v -2.3 4.3 -0.6
v -2.2 4.1 -0.6
v -2.2 4.2 -0.6
v -2.1 4.1 -0.6
v -2.1 4.2 -0.6
v -1.7 4 -0.6
v -1.7 4.1 -0.6
v -1.6 3.7 -0.6
v -1.6 3.8 -0.6
v -1.6 4 -0.6
v -1.6 4.1 -0.6
v -1.5 3.7 -0.6
v -1.5 3.8 -0.6
v -3.1 3.7 -0.7
v -3.1 3.8 -0.7
v -3 3.7 -0.7
v -3 3.8 -0.7
v -1.7 3.8 -0.7
v -1.7 4 -0.7
v -1.6 3.8 -0.7
v -1.6 4 -0.7
v -2.8 4.2 -0.8
v -2.8 4.3 -0.8
v -2.6 4.2 -0.8
v -2.6 4.3 -0.8
v -3.1 3.8 -0.9
v -3.1 3.9 -0.9
v -3.1 4.2 -0.9
v -3.1 4.3 -0.9
v -3 3.8 -0.9
v -3 3.9 -0.9
v -3 4.2 -0.9
v -3 4.3 -0.9
v -2.9 4.2 -0.9
v -2.9 4.3 -0.9
v -2.8 4.1 -0.9
v -2.8 4.2 -0.9
v -2.8 4.3 -0.9
v -2.6 4.1 -0.9
v -2.6 4.2 -0.9
v -2.6 4.3 -0.9
v -2.5 4.2 -0.9
v -2.5 4.3 -0.9
v -2.2 4.1 -0.9
v -2.2 4.2 -0.9
v -2 4.1 -0.9
v -2 4.2 -0.9
v -3.1 3.7 -1
v -3.1 3.8 -1
v -3 3.7 -1
v -3 3.8 -1
v -3 4.2 -1
v -3 4.3 -1
v -2.9 4.2 -1
v -2.9 4.3 -1
v -2.6 4.1 -1
v -2.6 4.2 -1
v -2.4 4.1 -1
v -2.4 4.2 -1
v -2.1 4 -1
v -2.1 4.1 -1
v -1.9 4 -1
v -1.9 4.1 -1
v -1.8 3.8 -1
v -1.8 3.9 -1
v -1.7 3.9 -1
v -1.6 3.8 -1
v -1.6 3.9 -1
v -3.2 3.9 -1.1
v -3.2 4 -1.1
v -3.1 3.9 -1.1
v -3.1 4 -1.1
v -2.4 4.1 -1.1
v -2.4 4.2 -1.1
v -2.3 4.1 -1.1
v -2.3 4.2 -1.1
v -2.2 4 -1.1
v -2.2 4.1 -1.1
v -2.1 4 -1.1
v -2.1 4.1 -1.1
v -2 3.9 -1.1
v -2 4 -1.1
v -1.9 3.8 -1.1
v -1.9 3.9 -1.1
v -1.8 3.7 -1.1
v -1.8 3.8 -1.1
v -1.8 3.9 -1.1
v -1.7 3.9 -1.1
v -1.7 4 -1.1
v -1.5 3.7 -1.1
v -1.5 3.8 -1.1
v -3.1 3.8 -1.2
v -3.1 3.9 -1.2
v -3.1 4.1 -1.2
v -3.1 4.2 -1.2
v -3 3.7 -1.2
v -3 3.8 -1.2
v -2.9 4.1 -1.2
v -2.9 4.2 -1.2
v -2.7 3.9 -1.2
v -2.7 4 -1.2
v -2.3 4 -1.2
v -2.3 4.1 -1.2
v -2.2 4 -1.2
v -2.2 4.1 -1.2
v -2 3.9 -1.2
v -2 4 -1.2
v -1.9 3.8 -1.2
v -1.9 3.9 -1.2
v -1.8 3.7 -1.2
v -1.8 3.8 -1.2
v -3.1 3.9 -1.3
v -3.1 4.1 -1.3
v -2.9 4.1 -1.3
v -2.9 4.2 -1.3
v -2.7 3.9 -1.3
v -2.7 4 -1.3
v -2.7 4.1 -1.3
v -2.7 4.2 -1.3
v -2.3 4 -1.3
v -2.3 4.1 -1.3
v -3.1 3.7 0.1
v -2.4 3.7 0.1
v -2 3.7 0.1
v -1.9 3.7 0.1
v -2.6 3.7 0
v -2.4 3.7 0
v -2 3.7 0
v -1.9 3.7 0
v -1.8 3.7 0
v -1.7 3.7 0
v -1.6 3.7 0
v -1.8 3.7 -0.1
v -1.7 3.7 -0.1
v -1.5 3.7 -0.1
v -1.4 3.7 -0.1
v -1.6 3.7 -0.2
v -1.5 3.7 -0.2
v -1.5 3.7 -0.3
v -1.4 3.7 -0.3
v -1.6 3.7 -0.6
v -1.5 3.7 -0.6
v -3.1 3.7 -0.7
v -3 3.7 -0.7
v -3.1 3.7 -0.9
v -3 3.7 -0.9
v -1.6 3.7 -0.9
v -1.5 3.7 -0.9
v -3.1 3.7 -1
v -3 3.7 -1
v -2.6 3.7 -1.1
v -1.8 3.7 -1.1
v -1.5 3.7 -1.1
v -3 3.7 -1.2
v -1.8 3.7 -1.2
v -2.2 3.8 0.1
v -2.1 3.8 0.1
v -1.9 3.8 0.1
v -1.8 3.8 0.1
v -2.2 3.8 0
v -2.1 3.8 0
v -1.9 3.8 0
v -1.8 3.8 0
v -3.1 3.8 -0.7
v -3 3.8 -0.7
v -3.1 3.8 -0.9
v -3 3.8 -0.9
v -3.1 3.8 -1
v -3 3.8 -1
v -3.1 3.8 -1.2
v -3 3.8 -1.2
v -3.2 3.9 0.2
v -2.7 3.9 0.2
v -3.1 3.9 0.1
v -2.7 3.9 0.1
v -2.3 3.9 0.1
v -2.2 3.9 0.1
v -2.1 3.9 0.1
v -2 3.9 0.1
v -2.3 3.9 0
v -2.2 3.9 0
v -2.1 3.9 0
v -2 3.9 0
v -1.8 3.9 0
v -1.7 3.9 0
v -1.8 3.9 -0.1
v -1.7 3.9 -0.1
v -1.6 3.9 -0.1
v -1.5 3.9 -0.1
v -1.6 3.9 -0.2
v -1.5 3.9 -0.2
v -3.2 3.9 -0.4
v -3.1 3.9 -0.4
v -3.1 3.9 -0.9
v -3 3.9 -0.9
v -3.2 3.9 -1
v -3.1 3.9 -1
v -3 3.9 -1
v -1.8 3.9 -1
v -1.7 3.9 -1
v -3.2 3.9 -1.1
v -3.1 3.9 -1.1
v -1.8 3.9 -1.1
v -1.7 3.9 -1.1
v -3.1 3.9 -1.2
v -2.7 3.9 -1.2
v -3.1 3.9 -1.3
v -2.7 3.9 -1.3
v -2.2 4 0.2
v -2.1 4 0.2
v -2.5 4 0.1
v -2.4 4 0.1
v -2.2 4 0.1
v -2.1 4 0.1
v -2.5 4 0
v -2.4 4 0
v -2.7 4 -1.2
v -2.3 4 -1.2
v -2.7 4 -1.3
v -2.3 4 -1.3
v -2.7 4.1 0
v -2.6 4.1 0
v -2.7 4.1 -0.1
v -2.6 4.1 -0.1
v -2.4 4.1 -0.1
v -2.3 4.1 -0.1
v -2.4 4.1 -0.2
v -2.3 4.1 -0.2
v -2.6 4.1 -0.5
v -2.5 4.1 -0.5
v -2.6 4.1 -0.6
v -2.5 4.1 -0.6
v -2.8 4.2 -0.5
v -2.7 4.2 -0.5
v -3 4.2 -0.7
v -2.9 4.2 -0.7
v -2.8 4.2 -0.7
v -2.7 4.2 -0.7
v -3.1 4.2 -0.8
v -3 4.2 -0.8
v -2.9 4.2 -0.8
v -3.1 4.2 -0.9
v -2.9 4.2 -0.9
v -2.5 4.3 -0.2
v -2.3 4.3 -0.2
v -2.6 4.3 -0.3
v -2.5 4.3 -0.3
v -2.3 4.3 -0.3
v -2.6 4.3 -0.4
v -2.5 4.3 -0.4
v -2.5 3.8 0.1
v -2.4 3.8 0.1
v -2.5 3.8 0
v -2.4 3.8 0
v -1.5 3.8 -0.1
v -1.4 3.8 -0.1
v -1.5 3.8 -0.2
v -1.5 3.8 -0.3
v -1.4 3.8 -0.3
v -1.6 3.8 -0.4
v -1.5 3.8 -0.4
v -1.6 3.8 -0.6
v -1.5 3.8 -0.6
v -1.7 3.8 -0.7
v -1.6 3.8 -0.7
v -3.1 3.8 -0.9
v -3 3.8 -0.9
v -1.7 3.8 -0.9
v -1.6 3.8 -0.9
v -1.5 3.8 -0.9
v -3.1 3.8 -1
v -3 3.8 -1
v -1.8 3.8 -1
v -1.6 3.8 -1
v -1.9 3.8 -1.1
v -1.8 3.8 -1.1
v -1.5 3.8 -1.1
v -1.9 3.8 -1.2
v -1.8 3.8 -1.2
v -2.6 3.9 0.1
v -2.5 3.9 0.1
v -2.2 3.9 0.1
v -2.1 3.9 0.1
v -2.6 3.9 0
v -2.5 3.9 0
v -2.4 3.9 0
v -2.3 3.9 0
v -2.2 3.9 0
v -2.1 3.9 0
v -2.4 3.9 -0.1
v -2.3 3.9 -0.1
v -3.1 3.9 -0.6
v -3 3.9 -0.6
v -3.1 3.9 -0.9
v -3 3.9 -0.9
v -1.7 3.9 -0.9
v -1.6 3.9 -0.9
v -1.7 3.9 -1
v -1.6 3.9 -1
v -2 3.9 -1.1
v -1.9 3.9 -1.1
v -2 3.9 -1.2
v -1.9 3.9 -1.2
v -2.7 4 0.1
v -2.6 4 0.1
v -2.1 4 0.1
v -2 4 0.1
v -2.8 4 0
v -2.7 4 0
v -2.6 4 0
v -2.1 4 0
v -2 4 0
v -1.7 4 0
v -1.6 4 0
v -2.8 4 -0.1
v -2.6 4 -0.1
v -2.4 4 -0.1
v -2.3 4 -0.1
v -1.8 4 -0.1
v -1.7 4 -0.1
v -1.6 4 -0.1
v -1.5 4 -0.1
v -3.2 4 -0.2
v -3.1 4 -0.2
v -3 4 -0.2
v -2.4 4 -0.2
v -2.3 4 -0.2
v -3.2 4 -0.4
v -3.1 4 -0.4
v -1.6 4 -0.4
v -1.5 4 -0.4
v -3 4 -0.5
v -2.9 4 -0.5
v -2.6 4 -0.5
v -2.5 4 -0.5
v -1.9 4 -0.5
v -1.8 4 -0.5
v -1.7 4 -0.5
v -1.6 4 -0.5
v -3.1 4 -0.6
v -3 4 -0.6
v -2.9 4 -0.6
v -2.8 4 -0.6
v -2.6 4 -0.6
v -2.5 4 -0.6
v -1.7 4 -0.6
v -1.6 4 -0.6
v -2.9 4 -0.7
v -2.8 4 -0.7
v -1.7 4 -0.7
v -1.6 4 -0.7
v -3 4 -0.8
v -2.9 4 -0.8
v -3.2 4 -1
v -3.1 4 -1
v -2.1 4 -1
v -1.9 4 -1
v -3.2 4 -1.1
v -3.1 4 -1.1
v -2.2 4 -1.1
v -2.1 4 -1.1
v -2 4 -1.1
v -1.7 4 -1.1
v -2.2 4 -1.2
v -2 4 -1.2
v -3.2 4.1 0.2
v -2.7 4.1 0.2
v -2.2 4.1 0.2
v -2.1 4.1 0.2
v -3.2 4.1 0.1
v -3.1 4.1 0.1
v -2.9 4.1 0.1
v -2.7 4.1 0.1
v -2.5 4.1 0.1
v -2.4 4.1 0.1
v -2.3 4.1 0.1
v -2.2 4.1 0.1
v -2.1 4.1 0.1
v -2 4.1 0.1
v -1.8 4.1 0.1
v -3.2 4.1 0
v -3.1 4.1 0
v -2.8 4.1 0
v -2.7 4.1 0
v -2.5 4.1 0
v -2.4 4.1 0
v -2.3 4.1 0
v -2.2 4.1 0
v -2 4.1 0
v -1.8 4.1 0
v -1.7 4.1 0
v -3.1 4.1 -0.1
v -2.9 4.1 -0.1
v -2.8 4.1 -0.1
v -2.7 4.1 -0.1
v -2.4 4.1 -0.1
v -2.3 4.1 -0.1
v -2.2 4.1 -0.1
v -2 4.1 -0.1
v -1.8 4.1 -0.1
v -1.7 4.1 -0.1
v -3.2 4.1 -0.2
v -3.1 4.1 -0.2
v -3 4.1 -0.2
v -2.7 4.1 -0.2
v -2.6 4.1 -0.2
v -2.5 4.1 -0.2
v -2.4 4.1 -0.2
v -2.3 4.1 -0.2
v -2.2 4.1 -0.2
v -1.9 4.1 -0.2
v -1.8 4.1 -0.2
v -2.7 4.1 -0.3
v -2.6 4.1 -0.3
v -2.5 4.1 -0.3
v -2.8 4.1 -0.4
v -2.7 4.1 -0.4
v -2.1 4.1 -0.4
v -2 4.1 -0.4
v -1.9 4.1 -0.4
v -1.8 4.1 -0.4
v -3 4.1 -0.5
v -2.9 4.1 -0.5
v -2.8 4.1 -0.5
v -2.7 4.1 -0.5
v -2.3 4.1 -0.5
v -2.2 4.1 -0.5
v -1.9 4.1 -0.5
v -1.8 4.1 -0.5
v -1.7 4.1 -0.5
v -1.6 4.1 -0.5
v -2.9 4.1 -0.6
v -2.8 4.1 -0.6
v -2.2 4.1 -0.6
v -2.1 4.1 -0.6
v -2 4.1 -0.6
v -1.7 4.1 -0.6
v -1.6 4.1 -0.6
v -2.9 4.1 -0.7
v -2.8 4.1 -0.7
v -2.7 4.1 -0.7
v -3 4.1 -0.8
v -2.9 4.1 -0.8
v -2.8 4.1 -0.8
v -2.2 4.1 -0.8
v -2.1 4.1 -0.8
v -3 4.1 -0.9
v -2.9 4.1 -0.9
v -2.8 4.1 -0.9
v -2.6 4.1 -0.9
v -2.2 4.1 -0.9
v -2 4.1 -0.9
v -2.8 4.1 -1
v -2.7 4.1 -1
v -2.6 4.1 -1
v -2.4 4.1 -1
v -2.1 4.1 -1
v -1.9 4.1 -1
v -2.6 4.1 -1.1
v -2.4 4.1 -1.1
v -2.3 4.1 -1.1
v -2.2 4.1 -1.1
v -2.1 4.1 -1.1
v -3.1 4.1 -1.2
v -2.9 4.1 -1.2
v -2.7 4.1 -1.2
v -2.3 4.1 -1.2
v -2.2 4.1 -1.2
v -3.1 4.1 -1.3
v -2.9 4.1 -1.3
v -2.7 4.1 -1.3
v -2.3 4.1 -1.3
v -3.2 4.2 0.1
v -3.1 4.2 0.1
v -3 4.2 0.1
v -2.9 4.2 0.1
v -3.2 4.2 0
v -3.1 4.2 0
v -3 4.2 0
v -2.7 4.2 0
v -2.6 4.2 0
v -2.5 4.2 0
v -3.1 4.2 -0.1
v -2.9 4.2 -0.1
v -2.4 4.2 -0.1
v -2.3 4.2 -0.1
v -2.1 4.2 -0.1
v -2 4.2 -0.1
v -2.7 4.2 -0.2
v -2.6 4.2 -0.2
v -2.5 4.2 -0.2
v -2.4 4.2 -0.2
v -2.3 4.2 -0.2
v -1.9 4.2 -0.2
v -1.8 4.2 -0.2
v -2.7 4.2 -0.3
v -2.6 4.2 -0.3
v -2.5 4.2 -0.3
v -2.3 4.2 -0.3
v -2.2 4.2 -0.3
v -2.1 4.2 -0.3
v -2.8 4.2 -0.4
v -2.7 4.2 -0.4
v -2.6 4.2 -0.4
v -2.5 4.2 -0.4
v -2.4 4.2 -0.4
v -2.3 4.2 -0.4
v -2.2 4.2 -0.4
v -2.1 4.2 -0.4
v -2 4.2 -0.4
v -1.9 4.2 -0.4
v -1.8 4.2 -0.4
v -2.8 4.2 -0.5
v -2.7 4.2 -0.5
v -2.3 4.2 -0.5
v -2.2 4.2 -0.5
v -2.4 4.2 -0.6
v -2.3 4.2 -0.6
v -2.2 4.2 -0.6
v -2.1 4.2 -0.6
v -2 4.2 -0.6
v -2.8 4.2 -0.8
v -2.6 4.2 -0.8
v -2.2 4.2 -0.8
v -2.1 4.2 -0.8
v -3.1 4.2 -0.9
v -3 4.2 -0.9
v -2.9 4.2 -0.9
v -2.8 4.2 -0.9
v -2.6 4.2 -0.9
v -2.5 4.2 -0.9
v -2.2 4.2 -0.9
v -2 4.2 -0.9
v -3 4.2 -1
v -2.9 4.2 -1
v -2.8 4.2 -1
v -2.7 4.2 -1
v -2.6 4.2 -1
v -2.4 4.2 -1
v -2.4 4.2 -1.1
v -2.3 4.2 -1.1
v -3.1 4.2 -1.2
v -2.9 4.2 -1.2
v -2.7 4.2 -1.2
v -2.9 4.2 -1.3
v -2.7 4.2 -1.3
v -3.1 4.3 0.1
v -3 4.3 0.1
v -3.1 4.3 0
v -3 4.3 0
v -2.2 4.3 -0.1
v -2.1 4.3 -0.1
v -2.3 4.3 -0.2
v -2.2 4.3 -0.2
v -2.5 4.3 -0.3
v -2.3 4.3 -0.3
v -2.2 4.3 -0.3
v -2.1 4.3 -0.3
v -2.7 4.3 -0.4
v -2.6 4.3 -0.4
v -2.5 4.3 -0.4
v -2.4 4.3 -0.4
v -2.3 4.3 -0.4
v -2.2 4.3 -0.4
v -2.8 4.3 -0.5
v -2.7 4.3 -0.5
v -2.4 4.3 -0.6
v -2.3 4.3 -0.6
v -3 4.3 -0.7
v -2.9 4.3 -0.7
v -3.1 4.3 -0.8
v -3 4.3 -0.8
v -2.9 4.3 -0.8
v -2.8 4.3 -0.8
v -2.6 4.3 -0.8
v -3.1 4.3 -0.9
v -3 4.3 -0.9
v -2.9 4.3 -0.9
v -2.8 4.3 -0.9
v -2.6 4.3 -0.9
v -2.5 4.3 -0.9
v -3 4.3 -1
v -2.9 4.3 -1
v -2.5 4.4 -0.2
v -2.3 4.4 -0.2
v -2.6 4.4 -0.3
v -2.5 4.4 -0.3
v -2.3 4.4 -0.3
v -2.6 4.4 -0.4
v -2.5 4.4 -0.4

# faces
f 5/2/1 2/2/1 1/2/1
f 6/2/1 2/2/1 5/2/1
f 7/2/1 4/2/1 3/2/1
f 8/2/1 4/2/1 7/2/1
f 9/2/1 5/2/1 1/2/1
f 10/2/1 5/2/1 9/2/1
f 11/2/1 5/2/1 10/2/1
f 12/2/1 5/2/1 11/2/1
f 13/2/1 11/2/1 10/2/1
f 14/2/1 11/2/1 13/2/1
f 19/1/1 16/1/1 15/1/1
f 20/1/1 18/1/1 17/1/1
f 21/1/1 18/1/1 20/1/1
f 23/1/1 19/1/1 15/1/1
f 23/1/1 20/1/1 19/1/1
f 24/1/1 20/1/1 23/1/1
f 25/1/1 20/1/1 24/1/1
f 26/1/1 20/1/1 25/1/1
f 27/1/1 22/1/1 21/1/1
f 28/1/1 22/1/1 27/1/1
f 29/1/1 22/1/1 28/1/1
f 31/1/1 25/1/1 24/1/1
f 32/1/1 25/1/1 31/1/1
f 33/1/1 27/1/1 26/1/1
f 34/1/1 29/1/1 28/1/1
f 37/2/1 30/2/1 29/2/1
f 37/1/1 34/1/1 33/1/1
f 37/1/1 29/1/1 34/1/1
f 38/2/1 30/2/1 37/2/1
f 40/1/1 36/1/1 35/1/1
f 41/1/1 36/1/1 40/1/1
f 43/1/1 33/1/1 26/1/1
f 43/1/1 37/1/1 33/1/1
f 44/1/1 37/1/1 43/1/1
f 45/1/1 40/1/1 39/1/1
f 46/1/1 40/1/1 45/1/1
f 47/1/1 43/1/1 42/1/1
f 48/1/1 43/1/1 47/1/1
f 53/1/1 50/1/1 49/1/1
f 54/1/1 50/1/1 53/1/1
f 55/1/1 52/1/1 51/1/1
f 56/1/1 52/1/1 55/1/1
f 58/1/1 55/1/1 54/1/1
f 59/1/1 55/1/1 58/1/1
f 62/1/1 58/1/1 57/1/1
f 63/1/1 58/1/1 62/1/1
f 64/1/1 61/1/1 60/1/1
f 65/1/1 61/1/1 64/1/1
f 66/1/1 58/1/1 63/1/1
f 67/1/1 58/1/1 66/1/1
f 72/1/1 69/1/1 68/1/1
f 73/1/1 69/1/1 72/1/1
f 74/1/1 71/1/1 70/1/1
f 75/1/1 71/1/1 74/1/1
f 80/1/1 77/1/1 76/1/1
f 81/1/1 77/1/1 80/1/1
f 82/1/1 79/1/1 78/1/1
f 83/1/1 79/1/1 82/1/1
f 87/1/1 84/1/1 83/1/1
f 88/1/1 84/1/1 87/1/1
f 89/2/1 86/2/1 85/2/1
f 90/2/1 86/2/1 89/2/1
f 95/1/1 92/1/1 91/1/1
f 96/1/1 92/1/1 95/1/1
f 98/1/1 94/1/1 93/1/1
f 99/1/1 94/1/1 98/1/1
f 100/1/1 97/1/1 96/1/1
f 101/1/1 100/1/1 99/1/1
f 102/1/1 97/1/1 100/1/1
f 102/1/1 100/1/1 101/1/1
f 110/1/1 104/1/1 103/1/1
f 110/1/1 105/1/1 104/1/1
f 111/1/1 105/1/1 110/1/1
f 112/1/1 107/1/1 106/1/1
f 113/1/1 107/1/1 112/1/1
f 114/1/1 109/1/1 108/1/1
f 115/1/1 109/1/1 114/1/1
f 116/1/1 114/1/1 113/1/1
f 117/1/1 114/1/1 116/1/1
f 120/3/1 119/3/1 118/3/1
f 121/3/1 119/3/1 120/3/1
f 125/3/1 123/3/1 122/3/1
f 126/3/1 123/3/1 125/3/1
f 129/3/1 125/3/1 124/3/1
f 130/3/1 125/3/1 129/3/1
f 131/3/1 128/3/1 127/3/1
f 132/3/1 128/3/1 131/3/1
f 137/1/1 134/1/1 133/1/1
f 138/1/1 134/1/1 137/1/1
f 141/3/1 136/3/1 135/3/1
f 142/3/1 136/3/1 141/3/1
f 143/3/1 140/3/1 139/3/1
f 144/3/1 140/3/1 143/3/1
f 147/3/1 145/3/1 144/3/1
f 148/3/1 145/3/1 147/3/1
f 149/3/1 147/3/1 146/3/1
f 150/3/1 147/3/1 149/3/1
f 155/3/1 152/3/1 151/3/1
f 156/3/1 152/3/1 155/3/1
f 159/3/1 154/3/1 153/3/1
f 160/3/1 154/3/1 159/3/1
f 161/3/1 158/3/1 157/3/1
f 162/3/1 158/3/1 161/3/1
f 166/3/1 165/3/1 164/3/1
f 168/1/1 164/1/1 163/1/1
f 169/3/1 167/3/1 166/3/1
f 169/1/1 164/1/1 168/1/1
f 169/3/1 166/3/1 164/3/1
f 170/3/1 167/3/1 169/3/1
f 171/3/1 167/3/1 170/3/1
f 174/3/1 173/3/1 172/3/1
f 175/3/1 173/3/1 174/3/1
f 178/1/1 177/1/1 176/1/1
f 179/1/1 177/1/1 178/1/1
f 182/2/1 181/2/1 180/2/1
f 183/2/1 181/2/1 182/2/1
f 190/3/1 187/3/1 186/3/1
f 191/3/1 187/3/1 190/3/1
f 192/3/1 189/3/1 188/3/1
f 193/3/1 189/3/1 192/3/1
f 194/3/1 185/3/1 184/3/1
f 195/3/1 185/3/1 194/3/1
f 198/1/1 197/1/1 196/1/1
f 199/1/1 197/1/1 198/1/1
f 202/3/1 201/3/1 200/3/1
f 203/3/1 201/3/1 202/3/1
f 206/1/1 205/1/1 204/1/1
f 207/1/1 205/1/1 206/1/1
f 210/1/1 209/1/1 208/1/1
f 211/1/1 209/1/1 210/1/1
f 214/3/1 213/3/1 212/3/1
f 215/3/1 213/3/1 214/3/1
f 218/3/1 217/3/1 216/3/1
f 219/3/1 217/3/1 218/3/1
f 222/3/1 221/3/1 220/3/1
f 223/3/1 221/3/1 222/3/1
f 226/3/1 225/3/1 224/3/1
f 227/3/1 225/3/1 226/3/1
f 228/1/2 229/1/2 230/1/2
f 230/1/2 229/1/2 231/1/2
f 232/1/2 233/1/2 234/1/2
f 234/1/2 233/1/2 235/1/2
f 236/1/2 237/1/2 240/1/2
f 240/1/2 237/1/2 241/1/2
f 238/1/2 239/1/2 242/1/2
f 242/1/2 239/1/2 243/1/2
f 244/1/2 245/1/2 246/1/2
f 246/1/2 245/1/2 247/1/2
f 248/1/2 249/1/2 251/1/2
f 251/1/2 249/1/2 252/1/2
f 250/1/2 251/1/2 253/1/2
f 253/1/2 251/1/2 254/1/2
f 255/2/2 256/2/2 259/2/2
f 257/2/2 258/2/2 261/2/2
f 261/2/2 258/2/2 262/2/2
f 255/2/2 259/2/2 263/2/2
f 259/1/2 260/1/2 264/1/2
f 263/2/2 259/2/2 264/2/2
f 264/1/2 260/1/2 265/1/2
f 266/1/2 267/1/2 269/1/2
f 267/2/2 268/2/2 270/2/2
f 269/1/2 267/1/2 270/1/2
f 270/2/2 268/2/2 271/2/2
f 272/1/2 273/1/2 274/1/2
f 274/1/2 273/1/2 275/1/2
f 276/1/2 277/1/2 278/1/2
f 278/1/2 277/1/2 279/1/2
f 280/1/2 281/1/2 282/1/2
f 282/1/2 281/1/2 283/1/2
f 284/3/2 285/3/2 286/3/2
f 286/3/2 285/3/2 287/3/2
f 288/3/2 289/3/2 291/3/2
f 291/3/2 289/3/2 292/3/2
f 290/3/2 291/3/2 293/3/2
f 293/3/2 291/3/2 294/3/2
f 295/1/2 296/1/2 297/1/2
f 297/1/2 296/1/2 298/1/2
f 299/3/2 300/3/2 302/3/2
f 302/3/2 300/3/2 303/3/2
f 301/1/2 302/1/2 305/1/2
f 303/3/2 304/3/2 306/3/2
f 305/1/2 302/1/2 306/1/2
f 302/3/2 303/3/2 306/3/2
f 306/3/2 304/3/2 307/3/2
f 307/3/2 304/3/2 308/3/2
f 309/2/2 310/2/2 315/2/2
f 315/2/2 310/2/2 316/2/2
f 311/3/2 312/3/2 317/3/2
f 317/3/2 312/3/2 318/3/2
f 313/3/2 314/3/2 320/3/2
f 320/3/2 314/3/2 321/3/2
f 321/3/2 314/3/2 322/3/2
f 319/3/2 320/3/2 325/3/2
f 320/3/2 321/3/2 325/3/2
f 325/3/2 321/3/2 326/3/2
f 323/3/2 324/3/2 327/3/2
f 327/3/2 324/3/2 328/3/2
f 329/1/2 330/1/2 331/1/2
f 331/1/2 330/1/2 334/1/2
f 334/1/2 330/1/2 335/1/2
f 332/1/2 333/1/2 336/1/2
f 336/1/2 333/1/2 337/1/2
f 338/3/2 339/3/2 340/3/2
f 340/3/2 339/3/2 341/3/2
f 342/1/2 343/1/2 344/1/2
f 344/1/2 343/1/2 345/1/2
f 346/2/2 347/2/2 350/2/2
f 350/2/2 347/2/2 351/2/2
f 348/3/2 349/3/2 354/3/2
f 354/3/2 349/3/2 355/3/2
f 352/3/2 353/3/2 358/3/2
f 358/3/2 353/3/2 359/3/2
f 356/3/2 357/3/2 360/3/2
f 360/3/2 357/3/2 361/3/2
f 362/1/2 363/1/2 364/1/2
f 364/1/2 363/1/2 365/1/2
f 366/3/2 367/3/2 370/3/2
f 370/3/2 367/3/2 371/3/2
f 368/3/2 369/3/2 372/3/2
f 372/3/2 369/3/2 373/3/2
f 374/1/2 375/1/2 376/1/2
f 376/1/2 375/1/2 377/1/2
f 378/1/2 379/1/2 380/1/2
f 380/1/2 379/1/2 381/1/2
f 382/3/2 383/3/2 384/3/2
f 384/3/2 383/3/2 385/3/2
f 386/3/2 387/3/2 391/3/2
f 388/1/2 389/1/2 393/1/2
f 393/1/2 389/1/2 394/1/2
f 390/1/2 391/1/2 395/1/2
f 391/3/2 387/3/2 395/3/2
f 395/3/2 387/3/2 396/3/2
f 392/3/2 393/3/2 397/3/2
f 397/3/2 393/3/2 398/3/2
f 390/1/2 395/1/2 401/1/2
f 401/1/2 395/1/2 402/1/2
f 399/3/2 400/3/2 403/3/2
f 403/3/2 400/3/2 404/3/2
f 404/3/2 400/3/2 405/3/2
f 405/3/2 400/3/2 406/3/2
f 404/3/2 405/3/2 407/3/2
f 407/3/2 405/3/2 408/3/2
f 409/3/2 410/3/2 411/3/2
f 409/3/2 411/3/2 416/3/2
f 411/3/2 412/3/2 416/3/2
f 412/3/2 413/3/2 416/3/2
f 416/3/2 413/3/2 417/3/2
f 414/3/2 415/3/2 418/3/2
f 418/3/2 415/3/2 419/3/2
f 422/3/2 423/3/2 425/3/2
f 425/3/2 423/3/2 426/3/2
f 426/3/2 423/3/2 427/3/2
f 420/3/2 421/3/2 429/3/2
f 429/3/2 421/3/2 430/3/2
f 427/3/2 428/3/2 431/3/2
f 431/3/2 428/3/2 432/3/2
f 420/3/2 429/3/2 433/3/2
f 433/3/2 429/3/2 434/3/2
f 424/3/2 425/3/2 435/3/2
f 425/3/2 426/3/2 435/3/2
f 435/3/2 426/3/2 436/3/2
f 436/3/2 426/3/2 437/3/2
f 437/3/2 426/3/2 438/3/2
f 436/3/2 437/3/2 439/3/2
f 439/3/2 437/3/2 440/3/2
f 441/3/2 442/3/2 446/3/2
f 446/3/2 442/3/2 447/3/2
f 447/3/2 442/3/2 448/3/2
f 443/3/2 444/3/2 449/3/2
f 449/3/2 444/3/2 450/3/2
f 445/3/2 446/3/2 452/3/2
f 446/3/2 447/3/2 452/3/2
f 451/3/2 452/3/2 453/3/2
f 452/3/2 447/3/2 454/3/2
f 453/3/2 452/3/2 454/3/2
f 455/3/2 456/3/2 457/3/2
f 457/3/2 456/3/2 458/3/2
f 461/2/3 460/2/3 459/2/3
f 462/2/3 460/2/3 461/2/3
f 465/2/3 464/2/3 463/2/3
f 466/2/3 464/2/3 465/2/3
f 471/2/3 468/2/3 467/2/3
f 472/2/3 468/2/3 471/2/3
f 474/1/3 472/1/3 471/1/3
f 474/1/3 473/1/3 472/1/3
f 475/1/3 473/1/3 474/1/3
f 476/1/3 474/1/3 471/1/3
f 477/1/3 474/1/3 476/1/3
f 478/1/3 470/1/3 469/1/3
f 480/1/3 478/1/3 469/1/3
f 480/1/3 479/1/3 478/1/3
f 481/1/3 479/1/3 480/1/3
f 482/1/3 480/1/3 469/1/3
f 483/1/3 480/1/3 482/1/3
f 486/1/3 482/1/3 469/1/3
f 487/1/3 482/1/3 486/1/3
f 488/1/3 485/1/3 484/1/3
f 489/1/3 485/1/3 488/1/3
f 493/1/3 491/1/3 490/1/3
f 494/1/3 491/1/3 493/1/3
f 495/1/3 491/1/3 494/1/3
f 496/1/3 493/1/3 492/1/3
f 497/1/3 493/1/3 496/1/3
f 500/1/3 498/1/3 497/1/3
f 501/1/3 498/1/3 500/1/3
f 503/1/3 500/1/3 499/1/3
f 503/1/3 502/1/3 501/1/3
f 503/1/3 501/1/3 500/1/3
f 504/1/3 502/1/3 503/1/3
f 505/1/3 502/1/3 504/1/3
f 506/1/3 502/1/3 505/1/3
f 511/1/3 508/1/3 507/1/3
f 512/1/3 508/1/3 511/1/3
f 514/3/3 510/3/3 509/3/3
f 514/3/3 511/3/3 510/3/3
f 514/3/3 512/3/3 511/3/3
f 515/3/3 512/3/3 514/3/3
f 516/3/3 512/3/3 515/3/3
f 517/3/3 512/3/3 516/3/3
f 519/3/3 514/3/3 513/3/3
f 519/3/3 515/3/3 514/3/3
f 520/3/3 515/3/3 519/3/3
f 521/3/3 515/3/3 520/3/3
f 522/3/3 519/3/3 518/3/3
f 522/3/3 520/3/3 519/3/3
f 523/3/3 522/3/3 518/3/3
f 524/3/3 522/3/3 523/3/3
f 526/3/3 523/3/3 518/3/3
f 527/3/3 525/3/3 524/3/3
f 528/3/3 525/3/3 527/3/3
f 529/3/3 526/3/3 518/3/3
f 529/3/3 527/3/3 526/3/3
f 530/3/3 527/3/3 529/3/3
f 531/3/3 525/3/3 528/3/3
f 532/3/3 525/3/3 531/3/3
f 535/3/3 534/3/3 533/3/3
f 536/3/3 534/3/3 535/3/3
f 540/3/3 538/3/3 537/3/3
f 541/3/3 538/3/3 540/3/3
f 542/3/3 538/3/3 541/3/3
f 543/3/3 540/3/3 539/3/3
f 543/3/3 541/3/3 540/3/3
f 544/3/3 541/3/3 543/3/3
f 547/1/3 546/1/3 545/1/3
f 548/1/3 547/1/3 545/1/3
f 549/1/3 547/1/3 548/1/3
f 554/3/3 551/3/3 550/3/3
f 555/3/3 551/3/3 554/3/3
f 556/3/3 553/3/3 552/3/3
f 557/3/3 553/3/3 556/3/3
f 560/3/3 559/3/3 558/3/3
f 561/3/3 559/3/3 560/3/3
f 562/3/3 560/3/3 558/3/3
f 563/3/3 560/3/3 562/3/3
f 566/3/3 565/3/3 564/3/3
f 567/3/3 565/3/3 566/3/3
f 572/3/3 569/3/3 568/3/3
f 573/3/3 569/3/3 572/3/3
f 574/3/3 571/3/3 570/3/3
f 575/3/3 571/3/3 574/3/3
f 581/3/3 577/3/3 576/3/3
f 582/3/3 577/3/3 581/3/3
f 583/3/3 581/3/3 580/3/3
f 584/3/3 581/3/3 583/3/3
f 586/3/3 579/3/3 578/3/3
f 587/3/3 579/3/3 586/3/3
f 588/3/3 585/3/3 584/3/3
f 588/3/3 586/3/3 585/3/3
f 589/3/3 586/3/3 588/3/3
f 592/3/3 591/3/3 590/3/3
f 593/3/3 591/3/3 592/3/3
f 596/3/3 595/3/3 594/3/3
f 597/3/3 595/3/3 596/3/3
f 598/3/3 595/3/3 597/3/3
f 601/1/3 600/1/3 599/1/3
f 602/1/3 600/1/3 601/1/3
f 605/3/3 602/3/3 601/3/3
f 606/3/3 602/3/3 605/3/3
f 607/3/3 604/3/3 603/3/3
f 608/3/3 604/3/3 607/3/3
f 609/3/3 607/3/3 606/3/3
f 610/3/3 607/3/3 609/3/3
f 613/1/3 612/1/3 611/1/3
f 614/1/3 612/1/3 613/1/3
f 616/1/3 615/1/3 614/1/3
f 617/1/3 615/1/3 616/1/3
f 618/3/3 617/3/3 616/3/3
f 619/3/3 617/3/3 618/3/3
f 622/1/3 621/1/3 620/1/3
f 623/1/3 621/1/3 622/1/3
f 626/3/3 625/3/3 624/3/3
f 627/3/3 625/3/3 626/3/3
f 630/3/3 629/3/3 628/3/3
f 631/3/3 629/3/3 630/3/3
f 634/3/3 633/3/3 632/3/3
f 635/3/3 633/3/3 634/3/3
f 640/1/3 637/1/3 636/1/3
f 641/1/3 637/1/3 640/1/3
f 642/1/3 639/1/3 638/1/3
f 643/1/3 639/1/3 642/1/3
f 645/1/3 644/1/3 643/1/3
f 646/1/3 644/1/3 645/1/3
f 651/1/3 648/1/3 647/1/3
f 652/1/3 648/1/3 651/1/3
f 653/1/3 650/1/3 649/1/3
f 654/1/3 650/1/3 653/1/3
f 657/1/3 656/1/3 655/1/3
f 657/1/3 655/1/3 654/1/3
f 658/1/3 656/1/3 657/1/3
f 661/3/3 660/3/3 659/3/3
f 662/3/3 660/3/3 661/3/3
f 667/1/3 664/1/3 663/1/3
f 668/1/3 664/1/3 667/1/3
f 669/1/3 666/1/3 665/1/3
f 670/1/3 666/1/3 669/1/3
f 671/1/3 666/1/3 670/1/3
f 672/1/3 666/1/3 671/1/3
f 676/3/3 674/3/3 673/3/3
f 677/3/3 674/3/3 676/3/3
f 678/3/3 676/3/3 675/3/3
f 679/3/3 676/3/3 678/3/3
f 683/2/3 681/2/3 680/2/3
f 684/2/3 681/2/3 683/2/3
f 685/1/3 683/1/3 682/1/3
f 686/1/3 683/1/3 685/1/3
f 689/1/3 688/1/3 687/1/3
f 690/1/3 688/1/3 689/1/3
f 691/2/4 692/2/4 693/2/4
f 693/2/4 692/2/4 694/2/4
f 695/2/4 696/2/4 697/2/4
f 697/2/4 696/2/4 698/2/4
f 698/1/4 699/1/4 700/1/4
f 700/1/4 699/1/4 701/1/4
f 702/1/4 703/1/4 704/1/4
f 704/1/4 703/1/4 705/1/4
f 706/1/4 707/1/4 708/1/4
f 708/1/4 707/1/4 709/1/4
f 710/3/4 711/3/4 712/3/4
f 712/3/4 711/3/4 713/3/4
f 714/2/4 715/2/4 716/2/4
f 716/2/4 715/2/4 717/2/4
f 716/1/4 717/1/4 718/1/4
f 718/1/4 717/1/4 719/1/4
f 720/1/4 721/1/4 722/1/4
f 722/1/4 721/1/4 723/1/4
f 722/3/4 723/3/4 724/3/4
f 724/3/4 723/3/4 725/3/4
f 726/3/4 727/3/4 728/3/4
f 728/3/4 727/3/4 729/3/4
f 730/3/4 731/3/4 732/3/4
f 732/3/4 731/3/4 733/3/4
f 734/3/4 735/3/4 736/3/4
f 736/3/4 735/3/4 737/3/4
f 738/2/4 739/2/4 740/2/4
f 740/2/4 739/2/4 741/2/4
f 742/3/4 743/3/4 745/3/4
f 745/3/4 743/3/4 746/3/4
f 744/3/4 745/3/4 747/3/4
f 747/3/4 745/3/4 748/3/4
f 749/3/4 750/3/4 751/3/4
f 751/3/4 750/3/4 752/3/4
f 753/3/4 754/3/4 755/3/4
f 755/3/4 754/3/4 756/3/4
f 757/3/4 758/3/4 759/3/4
f 759/3/4 758/3/4 760/3/4
f 761/3/4 762/3/4 763/3/4
f 763/3/4 762/3/4 764/3/4
f 765/1/4 766/1/4 767/1/4
f 767/1/4 766/1/4 768/1/4
f 769/1/4 770/1/4 771/1/4
f 771/1/4 770/1/4 772/1/4
f 773/3/4 774/3/4 775/3/4
f 775/3/4 774/3/4 776/3/4
f 777/3/4 778/3/4 779/3/4
f 779/3/4 778/3/4 780/3/4
f 781/3/4 782/3/4 783/3/4
f 783/3/4 782/3/4 784/3/4
f 785/1/4 786/1/4 787/1/4
f 787/1/4 786/1/4 788/1/4
f 789/1/4 790/1/4 791/1/4
f 791/1/4 790/1/4 792/1/4
f 793/3/4 794/3/4 795/3/4
f 795/3/4 794/3/4 796/3/4
f 797/3/4 798/3/4 799/3/4
f 799/3/4 798/3/4 800/3/4
f 801/3/4 802/3/4 805/3/4
f 805/3/4 802/3/4 806/3/4
f 803/3/4 804/3/4 807/3/4
f 807/3/4 804/3/4 808/3/4
f 809/1/4 810/1/4 811/1/4
f 811/1/4 810/1/4 812/1/4
f 813/3/4 814/3/4 815/3/4
f 815/3/4 814/3/4 816/3/4
f 817/1/4 818/1/4 819/1/4
f 819/1/4 818/1/4 820/1/4
f 821/1/4 822/1/4 825/1/4
f 825/1/4 822/1/4 826/1/4
f 823/1/4 824/1/4 827/1/4
f 827/1/4 824/1/4 828/1/4
f 829/1/4 830/1/4 832/1/4
f 832/1/4 830/1/4 833/1/4
f 831/1/4 832/1/4 834/1/4
f 834/1/4 832/1/4 835/1/4
f 835/3/4 836/3/4 837/3/4
f 837/3/4 836/3/4 838/3/4
f 839/3/4 840/3/4 841/3/4
f 841/3/4 840/3/4 842/3/4
f 843/1/4 844/1/4 845/1/4
f 845/1/4 844/1/4 846/1/4
f 847/1/4 848/1/4 849/1/4
f 849/1/4 848/1/4 850/1/4
f 851/3/4 852/3/4 853/3/4
f 853/3/4 852/3/4 854/3/4
f 855/3/4 856/3/4 857/3/4
f 857/3/4 856/3/4 858/3/4
f 859/3/4 860/3/4 861/3/4
f 859/3/4 861/3/4 862/3/4
f 862/3/4 861/3/4 863/3/4
f 864/2/4 865/2/4 866/2/4
f 866/2/4 865/2/4 867/2/4
f 868/3/4 869/3/4 870/3/4
f 870/3/4 869/3/4 871/3/4
f 872/3/4 873/3/4 874/3/4
f 874/3/4 873/3/4 875/3/4
f 876/3/4 877/3/4 879/3/4
f 878/3/4 879/3/4 881/3/4
f 879/3/4 877/3/4 882/3/4
f 881/3/4 879/3/4 882/3/4
f 882/3/4 877/3/4 883/3/4
f 883/3/4 877/3/4 884/3/4
f 880/3/4 881/3/4 885/3/4
f 885/3/4 881/3/4 886/3/4
f 887/1/4 888/1/4 892/1/4
f 889/1/4 890/1/4 893/1/4
f 893/1/4 890/1/4 894/1/4
f 891/1/4 892/1/4 895/1/4
f 892/1/4 888/1/4 895/1/4
f 895/1/4 896/1/4 897/1/4
f 895/1/4 897/1/4 899/1/4
f 897/1/4 898/1/4 899/1/4
f 899/1/4 898/1/4 900/1/4
f 891/1/4 895/1/4 901/1/4
f 895/1/4 899/1/4 901/1/4
f 901/1/4 899/1/4 902/1/4
f 891/1/4 901/1/4 903/1/4
f 903/1/4 901/1/4 904/1/4
f 891/1/4 903/1/4 905/1/4
f 905/1/4 903/1/4 906/1/4
f 907/2/4 908/2/4 909/2/4
f 907/2/4 909/2/4 911/2/4
f 909/2/4 910/2/4 911/2/4
f 911/2/4 910/2/4 912/2/4
f 912/2/4 910/2/4 913/2/4
f 913/2/4 910/2/4 914/2/4
f 912/2/4 913/2/4 915/2/4
f 915/2/4 913/2/4 916/2/4
f 921/1/5 918/1/5 917/1/5
f 922/1/5 918/1/5 921/1/5
f 923/1/5 920/1/5 919/1/5
f 924/1/5 920/1/5 923/1/5
f 928/3/5 922/3/5 921/3/5
f 928/3/5 923/3/5 922/3/5
f 928/3/5 925/3/5 924/3/5
f 928/3/5 924/3/5 923/3/5
f 929/3/5 927/3/5 926/3/5
f 932/3/5 927/3/5 929/3/5
f 932/3/5 929/3/5 928/3/5
f 933/3/5 931/3/5 930/3/5
f 934/3/5 931/3/5 933/3/5
f 934/3/5 933/3/5 932/3/5
f 935/3/5 931/3/5 934/3/5
f 936/3/5 932/3/5 928/3/5
f 936/3/5 934/3/5 932/3/5
f 937/3/5 934/3/5 936/3/5
f 938/1/5 921/1/5 917/1/5
f 939/1/5 921/1/5 938/1/5
f 941/1/5 921/1/5 939/1/5
f 942/3/5 936/3/5 928/3/5
f 944/1/5 941/1/5 940/1/5
f 945/1/5 921/1/5 941/1/5
f 945/1/5 941/1/5 944/1/5
f 946/3/5 928/3/5 921/3/5
f 946/1/5 921/1/5 945/1/5
f 946/3/5 942/3/5 928/3/5
f 946/3/5 943/3/5 942/3/5
f 947/3/5 943/3/5 946/3/5
f 948/3/5 943/3/5 947/3/5
f 949/1/5 946/1/5 945/1/5
f 949/1/5 947/1/5 946/1/5
f 950/1/5 947/1/5 949/1/5
f 955/1/5 952/1/5 951/1/5
f 956/1/5 952/1/5 955/1/5
f 957/1/5 954/1/5 953/1/5
f 958/1/5 954/1/5 957/1/5
f 961/1/5 960/1/5 959/1/5
f 962/1/5 960/1/5 961/1/5
f 965/1/5 964/1/5 963/1/5
f 966/1/5 964/1/5 965/1/5
f 969/2/5 968/2/5 967/2/5
f 970/2/5 968/2/5 969/2/5
f 975/1/5 972/1/5 971/1/5
f 976/1/5 972/1/5 975/1/5
f 977/1/5 974/1/5 973/1/5
f 978/1/5 974/1/5 977/1/5
f 981/3/5 980/3/5 979/3/5
f 982/3/5 980/3/5 981/3/5
f 985/3/5 984/3/5 983/3/5
f 986/3/5 984/3/5 985/3/5
f 987/2/5 969/2/5 967/2/5
f 988/2/5 969/2/5 987/2/5
f 992/1/5 990/1/5 989/1/5
f 993/1/5 990/1/5 992/1/5
f 996/2/5 992/2/5 991/2/5
f 997/2/5 992/2/5 996/2/5
f 998/3/5 995/3/5 994/3/5
f 999/3/5 995/3/5 998/3/5
f 1002/2/5 1001/2/5 1000/2/5
f 1003/2/5 1001/2/5 1002/2/5
f 1008/2/5 1005/2/5 1004/2/5
f 1009/2/5 1005/2/5 1008/2/5
f 1010/1/5 1007/1/5 1006/1/5
f 1011/1/5 1007/1/5 1010/1/5
f 1014/2/5 1013/2/5 1012/2/5
f 1015/2/5 1013/2/5 1014/2/5
f 1018/1/5 1017/1/5 1016/1/5
f 1019/1/5 1017/1/5 1018/1/5
f 1022/3/5 1021/3/5 1020/3/5
f 1023/3/5 1021/3/5 1022/3/5
f 1026/3/5 1025/3/5 1024/3/5
f 1027/3/5 1025/3/5 1026/3/5
f 1032/1/5 1029/1/5 1028/1/5
f 1033/1/5 1029/1/5 1032/1/5
f 1035/1/5 1031/1/5 1030/1/5
f 1036/1/5 1031/1/5 1035/1/5
f 1037/1/5 1035/1/5 1034/1/5
f 1037/1/5 1036/1/5 1035/1/5
f 1038/1/5 1036/1/5 1037/1/5
f 1042/3/5 1040/3/5 1039/3/5
f 1043/3/5 1040/3/5 1042/3/5
f 1044/3/5 1042/3/5 1041/3/5
f 1045/3/5 1042/3/5 1044/3/5
f 1046/1/6 1047/1/6 1048/1/6
f 1048/1/6 1047/1/6 1049/1/6
f 1050/3/6 1051/3/6 1052/3/6
f 1052/3/6 1051/3/6 1053/3/6
f 1053/3/6 1051/3/6 1054/3/6
f 1055/3/6 1056/3/6 1057/3/6
f 1057/3/6 1056/3/6 1058/3/6
f 1059/3/6 1060/3/6 1063/3/6
f 1063/3/6 1060/3/6 1064/3/6
f 1061/1/6 1062/1/6 1066/1/6
f 1066/1/6 1062/1/6 1067/1/6
f 1064/3/6 1065/3/6 1069/3/6
f 1068/3/6 1069/3/6 1071/3/6
f 1069/3/6 1065/3/6 1072/3/6
f 1071/3/6 1069/3/6 1072/3/6
f 1070/1/6 1071/1/6 1073/1/6
f 1073/1/6 1071/1/6 1074/1/6
f 1075/1/6 1076/1/6 1079/1/6
f 1079/1/6 1076/1/6 1080/1/6
f 1077/1/6 1078/1/6 1083/1/6
f 1083/1/6 1078/1/6 1084/1/6
f 1081/3/6 1082/3/6 1085/3/6
f 1085/3/6 1082/3/6 1086/3/6
f 1087/1/6 1088/1/6 1089/1/6
f 1089/1/6 1088/1/6 1090/1/6
f 1091/3/6 1092/3/6 1093/3/6
f 1093/3/6 1092/3/6 1094/3/6
f 1095/1/6 1096/1/6 1097/1/6
f 1097/1/6 1096/1/6 1098/1/6
f 1099/1/6 1100/1/6 1104/1/6
f 1104/1/6 1100/1/6 1105/1/6
f 1101/1/6 1102/1/6 1106/1/6
f 1106/1/6 1102/1/6 1107/1/6
f 1104/1/6 1105/1/6 1110/1/6
f 1103/1/6 1104/1/6 1110/1/6
f 1110/1/6 1105/1/6 1111/1/6
f 1108/3/6 1109/3/6 1115/3/6
f 1115/3/6 1109/3/6 1116/3/6
f 1112/3/6 1113/3/6 1121/3/6
f 1121/3/6 1113/3/6 1122/3/6
f 1118/2/6 1119/2/6 1123/2/6
f 1119/1/6 1120/1/6 1124/1/6
f 1123/2/6 1119/2/6 1124/2/6
f 1116/3/6 1117/3/6 1125/3/6
f 1114/3/6 1115/3/6 1125/3/6
f 1115/3/6 1116/3/6 1125/3/6
f 1125/3/6 1117/3/6 1126/3/6
f 1124/1/6 1120/1/6 1127/1/6
f 1114/3/6 1125/3/6 1132/3/6
f 1132/3/6 1125/3/6 1133/3/6
f 1133/3/6 1125/3/6 1134/3/6
f 1124/1/6 1127/1/6 1135/1/6
f 1127/1/6 1128/1/6 1135/1/6
f 1135/1/6 1128/1/6 1136/1/6
f 1136/1/6 1128/1/6 1137/1/6
f 1129/3/6 1130/3/6 1139/3/6
f 1139/3/6 1130/3/6 1140/3/6
f 1132/3/6 1133/3/6 1141/3/6
f 1131/3/6 1132/3/6 1141/3/6
f 1137/1/6 1138/1/6 1143/1/6
f 1136/1/6 1137/1/6 1143/1/6
f 1143/1/6 1138/1/6 1144/1/6
f 1141/3/6 1142/3/6 1145/3/6
f 1131/3/6 1141/3/6 1145/3/6
f 1145/3/6 1142/3/6 1146/3/6
f 1136/1/6 1143/1/6 1147/1/6
f 1147/1/6 1143/1/6 1148/1/6
f 1131/3/6 1145/3/6 1152/3/6
f 1149/2/6 1150/2/6 1153/2/6
f 1153/2/6 1150/2/6 1154/2/6
f 1151/3/6 1152/3/6 1156/3/6
f 1156/3/6 1152/3/6 1157/3/6
f 1152/3/6 1145/3/6 1158/3/6
f 1157/3/6 1152/3/6 1158/3/6
f 1156/1/6 1157/1/6 1159/1/6
f 1155/1/6 1156/1/6 1159/1/6
f 1159/1/6 1157/1/6 1160/1/6
f 1161/2/6 1162/2/6 1165/2/6
f 1165/2/6 1162/2/6 1166/2/6
f 1166/2/6 1162/2/6 1167/2/6
f 1167/2/6 1162/2/6 1168/2/6
f 1163/2/6 1164/2/6 1172/2/6
f 1172/2/6 1164/2/6 1173/2/6
f 1167/1/6 1168/1/6 1178/1/6
f 1178/1/6 1168/1/6 1179/1/6
f 1169/1/6 1170/1/6 1180/1/6
f 1180/1/6 1170/1/6 1181/1/6
f 1171/1/6 1172/1/6 1182/1/6
f 1182/1/6 1172/1/6 1183/1/6
f 1174/1/6 1175/1/6 1184/1/6
f 1184/1/6 1175/1/6 1185/1/6
f 1176/2/6 1177/2/6 1187/2/6
f 1167/1/6 1178/1/6 1188/1/6
f 1188/1/6 1178/1/6 1189/1/6
f 1180/3/6 1181/3/6 1191/3/6
f 1185/3/6 1186/3/6 1192/3/6
f 1182/3/6 1183/3/6 1192/3/6
f 1184/3/6 1185/3/6 1192/3/6
f 1183/3/6 1184/3/6 1192/3/6
f 1192/3/6 1186/3/6 1193/3/6
f 1193/3/6 1186/3/6 1194/3/6
f 1194/3/6 1186/3/6 1195/3/6
f 1195/3/6 1186/3/6 1196/3/6
f 1176/2/6 1187/2/6 1197/2/6
f 1188/1/6 1189/1/6 1198/1/6
f 1197/2/6 1187/2/6 1198/2/6
f 1189/1/6 1190/1/6 1198/1/6
f 1187/1/6 1188/1/6 1198/1/6
f 1198/1/6 1190/1/6 1199/1/6
f 1199/1/6 1190/1/6 1200/1/6
f 1180/3/6 1191/3/6 1202/3/6
f 1202/3/6 1191/3/6 1203/3/6
f 1192/3/6 1193/3/6 1204/3/6
f 1204/3/6 1193/3/6 1205/3/6
f 1194/3/6 1195/3/6 1206/3/6
f 1206/3/6 1195/3/6 1207/3/6
f 1200/1/6 1201/1/6 1208/1/6
f 1199/1/6 1200/1/6 1208/1/6
f 1201/3/6 1202/3/6 1209/3/6
f 1208/1/6 1201/1/6 1209/1/6
f 1209/3/6 1202/3/6 1210/3/6
f 1199/1/6 1208/1/6 1211/1/6
f 1211/1/6 1208/1/6 1212/1/6
f 1194/3/6 1206/3/6 1214/3/6
f 1214/3/6 1206/3/6 1215/3/6
f 1199/1/6 1211/1/6 1217/1/6
f 1217/1/6 1211/1/6 1218/1/6
f 1218/1/6 1211/1/6 1219/1/6
f 1215/3/6 1216/3/6 1223/3/6
f 1214/3/6 1215/3/6 1223/3/6
f 1213/3/6 1214/3/6 1223/3/6
f 1223/3/6 1216/3/6 1224/3/6
f 1219/1/6 1220/1/6 1227/1/6
f 1218/1/6 1219/1/6 1227/1/6
f 1227/1/6 1220/1/6 1228/1/6
f 1221/3/6 1222/3/6 1229/3/6
f 1213/3/6 1223/3/6 1230/3/6
f 1230/3/6 1223/3/6 1231/3/6
f 1225/3/6 1226/3/6 1232/3/6
f 1232/3/6 1226/3/6 1233/3/6
f 1228/1/6 1220/1/6 1235/1/6
f 1235/1/6 1220/1/6 1236/1/6
f 1234/1/6 1235/1/6 1238/1/6
f 1238/1/6 1235/1/6 1239/1/6
f 1221/3/6 1229/3/6 1240/3/6
f 1229/3/6 1230/3/6 1240/3/6
f 1240/3/6 1230/3/6 1241/3/6
f 1237/1/6 1238/1/6 1242/1/6
f 1242/1/6 1238/1/6 1243/1/6
f 1221/3/6 1240/3/6 1246/3/6
f 1231/3/6 1223/3/6 1247/3/6
f 1244/1/6 1245/1/6 1248/1/6
f 1248/1/6 1245/1/6 1249/1/6
f 1249/1/6 1245/1/6 1250/1/6
f 1246/3/6 1247/3/6 1252/3/6
f 1247/3/6 1223/3/6 1253/3/6
f 1252/3/6 1247/3/6 1253/3/6
f 1250/3/6 1251/3/6 1254/3/6
f 1249/1/6 1250/1/6 1254/1/6
f 1254/3/6 1251/3/6 1255/3/6
f 1221/3/6 1246/3/6 1256/3/6
f 1246/3/6 1252/3/6 1256/3/6
f 1256/3/6 1252/3/6 1257/3/6
f 1257/3/6 1252/3/6 1258/3/6
f 1254/1/6 1255/1/6 1261/1/6
f 1249/1/6 1254/1/6 1261/1/6
f 1255/1/6 1256/1/6 1261/1/6
f 1256/1/6 1257/1/6 1261/1/6
f 1261/1/6 1257/1/6 1262/1/6
f 1262/1/6 1257/1/6 1263/1/6
f 1259/2/6 1260/2/6 1264/2/6
f 1264/2/6 1260/2/6 1265/2/6
f 1261/2/6 1262/2/6 1266/2/6
f 1266/2/6 1262/2/6 1267/2/6
f 1268/2/6 1269/2/6 1272/2/6
f 1272/2/6 1269/2/6 1273/2/6
f 1270/1/6 1271/1/6 1274/1/6
f 1273/1/6 1274/1/6 1278/1/6
f 1274/1/6 1271/1/6 1279/1/6
f 1278/1/6 1274/1/6 1279/1/6
f 1275/1/6 1276/1/6 1284/1/6
f 1276/3/6 1277/3/6 1285/3/6
f 1284/1/6 1276/1/6 1285/1/6
f 1285/3/6 1277/3/6 1286/3/6
f 1280/3/6 1281/3/6 1287/3/6
f 1287/3/6 1281/3/6 1288/3/6
f 1287/3/6 1288/3/6 1293/3/6
f 1286/3/6 1287/3/6 1293/3/6
f 1293/3/6 1288/3/6 1294/3/6
f 1282/3/6 1283/3/6 1296/3/6
f 1291/1/6 1292/1/6 1298/1/6
f 1292/3/6 1293/3/6 1299/3/6
f 1298/1/6 1292/1/6 1299/1/6
f 1299/3/6 1293/3/6 1300/3/6
f 1295/3/6 1296/3/6 1303/3/6
f 1296/3/6 1283/3/6 1304/3/6
f 1303/3/6 1296/3/6 1304/3/6
f 1304/3/6 1283/3/6 1305/3/6
f 1289/3/6 1290/3/6 1306/3/6
f 1306/3/6 1290/3/6 1307/3/6
f 1297/1/6 1298/1/6 1308/1/6
f 1308/1/6 1298/1/6 1309/1/6
f 1302/3/6 1303/3/6 1310/3/6
f 1303/3/6 1304/3/6 1310/3/6
f 1310/3/6 1304/3/6 1311/3/6
f 1300/3/6 1301/3/6 1312/3/6
f 1311/3/6 1304/3/6 1314/3/6
f 1314/3/6 1304/3/6 1315/3/6
f 1315/3/6 1316/3/6 1320/3/6
f 1317/1/6 1318/1/6 1324/1/6
f 1324/1/6 1318/1/6 1325/1/6
f 1312/3/6 1313/3/6 1326/3/6
f 1300/3/6 1312/3/6 1326/3/6
f 1319/3/6 1320/3/6 1327/3/6
f 1320/3/6 1316/3/6 1328/3/6
f 1327/3/6 1320/3/6 1328/3/6
f 1321/1/6 1322/1/6 1329/1/6
f 1323/1/6 1324/1/6 1330/1/6
f 1330/1/6 1324/1/6 1331/1/6
f 1325/3/6 1326/3/6 1333/3/6
f 1326/3/6 1313/3/6 1334/3/6
f 1333/3/6 1326/3/6 1334/3/6
f 1334/3/6 1313/3/6 1335/3/6
f 1335/3/6 1313/3/6 1336/3/6
f 1321/1/6 1329/1/6 1337/1/6
f 1331/1/6 1332/1/6 1337/1/6
f 1329/1/6 1330/1/6 1337/1/6
f 1330/1/6 1331/1/6 1337/1/6
f 1337/1/6 1332/1/6 1338/1/6
f 1338/1/6 1332/1/6 1339/1/6
f 1338/2/6 1339/2/6 1340/2/6
f 1340/2/6 1339/2/6 1341/2/6
f 1342/1/6 1343/1/6 1344/1/6
f 1344/1/6 1343/1/6 1345/1/6
f 1346/3/6 1347/3/6 1349/3/6
f 1348/3/6 1349/3/6 1351/3/6
f 1349/3/6 1347/3/6 1352/3/6
f 1351/3/6 1349/3/6 1352/3/6
f 1352/3/6 1347/3/6 1353/3/6
f 1350/3/6 1351/3/6 1356/3/6
f 1351/3/6 1352/3/6 1356/3/6
f 1356/3/6 1352/3/6 1357/3/6
f 1357/3/6 1352/3/6 1358/3/6
f 1358/3/6 1352/3/6 1359/3/6
f 1354/1/6 1355/1/6 1361/1/6
f 1357/3/6 1358/3/6 1362/3/6
f 1362/3/6 1358/3/6 1363/3/6
f 1364/1/6 1365/1/6 1367/1/6
f 1367/1/6 1365/1/6 1368/1/6
f 1360/1/6 1361/1/6 1369/1/6
f 1355/3/6 1356/3/6 1370/3/6
f 1361/1/6 1355/1/6 1370/1/6
f 1369/1/6 1361/1/6 1370/1/6
f 1367/1/6 1368/1/6 1371/1/6
f 1368/1/6 1369/1/6 1371/1/6
f 1366/1/6 1367/1/6 1371/1/6
f 1371/1/6 1369/1/6 1372/1/6
f 1372/1/6 1369/1/6 1373/1/6
f 1373/1/6 1369/1/6 1374/1/6
f 1370/3/6 1356/3/6 1375/3/6
f 1375/3/6 1356/3/6 1376/3/6
f 1372/1/6 1373/1/6 1377/1/6
f 1377/1/6 1373/1/6 1378/1/6
f 1379/3/6 1380/3/6 1382/3/6
f 1382/3/6 1380/3/6 1383/3/6
f 1381/3/6 1382/3/6 1384/3/6
f 1384/3/6 1382/3/6 1385/3/6
