# MagicaVoxel @ Ephtracy

# group
o 

# material
mtllib trans13_1.mtl
usemtl palette

# normals
vn -1 0 0
vn 1 0 0
vn 0 0 1
vn 0 0 -1
vn 0 -1 0
vn 0 1 0

# texcoords
vt 0.728516 0.5
vt 0.751953 0.5
vt 0.755859 0.5
vt 0.958984 0.5
vt 0.974609 0.5

# verts
v -0.3 0 0.1
v -0.3 0 0
v -0.3 0.2 0.1
v -0.3 0.2 0
v -0.3 0.6 0.2
v -0.3 0.6 0.1
v -0.3 0.6 0
v -0.3 0.6 -0.1
v -0.3 0.7 0.2
v -0.3 0.7 -0.1
v -0.3 1 0.2
v -0.3 1 0
v -0.3 1.1 0
v -0.3 1.1 -0.1
v 0 0.7 0.2
v 0 0.7 0.1
v 0 0.8 0.2
v 0 0.8 0.1
v 0.1 0 0.1
v 0.1 0 0
v 0.1 0.2 0.1
v 0.1 0.2 0
v 0.1 0.6 0.1
v 0.1 0.6 0
v 0.1 0.8 0.1
v 0.1 0.8 0
v 0.1 0.9 0.1
v 0.1 0.9 0
v -0.2 0 0.1
v -0.2 0 0
v -0.2 0.2 0.1
v -0.2 0.2 0
v -0.2 0.6 0.1
v -0.2 0.6 0
v -0.2 0.7 0.2
v -0.2 0.7 0.1
v -0.2 0.8 0.1
v -0.2 0.8 0
v -0.2 1 0.2
v -0.2 1 0
v -0.2 1 -0.1
v -0.2 1.1 0
v -0.2 1.1 -0.1
v -0.1 0.9 0
v -0.1 0.9 -0.1
v -0.1 1 0
v -0.1 1 -0.1
v 0.1 0.8 0
v 0.1 0.8 -0.1
v 0.1 0.9 0
v 0.1 0.9 -0.1
v 0.2 0 0.1
v 0.2 0 0
v 0.2 0.2 0.1
v 0.2 0.2 0
v 0.2 0.6 0.2
v 0.2 0.6 0.1
v 0.2 0.6 0
v 0.2 0.6 -0.1
v 0.2 0.8 0.2
v 0.2 0.8 0.1
v 0.2 0.8 0
v 0.2 0.8 -0.1
v 0.2 0.9 0.1
v 0.2 0.9 0
v -0.3 0.6 0.2
v -0.3 0.7 0.2
v -0.3 1 0.2
v -0.2 0.7 0.2
v -0.2 1 0.2
v 0 0.7 0.2
v 0 0.8 0.2
v 0.1 0.7 0.2
v 0.1 0.8 0.2
v 0.2 0.6 0.2
v 0.2 0.8 0.2
v -0.3 0 0.1
v -0.3 0.2 0.1
v -0.3 0.6 0.1
v -0.2 0 0.1
v -0.2 0.2 0.1
v -0.2 0.6 0.1
v -0.2 0.7 0.1
v -0.2 0.8 0.1
v 0 0.7 0.1
v 0 0.8 0.1
v 0.1 0 0.1
v 0.1 0.2 0.1
v 0.1 0.6 0.1
v 0.1 0.8 0.1
v 0.1 0.9 0.1
v 0.2 0 0.1
v 0.2 0.2 0.1
v 0.2 0.6 0.1
v 0.2 0.8 0.1
v 0.2 0.9 0.1
v -0.3 1 0
v -0.3 1.1 0
v -0.2 0.8 0
v -0.2 1 0
v -0.2 1.1 0
v -0.1 0.8 0
v -0.1 0.9 0
v -0.1 1 0
v 0.1 0.8 0
v 0.1 0.9 0
v -0.3 0 0
v -0.3 0.2 0
v -0.3 0.6 0
v -0.2 0 0
v -0.2 0.2 0
v -0.2 0.6 0
v 0.1 0 0
v 0.1 0.2 0
v 0.1 0.6 0
v 0.1 0.8 0
v 0.1 0.9 0
v 0.2 0 0
v 0.2 0.2 0
v 0.2 0.6 0
v 0.2 0.8 0
v 0.2 0.9 0
v -0.3 0.6 -0.1
v -0.3 0.7 -0.1
v -0.3 1.1 -0.1
v -0.2 0.7 -0.1
v -0.2 0.8 -0.1
v -0.2 1 -0.1
v -0.2 1.1 -0.1
v -0.1 0.8 -0.1
v -0.1 0.9 -0.1
v -0.1 1 -0.1
v 0 0.7 -0.1
v 0 0.8 -0.1
v 0.1 0.7 -0.1
v 0.1 0.8 -0.1
v 0.1 0.9 -0.1
v 0.2 0.6 -0.1
v 0.2 0.8 -0.1
v -0.3 0 0.1
v -0.2 0 0.1
v 0.1 0 0.1
v 0.2 0 0.1
v -0.3 0 0
v -0.2 0 0
v 0.1 0 0
v 0.2 0 0
v -0.3 0.6 0.2
v 0.2 0.6 0.2
v -0.3 0.6 0.1
v -0.2 0.6 0.1
v 0.1 0.6 0.1
v 0.2 0.6 0.1
v -0.3 0.6 0
v -0.2 0.6 0
v 0.1 0.6 0
v 0.2 0.6 0
v -0.3 0.6 -0.1
v 0.2 0.6 -0.1
v -0.2 0.7 0.2
v 0 0.7 0.2
v -0.2 0.7 0.1
v 0 0.7 0.1
v 0 0.8 0.2
v 0.1 0.8 0.2
v 0.2 0.8 0.2
v -0.2 0.8 0.1
v 0 0.8 0.1
v 0.1 0.8 0.1
v 0.2 0.8 0.1
v -0.2 0.8 0
v -0.1 0.8 0
v 0.1 0.8 0
v 0.2 0.8 0
v 0.1 0.8 -0.1
v 0.2 0.8 -0.1
v 0.1 0.9 0.1
v 0.2 0.9 0.1
v -0.1 0.9 0
v 0.1 0.9 0
v 0.2 0.9 0
v -0.1 0.9 -0.1
v 0.1 0.9 -0.1
v -0.3 1 0.2
v -0.2 1 0.2
v -0.3 1 0
v -0.2 1 0
v -0.1 1 0
v -0.2 1 -0.1
v -0.1 1 -0.1
v -0.3 1.1 0
v -0.2 1.1 0
v -0.3 1.1 -0.1
v -0.2 1.1 -0.1

# faces
f 3/5/1 2/5/1 1/5/1
f 4/5/1 2/5/1 3/5/1
f 6/4/1 4/4/1 3/4/1
f 7/4/1 4/4/1 6/4/1
f 9/3/1 7/3/1 6/3/1
f 9/3/1 8/3/1 7/3/1
f 9/3/1 6/3/1 5/3/1
f 10/3/1 8/3/1 9/3/1
f 11/1/1 10/1/1 9/1/1
f 12/1/1 10/1/1 11/1/1
f 13/1/1 10/1/1 12/1/1
f 14/1/1 10/1/1 13/1/1
f 17/4/1 16/4/1 15/4/1
f 18/4/1 16/4/1 17/4/1
f 21/5/1 20/5/1 19/5/1
f 22/5/1 20/5/1 21/5/1
f 23/4/1 22/4/1 21/4/1
f 24/4/1 22/4/1 23/4/1
f 27/3/1 26/3/1 25/3/1
f 28/3/1 26/3/1 27/3/1
f 29/5/2 30/5/2 31/5/2
f 31/5/2 30/5/2 32/5/2
f 31/4/2 32/4/2 33/4/2
f 33/4/2 32/4/2 34/4/2
f 35/1/2 36/1/2 37/1/2
f 35/1/2 37/1/2 39/1/2
f 37/1/2 38/1/2 39/1/2
f 39/1/2 38/1/2 40/1/2
f 40/1/2 41/1/2 42/1/2
f 42/1/2 41/1/2 43/1/2
f 44/4/2 45/4/2 46/4/2
f 46/4/2 45/4/2 47/4/2
f 48/2/2 49/2/2 50/2/2
f 50/2/2 49/2/2 51/2/2
f 52/5/2 53/5/2 54/5/2
f 54/5/2 53/5/2 55/5/2
f 54/4/2 55/4/2 57/4/2
f 57/4/2 55/4/2 58/4/2
f 57/3/2 58/3/2 60/3/2
f 58/3/2 59/3/2 60/3/2
f 56/3/2 57/3/2 60/3/2
f 60/3/2 59/3/2 61/3/2
f 61/3/2 59/3/2 62/3/2
f 62/3/2 59/3/2 63/3/2
f 61/3/2 62/3/2 64/3/2
f 64/3/2 62/3/2 65/3/2
f 69/3/3 67/3/3 66/3/3
f 69/1/3 68/1/3 67/1/3
f 70/1/3 68/1/3 69/1/3
f 71/3/3 69/3/3 66/3/3
f 73/3/3 71/3/3 66/3/3
f 73/4/3 72/4/3 71/4/3
f 74/4/3 72/4/3 73/4/3
f 75/3/3 73/3/3 66/3/3
f 75/3/3 74/3/3 73/3/3
f 76/3/3 74/3/3 75/3/3
f 80/5/3 78/5/3 77/5/3
f 81/4/3 79/4/3 78/4/3
f 81/5/3 78/5/3 80/5/3
f 82/4/3 79/4/3 81/4/3
f 85/2/3 84/2/3 83/2/3
f 86/2/3 84/2/3 85/2/3
f 92/5/3 88/5/3 87/5/3
f 93/4/3 89/4/3 88/4/3
f 93/5/3 88/5/3 92/5/3
f 94/4/3 89/4/3 93/4/3
f 95/3/3 91/3/3 90/3/3
f 96/3/3 91/3/3 95/3/3
f 100/1/3 98/1/3 97/1/3
f 101/1/3 98/1/3 100/1/3
f 102/4/3 100/4/3 99/4/3
f 103/4/3 100/4/3 102/4/3
f 104/4/3 100/4/3 103/4/3
f 105/2/3 103/2/3 102/2/3
f 106/2/3 103/2/3 105/2/3
f 107/5/4 108/5/4 110/5/4
f 108/4/4 109/4/4 111/4/4
f 110/5/4 108/5/4 111/5/4
f 111/4/4 109/4/4 112/4/4
f 113/5/4 114/5/4 118/5/4
f 114/4/4 115/4/4 119/4/4
f 118/5/4 114/5/4 119/5/4
f 119/4/4 115/4/4 120/4/4
f 116/3/4 117/3/4 121/3/4
f 121/3/4 117/3/4 122/3/4
f 123/3/4 124/3/4 126/3/4
f 124/1/4 125/1/4 126/1/4
f 126/1/4 125/1/4 127/1/4
f 127/1/4 125/1/4 128/1/4
f 128/1/4 125/1/4 129/1/4
f 126/2/4 127/2/4 130/2/4
f 127/4/4 128/4/4 130/4/4
f 130/4/4 128/4/4 131/4/4
f 131/4/4 128/4/4 132/4/4
f 123/3/4 126/3/4 133/3/4
f 126/2/4 130/2/4 133/2/4
f 130/2/4 131/2/4 133/2/4
f 133/2/4 131/2/4 134/2/4
f 123/3/4 133/3/4 135/3/4
f 133/4/4 134/4/4 135/4/4
f 134/2/4 131/2/4 136/2/4
f 135/4/4 134/4/4 136/4/4
f 136/2/4 131/2/4 137/2/4
f 123/3/4 135/3/4 138/3/4
f 135/3/4 136/3/4 138/3/4
f 138/3/4 136/3/4 139/3/4
f 144/5/5 141/5/5 140/5/5
f 145/5/5 141/5/5 144/5/5
f 146/5/5 143/5/5 142/5/5
f 147/5/5 143/5/5 146/5/5
f 150/3/5 149/3/5 148/3/5
f 151/3/5 149/3/5 150/3/5
f 152/3/5 149/3/5 151/3/5
f 153/3/5 149/3/5 152/3/5
f 155/3/5 152/3/5 151/3/5
f 156/3/5 152/3/5 155/3/5
f 158/3/5 155/3/5 154/3/5
f 158/3/5 157/3/5 156/3/5
f 158/3/5 156/3/5 155/3/5
f 159/3/5 157/3/5 158/3/5
f 160/3/6 161/3/6 162/3/6
f 162/3/6 161/3/6 163/3/6
f 164/4/6 165/4/6 168/4/6
f 165/3/6 166/3/6 169/3/6
f 168/4/6 165/4/6 169/4/6
f 169/3/6 166/3/6 170/3/6
f 167/2/6 168/2/6 171/2/6
f 168/2/6 169/2/6 171/2/6
f 171/2/6 169/2/6 172/2/6
f 172/2/6 169/2/6 173/2/6
f 173/3/6 174/3/6 175/3/6
f 175/3/6 174/3/6 176/3/6
f 177/3/6 178/3/6 180/3/6
f 180/3/6 178/3/6 181/3/6
f 179/2/6 180/2/6 182/2/6
f 182/2/6 180/2/6 183/2/6
f 184/1/6 185/1/6 186/1/6
f 186/1/6 185/1/6 187/1/6
f 187/4/6 188/4/6 189/4/6
f 189/4/6 188/4/6 190/4/6
f 191/1/6 192/1/6 193/1/6
f 193/1/6 192/1/6 194/1/6
