# MagicaVoxel @ Ephtracy

# group
o 

# material
mtllib trans13_2.mtl
usemtl palette

# normals
vn -1 0 0
vn 1 0 0
vn 0 0 1
vn 0 0 -1
vn 0 -1 0
vn 0 1 0

# texcoords
vt 0.728516 0.5
vt 0.755859 0.5
vt 0.958984 0.5
vt 0.974609 0.5

# verts
v -0.3 0 0.1
v -0.3 0 0
v -0.3 0.2 0.1
v -0.3 0.2 0
v -0.3 0.6 0.2
v -0.3 0.6 0.1
v -0.3 0.6 0
v -0.3 0.6 -0.1
v -0.3 0.7 0.2
v -0.3 0.7 0
v -0.3 0.7 -0.1
v -0.3 0.8 0
v -0.3 0.8 -0.1
v -0.2 0 0.1
v -0.2 0 0
v -0.2 0.2 0.1
v -0.2 0.2 0
v -0.2 0.6 0.1
v -0.2 0.6 0
v -0.2 0.6 -0.1
v -0.2 0.7 0
v -0.2 0.7 -0.1
v -0.2 0.8 0
v -0.2 0.8 -0.1
v -0.1 0.6 0.2
v -0.1 0.6 0.1
v -0.1 0.7 0.2
v -0.1 0.7 0.1
v 0 0.6 0.1
v 0 0.6 0
v 0 0.7 0.1
v 0 0.7 0
v -0.3 0.6 0.2
v -0.3 0.7 0.2
v -0.1 0.6 0.2
v -0.1 0.7 0.2
v -0.3 0 0.1
v -0.3 0.2 0.1
v -0.3 0.6 0.1
v -0.2 0 0.1
v -0.2 0.2 0.1
v -0.2 0.6 0.1
v -0.1 0.6 0.1
v -0.1 0.7 0.1
v 0 0.6 0.1
v 0 0.7 0.1
v -0.3 0.7 0
v -0.3 0.8 0
v -0.2 0.7 0
v -0.2 0.8 0
v -0.3 0 0
v -0.3 0.2 0
v -0.3 0.6 0
v -0.2 0 0
v -0.2 0.2 0
v -0.2 0.6 0
v -0.2 0.7 0
v 0 0.6 0
v 0 0.7 0
v -0.3 0.6 -0.1
v -0.3 0.7 -0.1
v -0.3 0.8 -0.1
v -0.2 0.6 -0.1
v -0.2 0.7 -0.1
v -0.2 0.8 -0.1
v -0.3 0 0.1
v -0.2 0 0.1
v -0.3 0 0
v -0.2 0 0
v -0.3 0.6 0.2
v -0.1 0.6 0.2
v -0.3 0.6 0.1
v -0.2 0.6 0.1
v -0.1 0.6 0.1
v 0 0.6 0.1
v -0.3 0.6 0
v -0.2 0.6 0
v 0 0.6 0
v -0.3 0.6 -0.1
v -0.2 0.6 -0.1
v -0.3 0.7 0.2
v -0.1 0.7 0.2
v -0.1 0.7 0.1
v 0 0.7 0.1
v -0.3 0.7 0
v -0.2 0.7 0
v 0 0.7 0
v -0.3 0.8 0
v -0.2 0.8 0
v -0.3 0.8 -0.1
v -0.2 0.8 -0.1

# faces
f 3/4/1 2/4/1 1/4/1
f 4/4/1 2/4/1 3/4/1
f 6/3/1 4/3/1 3/3/1
f 7/3/1 4/3/1 6/3/1
f 9/2/1 7/2/1 6/2/1
f 9/2/1 8/2/1 7/2/1
f 9/2/1 6/2/1 5/2/1
f 10/2/1 8/2/1 9/2/1
f 11/2/1 8/2/1 10/2/1
f 12/1/1 11/1/1 10/1/1
f 13/1/1 11/1/1 12/1/1
f 14/4/2 15/4/2 16/4/2
f 16/4/2 15/4/2 17/4/2
f 16/3/2 17/3/2 18/3/2
f 18/3/2 17/3/2 19/3/2
f 19/2/2 20/2/2 21/2/2
f 21/2/2 20/2/2 22/2/2
f 21/1/2 22/1/2 23/1/2
f 23/1/2 22/1/2 24/1/2
f 25/2/2 26/2/2 27/2/2
f 27/2/2 26/2/2 28/2/2
f 29/2/2 30/2/2 31/2/2
f 31/2/2 30/2/2 32/2/2
f 35/2/3 34/2/3 33/2/3
f 36/2/3 34/2/3 35/2/3
f 40/4/3 38/4/3 37/4/3
f 41/3/3 39/3/3 38/3/3
f 41/4/3 38/4/3 40/4/3
f 42/3/3 39/3/3 41/3/3
f 45/2/3 44/2/3 43/2/3
f 46/2/3 44/2/3 45/2/3
f 49/1/3 48/1/3 47/1/3
f 50/1/3 48/1/3 49/1/3
f 51/4/4 52/4/4 54/4/4
f 52/3/4 53/3/4 55/3/4
f 54/4/4 52/4/4 55/4/4
f 55/3/4 53/3/4 56/3/4
f 56/2/4 57/2/4 58/2/4
f 58/2/4 57/2/4 59/2/4
f 60/2/4 61/2/4 63/2/4
f 61/1/4 62/1/4 64/1/4
f 63/2/4 61/2/4 64/2/4
f 64/1/4 62/1/4 65/1/4
f 68/4/5 67/4/5 66/4/5
f 69/4/5 67/4/5 68/4/5
f 72/2/5 71/2/5 70/2/5
f 73/2/5 71/2/5 72/2/5
f 74/2/5 71/2/5 73/2/5
f 77/2/5 75/2/5 74/2/5
f 77/2/5 74/2/5 73/2/5
f 78/2/5 75/2/5 77/2/5
f 79/2/5 77/2/5 76/2/5
f 80/2/5 77/2/5 79/2/5
f 81/2/6 82/2/6 83/2/6
f 81/2/6 83/2/6 85/2/6
f 83/2/6 84/2/6 85/2/6
f 85/2/6 84/2/6 86/2/6
f 86/2/6 84/2/6 87/2/6
f 88/1/6 89/1/6 90/1/6
f 90/1/6 89/1/6 91/1/6
