# MagicaVoxel @ Ephtracy

# group
o 

# material
mtllib trans_3_1.mtl
usemtl palette

# normals
vn -1 0 0
vn 1 0 0
vn 0 0 1
vn 0 0 -1
vn 0 -1 0
vn 0 1 0

# texcoords
vt 0.755859 0.5
vt 0.759766 0.5
vt 0.962891 0.5
vt 0.966797 0.5

# verts
v -0.5 1.3 0.3
v -0.5 1.3 5.96046e-08
v -0.5 1.4 0.3
v -0.5 1.4 5.96046e-08
v -0.5 1.4 -0.1
v -0.5 1.5 5.96046e-08
v -0.5 1.5 -0.1
v -0.4 1.2 0.5
v -0.4 1.2 -0.1
v -0.4 1.3 0.5
v -0.4 1.3 0.4
v -0.4 1.3 0.3
v -0.4 1.3 5.96046e-08
v -0.4 1.4 0.3
v -0.4 1.4 5.96046e-08
v -0.4 1.4 -0.1
v -0.4 1.4 -0.2
v -0.4 1.5 0.4
v -0.4 1.5 0.1
v -0.4 1.5 5.96046e-08
v -0.4 1.5 -0.1
v -0.4 1.5 -0.2
v -0.4 1.6 0.1
v -0.4 1.6 5.96046e-08
v -0.4 1.6 -0.1
v -0.4 1.6 -0.2
v -0.4 1.7 -0.1
v -0.4 1.7 -0.2
v -0.4 1.8 5.96046e-08
v -0.4 1.8 -0.1
v -0.3 0 0.3
v -0.3 0 0.1
v -0.3 0.2 0.3
v -0.3 0.2 0.1
v -0.3 0.5 0.3
v -0.3 0.5 0.2
v -0.3 0.9 0.3
v -0.3 0.9 0.2
v -0.3 1 0.3
v -0.3 1 0.2
v -0.3 1.1 0.3
v -0.3 1.1 0.2
v -0.3 1.2 0.3
v -0.3 1.2 0.1
v -0.3 1.3 0.5
v -0.3 1.3 0.4
v -0.3 1.3 -0.1
v -0.3 1.3 -0.2
v -0.3 1.4 0.5
v -0.3 1.4 0.4
v -0.3 1.4 -0.1
v -0.3 1.4 -0.2
v -0.3 1.5 0.5
v -0.3 1.5 0.4
v -0.3 1.5 0.3
v -0.3 1.5 0.2
v -0.3 1.5 -0.1
v -0.3 1.5 -0.2
v -0.3 1.6 0.3
v -0.3 1.6 0.2
v -0.3 1.6 0.1
v -0.3 1.6 5.96046e-08
v -0.3 1.6 -0.1
v -0.3 1.6 -0.2
v -0.3 1.7 0.1
v -0.3 1.7 5.96046e-08
v -0.3 1.7 -0.1
v -0.3 1.7 -0.2
v -0.3 1.8 -0.1
v -0.3 1.8 -0.2
v -0.2 1.2 -0.1
v -0.2 1.2 -0.2
v -0.2 1.3 0.6
v -0.2 1.3 0.5
v -0.2 1.3 -0.1
v -0.2 1.3 -0.2
v -0.2 1.4 0.6
v -0.2 1.4 0.5
v -0.2 1.8 -0.1
v -0.2 1.8 -0.2
v -0.2 1.9 -0.1
v -0.2 1.9 -0.2
v -0.1 1.5 0.4
v -0.1 1.5 0.3
v -0.1 1.5 0.2
v -0.1 1.5 0.1
v -0.1 1.6 0.4
v -0.1 1.6 0.3
v -0.1 1.6 0.2
v -0.1 1.7 0.3
v -0.1 1.7 0.1
v -0.1 1.7 5.96046e-08
v -0.1 1.8 0.1
v -0.1 1.8 5.96046e-08
v -0.1 1.8 -0.1
v -0.1 1.9 5.96046e-08
v -0.1 1.9 -0.1
v 0 0 0.3
v 0 0 0.2
v 0 0 0.1
v 0 0.2 0.3
v 0 0.2 0.2
v 0 0.4 0.2
v 0 0.4 0.1
v 0 0.5 0.3
v 0 0.5 0.2
v 0 0.6 0.3
v 0 0.6 0.1
v 0 0.9 0.3
v 0 0.9 0.2
v 0 1 0.3
v 0 1 0.2
v 0 1.2 0.3
v 0 1.2 0.1
v 0 1.4 0.6
v 0 1.4 0.5
v 0 1.4 0.4
v 0 1.5 0.6
v 0 1.5 0.4
v 0 1.6 0.4
v 0 1.6 0.3
v 0 1.7 0.4
v 0 1.7 0.3
v 0 1.7 0.2
v 0 1.7 0.1
v 0 1.8 0.1
v 0 1.9 0.2
v 0 1.9 0.1
v 0.1 1.8 0.3
v 0.1 1.8 0.2
v 0.1 1.8 0.1
v 0.1 1.8 5.96046e-08
v 0.1 1.9 0.3
v 0.1 1.9 0.2
v 0.1 1.9 0.1
v 0.1 1.9 5.96046e-08
v 0.2 1.7 0.2
v 0.2 1.7 0.1
v 0.2 1.8 0.2
v 0.2 1.9 0.2
v 0.2 1.9 0.1
v -0.2 0 0.3
v -0.2 0 0.1
v -0.2 0.2 0.3
v -0.2 0.2 0.1
v -0.2 0.5 0.3
v -0.2 0.5 0.2
v -0.2 0.9 0.3
v -0.2 0.9 0.2
v -0.2 1 0.3
v -0.2 1 0.2
v -0.2 1.1 0.3
v -0.2 1.1 0.2
v -0.2 1.2 0.3
v -0.2 1.2 0.1
v -0.2 1.4 0.5
v -0.2 1.4 0.4
v -0.2 1.5 0.5
v -0.2 1.5 0.4
v 0 1.2 -0.1
v 0 1.2 -0.2
v 0 1.3 -0.1
v 0 1.3 -0.2
v 0 1.8 -0.1
v 0 1.8 -0.2
v 0 1.9 -0.1
v 0 1.9 -0.2
v 0.1 0 0.3
v 0.1 0 0.2
v 0.1 0 0.1
v 0.1 0.2 0.3
v 0.1 0.2 0.2
v 0.1 0.4 0.2
v 0.1 0.4 0.1
v 0.1 0.5 0.3
v 0.1 0.5 0.2
v 0.1 0.6 0.3
v 0.1 0.6 0.1
v 0.1 0.9 0.3
v 0.1 0.9 0.2
v 0.1 1 0.3
v 0.1 1 0.2
v 0.1 1.2 0.3
v 0.1 1.2 0.1
v 0.1 1.3 0.6
v 0.1 1.3 0.5
v 0.1 1.3 -0.1
v 0.1 1.3 -0.2
v 0.1 1.4 0.6
v 0.1 1.4 0.5
v 0.1 1.4 -0.1
v 0.1 1.4 -0.2
v 0.1 1.7 0.2
v 0.1 1.7 0.1
v 0.1 1.7 -0.1
v 0.1 1.7 -0.2
v 0.1 1.8 0.2
v 0.1 1.8 -0.1
v 0.1 1.8 -0.2
v 0.1 1.9 0.2
v 0.1 1.9 0.1
v 0.2 1.2 0.5
v 0.2 1.2 0.3
v 0.2 1.2 0.1
v 0.2 1.2 -0.1
v 0.2 1.3 0.4
v 0.2 1.3 0.3
v 0.2 1.3 0.1
v 0.2 1.3 5.96046e-08
v 0.2 1.4 0.6
v 0.2 1.4 0.5
v 0.2 1.4 0.4
v 0.2 1.4 5.96046e-08
v 0.2 1.4 -0.1
v 0.2 1.4 -0.2
v 0.2 1.5 0.6
v 0.2 1.5 0.5
v 0.2 1.7 5.96046e-08
v 0.2 1.7 -0.1
v 0.2 1.7 -0.2
v 0.2 1.8 0.3
v 0.2 1.8 0.2
v 0.2 1.8 0.1
v 0.2 1.8 5.96046e-08
v 0.2 1.9 0.3
v 0.2 1.9 0.2
v 0.2 1.9 0.1
v 0.2 1.9 -0.1
v 0.3 1.2 0.3
v 0.3 1.2 0.1
v 0.3 1.3 0.4
v 0.3 1.3 0.3
v 0.3 1.3 0.1
v 0.3 1.3 5.96046e-08
v 0.3 1.4 0.5
v 0.3 1.4 0.4
v 0.3 1.4 5.96046e-08
v 0.3 1.4 -0.1
v 0.3 1.5 0.5
v 0.3 1.5 0.4
v 0.3 1.7 0.4
v 0.3 1.7 0.2
v 0.3 1.7 5.96046e-08
v 0.3 1.7 -0.1
v 0.3 1.8 0.1
v 0.3 1.8 5.96046e-08
v 0.3 1.9 0.2
v 0.3 1.9 0.1
v -0.2 1.3 0.6
v -0.2 1.4 0.6
v 0 1.4 0.6
v 0 1.5 0.6
v 0.1 1.3 0.6
v 0.1 1.4 0.6
v 0.2 1.4 0.6
v 0.2 1.5 0.6
v -0.4 1.2 0.5
v -0.4 1.3 0.5
v -0.3 1.3 0.5
v -0.3 1.4 0.5
v -0.3 1.5 0.5
v -0.2 1.3 0.5
v -0.2 1.4 0.5
v -0.2 1.5 0.5
v 0.1 1.3 0.5
v 0.1 1.4 0.5
v 0.2 1.2 0.5
v 0.2 1.4 0.5
v 0.2 1.5 0.5
v 0.3 1.4 0.5
v 0.3 1.5 0.5
v -0.4 1.3 0.4
v -0.4 1.5 0.4
v -0.3 1.3 0.4
v -0.3 1.4 0.4
v -0.3 1.5 0.4
v -0.2 1.4 0.4
v -0.2 1.5 0.4
v -0.1 1.5 0.4
v -0.1 1.6 0.4
v 0 1.4 0.4
v 0 1.5 0.4
v 0 1.6 0.4
v 0 1.7 0.4
v 0.2 1.3 0.4
v 0.2 1.4 0.4
v 0.3 1.3 0.4
v 0.3 1.4 0.4
v 0.3 1.5 0.4
v 0.3 1.7 0.4
v -0.5 1.3 0.3
v -0.5 1.4 0.3
v -0.4 1.3 0.3
v -0.4 1.4 0.3
v -0.3 0 0.3
v -0.3 0.2 0.3
v -0.3 0.5 0.3
v -0.3 0.9 0.3
v -0.3 1 0.3
v -0.3 1.1 0.3
v -0.3 1.2 0.3
v -0.3 1.5 0.3
v -0.3 1.6 0.3
v -0.2 0 0.3
v -0.2 0.2 0.3
v -0.2 0.5 0.3
v -0.2 0.9 0.3
v -0.2 1 0.3
v -0.2 1.1 0.3
v -0.2 1.2 0.3
v -0.1 1.5 0.3
v -0.1 1.6 0.3
v -0.1 1.7 0.3
v 0 0 0.3
v 0 0.2 0.3
v 0 0.5 0.3
v 0 0.6 0.3
v 0 0.9 0.3
v 0 1 0.3
v 0 1.2 0.3
v 0 1.6 0.3
v 0 1.7 0.3
v 0.1 0 0.3
v 0.1 0.2 0.3
v 0.1 0.5 0.3
v 0.1 0.6 0.3
v 0.1 0.9 0.3
v 0.1 1 0.3
v 0.1 1.2 0.3
v 0.1 1.8 0.3
v 0.1 1.9 0.3
v 0.2 1.2 0.3
v 0.2 1.3 0.3
v 0.2 1.8 0.3
v 0.2 1.9 0.3
v 0.3 1.2 0.3
v 0.3 1.3 0.3
v -0.3 0.5 0.2
v -0.3 0.9 0.2
v -0.3 1 0.2
v -0.3 1.1 0.2
v -0.2 0.5 0.2
v -0.2 0.9 0.2
v -0.2 1 0.2
v -0.2 1.1 0.2
v 0 0.9 0.2
v 0 1 0.2
v 0 1.7 0.2
v 0 1.9 0.2
v 0.1 0.9 0.2
v 0.1 1 0.2
v 0.1 1.7 0.2
v 0.1 1.8 0.2
v 0.1 1.9 0.2
v 0.2 1.7 0.2
v 0.2 1.8 0.2
v 0.2 1.9 0.2
v 0.3 1.7 0.2
v 0.3 1.9 0.2
v -0.4 1.5 0.1
v -0.4 1.6 0.1
v -0.3 1.6 0.1
v -0.3 1.7 0.1
v -0.1 1.5 0.1
v -0.1 1.7 0.1
v -0.1 1.8 0.1
v 0 1.7 0.1
v 0 1.8 0.1
v 0.1 1.7 0.1
v 0.1 1.9 0.1
v 0.2 1.7 0.1
v 0.2 1.9 0.1
v -0.5 1.4 5.96046e-08
v -0.5 1.5 5.96046e-08
v -0.4 1.4 5.96046e-08
v -0.4 1.5 5.96046e-08
v -0.4 1.6 5.96046e-08
v -0.4 1.8 5.96046e-08
v -0.3 1.6 5.96046e-08
v -0.3 1.7 5.96046e-08
v -0.1 1.7 5.96046e-08
v -0.1 1.8 5.96046e-08
v -0.1 1.9 5.96046e-08
v 0.1 1.8 5.96046e-08
v 0.1 1.9 5.96046e-08
v -0.2 1.8 -0.1
v -0.2 1.9 -0.1
v -0.1 1.8 -0.1
v -0.1 1.9 -0.1
v -0.3 1.5 0.2
v -0.3 1.6 0.2
v -0.1 1.5 0.2
v -0.1 1.6 0.2
v 0 0.4 0.2
v 0 0.5 0.2
v 0.1 0.4 0.2
v 0.1 0.5 0.2
v 0.1 1.8 0.2
v 0.1 1.9 0.2
v 0.2 1.8 0.2
v 0.2 1.9 0.2
v -0.3 0 0.1
v -0.3 0.2 0.1
v -0.3 1.2 0.1
v -0.2 0 0.1
v -0.2 0.2 0.1
v -0.2 1.2 0.1
v 0 0 0.1
v 0 0.4 0.1
v 0 0.6 0.1
v 0 1.2 0.1
v 0 1.8 0.1
v 0 1.9 0.1
v 0.1 0 0.1
v 0.1 0.4 0.1
v 0.1 0.6 0.1
v 0.1 1.2 0.1
v 0.1 1.8 0.1
v 0.1 1.9 0.1
v 0.2 1.2 0.1
v 0.2 1.3 0.1
v 0.2 1.8 0.1
v 0.2 1.9 0.1
v 0.3 1.2 0.1
v 0.3 1.3 0.1
v 0.3 1.8 0.1
v 0.3 1.9 0.1
v -0.5 1.3 5.96046e-08
v -0.5 1.4 5.96046e-08
v -0.4 1.3 5.96046e-08
v -0.4 1.4 5.96046e-08
v 0.2 1.3 5.96046e-08
v 0.2 1.4 5.96046e-08
v 0.2 1.7 5.96046e-08
v 0.2 1.8 5.96046e-08
v 0.3 1.3 5.96046e-08
v 0.3 1.4 5.96046e-08
v 0.3 1.7 5.96046e-08
v 0.3 1.8 5.96046e-08
v -0.5 1.4 -0.1
v -0.5 1.5 -0.1
v -0.4 1.2 -0.1
v -0.4 1.4 -0.1
v -0.4 1.5 -0.1
v -0.4 1.6 -0.1
v -0.4 1.7 -0.1
v -0.4 1.8 -0.1
v -0.3 1.3 -0.1
v -0.3 1.4 -0.1
v -0.3 1.5 -0.1
v -0.3 1.6 -0.1
v -0.3 1.7 -0.1
v -0.3 1.8 -0.1
v -0.2 1.2 -0.1
v -0.2 1.3 -0.1
v 0 1.2 -0.1
v 0 1.3 -0.1
v 0 1.8 -0.1
v 0 1.9 -0.1
v 0.1 1.3 -0.1
v 0.1 1.4 -0.1
v 0.1 1.7 -0.1
v 0.1 1.8 -0.1
v 0.2 1.2 -0.1
v 0.2 1.4 -0.1
v 0.2 1.7 -0.1
v 0.2 1.9 -0.1
v 0.3 1.4 -0.1
v 0.3 1.7 -0.1
v -0.4 1.4 -0.2
v -0.4 1.5 -0.2
v -0.4 1.6 -0.2
v -0.4 1.7 -0.2
v -0.3 1.3 -0.2
v -0.3 1.4 -0.2
v -0.3 1.5 -0.2
v -0.3 1.6 -0.2
v -0.3 1.7 -0.2
v -0.3 1.8 -0.2
v -0.2 1.2 -0.2
v -0.2 1.3 -0.2
v -0.2 1.8 -0.2
v -0.2 1.9 -0.2
v 0 1.2 -0.2
v 0 1.3 -0.2
v 0 1.8 -0.2
v 0 1.9 -0.2
v 0.1 1.3 -0.2
v 0.1 1.4 -0.2
v 0.1 1.7 -0.2
v 0.1 1.8 -0.2
v 0.2 1.4 -0.2
v 0.2 1.7 -0.2
v -0.3 0 0.3
v -0.2 0 0.3
v 0 0 0.3
v 0.1 0 0.3
v 0 0 0.2
v 0.1 0 0.2
v -0.3 0 0.1
v -0.2 0 0.1
v 0 0 0.1
v 0.1 0 0.1
v 0 0.6 0.3
v 0.1 0.6 0.3
v 0 0.6 0.1
v 0.1 0.6 0.1
v -0.3 0.9 0.3
v -0.2 0.9 0.3
v -0.3 0.9 0.2
v -0.2 0.9 0.2
v 0 1 0.3
v 0.1 1 0.3
v 0 1 0.2
v 0.1 1 0.2
v -0.3 1.1 0.3
v -0.2 1.1 0.3
v -0.3 1.1 0.2
v -0.2 1.1 0.2
v -0.4 1.2 0.5
v 0.2 1.2 0.5
v -0.3 1.2 0.3
v -0.2 1.2 0.3
v 0 1.2 0.3
v 0.1 1.2 0.3
v 0.2 1.2 0.3
v 0.3 1.2 0.3
v -0.3 1.2 0.1
v -0.2 1.2 0.1
v 0 1.2 0.1
v 0.1 1.2 0.1
v 0.2 1.2 0.1
v 0.3 1.2 0.1
v -0.4 1.2 -0.1
v -0.2 1.2 -0.1
v 0 1.2 -0.1
v 0.2 1.2 -0.1
v -0.2 1.2 -0.2
v 0 1.2 -0.2
v -0.2 1.3 0.6
v 0.1 1.3 0.6
v -0.2 1.3 0.5
v 0.1 1.3 0.5
v 0.2 1.3 0.4
v 0.3 1.3 0.4
v -0.5 1.3 0.3
v -0.4 1.3 0.3
v 0.2 1.3 0.3
v 0.3 1.3 0.3
v 0.2 1.3 0.1
v 0.3 1.3 0.1
v -0.5 1.3 5.96046e-08
v -0.4 1.3 5.96046e-08
v 0.2 1.3 5.96046e-08
v 0.3 1.3 5.96046e-08
v -0.3 1.3 -0.1
v -0.2 1.3 -0.1
v 0 1.3 -0.1
v 0.1 1.3 -0.1
v -0.3 1.3 -0.2
v -0.2 1.3 -0.2
v 0 1.3 -0.2
v 0.1 1.3 -0.2
v 0.1 1.4 0.6
v 0.2 1.4 0.6
v 0.1 1.4 0.5
v 0.2 1.4 0.5
v 0.3 1.4 0.5
v 0.2 1.4 0.4
v 0.3 1.4 0.4
v -0.5 1.4 5.96046e-08
v -0.4 1.4 5.96046e-08
v 0.2 1.4 5.96046e-08
v 0.3 1.4 5.96046e-08
v -0.5 1.4 -0.1
v -0.4 1.4 -0.1
v -0.3 1.4 -0.1
v 0.1 1.4 -0.1
v 0.2 1.4 -0.1
v 0.3 1.4 -0.1
v -0.4 1.4 -0.2
v -0.3 1.4 -0.2
v 0.1 1.4 -0.2
v 0.2 1.4 -0.2
v -0.4 1.6 -0.1
v -0.3 1.6 -0.1
v -0.4 1.6 -0.2
v -0.3 1.6 -0.2
v 0.1 1.8 0.3
v 0.2 1.8 0.3
v 0.1 1.8 0.2
v 0.2 1.8 0.2
v 0 0.4 0.2
v 0.1 0.4 0.2
v 0 0.4 0.1
v 0.1 0.4 0.1
v -0.3 0.5 0.3
v -0.2 0.5 0.3
v 0 0.5 0.3
v 0.1 0.5 0.3
v -0.3 0.5 0.2
v -0.2 0.5 0.2
v 0 0.5 0.2
v 0.1 0.5 0.2
v 0 0.9 0.3
v 0.1 0.9 0.3
v 0 0.9 0.2
v 0.1 0.9 0.2
v -0.3 1 0.3
v -0.2 1 0.3
v -0.3 1 0.2
v -0.2 1 0.2
v -0.4 1.3 0.5
v -0.3 1.3 0.5
v -0.4 1.3 0.4
v -0.3 1.3 0.4
v -0.2 1.4 0.6
v 0 1.4 0.6
v -0.2 1.4 0.5
v 0 1.4 0.5
v -0.2 1.4 0.4
v 0 1.4 0.4
v -0.5 1.4 0.3
v -0.4 1.4 0.3
v -0.5 1.4 5.96046e-08
v -0.4 1.4 5.96046e-08
v 0 1.5 0.6
v 0.2 1.5 0.6
v -0.3 1.5 0.5
v -0.2 1.5 0.5
v 0.2 1.5 0.5
v 0.3 1.5 0.5
v -0.4 1.5 0.4
v -0.3 1.5 0.4
v -0.2 1.5 0.4
v -0.1 1.5 0.4
v 0 1.5 0.4
v 0.3 1.5 0.4
v -0.3 1.5 0.3
v -0.1 1.5 0.3
v -0.3 1.5 0.2
v -0.1 1.5 0.2
v -0.4 1.5 0.1
v -0.1 1.5 0.1
v -0.5 1.5 5.96046e-08
v -0.4 1.5 5.96046e-08
v -0.5 1.5 -0.1
v -0.4 1.5 -0.1
v -0.3 1.5 -0.1
v -0.4 1.5 -0.2
v -0.3 1.5 -0.2
v -0.1 1.6 0.4
v 0 1.6 0.4
v -0.3 1.6 0.3
v -0.1 1.6 0.3
v 0 1.6 0.3
v -0.3 1.6 0.2
v -0.1 1.6 0.2
v -0.4 1.6 0.1
v -0.3 1.6 0.1
v -0.4 1.6 5.96046e-08
v -0.3 1.6 5.96046e-08
v 0 1.7 0.4
v 0.3 1.7 0.4
v -0.1 1.7 0.3
v 0 1.7 0.3
v 0 1.7 0.2
v 0.1 1.7 0.2
v 0.2 1.7 0.2
v 0.3 1.7 0.2
v -0.3 1.7 0.1
v -0.1 1.7 0.1
v 0 1.7 0.1
v 0.1 1.7 0.1
v 0.2 1.7 0.1
v -0.3 1.7 5.96046e-08
v -0.1 1.7 5.96046e-08
v 0.2 1.7 5.96046e-08
v 0.3 1.7 5.96046e-08
v -0.4 1.7 -0.1
v -0.3 1.7 -0.1
v 0.1 1.7 -0.1
v 0.2 1.7 -0.1
v 0.3 1.7 -0.1
v -0.4 1.7 -0.2
v -0.3 1.7 -0.2
v 0.1 1.7 -0.2
v 0.2 1.7 -0.2
v -0.1 1.8 0.1
v 0 1.8 0.1
v 0.1 1.8 0.1
v 0.2 1.8 0.1
v 0.3 1.8 0.1
v -0.4 1.8 5.96046e-08
v -0.1 1.8 5.96046e-08
v 0.1 1.8 5.96046e-08
v 0.2 1.8 5.96046e-08
v 0.3 1.8 5.96046e-08
v -0.4 1.8 -0.1
v -0.3 1.8 -0.1
v -0.2 1.8 -0.1
v -0.1 1.8 -0.1
v 0 1.8 -0.1
v 0.1 1.8 -0.1
v -0.3 1.8 -0.2
v -0.2 1.8 -0.2
v 0 1.8 -0.2
v 0.1 1.8 -0.2
v 0.1 1.9 0.3
v 0.2 1.9 0.3
v 0 1.9 0.2
v 0.1 1.9 0.2
v 0.2 1.9 0.2
v 0.3 1.9 0.2
v 0 1.9 0.1
v 0.1 1.9 0.1
v 0.2 1.9 0.1
v 0.3 1.9 0.1
v -0.1 1.9 5.96046e-08
v 0.1 1.9 5.96046e-08
v -0.2 1.9 -0.1
v -0.1 1.9 -0.1
v 0 1.9 -0.1
v 0.2 1.9 -0.1
v -0.2 1.9 -0.2
v 0 1.9 -0.2

# faces
f 3/1/1 2/1/1 1/1/1
f 4/1/1 2/1/1 3/1/1
f 6/1/1 5/1/1 4/1/1
f 7/1/1 5/1/1 6/1/1
f 10/2/1 9/2/1 8/2/1
f 11/2/1 9/2/1 10/2/1
f 12/2/1 9/2/1 11/2/1
f 13/2/1 9/2/1 12/2/1
f 14/1/1 12/1/1 11/1/1
f 15/2/1 9/2/1 13/2/1
f 16/2/1 9/2/1 15/2/1
f 18/1/1 14/1/1 11/1/1
f 18/1/1 15/1/1 14/1/1
f 19/1/1 15/1/1 18/1/1
f 20/1/1 15/1/1 19/1/1
f 21/1/1 17/1/1 16/1/1
f 22/1/1 17/1/1 21/1/1
f 23/1/1 20/1/1 19/1/1
f 23/1/1 21/1/1 20/1/1
f 24/1/1 21/1/1 23/1/1
f 25/1/1 21/1/1 24/1/1
f 27/1/1 26/1/1 25/1/1
f 27/1/1 25/1/1 24/1/1
f 28/1/1 26/1/1 27/1/1
f 29/1/1 27/1/1 24/1/1
f 30/1/1 27/1/1 29/1/1
f 33/4/1 32/4/1 31/4/1
f 34/4/1 32/4/1 33/4/1
f 35/3/1 34/3/1 33/3/1
f 36/3/1 34/3/1 35/3/1
f 38/3/1 34/3/1 36/3/1
f 39/3/1 38/3/1 37/3/1
f 40/3/1 34/3/1 38/3/1
f 40/3/1 38/3/1 39/3/1
f 42/3/1 34/3/1 40/3/1
f 43/3/1 42/3/1 41/3/1
f 44/3/1 34/3/1 42/3/1
f 44/3/1 42/3/1 43/3/1
f 49/2/1 46/2/1 45/2/1
f 50/2/1 46/2/1 49/2/1
f 51/2/1 48/2/1 47/2/1
f 52/2/1 48/2/1 51/2/1
f 53/1/1 50/1/1 49/1/1
f 54/1/1 50/1/1 53/1/1
f 59/1/1 56/1/1 55/1/1
f 60/1/1 56/1/1 59/1/1
f 63/1/1 58/1/1 57/1/1
f 64/1/1 58/1/1 63/1/1
f 65/1/1 62/1/1 61/1/1
f 66/1/1 62/1/1 65/1/1
f 69/1/1 68/1/1 67/1/1
f 70/1/1 68/1/1 69/1/1
f 75/2/1 72/2/1 71/2/1
f 76/2/1 72/2/1 75/2/1
f 77/2/1 74/2/1 73/2/1
f 78/2/1 74/2/1 77/2/1
f 81/1/1 80/1/1 79/1/1
f 82/1/1 80/1/1 81/1/1
f 87/1/1 84/1/1 83/1/1
f 88/1/1 84/1/1 87/1/1
f 89/1/1 86/1/1 85/1/1
f 90/1/1 89/1/1 88/1/1
f 91/1/1 86/1/1 89/1/1
f 91/1/1 89/1/1 90/1/1
f 93/1/1 92/1/1 91/1/1
f 94/1/1 92/1/1 93/1/1
f 96/1/1 95/1/1 94/1/1
f 97/1/1 95/1/1 96/1/1
f 101/4/1 99/4/1 98/4/1
f 102/3/1 100/3/1 99/3/1
f 102/4/1 99/4/1 101/4/1
f 103/3/1 102/3/1 101/3/1
f 103/3/1 100/3/1 102/3/1
f 104/3/1 100/3/1 103/3/1
f 105/3/1 103/3/1 101/3/1
f 106/3/1 103/3/1 105/3/1
f 109/3/1 108/3/1 107/3/1
f 110/3/1 108/3/1 109/3/1
f 112/3/1 108/3/1 110/3/1
f 113/3/1 112/3/1 111/3/1
f 114/3/1 108/3/1 112/3/1
f 114/3/1 112/3/1 113/3/1
f 118/1/1 116/1/1 115/1/1
f 118/1/1 117/1/1 116/1/1
f 119/1/1 117/1/1 118/1/1
f 122/1/1 121/1/1 120/1/1
f 123/1/1 121/1/1 122/1/1
f 126/1/1 125/1/1 124/1/1
f 127/1/1 126/1/1 124/1/1
f 128/1/1 126/1/1 127/1/1
f 133/1/1 130/1/1 129/1/1
f 134/1/1 130/1/1 133/1/1
f 135/1/1 132/1/1 131/1/1
f 136/1/1 132/1/1 135/1/1
f 139/1/1 138/1/1 137/1/1
f 140/1/1 138/1/1 139/1/1
f 141/1/1 138/1/1 140/1/1
f 142/4/2 143/4/2 144/4/2
f 144/4/2 143/4/2 145/4/2
f 144/3/2 145/3/2 146/3/2
f 146/3/2 145/3/2 147/3/2
f 147/3/2 145/3/2 149/3/2
f 148/3/2 149/3/2 150/3/2
f 149/3/2 145/3/2 151/3/2
f 150/3/2 149/3/2 151/3/2
f 151/3/2 145/3/2 153/3/2
f 152/3/2 153/3/2 154/3/2
f 153/3/2 145/3/2 155/3/2
f 154/3/2 153/3/2 155/3/2
f 156/1/2 157/1/2 158/1/2
f 158/1/2 157/1/2 159/1/2
f 160/2/2 161/2/2 162/2/2
f 162/2/2 161/2/2 163/2/2
f 164/1/2 165/1/2 166/1/2
f 166/1/2 165/1/2 167/1/2
f 168/4/2 169/4/2 171/4/2
f 169/3/2 170/3/2 172/3/2
f 171/4/2 169/4/2 172/4/2
f 171/3/2 172/3/2 173/3/2
f 172/3/2 170/3/2 173/3/2
f 173/3/2 170/3/2 174/3/2
f 171/3/2 173/3/2 175/3/2
f 175/3/2 173/3/2 176/3/2
f 177/3/2 178/3/2 179/3/2
f 179/3/2 178/3/2 180/3/2
f 180/3/2 178/3/2 182/3/2
f 181/3/2 182/3/2 183/3/2
f 182/3/2 178/3/2 184/3/2
f 183/3/2 182/3/2 184/3/2
f 185/2/2 186/2/2 189/2/2
f 189/2/2 186/2/2 190/2/2
f 187/2/2 188/2/2 191/2/2
f 191/2/2 188/2/2 192/2/2
f 193/1/2 194/1/2 197/1/2
f 195/1/2 196/1/2 198/1/2
f 198/1/2 196/1/2 199/1/2
f 197/1/2 194/1/2 200/1/2
f 200/1/2 194/1/2 201/1/2
f 202/2/2 203/2/2 206/2/2
f 206/2/2 203/2/2 207/2/2
f 204/2/2 205/2/2 208/2/2
f 208/2/2 205/2/2 209/2/2
f 202/2/2 206/2/2 211/2/2
f 211/2/2 206/2/2 212/2/2
f 209/2/2 205/2/2 213/2/2
f 213/2/2 205/2/2 214/2/2
f 210/1/2 211/1/2 216/1/2
f 216/1/2 211/1/2 217/1/2
f 214/1/2 215/1/2 219/1/2
f 219/1/2 215/1/2 220/1/2
f 218/1/2 219/1/2 224/1/2
f 221/1/2 222/1/2 225/1/2
f 225/1/2 222/1/2 226/1/2
f 223/1/2 224/1/2 227/1/2
f 224/1/2 219/1/2 228/1/2
f 227/1/2 224/1/2 228/1/2
f 229/2/2 230/2/2 232/2/2
f 232/2/2 230/2/2 233/2/2
f 231/2/2 232/2/2 236/2/2
f 233/2/2 234/2/2 236/2/2
f 232/2/2 233/2/2 236/2/2
f 236/2/2 234/2/2 237/2/2
f 235/1/2 236/1/2 239/1/2
f 237/1/2 238/1/2 239/1/2
f 236/1/2 237/1/2 239/1/2
f 239/1/2 238/1/2 240/1/2
f 240/1/2 238/1/2 241/1/2
f 241/1/2 238/1/2 242/1/2
f 242/1/2 238/1/2 243/1/2
f 243/1/2 238/1/2 244/1/2
f 242/1/2 243/1/2 245/1/2
f 245/1/2 243/1/2 246/1/2
f 242/1/2 245/1/2 247/1/2
f 247/1/2 245/1/2 248/1/2
f 251/2/3 250/2/3 249/2/3
f 253/2/3 251/2/3 249/2/3
f 254/1/3 252/1/3 251/1/3
f 254/2/3 251/2/3 253/2/3
f 255/1/3 252/1/3 254/1/3
f 256/1/3 252/1/3 255/1/3
f 259/2/3 258/2/3 257/2/3
f 262/2/3 259/2/3 257/2/3
f 262/2/3 260/2/3 259/2/3
f 263/1/3 261/1/3 260/1/3
f 263/2/3 260/2/3 262/2/3
f 264/1/3 261/1/3 263/1/3
f 265/2/3 262/2/3 257/2/3
f 267/2/3 265/2/3 257/2/3
f 267/2/3 266/2/3 265/2/3
f 268/2/3 266/2/3 267/2/3
f 270/1/3 269/1/3 268/1/3
f 271/1/3 269/1/3 270/1/3
f 274/1/3 273/1/3 272/1/3
f 275/1/3 273/1/3 274/1/3
f 276/1/3 273/1/3 275/1/3
f 279/1/3 278/1/3 277/1/3
f 281/1/3 279/1/3 277/1/3
f 281/1/3 280/1/3 279/1/3
f 282/1/3 280/1/3 281/1/3
f 283/1/3 280/1/3 282/1/3
f 287/2/3 286/2/3 285/2/3
f 288/2/3 286/2/3 287/2/3
f 289/1/3 284/1/3 283/1/3
f 289/1/3 283/1/3 282/1/3
f 290/1/3 284/1/3 289/1/3
f 293/1/3 292/1/3 291/1/3
f 294/1/3 292/1/3 293/1/3
f 304/4/3 296/4/3 295/4/3
f 305/3/3 297/3/3 296/3/3
f 305/4/3 296/4/3 304/4/3
f 306/3/3 297/3/3 305/3/3
f 307/3/3 299/3/3 298/3/3
f 308/3/3 299/3/3 307/3/3
f 309/3/3 301/3/3 300/3/3
f 310/3/3 301/3/3 309/3/3
f 311/1/3 303/1/3 302/1/3
f 312/1/3 303/1/3 311/1/3
f 321/1/3 313/1/3 312/1/3
f 322/1/3 313/1/3 321/1/3
f 323/4/3 315/4/3 314/4/3
f 324/3/3 316/3/3 315/3/3
f 324/4/3 315/4/3 323/4/3
f 325/3/3 316/3/3 324/3/3
f 326/3/3 318/3/3 317/3/3
f 327/3/3 318/3/3 326/3/3
f 328/3/3 320/3/3 319/3/3
f 329/3/3 320/3/3 328/3/3
f 334/1/3 331/1/3 330/1/3
f 335/1/3 331/1/3 334/1/3
f 336/2/3 333/2/3 332/2/3
f 337/2/3 333/2/3 336/2/3
f 342/3/3 339/3/3 338/3/3
f 343/3/3 339/3/3 342/3/3
f 344/3/3 341/3/3 340/3/3
f 345/3/3 341/3/3 344/3/3
f 350/3/3 347/3/3 346/3/3
f 351/3/3 347/3/3 350/3/3
f 352/1/3 349/1/3 348/1/3
f 353/1/3 349/1/3 352/1/3
f 354/1/3 349/1/3 353/1/3
f 358/1/3 356/1/3 355/1/3
f 358/1/3 357/1/3 356/1/3
f 359/1/3 357/1/3 358/1/3
f 362/1/3 361/1/3 360/1/3
f 364/1/3 362/1/3 360/1/3
f 364/1/3 363/1/3 362/1/3
f 365/1/3 363/1/3 364/1/3
f 367/1/3 366/1/3 365/1/3
f 368/1/3 366/1/3 367/1/3
f 371/1/3 370/1/3 369/1/3
f 372/1/3 370/1/3 371/1/3
f 375/1/3 374/1/3 373/1/3
f 376/1/3 374/1/3 375/1/3
f 379/1/3 378/1/3 377/1/3
f 380/1/3 378/1/3 379/1/3
f 381/1/3 378/1/3 380/1/3
f 382/1/3 378/1/3 381/1/3
f 384/1/3 383/1/3 382/1/3
f 385/1/3 383/1/3 384/1/3
f 388/1/3 387/1/3 386/1/3
f 389/1/3 387/1/3 388/1/3
f 390/1/4 391/1/4 392/1/4
f 392/1/4 391/1/4 393/1/4
f 394/3/4 395/3/4 396/3/4
f 396/3/4 395/3/4 397/3/4
f 398/1/4 399/1/4 400/1/4
f 400/1/4 399/1/4 401/1/4
f 402/4/4 403/4/4 405/4/4
f 403/3/4 404/3/4 406/3/4
f 405/4/4 403/4/4 406/4/4
f 406/3/4 404/3/4 407/3/4
f 408/3/4 409/3/4 414/3/4
f 414/3/4 409/3/4 415/3/4
f 410/3/4 411/3/4 416/3/4
f 416/3/4 411/3/4 417/3/4
f 412/1/4 413/1/4 418/1/4
f 418/1/4 413/1/4 419/1/4
f 420/2/4 421/2/4 424/2/4
f 424/2/4 421/2/4 425/2/4
f 422/1/4 423/1/4 426/1/4
f 426/1/4 423/1/4 427/1/4
f 428/1/4 429/1/4 430/1/4
f 430/1/4 429/1/4 431/1/4
f 432/2/4 433/2/4 436/2/4
f 436/2/4 433/2/4 437/2/4
f 434/1/4 435/1/4 438/1/4
f 438/1/4 435/1/4 439/1/4
f 440/1/4 441/1/4 443/1/4
f 443/1/4 441/1/4 444/1/4
f 442/2/4 443/2/4 448/2/4
f 448/2/4 443/2/4 449/2/4
f 444/1/4 445/1/4 450/1/4
f 450/1/4 445/1/4 451/1/4
f 446/1/4 447/1/4 452/1/4
f 452/1/4 447/1/4 453/1/4
f 442/2/4 448/2/4 454/2/4
f 454/2/4 448/2/4 455/2/4
f 456/2/4 457/2/4 460/2/4
f 458/1/4 459/1/4 463/1/4
f 460/2/4 461/2/4 464/2/4
f 456/2/4 460/2/4 464/2/4
f 464/2/4 461/2/4 465/2/4
f 462/1/4 463/1/4 466/1/4
f 463/1/4 459/1/4 467/1/4
f 466/1/4 463/1/4 467/1/4
f 465/1/4 466/1/4 468/1/4
f 468/1/4 466/1/4 469/1/4
f 470/1/4 471/1/4 475/1/4
f 475/1/4 471/1/4 476/1/4
f 472/1/4 473/1/4 477/1/4
f 477/1/4 473/1/4 478/1/4
f 474/2/4 475/2/4 481/2/4
f 475/1/4 476/1/4 482/1/4
f 478/1/4 479/1/4 482/1/4
f 476/1/4 477/1/4 482/1/4
f 477/1/4 478/1/4 482/1/4
f 480/2/4 481/2/4 484/2/4
f 481/2/4 475/2/4 485/2/4
f 484/2/4 481/2/4 485/2/4
f 482/1/4 483/1/4 486/1/4
f 475/1/4 482/1/4 486/1/4
f 486/1/4 483/1/4 487/1/4
f 485/2/4 475/2/4 488/2/4
f 475/1/4 486/1/4 489/1/4
f 488/2/4 475/2/4 489/2/4
f 489/1/4 486/1/4 490/1/4
f 490/1/4 486/1/4 491/1/4
f 489/1/4 490/1/4 492/1/4
f 492/1/4 490/1/4 493/1/4
f 498/4/5 497/4/5 496/4/5
f 499/4/5 497/4/5 498/4/5
f 500/4/5 495/4/5 494/4/5
f 501/4/5 495/4/5 500/4/5
f 502/3/5 499/3/5 498/3/5
f 503/3/5 499/3/5 502/3/5
f 506/3/5 505/3/5 504/3/5
f 507/3/5 505/3/5 506/3/5
f 510/3/5 509/3/5 508/3/5
f 511/3/5 509/3/5 510/3/5
f 514/3/5 513/3/5 512/3/5
f 515/3/5 513/3/5 514/3/5
f 518/3/5 517/3/5 516/3/5
f 519/3/5 517/3/5 518/3/5
f 522/2/5 521/2/5 520/2/5
f 523/2/5 521/2/5 522/2/5
f 524/2/5 521/2/5 523/2/5
f 525/2/5 521/2/5 524/2/5
f 526/2/5 521/2/5 525/2/5
f 528/2/5 522/2/5 520/2/5
f 529/2/5 524/2/5 523/2/5
f 530/2/5 524/2/5 529/2/5
f 531/2/5 527/2/5 526/2/5
f 531/2/5 526/2/5 525/2/5
f 532/2/5 527/2/5 531/2/5
f 533/2/5 527/2/5 532/2/5
f 534/2/5 530/2/5 529/2/5
f 534/2/5 529/2/5 528/2/5
f 534/2/5 532/2/5 531/2/5
f 534/2/5 531/2/5 530/2/5
f 534/2/5 528/2/5 520/2/5
f 535/2/5 532/2/5 534/2/5
f 536/2/5 532/2/5 535/2/5
f 537/2/5 532/2/5 536/2/5
f 538/2/5 536/2/5 535/2/5
f 539/2/5 536/2/5 538/2/5
f 542/2/5 541/2/5 540/2/5
f 543/2/5 541/2/5 542/2/5
f 548/2/5 545/2/5 544/2/5
f 549/2/5 545/2/5 548/2/5
f 552/1/5 547/1/5 546/1/5
f 553/1/5 547/1/5 552/1/5
f 554/2/5 551/2/5 550/2/5
f 555/2/5 551/2/5 554/2/5
f 560/2/5 557/2/5 556/2/5
f 561/2/5 557/2/5 560/2/5
f 562/2/5 559/2/5 558/2/5
f 563/2/5 559/2/5 562/2/5
f 566/1/5 565/1/5 564/1/5
f 567/1/5 565/1/5 566/1/5
f 569/1/5 568/1/5 567/1/5
f 570/1/5 568/1/5 569/1/5
f 575/1/5 572/1/5 571/1/5
f 576/1/5 572/1/5 575/1/5
f 579/1/5 574/1/5 573/1/5
f 580/1/5 574/1/5 579/1/5
f 581/1/5 577/1/5 576/1/5
f 582/1/5 577/1/5 581/1/5
f 583/1/5 579/1/5 578/1/5
f 584/1/5 579/1/5 583/1/5
f 587/1/5 586/1/5 585/1/5
f 588/1/5 586/1/5 587/1/5
f 591/1/5 590/1/5 589/1/5
f 592/1/5 590/1/5 591/1/5
f 593/3/6 594/3/6 595/3/6
f 595/3/6 594/3/6 596/3/6
f 597/3/6 598/3/6 601/3/6
f 601/3/6 598/3/6 602/3/6
f 599/3/6 600/3/6 603/3/6
f 603/3/6 600/3/6 604/3/6
f 605/3/6 606/3/6 607/3/6
f 607/3/6 606/3/6 608/3/6
f 609/3/6 610/3/6 611/3/6
f 611/3/6 610/3/6 612/3/6
f 613/2/6 614/2/6 615/2/6
f 615/2/6 614/2/6 616/2/6
f 617/2/6 618/2/6 619/2/6
f 619/2/6 618/2/6 620/2/6
f 619/1/6 620/1/6 621/1/6
f 621/1/6 620/1/6 622/1/6
f 623/1/6 624/1/6 625/1/6
f 625/1/6 624/1/6 626/1/6
f 627/1/6 628/1/6 631/1/6
f 629/1/6 630/1/6 634/1/6
f 634/1/6 630/1/6 635/1/6
f 631/1/6 632/1/6 637/1/6
f 627/1/6 631/1/6 637/1/6
f 637/1/6 632/1/6 638/1/6
f 635/1/6 636/1/6 639/1/6
f 634/1/6 635/1/6 639/1/6
f 633/1/6 634/1/6 639/1/6
f 639/1/6 636/1/6 640/1/6
f 633/1/6 639/1/6 641/1/6
f 633/1/6 641/1/6 643/1/6
f 641/1/6 642/1/6 643/1/6
f 643/1/6 642/1/6 644/1/6
f 645/1/6 646/1/6 647/1/6
f 647/1/6 646/1/6 648/1/6
f 648/1/6 649/1/6 650/1/6
f 650/1/6 649/1/6 651/1/6
f 652/1/6 653/1/6 655/1/6
f 655/1/6 653/1/6 656/1/6
f 654/1/6 655/1/6 657/1/6
f 657/1/6 655/1/6 658/1/6
f 659/1/6 660/1/6 661/1/6
f 661/1/6 660/1/6 662/1/6
f 663/1/6 664/1/6 666/1/6
f 666/1/6 664/1/6 667/1/6
f 665/1/6 666/1/6 667/1/6
f 667/1/6 664/1/6 668/1/6
f 668/1/6 664/1/6 669/1/6
f 669/1/6 664/1/6 670/1/6
f 665/1/6 667/1/6 672/1/6
f 672/1/6 667/1/6 673/1/6
f 668/1/6 669/1/6 674/1/6
f 674/1/6 669/1/6 675/1/6
f 671/1/6 672/1/6 676/1/6
f 676/1/6 672/1/6 677/1/6
f 678/1/6 679/1/6 683/1/6
f 683/1/6 679/1/6 684/1/6
f 680/1/6 681/1/6 685/1/6
f 685/1/6 681/1/6 686/1/6
f 682/1/6 683/1/6 687/1/6
f 687/1/6 683/1/6 688/1/6
f 689/1/6 690/1/6 695/1/6
f 690/1/6 691/1/6 695/1/6
f 695/1/6 691/1/6 696/1/6
f 692/1/6 693/1/6 697/1/6
f 697/1/6 693/1/6 698/1/6
f 694/1/6 695/1/6 699/1/6
f 699/1/6 695/1/6 700/1/6
f 700/1/6 695/1/6 701/1/6
f 701/1/6 695/1/6 702/1/6
f 700/1/6 701/1/6 705/1/6
f 705/1/6 701/1/6 706/1/6
f 703/1/6 704/1/6 707/1/6
f 707/1/6 704/1/6 708/1/6
f 709/1/6 710/1/6 712/1/6
f 712/1/6 710/1/6 713/1/6
f 711/1/6 712/1/6 715/1/6
f 715/1/6 712/1/6 716/1/6
f 713/1/6 714/1/6 717/1/6
f 717/1/6 714/1/6 718/1/6
f 716/1/6 717/1/6 720/1/6
f 719/1/6 720/1/6 722/1/6
f 722/1/6 720/1/6 723/1/6
f 720/1/6 717/1/6 724/1/6
f 723/1/6 720/1/6 724/1/6
f 722/1/6 723/1/6 725/1/6
f 721/1/6 722/1/6 725/1/6
f 725/1/6 723/1/6 726/1/6
