# MagicaVoxel @ Ephtracy

# group
o 

# material
mtllib trans_3_2.mtl
usemtl palette

# normals
vn -1 0 0
vn 1 0 0
vn 0 0 1
vn 0 0 -1
vn 0 -1 0
vn 0 1 0

# texcoords
vt 0.755859 0.5
vt 0.759766 0.5
vt 0.962891 0.5

# verts
v -0.3 1.3 2.98023e-08
v -0.3 1.3 -0.2
v -0.3 1.4 2.98023e-08
v -0.3 1.4 -0.1
v -0.3 1.4 -0.2
v -0.3 1.5 -0.1
v -0.3 1.5 -0.2
v -0.2 1.2 0.2
v -0.2 1.2 0.1
v -0.2 1.2 2.98023e-08
v -0.2 1.2 -0.2
v -0.2 1.3 0.2
v -0.2 1.3 0.1
v -0.2 1.3 2.98023e-08
v -0.2 1.3 -0.2
v -0.2 1.4 0.2
v -0.2 1.4 0.1
v -0.2 1.4 2.98023e-08
v -0.2 1.4 -0.1
v -0.2 1.5 0.1
v -0.2 1.5 2.98023e-08
v -0.2 1.5 -0.1
v -0.2 1.5 -0.2
v -0.2 1.6 2.98023e-08
v -0.2 1.6 -0.2
v -0.1 1.2 0.1
v -0.1 1.2 2.98023e-08
v -0.1 1.3 0.1
v -0.1 1.3 2.98023e-08
v -0.1 1.4 0.2
v -0.1 1.4 0.1
v -0.1 1.5 0.2
v -0.1 1.5 0.1
v -0.1 1.5 2.98023e-08
v -0.1 1.6 0.1
v -0.1 1.6 2.98023e-08
v 0 0.6 0.3
v 0 0.6 0.2
v 0 0.7 0.2
v 0 0.7 0.1
v 0 0.9 0.3
v 0 0.9 0.2
v 0 1 0.3
v 0 1 0.2
v 0 1.2 0.3
v 0 1.2 0.2
v 0 1.2 0.1
v 0 1.3 0.3
v 0 1.3 0.2
v 0 1.4 0.3
v 0 1.4 0.2
v 0 1.5 0.2
v 0 1.5 0.1
v 0 1.6 0.2
v 0 1.6 0.1
v 0 1.6 -0.1
v 0 1.6 -0.2
v 0 1.7 -0.1
v 0 1.7 -0.2
v 0.1 1.6 0.2
v 0.1 1.6 -0.1
v 0.1 1.7 0.2
v 0.1 1.7 -0.1
v 0.2 1.3 0.2
v 0.2 1.3 0.1
v 0.2 1.4 0.2
v 0.2 1.4 0.1
v 0 1.2 -0.1
v 0 1.2 -0.2
v 0 1.3 0.2
v 0 1.3 0.1
v 0 1.3 -0.1
v 0 1.3 -0.2
v 0 1.4 0.2
v 0 1.5 0.2
v 0 1.5 0.1
v 0.1 0.6 0.3
v 0.1 0.6 0.2
v 0.1 0.7 0.2
v 0.1 0.7 0.1
v 0.1 0.9 0.3
v 0.1 0.9 0.2
v 0.1 1 0.3
v 0.1 1 0.2
v 0.1 1.2 0.3
v 0.1 1.2 0.2
v 0.1 1.2 0.1
v 0.1 1.3 0.3
v 0.1 1.3 0.2
v 0.1 1.3 -0.1
v 0.1 1.3 -0.2
v 0.1 1.4 0.3
v 0.1 1.4 0.2
v 0.1 1.4 0.1
v 0.1 1.4 2.98023e-08
v 0.1 1.4 -0.1
v 0.1 1.4 -0.2
v 0.1 1.5 0.2
v 0.1 1.5 0.1
v 0.1 1.5 2.98023e-08
v 0.1 1.6 0.2
v 0.1 1.6 0.1
v 0.2 1.2 0.1
v 0.2 1.2 -0.1
v 0.2 1.3 0.1
v 0.2 1.3 2.98023e-08
v 0.2 1.4 2.98023e-08
v 0.2 1.4 -0.1
v 0.2 1.4 -0.2
v 0.2 1.5 0.1
v 0.2 1.5 2.98023e-08
v 0.2 1.6 0.2
v 0.2 1.6 0.1
v 0.2 1.6 2.98023e-08
v 0.2 1.7 0.2
v 0.2 1.7 0.1
v 0.2 1.7 -0.1
v 0.2 1.7 -0.2
v 0.3 1.2 0.2
v 0.3 1.2 0.1
v 0.3 1.3 0.1
v 0.3 1.3 2.98023e-08
v 0.3 1.4 0.2
v 0.3 1.4 2.98023e-08
v 0.3 1.4 -0.1
v 0.3 1.6 0.1
v 0.3 1.6 2.98023e-08
v 0.3 1.7 0.1
v 0.3 1.7 -0.1
v 0 0.6 0.3
v 0 0.9 0.3
v 0 1 0.3
v 0 1.2 0.3
v 0 1.3 0.3
v 0 1.4 0.3
v 0.1 0.6 0.3
v 0.1 0.9 0.3
v 0.1 1 0.3
v 0.1 1.2 0.3
v 0.1 1.3 0.3
v 0.1 1.4 0.3
v -0.2 1.2 0.2
v -0.2 1.3 0.2
v -0.2 1.4 0.2
v -0.1 1.4 0.2
v -0.1 1.5 0.2
v 0 0.9 0.2
v 0 1 0.2
v 0 1.2 0.2
v 0 1.3 0.2
v 0 1.4 0.2
v 0 1.5 0.2
v 0 1.6 0.2
v 0.1 0.9 0.2
v 0.1 1 0.2
v 0.1 1.2 0.2
v 0.1 1.3 0.2
v 0.1 1.5 0.2
v 0.1 1.6 0.2
v 0.1 1.7 0.2
v 0.2 1.3 0.2
v 0.2 1.4 0.2
v 0.2 1.6 0.2
v 0.2 1.7 0.2
v 0.3 1.2 0.2
v 0.3 1.4 0.2
v -0.2 1.4 0.1
v -0.2 1.5 0.1
v -0.1 1.4 0.1
v -0.1 1.5 0.1
v -0.1 1.6 0.1
v 0 1.3 0.1
v 0 1.5 0.1
v 0 1.6 0.1
v 0.1 1.3 0.1
v 0.1 1.4 0.1
v 0.1 1.5 0.1
v 0.1 1.6 0.1
v 0.2 1.3 0.1
v 0.2 1.4 0.1
v 0.2 1.5 0.1
v 0.2 1.6 0.1
v 0.2 1.7 0.1
v 0.3 1.6 0.1
v 0.3 1.7 0.1
v -0.3 1.3 2.98023e-08
v -0.3 1.4 2.98023e-08
v -0.2 1.2 2.98023e-08
v -0.2 1.3 2.98023e-08
v -0.2 1.4 2.98023e-08
v -0.2 1.5 2.98023e-08
v -0.2 1.6 2.98023e-08
v -0.1 1.2 2.98023e-08
v -0.1 1.3 2.98023e-08
v -0.1 1.5 2.98023e-08
v -0.1 1.6 2.98023e-08
v 0.1 1.4 2.98023e-08
v 0.1 1.5 2.98023e-08
v 0.2 1.5 2.98023e-08
v 0.2 1.6 2.98023e-08
v 0.3 1.4 2.98023e-08
v 0.3 1.6 2.98023e-08
v -0.3 1.4 -0.1
v -0.3 1.5 -0.1
v -0.2 1.4 -0.1
v -0.2 1.5 -0.1
v 0 1.6 -0.1
v 0 1.7 -0.1
v 0.1 1.6 -0.1
v 0.1 1.7 -0.1
v 0 0.6 0.2
v 0 0.7 0.2
v 0 1.3 0.2
v 0 1.4 0.2
v 0.1 0.6 0.2
v 0.1 0.7 0.2
v 0.1 1.3 0.2
v 0.1 1.4 0.2
v -0.2 1.2 0.1
v -0.2 1.3 0.1
v -0.1 1.2 0.1
v -0.1 1.3 0.1
v 0 0.7 0.1
v 0 1.2 0.1
v 0.1 0.7 0.1
v 0.1 1.2 0.1
v 0.2 1.2 0.1
v 0.2 1.3 0.1
v 0.3 1.2 0.1
v 0.3 1.3 0.1
v 0.2 1.3 2.98023e-08
v 0.2 1.4 2.98023e-08
v 0.3 1.3 2.98023e-08
v 0.3 1.4 2.98023e-08
v 0 1.2 -0.1
v 0 1.3 -0.1
v 0.1 1.3 -0.1
v 0.1 1.4 -0.1
v 0.2 1.2 -0.1
v 0.2 1.4 -0.1
v 0.2 1.7 -0.1
v 0.3 1.4 -0.1
v 0.3 1.7 -0.1
v -0.3 1.3 -0.2
v -0.3 1.4 -0.2
v -0.3 1.5 -0.2
v -0.2 1.2 -0.2
v -0.2 1.3 -0.2
v -0.2 1.5 -0.2
v -0.2 1.6 -0.2
v 0 1.2 -0.2
v 0 1.3 -0.2
v 0 1.6 -0.2
v 0 1.7 -0.2
v 0.1 1.3 -0.2
v 0.1 1.4 -0.2
v 0.2 1.4 -0.2
v 0.2 1.7 -0.2
v 0 0.6 0.3
v 0.1 0.6 0.3
v 0 0.6 0.2
v 0.1 0.6 0.2
v 0 0.7 0.2
v 0.1 0.7 0.2
v 0 0.7 0.1
v 0.1 0.7 0.1
v 0 1 0.3
v 0.1 1 0.3
v 0 1 0.2
v 0.1 1 0.2
v -0.2 1.2 0.2
v 0 1.2 0.2
v 0.1 1.2 0.2
v 0.3 1.2 0.2
v -0.2 1.2 0.1
v -0.1 1.2 0.1
v 0 1.2 0.1
v 0.1 1.2 0.1
v 0.2 1.2 0.1
v 0.3 1.2 0.1
v -0.2 1.2 2.98023e-08
v -0.1 1.2 2.98023e-08
v 0 1.2 -0.1
v 0.2 1.2 -0.1
v -0.2 1.2 -0.2
v 0 1.2 -0.2
v 0 1.3 0.3
v 0.1 1.3 0.3
v 0 1.3 0.2
v 0.1 1.3 0.2
v -0.2 1.3 0.1
v -0.1 1.3 0.1
v 0.2 1.3 0.1
v 0.3 1.3 0.1
v -0.3 1.3 2.98023e-08
v -0.2 1.3 2.98023e-08
v -0.1 1.3 2.98023e-08
v 0.2 1.3 2.98023e-08
v 0.3 1.3 2.98023e-08
v 0 1.3 -0.1
v 0.1 1.3 -0.1
v -0.3 1.3 -0.2
v -0.2 1.3 -0.2
v 0 1.3 -0.2
v 0.1 1.3 -0.2
v 0.2 1.4 2.98023e-08
v 0.3 1.4 2.98023e-08
v 0.1 1.4 -0.1
v 0.2 1.4 -0.1
v 0.3 1.4 -0.1
v 0.1 1.4 -0.2
v 0.2 1.4 -0.2
v 0 1.5 0.2
v 0.1 1.5 0.2
v 0 1.5 0.1
v 0.1 1.5 0.1
v 0.2 1.5 0.1
v 0.1 1.5 2.98023e-08
v 0.2 1.5 2.98023e-08
v 0.1 1.6 0.2
v 0.2 1.6 0.2
v 0.1 1.6 0.1
v 0.2 1.6 0.1
v 0.3 1.6 0.1
v 0.2 1.6 2.98023e-08
v 0.3 1.6 2.98023e-08
v 0 0.9 0.3
v 0.1 0.9 0.3
v 0 0.9 0.2
v 0.1 0.9 0.2
v 0 1.2 0.3
v 0.1 1.2 0.3
v 0 1.2 0.2
v 0.1 1.2 0.2
v 0 1.3 0.2
v 0.1 1.3 0.2
v 0.2 1.3 0.2
v 0 1.3 0.1
v 0.1 1.3 0.1
v 0.2 1.3 0.1
v 0 1.4 0.3
v 0.1 1.4 0.3
v -0.2 1.4 0.2
v -0.1 1.4 0.2
v 0 1.4 0.2
v 0.1 1.4 0.2
v 0.2 1.4 0.2
v 0.3 1.4 0.2
v -0.2 1.4 0.1
v -0.1 1.4 0.1
v 0.1 1.4 0.1
v 0.2 1.4 0.1
v -0.3 1.4 2.98023e-08
v -0.2 1.4 2.98023e-08
v 0.1 1.4 2.98023e-08
v 0.3 1.4 2.98023e-08
v -0.3 1.4 -0.1
v -0.2 1.4 -0.1
v -0.1 1.5 0.2
v 0 1.5 0.2
v -0.2 1.5 0.1
v -0.1 1.5 0.1
v 0 1.5 0.1
v -0.2 1.5 2.98023e-08
v -0.1 1.5 2.98023e-08
v -0.3 1.5 -0.1
v -0.2 1.5 -0.1
v -0.3 1.5 -0.2
v -0.2 1.5 -0.2
v 0 1.6 0.2
v 0.1 1.6 0.2
v -0.1 1.6 0.1
v 0 1.6 0.1
v -0.2 1.6 2.98023e-08
v -0.1 1.6 2.98023e-08
v 0 1.6 -0.1
v 0.1 1.6 -0.1
v -0.2 1.6 -0.2
v 0 1.6 -0.2
v 0.1 1.7 0.2
v 0.2 1.7 0.2
v 0.2 1.7 0.1
v 0.3 1.7 0.1
v 0 1.7 -0.1
v 0.1 1.7 -0.1
v 0.2 1.7 -0.1
v 0.3 1.7 -0.1
v 0 1.7 -0.2
v 0.2 1.7 -0.2

# faces
f 3/2/1 2/2/1 1/2/1
f 4/2/1 2/2/1 3/2/1
f 5/2/1 2/2/1 4/2/1
f 6/1/1 5/1/1 4/1/1
f 7/1/1 5/1/1 6/1/1
f 12/2/1 9/2/1 8/2/1
f 13/2/1 9/2/1 12/2/1
f 14/2/1 11/2/1 10/2/1
f 15/2/1 11/2/1 14/2/1
f 16/1/1 13/1/1 12/1/1
f 16/1/1 14/1/1 13/1/1
f 17/1/1 14/1/1 16/1/1
f 18/1/1 14/1/1 17/1/1
f 20/1/1 19/1/1 18/1/1
f 20/1/1 18/1/1 17/1/1
f 21/1/1 19/1/1 20/1/1
f 22/1/1 19/1/1 21/1/1
f 24/1/1 23/1/1 22/1/1
f 24/1/1 22/1/1 21/1/1
f 25/1/1 23/1/1 24/1/1
f 28/2/1 27/2/1 26/2/1
f 29/2/1 27/2/1 28/2/1
f 32/1/1 31/1/1 30/1/1
f 33/1/1 31/1/1 32/1/1
f 35/1/1 34/1/1 33/1/1
f 36/1/1 34/1/1 35/1/1
f 39/3/1 38/3/1 37/3/1
f 41/3/1 39/3/1 37/3/1
f 41/3/1 40/3/1 39/3/1
f 42/3/1 40/3/1 41/3/1
f 44/3/1 40/3/1 42/3/1
f 45/3/1 44/3/1 43/3/1
f 46/3/1 40/3/1 44/3/1
f 46/3/1 44/3/1 45/3/1
f 47/3/1 40/3/1 46/3/1
f 50/1/1 49/1/1 48/1/1
f 51/1/1 49/1/1 50/1/1
f 54/1/1 53/1/1 52/1/1
f 55/1/1 53/1/1 54/1/1
f 58/1/1 57/1/1 56/1/1
f 59/1/1 57/1/1 58/1/1
f 62/1/1 61/1/1 60/1/1
f 63/1/1 61/1/1 62/1/1
f 66/2/1 65/2/1 64/2/1
f 67/2/1 65/2/1 66/2/1
f 68/2/2 69/2/2 72/2/2
f 72/2/2 69/2/2 73/2/2
f 70/1/2 71/1/2 74/1/2
f 74/1/2 71/1/2 75/1/2
f 75/1/2 71/1/2 76/1/2
f 77/3/2 78/3/2 79/3/2
f 77/3/2 79/3/2 81/3/2
f 79/3/2 80/3/2 81/3/2
f 81/3/2 80/3/2 82/3/2
f 82/3/2 80/3/2 84/3/2
f 83/3/2 84/3/2 85/3/2
f 84/3/2 80/3/2 86/3/2
f 85/3/2 84/3/2 86/3/2
f 86/3/2 80/3/2 87/3/2
f 88/1/2 89/1/2 92/1/2
f 92/1/2 89/1/2 93/1/2
f 90/2/2 91/2/2 96/2/2
f 96/2/2 91/2/2 97/2/2
f 94/1/2 95/1/2 99/1/2
f 99/1/2 95/1/2 100/1/2
f 98/1/2 99/1/2 101/1/2
f 101/1/2 99/1/2 102/1/2
f 103/2/2 104/2/2 105/2/2
f 105/2/2 104/2/2 106/2/2
f 106/2/2 104/2/2 107/2/2
f 107/2/2 104/2/2 108/2/2
f 110/1/2 111/1/2 113/1/2
f 113/1/2 111/1/2 114/1/2
f 112/1/2 113/1/2 115/1/2
f 115/1/2 113/1/2 116/1/2
f 108/1/2 109/1/2 117/1/2
f 117/1/2 109/1/2 118/1/2
f 119/2/2 120/2/2 121/2/2
f 119/2/2 121/2/2 123/2/2
f 121/2/2 122/2/2 123/2/2
f 123/2/2 122/2/2 124/2/2
f 124/1/2 125/1/2 127/1/2
f 126/1/2 127/1/2 128/1/2
f 127/1/2 125/1/2 129/1/2
f 128/1/2 127/1/2 129/1/2
f 136/3/3 131/3/3 130/3/3
f 137/3/3 131/3/3 136/3/3
f 138/3/3 133/3/3 132/3/3
f 139/3/3 133/3/3 138/3/3
f 140/1/3 135/1/3 134/1/3
f 141/1/3 135/1/3 140/1/3
f 145/1/3 144/1/3 143/1/3
f 149/2/3 143/2/3 142/2/3
f 150/1/3 145/1/3 143/1/3
f 150/2/3 143/2/3 149/2/3
f 150/1/3 146/1/3 145/1/3
f 151/1/3 146/1/3 150/1/3
f 152/1/3 146/1/3 151/1/3
f 154/3/3 148/3/3 147/3/3
f 155/3/3 148/3/3 154/3/3
f 156/2/3 150/2/3 149/2/3
f 157/2/3 150/2/3 156/2/3
f 158/1/3 153/1/3 152/1/3
f 159/1/3 153/1/3 158/1/3
f 161/2/3 157/2/3 156/2/3
f 163/1/3 160/1/3 159/1/3
f 164/1/3 160/1/3 163/1/3
f 165/2/3 162/2/3 161/2/3
f 165/2/3 161/2/3 156/2/3
f 166/2/3 162/2/3 165/2/3
f 169/1/3 168/1/3 167/1/3
f 170/1/3 168/1/3 169/1/3
f 173/1/3 171/1/3 170/1/3
f 174/1/3 171/1/3 173/1/3
f 175/1/3 173/1/3 172/1/3
f 176/1/3 173/1/3 175/1/3
f 177/1/3 173/1/3 176/1/3
f 179/2/3 176/2/3 175/2/3
f 180/2/3 176/2/3 179/2/3
f 181/1/3 178/1/3 177/1/3
f 182/1/3 178/1/3 181/1/3
f 184/1/3 183/1/3 182/1/3
f 185/1/3 183/1/3 184/1/3
f 189/2/3 187/2/3 186/2/3
f 190/2/3 187/2/3 189/2/3
f 193/2/3 189/2/3 188/2/3
f 194/2/3 189/2/3 193/2/3
f 195/1/3 192/1/3 191/1/3
f 196/1/3 192/1/3 195/1/3
f 199/1/3 198/1/3 197/1/3
f 201/1/3 199/1/3 197/1/3
f 201/1/3 200/1/3 199/1/3
f 202/1/3 200/1/3 201/1/3
f 205/1/3 204/1/3 203/1/3
f 206/1/3 204/1/3 205/1/3
f 209/1/3 208/1/3 207/1/3
f 210/1/3 208/1/3 209/1/3
f 211/3/4 212/3/4 215/3/4
f 215/3/4 212/3/4 216/3/4
f 213/1/4 214/1/4 217/1/4
f 217/1/4 214/1/4 218/1/4
f 219/2/4 220/2/4 221/2/4
f 221/2/4 220/2/4 222/2/4
f 223/3/4 224/3/4 225/3/4
f 225/3/4 224/3/4 226/3/4
f 227/2/4 228/2/4 229/2/4
f 229/2/4 228/2/4 230/2/4
f 231/2/4 232/2/4 233/2/4
f 233/2/4 232/2/4 234/2/4
f 235/2/4 236/2/4 237/2/4
f 235/2/4 237/2/4 239/2/4
f 237/2/4 238/2/4 239/2/4
f 239/2/4 238/2/4 240/2/4
f 240/1/4 241/1/4 242/1/4
f 242/1/4 241/1/4 243/1/4
f 244/2/4 245/2/4 248/2/4
f 245/1/4 246/1/4 249/1/4
f 247/2/4 248/2/4 251/2/4
f 248/2/4 245/2/4 252/2/4
f 251/2/4 248/2/4 252/2/4
f 249/1/4 250/1/4 253/1/4
f 252/2/4 245/2/4 255/2/4
f 253/1/4 254/1/4 256/1/4
f 255/2/4 245/2/4 256/2/4
f 245/1/4 249/1/4 256/1/4
f 249/1/4 253/1/4 256/1/4
f 256/1/4 254/1/4 257/1/4
f 257/1/4 254/1/4 258/1/4
f 261/3/5 260/3/5 259/3/5
f 262/3/5 260/3/5 261/3/5
f 265/3/5 264/3/5 263/3/5
f 266/3/5 264/3/5 265/3/5
f 269/3/5 268/3/5 267/3/5
f 270/3/5 268/3/5 269/3/5
f 275/2/5 272/2/5 271/2/5
f 276/2/5 272/2/5 275/2/5
f 277/2/5 272/2/5 276/2/5
f 278/2/5 274/2/5 273/2/5
f 279/2/5 274/2/5 278/2/5
f 280/2/5 274/2/5 279/2/5
f 282/2/5 277/2/5 276/2/5
f 282/2/5 279/2/5 278/2/5
f 282/2/5 278/2/5 277/2/5
f 283/2/5 279/2/5 282/2/5
f 283/2/5 282/2/5 281/2/5
f 284/2/5 279/2/5 283/2/5
f 285/2/5 283/2/5 281/2/5
f 286/2/5 283/2/5 285/2/5
f 289/1/5 288/1/5 287/1/5
f 290/1/5 288/1/5 289/1/5
f 296/1/5 292/1/5 291/1/5
f 297/1/5 292/1/5 296/1/5
f 298/2/5 294/2/5 293/2/5
f 299/2/5 294/2/5 298/2/5
f 302/2/5 296/2/5 295/2/5
f 303/2/5 296/2/5 302/2/5
f 304/2/5 301/2/5 300/2/5
f 305/2/5 301/2/5 304/2/5
f 309/1/5 307/1/5 306/1/5
f 310/1/5 307/1/5 309/1/5
f 311/1/5 309/1/5 308/1/5
f 312/1/5 309/1/5 311/1/5
f 315/1/5 314/1/5 313/1/5
f 316/1/5 314/1/5 315/1/5
f 318/1/5 317/1/5 316/1/5
f 319/1/5 317/1/5 318/1/5
f 322/1/5 321/1/5 320/1/5
f 323/1/5 321/1/5 322/1/5
f 325/1/5 324/1/5 323/1/5
f 326/1/5 324/1/5 325/1/5
f 327/3/6 328/3/6 329/3/6
f 329/3/6 328/3/6 330/3/6
f 331/3/6 332/3/6 333/3/6
f 333/3/6 332/3/6 334/3/6
f 335/2/6 336/2/6 338/2/6
f 336/2/6 337/2/6 338/2/6
f 338/2/6 337/2/6 339/2/6
f 339/2/6 337/2/6 340/2/6
f 341/1/6 342/1/6 345/1/6
f 345/1/6 342/1/6 346/1/6
f 343/1/6 344/1/6 349/1/6
f 349/1/6 344/1/6 350/1/6
f 347/2/6 348/2/6 352/2/6
f 351/2/6 352/2/6 355/2/6
f 352/2/6 348/2/6 356/2/6
f 355/2/6 352/2/6 356/2/6
f 353/2/6 354/2/6 357/2/6
f 357/2/6 354/2/6 358/2/6
f 359/1/6 360/1/6 362/1/6
f 362/1/6 360/1/6 363/1/6
f 361/1/6 362/1/6 364/1/6
f 364/1/6 362/1/6 365/1/6
f 366/1/6 367/1/6 368/1/6
f 368/1/6 367/1/6 369/1/6
f 370/1/6 371/1/6 373/1/6
f 372/1/6 373/1/6 375/1/6
f 373/1/6 371/1/6 376/1/6
f 374/1/6 375/1/6 376/1/6
f 375/1/6 373/1/6 376/1/6
f 376/1/6 371/1/6 377/1/6
f 374/1/6 376/1/6 378/1/6
f 378/1/6 376/1/6 379/1/6
f 380/1/6 381/1/6 382/1/6
f 380/1/6 382/1/6 385/1/6
f 382/1/6 383/1/6 385/1/6
f 385/1/6 383/1/6 386/1/6
f 386/1/6 383/1/6 387/1/6
f 384/1/6 385/1/6 388/1/6
f 385/1/6 386/1/6 388/1/6
f 388/1/6 386/1/6 389/1/6
