# MagicaVoxel @ Ephtracy

# group
o 

# material
mtllib trans_2_1.mtl
usemtl palette

# normals
vn -1 0 0
vn 1 0 0
vn 0 0 1
vn 0 0 -1
vn 0 -1 0
vn 0 1 0

# texcoords
vt 0.755859 0.5
vt 0.759766 0.5
vt 0.892578 0.5
vt 0.962891 0.5
vt 0.966797 0.5

# verts
v -0.5 1.2 0.3
v -0.5 1.2 0.1
v -0.5 1.3 0.4
v -0.5 1.3 0.3
v -0.5 1.3 0.1
v -0.5 1.3 5.96046e-08
v -0.5 1.4 0.5
v -0.5 1.4 0.4
v -0.5 1.4 0.3
v -0.5 1.4 0.1
v -0.5 1.4 5.96046e-08
v -0.5 1.4 -0.1
v -0.5 1.6 0.5
v -0.5 1.6 0.4
v -0.5 1.7 5.96046e-08
v -0.5 1.7 -0.1
v -0.5 1.8 0.4
v -0.5 1.8 0.3
v -0.5 1.8 0.1
v -0.5 1.8 5.96046e-08
v -0.5 1.9 0.3
v -0.5 1.9 0.1
v -0.4 1.2 0.5
v -0.4 1.2 0.3
v -0.4 1.2 0.1
v -0.4 1.2 -0.1
v -0.4 1.3 0.4
v -0.4 1.3 0.3
v -0.4 1.3 0.1
v -0.4 1.3 5.96046e-08
v -0.4 1.4 0.6
v -0.4 1.4 0.5
v -0.4 1.4 0.4
v -0.4 1.4 5.96046e-08
v -0.4 1.4 -0.1
v -0.4 1.4 -0.2
v -0.4 1.6 0.6
v -0.4 1.6 0.5
v -0.4 1.6 0.4
v -0.4 1.7 5.96046e-08
v -0.4 1.7 -0.1
v -0.4 1.7 -0.2
v -0.4 1.8 0.4
v -0.4 1.8 0.3
v -0.4 1.8 0.1
v -0.4 1.8 5.96046e-08
v -0.4 1.9 0.5
v -0.4 1.9 0.3
v -0.4 1.9 0.1
v -0.4 1.9 -0.1
v -0.3 0 0.3
v -0.3 0 0.2
v -0.3 0 0.1
v -0.3 0.1 0.3
v -0.3 0.1 0.2
v -0.3 0.1 0.1
v -0.3 0.2 0.3
v -0.3 0.2 0.2
v -0.3 0.2 0.1
v -0.3 1.2 0.3
v -0.3 1.2 0.1
v -0.3 1.3 0.6
v -0.3 1.3 0.5
v -0.3 1.3 -0.1
v -0.3 1.3 -0.2
v -0.3 1.4 0.6
v -0.3 1.4 0.5
v -0.3 1.4 -0.1
v -0.3 1.4 -0.2
v -0.3 1.7 -0.1
v -0.3 1.7 -0.2
v -0.3 1.8 -0.1
v -0.3 1.8 -0.2
v -0.3 1.9 0.3
v -0.3 1.9 0.1
v -0.3 2 0.3
v -0.3 2 0.1
v -0.2 1.2 0.6
v -0.2 1.2 0.5
v -0.2 1.2 -0.1
v -0.2 1.2 -0.2
v -0.2 1.3 0.6
v -0.2 1.3 0.5
v -0.2 1.3 -0.1
v -0.2 1.3 -0.2
v -0.2 1.4 0.2
v -0.2 1.4 0.1
v -0.2 1.5 0.2
v -0.2 1.5 0.1
v -0.2 1.9 0.1
v -0.2 1.9 5.96046e-08
v -0.2 2 0.1
v -0.2 2 5.96046e-08
v -0.1 1.7 0.2
v -0.1 1.7 5.96046e-08
v -0.1 1.8 0.2
v -0.1 1.8 5.96046e-08
v 0 0 0.3
v 0 0 0.2
v 0 0 0.1
v 0 0.1 0.3
v 0 0.1 0.2
v 0 0.1 0.1
v 0 0.2 0.3
v 0 0.2 0.2
v 0 0.2 0.1
v 0 1.2 0.3
v 0 1.2 0.1
v 0 1.4 0.2
v 0 1.4 5.96046e-08
v 0 1.5 0.2
v 0 1.5 5.96046e-08
v 0.1 1.4 5.96046e-08
v 0.1 1.4 -0.1
v 0.1 1.5 5.96046e-08
v 0.1 1.5 -0.1
v -0.3 1.4 0.2
v -0.3 1.4 0.1
v -0.3 1.5 0.1
v -0.3 1.5 5.96046e-08
v -0.3 1.6 0.2
v -0.3 1.6 5.96046e-08
v -0.3 1.8 0.5
v -0.3 1.8 0.3
v -0.3 1.9 0.5
v -0.3 1.9 0.3
v -0.2 0 0.3
v -0.2 0 0.2
v -0.2 0 0.1
v -0.2 0.1 0.3
v -0.2 0.1 0.2
v -0.2 0.1 0.1
v -0.2 0.2 0.3
v -0.2 0.2 0.2
v -0.2 0.2 0.1
v -0.2 1.2 0.3
v -0.2 1.2 0.1
v -0.2 1.4 0.1
v -0.2 1.4 5.96046e-08
v -0.2 1.5 0.3
v -0.2 1.5 0.2
v -0.2 1.5 0.1
v -0.2 1.5 5.96046e-08
v -0.2 1.6 0.3
v -0.2 1.6 0.2
v -0.2 1.7 0.2
v -0.2 1.7 5.96046e-08
v -0.2 1.8 0.3
v -0.2 1.8 0.2
v -0.2 1.9 0.1
v -0.2 1.9 5.96046e-08
v -0.2 2 0.3
v -0.2 2 0.1
v -0.1 1.4 0.6
v -0.1 1.4 0.5
v -0.1 1.4 0.2
v -0.1 1.4 0.1
v -0.1 1.4 5.96046e-08
v -0.1 1.4 -0.1
v -0.1 1.5 0.6
v -0.1 1.5 0.5
v -0.1 1.5 0.4
v -0.1 1.5 0.3
v -0.1 1.5 0.2
v -0.1 1.5 0.1
v -0.1 1.6 0.3
v -0.1 1.6 0.2
v -0.1 1.6 0.1
v -0.1 1.6 5.96046e-08
v -0.1 1.6 -0.1
v -0.1 1.7 0.5
v -0.1 1.7 0.4
v -0.1 1.7 0.1
v -0.1 1.7 5.96046e-08
v -0.1 1.8 0.5
v -0.1 1.8 0.2
v -0.1 1.8 5.96046e-08
v -0.1 1.8 -0.1
v -0.1 1.9 0.1
v -0.1 1.9 5.96046e-08
v -0.1 1.9 -0.1
v -0.1 2 0.1
v -0.1 2 5.96046e-08
v 0 1.2 0.6
v 0 1.2 0.5
v 0 1.2 -0.1
v 0 1.2 -0.2
v 0 1.3 0.6
v 0 1.3 0.5
v 0 1.3 -0.1
v 0 1.3 -0.2
v 0 1.6 0.5
v 0 1.6 0.4
v 0 1.6 0.2
v 0 1.6 0.1
v 0 1.6 5.96046e-08
v 0 1.6 -0.1
v 0 1.7 0.5
v 0 1.7 0.4
v 0 1.7 0.2
v 0 1.7 0.1
v 0 1.7 5.96046e-08
v 0 1.7 -0.1
v 0 1.7 -0.2
v 0 1.8 0.1
v 0 1.8 -0.2
v 0.1 0 0.3
v 0.1 0 0.2
v 0.1 0 0.1
v 0.1 0.1 0.3
v 0.1 0.1 0.2
v 0.1 0.1 0.1
v 0.1 0.2 0.3
v 0.1 0.2 0.2
v 0.1 0.2 0.1
v 0.1 1.2 0.4
v 0.1 1.2 0.3
v 0.1 1.2 0.2
v 0.1 1.2 0.1
v 0.1 1.2 -0.1
v 0.1 1.3 0.6
v 0.1 1.3 0.5
v 0.1 1.3 0.4
v 0.1 1.3 0.3
v 0.1 1.3 0.2
v 0.1 1.3 0.1
v 0.1 1.3 5.96046e-08
v 0.1 1.3 -0.1
v 0.1 1.3 -0.2
v 0.1 1.4 0.6
v 0.1 1.4 0.5
v 0.1 1.4 0.4
v 0.1 1.4 0.3
v 0.1 1.4 0.2
v 0.1 1.4 5.96046e-08
v 0.1 1.4 -0.1
v 0.1 1.4 -0.2
v 0.1 1.5 0.5
v 0.1 1.5 0.4
v 0.1 1.5 -0.1
v 0.1 1.5 -0.2
v 0.1 1.6 0.5
v 0.1 1.6 0.4
v 0.1 1.7 0.2
v 0.1 1.7 0.1
v 0.1 1.7 -0.1
v 0.1 1.7 -0.2
v 0.1 1.8 0.2
v 0.1 1.8 0.1
v 0.2 1.2 0.5
v 0.2 1.2 0.4
v 0.2 1.2 0.2
v 0.2 1.2 0.1
v 0.2 1.3 0.4
v 0.2 1.3 0.3
v 0.2 1.3 0.1
v 0.2 1.3 5.96046e-08
v 0.2 1.4 0.5
v 0.2 1.4 0.4
v 0.2 1.4 0.3
v 0.2 1.4 0.2
v 0.2 1.4 5.96046e-08
v 0.2 1.4 -0.2
v 0.2 1.5 0.6
v 0.2 1.5 0.5
v 0.2 1.5 0.4
v 0.2 1.5 -0.2
v 0.2 1.6 0.6
v 0.2 1.6 0.5
v -0.4 1.4 0.6
v -0.4 1.6 0.6
v -0.3 1.3 0.6
v -0.3 1.4 0.6
v -0.2 1.2 0.6
v -0.2 1.3 0.6
v -0.2 1.4 0.6
v -0.1 1.4 0.6
v -0.1 1.5 0.6
v 0 1.2 0.6
v 0 1.3 0.6
v 0 1.4 0.6
v 0.1 1.3 0.6
v 0.1 1.4 0.6
v 0.2 1.5 0.6
v 0.2 1.6 0.6
v -0.5 1.4 0.5
v -0.5 1.6 0.5
v -0.4 1.2 0.5
v -0.4 1.4 0.5
v -0.4 1.6 0.5
v -0.4 1.9 0.5
v -0.3 1.3 0.5
v -0.3 1.4 0.5
v -0.3 1.8 0.5
v -0.3 1.9 0.5
v -0.2 1.2 0.5
v -0.2 1.3 0.5
v -0.1 1.4 0.5
v -0.1 1.5 0.5
v -0.1 1.7 0.5
v -0.1 1.8 0.5
v 0 1.2 0.5
v 0 1.3 0.5
v 0 1.4 0.5
v 0 1.6 0.5
v 0 1.7 0.5
v 0.1 1.3 0.5
v 0.1 1.4 0.5
v 0.1 1.5 0.5
v 0.2 1.2 0.5
v 0.2 1.4 0.5
v -0.5 1.3 0.4
v -0.5 1.4 0.4
v -0.5 1.6 0.4
v -0.5 1.8 0.4
v -0.4 1.3 0.4
v -0.4 1.4 0.4
v -0.4 1.6 0.4
v -0.4 1.8 0.4
v 0.1 1.4 0.4
v 0.1 1.5 0.4
v 0.2 1.4 0.4
v 0.2 1.5 0.4
v -0.5 1.2 0.3
v -0.5 1.3 0.3
v -0.5 1.8 0.3
v -0.5 1.9 0.3
v -0.4 1.2 0.3
v -0.4 1.3 0.3
v -0.4 1.8 0.3
v -0.4 1.9 0.3
v -0.3 0 0.3
v -0.3 0.1 0.3
v -0.3 0.2 0.3
v -0.3 1.2 0.3
v -0.3 1.8 0.3
v -0.3 1.9 0.3
v -0.3 2 0.3
v -0.2 0 0.3
v -0.2 0.1 0.3
v -0.2 0.2 0.3
v -0.2 1.2 0.3
v -0.2 1.8 0.3
v -0.2 2 0.3
v 0 0 0.3
v 0 0.1 0.3
v 0 0.2 0.3
v 0 1.2 0.3
v 0.1 0 0.3
v 0.1 0.1 0.3
v 0.1 0.2 0.3
v 0.1 1.2 0.3
v -0.1 1.6 0.2
v -0.1 1.8 0.2
v 0 1.6 0.2
v 0 1.7 0.2
v 0.1 1.2 0.2
v 0.1 1.3 0.2
v 0.1 1.4 0.2
v 0.1 1.7 0.2
v 0.1 1.8 0.2
v 0.2 1.2 0.2
v 0.2 1.4 0.2
v -0.3 1.4 0.1
v -0.3 1.5 0.1
v -0.2 1.4 0.1
v -0.2 1.5 0.1
v -0.2 1.9 0.1
v -0.2 2 0.1
v -0.1 1.9 0.1
v -0.1 2 0.1
v -0.3 1.5 5.96046e-08
v -0.3 1.6 5.96046e-08
v -0.2 1.4 5.96046e-08
v -0.2 1.5 5.96046e-08
v -0.2 1.7 5.96046e-08
v -0.2 1.9 5.96046e-08
v -0.1 1.4 5.96046e-08
v -0.1 1.6 5.96046e-08
v -0.1 1.7 5.96046e-08
v -0.1 1.8 5.96046e-08
v -0.1 1.9 5.96046e-08
v 0 1.6 5.96046e-08
v 0 1.7 5.96046e-08
v -0.1 1.4 -0.1
v -0.1 1.6 -0.1
v 0 1.6 -0.1
v 0 1.7 -0.1
v 0.1 1.4 -0.1
v 0.1 1.5 -0.1
v 0.1 1.7 -0.1
v 0.1 1.5 0.5
v 0.1 1.6 0.5
v 0.2 1.5 0.5
v 0.2 1.6 0.5
v -0.1 1.5 0.4
v -0.1 1.7 0.4
v 0 1.6 0.4
v 0 1.7 0.4
v 0.1 1.2 0.4
v 0.1 1.3 0.4
v 0.1 1.5 0.4
v 0.1 1.6 0.4
v 0.2 1.2 0.4
v 0.2 1.3 0.4
v -0.2 1.5 0.3
v -0.2 1.6 0.3
v -0.1 1.5 0.3
v -0.1 1.6 0.3
v 0.1 1.3 0.3
v 0.1 1.4 0.3
v 0.2 1.3 0.3
v 0.2 1.4 0.3
v -0.3 1.4 0.2
v -0.3 1.6 0.2
v -0.2 1.4 0.2
v -0.2 1.5 0.2
v -0.2 1.6 0.2
v -0.2 1.7 0.2
v -0.2 1.8 0.2
v -0.1 1.4 0.2
v -0.1 1.5 0.2
v -0.1 1.7 0.2
v -0.1 1.8 0.2
v 0 1.4 0.2
v 0 1.5 0.2
v -0.5 1.2 0.1
v -0.5 1.3 0.1
v -0.5 1.8 0.1
v -0.5 1.9 0.1
v -0.4 1.2 0.1
v -0.4 1.3 0.1
v -0.4 1.8 0.1
v -0.4 1.9 0.1
v -0.3 0 0.1
v -0.3 0.1 0.1
v -0.3 0.2 0.1
v -0.3 1.2 0.1
v -0.3 1.9 0.1
v -0.3 2 0.1
v -0.2 0 0.1
v -0.2 0.1 0.1
v -0.2 0.2 0.1
v -0.2 1.2 0.1
v -0.2 1.4 0.1
v -0.2 1.5 0.1
v -0.2 1.9 0.1
v -0.2 2 0.1
v -0.1 1.4 0.1
v -0.1 1.5 0.1
v -0.1 1.6 0.1
v -0.1 1.7 0.1
v 0 0 0.1
v 0 0.1 0.1
v 0 0.2 0.1
v 0 1.2 0.1
v 0 1.6 0.1
v 0 1.7 0.1
v 0 1.8 0.1
v 0.1 0 0.1
v 0.1 0.1 0.1
v 0.1 0.2 0.1
v 0.1 1.2 0.1
v 0.1 1.3 0.1
v 0.1 1.7 0.1
v 0.1 1.8 0.1
v 0.2 1.2 0.1
v 0.2 1.3 0.1
v -0.5 1.3 5.96046e-08
v -0.5 1.4 5.96046e-08
v -0.5 1.7 5.96046e-08
v -0.5 1.8 5.96046e-08
v -0.4 1.3 5.96046e-08
v -0.4 1.4 5.96046e-08
v -0.4 1.7 5.96046e-08
v -0.4 1.8 5.96046e-08
v -0.2 1.9 5.96046e-08
v -0.2 2 5.96046e-08
v -0.1 1.9 5.96046e-08
v -0.1 2 5.96046e-08
v 0 1.4 5.96046e-08
v 0 1.5 5.96046e-08
v 0.1 1.3 5.96046e-08
v 0.1 1.4 5.96046e-08
v 0.1 1.5 5.96046e-08
v 0.2 1.3 5.96046e-08
v 0.2 1.4 5.96046e-08
v -0.5 1.4 -0.1
v -0.5 1.7 -0.1
v -0.4 1.2 -0.1
v -0.4 1.4 -0.1
v -0.4 1.7 -0.1
v -0.4 1.9 -0.1
v -0.3 1.3 -0.1
v -0.3 1.4 -0.1
v -0.3 1.7 -0.1
v -0.3 1.8 -0.1
v -0.2 1.2 -0.1
v -0.2 1.3 -0.1
v -0.1 1.8 -0.1
v -0.1 1.9 -0.1
v 0 1.2 -0.1
v 0 1.3 -0.1
v 0.1 1.2 -0.1
v 0.1 1.3 -0.1
v -0.4 1.4 -0.2
v -0.4 1.7 -0.2
v -0.3 1.3 -0.2
v -0.3 1.4 -0.2
v -0.3 1.7 -0.2
v -0.3 1.8 -0.2
v -0.2 1.2 -0.2
v -0.2 1.3 -0.2
v -0.2 1.4 -0.2
v 0 1.2 -0.2
v 0 1.3 -0.2
v 0 1.4 -0.2
v 0 1.7 -0.2
v 0 1.8 -0.2
v 0.1 1.3 -0.2
v 0.1 1.4 -0.2
v 0.1 1.5 -0.2
v 0.1 1.7 -0.2
v 0.2 1.4 -0.2
v 0.2 1.5 -0.2
v -0.3 0 0.3
v -0.2 0 0.3
v 0 0 0.3
v 0.1 0 0.3
v -0.3 0 0.2
v -0.2 0 0.2
v 0 0 0.2
v 0.1 0 0.2
v -0.3 0 0.1
v -0.2 0 0.1
v 0 0 0.1
v 0.1 0 0.1
v -0.2 1.2 0.6
v 0 1.2 0.6
v -0.4 1.2 0.5
v -0.2 1.2 0.5
v 0 1.2 0.5
v 0.2 1.2 0.5
v 0.1 1.2 0.4
v 0.2 1.2 0.4
v -0.5 1.2 0.3
v -0.4 1.2 0.3
v -0.3 1.2 0.3
v -0.2 1.2 0.3
v 0 1.2 0.3
v 0.1 1.2 0.3
v 0.1 1.2 0.2
v 0.2 1.2 0.2
v -0.5 1.2 0.1
v -0.4 1.2 0.1
v -0.3 1.2 0.1
v -0.2 1.2 0.1
v 0 1.2 0.1
v 0.1 1.2 0.1
v 0.2 1.2 0.1
v -0.4 1.2 -0.1
v -0.2 1.2 -0.1
v 0 1.2 -0.1
v 0.1 1.2 -0.1
v -0.2 1.2 -0.2
v 0 1.2 -0.2
v -0.3 1.3 0.6
v -0.2 1.3 0.6
v 0 1.3 0.6
v 0.1 1.3 0.6
v -0.3 1.3 0.5
v -0.2 1.3 0.5
v 0 1.3 0.5
v 0.1 1.3 0.5
v -0.5 1.3 0.4
v -0.4 1.3 0.4
v 0.1 1.3 0.4
v 0.2 1.3 0.4
v -0.5 1.3 0.3
v -0.4 1.3 0.3
v 0.1 1.3 0.3
v 0.2 1.3 0.3
v -0.5 1.3 0.1
v -0.4 1.3 0.1
v 0.1 1.3 0.1
v 0.2 1.3 0.1
v -0.5 1.3 5.96046e-08
v -0.4 1.3 5.96046e-08
v 0.1 1.3 5.96046e-08
v 0.2 1.3 5.96046e-08
v -0.3 1.3 -0.1
v -0.2 1.3 -0.1
v 0 1.3 -0.1
v 0.1 1.3 -0.1
v -0.3 1.3 -0.2
v -0.2 1.3 -0.2
v 0 1.3 -0.2
v 0.1 1.3 -0.2
v -0.4 1.4 0.6
v -0.3 1.4 0.6
v -0.5 1.4 0.5
v -0.4 1.4 0.5
v -0.3 1.4 0.5
v -0.5 1.4 0.4
v -0.4 1.4 0.4
v 0.1 1.4 0.3
v 0.2 1.4 0.3
v 0.1 1.4 0.2
v 0.2 1.4 0.2
v -0.5 1.4 5.96046e-08
v -0.4 1.4 5.96046e-08
v 0.1 1.4 5.96046e-08
v 0.2 1.4 5.96046e-08
v -0.5 1.4 -0.1
v -0.4 1.4 -0.1
v -0.3 1.4 -0.1
v 0.1 1.4 -0.1
v -0.4 1.4 -0.2
v -0.3 1.4 -0.2
v 0.1 1.4 -0.2
v 0.2 1.4 -0.2
v -0.1 1.5 0.6
v 0.2 1.5 0.6
v -0.1 1.5 0.5
v 0.1 1.5 0.5
v 0.2 1.5 0.5
v -0.2 1.6 0.3
v -0.1 1.6 0.3
v -0.3 1.6 0.2
v -0.2 1.6 0.2
v -0.1 1.6 0.2
v 0 1.6 0.2
v -0.1 1.6 0.1
v 0 1.6 0.1
v -0.3 1.6 5.96046e-08
v -0.1 1.6 5.96046e-08
v 0 1.6 5.96046e-08
v -0.1 1.6 -0.1
v 0 1.6 -0.1
v 0 1.7 0.2
v 0.1 1.7 0.2
v -0.1 1.7 0.1
v 0 1.7 0.1
v 0.1 1.7 0.1
v -0.1 1.7 5.96046e-08
v 0 1.7 5.96046e-08
v -0.2 1.9 0.1
v -0.1 1.9 0.1
v -0.2 1.9 5.96046e-08
v -0.1 1.9 5.96046e-08
v -0.1 1.4 0.6
v 0 1.4 0.6
v 0.1 1.4 0.6
v -0.1 1.4 0.5
v 0 1.4 0.5
v 0.1 1.4 0.5
v 0.2 1.4 0.5
v 0.1 1.4 0.4
v 0.2 1.4 0.4
v -0.3 1.4 0.2
v -0.2 1.4 0.2
v -0.1 1.4 0.2
v 0 1.4 0.2
v -0.3 1.4 0.1
v -0.2 1.4 0.1
v -0.1 1.4 0.1
v -0.2 1.4 5.96046e-08
v -0.1 1.4 5.96046e-08
v 0 1.4 5.96046e-08
v 0.1 1.4 5.96046e-08
v -0.1 1.4 -0.1
v 0.1 1.4 -0.1
v -0.1 1.5 0.4
v 0.1 1.5 0.4
v 0.2 1.5 0.4
v -0.2 1.5 0.3
v -0.1 1.5 0.3
v -0.2 1.5 0.2
v -0.1 1.5 0.2
v 0 1.5 0.2
v -0.3 1.5 0.1
v -0.2 1.5 0.1
v -0.1 1.5 0.1
v -0.3 1.5 5.96046e-08
v -0.2 1.5 5.96046e-08
v 0 1.5 5.96046e-08
v 0.1 1.5 5.96046e-08
v 0.1 1.5 -0.1
v 0.1 1.5 -0.2
v 0.2 1.5 -0.2
v -0.4 1.6 0.6
v 0.2 1.6 0.6
v -0.5 1.6 0.5
v -0.4 1.6 0.5
v 0 1.6 0.5
v 0.1 1.6 0.5
v 0.2 1.6 0.5
v -0.5 1.6 0.4
v -0.4 1.6 0.4
v 0 1.6 0.4
v 0.1 1.6 0.4
v -0.1 1.7 0.5
v 0 1.7 0.5
v -0.1 1.7 0.4
v 0 1.7 0.4
v -0.2 1.7 0.2
v -0.1 1.7 0.2
v -0.5 1.7 5.96046e-08
v -0.4 1.7 5.96046e-08
v -0.2 1.7 5.96046e-08
v -0.1 1.7 5.96046e-08
v -0.5 1.7 -0.1
v -0.4 1.7 -0.1
v -0.3 1.7 -0.1
v 0 1.7 -0.1
v 0.1 1.7 -0.1
v -0.4 1.7 -0.2
v -0.3 1.7 -0.2
v 0 1.7 -0.2
v 0.1 1.7 -0.2
v -0.3 1.8 0.5
v -0.1 1.8 0.5
v -0.5 1.8 0.4
v -0.4 1.8 0.4
v -0.5 1.8 0.3
v -0.4 1.8 0.3
v -0.3 1.8 0.3
v -0.2 1.8 0.3
v -0.2 1.8 0.2
v -0.1 1.8 0.2
v 0.1 1.8 0.2
v -0.5 1.8 0.1
v -0.4 1.8 0.1
v 0 1.8 0.1
v 0.1 1.8 0.1
v -0.5 1.8 5.96046e-08
v -0.4 1.8 5.96046e-08
v -0.1 1.8 5.96046e-08
v -0.3 1.8 -0.1
v -0.1 1.8 -0.1
v -0.3 1.8 -0.2
v 0 1.8 -0.2
v -0.4 1.9 0.5
v -0.3 1.9 0.5
v -0.5 1.9 0.3
v -0.4 1.9 0.3
v -0.3 1.9 0.3
v -0.5 1.9 0.1
v -0.4 1.9 0.1
v -0.3 1.9 0.1
v -0.2 1.9 0.1
v -0.2 1.9 5.96046e-08
v -0.1 1.9 5.96046e-08
v -0.4 1.9 -0.1
v -0.1 1.9 -0.1
v -0.3 2 0.3
v -0.2 2 0.3
v -0.3 2 0.1
v -0.2 2 0.1
v -0.1 2 0.1
v -0.2 2 5.96046e-08
v -0.1 2 5.96046e-08

# faces
f 4/2/1 2/2/1 1/2/1
f 5/2/1 2/2/1 4/2/1
f 8/2/1 4/2/1 3/2/1
f 9/1/1 5/1/1 4/1/1
f 9/2/1 4/2/1 8/2/1
f 10/2/1 6/2/1 5/2/1
f 10/1/1 5/1/1 9/1/1
f 11/2/1 6/2/1 10/2/1
f 13/1/1 9/1/1 8/1/1
f 13/1/1 12/1/1 11/1/1
f 13/1/1 11/1/1 10/1/1
f 13/1/1 10/1/1 9/1/1
f 13/1/1 8/1/1 7/1/1
f 14/1/1 12/1/1 13/1/1
f 15/1/1 12/1/1 14/1/1
f 16/1/1 12/1/1 15/1/1
f 17/1/1 15/1/1 14/1/1
f 18/1/1 15/1/1 17/1/1
f 19/1/1 15/1/1 18/1/1
f 20/1/1 15/1/1 19/1/1
f 21/1/1 19/1/1 18/1/1
f 22/1/1 19/1/1 21/1/1
f 27/2/1 24/2/1 23/2/1
f 28/2/1 24/2/1 27/2/1
f 29/2/1 26/2/1 25/2/1
f 30/2/1 26/2/1 29/2/1
f 32/2/1 27/2/1 23/2/1
f 33/2/1 27/2/1 32/2/1
f 34/2/1 26/2/1 30/2/1
f 35/2/1 26/2/1 34/2/1
f 37/1/1 32/1/1 31/1/1
f 38/1/1 32/1/1 37/1/1
f 41/1/1 36/1/1 35/1/1
f 42/1/1 36/1/1 41/1/1
f 43/1/1 39/1/1 38/1/1
f 46/1/1 41/1/1 40/1/1
f 47/1/1 44/1/1 43/1/1
f 47/1/1 43/1/1 38/1/1
f 48/1/1 44/1/1 47/1/1
f 49/1/1 46/1/1 45/1/1
f 50/1/1 41/1/1 46/1/1
f 50/1/1 46/1/1 49/1/1
f 54/3/1 52/3/1 51/3/1
f 55/5/1 53/5/1 52/5/1
f 55/3/1 52/3/1 54/3/1
f 56/5/1 53/5/1 55/5/1
f 57/5/1 55/5/1 54/5/1
f 58/3/1 56/3/1 55/3/1
f 58/5/1 55/5/1 57/5/1
f 59/3/1 56/3/1 58/3/1
f 60/4/1 58/4/1 57/4/1
f 60/4/1 59/4/1 58/4/1
f 61/4/1 59/4/1 60/4/1
f 66/2/1 63/2/1 62/2/1
f 67/2/1 63/2/1 66/2/1
f 68/2/1 65/2/1 64/2/1
f 69/2/1 65/2/1 68/2/1
f 72/1/1 71/1/1 70/1/1
f 73/1/1 71/1/1 72/1/1
f 76/1/1 75/1/1 74/1/1
f 77/1/1 75/1/1 76/1/1
f 82/2/1 79/2/1 78/2/1
f 83/2/1 79/2/1 82/2/1
f 84/2/1 81/2/1 80/2/1
f 85/2/1 81/2/1 84/2/1
f 88/1/1 87/1/1 86/1/1
f 89/1/1 87/1/1 88/1/1
f 92/1/1 91/1/1 90/1/1
f 93/1/1 91/1/1 92/1/1
f 96/1/1 95/1/1 94/1/1
f 97/1/1 95/1/1 96/1/1
f 101/3/1 99/3/1 98/3/1
f 102/5/1 100/5/1 99/5/1
f 102/3/1 99/3/1 101/3/1
f 103/5/1 100/5/1 102/5/1
f 104/5/1 102/5/1 101/5/1
f 105/3/1 103/3/1 102/3/1
f 105/5/1 102/5/1 104/5/1
f 106/3/1 103/3/1 105/3/1
f 107/4/1 105/4/1 104/4/1
f 107/4/1 106/4/1 105/4/1
f 108/4/1 106/4/1 107/4/1
f 111/1/1 110/1/1 109/1/1
f 112/1/1 110/1/1 111/1/1
f 115/1/1 114/1/1 113/1/1
f 116/1/1 114/1/1 115/1/1
f 117/1/2 118/1/2 119/1/2
f 117/1/2 119/1/2 121/1/2
f 119/1/2 120/1/2 121/1/2
f 121/1/2 120/1/2 122/1/2
f 123/1/2 124/1/2 125/1/2
f 125/1/2 124/1/2 126/1/2
f 127/3/2 128/3/2 130/3/2
f 128/5/2 129/5/2 131/5/2
f 130/3/2 128/3/2 131/3/2
f 131/5/2 129/5/2 132/5/2
f 130/5/2 131/5/2 133/5/2
f 131/3/2 132/3/2 134/3/2
f 133/5/2 131/5/2 134/5/2
f 134/3/2 132/3/2 135/3/2
f 133/4/2 134/4/2 136/4/2
f 134/4/2 135/4/2 136/4/2
f 136/4/2 135/4/2 137/4/2
f 138/1/2 139/1/2 142/1/2
f 142/1/2 139/1/2 143/1/2
f 140/1/2 141/1/2 144/1/2
f 144/1/2 141/1/2 145/1/2
f 146/1/2 147/1/2 149/1/2
f 149/1/2 147/1/2 150/1/2
f 148/1/2 149/1/2 150/1/2
f 150/1/2 147/1/2 151/1/2
f 148/1/2 150/1/2 152/1/2
f 152/1/2 150/1/2 153/1/2
f 154/1/2 155/1/2 160/1/2
f 160/1/2 155/1/2 161/1/2
f 156/1/2 157/1/2 164/1/2
f 164/1/2 157/1/2 165/1/2
f 162/1/2 163/1/2 166/1/2
f 158/1/2 159/1/2 169/1/2
f 169/1/2 159/1/2 170/1/2
f 166/1/2 167/1/2 172/1/2
f 162/1/2 166/1/2 172/1/2
f 168/1/2 169/1/2 173/1/2
f 173/1/2 169/1/2 174/1/2
f 171/1/2 172/1/2 175/1/2
f 172/1/2 167/1/2 176/1/2
f 175/1/2 172/1/2 176/1/2
f 177/1/2 178/1/2 180/1/2
f 180/1/2 178/1/2 181/1/2
f 179/1/2 180/1/2 182/1/2
f 182/1/2 180/1/2 183/1/2
f 184/2/2 185/2/2 188/2/2
f 188/2/2 185/2/2 189/2/2
f 186/2/2 187/2/2 190/2/2
f 190/2/2 187/2/2 191/2/2
f 192/1/2 193/1/2 198/1/2
f 198/1/2 193/1/2 199/1/2
f 194/1/2 195/1/2 200/1/2
f 200/1/2 195/1/2 201/1/2
f 196/1/2 197/1/2 202/1/2
f 202/1/2 197/1/2 203/1/2
f 203/1/2 204/1/2 205/1/2
f 202/1/2 203/1/2 205/1/2
f 201/1/2 202/1/2 205/1/2
f 205/1/2 204/1/2 206/1/2
f 207/3/2 208/3/2 210/3/2
f 208/5/2 209/5/2 211/5/2
f 210/3/2 208/3/2 211/3/2
f 211/5/2 209/5/2 212/5/2
f 210/5/2 211/5/2 213/5/2
f 211/3/2 212/3/2 214/3/2
f 213/5/2 211/5/2 214/5/2
f 214/3/2 212/3/2 215/3/2
f 213/4/2 214/4/2 217/4/2
f 214/4/2 215/4/2 217/4/2
f 217/4/2 215/4/2 218/4/2
f 218/4/2 215/4/2 219/4/2
f 217/2/2 218/2/2 223/2/2
f 216/2/2 217/2/2 223/2/2
f 223/2/2 218/2/2 224/2/2
f 224/2/2 218/2/2 225/2/2
f 219/2/2 220/2/2 226/2/2
f 226/2/2 220/2/2 227/2/2
f 227/2/2 220/2/2 228/2/2
f 221/2/2 222/2/2 230/2/2
f 230/2/2 222/2/2 231/2/2
f 224/1/2 225/1/2 233/1/2
f 233/1/2 225/1/2 234/1/2
f 227/1/2 228/1/2 235/1/2
f 228/2/2 229/2/2 236/2/2
f 235/1/2 228/1/2 236/1/2
f 236/2/2 229/2/2 237/2/2
f 231/1/2 232/1/2 238/1/2
f 238/1/2 232/1/2 239/1/2
f 238/1/2 239/1/2 242/1/2
f 242/1/2 239/1/2 243/1/2
f 240/1/2 241/1/2 246/1/2
f 246/1/2 241/1/2 247/1/2
f 244/1/2 245/1/2 248/1/2
f 248/1/2 245/1/2 249/1/2
f 250/2/2 251/2/2 254/2/2
f 252/2/2 253/2/2 256/2/2
f 254/2/2 255/2/2 258/2/2
f 250/2/2 254/2/2 258/2/2
f 258/2/2 255/2/2 259/2/2
f 259/2/2 255/2/2 260/2/2
f 256/2/2 257/2/2 261/2/2
f 252/2/2 256/2/2 261/2/2
f 261/2/2 257/2/2 262/2/2
f 259/1/2 260/1/2 266/1/2
f 262/1/2 263/1/2 266/1/2
f 261/1/2 262/1/2 266/1/2
f 260/1/2 261/1/2 266/1/2
f 266/1/2 263/1/2 267/1/2
f 264/1/2 265/1/2 268/1/2
f 268/1/2 265/1/2 269/1/2
f 273/1/3 271/1/3 270/1/3
f 275/2/3 273/2/3 272/2/3
f 276/1/3 271/1/3 273/1/3
f 276/2/3 273/2/3 275/2/3
f 277/1/3 276/1/3 275/1/3
f 277/1/3 271/1/3 276/1/3
f 278/1/3 271/1/3 277/1/3
f 279/2/3 275/2/3 274/2/3
f 280/1/3 277/1/3 275/1/3
f 280/2/3 275/2/3 279/2/3
f 281/1/3 277/1/3 280/1/3
f 282/2/3 281/2/3 280/2/3
f 283/2/3 281/2/3 282/2/3
f 284/1/3 271/1/3 278/1/3
f 285/1/3 271/1/3 284/1/3
f 289/1/3 287/1/3 286/1/3
f 290/1/3 287/1/3 289/1/3
f 292/2/3 289/2/3 288/2/3
f 293/2/3 289/2/3 292/2/3
f 294/1/3 291/1/3 290/1/3
f 295/1/3 291/1/3 294/1/3
f 296/2/3 292/2/3 288/2/3
f 297/2/3 292/2/3 296/2/3
f 300/1/3 294/1/3 290/1/3
f 301/1/3 294/1/3 300/1/3
f 304/1/3 299/1/3 298/1/3
f 305/1/3 300/1/3 290/1/3
f 306/1/3 300/1/3 305/1/3
f 307/2/3 303/2/3 302/2/3
f 308/1/3 299/1/3 304/1/3
f 309/1/3 299/1/3 308/1/3
f 310/2/3 307/2/3 302/2/3
f 310/2/3 308/2/3 307/2/3
f 311/2/3 308/2/3 310/2/3
f 316/2/3 313/2/3 312/2/3
f 317/2/3 313/2/3 316/2/3
f 318/1/3 315/1/3 314/1/3
f 319/1/3 315/1/3 318/1/3
f 322/1/3 321/1/3 320/1/3
f 323/1/3 321/1/3 322/1/3
f 328/2/3 325/2/3 324/2/3
f 329/2/3 325/2/3 328/2/3
f 330/1/3 327/1/3 326/1/3
f 331/1/3 327/1/3 330/1/3
f 339/3/3 333/3/3 332/3/3
f 340/5/3 334/5/3 333/5/3
f 340/3/3 333/3/3 339/3/3
f 341/4/3 335/4/3 334/4/3
f 341/5/3 334/5/3 340/5/3
f 342/4/3 335/4/3 341/4/3
f 343/1/3 337/1/3 336/1/3
f 343/1/3 338/1/3 337/1/3
f 344/1/3 338/1/3 343/1/3
f 349/3/3 346/3/3 345/3/3
f 350/5/3 347/5/3 346/5/3
f 350/3/3 346/3/3 349/3/3
f 351/4/3 348/4/3 347/4/3
f 351/5/3 347/5/3 350/5/3
f 352/4/3 348/4/3 351/4/3
f 355/1/3 354/1/3 353/1/3
f 356/1/3 354/1/3 355/1/3
f 360/1/3 354/1/3 356/1/3
f 361/1/3 354/1/3 360/1/3
f 362/2/3 359/2/3 358/2/3
f 362/2/3 358/2/3 357/2/3
f 363/2/3 359/2/3 362/2/3
f 366/1/3 365/1/3 364/1/3
f 367/1/3 365/1/3 366/1/3
f 370/1/3 369/1/3 368/1/3
f 371/1/3 369/1/3 370/1/3
f 375/1/3 373/1/3 372/1/3
f 378/1/3 375/1/3 374/1/3
f 379/1/3 373/1/3 375/1/3
f 379/1/3 375/1/3 378/1/3
f 380/1/3 377/1/3 376/1/3
f 381/1/3 377/1/3 380/1/3
f 382/1/3 377/1/3 381/1/3
f 383/1/3 380/1/3 379/1/3
f 384/1/3 380/1/3 383/1/3
f 387/1/3 386/1/3 385/1/3
f 389/1/3 387/1/3 385/1/3
f 389/1/3 388/1/3 387/1/3
f 390/1/3 388/1/3 389/1/3
f 391/1/3 388/1/3 390/1/3
f 392/1/4 393/1/4 394/1/4
f 394/1/4 393/1/4 395/1/4
f 396/1/4 397/1/4 398/1/4
f 398/1/4 397/1/4 399/1/4
f 396/1/4 398/1/4 402/1/4
f 402/1/4 398/1/4 403/1/4
f 400/2/4 401/2/4 404/2/4
f 404/2/4 401/2/4 405/2/4
f 406/1/4 407/1/4 408/1/4
f 408/1/4 407/1/4 409/1/4
f 410/2/4 411/2/4 412/2/4
f 412/2/4 411/2/4 413/2/4
f 414/1/4 415/1/4 416/1/4
f 416/1/4 415/1/4 417/1/4
f 417/1/4 415/1/4 418/1/4
f 419/1/4 420/1/4 423/1/4
f 423/1/4 420/1/4 424/1/4
f 421/1/4 422/1/4 425/1/4
f 425/1/4 422/1/4 426/1/4
f 427/2/4 428/2/4 431/2/4
f 431/2/4 428/2/4 432/2/4
f 429/1/4 430/1/4 433/1/4
f 433/1/4 430/1/4 434/1/4
f 435/5/4 436/5/4 441/5/4
f 436/3/4 437/3/4 442/3/4
f 441/5/4 436/5/4 442/5/4
f 437/4/4 438/4/4 443/4/4
f 442/3/4 437/3/4 443/3/4
f 443/4/4 438/4/4 444/4/4
f 439/1/4 440/1/4 447/1/4
f 447/1/4 440/1/4 448/1/4
f 445/1/4 446/1/4 449/1/4
f 449/1/4 446/1/4 450/1/4
f 451/1/4 452/1/4 457/1/4
f 457/1/4 452/1/4 458/1/4
f 453/5/4 454/5/4 460/5/4
f 454/3/4 455/3/4 461/3/4
f 460/5/4 454/5/4 461/5/4
f 455/4/4 456/4/4 462/4/4
f 461/3/4 455/3/4 462/3/4
f 462/4/4 456/4/4 463/4/4
f 458/1/4 459/1/4 465/1/4
f 465/1/4 459/1/4 466/1/4
f 463/2/4 464/2/4 467/2/4
f 467/2/4 464/2/4 468/2/4
f 469/2/4 470/2/4 473/2/4
f 473/2/4 470/2/4 474/2/4
f 471/1/4 472/1/4 475/1/4
f 475/1/4 472/1/4 476/1/4
f 477/1/4 478/1/4 479/1/4
f 479/1/4 478/1/4 480/1/4
f 481/1/4 482/1/4 484/1/4
f 484/1/4 482/1/4 485/1/4
f 483/2/4 484/2/4 486/2/4
f 486/2/4 484/2/4 487/2/4
f 488/1/4 489/1/4 491/1/4
f 491/1/4 489/1/4 492/1/4
f 490/2/4 491/2/4 494/2/4
f 494/2/4 491/2/4 495/2/4
f 492/1/4 493/1/4 496/1/4
f 496/1/4 493/1/4 497/1/4
f 490/2/4 494/2/4 498/2/4
f 498/2/4 494/2/4 499/2/4
f 497/1/4 493/1/4 500/1/4
f 500/1/4 493/1/4 501/1/4
f 502/2/4 503/2/4 504/2/4
f 504/2/4 503/2/4 505/2/4
f 506/1/4 507/1/4 509/1/4
f 509/1/4 507/1/4 510/1/4
f 508/2/4 509/2/4 513/2/4
f 510/1/4 511/1/4 514/1/4
f 509/1/4 510/1/4 514/1/4
f 513/2/4 509/2/4 514/2/4
f 512/2/4 513/2/4 515/2/4
f 513/1/4 514/1/4 516/1/4
f 515/2/4 513/2/4 516/2/4
f 514/1/4 511/1/4 517/1/4
f 516/1/4 514/1/4 517/1/4
f 517/1/4 511/1/4 518/1/4
f 518/1/4 511/1/4 519/1/4
f 516/2/4 517/2/4 520/2/4
f 517/1/4 518/1/4 521/1/4
f 520/2/4 517/2/4 521/2/4
f 521/1/4 518/1/4 522/1/4
f 522/1/4 518/1/4 523/1/4
f 521/1/4 522/1/4 524/1/4
f 524/1/4 522/1/4 525/1/4
f 530/3/5 527/3/5 526/3/5
f 531/3/5 527/3/5 530/3/5
f 532/3/5 529/3/5 528/3/5
f 533/3/5 529/3/5 532/3/5
f 534/5/5 531/5/5 530/5/5
f 535/5/5 531/5/5 534/5/5
f 536/5/5 533/5/5 532/5/5
f 537/5/5 533/5/5 536/5/5
f 541/2/5 539/2/5 538/2/5
f 542/2/5 539/2/5 541/2/5
f 544/2/5 541/2/5 540/2/5
f 544/2/5 543/2/5 542/2/5
f 544/2/5 542/2/5 541/2/5
f 545/2/5 543/2/5 544/2/5
f 547/2/5 544/2/5 540/2/5
f 548/2/5 544/2/5 547/2/5
f 549/2/5 544/2/5 548/2/5
f 550/2/5 544/2/5 549/2/5
f 551/2/5 544/2/5 550/2/5
f 554/2/5 547/2/5 546/2/5
f 554/2/5 548/2/5 547/2/5
f 555/2/5 548/2/5 554/2/5
f 556/2/5 548/2/5 555/2/5
f 557/2/5 550/2/5 549/2/5
f 558/2/5 550/2/5 557/2/5
f 559/2/5 553/2/5 552/2/5
f 560/2/5 553/2/5 559/2/5
f 561/2/5 558/2/5 557/2/5
f 561/2/5 556/2/5 555/2/5
f 561/2/5 559/2/5 558/2/5
f 561/2/5 557/2/5 556/2/5
f 562/2/5 559/2/5 561/2/5
f 563/2/5 559/2/5 562/2/5
f 564/2/5 559/2/5 563/2/5
f 565/2/5 563/2/5 562/2/5
f 566/2/5 563/2/5 565/2/5
f 571/2/5 568/2/5 567/2/5
f 572/2/5 568/2/5 571/2/5
f 573/2/5 570/2/5 569/2/5
f 574/2/5 570/2/5 573/2/5
f 579/2/5 576/2/5 575/2/5
f 580/2/5 576/2/5 579/2/5
f 581/2/5 578/2/5 577/2/5
f 582/2/5 578/2/5 581/2/5
f 587/2/5 584/2/5 583/2/5
f 588/2/5 584/2/5 587/2/5
f 589/2/5 586/2/5 585/2/5
f 590/2/5 586/2/5 589/2/5
f 595/2/5 592/2/5 591/2/5
f 596/2/5 592/2/5 595/2/5
f 597/2/5 594/2/5 593/2/5
f 598/2/5 594/2/5 597/2/5
f 602/1/5 600/1/5 599/1/5
f 603/1/5 600/1/5 602/1/5
f 604/1/5 602/1/5 601/1/5
f 605/1/5 602/1/5 604/1/5
f 608/1/5 607/1/5 606/1/5
f 609/1/5 607/1/5 608/1/5
f 614/1/5 611/1/5 610/1/5
f 615/1/5 611/1/5 614/1/5
f 617/1/5 613/1/5 612/1/5
f 618/1/5 616/1/5 615/1/5
f 619/1/5 616/1/5 618/1/5
f 620/1/5 613/1/5 617/1/5
f 621/1/5 613/1/5 620/1/5
f 624/1/5 623/1/5 622/1/5
f 625/1/5 623/1/5 624/1/5
f 626/1/5 623/1/5 625/1/5
f 630/1/5 628/1/5 627/1/5
f 631/1/5 628/1/5 630/1/5
f 633/1/5 630/1/5 629/1/5
f 633/1/5 632/1/5 631/1/5
f 633/1/5 631/1/5 630/1/5
f 634/1/5 632/1/5 633/1/5
f 635/1/5 633/1/5 629/1/5
f 636/1/5 633/1/5 635/1/5
f 638/1/5 637/1/5 636/1/5
f 639/1/5 637/1/5 638/1/5
f 643/1/5 641/1/5 640/1/5
f 644/1/5 641/1/5 643/1/5
f 645/1/5 643/1/5 642/1/5
f 646/1/5 643/1/5 645/1/5
f 649/1/5 648/1/5 647/1/5
f 650/1/5 648/1/5 649/1/5
f 651/1/6 652/1/6 654/1/6
f 652/2/6 653/2/6 655/2/6
f 654/1/6 652/1/6 655/1/6
f 655/2/6 653/2/6 656/2/6
f 656/2/6 657/2/6 658/2/6
f 658/2/6 657/2/6 659/2/6
f 660/1/6 661/1/6 664/1/6
f 664/1/6 661/1/6 665/1/6
f 662/1/6 663/1/6 666/1/6
f 665/1/6 666/1/6 667/1/6
f 666/1/6 663/1/6 668/1/6
f 667/1/6 666/1/6 668/1/6
f 668/1/6 663/1/6 669/1/6
f 669/1/6 670/1/6 671/1/6
f 668/1/6 669/1/6 671/1/6
f 671/1/6 670/1/6 672/1/6
f 673/1/6 674/1/6 677/1/6
f 674/1/6 675/1/6 677/1/6
f 676/1/6 677/1/6 678/1/6
f 677/1/6 675/1/6 679/1/6
f 678/1/6 677/1/6 679/1/6
f 679/1/6 675/1/6 680/1/6
f 678/1/6 679/1/6 682/1/6
f 682/1/6 679/1/6 683/1/6
f 681/1/6 682/1/6 684/1/6
f 684/1/6 682/1/6 685/1/6
f 680/1/6 675/1/6 686/1/6
f 686/1/6 675/1/6 687/1/6
f 687/1/6 675/1/6 688/1/6
f 688/1/6 675/1/6 689/1/6
f 689/1/6 675/1/6 690/1/6
f 691/1/6 692/1/6 694/1/6
f 694/1/6 692/1/6 695/1/6
f 695/1/6 692/1/6 696/1/6
f 696/1/6 692/1/6 697/1/6
f 693/1/6 694/1/6 698/1/6
f 698/1/6 694/1/6 699/1/6
f 695/1/6 696/1/6 700/1/6
f 700/1/6 696/1/6 701/1/6
f 702/1/6 703/1/6 704/1/6
f 704/1/6 703/1/6 705/1/6
f 706/1/6 707/1/6 710/1/6
f 710/1/6 707/1/6 711/1/6
f 708/1/6 709/1/6 712/1/6
f 712/1/6 709/1/6 713/1/6
f 713/1/6 714/1/6 717/1/6
f 717/1/6 714/1/6 718/1/6
f 715/1/6 716/1/6 719/1/6
f 719/1/6 716/1/6 720/1/6
f 723/1/6 724/1/6 725/1/6
f 725/1/6 724/1/6 726/1/6
f 721/1/6 722/1/6 727/1/6
f 727/1/6 722/1/6 728/1/6
f 728/1/6 722/1/6 729/1/6
f 729/1/6 722/1/6 730/1/6
f 730/1/6 731/1/6 734/1/6
f 734/1/6 731/1/6 735/1/6
f 732/1/6 733/1/6 736/1/6
f 736/1/6 733/1/6 737/1/6
f 730/1/6 734/1/6 738/1/6
f 738/1/6 734/1/6 740/1/6
f 739/1/6 740/1/6 741/1/6
f 740/1/6 734/1/6 742/1/6
f 741/1/6 740/1/6 742/1/6
f 743/1/6 744/1/6 746/1/6
f 746/1/6 744/1/6 747/1/6
f 745/1/6 746/1/6 748/1/6
f 746/1/6 747/1/6 748/1/6
f 748/1/6 747/1/6 749/1/6
f 749/1/6 747/1/6 750/1/6
f 749/1/6 750/1/6 752/1/6
f 750/1/6 751/1/6 752/1/6
f 749/1/6 752/1/6 754/1/6
f 752/1/6 753/1/6 754/1/6
f 754/1/6 753/1/6 755/1/6
f 756/1/6 757/1/6 758/1/6
f 758/1/6 757/1/6 759/1/6
f 759/1/6 760/1/6 761/1/6
f 761/1/6 760/1/6 762/1/6
