# MagicaVoxel @ Ephtracy

# group
o 

# material
mtllib trans_2_2.mtl
usemtl palette

# normals
vn -1 0 0
vn 1 0 0
vn 0 0 1
vn 0 0 -1
vn 0 -1 0
vn 0 1 0

# texcoords
vt 0.755859 0.5
vt 0.759766 0.5
vt 0.892578 0.5
vt 0.962891 0.5
vt 0.966797 0.5

# verts
v -0.5 1.2 0.3
v -0.5 1.2 0.1
v -0.5 1.3 0.4
v -0.5 1.3 0.3
v -0.5 1.3 0.1
v -0.5 1.3 5.96046e-08
v -0.5 1.4 0.5
v -0.5 1.4 0.4
v -0.5 1.4 0.3
v -0.5 1.4 0.1
v -0.5 1.4 5.96046e-08
v -0.5 1.4 -0.1
v -0.5 1.5 0.5
v -0.5 1.5 0.3
v -0.5 1.5 0.1
v -0.5 1.5 -0.1
v -0.4 1.2 0.4
v -0.4 1.2 0.3
v -0.4 1.2 0.1
v -0.4 1.2 -0.1
v -0.4 1.3 0.4
v -0.4 1.3 0.3
v -0.4 1.3 0.1
v -0.4 1.3 5.96046e-08
v -0.4 1.4 0.6
v -0.4 1.4 0.5
v -0.4 1.4 0.3
v -0.4 1.4 0.2
v -0.4 1.4 5.96046e-08
v -0.4 1.4 -0.1
v -0.4 1.4 -0.2
v -0.4 1.5 0.6
v -0.4 1.5 0.5
v -0.4 1.5 0.4
v -0.4 1.5 0.3
v -0.4 1.5 0.2
v -0.4 1.5 -0.1
v -0.4 1.5 -0.2
v -0.4 1.6 0.5
v -0.4 1.6 0.4
v -0.3 0 0.2
v -0.3 0 0.1
v -0.3 0.1 0.2
v -0.3 0.1 0.1
v -0.3 0.2 0.2
v -0.3 0.2 0.1
v -0.3 0.5 0.3
v -0.3 0.5 0.2
v -0.3 0.9 0.2
v -0.3 0.9 0.1
v -0.3 1.1 0.3
v -0.3 1.1 0.2
v -0.3 1.1 0.1
v -0.3 1.2 0.5
v -0.3 1.2 0.4
v -0.3 1.2 0.2
v -0.3 1.2 0.1
v -0.3 1.3 0.5
v -0.3 1.3 0.4
v -0.3 1.3 -0.1
v -0.3 1.3 -0.2
v -0.3 1.4 0.4
v -0.3 1.4 0.3
v -0.3 1.4 -0.1
v -0.3 1.4 -0.2
v -0.3 1.5 0.4
v -0.3 1.5 0.3
v -0.2 1.2 0.6
v -0.2 1.2 0.5
v -0.2 1.3 0.6
v -0.2 1.3 0.5
v -0.2 1.3 0.4
v -0.2 1.4 0.5
v -0.2 1.4 0.4
v -0.2 1.4 5.96046e-08
v -0.2 1.4 -0.1
v -0.2 1.5 5.96046e-08
v -0.2 1.5 -0.1
v -0.4 1.4 0.4
v -0.4 1.4 0.3
v -0.4 1.5 0.4
v -0.4 1.5 0.3
v -0.3 1.4 0.6
v -0.3 1.4 0.4
v -0.3 1.4 0.3
v -0.3 1.4 0.2
v -0.3 1.4 0.1
v -0.3 1.4 5.96046e-08
v -0.3 1.4 -0.1
v -0.3 1.5 0.6
v -0.3 1.5 0.5
v -0.3 1.5 0.4
v -0.3 1.5 0.3
v -0.3 1.5 0.2
v -0.3 1.5 0.1
v -0.3 1.5 -0.1
v -0.3 1.6 0.5
v -0.3 1.6 0.4
v -0.2 0 0.2
v -0.2 0 0.1
v -0.2 0.1 0.2
v -0.2 0.1 0.1
v -0.2 0.2 0.2
v -0.2 0.2 0.1
v -0.2 0.5 0.3
v -0.2 0.5 0.2
v -0.2 0.9 0.2
v -0.2 0.9 0.1
v -0.2 1.1 0.3
v -0.2 1.1 0.2
v -0.2 1.1 0.1
v -0.2 1.2 0.2
v -0.2 1.2 0.1
v -0.2 1.4 0.4
v -0.2 1.4 0.3
v -0.2 1.5 0.4
v -0.2 1.5 0.3
v -0.1 1.2 0.6
v -0.1 1.2 0.4
v -0.1 1.3 0.6
v -0.1 1.3 0.5
v -0.1 1.3 0.4
v -0.1 1.3 -0.1
v -0.1 1.3 -0.2
v -0.1 1.4 0.5
v -0.1 1.4 0.4
v -0.1 1.4 5.96046e-08
v -0.1 1.4 -0.1
v -0.1 1.5 5.96046e-08
v -0.1 1.5 -0.2
v 0 1.2 0.4
v 0 1.2 -0.1
v 0 1.3 0.4
v 0 1.3 5.96046e-08
v 0 1.3 -0.1
v 0 1.4 5.96046e-08
v 0 1.4 -0.1
v 0.1 1.3 0.4
v 0.1 1.3 0.2
v 0.1 1.3 0.1
v 0.1 1.3 5.96046e-08
v 0.1 1.4 0.4
v 0.1 1.4 0.2
v 0.1 1.4 0.1
v 0.1 1.4 5.96046e-08
v 0.2 1.3 0.2
v 0.2 1.3 0.1
v 0.2 1.4 0.2
v 0.2 1.4 0.1
v -0.4 1.4 0.6
v -0.4 1.5 0.6
v -0.3 1.4 0.6
v -0.3 1.5 0.6
v -0.2 1.2 0.6
v -0.2 1.3 0.6
v -0.1 1.2 0.6
v -0.1 1.3 0.6
v -0.5 1.4 0.5
v -0.5 1.5 0.5
v -0.4 1.4 0.5
v -0.4 1.5 0.5
v -0.4 1.6 0.5
v -0.3 1.2 0.5
v -0.3 1.3 0.5
v -0.3 1.5 0.5
v -0.3 1.6 0.5
v -0.2 1.2 0.5
v -0.2 1.3 0.5
v -0.2 1.4 0.5
v -0.1 1.3 0.5
v -0.1 1.4 0.5
v -0.5 1.3 0.4
v -0.5 1.4 0.4
v -0.4 1.2 0.4
v -0.4 1.3 0.4
v -0.4 1.4 0.4
v -0.3 1.2 0.4
v -0.3 1.3 0.4
v -0.3 1.4 0.4
v -0.3 1.5 0.4
v -0.2 1.3 0.4
v -0.2 1.4 0.4
v -0.2 1.5 0.4
v -0.1 1.2 0.4
v -0.1 1.3 0.4
v -0.1 1.4 0.4
v 0 1.2 0.4
v 0 1.3 0.4
v 0.1 1.3 0.4
v 0.1 1.4 0.4
v -0.5 1.2 0.3
v -0.5 1.3 0.3
v -0.4 1.2 0.3
v -0.4 1.3 0.3
v -0.4 1.4 0.3
v -0.4 1.5 0.3
v -0.3 0.5 0.3
v -0.3 1.1 0.3
v -0.3 1.4 0.3
v -0.3 1.5 0.3
v -0.2 0.5 0.3
v -0.2 1.1 0.3
v -0.3 0 0.2
v -0.3 0.1 0.2
v -0.3 0.2 0.2
v -0.3 0.5 0.2
v -0.3 1.1 0.2
v -0.3 1.2 0.2
v -0.2 0 0.2
v -0.2 0.1 0.2
v -0.2 0.2 0.2
v -0.2 0.5 0.2
v -0.2 1.1 0.2
v -0.2 1.2 0.2
v 0.1 1.3 0.2
v 0.1 1.4 0.2
v 0.2 1.3 0.2
v 0.2 1.4 0.2
v -0.5 1.4 0.1
v -0.5 1.5 0.1
v -0.3 1.4 0.1
v -0.3 1.5 0.1
v -0.2 1.4 5.96046e-08
v -0.2 1.5 5.96046e-08
v -0.1 1.4 5.96046e-08
v -0.1 1.5 5.96046e-08
v -0.3 1.4 -0.1
v -0.3 1.5 -0.1
v -0.2 1.4 -0.1
v -0.2 1.5 -0.1
v -0.4 1.4 0.4
v -0.4 1.5 0.4
v -0.4 1.6 0.4
v -0.3 1.4 0.4
v -0.3 1.5 0.4
v -0.3 1.6 0.4
v -0.5 1.4 0.3
v -0.5 1.5 0.3
v -0.4 1.4 0.3
v -0.4 1.5 0.3
v -0.3 1.4 0.3
v -0.3 1.5 0.3
v -0.2 1.4 0.3
v -0.2 1.5 0.3
v -0.4 1.4 0.2
v -0.4 1.5 0.2
v -0.3 0.9 0.2
v -0.3 1.1 0.2
v -0.3 1.4 0.2
v -0.3 1.5 0.2
v -0.2 0.9 0.2
v -0.2 1.1 0.2
v -0.5 1.2 0.1
v -0.5 1.3 0.1
v -0.4 1.2 0.1
v -0.4 1.3 0.1
v -0.3 0 0.1
v -0.3 0.1 0.1
v -0.3 0.2 0.1
v -0.3 0.9 0.1
v -0.3 1.1 0.1
v -0.3 1.2 0.1
v -0.2 0 0.1
v -0.2 0.1 0.1
v -0.2 0.2 0.1
v -0.2 0.9 0.1
v -0.2 1.1 0.1
v -0.2 1.2 0.1
v 0.1 1.3 0.1
v 0.1 1.4 0.1
v 0.2 1.3 0.1
v 0.2 1.4 0.1
v -0.5 1.3 5.96046e-08
v -0.5 1.4 5.96046e-08
v -0.4 1.3 5.96046e-08
v -0.4 1.4 5.96046e-08
v 0 1.3 5.96046e-08
v 0 1.4 5.96046e-08
v 0.1 1.3 5.96046e-08
v 0.1 1.4 5.96046e-08
v -0.5 1.4 -0.1
v -0.5 1.5 -0.1
v -0.4 1.2 -0.1
v -0.4 1.4 -0.1
v -0.4 1.5 -0.1
v -0.3 1.3 -0.1
v -0.3 1.4 -0.1
v -0.2 1.3 -0.1
v -0.1 1.3 -0.1
v -0.1 1.4 -0.1
v 0 1.2 -0.1
v 0 1.3 -0.1
v 0 1.4 -0.1
v -0.4 1.4 -0.2
v -0.4 1.5 -0.2
v -0.3 1.3 -0.2
v -0.3 1.4 -0.2
v -0.2 1.3 -0.2
v -0.2 1.4 -0.2
v -0.1 1.3 -0.2
v -0.1 1.5 -0.2
v -0.3 0 0.2
v -0.2 0 0.2
v -0.3 0 0.1
v -0.2 0 0.1
v -0.3 0.5 0.3
v -0.2 0.5 0.3
v -0.3 0.5 0.2
v -0.2 0.5 0.2
v -0.3 1.1 0.2
v -0.2 1.1 0.2
v -0.3 1.1 0.1
v -0.2 1.1 0.1
v -0.2 1.2 0.6
v -0.1 1.2 0.6
v -0.3 1.2 0.5
v -0.2 1.2 0.5
v -0.4 1.2 0.4
v -0.3 1.2 0.4
v -0.1 1.2 0.4
v 0 1.2 0.4
v -0.5 1.2 0.3
v -0.4 1.2 0.3
v -0.3 1.2 0.2
v -0.2 1.2 0.2
v -0.5 1.2 0.1
v -0.4 1.2 0.1
v -0.3 1.2 0.1
v -0.2 1.2 0.1
v -0.4 1.2 -0.1
v 0 1.2 -0.1
v -0.5 1.3 0.4
v -0.4 1.3 0.4
v 0 1.3 0.4
v 0.1 1.3 0.4
v -0.5 1.3 0.3
v -0.4 1.3 0.3
v 0.1 1.3 0.2
v 0.2 1.3 0.2
v -0.5 1.3 0.1
v -0.4 1.3 0.1
v 0.1 1.3 0.1
v 0.2 1.3 0.1
v -0.5 1.3 5.96046e-08
v -0.4 1.3 5.96046e-08
v 0 1.3 5.96046e-08
v 0.1 1.3 5.96046e-08
v -0.3 1.3 -0.1
v -0.2 1.3 -0.1
v -0.1 1.3 -0.1
v -0.3 1.3 -0.2
v -0.2 1.3 -0.2
v -0.1 1.3 -0.2
v -0.4 1.4 0.6
v -0.3 1.4 0.6
v -0.5 1.4 0.5
v -0.4 1.4 0.5
v -0.5 1.4 0.4
v -0.4 1.4 0.4
v -0.3 1.4 0.4
v -0.5 1.4 5.96046e-08
v -0.4 1.4 5.96046e-08
v -0.5 1.4 -0.1
v -0.4 1.4 -0.1
v -0.3 1.4 -0.1
v -0.4 1.4 -0.2
v -0.3 1.4 -0.2
v -0.3 0.9 0.2
v -0.2 0.9 0.2
v -0.3 0.9 0.1
v -0.2 0.9 0.1
v -0.3 1.1 0.3
v -0.2 1.1 0.3
v -0.3 1.1 0.2
v -0.2 1.1 0.2
v -0.2 1.3 0.6
v -0.1 1.3 0.6
v -0.3 1.3 0.5
v -0.2 1.3 0.5
v -0.1 1.3 0.5
v -0.3 1.3 0.4
v -0.2 1.3 0.4
v -0.2 1.4 0.5
v -0.1 1.4 0.5
v -0.4 1.4 0.4
v -0.3 1.4 0.4
v -0.2 1.4 0.4
v -0.1 1.4 0.4
v 0.1 1.4 0.4
v -0.5 1.4 0.3
v -0.4 1.4 0.3
v -0.3 1.4 0.3
v -0.2 1.4 0.3
v -0.4 1.4 0.2
v -0.3 1.4 0.2
v 0.1 1.4 0.2
v 0.2 1.4 0.2
v -0.5 1.4 0.1
v -0.3 1.4 0.1
v 0.1 1.4 0.1
v 0.2 1.4 0.1
v -0.3 1.4 5.96046e-08
v -0.2 1.4 5.96046e-08
v -0.1 1.4 5.96046e-08
v 0 1.4 5.96046e-08
v 0.1 1.4 5.96046e-08
v -0.3 1.4 -0.1
v -0.2 1.4 -0.1
v -0.1 1.4 -0.1
v 0 1.4 -0.1
v -0.4 1.5 0.6
v -0.3 1.5 0.6
v -0.5 1.5 0.5
v -0.4 1.5 0.5
v -0.3 1.5 0.5
v -0.4 1.5 0.4
v -0.3 1.5 0.4
v -0.2 1.5 0.4
v -0.5 1.5 0.3
v -0.4 1.5 0.3
v -0.3 1.5 0.3
v -0.2 1.5 0.3
v -0.4 1.5 0.2
v -0.3 1.5 0.2
v -0.5 1.5 0.1
v -0.3 1.5 0.1
v -0.2 1.5 5.96046e-08
v -0.1 1.5 5.96046e-08
v -0.5 1.5 -0.1
v -0.4 1.5 -0.1
v -0.3 1.5 -0.1
v -0.2 1.5 -0.1
v -0.4 1.5 -0.2
v -0.1 1.5 -0.2
v -0.4 1.6 0.5
v -0.3 1.6 0.5
v -0.4 1.6 0.4
v -0.3 1.6 0.4

# faces
f 4/2/1 2/2/1 1/2/1
f 5/2/1 2/2/1 4/2/1
f 8/2/1 4/2/1 3/2/1
f 9/1/1 5/1/1 4/1/1
f 9/2/1 4/2/1 8/2/1
f 10/2/1 6/2/1 5/2/1
f 10/1/1 5/1/1 9/1/1
f 11/2/1 6/2/1 10/2/1
f 13/1/1 9/1/1 8/1/1
f 13/1/1 8/1/1 7/1/1
f 14/1/1 9/1/1 13/1/1
f 15/1/1 12/1/1 11/1/1
f 15/1/1 11/1/1 10/1/1
f 16/1/1 12/1/1 15/1/1
f 21/2/1 18/2/1 17/2/1
f 22/2/1 18/2/1 21/2/1
f 23/2/1 20/2/1 19/2/1
f 24/2/1 20/2/1 23/2/1
f 29/2/1 20/2/1 24/2/1
f 30/2/1 20/2/1 29/2/1
f 32/1/1 26/1/1 25/1/1
f 33/1/1 26/1/1 32/1/1
f 35/1/1 28/1/1 27/1/1
f 36/1/1 28/1/1 35/1/1
f 37/1/1 31/1/1 30/1/1
f 38/1/1 31/1/1 37/1/1
f 39/1/1 34/1/1 33/1/1
f 40/1/1 34/1/1 39/1/1
f 43/5/1 42/5/1 41/5/1
f 44/5/1 42/5/1 43/5/1
f 45/3/1 44/3/1 43/3/1
f 46/3/1 44/3/1 45/3/1
f 48/4/1 46/4/1 45/4/1
f 49/4/1 46/4/1 48/4/1
f 49/4/1 48/4/1 47/4/1
f 50/4/1 46/4/1 49/4/1
f 51/4/1 49/4/1 47/4/1
f 52/4/1 49/4/1 51/4/1
f 56/4/1 53/4/1 52/4/1
f 57/4/1 53/4/1 56/4/1
f 58/2/1 55/2/1 54/2/1
f 59/2/1 55/2/1 58/2/1
f 64/2/1 61/2/1 60/2/1
f 65/2/1 61/2/1 64/2/1
f 66/1/1 63/1/1 62/1/1
f 67/1/1 63/1/1 66/1/1
f 70/2/1 69/2/1 68/2/1
f 71/2/1 69/2/1 70/2/1
f 73/1/1 72/1/1 71/1/1
f 74/1/1 72/1/1 73/1/1
f 77/1/1 76/1/1 75/1/1
f 78/1/1 76/1/1 77/1/1
f 79/1/2 80/1/2 81/1/2
f 81/1/2 80/1/2 82/1/2
f 83/1/2 84/1/2 90/1/2
f 90/1/2 84/1/2 91/1/2
f 91/1/2 84/1/2 92/1/2
f 85/1/2 86/1/2 93/1/2
f 93/1/2 86/1/2 94/1/2
f 88/1/2 89/1/2 95/1/2
f 87/1/2 88/1/2 95/1/2
f 95/1/2 89/1/2 96/1/2
f 91/1/2 92/1/2 97/1/2
f 97/1/2 92/1/2 98/1/2
f 99/5/2 100/5/2 101/5/2
f 101/5/2 100/5/2 102/5/2
f 101/3/2 102/3/2 103/3/2
f 103/3/2 102/3/2 104/3/2
f 103/4/2 104/4/2 106/4/2
f 106/4/2 104/4/2 107/4/2
f 105/4/2 106/4/2 107/4/2
f 107/4/2 104/4/2 108/4/2
f 105/4/2 107/4/2 109/4/2
f 109/4/2 107/4/2 110/4/2
f 110/4/2 111/4/2 112/4/2
f 112/4/2 111/4/2 113/4/2
f 114/1/2 115/1/2 116/1/2
f 116/1/2 115/1/2 117/1/2
f 118/2/2 119/2/2 120/2/2
f 120/2/2 119/2/2 121/2/2
f 121/2/2 119/2/2 122/2/2
f 121/1/2 122/1/2 125/1/2
f 125/1/2 122/1/2 126/1/2
f 123/1/2 124/1/2 128/1/2
f 127/1/2 128/1/2 129/1/2
f 128/1/2 124/1/2 130/1/2
f 129/1/2 128/1/2 130/1/2
f 131/2/2 132/2/2 133/2/2
f 133/2/2 132/2/2 134/2/2
f 134/2/2 132/2/2 135/2/2
f 134/1/2 135/1/2 136/1/2
f 136/1/2 135/1/2 137/1/2
f 138/1/2 139/1/2 142/1/2
f 142/1/2 139/1/2 143/1/2
f 140/1/2 141/1/2 144/1/2
f 144/1/2 141/1/2 145/1/2
f 146/2/2 147/2/2 148/2/2
f 148/2/2 147/2/2 149/2/2
f 152/1/3 151/1/3 150/1/3
f 153/1/3 151/1/3 152/1/3
f 156/2/3 155/2/3 154/2/3
f 157/2/3 155/2/3 156/2/3
f 160/1/3 159/1/3 158/1/3
f 161/1/3 159/1/3 160/1/3
f 165/1/3 162/1/3 161/1/3
f 166/1/3 162/1/3 165/1/3
f 167/2/3 164/2/3 163/2/3
f 168/2/3 164/2/3 167/2/3
f 170/1/3 169/1/3 168/1/3
f 171/1/3 169/1/3 170/1/3
f 175/2/3 173/2/3 172/2/3
f 176/2/3 173/2/3 175/2/3
f 177/2/3 175/2/3 174/2/3
f 178/1/3 176/1/3 175/1/3
f 178/2/3 175/2/3 177/2/3
f 179/1/3 176/1/3 178/1/3
f 181/1/3 179/1/3 178/1/3
f 181/1/3 180/1/3 179/1/3
f 182/1/3 180/1/3 181/1/3
f 183/1/3 180/1/3 182/1/3
f 187/2/3 185/2/3 184/2/3
f 188/1/3 186/1/3 185/1/3
f 188/2/3 185/2/3 187/2/3
f 189/1/3 186/1/3 188/1/3
f 190/1/3 186/1/3 189/1/3
f 193/2/3 192/2/3 191/2/3
f 194/2/3 192/2/3 193/2/3
f 199/1/3 196/1/3 195/1/3
f 200/1/3 196/1/3 199/1/3
f 201/4/3 198/4/3 197/4/3
f 202/4/3 198/4/3 201/4/3
f 209/5/3 204/5/3 203/5/3
f 210/3/3 205/3/3 204/3/3
f 210/5/3 204/5/3 209/5/3
f 211/4/3 206/4/3 205/4/3
f 211/3/3 205/3/3 210/3/3
f 212/4/3 206/4/3 211/4/3
f 213/4/3 208/4/3 207/4/3
f 214/4/3 208/4/3 213/4/3
f 217/2/3 216/2/3 215/2/3
f 218/2/3 216/2/3 217/2/3
f 221/1/3 220/1/3 219/1/3
f 222/1/3 220/1/3 221/1/3
f 225/1/3 224/1/3 223/1/3
f 226/1/3 224/1/3 225/1/3
f 229/1/3 228/1/3 227/1/3
f 230/1/3 228/1/3 229/1/3
f 231/1/4 232/1/4 234/1/4
f 232/1/4 233/1/4 234/1/4
f 234/1/4 233/1/4 235/1/4
f 235/1/4 233/1/4 236/1/4
f 237/1/4 238/1/4 239/1/4
f 239/1/4 238/1/4 240/1/4
f 241/1/4 242/1/4 243/1/4
f 243/1/4 242/1/4 244/1/4
f 245/1/4 246/1/4 249/1/4
f 249/1/4 246/1/4 250/1/4
f 247/4/4 248/4/4 251/4/4
f 251/4/4 248/4/4 252/4/4
f 253/2/4 254/2/4 255/2/4
f 255/2/4 254/2/4 256/2/4
f 257/5/4 258/5/4 263/5/4
f 258/3/4 259/3/4 264/3/4
f 263/5/4 258/5/4 264/5/4
f 259/4/4 260/4/4 265/4/4
f 264/3/4 259/3/4 265/3/4
f 265/4/4 260/4/4 266/4/4
f 261/4/4 262/4/4 267/4/4
f 267/4/4 262/4/4 268/4/4
f 269/2/4 270/2/4 271/2/4
f 271/2/4 270/2/4 272/2/4
f 273/2/4 274/2/4 275/2/4
f 275/2/4 274/2/4 276/2/4
f 277/1/4 278/1/4 279/1/4
f 279/1/4 278/1/4 280/1/4
f 281/1/4 282/1/4 284/1/4
f 284/1/4 282/1/4 285/1/4
f 283/2/4 284/2/4 286/2/4
f 286/2/4 284/2/4 287/2/4
f 283/2/4 286/2/4 288/2/4
f 283/2/4 288/2/4 289/2/4
f 283/2/4 289/2/4 291/2/4
f 289/1/4 290/1/4 292/1/4
f 291/2/4 289/2/4 292/2/4
f 292/1/4 290/1/4 293/1/4
f 294/1/4 295/1/4 297/1/4
f 296/2/4 297/2/4 298/2/4
f 297/1/4 295/1/4 299/1/4
f 298/2/4 297/2/4 299/2/4
f 298/1/4 299/1/4 300/1/4
f 299/1/4 295/1/4 301/1/4
f 300/1/4 299/1/4 301/1/4
f 304/5/5 303/5/5 302/5/5
f 305/5/5 303/5/5 304/5/5
f 308/4/5 307/4/5 306/4/5
f 309/4/5 307/4/5 308/4/5
f 312/4/5 311/4/5 310/4/5
f 313/4/5 311/4/5 312/4/5
f 317/2/5 315/2/5 314/2/5
f 319/2/5 317/2/5 316/2/5
f 320/2/5 315/2/5 317/2/5
f 320/2/5 317/2/5 319/2/5
f 323/2/5 319/2/5 318/2/5
f 323/2/5 321/2/5 320/2/5
f 323/2/5 320/2/5 319/2/5
f 324/2/5 321/2/5 323/2/5
f 324/2/5 323/2/5 322/2/5
f 325/2/5 321/2/5 324/2/5
f 326/2/5 324/2/5 322/2/5
f 327/2/5 324/2/5 326/2/5
f 328/2/5 324/2/5 327/2/5
f 329/2/5 321/2/5 325/2/5
f 330/2/5 328/2/5 327/2/5
f 330/2/5 329/2/5 328/2/5
f 331/2/5 321/2/5 329/2/5
f 331/2/5 329/2/5 330/2/5
f 336/2/5 333/2/5 332/2/5
f 337/2/5 333/2/5 336/2/5
f 338/1/5 335/1/5 334/1/5
f 342/1/5 338/1/5 334/1/5
f 342/2/5 339/2/5 338/2/5
f 343/2/5 339/2/5 342/2/5
f 344/2/5 341/2/5 340/2/5
f 345/2/5 341/2/5 344/2/5
f 346/1/5 342/1/5 334/1/5
f 347/1/5 342/1/5 346/1/5
f 351/2/5 349/2/5 348/2/5
f 352/1/5 350/1/5 349/1/5
f 352/2/5 349/2/5 351/2/5
f 353/1/5 350/1/5 352/1/5
f 357/1/5 355/1/5 354/1/5
f 358/1/5 357/1/5 356/1/5
f 359/1/5 355/1/5 357/1/5
f 359/1/5 357/1/5 358/1/5
f 360/1/5 355/1/5 359/1/5
f 363/1/5 362/1/5 361/1/5
f 364/1/5 362/1/5 363/1/5
f 366/1/5 365/1/5 364/1/5
f 367/1/5 365/1/5 366/1/5
f 368/4/6 369/4/6 370/4/6
f 370/4/6 369/4/6 371/4/6
f 372/4/6 373/4/6 374/4/6
f 374/4/6 373/4/6 375/4/6
f 376/2/6 377/2/6 379/2/6
f 379/2/6 377/2/6 380/2/6
f 378/2/6 379/2/6 381/2/6
f 381/2/6 379/2/6 382/2/6
f 383/1/6 384/1/6 387/1/6
f 387/1/6 384/1/6 388/1/6
f 385/1/6 386/1/6 391/1/6
f 391/1/6 386/1/6 392/1/6
f 388/1/6 389/1/6 393/1/6
f 387/1/6 388/1/6 393/1/6
f 390/1/6 391/1/6 394/1/6
f 392/1/6 393/1/6 395/1/6
f 393/1/6 389/1/6 396/1/6
f 395/1/6 393/1/6 396/1/6
f 390/1/6 394/1/6 398/1/6
f 394/1/6 395/1/6 398/1/6
f 395/1/6 396/1/6 398/1/6
f 398/1/6 396/1/6 399/1/6
f 396/2/6 397/2/6 400/2/6
f 399/1/6 396/1/6 400/1/6
f 400/2/6 397/2/6 401/2/6
f 399/1/6 400/1/6 402/1/6
f 402/1/6 400/1/6 403/1/6
f 403/1/6 400/1/6 404/1/6
f 404/1/6 400/1/6 405/1/6
f 405/1/6 400/1/6 406/1/6
f 402/2/6 403/2/6 407/2/6
f 407/2/6 403/2/6 408/2/6
f 404/1/6 405/1/6 409/1/6
f 409/1/6 405/1/6 410/1/6
f 411/1/6 412/1/6 414/1/6
f 414/1/6 412/1/6 415/1/6
f 413/1/6 414/1/6 416/1/6
f 413/1/6 416/1/6 419/1/6
f 419/1/6 416/1/6 420/1/6
f 417/1/6 418/1/6 421/1/6
f 421/1/6 418/1/6 422/1/6
f 420/1/6 421/1/6 423/1/6
f 423/1/6 421/1/6 424/1/6
f 425/1/6 426/1/6 429/1/6
f 429/1/6 426/1/6 430/1/6
f 430/1/6 426/1/6 431/1/6
f 427/1/6 428/1/6 432/1/6
f 430/1/6 431/1/6 433/1/6
f 431/1/6 432/1/6 433/1/6
f 432/1/6 428/1/6 434/1/6
f 433/1/6 432/1/6 434/1/6
f 435/1/6 436/1/6 437/1/6
f 437/1/6 436/1/6 438/1/6
